<svg width="21" height="26" viewBox="0 0 21 26" fill="none" xmlns="http://www.w3.org/2000/svg">
<path fill-rule="evenodd" clip-rule="evenodd" d="M17.2315 10.5506C17.2752 10.6772 17.325 10.8039 17.3749 10.9242C17.8801 12.0516 18.9029 13.0649 19.3769 14.0972C19.539 14.4519 19.6139 14.8255 19.6326 15.1992C19.6763 16.0415 19.4518 16.9218 19.4268 17.7452C19.4019 18.4988 19.4455 19.2525 19.5453 20.0061C19.6388 20.7598 19.7823 21.5135 19.9444 22.2418C20.0567 22.7421 20.1939 23.4071 20.1752 24.0214C20.1627 24.4648 20.0691 24.8891 19.8446 25.2247C19.8259 25.2501 19.801 25.2754 19.7573 25.2944C19.7261 25.3071 19.6762 25.3197 19.6201 25.3261C19.4642 25.3387 19.1898 25.3261 19.1399 25.3261C18.8156 25.3261 18.4851 25.3134 18.1545 25.2881C17.824 25.2628 17.4935 25.2248 17.1692 25.1678C16.2898 25.0031 15.4228 24.7814 14.5435 24.5914C14.1693 24.5091 13.8014 24.4331 13.4209 24.3761C12.9095 24.2938 12.3981 24.2304 11.8929 24.1861C11.1196 24.1164 10.3462 24.0721 9.57289 24.0151C8.84944 23.9644 8.13225 23.9011 7.4088 23.8948C6.93481 23.8884 6.4608 23.9074 5.98058 23.9644C5.22595 24.0531 4.49005 24.2621 3.74165 24.3888C3.41111 24.4458 3.08058 24.4838 2.7438 24.4901C2.45692 24.4964 2.15754 24.4838 1.87066 24.4458C1.57753 24.4078 1.2844 24.3444 1.00375 24.2431C0.928915 24.2178 0.710611 24.1418 0.592115 24.0531C0.523512 24.0024 0.486122 23.9454 0.467412 23.8948C0.448702 23.8314 0.461136 23.7174 0.504793 23.5908C0.598342 23.3248 0.816667 22.9194 0.860324 22.7738C0.99753 22.2924 1.13473 21.7985 1.24075 21.2981C1.34677 20.7978 1.43409 20.2975 1.48399 19.8035C1.51517 19.4488 1.51518 19.0942 1.49023 18.7395C1.39668 17.2892 0.960095 15.8769 1.07859 14.4139C1.12225 13.8692 1.25325 13.3435 1.42164 12.8306C1.67734 12.0642 2.02656 11.3232 2.32592 10.5632C2.30097 10.5506 2.26979 10.5316 2.24484 10.5126C2.19495 10.4809 2.15131 10.4492 2.10765 10.4049C1.84571 10.1642 1.83948 9.92358 1.95174 9.71459C2.07023 9.49926 2.33842 9.30926 2.58789 9.20793C2.46315 9.01159 2.33843 8.8216 2.20746 8.6316C2.08273 8.45427 1.95175 8.28327 1.81455 8.1186C1.71476 7.99827 1.52765 7.82094 1.40915 7.63728C1.34055 7.53594 1.29685 7.43461 1.28437 7.33961C1.25319 7.04828 1.40915 6.80129 1.64615 6.61129C1.71475 6.55429 1.79582 6.50996 1.8769 6.46562C1.7584 6.32629 1.63362 6.19329 1.51513 6.06029C1.35921 5.88929 1.19712 5.7183 1.03497 5.55363C0.960128 5.47763 0.822922 5.3763 0.723136 5.27497C0.66077 5.21164 0.617061 5.1483 0.592115 5.0913C0.573405 5.0533 0.573405 5.00264 0.592115 4.94564C0.617061 4.86331 0.704362 4.75564 0.735545 4.72398C0.810385 4.63531 0.910217 4.55931 1.01624 4.49598C0.972583 4.43265 0.928881 4.36931 0.891461 4.30598C0.860278 4.25531 0.835335 4.21098 0.816625 4.16031C0.779205 4.07165 0.810397 3.94498 0.903947 3.81832C1.02868 3.64732 1.25947 3.46366 1.33431 3.41932C1.60873 3.22932 1.92053 3.08999 2.24484 2.97599C2.71259 2.81766 3.2053 2.729 3.66681 2.615L4.35907 2.43767C4.53993 2.387 4.72079 2.33634 4.89541 2.27934C5.01391 2.24134 5.13245 2.20967 5.25094 2.16534C5.30707 2.14634 5.44425 2.083 5.5378 2.05767C5.59393 2.045 5.64381 2.045 5.68123 2.05134C5.7436 2.064 5.82465 2.12734 5.88702 2.22234C5.96186 2.34267 6.03047 2.52 6.05542 2.58333C6.09284 2.67833 6.13028 2.77966 6.15523 2.88099C6.24877 3.19132 6.29867 3.51432 6.39222 3.82465C6.54814 3.60299 6.70403 3.38766 6.84124 3.15966C6.97221 2.94433 7.09074 2.72266 7.18429 2.49467C7.21547 2.406 7.2529 2.32367 7.27785 2.235C7.32151 2.102 7.36514 1.96901 7.4088 1.83601C7.42751 1.77901 7.43998 1.67134 7.48363 1.61434C7.51482 1.57001 7.55844 1.54468 7.60209 1.53201C7.76425 1.48768 7.9514 1.51934 8.12602 1.58901C8.2071 1.62068 8.28819 1.65868 8.36926 1.70301C8.41292 1.62701 8.45655 1.55101 8.50021 1.46868C8.54386 1.39268 8.59374 1.31668 8.6374 1.24068C8.66234 1.20268 8.70603 1.12035 8.74969 1.06968C8.77464 1.03802 8.79958 1.01901 8.82453 1.00635C8.85571 0.993682 8.89933 0.981016 8.94923 0.987349C9.03654 0.993683 9.15506 1.03801 9.20495 1.05068C9.32345 1.08235 9.43566 1.13302 9.54168 1.18368C9.58533 1.20268 9.62904 1.22801 9.6727 1.25335C9.7413 1.19635 9.81611 1.13935 9.87848 1.08235C9.95332 1.01902 10.0282 0.949348 10.103 0.879683C10.1342 0.848016 10.1965 0.765684 10.2464 0.721351C10.2776 0.689685 10.315 0.677018 10.34 0.664351C10.4024 0.645352 10.5022 0.664352 10.6082 0.721351C10.7454 0.791017 10.9138 0.924016 10.9761 0.962016C11.2194 1.12035 11.4564 1.25968 11.6934 1.39268C11.9304 1.52568 12.1735 1.64601 12.4355 1.75367C12.7037 1.86767 12.9844 1.988 13.2588 2.102C13.4459 2.178 13.6267 2.24767 13.8138 2.311C13.8949 2.34267 14.1131 2.38067 14.2192 2.45033C14.3065 2.50733 14.3502 2.58333 14.3502 2.66567C14.3502 2.90633 14.2566 3.13433 14.1132 3.34966C13.9323 3.62832 13.6704 3.88165 13.4958 4.10331C13.2338 4.43264 12.9906 4.78731 12.766 5.15464C12.66 5.32563 12.5665 5.5093 12.4729 5.68663C12.4979 5.6613 12.5291 5.6423 12.554 5.61697C12.8659 5.35097 13.1902 5.10397 13.4958 4.83797C13.8949 4.49598 14.2816 4.14131 14.6745 3.79932C14.9427 3.57132 15.2108 3.34332 15.4852 3.12799C15.7659 2.91266 16.0839 2.558 16.4332 2.33634C16.6078 2.22234 16.7949 2.14634 16.9758 2.121C17.0631 2.10834 17.1317 2.12734 17.1878 2.159C17.2315 2.18434 17.2752 2.22867 17.3063 2.273C17.3313 2.311 17.3625 2.35533 17.3937 2.39967C17.4498 2.47567 17.5059 2.55167 17.5621 2.62766C17.6868 2.805 17.8053 2.98233 17.9362 3.15332C18.036 3.28632 18.1421 3.40666 18.2543 3.52065C18.5225 3.80565 18.8156 4.07165 19.0713 4.36931C19.1212 4.43265 19.1773 4.48964 19.221 4.55931C19.2521 4.60998 19.2833 4.66064 19.3083 4.71131C19.3145 4.72398 19.3582 4.81897 19.3582 4.85697C19.3645 4.90764 19.3457 4.94564 19.327 4.96464C19.2771 5.02164 19.2272 5.07864 19.1711 5.1293C19.0775 5.21797 18.9778 5.30664 18.8905 5.40164C18.9528 5.47763 19.0464 5.61063 19.09 5.71196C19.1274 5.80063 19.1274 5.87663 19.1025 5.92096C19.0838 5.95896 19.0526 6.00329 18.9964 6.04129C18.8967 6.11729 18.7283 6.20596 18.6659 6.25662C18.4663 6.42129 18.2543 6.57962 18.0547 6.73795C18.036 6.75062 18.0173 6.76962 17.9986 6.78229C18.404 6.69995 18.8093 6.63029 19.221 6.59862C19.2771 6.59229 19.3083 6.61129 19.327 6.63029C19.3582 6.65562 19.3769 6.68729 19.3769 6.72529C19.3769 6.75062 19.3769 6.78229 19.3582 6.82028C19.3395 6.85195 19.2896 6.90262 19.2709 6.93428L19.1336 7.15595C19.065 7.26361 18.9902 7.37128 18.9154 7.47261C18.8405 7.57394 18.7594 7.68161 18.6784 7.78294C18.3354 8.20727 17.8302 8.53027 17.4435 8.93559C17.3437 9.03693 17.2564 9.14459 17.1816 9.26493C17.3375 9.29026 17.4809 9.39159 17.5745 9.52459C17.6805 9.67025 17.7304 9.85392 17.6805 10.0249C17.6493 10.1516 17.5745 10.2592 17.4872 10.3606C17.4311 10.4302 17.3313 10.4999 17.2315 10.5506ZM16.7201 3.05199C16.7013 3.02033 16.6827 3.00133 16.6639 3.02033C16.6328 3.04566 16.6764 3.05199 16.7201 3.05199ZM2.46935 6.25029C2.5629 6.23129 2.65648 6.21862 2.73132 6.21862C2.91218 6.21862 3.09303 6.25029 3.26766 6.29462C3.65433 6.39596 4.03479 6.58595 4.39028 6.69995C4.8705 6.85195 5.34444 6.99128 5.82467 7.08628C6.18015 7.15595 6.54187 7.20028 6.90983 7.21295C6.74768 7.06095 6.58553 6.89629 6.44209 6.72529C6.31112 6.56696 6.19891 6.40229 6.10536 6.22496C5.96192 5.95263 5.83716 5.6613 5.69372 5.38263C5.63135 5.26863 5.56894 5.1483 5.4941 5.04064C5.43797 4.95197 5.37565 4.85064 5.30705 4.76197C5.26339 4.70497 5.21351 4.65431 5.15738 4.60998C5.12619 4.58464 5.08875 4.57831 5.05133 4.57198C4.93283 4.55298 4.79565 4.56564 4.68339 4.50865C4.62102 4.47698 4.56489 4.43898 4.52123 4.38831C4.42768 4.29331 4.35282 4.16665 4.2655 4.05898C4.25303 4.04631 4.22809 4.01465 4.19691 3.98298C4.19067 3.97665 4.17818 3.97032 4.17194 3.96398C4.12205 3.97665 4.07216 3.99565 4.02227 4.01465C3.87882 4.06532 3.74166 4.12865 3.59822 4.17298C3.53585 4.19198 3.46721 4.21098 3.40485 4.23631C3.14914 4.31231 2.88721 4.38198 2.63151 4.46431C2.5442 4.48964 2.39455 4.53398 2.27605 4.60364C2.21369 4.63531 2.15756 4.67331 2.12638 4.71764C2.13885 4.74297 2.16377 4.79364 2.17 4.79997C2.18871 4.85064 2.20122 4.90131 2.20746 4.95831C2.2137 5.00897 2.2137 5.06597 2.20746 5.11664C2.20122 5.1863 2.18246 5.25597 2.15127 5.3193C2.12009 5.3763 2.08271 5.4333 2.03906 5.48397C2.03282 5.4903 1.98291 5.5473 1.94549 5.5853C2.05775 5.73096 2.16379 5.8703 2.27605 6.00963C2.34466 6.09829 2.40698 6.17429 2.46935 6.25029ZM12.8534 2.843C12.8596 2.81133 12.8596 2.79233 12.8409 2.79233C12.8035 2.79866 12.8284 2.824 12.8534 2.843ZM5.0326 3.28632C5.06378 3.29266 5.1075 3.29899 5.09503 3.27366C5.08255 3.25466 5.05755 3.26733 5.0326 3.28632ZM14.0383 2.672C14.0383 2.69733 14.0446 2.74166 14.0571 2.72266C14.0695 2.69733 14.0633 2.67833 14.0383 2.672ZM15.7722 4.50231C15.7597 4.49598 15.7534 4.49598 15.7534 4.50231H15.7597C15.7659 4.50231 15.7722 4.50231 15.7722 4.50231ZM16.8822 9.48026C16.876 9.45492 16.876 9.42959 16.8822 9.39792C16.982 9.16359 17.1255 8.9546 17.3001 8.77093C17.6743 8.3656 18.1733 8.04261 18.5038 7.61828C18.5786 7.51694 18.6535 7.42194 18.7283 7.31428C18.8032 7.21295 18.8717 7.10528 18.9403 7.00395L19.0089 6.89628C18.2044 6.99762 17.4249 7.23828 16.6266 7.33328C16.2399 7.37761 15.847 7.39028 15.4416 7.34595C14.5809 7.23828 13.7889 6.81395 12.9657 6.57962C12.6289 6.48462 12.2858 6.42129 11.9304 6.44029C10.6269 6.49729 9.51055 7.13061 8.2757 7.40928C7.95763 7.47894 7.63952 7.52961 7.30275 7.54228C6.88489 7.55494 6.47329 7.52328 6.07415 7.45995C5.47543 7.36495 4.89545 7.19395 4.3092 6.99762C4.00361 6.89628 3.68553 6.74429 3.36122 6.63029C3.15541 6.56062 2.94961 6.50996 2.7438 6.50996C2.50057 6.50996 2.10138 6.62395 1.8332 6.83295C1.66481 6.95962 1.54636 7.11795 1.56507 7.32061C1.5713 7.39661 1.6274 7.48528 1.68977 7.56761C1.80203 7.71961 1.9455 7.86527 2.02657 7.96027C2.17002 8.13127 2.30099 8.31494 2.42573 8.4986C2.57541 8.72026 2.71882 8.94193 2.86226 9.17626C2.88721 9.18893 2.90597 9.21426 2.9122 9.24593C2.9122 9.25226 2.91837 9.25859 2.91837 9.27126C2.93084 9.29026 2.93711 9.30293 2.94958 9.32192C2.96206 9.34092 2.97455 9.35992 2.97455 9.38526C2.98079 9.40426 2.97455 9.42326 2.97455 9.43592C2.98079 9.47392 2.96829 9.51192 2.94958 9.53726C2.90593 9.70192 2.85605 9.86659 2.80615 10.0249C2.81863 10.0376 2.83106 10.0503 2.84353 10.0566C2.9745 10.1706 3.12423 10.2466 3.28639 10.3036C3.45478 10.3606 3.62937 10.3922 3.804 10.4112C4.3154 10.4619 4.82679 10.3479 5.34443 10.2149C5.88078 10.0756 6.41717 9.91725 6.94105 9.87925C7.42127 9.84759 7.89527 9.91092 8.35678 10.1769C8.60001 10.3162 8.79957 10.4936 8.9742 10.6962C9.33592 10.7469 9.69765 10.7976 10.0656 10.8356C10.2901 10.8546 10.5146 10.8736 10.7391 10.8862C10.9637 10.7786 11.2069 10.6899 11.4376 10.6202C11.8118 10.4999 12.1923 10.3986 12.579 10.3416C12.8409 10.3036 13.1091 10.2846 13.3772 10.3036C13.9635 10.3352 14.5435 10.4556 15.1298 10.5252C15.373 10.5569 15.6162 10.5759 15.8656 10.5696C16.2087 10.5696 16.6203 10.4556 16.8386 10.2086C16.8635 10.1769 16.8885 10.1452 16.9072 10.1136C16.8698 9.90458 16.8635 9.69559 16.8822 9.48026ZM9.6727 11.9249C9.76625 11.6652 9.91588 11.4309 10.1653 11.2282C10.1903 11.2092 10.2153 11.1902 10.2403 11.1712C10.1717 11.1649 10.0968 11.1586 10.0282 11.1522C9.76622 11.1269 9.50427 11.0952 9.24233 11.0572C9.41696 11.3296 9.5542 11.6272 9.6727 11.9249ZM5.83091 10.3796C6.1365 10.3796 6.44207 10.3922 6.74143 10.4112C7.07821 10.4302 7.41499 10.4682 7.75177 10.5126C7.97628 10.5442 8.20085 10.5759 8.42537 10.6076C8.35053 10.5506 8.27569 10.4999 8.19462 10.4492C7.79547 10.2149 7.37762 10.1516 6.95353 10.1769C6.57933 10.2022 6.20511 10.2909 5.83091 10.3796ZM11.5312 10.9179C11.7245 10.9242 11.9179 10.9242 12.1112 10.9306C12.8035 10.9369 13.4957 10.9179 14.1755 10.8926C14.5186 10.8799 14.8927 10.8609 15.2669 10.8166C15.2108 10.8102 15.1547 10.8039 15.0923 10.7976C14.5123 10.7342 13.9386 10.6202 13.3586 10.5949C13.1091 10.5822 12.8658 10.6012 12.6226 10.6392C12.2484 10.6962 11.8867 10.7976 11.5312 10.9179ZM17.1629 10.3099C17.2253 10.2719 17.2876 10.2276 17.3375 10.1706C17.3998 10.1072 17.456 10.0249 17.481 9.94258C17.5122 9.84125 17.4809 9.72725 17.4186 9.63859C17.3562 9.54359 17.2564 9.47392 17.1504 9.46126C17.1317 9.46126 17.113 9.45492 17.1006 9.44226V9.44859C17.1193 9.46126 17.1317 9.48026 17.1442 9.50559C17.2502 9.77792 17.2315 9.99958 17.1379 10.1896C17.1442 10.2339 17.1567 10.2719 17.1629 10.3099ZM2.70635 10.2719C2.68763 10.3162 2.67519 10.3669 2.65648 10.4112C2.66895 10.4176 2.68139 10.4176 2.69386 10.4239C2.75623 10.4429 2.81862 10.4556 2.88099 10.4682C2.94336 10.4809 3.00575 10.4872 3.06188 10.4936C2.93091 10.4302 2.81237 10.3606 2.70635 10.2719ZM13.2088 6.30729C13.9635 6.54796 14.6932 6.93428 15.479 7.03562C15.8594 7.08628 16.2274 7.07362 16.5954 7.03562C16.6827 7.02295 16.77 7.01662 16.8636 7.00395C16.9634 6.92162 17.0694 6.83295 17.1629 6.74429C17.2939 6.63029 17.4186 6.50995 17.5433 6.38962C17.5995 6.33262 17.6805 6.26929 17.7429 6.19963C17.7678 6.16796 17.7928 6.12996 17.8115 6.09196C17.799 6.07929 17.7741 6.06029 17.7616 6.05396C17.7304 6.02229 17.7055 5.98429 17.6805 5.93996C17.6618 5.90196 17.6431 5.85763 17.6369 5.8133C17.6307 5.7753 17.6307 5.73096 17.6307 5.69296C17.6369 5.6233 17.6618 5.55363 17.6805 5.48397C17.6992 5.42697 17.7117 5.36997 17.7055 5.31297C17.7055 5.28763 17.6805 5.26864 17.6556 5.2433C17.5994 5.19264 17.5246 5.14197 17.4934 5.1103C17.3936 5.0153 17.2938 4.92031 17.2003 4.81897C17.1067 4.71764 17.0195 4.61631 16.9259 4.50865C16.901 4.47698 16.876 4.45164 16.8511 4.42631C16.8261 4.40098 16.7949 4.37565 16.7638 4.35665C16.7638 4.35665 16.7575 4.35031 16.745 4.34398C16.7138 4.38198 16.6826 4.42631 16.6515 4.45165C16.5766 4.51498 16.4894 4.56564 16.3958 4.59098C16.3023 4.62264 16.2024 4.62898 16.1026 4.61631C16.0652 4.60998 16.0278 4.60364 15.9904 4.59098C15.9405 4.57831 15.8906 4.55298 15.8407 4.53398C15.8283 4.52764 15.8095 4.50864 15.7908 4.49598C15.7846 4.50231 15.7784 4.50864 15.7722 4.51498L15.6286 4.64164C15.5351 4.72398 15.4416 4.79998 15.3418 4.88231C15.2482 4.95831 15.1485 5.0343 15.0487 5.1103C14.9177 5.2053 14.7805 5.3003 14.6433 5.3953C14.4375 5.5283 14.2317 5.6613 14.0259 5.7943C13.8076 5.93363 13.5893 6.07296 13.371 6.20596C13.3149 6.24396 13.2587 6.27563 13.2088 6.30729ZM12.342 6.11729C12.3607 6.11729 12.3856 6.12363 12.4044 6.12363C12.922 5.8513 13.4147 5.53463 13.8824 5.1863C14.3502 4.83797 14.7992 4.45164 15.2171 4.04631C15.4728 3.79932 15.6973 3.52065 15.9467 3.26732C16.0091 3.19766 16.0777 3.13433 16.1463 3.07099C16.2399 2.98866 16.3334 2.89999 16.4457 2.83666C16.533 2.786 16.6203 2.748 16.7138 2.729C16.7575 2.72266 16.8323 2.729 16.8947 2.79866C16.9633 2.87466 17.0694 3.11533 17.1006 3.15966C17.2128 3.35599 17.3313 3.54599 17.4498 3.74232C17.5683 3.93865 17.6867 4.12865 17.8052 4.31865C17.8801 4.43898 17.9736 4.54031 18.0734 4.63531C18.2917 4.83797 18.5412 5.00897 18.7532 5.21797C18.8405 5.1293 18.9341 5.04064 19.0214 4.95197C19.0526 4.92031 19.0838 4.88231 19.115 4.85064C19.1087 4.83797 19.1025 4.81897 19.1025 4.81897C19.0838 4.78097 19.0588 4.74298 19.0339 4.71131C18.9902 4.65431 18.9403 4.59731 18.8966 4.54664C18.6347 4.25531 18.3416 4.00198 18.0734 3.72332C17.9549 3.60299 17.8364 3.46999 17.7304 3.33699L17.1816 2.596C17.1441 2.54533 17.113 2.48833 17.0756 2.45033C17.0694 2.444 17.0631 2.43767 17.0569 2.43767C16.8635 2.463 16.6827 2.577 16.508 2.70366C16.2211 2.91899 15.953 3.20399 15.716 3.38766C15.5102 3.54599 15.3106 3.71065 15.1048 3.87532C14.6308 4.26165 14.1693 4.66064 13.6953 5.04697C13.3772 5.30664 13.0467 5.54097 12.7287 5.80063C12.5915 5.90196 12.4667 6.00963 12.342 6.11729ZM12.766 6.18696C12.8596 6.20596 12.9532 6.23129 13.0405 6.25662C13.1278 6.20596 13.2213 6.15529 13.3086 6.10463C13.5269 5.97163 13.7452 5.82596 13.9573 5.68663C14.1631 5.55363 14.3626 5.42063 14.5684 5.2813C14.6994 5.19264 14.8304 5.09764 14.9614 4.9963C15.0611 4.92031 15.1547 4.84431 15.2482 4.76831C15.3418 4.69231 15.4354 4.60998 15.5289 4.53398L15.6723 4.40731C15.6786 4.40098 15.7035 4.36931 15.7222 4.35665C15.7409 4.34398 15.7597 4.33765 15.7722 4.33765C15.7909 4.33765 15.8033 4.33765 15.8283 4.34398C15.8594 4.35665 15.8969 4.38198 15.9218 4.39465C15.9592 4.41365 15.9904 4.42631 16.0278 4.43898C16.059 4.45165 16.0964 4.45798 16.1338 4.46431C16.2087 4.47064 16.2898 4.46431 16.3584 4.43898C16.4332 4.41365 16.5018 4.37565 16.5579 4.32498C16.5891 4.29331 16.6203 4.24265 16.6577 4.21098C16.6702 4.19831 16.6889 4.18565 16.7014 4.17298C16.7139 4.16665 16.7388 4.15398 16.77 4.16031C16.7949 4.16665 16.8511 4.20465 16.8636 4.21098C16.901 4.23631 16.9384 4.26165 16.9695 4.29331C17.0007 4.32498 17.0319 4.35665 17.0631 4.39465C17.1504 4.49598 17.2378 4.59731 17.3251 4.69864C17.4124 4.79364 17.5121 4.88864 17.6057 4.98364C17.6493 5.02164 17.7429 5.08497 17.7991 5.15464C17.8365 5.19897 17.8614 5.24964 17.8677 5.29397C17.8739 5.36997 17.8552 5.44597 17.8364 5.52197C17.8177 5.57897 17.7991 5.6423 17.7928 5.70563C17.7928 5.73096 17.7866 5.7563 17.7928 5.78796C17.7991 5.81963 17.8052 5.8513 17.824 5.87663C17.8364 5.90196 17.8552 5.93363 17.8739 5.95263C17.8864 5.96529 17.9238 5.99063 17.9425 6.01596C17.9612 6.04129 17.9674 6.07296 17.9611 6.09196C17.9424 6.16163 17.9051 6.22496 17.8552 6.28196C17.7928 6.35796 17.7055 6.42129 17.6431 6.47829C17.5184 6.59862 17.3874 6.71262 17.2565 6.82662C17.2066 6.87095 17.1505 6.91528 17.1006 6.95962C17.2565 6.93428 17.4124 6.90262 17.5683 6.87095C17.6868 6.75695 17.8115 6.64295 17.9425 6.53529C18.1421 6.36429 18.3479 6.20596 18.5474 6.03496C18.5973 5.99063 18.7096 5.9273 18.8094 5.86396C18.8343 5.8513 18.8593 5.82596 18.878 5.80696C18.8343 5.74363 18.7096 5.55363 18.6846 5.52197C18.4539 5.2623 18.1483 5.07864 17.8925 4.85064C17.7741 4.74297 17.6619 4.62264 17.5683 4.47698C17.4249 4.24898 17.2751 4.01465 17.1317 3.78032C17.0381 3.62199 16.9384 3.46999 16.8511 3.31166C16.8324 3.28632 16.7949 3.12799 16.7513 3.04566C16.7139 3.05833 16.6764 3.07733 16.639 3.09632C16.5454 3.15332 16.4644 3.22932 16.3896 3.29266C16.3272 3.34966 16.2648 3.41299 16.2024 3.46999C15.9467 3.72332 15.716 4.00198 15.4541 4.24898C15.0175 4.65431 14.5559 5.04064 14.0632 5.38263C13.6329 5.6993 13.2026 5.95896 12.766 6.18696ZM10.7204 6.30096C10.7953 6.28196 10.8639 6.26296 10.9388 6.24396C11.0136 6.22496 11.0884 6.21229 11.1633 6.19329C11.3005 5.84496 11.4564 5.5093 11.631 5.17997C11.9179 4.63531 12.2422 4.10965 12.5478 3.57765C12.6226 3.45099 12.6974 3.32432 12.7536 3.19132C12.791 3.10899 12.8159 3.02666 12.8284 2.93799C12.8284 2.93166 12.8471 2.88733 12.8534 2.85566C12.7473 2.79866 12.6226 2.76066 12.4979 2.71633C12.2672 2.64666 12.0176 2.58967 11.8118 2.52633C11.394 2.39967 10.9949 2.273 10.6144 2.102C10.3525 1.988 10.103 1.85501 9.85975 1.69034C9.72255 1.59534 9.58538 1.50668 9.4357 1.43068C9.34215 1.38001 9.24862 1.34201 9.1426 1.31034C9.09894 1.29768 8.92426 1.19001 8.9305 1.25335C8.9305 1.25968 8.94299 1.24701 8.94923 1.24701C8.95546 1.24701 8.96171 1.24068 8.96171 1.24068C8.96171 1.24068 8.88686 1.35468 8.86815 1.38635C8.81826 1.45601 8.77462 1.52568 8.73096 1.60168C8.6873 1.67768 8.63743 1.74734 8.59377 1.82334C8.6499 1.85501 8.70603 1.89301 8.74969 1.91834C8.97421 2.05134 9.19871 2.159 9.4357 2.254C9.6727 2.349 9.91588 2.425 10.1716 2.48833C10.4211 2.55166 10.6768 2.60233 10.9325 2.653C11.1882 2.69733 11.4501 2.74166 11.7059 2.77333L12.0613 2.83666C12.0675 2.83666 12.1487 2.84933 12.1798 2.85566C12.2734 2.881 12.2983 2.957 12.3045 2.98233C12.3357 3.14699 12.3108 3.31799 12.2484 3.48265C12.1237 3.79932 11.8555 4.10331 11.6996 4.33131C11.4813 4.65431 11.2817 5.00264 11.1071 5.36363C10.9449 5.6613 10.814 5.97796 10.7204 6.30096ZM11.4252 6.15529C11.5873 6.12996 11.7432 6.11729 11.9116 6.11096C11.9615 6.11096 12.0114 6.11096 12.0613 6.11096C12.1923 5.74363 12.3669 5.3763 12.5603 5.02797C12.7723 4.64164 13.0218 4.26798 13.2775 3.92598C13.4459 3.70432 13.6891 3.45732 13.8637 3.17866C13.9635 3.02033 14.0384 2.84933 14.0446 2.67833C13.976 2.64033 13.7764 2.64033 13.7265 2.62766C13.5394 2.558 13.3523 2.482 13.159 2.406C12.8783 2.292 12.6039 2.16534 12.3295 2.045C12.0551 1.92467 11.8056 1.79167 11.5624 1.65234C11.3192 1.51301 11.0884 1.36101 10.8389 1.19635C10.7953 1.16468 10.6955 1.08868 10.5895 1.01902C10.5396 0.987349 10.4959 0.955683 10.4523 0.943017C10.446 0.936683 10.4335 0.936683 10.4211 0.93035C10.3961 0.962016 10.3151 1.04435 10.2901 1.06968C10.209 1.13935 10.1342 1.20901 10.0531 1.27868C10.0032 1.31668 9.95959 1.35468 9.90969 1.39268C9.94088 1.41168 9.97824 1.43701 10.0094 1.45601C10.2402 1.60801 10.4834 1.72834 10.7267 1.82967C11.1009 1.988 11.4938 2.10834 11.8929 2.22234C12.1049 2.28567 12.3544 2.33633 12.5852 2.406C12.7536 2.45667 12.9157 2.52 13.0592 2.596C13.0903 2.615 13.134 2.653 13.1465 2.72266C13.1652 2.79233 13.1402 2.95699 13.134 2.98866C13.1153 3.10266 13.0779 3.21666 13.0343 3.31799C12.9719 3.46366 12.8846 3.60299 12.8035 3.73599C12.4854 4.25531 12.1549 4.76831 11.8493 5.30664C11.7058 5.5853 11.5561 5.86396 11.4252 6.15529ZM10.2776 6.43396C10.3462 6.41496 10.4086 6.38962 10.4772 6.37062C10.5707 5.99063 10.7079 5.61063 10.8701 5.2433C11.0385 4.86331 11.2443 4.50231 11.4564 4.16665C11.5749 3.97665 11.7807 3.72965 11.9116 3.47632C11.9678 3.36232 12.0052 3.24833 12.0114 3.14066L11.6746 3.08366C11.3566 3.03933 11.0447 2.99499 10.7267 2.93799C10.5146 2.89999 10.3088 2.84933 10.0967 2.79866C9.83481 2.729 9.57912 2.64666 9.32965 2.54533C9.08019 2.444 8.83701 2.32367 8.60002 2.18434C8.45034 2.08934 8.24451 1.95001 8.0387 1.87401C7.93892 1.83601 7.83291 1.80434 7.73936 1.81701C7.73312 1.84867 7.72062 1.90567 7.70814 1.931C7.66449 2.07034 7.62085 2.20334 7.57095 2.34267C7.53977 2.43133 7.50232 2.52633 7.4649 2.615C7.36512 2.862 7.23416 3.08999 7.09072 3.31799C6.76642 3.82465 6.36724 4.29331 6.04293 4.78731C6.07412 4.87597 6.11156 4.96464 6.14274 5.04697C6.27995 4.84431 6.41718 4.63531 6.56062 4.43264C6.63546 4.32498 6.71029 4.22365 6.78513 4.11598C6.92857 3.92598 7.0658 3.72965 7.19677 3.53332C7.32774 3.33699 7.45871 3.13433 7.58344 2.93166C7.59591 2.91266 7.62086 2.89366 7.65828 2.88733C7.70193 2.881 7.77675 2.88099 7.79546 2.88099C7.87654 2.87466 7.95763 2.881 8.0387 2.87466C8.0886 2.86833 8.13223 2.862 8.17589 2.843C8.21331 2.824 8.25693 2.80499 8.29435 2.77966C8.33177 2.75433 8.36297 2.729 8.39416 2.69733C8.43781 2.653 8.45655 2.60233 8.50021 2.577C8.52515 2.558 8.55635 2.54533 8.59377 2.539C8.65614 2.53267 8.71846 2.539 8.78083 2.55167C8.8619 2.57067 8.94298 2.60867 9.01782 2.64033C9.21739 2.729 9.39828 2.84299 9.59162 2.93799C9.63528 2.96333 9.68516 2.98233 9.73505 3.00133C9.84107 3.04566 9.95335 3.08366 10.0656 3.10899C10.1779 3.14066 10.2901 3.15966 10.4086 3.17233C10.4834 3.17866 10.5707 3.17866 10.6518 3.18499C10.6955 3.18499 10.7329 3.19133 10.7704 3.20399C10.7891 3.21033 10.814 3.22299 10.8265 3.25466C10.8389 3.27999 10.8514 3.33699 10.8514 3.34966C10.8639 3.41299 10.8701 3.48266 10.8826 3.54599C10.8888 3.57132 10.8888 3.59665 10.8951 3.62199C10.92 3.71065 10.9575 3.77399 11.0136 3.82465C11.076 3.88165 11.1508 3.91965 11.2381 3.97032C11.2568 3.98298 11.2817 4.00198 11.2817 4.04631C11.2817 4.09065 11.263 4.19198 11.2568 4.21098C11.238 4.28065 11.2131 4.35031 11.1819 4.41365C11.1383 4.50231 11.0821 4.59098 11.0322 4.67331C10.8576 4.98364 10.7017 5.30664 10.5707 5.63597C10.446 5.88296 10.3525 6.15529 10.2776 6.43396ZM2.54419 9.50559C2.39451 9.58792 2.25109 9.70192 2.18249 9.83492C2.12012 9.95525 2.13886 10.0819 2.28854 10.2149C2.31972 10.2466 2.35709 10.2656 2.39451 10.2909C2.40699 10.2972 2.4195 10.3036 2.43197 10.3162C2.46315 10.2339 2.48811 10.1579 2.51929 10.0756C2.43822 9.96158 2.41325 9.84758 2.42573 9.74625C2.4382 9.65759 2.47558 9.57526 2.54419 9.50559ZM7.77049 7.17495C8.59997 7.05462 9.36087 6.73162 10.1467 6.47196C10.2215 6.16163 10.3213 5.86396 10.4336 5.5663C10.5645 5.23064 10.7142 4.90131 10.8888 4.57831C10.9325 4.49598 10.9886 4.40731 11.0322 4.32498C11.0572 4.26798 11.0822 4.21731 11.0947 4.15398C11.0947 4.14765 11.1071 4.09698 11.1071 4.06532C11.0011 4.00832 10.9138 3.95765 10.8452 3.87532C10.7891 3.81199 10.7516 3.74232 10.7204 3.64099C10.7142 3.60932 10.708 3.58399 10.7018 3.55232C10.6893 3.48899 10.683 3.42566 10.6705 3.36232C10.6705 3.36232 10.6643 3.34966 10.6643 3.33699C10.6456 3.33699 10.6331 3.33066 10.6144 3.33066C10.5334 3.32432 10.446 3.33066 10.365 3.31799C10.2402 3.30532 10.1218 3.27999 10.0033 3.25466C9.88476 3.22299 9.76623 3.18499 9.65397 3.13433C9.60408 3.11533 9.55419 3.08999 9.5043 3.06466C9.31096 2.96966 9.13008 2.85566 8.93674 2.767C8.87438 2.73533 8.79956 2.70366 8.73096 2.68466C8.6873 2.672 8.64367 2.672 8.60002 2.672C8.58754 2.672 8.58127 2.67833 8.5688 2.68466C8.54386 2.71 8.52514 2.748 8.48772 2.786C8.4503 2.824 8.40668 2.862 8.36302 2.88733C8.31936 2.91899 8.26941 2.94433 8.21951 2.96333C8.16338 2.98866 8.10107 3.00133 8.0387 3.00133C7.95763 3.00766 7.8703 3.00766 7.78922 3.00766C7.77675 3.00766 7.70812 3.01399 7.68317 3.01399C7.55844 3.21033 7.42747 3.40666 7.2965 3.59665C7.1593 3.79298 7.02213 3.98932 6.87245 4.18565C6.79761 4.28698 6.71655 4.38831 6.64794 4.49598C6.49203 4.71764 6.34235 4.93931 6.18644 5.16097C6.27999 5.36364 6.39218 5.5473 6.51068 5.73096C6.72273 6.04763 6.97222 6.34529 7.24039 6.63029C7.36513 6.75695 7.4836 6.89628 7.60834 7.02295C7.66446 7.07995 7.7206 7.12428 7.77049 7.17495ZM2.11389 6.35796C2.18873 6.32629 2.26356 6.30096 2.3384 6.28196C2.28851 6.21863 2.23862 6.16163 2.18873 6.09829C2.064 5.94629 1.93929 5.78796 1.82079 5.62963C1.81455 5.6233 1.79584 5.59163 1.81455 5.55363C1.81455 5.5473 1.82073 5.54097 1.8332 5.5283C1.86438 5.49663 1.93926 5.4143 1.94549 5.40164C1.98291 5.3573 2.01411 5.31297 2.03906 5.2623C2.064 5.21797 2.07644 5.1673 2.08268 5.1103C2.08892 5.06597 2.08892 5.02164 2.08268 4.97731C2.07644 4.93297 2.07025 4.89497 2.05154 4.85697C2.04531 4.84431 2.00783 4.78097 1.99536 4.74931C1.98289 4.71764 1.98912 4.69231 1.99536 4.67964C2.03278 4.59731 2.11385 4.52764 2.21987 4.47064C2.35084 4.40098 2.50682 4.35031 2.60037 4.31865C2.85607 4.23631 3.11801 4.16665 3.37371 4.08432C3.43607 4.06532 3.4984 4.04632 3.567 4.02098C3.70421 3.97665 3.84144 3.91332 3.97864 3.86265C4.04101 3.83732 4.10333 3.81832 4.1657 3.79932C4.19064 3.79298 4.22809 3.79298 4.27175 3.82465C4.32164 3.85632 4.38398 3.93232 4.40269 3.95132C4.47753 4.03998 4.53995 4.14131 4.61479 4.22998C4.65845 4.28065 4.70834 4.32498 4.77071 4.35665C4.8206 4.38198 4.88298 4.38831 4.93911 4.38831C5.01395 4.39464 5.08877 4.39464 5.15738 4.41998C5.20103 4.43264 5.23841 4.45164 5.26959 4.47698C5.33196 4.52764 5.38811 4.59098 5.44424 4.65431C5.51908 4.74931 5.58148 4.85064 5.63761 4.94564C5.71245 5.05964 5.77478 5.17997 5.83715 5.3003C5.98059 5.57897 6.0991 5.8703 6.2363 6.14896C6.32362 6.31996 6.42964 6.47829 6.54814 6.63029C6.71029 6.83295 6.89738 7.02295 7.08448 7.20028C7.15308 7.20028 7.22166 7.20028 7.2965 7.19395C7.35887 7.19395 7.42127 7.18761 7.48363 7.18128C7.4774 7.17495 7.47114 7.16861 7.4649 7.16861C7.33393 7.04828 7.20921 6.91529 7.07824 6.78229C6.78511 6.49729 6.51693 6.19329 6.29241 5.8703C6.06166 5.54097 5.8683 5.17997 5.72486 4.78731C5.63131 4.53398 5.54402 4.26798 5.438 4.01465C5.36939 3.84998 5.29456 3.69165 5.20724 3.53965C5.1823 3.49532 5.13868 3.41932 5.08878 3.34966C5.07007 3.32432 5.0513 3.29899 5.02636 3.27999L5.02011 3.27366C4.97646 3.31166 4.92661 3.37499 4.91414 3.38132C4.82683 3.43199 4.73948 3.47632 4.64593 3.51432C4.51496 3.57132 4.37775 3.61565 4.24678 3.65999C3.63559 3.87532 3.0057 4.05265 2.38827 4.24898C2.12633 4.33131 1.86439 4.41998 1.60869 4.52131C1.47148 4.57198 1.3156 4.62898 1.1784 4.71131C1.09109 4.75564 1.01626 4.81264 0.953889 4.88231C0.941415 4.89497 0.897762 4.95831 0.879052 4.98997C0.891525 5.01531 0.916451 5.03431 0.93516 5.05964C1.03495 5.16097 1.17215 5.2623 1.24075 5.34464C1.4029 5.51563 1.55882 5.69296 1.71474 5.86396C1.84571 6.04129 1.98293 6.19963 2.11389 6.35796ZM5.6064 2.33C5.55027 2.31733 5.38809 2.45033 5.34443 2.463C5.19475 2.51366 5.04509 2.56433 4.89541 2.615C4.74573 2.66566 4.59607 2.71 4.44015 2.75433C4.32165 2.786 4.20311 2.81766 4.08462 2.84933C3.96612 2.88099 3.84766 2.90633 3.72916 2.93166C3.27389 3.03299 2.78743 3.11533 2.32592 3.26099C2.02656 3.35599 1.73968 3.46999 1.47775 3.64099C1.43409 3.67265 1.30315 3.76765 1.19713 3.86898C1.14723 3.91965 1.09729 3.97032 1.06611 4.02098C1.05987 4.03365 1.04738 4.05898 1.04738 4.06532C1.07232 4.11598 1.09727 4.16665 1.12846 4.21731C1.15964 4.27431 1.19708 4.32498 1.22826 4.38198C1.31558 4.34398 1.40915 4.30598 1.49023 4.27431C1.75217 4.17298 2.01412 4.07798 2.2823 3.98932C2.89349 3.78665 3.52336 3.60299 4.12832 3.38132C4.25929 3.33699 4.38402 3.29266 4.51499 3.23566C4.59606 3.20399 4.6709 3.16599 4.74574 3.12166C4.77068 3.10899 4.88915 3.00766 4.94528 2.98233C5.00764 2.95066 5.05759 2.95699 5.08254 2.96333C5.14491 2.98233 5.21971 3.02666 5.27584 3.09632C5.36315 3.19132 5.44428 3.33699 5.4817 3.40666C5.57524 3.57132 5.65625 3.74865 5.72486 3.92598C5.7997 4.10965 5.86211 4.30598 5.92447 4.48964C6.02426 4.34398 6.12404 4.19831 6.23006 4.05265C6.19888 3.98298 6.17393 3.90698 6.14898 3.83098C6.02425 3.45732 5.95568 3.05833 5.79353 2.69733C5.76858 2.634 5.68124 2.30467 5.6064 2.33ZM5.6064 2.33C5.61887 2.33 5.62513 2.33634 5.62513 2.349C5.62513 2.35534 5.61264 2.349 5.61264 2.349C5.6064 2.349 5.58768 2.349 5.59391 2.34267C5.60015 2.33 5.6064 2.33 5.6064 2.33ZM2.56291 10.6582C2.26979 11.4056 1.92675 12.1466 1.67728 12.9066C1.51513 13.4005 1.39046 13.9072 1.35304 14.4265C1.24078 15.8769 1.68355 17.2828 1.78333 18.7142C1.80828 19.0815 1.80827 19.4488 1.77709 19.8225C1.73344 20.3291 1.64612 20.8421 1.5401 21.3551C1.43407 21.8618 1.29688 22.3621 1.15967 22.8498C1.12225 22.9828 0.947618 23.3184 0.841596 23.5844C0.816649 23.6478 0.79796 23.7048 0.785487 23.7554C0.779251 23.7681 0.779244 23.7871 0.779244 23.7998C0.797954 23.8124 0.847869 23.8441 0.879052 23.8568C0.972602 23.9011 1.0848 23.9391 1.12846 23.9518C1.38416 24.0468 1.65235 24.1038 1.92676 24.1354C2.20118 24.1671 2.48187 24.1798 2.75629 24.1734C3.08059 24.1671 3.39237 24.1291 3.71043 24.0784C4.46507 23.9518 5.20098 23.7428 5.96185 23.6478C6.44831 23.5908 6.94107 23.5718 7.42752 23.5781C8.15721 23.5844 8.88066 23.6478 9.61035 23.6984C10.3899 23.7554 11.1633 23.7934 11.9366 23.8631C12.4542 23.9074 12.9719 23.9708 13.4895 24.0531C13.87 24.1164 14.2504 24.1924 14.6246 24.2748C15.4977 24.4648 16.3584 24.6864 17.2377 24.8574C17.5496 24.9144 17.8677 24.9524 18.1857 24.9778C18.51 25.0031 18.8281 25.0158 19.1461 25.0158C19.196 25.0158 19.4767 25.0411 19.6139 25.0221C19.7885 24.7371 19.8571 24.3888 19.8696 24.0278C19.8883 23.4388 19.7573 22.8054 19.6513 22.3241C19.4892 21.5831 19.352 20.8231 19.2584 20.0568C19.1649 19.2905 19.1212 18.5178 19.1524 17.7515C19.1835 17.0485 19.3519 16.3075 19.3769 15.5792C19.3956 15.1105 19.3457 14.6482 19.1524 14.2112C18.6846 13.1726 17.6743 12.1592 17.1754 11.0256C17.1193 10.9052 17.0755 10.7786 17.0319 10.6582C16.7201 10.7976 16.3833 10.8989 16.034 10.9749C15.4166 11.1079 14.768 11.1586 14.1943 11.1902C13.5082 11.2282 12.8159 11.2536 12.1174 11.2536C11.6746 11.2536 11.2381 11.2409 10.7952 11.2156C10.6456 11.2916 10.5022 11.3802 10.3774 11.4879C10.1779 11.6526 10.0531 11.8489 9.97829 12.0579C9.9284 12.2036 9.89719 12.3492 9.87224 12.5076C9.87848 12.5202 9.88472 12.5329 9.88472 12.5456C9.91591 12.6152 9.94711 12.6912 9.98453 12.7609C10.1966 13.1282 10.4959 13.4702 10.6768 13.8565C10.7641 14.0339 10.8202 14.2239 10.8452 14.4329C10.8951 14.9205 10.7267 15.3955 10.6705 15.8705C10.6518 16.0542 10.6456 16.2442 10.6955 16.4278C10.7267 16.5545 10.7766 16.6622 10.8389 16.7635C10.9762 16.9852 11.1757 17.1688 11.3566 17.3652C11.4938 17.5045 11.6185 17.6565 11.7183 17.8212C11.7246 17.8212 11.7245 17.8212 11.7307 17.8212V17.8148C11.8492 17.8148 11.9491 17.8592 12.0302 17.9352C12.1112 18.0112 12.1549 18.1188 12.1611 18.2328C12.1611 18.3532 12.1174 18.4608 12.0363 18.5432C11.9615 18.6255 11.8492 18.6698 11.7307 18.6762C11.6122 18.6762 11.5 18.6255 11.4252 18.5495C11.3503 18.4672 11.3005 18.3595 11.3005 18.2392C11.3067 18.1188 11.3503 18.0175 11.4314 17.9415C11.4501 17.9225 11.4688 17.9098 11.4937 17.8908C11.4064 17.7642 11.3004 17.6502 11.1882 17.5362C10.9886 17.3335 10.7766 17.1435 10.6269 16.9092C10.5458 16.7825 10.4834 16.6495 10.4398 16.4975C10.3837 16.2822 10.3775 16.0605 10.3962 15.8452C10.4398 15.3892 10.602 14.9332 10.5458 14.4709C10.5147 14.2429 10.4274 14.0339 10.3151 13.8439C10.1592 13.5779 9.96579 13.3309 9.7974 13.0775C9.76622 13.3499 9.72255 13.6222 9.629 13.8755C9.48556 14.2555 9.23611 14.5849 9.0989 14.9459C9.01783 15.1549 8.98668 15.3829 9.05528 15.6362C9.20496 16.2062 9.61654 16.6685 9.87848 17.2005C9.94708 17.3398 10.0095 17.4855 10.0469 17.6438C10.0843 17.7768 10.0967 17.9225 10.0967 18.0618C10.0967 18.1758 10.0843 18.2835 10.0656 18.3975C10.1342 18.4165 10.1904 18.4545 10.2403 18.4988C10.3213 18.5748 10.365 18.6825 10.3712 18.7965C10.3712 18.9168 10.3275 19.0245 10.2464 19.1068C10.1716 19.1891 10.0593 19.2335 9.94083 19.2398C9.82234 19.2398 9.71008 19.1892 9.63524 19.1132C9.5604 19.0308 9.51054 18.9232 9.51054 18.8028C9.51678 18.6825 9.56041 18.5812 9.64149 18.5052C9.69762 18.4545 9.76626 18.4165 9.8411 18.4038C9.85357 18.3215 9.85976 18.2455 9.866 18.1632C9.87223 18.0112 9.85979 17.8592 9.81613 17.7198C9.64774 17.1498 9.22365 16.6938 8.95547 16.1682C8.88063 16.0289 8.82448 15.8769 8.78083 15.7249C8.71222 15.4842 8.71844 15.2689 8.7621 15.0599C8.86188 14.6102 9.17374 14.2302 9.3359 13.7742C9.43568 13.4955 9.46687 13.1979 9.49806 12.9066C9.51053 12.7862 9.52304 12.6659 9.53551 12.5519C9.48562 12.3999 9.44196 12.2479 9.3796 12.1022C9.25486 11.7792 9.10518 11.4562 8.91185 11.1712C8.87443 11.1206 8.83697 11.0636 8.79955 11.0129C8.43783 10.9559 8.06987 10.8989 7.70814 10.8482C7.38384 10.8039 7.05332 10.7659 6.72278 10.7406C6.34235 10.7152 5.94945 10.7026 5.56277 10.7026C5.1761 10.7026 4.78313 10.7152 4.40269 10.7342C4.0971 10.7469 3.78527 10.7849 3.47344 10.7912C3.25516 10.7976 3.04317 10.7849 2.83112 10.7532C2.75628 10.7406 2.68138 10.7216 2.61278 10.7026C2.59407 10.6709 2.57539 10.6646 2.56291 10.6582Z" fill="#133F24"/>
</svg>
