<svg width="22" height="20" viewBox="0 0 22 20" fill="none" xmlns="http://www.w3.org/2000/svg">
<path fill-rule="evenodd" clip-rule="evenodd" d="M1.28226 8.87668C0.997028 8.83578 0.791946 8.62615 0.649332 8.34494C0.355191 7.77742 0.328463 6.91847 0.328463 6.91847C0.324007 6.86223 0.364095 6.8111 0.417576 6.8111C0.417576 6.8111 0.41758 6.8111 0.422037 6.8111C0.555737 6.70373 0.997033 6.34072 1.50955 5.77319C1.72347 5.538 1.95076 5.26191 2.17359 4.96025C2.37415 4.68927 2.57461 4.39273 2.75734 4.07574C3.01583 3.63092 3.2432 3.1452 3.39472 2.61347C3.39472 2.59813 3.39919 2.5879 3.40811 2.57256C3.42148 2.54189 3.45264 2.52143 3.48384 2.52143H3.4883C3.4883 2.52143 3.80912 2.51121 4.20576 2.50099C4.25924 2.50099 4.31277 2.50098 4.36625 2.49587C4.37517 2.49075 4.38857 2.49076 4.40194 2.49076C4.41085 2.49076 4.41968 2.49075 4.4286 2.49587C4.51328 2.49587 4.59799 2.49587 4.68712 2.49587C4.79408 2.49587 4.90548 2.50098 5.00353 2.5061C5.19071 2.51632 5.35564 2.52655 5.48043 2.53166C5.54282 2.53677 5.59188 2.53678 5.62753 2.54189C5.63644 2.29647 5.64091 2.05106 5.64091 1.82098C5.64091 1.37616 5.62749 0.987584 5.58738 0.747281C5.57401 0.65525 5.5607 0.588786 5.53396 0.558109C5.50276 0.522319 5.49381 0.486531 5.49381 0.455854C5.49381 0.420064 5.50713 0.36893 5.56062 0.338253C5.59181 0.317802 5.65428 0.297353 5.75233 0.276902C6.04647 0.225774 6.70597 0.195098 7.55274 0.174647C9.73652 0.123519 13.1682 0.164418 14.7102 0.195095C15.0578 0.200208 15.3075 0.210438 15.4278 0.215551C15.4679 0.215551 15.4946 0.220661 15.508 0.220661C15.6105 0.230886 15.6239 0.333146 15.6283 0.343371C15.6283 0.35871 15.5793 1.45796 15.5526 2.58278C15.6729 2.57256 15.869 2.547 16.0874 2.53166C16.1899 2.52144 16.2924 2.51632 16.4038 2.51121C16.5063 2.50609 16.6132 2.50099 16.7202 2.50099C17.2149 2.49076 17.6651 2.49076 17.6651 2.49076C17.7141 2.49076 17.7586 2.53166 17.7586 2.59301C17.7586 2.60324 17.7586 2.61858 17.7542 2.62881C17.7987 2.96114 17.928 3.28835 18.0973 3.60535C18.2622 3.91212 18.4716 4.20355 18.6989 4.48476C18.9708 4.8222 19.2695 5.1392 19.5636 5.42041C20.3168 6.14131 21.012 6.62703 21.012 6.62703C21.0432 6.64748 21.061 6.68839 21.0565 6.72418C21.0565 6.72929 21.0565 6.73952 21.0565 6.74463C21.0565 7.11787 21.0343 7.41952 20.9897 7.65983C20.9452 7.92569 20.8739 8.12509 20.7937 8.26314C20.6332 8.53923 20.4148 8.62103 20.192 8.57502C20.1162 8.55968 20.0315 8.52901 19.9513 8.4881C19.9468 8.63637 19.9468 8.87668 19.9424 9.18345C19.9201 10.886 19.8711 14.6746 19.8399 17.1032C19.8265 18.0184 19.8176 18.7393 19.8086 19.0819C19.8086 19.179 19.8042 19.2506 19.8042 19.2813C19.8042 19.3375 19.7865 19.3631 19.7865 19.3682C19.7775 19.3835 19.7596 19.4142 19.7106 19.4296C19.6883 19.4347 19.6438 19.4449 19.577 19.4551C19.3854 19.4807 18.9842 19.5063 18.4271 19.542C17.7586 19.5778 16.8583 19.6187 15.8244 19.6596C15.6729 19.7057 15.5213 19.7466 15.3653 19.7772C15.2628 19.7977 15.1603 19.813 15.0489 19.8232C14.9464 19.8335 14.8395 19.8335 14.7325 19.8232C14.474 19.8079 14.2601 19.7721 14.064 19.721C14.0596 19.721 14.0551 19.721 14.0506 19.7159C13.6139 19.7312 13.1637 19.7414 12.7047 19.7517C10.8418 19.7977 8.85418 19.8284 7.08042 19.8284C7.03585 19.8335 6.9868 19.8386 6.93777 19.8437C6.82635 19.8539 6.72387 19.8539 6.62136 19.8488C6.54114 19.8437 6.46091 19.8386 6.38515 19.8232C4.44649 19.813 2.8421 19.7619 2.06664 19.6392C1.79032 19.5983 1.61198 19.5369 1.54067 19.4807C1.48273 19.4347 1.46494 19.3784 1.46494 19.3273C1.46494 18.9132 1.44707 17.6605 1.42033 16.1573C1.36239 13.3095 1.29117 9.5209 1.28226 8.87668ZM0.515718 6.98493C0.533545 7.16388 0.591386 7.62404 0.751827 8.01261C0.885528 8.33472 1.08608 8.61593 1.42033 8.59548C1.61197 8.58525 1.83483 8.47788 2.1156 8.25292C2.37409 8.04329 2.6727 7.74163 3.02032 7.30704C3.03815 7.28659 3.06049 7.27125 3.08278 7.27636C3.17637 7.03095 3.39473 6.43275 3.62202 5.6965C3.73344 5.3386 3.84485 4.94492 3.95181 4.54612C4.03649 4.22401 4.11671 3.89678 4.17911 3.57467C4.23259 3.29858 4.27716 3.03272 4.29945 2.77707C4.23705 2.77707 4.17905 2.77196 4.12111 2.77196C3.85371 2.76174 3.63531 2.7464 3.53726 2.74129C3.40356 3.27302 3.19863 3.76896 2.95352 4.22401C2.77079 4.55634 2.57021 4.86822 2.36074 5.14943C2.12899 5.46131 1.8883 5.73229 1.66101 5.97259C1.12175 6.52989 0.653876 6.88267 0.515718 6.98493ZM3.05155 7.55757C2.75295 7.9666 2.48999 8.26825 2.25378 8.47276C1.94627 8.73863 1.68332 8.85623 1.46494 8.88179C1.47831 9.55157 1.56303 13.3197 1.62097 16.1778C1.65217 17.6298 1.67439 18.8467 1.67439 19.3068C1.72787 19.3273 1.8973 19.3835 2.08002 19.4091C2.70842 19.5011 3.88936 19.5523 5.3467 19.5676C5.33779 19.5523 5.32886 19.5318 5.33332 19.5114C5.33778 19.5011 5.34225 19.4858 5.3467 19.4807C5.3467 19.4756 5.35117 19.4705 5.35563 19.4653C5.39128 19.3835 5.4314 19.3069 5.47596 19.2455L5.48043 19.2404C4.0008 19.1841 2.03987 19.1126 2.03987 19.1126C1.99085 19.1126 1.95076 19.0717 1.95076 19.0205C1.95076 19.0205 1.84823 12.742 1.80812 10.2827C1.7992 9.86346 1.79473 9.55668 1.79473 9.40841C1.79473 9.36751 1.79473 9.33683 1.79473 9.3215C1.79028 9.29593 1.79475 9.27037 1.80812 9.24481C1.81703 9.22947 1.83482 9.19368 1.88384 9.17834C1.8883 9.17834 1.89724 9.17323 1.91061 9.17323C1.91952 9.17323 1.9374 9.17323 1.96414 9.17323C2.04436 9.17323 2.21364 9.17833 2.44093 9.18345C3.77348 9.21924 7.17399 9.33172 7.17399 9.33172C7.24084 9.33172 7.29433 9.39819 7.29433 9.47488C7.29433 9.47488 7.28539 11.0445 7.27202 12.9209H7.27649C7.40127 12.9874 7.45473 13.0999 7.47701 13.2328C7.49484 13.3504 7.48146 13.4833 7.46363 13.6163C7.45026 13.7185 7.43687 13.8157 7.44579 13.8975C7.46807 13.8924 7.5038 13.8873 7.52609 13.8924C7.57957 13.8975 7.63744 13.9077 7.68647 13.9384C7.6731 12.5886 7.66426 11.2797 7.65535 10.431C7.65089 10.0117 7.65088 9.70496 7.64643 9.5618C7.64643 9.5209 7.64643 9.49022 7.64643 9.47488C7.64643 9.46977 7.64643 9.46976 7.64643 9.46976C7.64643 9.46976 7.64643 9.46976 7.65089 9.46976C7.65089 9.45443 7.65089 9.4442 7.65089 9.43909C7.66426 9.3624 7.71325 9.34195 7.72662 9.33683C7.7489 9.32661 7.7756 9.3215 7.79788 9.33172C7.8068 9.33172 7.81574 9.33172 7.82465 9.33172C7.90933 9.33172 8.09201 9.33172 8.34159 9.33172C9.79447 9.32661 13.5069 9.30616 13.5069 9.30616C13.5426 9.30616 13.5738 9.3215 13.596 9.34706C13.6183 9.37263 13.6317 9.40841 13.6317 9.44932C13.6317 9.44932 13.5783 12.2154 13.5292 14.782L13.5337 14.7769C13.5827 14.7411 13.6361 14.7155 13.6985 14.7002C13.7208 14.6951 13.7387 14.6951 13.761 14.69C13.7655 14.69 13.7655 14.69 13.7699 14.69C13.761 14.6644 13.7565 14.6388 13.7521 14.6286C13.7298 14.5417 13.6941 14.4343 13.6852 14.3321C13.6762 14.2452 13.6807 14.1633 13.7119 14.0918C13.7342 14.0355 13.7698 13.9946 13.81 13.9639C13.8545 13.9282 13.908 13.9077 13.9615 13.8975C13.9482 12.4966 13.9392 11.1161 13.9303 10.2316C13.9258 9.81233 13.9258 9.50556 13.9258 9.3624C13.9258 9.3215 13.9258 9.29082 13.9258 9.27548C13.9258 9.27037 13.9258 9.27036 13.9258 9.27036C13.9258 9.25503 13.9258 9.24481 13.9258 9.24481C13.9392 9.14766 14.0105 9.13744 14.0239 9.13232C14.0372 9.13232 14.0507 9.12721 14.0685 9.13232C14.0774 9.13232 14.0863 9.13232 14.0952 9.13232C14.171 9.13232 14.3359 9.13232 14.5543 9.13232C15.8512 9.12721 19.1535 9.10676 19.1535 9.10676C19.1847 9.10676 19.2205 9.1221 19.2427 9.14766C19.265 9.17323 19.2783 9.20901 19.2783 9.24992C19.2783 9.24992 19.2427 15.3546 19.2294 17.7423C19.2294 18.1514 19.2249 18.4479 19.2249 18.5911C19.2249 18.632 19.2249 18.6575 19.2249 18.6729C19.2294 18.6933 19.2249 18.7189 19.216 18.7393C19.2071 18.7547 19.1981 18.7802 19.1624 18.7956C19.158 18.7956 19.1492 18.8007 19.1313 18.8058C19.1224 18.8058 19.1045 18.8109 19.0778 18.8109C19.002 18.816 18.8416 18.8262 18.6232 18.8365C17.9859 18.8671 16.8584 18.9183 15.8868 18.9643C15.8913 18.9694 15.9001 18.9694 15.9046 18.9745C15.9536 19.0001 15.9982 19.0308 16.0428 19.0614C16.0829 19.0972 16.123 19.1381 16.1586 19.1841C16.2032 19.2404 16.2389 19.312 16.2745 19.3887C17.1124 19.358 17.8433 19.3273 18.4093 19.2966C18.9619 19.2659 19.3541 19.2404 19.5458 19.2199C19.5547 19.2199 19.5636 19.2199 19.5725 19.2148C19.577 19.0768 19.5814 18.8058 19.5903 18.4377C19.6259 16.7351 19.6928 12.9465 19.7418 10.5179C19.7597 9.6027 19.7731 8.88179 19.782 8.53923C19.782 8.48299 19.782 8.43698 19.7865 8.4063C19.6839 8.33472 19.5814 8.24269 19.4833 8.14043C19.2204 7.87457 18.9887 7.54735 18.855 7.34283C18.7703 7.87457 18.6455 8.23758 18.4939 8.47788C18.2577 8.84601 17.9592 8.94315 17.6561 8.88179C17.3932 8.83066 17.1213 8.64661 16.8762 8.42164C16.542 8.11487 16.2612 7.72629 16.1186 7.51667C15.9894 8.02795 15.8334 8.38585 15.664 8.61592C15.41 8.96871 15.1203 9.06074 14.8395 9.00961C14.5721 8.9636 14.3091 8.76931 14.0774 8.52901C13.7565 8.19667 13.5025 7.77231 13.3821 7.55757C13.195 8.02284 13.0033 8.36028 12.8117 8.59548C12.5443 8.9227 12.2813 9.06074 12.0362 9.08119C11.6574 9.11698 11.3142 8.86646 11.0513 8.54946C10.8151 8.26314 10.6369 7.93081 10.5433 7.73141C10.4096 8.14043 10.2758 8.4472 10.1421 8.67216C9.92373 9.03006 9.69645 9.18856 9.48699 9.22435C9.20622 9.27548 8.9433 9.10676 8.73383 8.85112C8.49317 8.55968 8.31038 8.16089 8.21679 7.9257C8.00287 8.32961 7.80237 8.62615 7.60628 8.82555C7.33442 9.11187 7.08042 9.21924 6.85758 9.21924C6.56344 9.22435 6.3138 9.03518 6.12216 8.77954C5.87704 8.45743 5.72114 8.01773 5.64538 7.77231C5.43591 8.17111 5.23532 8.45743 5.04368 8.65683C4.77182 8.94314 4.51782 9.05052 4.29498 9.05052C4.00084 9.05563 3.7512 8.86645 3.55957 8.61081C3.28325 8.25803 3.12286 7.78765 3.05155 7.55757ZM5.61415 2.7464C5.53838 2.75151 5.40911 2.76174 5.24867 2.77196C5.14171 2.77708 5.02136 2.78219 4.89211 2.7873C4.77624 2.7873 4.65599 2.7873 4.53566 2.7873C4.51338 2.7873 4.48657 2.7873 4.46429 2.7873C4.45092 3.11452 4.4108 3.47242 4.34841 3.83032C4.30384 4.09618 4.24596 4.36716 4.17911 4.62792C4.0766 5.03694 3.95626 5.43064 3.83593 5.79365C3.55962 6.63215 3.27878 7.28659 3.21193 7.4502C3.26541 7.61381 3.3947 7.97171 3.59525 8.27848C3.76461 8.53924 3.98745 8.76931 4.26822 8.7642C4.44203 8.75909 4.63816 8.66706 4.86099 8.45232C5.07491 8.2478 5.31105 7.94103 5.56508 7.49621C5.57399 7.48599 5.57847 7.47576 5.59184 7.46554C5.60076 7.30193 5.61864 7.02072 5.64538 6.70884C5.65875 6.51455 5.67652 6.30493 5.6988 6.10553C5.71663 5.94703 5.7345 5.79365 5.75233 5.6556C5.77907 5.46131 5.80131 5.30281 5.81468 5.20567C5.81913 5.1801 5.81468 5.14943 5.81914 5.13409C5.6587 5.12898 5.56954 5.12898 5.56954 5.12898C5.5428 5.12898 5.52056 5.11875 5.50273 5.0983C5.4849 5.07785 5.47597 5.05229 5.48043 5.02672C5.48934 5.0165 5.57849 3.88145 5.61415 2.7464ZM15.5347 2.79241C15.5303 3.06851 15.5258 3.34971 15.5303 3.60535C15.5303 4.05528 15.5436 4.44897 15.5748 4.69439C15.5837 4.77619 15.6105 4.86822 15.6149 4.87845C15.6506 4.91935 15.6551 4.96537 15.6506 5.00627C15.6462 5.03694 15.6327 5.07785 15.5926 5.10852C15.5748 5.12386 15.5347 5.14432 15.4678 5.15454C15.45 5.15966 15.4278 5.15965 15.4055 5.16476C15.4322 5.26702 15.4634 5.3795 15.4991 5.49199C15.5481 5.64026 15.6016 5.78853 15.6595 5.93681C15.7264 6.12087 15.7977 6.30492 15.8645 6.47365C16.0428 6.92358 16.2033 7.26614 16.2033 7.26614C16.2077 7.27636 16.2122 7.28659 16.2122 7.29681C16.3147 7.43997 16.5598 7.76209 16.8584 8.05352C17.1124 8.30405 17.411 8.52901 17.6962 8.58525C17.9146 8.62615 18.1241 8.55968 18.3023 8.29893C18.4672 8.06374 18.6098 7.68539 18.7123 7.11275C18.5162 6.91335 18.0795 6.44808 17.6294 5.83454C17.3976 5.51755 17.1614 5.16477 16.9564 4.78642C16.8227 4.53589 16.7024 4.28024 16.5998 4.01438C16.4439 3.61046 16.3414 3.19122 16.3102 2.7873C16.2344 2.7873 16.1587 2.79241 16.0874 2.79241C15.8556 2.80264 15.6551 2.79753 15.5347 2.79241ZM15.2183 5.1801C15.049 5.19544 14.8217 5.20056 14.5498 5.21079C14.1443 5.22101 13.6317 5.22612 13.0568 5.22612C13.0568 5.23635 13.0568 5.24146 13.0568 5.25168C13.0613 5.32837 13.0747 5.43064 13.097 5.55334C13.1148 5.66071 13.1459 5.7783 13.1727 5.90612C13.1994 6.02372 13.2217 6.14132 13.2484 6.26403C13.2796 6.4123 13.3109 6.56057 13.3376 6.6935C13.4134 7.05651 13.4802 7.33772 13.4802 7.33772C13.4802 7.34283 13.4802 7.34794 13.4846 7.35305C13.5693 7.49621 13.7877 7.849 14.0729 8.166C14.3047 8.42675 14.581 8.66194 14.8662 8.71307C15.0713 8.74886 15.2762 8.67217 15.4723 8.42164C15.655 8.19156 15.8289 7.82344 15.9849 7.27636C15.9136 7.14854 15.7799 6.89802 15.6462 6.59125C15.5704 6.42252 15.4902 6.23846 15.4278 6.04417C15.3832 5.91635 15.3476 5.78853 15.3119 5.66071C15.2673 5.4971 15.2362 5.33349 15.2183 5.1801ZM12.8786 5.22612C12.1388 5.22612 11.3098 5.22101 10.4853 5.21079C10.4942 5.27725 10.5031 5.36417 10.512 5.47154C10.5254 5.64026 10.5476 5.84477 10.5566 6.05951C10.5655 6.2538 10.5744 6.45831 10.5789 6.6526C10.5878 6.96448 10.5878 7.24569 10.5922 7.40419C10.5967 7.41441 10.6012 7.41953 10.6012 7.42975C10.6056 7.43486 10.6101 7.44509 10.6145 7.45532C10.6145 7.45532 10.8419 7.96659 11.1939 8.36028C11.4168 8.61081 11.6931 8.81533 12.0006 8.78977C12.1967 8.76931 12.4061 8.65171 12.629 8.40119C12.8384 8.16088 13.0568 7.81321 13.2796 7.31215C13.2306 7.15877 13.137 6.83155 13.0479 6.47365C13.0211 6.37139 12.9989 6.26402 12.9766 6.15665C12.9543 6.04417 12.9364 5.9368 12.9231 5.83454C12.8874 5.59424 12.8741 5.38461 12.8875 5.25168C12.8786 5.24146 12.8786 5.23635 12.8786 5.22612ZM10.3071 5.21079C9.65192 5.20056 9.0057 5.19033 8.4085 5.1801C8.40405 5.31304 8.40404 5.57379 8.39958 5.87545C8.39512 6.04417 8.39065 6.22824 8.38174 6.40719C8.37282 6.59125 8.36388 6.77019 8.35051 6.93892C8.33268 7.26614 8.31492 7.54223 8.30601 7.66494C8.35949 7.79787 8.57342 8.30915 8.87648 8.6466C9.03692 8.82555 9.22409 8.9636 9.4291 8.9227C9.50041 8.90736 9.57171 8.87668 9.64748 8.81532C9.74107 8.74374 9.83461 8.63638 9.93266 8.49322C10.0842 8.26826 10.2447 7.94615 10.4051 7.51156C10.3962 7.4093 10.3649 7.06162 10.3426 6.65771C10.3293 6.46853 10.316 6.26402 10.3115 6.06974C10.3071 5.89079 10.3071 5.72206 10.3071 5.5789C10.3026 5.43063 10.3026 5.2977 10.3071 5.21079ZM8.23017 5.17499C7.27198 5.15965 6.46086 5.1392 5.99736 5.12898C5.99736 5.14943 5.99736 5.18011 5.99736 5.21079C5.99736 5.30793 5.993 5.47154 5.97963 5.67094C5.97071 5.80898 5.96177 5.96748 5.9484 6.12598C5.93057 6.32538 5.90823 6.535 5.88595 6.72929C5.83692 7.14343 5.7879 7.49622 5.77453 7.60359C5.82801 7.7672 5.9573 8.1251 6.15785 8.43698C6.32721 8.69773 6.55004 8.92781 6.83082 8.9227C7.00463 8.91758 7.20076 8.82555 7.42359 8.61081C7.6286 8.41141 7.86026 8.11487 8.10983 7.68539C8.10983 7.67517 8.10983 7.67005 8.10983 7.65983C8.10983 7.51156 8.10984 7.16389 8.11875 6.77531C8.12321 6.56568 8.12768 6.34583 8.1366 6.13109C8.14551 5.98282 8.15445 5.83455 8.16782 5.70161C8.19456 5.48176 8.21234 5.2977 8.23017 5.17499ZM17.5803 2.71061C17.4332 2.72594 17.0856 2.75663 16.7157 2.78219C16.6355 2.78731 16.5553 2.79242 16.475 2.79753C16.5152 3.10941 16.6043 3.42129 16.7247 3.73317C16.845 4.04505 16.9965 4.35183 17.1614 4.64837C17.3664 5.01138 17.5892 5.35905 17.8076 5.67094C18.387 6.4941 18.9352 7.07186 18.9352 7.07186C18.9574 7.09231 18.9664 7.12298 18.9664 7.14854C19.0956 7.33261 19.3452 7.66494 19.626 7.93081C19.8221 8.11487 20.0271 8.26825 20.2187 8.30404C20.397 8.33472 20.5485 8.23757 20.6644 7.95125C20.7669 7.70073 20.8427 7.32749 20.8783 6.79065C20.7357 6.69862 20.085 6.26402 19.3987 5.63003C19.0956 5.34883 18.7792 5.02672 18.5029 4.67905C18.3157 4.44386 18.1464 4.19333 18.0038 3.93258C17.7809 3.53378 17.6293 3.11963 17.5803 2.71061ZM8.05641 19.5625C9.55831 19.5523 11.1627 19.5165 12.6869 19.4807C12.9186 19.4756 13.1504 19.4705 13.3777 19.4602C13.3732 19.4551 13.3732 19.45 13.3732 19.4449C13.3598 19.4193 13.3598 19.3887 13.3777 19.3682C13.4178 19.2864 13.4624 19.2097 13.5159 19.1432C13.5515 19.0972 13.5961 19.0563 13.6407 19.0256C13.6852 18.9899 13.7342 18.9643 13.7877 18.9438C13.8144 18.9336 13.8412 18.9234 13.868 18.9132C13.7922 18.8365 13.7209 18.7444 13.663 18.6422C13.5783 18.499 13.5158 18.3405 13.4668 18.182C13.4623 18.5553 13.4534 18.8314 13.4534 18.9643C13.4534 19.0001 13.4534 19.0256 13.4534 19.041C13.4579 19.0717 13.4535 19.0972 13.4357 19.1279C13.4268 19.1381 13.4133 19.1637 13.3821 19.1739C13.3777 19.1739 13.3687 19.179 13.3509 19.179C13.342 19.179 13.3242 19.179 13.293 19.1841C13.2083 19.1893 13.0345 19.1893 12.7938 19.1944C11.6707 19.2097 9.1394 19.2199 8.18567 19.225C8.21241 19.2659 8.23911 19.312 8.2614 19.358C8.27477 19.3835 8.27923 19.4142 8.26586 19.4347C8.2614 19.4551 8.24354 19.4705 8.22571 19.4807C8.16777 19.5114 8.11434 19.5369 8.05641 19.5625ZM13.7476 19.4551C13.8546 19.4909 13.966 19.5216 14.0863 19.5472C14.2735 19.5881 14.4785 19.6136 14.7281 19.6238C14.8306 19.629 14.9286 19.6238 15.0266 19.6187C15.1291 19.6136 15.2273 19.5983 15.3253 19.5829C15.5882 19.542 15.8467 19.4756 16.1231 19.4091C16.1141 19.3989 16.1052 19.3887 16.0918 19.3784C16.0874 19.3784 16.0874 19.3733 16.0829 19.3733C16.0517 19.3426 16.0205 19.312 15.9938 19.2864C15.9537 19.2455 15.9136 19.2097 15.8735 19.179C15.8066 19.1279 15.7353 19.0768 15.6506 19.041C15.3966 19.2608 15.0713 19.3529 14.7548 19.3324C14.4919 19.312 14.2289 19.2148 14.0105 19.0461C13.9347 19.0819 13.8679 19.1228 13.801 19.1688C13.7565 19.1995 13.712 19.2353 13.6674 19.2762C13.6362 19.3069 13.6005 19.3324 13.5693 19.3631C13.5604 19.3733 13.5515 19.3784 13.5426 19.3887C13.6095 19.404 13.6763 19.4296 13.7476 19.4551ZM5.95732 19.5676C6.07765 19.5932 6.19801 19.6136 6.31388 19.629C6.41193 19.6392 6.50994 19.6494 6.61244 19.6545C6.71049 19.6596 6.8085 19.6596 6.91101 19.6494C7.1383 19.6341 7.32997 19.6085 7.49932 19.5676C7.51715 19.5625 7.53046 19.5574 7.54828 19.5574C7.74438 19.5114 7.91382 19.45 8.08763 19.3784C8.07872 19.3682 8.06978 19.3631 8.06087 19.3529C8.02967 19.3222 7.99403 19.2966 7.96283 19.2711C7.94946 19.2608 7.93159 19.2455 7.91822 19.2353C7.88703 19.2097 7.85585 19.1893 7.82465 19.1688C7.789 19.1483 7.7578 19.1228 7.71769 19.1023C7.68204 19.0819 7.64639 19.0665 7.61074 19.0512C7.39682 19.225 7.13837 19.3324 6.87543 19.358C6.66596 19.3784 6.45198 19.3478 6.25589 19.2659C6.15338 19.2199 6.05984 19.1637 5.97071 19.0921C5.88603 19.133 5.81472 19.1841 5.74787 19.2404C5.74341 19.2455 5.7434 19.2455 5.73895 19.2506C5.70329 19.2813 5.66764 19.3171 5.62753 19.3529C5.60079 19.3835 5.56962 19.4091 5.53842 19.4449C5.52505 19.4602 5.5161 19.4705 5.50273 19.4858C5.66763 19.5063 5.81471 19.542 5.95732 19.5676ZM7.02688 12.4199C7.0358 11.0854 7.04027 9.98105 7.04473 9.60781C6.42525 9.58736 3.61749 9.48511 2.43201 9.44421C2.2582 9.43909 2.12008 9.43398 2.02649 9.43398C2.03095 9.59248 2.03095 9.88391 2.03541 10.2725C2.06215 12.5579 2.12453 18.1462 2.13345 18.9183L5.73895 19.0103C5.7746 18.9899 5.81026 18.9745 5.85037 18.9592C5.82363 18.9285 5.79681 18.8978 5.77007 18.862L2.32059 18.7751C2.28939 18.7751 2.26271 18.7444 2.26271 18.7086L2.18698 9.68451H2.18252C2.18252 9.67428 2.18699 9.65894 2.1959 9.64872C2.20481 9.63849 2.21811 9.63338 2.23148 9.63338V9.62827L6.89316 9.77143C6.9199 9.77143 6.94669 9.79699 6.94669 9.83278L6.93777 12.3125C6.9556 12.3227 6.97347 12.3381 6.98684 12.3585C7.00021 12.379 7.01351 12.3994 7.02688 12.4199ZM7.68201 14.2196C7.67755 14.1991 7.67308 14.1838 7.66862 14.1685C7.65525 14.1378 7.63302 14.1224 7.61074 14.1071C7.57954 14.0918 7.54836 14.0815 7.5127 14.0815C7.48596 14.0815 7.46361 14.0918 7.44133 14.0918C7.41459 14.0969 7.39234 14.0918 7.37006 14.0866C7.32995 14.0713 7.29431 14.0458 7.27649 13.9742C7.25866 13.8873 7.26312 13.7748 7.27649 13.6572C7.28986 13.5242 7.31216 13.3811 7.29433 13.2635C7.28987 13.2328 7.28093 13.2021 7.26756 13.1766C7.24974 13.1459 7.22749 13.1203 7.1963 13.105C7.18293 13.0948 7.16952 13.105 7.15615 13.1101C7.13832 13.1152 7.12044 13.1203 7.10261 13.1254C7.08033 13.1306 7.05809 13.1306 7.03581 13.1254C7.03135 13.1254 7.02688 13.1203 7.02242 13.1203C7.00014 13.1101 6.9779 13.0896 6.96008 13.0487C6.95116 13.0181 6.94222 12.9567 6.93331 12.9107C6.92885 12.8851 6.92885 12.8647 6.92885 12.8596C6.91994 12.788 6.91544 12.6755 6.8887 12.5835C6.87979 12.5528 6.86648 12.5221 6.8442 12.5068C6.83974 12.5017 6.83081 12.5017 6.82635 12.5017C6.81744 12.5017 6.8085 12.5017 6.79959 12.5068C6.74165 12.5221 6.70599 12.5681 6.67925 12.6193C6.63023 12.7266 6.62136 12.8647 6.61244 12.9721C6.60799 13.0027 6.61243 13.1459 6.59906 13.2072C6.59015 13.2482 6.57228 13.2737 6.55891 13.2839C6.54554 13.2993 6.51884 13.3095 6.48764 13.3095C6.46536 13.3095 6.42526 13.3044 6.38961 13.2993C6.37624 13.2993 6.35837 13.2993 6.34946 13.2993C6.26032 13.3555 6.22465 13.4578 6.21574 13.56C6.20682 13.6878 6.23361 13.8208 6.26927 13.9384C6.28264 13.9844 6.26926 14.0151 6.26035 14.0355C6.24252 14.0611 6.22027 14.0815 6.18462 14.0815C6.1757 14.0815 6.16229 14.0815 6.14447 14.0713C6.14001 14.0662 6.1177 14.056 6.11324 14.0509L6.0732 14.0406C6.04646 14.0406 6.01518 14.0509 5.98844 14.0662C5.96616 14.0764 5.94393 14.0918 5.93502 14.1173C5.90828 14.1685 5.91272 14.2298 5.92163 14.2861C5.935 14.3627 5.95734 14.4394 5.97963 14.5008L6.02859 14.6286C6.02859 14.6286 6.04644 14.6644 6.0509 14.6797C6.08209 14.7564 6.02412 14.8127 6.01967 14.8127C6.0063 14.8229 5.98406 14.8331 5.95286 14.8331C5.92166 14.8331 5.87711 14.8229 5.85483 14.8229C5.81472 14.8229 5.76568 14.828 5.72557 14.8485C5.69437 14.8587 5.6632 14.8791 5.64538 14.9098C5.62309 14.9507 5.62754 14.9916 5.63645 15.0376C5.65428 15.0939 5.68544 15.1501 5.71218 15.1961L5.77899 15.2933C5.7879 15.2984 5.81915 15.3291 5.82806 15.3393C5.84143 15.3649 5.8459 15.3853 5.8459 15.4058C5.8459 15.4313 5.83695 15.462 5.80129 15.4876C5.78792 15.4978 5.76568 15.5029 5.73449 15.508C5.69438 15.508 5.63643 15.4978 5.61415 15.4978C5.5473 15.4978 5.45816 15.4927 5.38239 15.5234C5.34674 15.5387 5.31111 15.5591 5.29328 15.5949C5.26208 15.6563 5.27992 15.7228 5.30666 15.7841C5.34232 15.8608 5.40017 15.9273 5.4492 15.9784L5.56508 16.0807C5.56953 16.0858 5.58293 16.0909 5.59184 16.096C5.60521 16.1062 5.61862 16.1113 5.62753 16.1216C5.64536 16.1369 5.64973 16.1573 5.65419 16.1778C5.65865 16.2034 5.65428 16.2289 5.63199 16.2545C5.61417 16.2749 5.58736 16.2903 5.56062 16.3056C5.52496 16.321 5.48485 16.3312 5.44474 16.3465C5.418 16.3568 5.39129 16.367 5.36901 16.3874C5.31553 16.4437 5.33782 16.5255 5.37347 16.597C5.41804 16.684 5.49375 16.7658 5.54723 16.7964C5.55169 16.8016 5.55616 16.8016 5.56062 16.8067C5.60073 16.8169 5.63638 16.822 5.67649 16.8271C5.83693 16.8527 5.99741 16.8629 6.15339 16.8731C6.32274 16.8885 6.49205 16.8936 6.66141 16.8936C6.71489 16.8936 6.76395 16.8936 6.81743 16.8936C6.85754 16.8936 6.89766 16.8885 6.93777 16.8885C6.96451 16.8885 6.99568 16.8834 7.02242 16.8834C7.09819 16.8783 7.17396 16.868 7.24972 16.8578C7.3032 16.8527 7.36119 16.8425 7.41467 16.8322C7.51717 16.8118 7.61965 16.7862 7.71769 16.7607C7.78009 16.7402 7.84244 16.7198 7.90038 16.6993C7.9494 16.6789 7.99846 16.6635 8.04302 16.638C8.04302 16.6328 8.04748 16.6277 8.04748 16.6277L8.05195 16.6226C8.08314 16.5766 8.12325 16.5204 8.1589 16.459C8.2213 16.3516 8.27926 16.2238 8.29709 16.1062C8.31046 15.9989 8.28818 15.8966 8.19459 15.8199C8.18568 15.8097 8.17228 15.8046 8.16336 15.8046C8.14999 15.7994 8.13212 15.7943 8.11429 15.7943C8.09646 15.7892 8.07423 15.7892 8.05641 15.7841C8.03412 15.779 8.01624 15.7739 7.99395 15.7688C7.96721 15.7585 7.94051 15.7483 7.91822 15.733C7.91377 15.7279 7.90484 15.7228 7.90038 15.7125C7.89147 15.6972 7.88254 15.6767 7.887 15.6512C7.887 15.641 7.89147 15.6256 7.90038 15.6C7.92266 15.5387 7.99396 15.4006 8.00287 15.3904C8.02961 15.3291 8.05195 15.2728 8.06087 15.2166V15.1399C8.05641 15.1041 8.043 15.0632 8.01626 15.0223C7.99397 14.9865 7.96726 14.9558 7.93607 14.9354C7.9227 14.9252 7.91375 14.92 7.90038 14.9149C7.8781 14.9047 7.85586 14.8945 7.83357 14.8945L7.74446 14.8894C7.74 14.8894 7.71322 14.8945 7.70431 14.8945H7.69985C7.64191 14.8996 7.6152 14.8382 7.6152 14.8382C7.60629 14.8178 7.60628 14.7871 7.60628 14.7564C7.61073 14.7002 7.63751 14.6235 7.64196 14.5928C7.65979 14.5161 7.68647 14.4292 7.69539 14.3423L7.68201 14.2196ZM13.2796 15.687C13.3153 13.2481 13.3643 10.2623 13.3732 9.57714C12.7092 9.58225 9.62511 9.59247 8.33266 9.59247C8.13211 9.59247 7.97623 9.59247 7.87818 9.59247C7.87818 9.75097 7.87808 10.0424 7.88253 10.4208C7.88253 11.4331 7.887 13.0948 7.887 14.7002C7.93156 14.7155 7.97168 14.736 8.00734 14.7615C8.02071 14.7718 8.03411 14.782 8.04748 14.7922L8.07425 9.89413H8.06979C8.06979 9.8839 8.07426 9.86857 8.08317 9.85834C8.09209 9.84812 8.10538 9.84301 8.11429 9.84301V9.83789L13.1059 9.84812C13.1192 9.84812 13.1325 9.85323 13.1459 9.86856C13.1548 9.87879 13.1593 9.89413 13.1593 9.90947L13.1103 18.7342C13.1103 18.7751 13.0835 18.8058 13.0479 18.8058L8.08763 18.8671C8.06981 18.8671 8.05639 18.862 8.04302 18.8467C8.02965 18.8365 8.02518 18.816 8.02518 18.8007V18.5092C8.0029 18.5553 7.98066 18.5962 7.95837 18.6422C7.93609 18.6831 7.91374 18.7189 7.887 18.7547V18.9694C7.91819 18.9847 7.94948 19.0001 7.97622 19.0205C8.70711 19.0103 11.5639 18.9796 12.7805 18.9541C12.9766 18.9489 13.1326 18.9489 13.2262 18.9438C13.2262 18.7904 13.2306 18.4939 13.235 18.0951C13.2395 17.6554 13.2484 17.093 13.2573 16.4641C13.1994 16.3567 13.1504 16.2443 13.1281 16.1267C13.1102 15.9682 13.1415 15.8097 13.2796 15.687ZM13.9615 14.0815C13.9482 14.0866 13.9347 14.0918 13.9214 14.102C13.8991 14.1173 13.8769 14.1378 13.8635 14.1633C13.8457 14.2042 13.8456 14.2503 13.8501 14.3014C13.859 14.3934 13.8902 14.4854 13.908 14.5673C13.9169 14.5979 13.9437 14.6746 13.9481 14.7309C13.9526 14.7615 13.9481 14.7922 13.9437 14.8127C13.9437 14.8127 13.917 14.8791 13.8546 14.874C13.8457 14.874 13.8189 14.8689 13.8144 14.8689L13.7253 14.874C13.6897 14.8791 13.654 14.8945 13.6228 14.92C13.5916 14.9456 13.5649 14.9763 13.5426 15.007C13.5337 15.0223 13.5248 15.0376 13.5203 15.053L13.5159 15.2575C13.5292 15.2984 13.5425 15.3342 13.5648 15.3751C13.5737 15.3904 13.6451 15.5285 13.6719 15.5847C13.6808 15.6103 13.6852 15.6256 13.6852 15.6358C13.6896 15.6819 13.6674 15.7074 13.654 15.7176C13.6318 15.733 13.6049 15.7483 13.5782 15.7585C13.5559 15.7637 13.5337 15.7688 13.5069 15.7739C13.4891 15.779 13.4757 15.779 13.4579 15.7841C13.4311 15.7892 13.4 15.7994 13.3777 15.8148C13.2841 15.8915 13.2618 15.9989 13.2796 16.1062C13.3064 16.2647 13.4044 16.4334 13.4891 16.5561C13.5025 16.5766 13.5203 16.5971 13.5337 16.6175C13.5382 16.6226 13.5426 16.6277 13.5426 16.638C13.6852 16.6993 13.8323 16.7453 13.9794 16.776C14.0418 16.7913 14.0997 16.8016 14.1621 16.8118C14.1665 16.8118 14.171 16.8118 14.1754 16.8118C14.2066 16.8169 14.2378 16.822 14.2735 16.8271C14.3091 16.8322 14.3492 16.8374 14.3849 16.8425C14.5676 16.8578 14.7503 16.8629 14.9331 16.8578C15.1024 16.8527 15.2718 16.8425 15.4412 16.8271C15.5972 16.8118 15.7575 16.7964 15.918 16.7658C15.9581 16.7607 15.9937 16.7504 16.0338 16.7402C16.0383 16.7351 16.0428 16.7351 16.0472 16.73C16.1007 16.6993 16.1765 16.6175 16.2166 16.5306C16.2523 16.459 16.2746 16.3772 16.2166 16.321C16.1944 16.3005 16.1675 16.2903 16.1408 16.2801C16.1007 16.2647 16.0606 16.2596 16.0249 16.2443C15.9982 16.234 15.9715 16.2187 15.9537 16.1982C15.9314 16.1727 15.9269 16.1471 15.9269 16.1216C15.9269 16.1011 15.9358 16.0858 15.9537 16.0653C15.9626 16.0551 15.9715 16.05 15.9893 16.0398C15.9983 16.0346 16.0115 16.0295 16.016 16.0244L16.1274 15.917C16.1764 15.8659 16.2299 15.7943 16.2656 15.7176C16.2923 15.6563 16.3057 15.5898 16.2745 15.5285C16.2567 15.4876 16.2211 15.4722 16.1809 15.4569C16.1052 15.4313 16.016 15.4364 15.9492 15.4364C15.9225 15.4364 15.8645 15.4518 15.8289 15.4518C15.8021 15.4518 15.7799 15.4416 15.762 15.4364C15.7264 15.416 15.7174 15.3853 15.7174 15.3597C15.7174 15.3393 15.7175 15.3137 15.7353 15.2933C15.7442 15.283 15.7754 15.2524 15.7843 15.2422L15.8512 15.145C15.8779 15.099 15.9091 15.0427 15.9224 14.9814C15.9313 14.9405 15.9358 14.8945 15.9135 14.8536C15.8957 14.8229 15.8645 14.8076 15.8289 14.7973C15.7843 14.782 15.7352 14.7769 15.6951 14.7769C15.6773 14.7769 15.6283 14.7871 15.6016 14.7871C15.5704 14.7871 15.5481 14.7769 15.5347 14.7667C15.5347 14.7667 15.4723 14.7104 15.5035 14.6337C15.508 14.6184 15.5214 14.5826 15.5258 14.5826L15.5748 14.4497C15.5971 14.3883 15.6194 14.3116 15.6283 14.2349C15.6372 14.1736 15.6372 14.1122 15.6105 14.0662C15.5971 14.0457 15.5793 14.0304 15.5571 14.0202C15.5303 14.0048 15.499 13.9997 15.4723 13.9997L15.4323 14.01C15.4233 14.0151 15.4055 14.0304 15.401 14.0304C15.3832 14.0406 15.3698 14.0406 15.3609 14.0406C15.3252 14.0406 15.2985 14.0202 15.2807 13.9946C15.2718 13.9793 15.2539 13.9486 15.2673 13.8975C15.2985 13.785 15.3253 13.647 15.3164 13.5191C15.3075 13.4118 15.2718 13.3146 15.1782 13.2584C15.1737 13.2584 15.1514 13.2584 15.138 13.2584C15.1024 13.2635 15.0623 13.2686 15.04 13.2686C15.0044 13.2686 14.9821 13.2584 14.9643 13.243C14.9509 13.2328 14.9286 13.2072 14.9197 13.1663C14.9063 13.1101 14.9018 12.9618 14.9018 12.9312C14.8929 12.8238 14.8796 12.6806 14.8261 12.5784C14.7994 12.5272 14.7637 12.4812 14.7058 12.4659C14.6879 12.4608 14.6702 12.4608 14.6568 12.4659C14.6345 12.4761 14.6211 12.5068 14.6122 12.5426C14.5854 12.6346 14.5854 12.7471 14.5765 12.8187C14.5765 12.8391 14.5632 12.9618 14.5498 13.0078C14.532 13.0641 14.4963 13.0845 14.474 13.0896C14.4517 13.0948 14.4295 13.0948 14.4072 13.0948C14.4027 13.0948 14.3983 13.0948 14.3893 13.0896C14.376 13.0896 14.3626 13.0845 14.3537 13.0794C14.3403 13.0743 14.327 13.0692 14.3136 13.0743C14.3047 13.0794 14.3002 13.0845 14.2958 13.0845C14.2468 13.1203 14.2245 13.1766 14.22 13.2328C14.2022 13.3504 14.2289 13.4936 14.2467 13.6265C14.2601 13.7441 14.269 13.8566 14.2512 13.9435C14.2378 14.01 14.2066 14.0406 14.171 14.056C14.1665 14.056 14.1665 14.056 14.1621 14.0611C14.1398 14.0662 14.1175 14.0713 14.0908 14.0662C14.0685 14.0662 14.0417 14.056 14.0194 14.056C13.9971 14.0713 13.9749 14.0764 13.9615 14.0815ZM15.909 18.7291C16.8717 18.678 17.9859 18.6217 18.6098 18.5859C18.7836 18.5757 18.9219 18.5655 19.011 18.5604C19.011 18.5399 19.011 18.5144 19.011 18.4837C19.011 18.1871 19.011 17.5685 19.011 16.7862C19.0154 14.3116 19.0243 10.1907 19.0287 9.37774C18.4137 9.38285 15.6952 9.39819 14.5498 9.39307C14.3805 9.39307 14.2467 9.39307 14.1576 9.39307C14.1576 9.55157 14.1576 9.843 14.1576 10.2214C14.1576 10.9065 14.1576 11.8933 14.1621 12.9516C14.1799 12.9363 14.2022 12.9209 14.2245 12.9056C14.2468 12.8954 14.269 12.8851 14.2869 12.8851L14.2958 9.65383H14.2913C14.2913 9.62826 14.3136 9.60781 14.3359 9.60781V9.6027L18.846 9.58737C18.8594 9.58737 18.8728 9.59247 18.8862 9.60781C18.8951 9.61804 18.8996 9.63338 18.8996 9.64872L18.8327 18.3814C18.8327 18.4172 18.806 18.4479 18.7748 18.453L15.9849 18.5808C15.9626 18.6268 15.9358 18.678 15.909 18.7291ZM13.4757 17.3486C13.4935 17.5071 13.5114 17.6656 13.5426 17.8241C13.5916 18.0798 13.6673 18.3201 13.801 18.5348C13.859 18.6268 13.9259 18.7086 14.0017 18.7802C14.1086 18.8825 14.2333 18.9592 14.3626 19.0154C14.4918 19.0717 14.6256 19.1023 14.7638 19.1126C14.9821 19.1279 15.2049 19.0819 15.3966 18.9694C15.4991 18.9132 15.5883 18.8365 15.6729 18.7393C15.6997 18.7035 15.7264 18.6729 15.7531 18.632C15.7665 18.6166 15.7754 18.5962 15.7843 18.5808C15.8111 18.5348 15.8378 18.4888 15.8601 18.4377C15.9314 18.2843 15.9848 18.1156 16.0294 17.9315C16.1141 17.5685 16.1587 17.1748 16.1943 16.8374C16.1186 16.868 16.0383 16.8936 15.9537 16.914C15.7932 16.955 15.6283 16.9805 15.4678 17.0061C15.3252 17.0265 15.1782 17.0419 15.0311 17.0521C14.8172 17.0623 14.6033 17.0572 14.3893 17.0316C14.3849 17.0316 14.376 17.0316 14.3715 17.0316C14.3403 17.0265 14.3091 17.0214 14.2779 17.0163C14.2423 17.0112 14.2022 17.0061 14.1665 16.9958C14.1041 16.9856 14.0462 16.9703 13.9838 16.9549C13.8145 16.9089 13.6495 16.8527 13.4846 16.776C13.4623 16.7658 13.4401 16.7555 13.4178 16.7402C13.4401 16.9447 13.4534 17.1441 13.4757 17.3486ZM7.21403 19.0563C7.40567 18.9796 7.584 18.8518 7.72215 18.678C7.75781 18.632 7.78899 18.5859 7.81573 18.5399C7.84247 18.4939 7.86917 18.4479 7.89146 18.3968C7.95385 18.2587 7.99845 18.1156 8.0341 17.9622C8.04301 17.9162 8.05195 17.8701 8.06087 17.819C8.11435 17.5174 8.1277 17.2055 8.14998 16.9038C8.15444 16.8527 8.15891 16.7965 8.16336 16.7453C8.15891 16.7453 8.15444 16.7504 8.14998 16.7504C8.11433 16.7709 8.07422 16.7913 8.03856 16.8067C7.98954 16.8322 7.94048 16.8527 7.89146 16.8731C7.82906 16.8987 7.77117 16.9192 7.70877 16.9396C7.55279 16.9907 7.39678 17.0265 7.23634 17.0521C7.23188 17.0521 7.22295 17.0521 7.21849 17.0572C7.14718 17.0674 7.08035 17.0777 7.00904 17.0828C6.9823 17.0879 6.95113 17.0879 6.92439 17.0879C6.88428 17.093 6.84416 17.093 6.80405 17.093C6.72383 17.0981 6.64359 17.0981 6.56337 17.093C6.4163 17.0879 6.26924 17.0777 6.12662 17.0572C5.96618 17.0368 5.80136 17.0163 5.64091 16.9754C5.56069 16.955 5.476 16.9345 5.40024 16.9038C5.44035 17.2413 5.49379 17.6298 5.58738 17.9929C5.65423 18.2536 5.74778 18.4939 5.87702 18.6831C5.88594 18.6984 5.89488 18.7086 5.90825 18.724C5.94836 18.7751 5.99295 18.8262 6.03751 18.8671C6.10436 18.9285 6.17566 18.9796 6.25142 19.0205C6.44306 19.1228 6.6615 19.1586 6.87097 19.1381C6.98684 19.1279 7.10261 19.1023 7.21403 19.0563ZM6.82635 12.2869L6.83974 9.89413L2.27163 9.73563L2.38305 18.6371L5.67649 18.7189C5.56508 18.5246 5.48494 18.2894 5.427 18.044C5.33341 17.6401 5.29324 17.2004 5.25759 16.8374C5.25313 16.8169 5.26206 16.7964 5.27543 16.7811C5.27989 16.7658 5.28883 16.7555 5.29774 16.7504C5.26209 16.7044 5.2308 16.6482 5.20852 16.597C5.16395 16.4795 5.16845 16.3619 5.25313 16.2698C5.27096 16.2494 5.2932 16.234 5.31994 16.2187C5.35113 16.2034 5.38689 16.188 5.42254 16.1778C5.41363 16.1727 5.40469 16.1625 5.39577 16.1573C5.37349 16.1369 5.35115 16.1164 5.33332 16.096C5.26201 16.0193 5.1729 15.917 5.13279 15.7994C5.10159 15.7074 5.09715 15.6052 5.14171 15.5131C5.17737 15.4313 5.24417 15.3802 5.31994 15.3495C5.40016 15.3188 5.49377 15.3137 5.56954 15.3137L5.56508 15.3086C5.51605 15.2319 5.46702 15.1399 5.4492 15.0428C5.43583 14.9661 5.44478 14.8843 5.48489 14.8076C5.51608 14.7513 5.56513 14.7104 5.61861 14.6797C5.681 14.6491 5.75674 14.6337 5.81914 14.6286L5.79683 14.5724C5.76564 14.4855 5.73002 14.373 5.7211 14.2605C5.71219 14.1736 5.7256 14.0867 5.76125 14.01C5.78354 13.9639 5.82364 13.923 5.86375 13.8924C5.91723 13.8566 5.98404 13.8361 6.04197 13.831C6.01523 13.7032 6.00631 13.5651 6.03305 13.4424C6.05979 13.3044 6.12664 13.1868 6.25589 13.105C6.28263 13.0896 6.31381 13.0794 6.35392 13.0794C6.37175 13.0794 6.39409 13.0794 6.41637 13.0845C6.41637 13.0334 6.42084 12.9618 6.42084 12.9465C6.42975 12.8084 6.44755 12.6397 6.50995 12.5119C6.55897 12.4045 6.63475 12.3227 6.75063 12.292C6.77737 12.2869 6.80407 12.2869 6.82635 12.2869ZM8.14998 15.6103C8.16781 15.6154 8.18122 15.6205 8.19905 15.6256C8.22579 15.6358 8.24804 15.6461 8.27032 15.6665C8.42185 15.7892 8.45755 15.9477 8.43081 16.1164C8.40852 16.2596 8.33716 16.413 8.2614 16.5408C8.26585 16.5459 8.27478 16.5459 8.27924 16.551C8.30152 16.5664 8.31493 16.597 8.31493 16.6277C8.27928 17.0214 8.28364 17.4458 8.22125 17.8497C8.20342 17.9622 8.18118 18.0747 8.14998 18.182V18.7342L12.99 18.6677L13.0568 9.97083L8.16336 9.94015L8.1589 14.9252C8.19456 14.9916 8.21243 15.0581 8.21243 15.1194C8.21689 15.2064 8.19456 15.2984 8.1589 15.3853L8.14998 15.6103ZM14.3849 12.834C14.3849 12.8187 14.3893 12.8033 14.3893 12.7982C14.3983 12.7266 14.3983 12.6295 14.4161 12.5375C14.4339 12.4608 14.4607 12.3892 14.5008 12.3381C14.5542 12.2767 14.6256 12.2409 14.7325 12.2665C14.8484 12.292 14.9242 12.3739 14.9777 12.4761C15.0401 12.6039 15.0623 12.7727 15.0757 12.9107C15.0757 12.926 15.0802 12.9976 15.0846 13.0487C15.1069 13.0436 15.1291 13.0436 15.147 13.0436C15.1826 13.0436 15.2183 13.0487 15.245 13.0641C15.3742 13.1408 15.4411 13.2584 15.4723 13.3913C15.499 13.514 15.4946 13.6521 15.4723 13.7799C15.5302 13.785 15.5971 13.8003 15.6506 13.8361C15.6952 13.8668 15.7308 13.9026 15.7576 13.9486C15.7977 14.0202 15.8065 14.1071 15.8021 14.1991C15.7932 14.3065 15.762 14.419 15.7308 14.511L15.7085 14.5673C15.7709 14.5724 15.8466 14.5826 15.909 14.6133C15.967 14.6388 16.016 14.6797 16.0472 14.736C16.0873 14.8076 16.1007 14.8894 16.0874 14.9661C16.074 15.0632 16.025 15.1603 15.976 15.237L15.9715 15.2422C16.0473 15.2422 16.1409 15.2422 16.2211 15.2728C16.2969 15.2984 16.3637 15.3495 16.3993 15.4313C16.4439 15.5285 16.4439 15.6256 16.4127 15.7176C16.3726 15.8352 16.2924 15.9426 16.2211 16.0193C16.1988 16.0398 16.1809 16.0602 16.1586 16.0807C16.1497 16.0858 16.1408 16.096 16.1319 16.1011C16.1675 16.1113 16.2033 16.1216 16.2345 16.142C16.2568 16.1573 16.279 16.1727 16.3013 16.188C16.386 16.2749 16.3904 16.3976 16.3503 16.5152C16.3324 16.5715 16.3013 16.6226 16.2656 16.6737C16.2745 16.6789 16.2834 16.6942 16.2879 16.7044C16.3013 16.7198 16.3057 16.7402 16.3057 16.7607C16.279 17.1237 16.2478 17.5685 16.1631 17.9724C16.1274 18.1309 16.0873 18.2843 16.0338 18.4223L18.6989 18.2945L18.7837 9.68962H14.367L14.3849 12.834ZM8.66692 13.8208C8.67137 13.7645 8.71604 13.7185 8.76506 13.7236C8.81408 13.7288 8.85417 13.7799 8.84971 13.8361C8.84971 13.9639 8.85864 14.0918 8.86309 14.2196C8.86755 14.3065 8.87202 14.3883 8.87202 14.4752C8.87202 14.5315 8.86755 14.5877 8.86755 14.6491C8.8631 14.736 8.85417 14.8229 8.84971 14.9098C8.84971 14.9609 8.81854 15.007 8.76952 15.007C8.72495 15.0121 8.68476 14.9712 8.68476 14.92C8.66693 14.8127 8.64917 14.7053 8.6358 14.5979C8.62688 14.5264 8.62688 14.4497 8.62688 14.3781C8.62688 14.3065 8.63134 14.2298 8.6358 14.1582C8.64025 14.0406 8.65355 13.9282 8.66692 13.8208ZM5.73895 0.522316C5.75678 0.573444 5.77454 0.634803 5.78345 0.711495C5.82356 0.967137 5.83698 1.36594 5.83698 1.83121C5.82807 2.99182 5.71215 4.53077 5.68095 4.9398C6.50099 4.95002 12.2234 5.02161 14.5454 4.94492C14.9153 4.93469 15.196 4.91935 15.3564 4.8989C15.352 4.87845 15.3476 4.858 15.3431 4.83754C15.3119 4.66882 15.2941 4.40296 15.2851 4.07574C15.254 2.91001 15.3386 0.987586 15.3609 0.501868C15.2049 0.496755 14.8974 0.486528 14.4918 0.476302C12.5532 0.430286 8.28365 0.368933 6.45195 0.460964C6.12216 0.47119 5.87265 0.491639 5.73895 0.522316ZM12.3526 2.80264C12.1521 2.79241 11.956 2.77707 11.7555 2.76685C11.7065 2.76685 11.6619 2.72084 11.6664 2.65948C11.6664 2.60324 11.7065 2.55723 11.7599 2.55723C11.9828 2.55211 12.2012 2.547 12.424 2.547C12.4507 2.547 12.473 2.547 12.4997 2.547C12.5844 2.40384 12.6602 2.25557 12.7538 2.12263C12.8697 1.9488 13.0167 1.76474 13.2084 1.7085C13.4178 1.64714 13.5293 1.85677 13.4401 2.06128C13.3777 2.19933 13.2618 2.30158 13.1459 2.37827C13.0434 2.44985 12.9365 2.50098 12.825 2.547C12.8384 2.547 12.8518 2.547 12.8607 2.547C13.0078 2.55211 13.1549 2.55211 13.3019 2.56234C13.4401 2.56745 13.5782 2.57767 13.7164 2.58278C13.8278 2.51632 13.9437 2.45497 14.0596 2.40384C14.2245 2.33226 14.4562 2.26068 14.6211 2.37316C14.8796 2.547 14.7949 2.88444 14.5186 2.96114C14.2779 3.0276 14.0417 2.90489 13.8189 2.79241C13.6896 2.80775 13.5604 2.81798 13.4312 2.82309C13.3109 2.8282 13.195 2.83332 13.0746 2.83332C13.0301 2.83332 12.99 2.83332 12.9454 2.83332C13.0835 2.89467 13.2128 2.98159 13.3064 3.09919C13.3911 3.21167 13.4757 3.44175 13.3554 3.56445C13.2618 3.6616 13.0881 3.54912 13.0034 3.49288C12.8474 3.39062 12.7136 3.23723 12.5888 3.09407C12.5131 2.99692 12.4284 2.91001 12.3526 2.80264ZM8.68922 2.78219C8.61346 2.88445 8.52876 2.97648 8.44408 3.07362C8.31929 3.21678 8.18562 3.37016 8.02964 3.47242C7.94496 3.52866 7.77113 3.64114 7.67754 3.544C7.56167 3.42129 7.6464 3.19121 7.72662 3.07873C7.82021 2.95602 7.94948 2.87422 8.08763 2.81287C8.04307 2.81287 8.00294 2.81287 7.95837 2.81287C7.83804 2.81287 7.72215 2.80775 7.60182 2.80264C7.47257 2.79753 7.34327 2.78219 7.21403 2.76685C6.9912 2.87422 6.75953 3.00204 6.51441 2.93557C6.23809 2.85888 6.15788 2.51632 6.41191 2.3476C6.57681 2.24023 6.80856 2.31181 6.969 2.37827C7.08933 2.4294 7.20076 2.49076 7.31217 2.55723C7.45033 2.55211 7.58846 2.54188 7.72662 2.53677C7.87369 2.53166 8.02075 2.52655 8.16782 2.52143C8.18119 2.52143 8.1946 2.52143 8.20351 2.52143C8.09209 2.47542 7.98504 2.42429 7.88253 2.35271C7.76666 2.27602 7.65083 2.17376 7.58843 2.03572C7.4993 1.8312 7.61072 1.62158 7.82019 1.68293C8.01183 1.73917 8.15891 1.92323 8.27478 2.09707C8.36837 2.23511 8.44862 2.37827 8.52884 2.52143C8.55558 2.52143 8.57783 2.52143 8.60457 2.52143C8.82741 2.52143 9.04578 2.52655 9.26861 2.53166C9.31764 2.53166 9.36219 2.57767 9.36219 2.63392C9.36219 2.69016 9.3221 2.73618 9.27308 2.74129C9.08589 2.75663 8.88977 2.77197 8.68922 2.78219ZM10.561 3.66671C10.1777 3.24234 9.86583 2.73106 9.84801 2.08173C9.84355 1.81075 9.95497 1.40173 10.1867 1.3915C10.4764 1.37616 10.5967 2.02038 10.6012 2.01527C10.6234 1.99482 10.6546 1.3915 10.9042 1.36594C11.1983 1.33526 11.3276 1.84654 11.2607 2.15331C11.0691 3.08384 10.5788 3.68716 10.561 3.66671ZM7.82019 9.33172C7.8291 9.34195 7.8425 9.35217 7.85142 9.36751C7.85587 9.37262 7.87373 9.39307 7.87818 9.43909C7.87818 9.43909 7.87818 9.4442 7.87818 9.44932C7.87818 9.41353 7.86921 9.3624 7.82019 9.33172ZM14.8172 16.4488C14.835 16.4846 14.8261 16.5357 14.7949 16.5561C14.7637 16.5766 14.7191 16.5664 14.7013 16.5306C14.6746 16.4846 14.6523 16.4385 14.63 16.3874C14.6077 16.3363 14.5899 16.2852 14.5765 16.2289C14.5676 16.1931 14.5588 16.1573 14.5543 16.1267C14.5498 16.0909 14.5454 16.0551 14.5454 16.0193C14.5409 15.917 14.5542 15.8352 14.581 15.779C14.6032 15.7279 14.6345 15.6921 14.6657 15.6716C14.7147 15.641 14.7771 15.6307 14.8439 15.6665C14.8885 15.687 14.9376 15.733 14.991 15.7994C15.0356 15.8659 15.0668 15.9324 15.0846 16.004C15.1114 16.1062 15.1114 16.2136 15.1069 16.321C15.1069 16.3619 15.0801 16.3925 15.0445 16.3925C15.0088 16.3925 14.9821 16.3619 14.9821 16.321C14.9777 16.2443 14.9643 16.1676 14.9464 16.1011C14.9286 16.0397 14.9019 15.9784 14.8573 15.9273C14.8306 15.8966 14.8083 15.8761 14.7861 15.8608C14.7816 15.8557 14.7727 15.8557 14.7682 15.8506C14.7638 15.8506 14.7637 15.8455 14.7593 15.8455C14.7459 15.8506 14.7414 15.871 14.737 15.8915C14.7281 15.9222 14.7236 15.9579 14.7236 15.9988C14.7236 16.0295 14.7236 16.0551 14.7281 16.0858C14.7325 16.1164 14.7325 16.1471 14.7414 16.1727C14.7504 16.2187 14.7593 16.2596 14.7727 16.3056C14.7816 16.3619 14.7993 16.4028 14.8172 16.4488ZM13.9794 16.4539C13.9571 16.459 13.9347 16.4539 13.9169 16.4386C13.8813 16.4079 13.8456 16.3772 13.81 16.3414C13.7877 16.3158 13.7654 16.2903 13.7431 16.2647C13.6986 16.2034 13.6674 16.1164 13.654 16.0295C13.6451 15.9579 13.6496 15.8915 13.6719 15.8352C13.712 15.7381 13.8011 15.6665 13.966 15.733C13.9704 15.733 13.9704 15.7381 13.9749 15.7381C14.0373 15.7688 14.0952 15.8199 14.1353 15.8813C14.1442 15.8966 14.1576 15.9119 14.1665 15.9273C14.2111 16.004 14.2423 16.096 14.2556 16.1727C14.2645 16.2085 14.2512 16.2494 14.2156 16.2596C14.1978 16.2647 14.1799 16.2647 14.1621 16.2545C14.1487 16.2443 14.1397 16.234 14.1353 16.2187C14.113 16.1573 14.0774 16.0909 14.0328 16.0346C14.015 16.0091 13.9927 15.9886 13.9749 15.9682C13.9526 15.9477 13.9303 15.9375 13.9035 15.9273C13.8857 15.9222 13.8724 15.917 13.859 15.917C13.8501 15.917 13.8456 15.9119 13.8412 15.917C13.8367 15.9222 13.8323 15.9324 13.8323 15.9426C13.8233 16.004 13.8412 16.0909 13.8724 16.142C13.8902 16.1727 13.9125 16.2034 13.9348 16.2289C13.9481 16.2443 13.9615 16.2647 13.9794 16.2801C13.9883 16.2903 13.9972 16.3005 14.0061 16.3107C14.0373 16.3363 14.0372 16.3874 14.0149 16.4232C14.006 16.4386 13.9927 16.4488 13.9794 16.4539ZM15.566 16.0449C15.5571 16.0193 15.5392 16.0858 15.5258 16.1318C15.5214 16.1522 15.5169 16.1676 15.5124 16.188C15.508 16.2085 15.508 16.2289 15.5035 16.2545C15.4991 16.2903 15.4991 16.3261 15.4991 16.3619C15.4991 16.4028 15.5035 16.4386 15.5035 16.4795C15.508 16.5204 15.4813 16.5613 15.4456 16.5664C15.41 16.5715 15.3743 16.5408 15.3698 16.4999C15.3609 16.4488 15.352 16.4028 15.3475 16.3516C15.343 16.3158 15.3431 16.2801 15.3431 16.2443C15.3431 16.2085 15.343 16.1778 15.3475 16.1471C15.352 16.1216 15.3564 16.1011 15.3609 16.0755C15.4054 15.8915 15.4901 15.8352 15.5703 15.8352C15.6104 15.8352 15.6506 15.8506 15.6951 15.8864C15.7263 15.9119 15.762 15.9528 15.7976 16.004C15.8422 16.0704 15.869 16.1369 15.8868 16.2085C15.9091 16.3107 15.9135 16.413 15.9046 16.5255C15.9046 16.5664 15.8779 16.597 15.8422 16.597C15.8066 16.597 15.7799 16.5664 15.7799 16.5306C15.771 16.4539 15.762 16.3823 15.7397 16.3107C15.7219 16.2494 15.6952 16.1931 15.6506 16.142C15.6283 16.1113 15.6015 16.0807 15.5793 16.0653C15.5793 16.0551 15.5704 16.05 15.566 16.0449ZM15.566 16.0449C15.5615 16.0449 15.5571 16.0449 15.5615 16.0449C15.5615 16.0397 15.5615 16.0397 15.566 16.0449ZM14.1665 15.4518C14.1398 15.4058 14.1086 15.3546 14.0863 15.2984C14.0551 15.2319 14.0328 15.1603 14.0194 15.099C13.9971 14.9712 14.0328 14.8689 14.1264 14.8127C14.1353 14.8076 14.1487 14.8024 14.1665 14.8024C14.1799 14.8024 14.1888 14.8024 14.2022 14.8076C14.2245 14.8127 14.2557 14.8382 14.2824 14.8587C14.3002 14.874 14.3136 14.8843 14.3181 14.8894C14.3404 14.9149 14.3626 14.9405 14.3849 14.9661C14.4116 15.0018 14.4383 15.0376 14.4562 15.0785C14.4918 15.145 14.5231 15.2217 14.5454 15.2933C14.5587 15.3291 14.5453 15.37 14.5141 15.3853C14.483 15.4006 14.4473 15.3853 14.434 15.3495C14.4206 15.3188 14.4027 15.2933 14.3849 15.2677C14.3671 15.237 14.3493 15.2115 14.327 15.1859C14.3092 15.1655 14.2958 15.145 14.2779 15.1246C14.2556 15.099 14.2289 15.0734 14.2022 15.053C14.2022 15.053 14.1933 15.0427 14.1888 15.0376V15.0428C14.1888 15.0837 14.1978 15.1297 14.2111 15.1757C14.229 15.237 14.2512 15.2933 14.2735 15.3444C14.2958 15.3955 14.3181 15.4364 14.3315 15.4569C14.3537 15.4927 14.3493 15.5387 14.3181 15.5643C14.3047 15.5745 14.2868 15.5796 14.2735 15.5796C14.2556 15.5796 14.2334 15.5694 14.22 15.5489C14.2156 15.5336 14.1933 15.4978 14.1665 15.4518ZM14.1665 15.0223C14.171 15.0223 14.1754 15.0223 14.1754 15.0172C14.171 15.0121 14.1665 15.0121 14.1665 15.007V15.0223ZM14.3893 13.877C14.376 13.8054 14.376 13.7339 14.3804 13.6623C14.3804 13.647 14.3849 13.6265 14.3893 13.6112C14.4027 13.5396 14.4294 13.4782 14.4606 13.4322C14.5364 13.3351 14.6612 13.2942 14.8306 13.4578C14.884 13.514 14.9286 13.5856 14.9554 13.6623C14.991 13.7645 15.0043 13.8821 15.0132 13.9895C15.0177 14.0304 14.9955 14.0662 14.9643 14.0713C14.9286 14.0764 14.8975 14.0509 14.893 14.0151C14.8752 13.923 14.8484 13.8259 14.8083 13.739C14.786 13.6878 14.7548 13.6469 14.7147 13.6112C14.6924 13.5907 14.6702 13.5754 14.6479 13.5651C14.6345 13.56 14.6211 13.5549 14.6122 13.56C14.5944 13.5651 14.5854 13.5856 14.5765 13.606C14.5408 13.693 14.5408 13.8259 14.5676 13.9179C14.5809 13.9691 14.6033 14.0202 14.6211 14.0662C14.6434 14.1173 14.6701 14.1633 14.6968 14.2094C14.7191 14.2451 14.7102 14.2912 14.679 14.3167C14.6478 14.3423 14.6032 14.3321 14.581 14.3014C14.5498 14.2554 14.5141 14.2042 14.4874 14.1531C14.4562 14.102 14.4339 14.0457 14.4117 13.9844C14.4027 13.9537 14.3938 13.9179 14.3893 13.877ZM14.9464 14.9916C14.9553 15.0325 14.9287 15.0734 14.893 15.0837C14.8574 15.0939 14.8172 15.0632 14.8127 15.0223C14.786 14.8996 14.7682 14.7615 14.7816 14.6235C14.7905 14.5264 14.8128 14.4292 14.8573 14.3474C14.9197 14.2298 15.0089 14.2094 15.098 14.2349C15.1649 14.2554 15.2361 14.3167 15.2941 14.3934C15.352 14.4701 15.3921 14.557 15.4055 14.6184C15.4233 14.7053 15.4278 14.7973 15.4099 14.8894C15.3921 15.007 15.352 15.1246 15.3253 15.237C15.3164 15.2728 15.2851 15.2984 15.2495 15.2882C15.2183 15.2779 15.196 15.2422 15.205 15.2012C15.2228 15.0939 15.245 14.9814 15.2495 14.8638C15.2539 14.7973 15.2496 14.736 15.2317 14.6746C15.2184 14.6184 15.1604 14.5315 15.1025 14.4752C15.0713 14.4446 15.0312 14.4036 15.0044 14.4497C14.9599 14.5212 14.942 14.6082 14.9331 14.6951C14.9241 14.8024 14.9331 14.9047 14.9464 14.9916ZM7.0135 15.3955C7.00013 15.3751 6.99567 15.3495 7.00458 15.324C7.00904 15.3137 7.0135 15.2984 7.0135 15.2882C7.03133 15.2268 7.05814 15.1655 7.08488 15.1092C7.12053 15.0376 7.16501 14.9712 7.21849 14.9149C7.22295 14.9098 7.23635 14.8996 7.25418 14.8843C7.28092 14.8638 7.31655 14.8331 7.33883 14.828C7.37003 14.8178 7.39685 14.8229 7.41913 14.8331C7.51272 14.8843 7.54837 14.9865 7.53055 15.1143C7.52163 15.1808 7.49929 15.2524 7.46809 15.3188C7.41907 15.4364 7.35219 15.5387 7.32545 15.5745C7.30762 15.6052 7.27645 15.6154 7.24526 15.6C7.2408 15.5949 7.23187 15.5949 7.22741 15.5898C7.19622 15.5643 7.19175 15.5131 7.21403 15.4825C7.22294 15.4671 7.23635 15.4467 7.24972 15.416C7.27646 15.3597 7.30763 15.2779 7.32991 15.2012C7.34328 15.1552 7.35221 15.1092 7.35221 15.0683V15.0632C7.34776 15.0683 7.34329 15.0785 7.33883 15.0785C7.30763 15.1041 7.28092 15.1348 7.25418 15.1655C7.24081 15.1808 7.23186 15.1961 7.21849 15.2115C7.17838 15.2677 7.14719 15.324 7.116 15.3802C7.10263 15.416 7.067 15.4313 7.03581 15.416C7.02689 15.4058 7.01796 15.4007 7.0135 15.3955ZM7.37006 15.0325C7.38789 15.0376 7.40574 15.0376 7.39682 15.0223C7.39237 15.0121 7.37897 15.0172 7.37006 15.0325ZM6.81743 13.6265C6.81298 13.6316 6.8085 13.6367 6.79959 13.6418C6.75948 13.6776 6.73276 13.7236 6.71048 13.7697C6.67037 13.8566 6.65257 13.9537 6.63475 14.0458C6.63029 14.0867 6.59902 14.1122 6.56337 14.1071C6.52772 14.102 6.50549 14.0662 6.50995 14.0253C6.51886 13.9179 6.52772 13.8003 6.56337 13.6981C6.59011 13.6214 6.63023 13.5498 6.68371 13.4884C6.73273 13.4373 6.77733 13.4066 6.82189 13.3862C6.862 13.3709 6.90212 13.3657 6.93777 13.3709C6.96897 13.376 7.00014 13.3913 7.02688 13.4169C7.04025 13.4271 7.0492 13.4373 7.05811 13.4527C7.10268 13.5038 7.12939 13.5856 7.14276 13.6776C7.15613 13.785 7.14719 13.9128 7.11154 14.0048C7.08925 14.0611 7.06701 14.1173 7.04027 14.1736C7.03581 14.1838 7.02688 14.194 7.02242 14.2042C7.00014 14.2452 6.97344 14.286 6.95116 14.327C6.9467 14.3321 6.94223 14.3372 6.93777 14.3423C6.91549 14.3627 6.87987 14.3627 6.85758 14.3474C6.82639 14.3218 6.81745 14.2758 6.83974 14.24C6.86648 14.194 6.88872 14.1429 6.91101 14.0969C6.91992 14.0713 6.93332 14.0457 6.94223 14.0202C6.95115 13.9946 6.96008 13.9742 6.96454 13.9486C6.99128 13.8566 6.98235 13.7236 6.94669 13.6367C6.94669 13.6316 6.94223 13.6265 6.94223 13.6265C6.93332 13.6112 6.92438 13.5958 6.91101 13.5907C6.90209 13.5856 6.8888 13.5907 6.87543 13.6009C6.85314 13.606 6.83526 13.6163 6.81743 13.6265ZM6.00182 16.0909C6.00628 16.0858 6.00628 16.0858 6.00628 16.0909C6.00628 16.096 6.00182 16.096 6.00182 16.0909ZM6.00182 16.0909C5.99737 16.096 5.993 16.1011 5.98409 16.1062C5.9618 16.1267 5.93946 16.1522 5.91717 16.1829C5.87706 16.234 5.85035 16.2954 5.83252 16.3567C5.81469 16.4283 5.80129 16.4999 5.79683 16.5766C5.79683 16.6175 5.77014 16.6482 5.73449 16.6482C5.69883 16.6482 5.67203 16.6175 5.67203 16.5766C5.66312 16.4692 5.66313 16.3619 5.68542 16.2596C5.69879 16.188 5.72996 16.1164 5.77007 16.05C5.80572 15.9989 5.83701 15.9579 5.86821 15.9324C5.91278 15.8966 5.95279 15.8761 5.9929 15.8761C6.06867 15.871 6.1579 15.9273 6.20692 16.1113C6.21138 16.1318 6.21574 16.1573 6.2202 16.1829C6.22465 16.2136 6.22912 16.2494 6.22912 16.2801C6.22912 16.3158 6.22912 16.3516 6.22466 16.3874C6.2202 16.4385 6.21584 16.4897 6.20692 16.5357C6.20247 16.5766 6.16674 16.6073 6.13108 16.6022C6.09543 16.5971 6.06428 16.5561 6.06874 16.5152C6.06874 16.4743 6.0732 16.4386 6.0732 16.3976C6.0732 16.3619 6.0732 16.3261 6.06874 16.2903C6.06428 16.2698 6.06427 16.2494 6.05982 16.2238C6.05536 16.2034 6.05089 16.1829 6.04643 16.1676C6.02861 16.1318 6.00628 16.0704 6.00182 16.0909C5.99737 16.0909 5.99737 16.0909 6.00182 16.0909ZM6.80405 15.8813C6.80405 15.8813 6.79958 15.8813 6.79513 15.8864C6.79067 15.8864 6.7862 15.8915 6.77728 15.8966C6.755 15.9119 6.73276 15.9324 6.70602 15.9631C6.66591 16.0142 6.63919 16.0755 6.62136 16.1369C6.60354 16.2085 6.59459 16.2852 6.59014 16.3619C6.59014 16.4028 6.56345 16.4334 6.52779 16.4334C6.49214 16.4334 6.46534 16.4028 6.46534 16.3619C6.45642 16.2545 6.45644 16.1471 6.48318 16.0398C6.50101 15.9631 6.52773 15.8966 6.57229 15.8301C6.62132 15.7585 6.67037 15.7125 6.71494 15.6921C6.74613 15.6767 6.77731 15.6665 6.80405 15.6665C6.83525 15.6665 6.86642 15.6767 6.89316 15.6921C6.90208 15.6972 6.91548 15.7074 6.92439 15.7176C6.94667 15.7381 6.96456 15.7637 6.98238 15.7994C6.99575 15.825 7.00458 15.8557 7.00904 15.8915C7.01795 15.9324 7.02242 15.9835 7.02242 16.0398C7.02242 16.0755 7.01796 16.1113 7.0135 16.1471C7.0135 16.1574 7.00904 16.1676 7.00904 16.1778C7.00458 16.2034 7.00011 16.2289 6.99566 16.2494C6.98229 16.3056 6.96898 16.3567 6.94669 16.4079C6.93778 16.4283 6.9333 16.4437 6.92439 16.459C6.91102 16.4897 6.89315 16.5204 6.87978 16.551C6.86195 16.5817 6.83525 16.5971 6.80405 16.5868C6.79959 16.5868 6.79066 16.5817 6.78621 16.5766C6.75501 16.5562 6.74172 16.505 6.75955 16.4692C6.77738 16.4283 6.79068 16.3925 6.80405 16.3516C6.80405 16.3465 6.80405 16.3465 6.80851 16.3414C6.82188 16.3005 6.83082 16.2545 6.83974 16.2085C6.84419 16.1778 6.84866 16.1522 6.84866 16.1216C6.84866 16.0909 6.84866 16.0653 6.84866 16.0346C6.84866 15.9937 6.83973 15.9579 6.83082 15.9273C6.82636 15.9068 6.82188 15.8864 6.80405 15.8813ZM7.69985 15.9273C7.68648 15.9273 7.67753 15.9324 7.66416 15.9375C7.61068 15.9579 7.57066 15.9989 7.53501 16.05C7.4949 16.1062 7.45915 16.1727 7.43687 16.2392C7.42795 16.2749 7.39233 16.2954 7.36114 16.2852C7.32994 16.2749 7.31218 16.234 7.3211 16.1982C7.33892 16.1011 7.37893 15.9886 7.43687 15.9017C7.48143 15.8352 7.53943 15.779 7.60628 15.7483C7.64193 15.733 7.67757 15.7228 7.70877 15.7176C7.80682 15.7074 7.86918 15.7637 7.90038 15.8404C7.92266 15.8915 7.9316 15.9631 7.92268 16.0295C7.91823 16.0602 7.90929 16.096 7.90038 16.1267C7.88255 16.1778 7.86031 16.2289 7.83357 16.2647C7.81575 16.2903 7.7934 16.321 7.77112 16.3465C7.75329 16.367 7.73552 16.3874 7.71323 16.4079C7.69986 16.4232 7.68199 16.4386 7.66862 16.4488C7.64188 16.4795 7.59733 16.4743 7.57059 16.4437C7.54385 16.413 7.54831 16.3619 7.57505 16.3312C7.59733 16.3056 7.62414 16.2749 7.64643 16.2494C7.66871 16.2238 7.68648 16.1931 7.70431 16.1625C7.70431 16.1573 7.70877 16.1573 7.70877 16.1522C7.73551 16.096 7.74891 16.0193 7.74 15.9579C7.74 15.9477 7.73553 15.9375 7.73108 15.9324C7.72662 15.9273 7.72215 15.9324 7.71323 15.9324C7.70432 15.9222 7.69985 15.9222 7.69985 15.9273ZM6.73278 15.053C6.72387 15.0939 6.68825 15.1246 6.65259 15.1143C6.61694 15.1041 6.59015 15.0632 6.59906 15.0223C6.61243 14.9303 6.61689 14.8331 6.60352 14.736C6.59461 14.6491 6.57236 14.5621 6.52779 14.4906C6.50105 14.4445 6.46541 14.4803 6.42976 14.5161C6.37182 14.5775 6.31833 14.6593 6.30496 14.7155C6.28713 14.7769 6.28712 14.8433 6.29157 14.9047C6.30049 15.0172 6.32717 15.1348 6.345 15.237C6.35391 15.2728 6.33169 15.3137 6.3005 15.324C6.2693 15.3342 6.23357 15.3086 6.22466 15.2728C6.19346 15.1655 6.15337 15.0479 6.13108 14.9303C6.11771 14.8382 6.11326 14.7462 6.13108 14.6593C6.14445 14.5979 6.18456 14.511 6.23804 14.4343C6.29152 14.3576 6.36291 14.2912 6.42976 14.2707C6.51889 14.24 6.60348 14.2605 6.67033 14.3781C6.71489 14.4599 6.74171 14.5519 6.75063 14.6491C6.77291 14.7922 6.75952 14.9303 6.73278 15.053ZM14.1353 9.17323C14.1397 9.17834 14.1397 9.18345 14.1397 9.18345C14.1397 9.18856 14.1531 9.2039 14.1531 9.23969V9.24481V9.24992C14.162 9.22435 14.1531 9.19879 14.1353 9.17323Z" fill="#133F24"/>
</svg>
