<svg width="24" height="24" viewBox="0 0 24 24" fill="none" xmlns="http://www.w3.org/2000/svg">
<path fill-rule="evenodd" clip-rule="evenodd" d="M17.1699 17.0274C17.2375 17.2062 17.3 17.3902 17.3624 17.5743C17.7368 18.71 18.0436 20.0087 18.2413 21.4915C18.2465 21.502 18.2517 21.5125 18.2569 21.5283C18.2621 21.5756 18.2309 21.623 18.1789 21.6335C17.5652 21.7229 17.0607 22.0384 16.5823 22.3959C16.083 22.764 15.6045 23.1794 15.0636 23.458C14.7828 23.6 14.4863 23.7104 14.1587 23.7577C13.7842 23.8156 13.4306 23.7577 13.0873 23.6473C12.7129 23.5264 12.3488 23.3318 11.9796 23.1531C11.6311 22.9848 11.2775 22.8218 10.8926 22.764C10.6846 22.7272 10.4817 22.7324 10.2841 22.7534C9.86284 22.8008 9.46239 22.9427 9.04633 23.0689C8.61986 23.1951 8.18825 23.3055 7.72538 23.2845C7.45494 23.274 7.15848 23.2319 6.86204 23.1688C6.5656 23.1057 6.27957 23.0163 6.02993 22.9059C5.67108 22.7482 5.36943 22.5747 5.04178 22.438C4.83895 22.3538 4.6205 22.2855 4.37086 22.2539C3.934 22.1961 3.51798 22.296 3.10712 22.4222C2.67026 22.5536 2.23859 22.7114 1.79652 22.7587C1.56769 22.785 1.33368 22.7797 1.09964 22.7324C0.912416 22.6956 0.725164 22.6167 0.553539 22.5168C0.381915 22.4222 0.22588 22.3065 0.0854602 22.1803C0.0750587 22.1698 0.069896 22.1593 0.0594946 22.1488C0.0178886 22.133 -0.00810743 22.0909 0.00229405 22.0489C0.199922 20.6555 0.558758 19.3462 1.02682 18.1421C1.36487 17.2693 1.7549 16.449 2.16576 15.6971C2.63382 14.8453 3.1279 14.0829 3.60117 13.4204C4.98976 11.4749 6.22756 10.3497 6.22756 10.3497L6.23277 10.3444C6.23797 10.3287 6.24313 10.3076 6.25353 10.2971C6.25353 10.2971 7.01806 9.072 7.11687 7.49458C7.17408 6.61649 7.02849 5.62797 6.43561 4.68152C6.3992 4.65523 6.38357 4.60265 6.40437 4.55532C6.40437 4.55532 6.62803 4.07684 7.01809 3.80868C7.1013 3.75084 7.19486 3.70352 7.29368 3.67197C7.26767 3.53001 7.21052 3.22504 7.15331 2.87275C7.12211 2.68346 7.09088 2.4784 7.06488 2.28385C7.04927 2.14714 7.03369 2.01043 7.02329 1.8895C6.99209 1.54772 6.97123 1.29533 6.97123 1.29533C6.96603 1.24801 6.99725 1.20069 7.04926 1.19017C7.10127 1.18492 7.14291 1.21646 7.15331 1.26904C7.15331 1.26904 7.2053 1.51617 7.26771 1.85268C7.28852 1.97362 7.31452 2.10507 7.33532 2.24178C7.36653 2.43633 7.39255 2.64139 7.41335 2.83068C7.45495 3.17246 7.48612 3.47743 7.50172 3.62465C7.55893 3.6194 7.61618 3.6194 7.67339 3.62465C7.94902 3.65094 8.21941 3.84549 8.45864 4.09262C8.72908 4.38181 8.95275 4.73936 9.08277 4.9602C9.22839 4.74987 9.48323 4.4081 9.80047 4.13469C10.0397 3.92436 10.3154 3.7561 10.5962 3.68775C10.669 3.67197 10.7366 3.66146 10.8042 3.6562C10.8042 3.51423 10.8094 3.24607 10.8198 2.93584C10.825 2.76233 10.8302 2.57304 10.8406 2.38901C10.8458 2.26282 10.8562 2.14188 10.8666 2.0262C10.8874 1.81588 10.9082 1.62134 10.9186 1.47937C10.929 1.36895 10.9394 1.29007 10.9446 1.25327C10.9446 1.24275 10.9446 1.2375 10.9446 1.23224C10.9446 1.21646 10.9446 1.20595 10.955 1.19017C10.9758 1.13759 11.0227 1.13759 11.0435 1.13759C11.0591 1.13759 11.111 1.14285 11.1266 1.20595C11.1266 1.2112 11.1266 1.21646 11.1266 1.22698C11.1266 1.23223 11.1266 1.24275 11.1266 1.25327C11.1266 1.29007 11.1266 1.3742 11.1266 1.48462C11.1266 1.62659 11.1267 1.82114 11.1215 2.03146C11.1215 2.14714 11.1163 2.27333 11.1059 2.39953C11.0955 2.58356 11.0798 2.77285 11.0642 2.94636C11.0382 3.25659 11.0174 3.51949 11.0018 3.66146C11.1526 3.68775 11.2774 3.74559 11.3867 3.8192C11.7195 4.06107 11.8443 4.4712 11.8443 4.4712C11.8547 4.49749 11.8495 4.52378 11.8391 4.54481C11.8391 4.56059 11.834 4.5711 11.8288 4.58687C11.8288 4.58687 10.981 6.301 11.033 8.05193C11.0538 8.76703 11.2307 9.48212 11.6883 10.0868C11.8496 9.58728 12.2136 8.57774 12.3228 8.18338C12.5308 7.442 12.7493 6.71638 12.9781 6.00129C13.2121 5.28093 13.4566 4.56584 13.7166 3.84549C13.8831 3.38278 14.0651 2.92533 14.2939 2.48891C14.4447 2.19446 14.6112 1.91578 14.8036 1.64762C14.814 1.63711 14.8244 1.62659 14.84 1.62659C14.9024 1.53195 14.9804 1.44782 15.0636 1.37421C15.0844 1.35318 15.1052 1.3374 15.126 1.32162C15.1156 1.30585 15.1052 1.29008 15.1 1.27956C15.0792 1.23749 15.0948 1.20594 15.1 1.19543C15.1312 1.15862 15.4276 0.911494 15.7501 0.801075C15.8905 0.753752 16.0414 0.732719 16.1714 0.759009C16.1506 0.706429 16.1453 0.659112 16.1453 0.617047C16.1401 0.485596 16.2026 0.39621 16.2754 0.338371C16.3586 0.270017 16.447 0.248977 16.447 0.248977C16.4574 0.243719 16.473 0.243719 16.4834 0.248977L17.7628 0.790564L19.1046 0.222694C19.115 0.217435 19.1306 0.217435 19.141 0.222694C19.141 0.222694 19.2294 0.248983 19.3126 0.312079C19.3855 0.369918 19.4479 0.459304 19.4427 0.590756C19.4427 0.638078 19.4322 0.695913 19.4062 0.759009C19.5414 0.727461 19.6923 0.748497 19.8327 0.795819C20.1552 0.906238 20.4516 1.15337 20.4828 1.19017C20.488 1.20069 20.5036 1.23224 20.4828 1.2743C20.4776 1.28482 20.4672 1.3006 20.4568 1.31637C20.4776 1.33214 20.4984 1.35317 20.5192 1.36895C20.6076 1.44256 20.6804 1.52668 20.7428 1.62133C20.7584 1.62133 20.774 1.63185 20.7792 1.64237C20.9717 1.91053 21.1433 2.19446 21.2941 2.48365C21.5177 2.92007 21.6997 3.38278 21.8662 3.84023C22.1262 4.56584 22.3707 5.28094 22.6047 5.99603C22.8335 6.71639 23.052 7.43674 23.26 8.17812C23.3744 8.58825 23.7697 9.67667 23.9153 10.1499C23.9465 10.2498 23.9673 10.3234 23.9725 10.3602C23.9829 10.397 23.9725 10.4181 23.9673 10.4286C23.9517 10.4549 23.9204 10.4917 23.8736 10.5232C23.7904 10.5863 23.65 10.6652 23.494 10.7441C23.0415 10.9701 22.3966 11.2068 22.3186 11.2173C22.303 11.2173 22.2718 11.2173 22.2458 11.1805C22.2302 11.1594 22.199 11.1069 22.1678 11.0227C22.069 10.7651 21.8922 10.2025 21.6946 9.52419C21.4345 8.6198 21.1381 7.51561 20.9353 6.68484C21.0133 7.47354 21.0705 8.25699 21.1901 9.03519C21.2785 9.63986 21.4033 10.234 21.6009 10.8177C21.6113 10.8387 21.601 10.8597 21.5854 10.8755C21.5854 10.8808 21.5802 10.8913 21.575 10.8965C21.4189 11.0648 21.2005 11.2068 20.9612 11.3119V11.3172L22.1054 20.1928C22.1054 20.2138 22.1002 20.2348 22.0794 20.2506L20.7948 21.2759C20.7792 21.2864 20.7584 21.2917 20.7376 21.2864L18.959 20.8448C18.933 20.8395 18.9122 20.8132 18.907 20.7869C18.907 20.7869 18.5793 18.5102 18.2569 16.2282C18.0228 14.5772 17.794 12.9314 17.6796 12.1427L17.1543 16.9748C17.1803 17.0117 17.1751 17.0222 17.1699 17.0274ZM11.6571 10.4864C11.6207 10.5074 11.5791 10.5285 11.5323 10.5548C11.4075 10.6231 11.2411 10.7072 11.0539 10.8071C11.2411 10.9544 11.4179 11.1121 11.5739 11.2751C11.6884 11.396 11.7924 11.5222 11.8964 11.6484C11.9952 11.7799 12.0888 11.9166 12.1772 12.0533C12.302 12.2584 12.4164 12.4792 12.5257 12.7C12.5361 12.7211 12.5308 12.7474 12.5048 12.7631C12.484 12.7737 12.4528 12.7684 12.4424 12.7421C12.354 12.5896 12.2656 12.4371 12.172 12.2899C12.1096 12.19 12.0472 12.0954 11.9796 12.0007C11.9483 11.9534 11.912 11.9061 11.8808 11.8588C11.8028 11.7483 11.7196 11.6432 11.6363 11.538C11.4387 11.2961 11.2151 11.0648 10.9602 10.8545C10.9602 10.8545 10.955 10.8545 10.955 10.8492C10.7314 10.9701 10.4766 11.1016 10.2425 11.2278C10.3517 11.3382 10.4505 11.4539 10.5389 11.5748C10.6117 11.6695 10.6794 11.7694 10.7418 11.8693C10.8042 11.9692 10.8614 12.0743 10.9186 12.1848C11.0019 12.3425 11.0694 12.5108 11.137 12.6738C11.1474 12.6948 11.1371 12.7263 11.1163 12.7369C11.0955 12.7474 11.0642 12.7369 11.059 12.7158C11.0018 12.6001 10.9394 12.4897 10.877 12.3793C10.8354 12.3057 10.7938 12.2321 10.7522 12.1585C10.7314 12.1217 10.7106 12.0849 10.6898 12.048C10.6378 11.9639 10.591 11.8798 10.5338 11.7957C10.4194 11.6169 10.2894 11.4381 10.1437 11.2804C9.93571 11.3908 9.74325 11.496 9.58722 11.5801C9.66003 11.6747 9.73286 11.7799 9.79527 11.8798C9.84207 11.9587 9.88888 12.0375 9.92528 12.1217C9.96689 12.2058 9.99807 12.2899 10.0293 12.3741C10.0761 12.5002 10.1073 12.6317 10.1385 12.7684C10.1437 12.7947 10.1281 12.8157 10.1073 12.8262C10.0813 12.8315 10.0553 12.8157 10.0501 12.7947C10.0189 12.7053 9.98772 12.6159 9.95131 12.5265C9.92531 12.4687 9.9045 12.4109 9.8785 12.353C9.86809 12.3215 9.85246 12.2952 9.84205 12.2689C9.81085 12.2005 9.77968 12.1374 9.74848 12.0691C9.67567 11.9219 9.5924 11.7746 9.49879 11.6379C9.48318 11.6484 9.4676 11.6537 9.452 11.6642C9.35839 11.7168 9.29077 11.7589 9.25437 11.7851C9.24397 11.8009 9.22838 11.8167 9.20237 11.8272C9.18677 11.8325 9.16074 11.8482 9.10873 11.8377C9.10353 11.8377 9.08274 11.8325 9.05674 11.822C9.01513 11.8062 8.92152 11.7641 8.80191 11.701C8.7551 11.68 8.70313 11.6537 8.64592 11.6274C8.57311 11.7483 8.50029 11.8745 8.43788 12.0007C8.38587 12.1006 8.33906 12.2005 8.29745 12.3057C8.25064 12.4056 8.20904 12.5108 8.16743 12.6159C8.10502 12.7684 8.04784 12.9261 8.00103 13.0944C7.99583 13.1207 7.96977 13.1312 7.94377 13.1259C7.91777 13.1207 7.9022 13.0944 7.9126 13.0681C7.949 12.8946 7.99061 12.7316 8.04262 12.5686C8.07902 12.4582 8.12062 12.353 8.16743 12.2479C8.21424 12.1427 8.26627 12.0428 8.32348 11.9376C8.39109 11.8167 8.46386 11.6958 8.54708 11.5801C8.24543 11.4381 7.86056 11.2488 7.49131 11.0701C7.31448 11.2436 7.14807 11.4276 6.98165 11.6116C6.86723 11.7431 6.7528 11.8798 6.64359 12.0165C6.57078 12.1059 6.50322 12.2005 6.43561 12.2952C6.33679 12.4371 6.24316 12.5844 6.15995 12.7421C6.14955 12.7631 6.12355 12.7737 6.09755 12.7631C6.07674 12.7526 6.06632 12.7263 6.07672 12.7C6.14953 12.537 6.23794 12.3793 6.33155 12.2268C6.39396 12.1269 6.46158 12.027 6.53439 11.9324C6.64361 11.7904 6.75805 11.6537 6.88286 11.5222C7.04409 11.3487 7.2157 11.1805 7.39253 11.0227C6.91926 10.7914 6.4928 10.5811 6.35238 10.5127C6.24316 10.6179 5.09379 11.7273 3.80921 13.5729C3.34634 14.2354 2.8627 14.9978 2.40503 15.8391C1.99938 16.5805 1.60929 17.385 1.26604 18.2473C0.803172 19.4093 0.41315 20.6713 0.194719 22.0173C0.20512 22.0226 0.210278 22.0278 0.215479 22.0331C0.350698 22.1435 0.496306 22.2539 0.657529 22.3381C0.813551 22.4222 0.974807 22.4905 1.14643 22.5221C1.35966 22.5642 1.57287 22.5642 1.7757 22.5379C2.16056 22.4905 2.54025 22.3538 2.9199 22.2329C2.99271 22.0646 3.06028 21.8911 3.13309 21.7176C3.18509 21.5862 3.23713 21.4494 3.28913 21.318C3.34114 21.1865 3.39317 21.0498 3.43998 20.9184C3.51799 20.7186 3.59076 20.5135 3.65837 20.3085C3.66357 20.2822 3.68956 20.2716 3.71557 20.2769C3.74157 20.2822 3.752 20.3085 3.7468 20.3347C3.69479 20.5451 3.6324 20.7554 3.56479 20.9605C3.51798 21.0972 3.47116 21.2339 3.41915 21.3706C3.36715 21.5073 3.30996 21.6387 3.25276 21.7702C3.19035 21.9122 3.12794 22.0489 3.06033 22.1908C3.49719 22.0541 3.94444 21.9542 4.40731 22.0068C4.68294 22.0383 4.917 22.112 5.14063 22.2013C5.47347 22.3328 5.78028 22.5116 6.13913 22.6641C6.23794 22.7061 6.34194 22.7429 6.44595 22.7797C6.39915 22.5694 6.3524 22.3591 6.31079 22.1435C6.27959 21.9647 6.24837 21.786 6.22756 21.6072C6.21196 21.4863 6.20153 21.3653 6.19633 21.2444C6.18593 21.0604 6.18072 20.8816 6.18592 20.6975C6.18592 20.6713 6.20677 20.6502 6.23277 20.6502C6.25877 20.6502 6.27956 20.6713 6.27956 20.6975C6.28996 20.9236 6.31076 21.1445 6.34197 21.3653C6.35757 21.5125 6.37836 21.6598 6.39917 21.807C6.41997 21.9542 6.44077 22.1014 6.46678 22.2487C6.49798 22.438 6.52922 22.622 6.56563 22.8113C6.68524 22.8481 6.80483 22.8744 6.92445 22.9007C7.20009 22.9585 7.48616 22.9953 7.741 23.0058C8.17266 23.0216 8.57831 22.9164 8.97357 22.7955C9.12439 22.7482 9.27522 22.7009 9.43124 22.6535C9.48325 22.5116 9.53 22.3696 9.57161 22.2276C9.61321 22.0909 9.64966 21.9595 9.68607 21.8228C9.72248 21.6861 9.75365 21.5493 9.78485 21.4126C9.83166 21.2076 9.87326 21.0025 9.90446 20.7922C9.90966 20.7659 9.93045 20.7501 9.95646 20.7501C9.98246 20.7554 9.9981 20.7764 9.9981 20.8027C9.9825 21.0183 9.95648 21.2286 9.91487 21.4389C9.88887 21.5809 9.85769 21.7176 9.81609 21.8543C9.77968 21.991 9.73288 22.1277 9.69128 22.2644C9.64967 22.3801 9.60806 22.4958 9.56126 22.6115C9.79009 22.5484 10.0241 22.4905 10.2581 22.4642C10.4818 22.438 10.7106 22.438 10.9446 22.4748C11.3503 22.5431 11.7299 22.7114 12.1044 22.8954C12.1512 22.9164 12.198 22.9427 12.2448 22.9638C12.1252 22.7272 12.016 22.4853 11.9223 22.2382C11.8443 22.0331 11.7715 21.8175 11.7143 21.6072C11.6571 21.3916 11.6051 21.176 11.5635 20.9605C11.5011 20.6345 11.4647 20.3032 11.4387 19.9719C11.4335 19.9456 11.4543 19.9246 11.4803 19.9246C11.5063 19.9246 11.5271 19.9404 11.5323 19.9667C11.5687 20.2927 11.6259 20.6187 11.6935 20.9394C11.7404 21.155 11.7871 21.3653 11.8495 21.5756C11.9067 21.786 11.9744 21.9963 12.0472 22.2013C12.146 22.4905 12.2656 22.7745 12.406 23.0479C12.6609 23.1741 12.9157 23.3003 13.181 23.3897C13.4826 23.4896 13.7946 23.5474 14.1327 23.5001C14.7412 23.416 15.2457 23.111 15.7241 22.7587C15.8489 22.6693 15.9789 22.5747 16.1038 22.48C16.1038 22.48 16.1038 22.48 16.1038 22.4748C15.9373 22.2487 15.7761 22.0121 15.6357 21.7702C15.5421 21.6072 15.4484 21.4442 15.3652 21.2707C15.282 21.1024 15.2041 20.9289 15.1416 20.7501C15.0428 20.4872 14.9648 20.2138 14.9024 19.9351C14.8972 19.9088 14.9128 19.8878 14.9336 19.8773C14.9596 19.872 14.9856 19.8878 14.9856 19.9088C15.0584 20.1823 15.152 20.4399 15.256 20.6975C15.3289 20.8711 15.4016 21.0393 15.4848 21.2076C15.5681 21.3758 15.6513 21.5388 15.7449 21.7018C15.8801 21.9437 16.0258 22.1803 16.187 22.4117C16.5302 22.154 16.8787 21.9016 17.2583 21.7176C17.5079 21.5967 17.7732 21.502 18.0645 21.4494C17.8356 20.0087 17.5079 18.7468 17.1283 17.6426C16.8111 16.7277 16.4574 15.918 16.0829 15.2029C15.6201 14.3195 15.1312 13.5887 14.6475 12.9787C13.8622 11.9902 13.0978 11.3382 12.5465 10.9386C12.4009 10.8755 12.25 10.8071 12.1148 10.7441C11.9536 10.6652 11.8183 10.5863 11.7351 10.5232C11.6935 10.5232 11.6727 10.5074 11.6571 10.4864ZM13.2486 11.2278C13.545 11.4697 13.8674 11.7694 14.2055 12.1269C14.2107 12.1059 14.2107 12.0901 14.2159 12.0691C14.2263 12.0112 14.2315 11.9534 14.2471 11.8903C14.2627 11.8009 14.2835 11.7115 14.3043 11.6221C14.3563 11.4066 14.4031 11.2278 14.4031 11.2278V11.2225C14.2523 11.1384 14.1223 11.0332 14.0183 10.9228C14.0131 10.9176 14.0079 10.9123 14.0079 10.9018C13.9922 10.8913 13.9818 10.865 13.9922 10.844C14.1899 10.2603 14.3147 9.6609 14.4031 9.06148C14.5227 8.28329 14.5799 7.49458 14.6579 6.71113C14.4551 7.5419 14.1587 8.64609 13.8987 9.55047C13.701 10.2235 13.5242 10.7914 13.4254 11.049C13.3942 11.1332 13.3682 11.1857 13.3473 11.2068C13.3213 11.2383 13.2901 11.2436 13.2745 11.2436C13.2693 11.2331 13.259 11.2278 13.2486 11.2278ZM14.2991 12.2268C14.4707 12.4161 14.6527 12.6212 14.8295 12.8368C15.0948 13.1628 15.36 13.5256 15.6253 13.9252C15.6461 13.7411 15.6825 13.4572 15.7241 13.147C15.7553 12.9314 15.7813 12.7001 15.8177 12.4792C15.8385 12.3215 15.8645 12.1742 15.8853 12.0375C15.9269 11.7746 15.9634 11.5643 15.9842 11.4539C15.7813 11.5117 15.5577 11.5328 15.3341 11.5117C15.0428 11.4854 14.7516 11.4013 14.502 11.2699C14.4916 11.3277 14.4656 11.4749 14.4343 11.6484C14.4187 11.7378 14.4031 11.8272 14.3823 11.9166C14.3667 11.9797 14.3511 12.0375 14.3355 12.0954C14.3251 12.1427 14.3095 12.1848 14.2991 12.2268ZM15.7137 14.0671C15.9165 14.3826 16.1194 14.7244 16.3066 15.0925C16.5874 15.6235 16.8579 16.2072 17.1023 16.8539L17.6328 11.68C17.638 11.6484 17.6587 11.6274 17.69 11.6274C17.7212 11.6274 17.742 11.6484 17.7472 11.68C17.7472 11.68 18.08 13.9567 18.4077 16.2387C18.7093 18.3314 19.0058 20.4241 19.0526 20.7501L20.7324 21.1655C20.6908 20.8921 20.462 19.3988 20.2072 17.6531C20.0927 16.8855 19.9731 16.0652 19.8587 15.2818C19.7755 14.7297 19.7027 14.1881 19.6351 13.6991C19.4427 12.3267 19.3022 11.3224 19.3022 11.3224C19.3022 11.3172 19.3022 11.3119 19.3022 11.3067C19.167 11.2225 19.0526 11.1121 18.959 10.9754C18.8706 10.8492 18.8029 10.702 18.7561 10.5495C18.6781 10.4286 18.4129 10.0184 18.1736 9.64512C18.0332 9.42428 17.9032 9.21922 17.8356 9.1088C17.7628 9.21922 17.6276 9.42428 17.482 9.64512C17.1907 10.0815 16.8578 10.5811 16.8578 10.5811C16.8578 10.5863 16.8526 10.5863 16.8526 10.5916C16.8006 10.7283 16.7434 10.8597 16.6602 10.9754C16.5146 11.191 16.317 11.333 16.0881 11.4171C16.0777 11.5012 16.0517 11.7431 16.0153 12.0533C15.9997 12.19 15.9789 12.3425 15.9581 12.5002C15.9269 12.7211 15.8958 12.9524 15.8593 13.168C15.7969 13.5571 15.7397 13.9041 15.7137 14.0671ZM12.9209 10.9702C13.0717 11.028 13.1966 11.0753 13.2538 11.0911C13.2798 11.0438 13.3162 10.9544 13.3578 10.8282C13.5606 10.2551 13.935 8.99312 14.2523 7.83635C14.4707 7.04764 14.658 6.301 14.7516 5.86458C14.788 5.5491 14.8296 5.23361 14.866 4.91813C14.918 4.45542 14.9648 3.99271 14.9752 3.53C14.9908 2.95162 14.9596 2.36798 14.8348 1.78959C14.6683 2.03146 14.5227 2.28384 14.3927 2.54149C14.1743 2.97791 13.9923 3.4301 13.831 3.89281C13.571 4.61842 13.3318 5.33352 13.1029 6.04862C12.8741 6.76897 12.6609 7.48932 12.458 8.23071C12.4164 8.38319 12.3384 8.62506 12.2448 8.89322C12.0836 9.3717 11.886 9.93432 11.7975 10.2288C11.8027 10.234 11.8132 10.2551 11.8236 10.2761C11.99 10.3602 12.3956 10.5705 12.9209 10.9702ZM16.395 1.15863C16.343 1.06924 16.291 0.979847 16.239 0.89046L16.2338 0.885205C16.1402 0.843141 16.031 0.843141 15.9218 0.869432C15.8801 0.879948 15.8385 0.89046 15.7969 0.906234C15.5473 0.995621 15.3132 1.1744 15.2352 1.24801C15.2404 1.25853 15.2508 1.26904 15.256 1.28481C15.2716 1.30585 15.2872 1.33214 15.308 1.35843C15.4381 1.5372 15.6773 1.82114 15.8177 1.95259C15.9269 2.05249 16.0986 2.19972 16.2858 2.37324C16.5146 2.5783 16.7643 2.81491 16.9671 3.03049C17.0867 3.15143 17.1855 3.2671 17.2635 3.36701C17.2375 3.17246 17.2011 2.97791 17.1543 2.78862C17.0867 2.52046 16.9775 2.2523 16.8526 1.99991C16.811 1.91052 16.7642 1.82114 16.7174 1.73701C16.6966 1.74752 16.6758 1.75804 16.6654 1.7633C16.629 1.77907 16.603 1.7633 16.5926 1.75804C16.5042 1.69495 16.4522 1.62659 16.4262 1.55824C16.3846 1.47411 16.3794 1.38998 16.3846 1.31111C16.3846 1.30585 16.3846 1.30059 16.3846 1.29008C16.3846 1.27956 16.3846 1.26905 16.3846 1.25853C16.395 1.22172 16.395 1.19017 16.395 1.15863ZM18.3193 3.57207C18.3037 3.72981 18.2933 3.88755 18.288 4.04529C18.2672 4.68677 18.3141 5.33877 18.3609 5.94345C18.3869 6.28522 18.4129 6.627 18.4389 6.96878C18.5221 6.77949 18.673 6.43771 18.855 6.0381C18.9954 5.72261 19.1566 5.37032 19.3126 5.03381C19.6247 4.36078 19.9159 3.74558 19.9939 3.57733L19.011 2.8412C18.9069 2.93585 18.8134 3.02523 18.7198 3.11988C18.5377 3.29339 18.3869 3.45639 18.3193 3.57207ZM16.8215 1.68443C16.8735 1.77382 16.9203 1.8632 16.9619 1.95259C17.0919 2.21549 17.2063 2.48892 17.2791 2.76233C17.3832 3.1672 17.4351 3.59836 17.4507 4.03478C17.4611 4.33975 17.4611 4.64997 17.4455 4.95494C17.4975 5.01804 17.5964 5.14423 17.6848 5.25465C17.7368 5.31774 17.7784 5.37558 17.8096 5.41764C17.8408 5.38084 17.8772 5.33351 17.9188 5.28619C18.0228 5.16526 18.1372 5.03381 18.1684 5.00752C18.1528 4.68678 18.1476 4.36078 18.1632 4.03478C18.184 3.59836 18.2309 3.17246 18.3349 2.76233C18.4077 2.48366 18.5169 2.21549 18.6521 1.95259C18.7041 1.85269 18.7509 1.75804 18.8081 1.65814C18.5637 1.51091 18.0748 1.17966 17.8304 1.01666C17.6068 1.16914 17.0815 1.52669 16.8215 1.68443ZM17.8252 1.48462C17.8876 1.48462 17.9396 1.5372 17.9396 1.6003C17.9396 1.6634 17.8876 1.71598 17.8252 1.71598C17.7628 1.71598 17.7108 1.6634 17.7108 1.6003C17.7108 1.5372 17.7628 1.48462 17.8252 1.48462ZM17.82 2.97265C17.8824 2.97265 17.9344 3.02523 17.9344 3.08833C17.9344 3.15143 17.8824 3.20401 17.82 3.20401C17.7576 3.20401 17.7056 3.15143 17.7056 3.08833C17.7056 3.02523 17.7576 2.97265 17.82 2.97265ZM17.8408 4.22407C17.9032 4.22407 17.9552 4.27665 17.9552 4.33975C17.9552 4.40285 17.9032 4.45542 17.8408 4.45542C17.7784 4.45542 17.7264 4.40285 17.7264 4.33975C17.7316 4.27665 17.7784 4.22407 17.8408 4.22407ZM20.8625 5.86458C20.9509 6.30626 21.1433 7.04764 21.3617 7.83635C21.6789 8.99312 22.0482 10.2551 22.2562 10.8282C22.2978 10.9544 22.3343 11.0438 22.3603 11.0911C22.4903 11.0543 22.9271 10.886 23.3016 10.7125C23.4992 10.6179 23.6813 10.5285 23.7905 10.4496C23.8217 10.4286 23.8477 10.4075 23.8633 10.3918C23.8581 10.3655 23.8477 10.3287 23.8321 10.2761C23.7488 9.99741 23.5356 9.39799 23.3692 8.89848C23.2808 8.63032 23.1975 8.38844 23.1559 8.23596C22.9531 7.49457 22.7399 6.77422 22.511 6.05387C22.2822 5.33352 22.043 4.62368 21.7881 3.89807C21.6269 3.44062 21.4449 2.98317 21.2265 2.54675C21.0965 2.28911 20.9509 2.03672 20.7844 1.79485C20.6596 2.37849 20.6284 2.95687 20.644 3.53526C20.6596 3.99797 20.7012 4.46068 20.7584 4.92339C20.7844 5.23362 20.826 5.5491 20.8625 5.86458ZM16.6498 1.63711C16.6446 1.63711 16.629 1.62659 16.629 1.63711C16.6342 1.64237 16.6394 1.64237 16.6498 1.63711ZM18.4493 7.15807C18.4701 7.39468 18.4909 7.63129 18.5117 7.8679C18.5533 8.2938 18.6001 8.71971 18.6573 9.14561C18.7042 9.48212 18.7197 9.87648 18.7977 10.2445C18.8497 10.4864 18.9225 10.7178 19.0577 10.9123C19.323 11.3067 19.7963 11.4434 20.2696 11.4066C20.748 11.3698 21.2265 11.1647 21.523 10.865C21.3201 10.2813 21.1849 9.68193 21.0913 9.07725C20.9456 8.16761 20.8832 7.24745 20.7792 6.32729C20.7272 5.86458 20.6648 5.40188 20.6128 4.93917C20.5608 4.4712 20.5244 4.00323 20.514 3.53526C20.5036 2.92533 20.5504 2.31014 20.7012 1.7002C20.7012 1.7002 20.7012 1.7002 20.7012 1.69494C20.6336 1.61081 20.5504 1.5372 20.4672 1.4741C20.4464 1.45833 20.4256 1.44256 20.41 1.43204C20.41 1.4373 20.4048 1.4373 20.3996 1.44256C20.2644 1.63185 20.0251 1.9263 19.8795 2.05775C19.7703 2.15765 19.5987 2.30488 19.4114 2.47839C19.3074 2.57304 19.193 2.67294 19.0838 2.77284L20.1031 3.51423C20.1291 3.53001 20.1343 3.56155 20.1239 3.58784C20.1239 3.58784 19.8015 4.30819 19.4375 5.0969C19.2814 5.43342 19.115 5.78571 18.9642 6.09594C18.7613 6.5271 18.5897 6.88465 18.5013 7.05816C18.4805 7.10548 18.4597 7.13703 18.4545 7.1528C18.4545 7.1528 18.4545 7.15281 18.4493 7.15807ZM19.1202 7.8048C19.2294 7.8048 19.3178 7.89419 19.3178 8.0046C19.3178 8.11502 19.2294 8.20441 19.1202 8.20441C19.0109 8.20441 18.9226 8.11502 18.9226 8.0046C18.9226 7.89419 19.0109 7.8048 19.1202 7.8048ZM18.9694 1.61082C18.9798 1.61608 18.9901 1.61608 18.9901 1.61082C18.9901 1.6003 18.9694 1.61082 18.9694 1.61082ZM17.2948 3.57207C17.2271 3.45639 17.0763 3.2934 16.8943 3.11462C16.8059 3.02524 16.707 2.93059 16.603 2.83595L15.6201 3.57207C15.6981 3.74033 15.9894 4.35552 16.3014 5.02855C16.4574 5.36507 16.6134 5.71735 16.7591 6.03284C16.9411 6.43245 17.0919 6.77422 17.1751 6.96351C17.2011 6.62174 17.2271 6.27997 17.2531 5.93819C17.2999 5.32826 17.3467 4.67626 17.3259 4.04004C17.3207 3.8823 17.3104 3.72455 17.2948 3.57207ZM17.1595 7.15807C17.1595 7.15807 17.1543 7.15281 17.1543 7.14755C17.1491 7.13177 17.1335 7.10022 17.1075 7.0529C17.0243 6.87938 16.8475 6.52183 16.6447 6.09067C16.4938 5.77519 16.3326 5.42816 16.1714 5.09165C15.8073 4.30294 15.4848 3.58259 15.4848 3.58259C15.4744 3.5563 15.4797 3.52475 15.5057 3.50898L16.525 2.76759C16.4158 2.66769 16.3066 2.56778 16.2025 2.47314C16.0101 2.30488 15.8385 2.1524 15.7293 2.05249C15.5837 1.92104 15.3497 1.62659 15.2093 1.4373C15.2041 1.43204 15.204 1.43204 15.1988 1.42678C15.178 1.44256 15.1572 1.45308 15.1416 1.46885C15.0532 1.53195 14.9752 1.60556 14.9076 1.68969C14.9076 1.68969 14.9076 1.68968 14.9024 1.69494C15.0532 2.30488 15.1 2.92007 15.0896 3.53C15.0844 3.99797 15.0428 4.46594 14.9908 4.9339C14.9388 5.39661 14.8764 5.85932 14.8244 6.32203C14.7204 7.24219 14.6579 8.16235 14.5123 9.072C14.4187 9.67667 14.2835 10.2708 14.0807 10.8597C14.3719 11.1594 14.8556 11.3645 15.3289 11.4013C15.8073 11.4381 16.2754 11.3014 16.5406 10.9071C16.6706 10.7125 16.7486 10.4811 16.8006 10.2393C16.8787 9.87121 16.8943 9.47686 16.9411 9.14035C16.9983 8.71444 17.0451 8.28854 17.0867 7.86264C17.1231 7.63129 17.1439 7.39468 17.1595 7.15807ZM16.6862 7.85212C16.7955 7.85212 16.8839 7.94151 16.8839 8.05193C16.8839 8.16235 16.7955 8.25173 16.6862 8.25173C16.577 8.25173 16.4886 8.16235 16.4886 8.05193C16.4886 7.94151 16.577 7.85212 16.6862 7.85212ZM16.551 1.21647C16.6082 1.20069 16.6811 1.1744 16.7643 1.15336C16.8371 1.13233 16.9099 1.1113 16.9931 1.08501C17.1075 1.05347 17.2271 1.02718 17.3363 0.995628C17.4195 0.974596 17.4975 0.958821 17.5703 0.937789C17.4819 0.927273 17.3831 0.916753 17.2739 0.900979C17.1491 0.885205 17.0139 0.864177 16.8839 0.848403C16.7955 0.832629 16.7071 0.816854 16.6238 0.806338C16.499 0.785306 16.3898 0.764273 16.3222 0.748499C16.3482 0.806337 16.395 0.874692 16.4574 0.953562C16.5094 1.01666 16.5302 1.09027 16.5302 1.1744V1.17965C16.5354 1.19017 16.5406 1.20595 16.551 1.21647ZM19.3282 0.622303C19.3282 0.611787 19.3282 0.601269 19.3282 0.596011C19.3334 0.51714 19.2918 0.4593 19.245 0.422494C19.2086 0.390946 19.1618 0.369916 19.141 0.3594L18.0488 0.795819C18.132 0.780045 18.2257 0.764273 18.3245 0.748499C18.4493 0.727467 18.5845 0.706434 18.7145 0.69066C18.803 0.680144 18.8966 0.669629 18.9746 0.659113C19.1358 0.638081 19.2658 0.627561 19.3282 0.622303ZM20.8832 11.3698C20.6908 11.4434 20.4828 11.4907 20.28 11.5117C19.9679 11.538 19.6611 11.496 19.401 11.3645C19.4374 11.5906 19.5779 12.5002 19.7547 13.6833C19.8275 14.1723 19.9107 14.7086 19.9939 15.266C20.1083 16.0494 20.228 16.8697 20.3372 17.6374C20.5764 19.3199 20.7844 20.7659 20.8312 21.1182L21.9962 20.1928L20.8832 11.3698ZM19.089 1.16914C19.089 1.16388 19.089 1.15337 19.089 1.14811C19.089 1.06924 19.1046 0.995625 19.1618 0.927271C19.2242 0.8484 19.271 0.780046 19.297 0.722207C19.2294 0.737981 19.1202 0.753756 18.9953 0.780046C18.9121 0.79582 18.8289 0.811595 18.7353 0.822111C18.6053 0.843143 18.4701 0.858913 18.3453 0.874687C18.2412 0.890461 18.1372 0.900981 18.0488 0.911497C18.1164 0.927271 18.1996 0.948304 18.2828 0.969336C18.3973 0.995626 18.5169 1.02717 18.6261 1.05872C18.7093 1.07975 18.7822 1.10605 18.855 1.12708C18.9434 1.15337 19.0162 1.1744 19.0786 1.19543L19.089 1.16914ZM17.5651 0.822111C17.1803 0.669628 16.473 0.385692 16.473 0.385692C16.4522 0.396208 16.4054 0.41198 16.369 0.448786C16.3274 0.485592 16.2858 0.538174 16.2858 0.622303C16.2858 0.632819 16.2858 0.643336 16.2858 0.648594C16.3482 0.653853 16.4782 0.669623 16.6395 0.685397C16.7175 0.695913 16.8059 0.706436 16.8995 0.716952C17.0295 0.732726 17.1647 0.75375 17.2895 0.774783C17.3884 0.790557 17.4819 0.806337 17.5651 0.822111ZM18.9018 1.71598C18.8498 1.81062 18.8029 1.90527 18.7509 2.00517C18.6261 2.26282 18.5169 2.52572 18.4493 2.79388C18.4025 2.98317 18.366 3.17246 18.34 3.37226C18.4181 3.27236 18.5169 3.15668 18.6365 3.03575C18.8446 2.82017 19.0942 2.58355 19.3178 2.37849C19.505 2.20497 19.6766 2.05775 19.7859 1.95784C19.9263 1.83165 20.1603 1.54772 20.2955 1.36369C20.3163 1.3374 20.332 1.31111 20.3476 1.29008C20.358 1.27956 20.3631 1.26378 20.3683 1.25327C20.2903 1.17965 20.0563 1.00614 19.8067 0.911497C19.7651 0.895723 19.7235 0.885203 19.6819 0.874687C19.5727 0.848397 19.4635 0.848396 19.375 0.89046L19.3698 0.895724C19.323 0.979852 19.271 1.06923 19.219 1.15336C19.219 1.17965 19.2242 1.20595 19.2242 1.23224C19.2242 1.24275 19.2242 1.25327 19.2242 1.26379C19.2242 1.26904 19.2242 1.2743 19.2242 1.28481C19.2294 1.36369 19.2242 1.44781 19.1826 1.53194C19.1514 1.6003 19.0994 1.6634 19.0162 1.73175C19.0058 1.73701 18.9798 1.75278 18.9433 1.73701C18.9381 1.73175 18.9226 1.72649 18.9018 1.71598ZM16.7591 1.57401C16.9619 1.45833 17.3207 1.23223 17.5808 1.06398C17.5131 1.08501 17.4403 1.10605 17.3675 1.12708C17.2583 1.15863 17.1387 1.19017 17.0243 1.22172C16.9463 1.24275 16.8631 1.25853 16.7954 1.2743C16.7278 1.29008 16.6654 1.30585 16.6082 1.31637C16.577 1.32163 16.5458 1.32688 16.5198 1.33214C16.5198 1.34792 16.5198 1.35843 16.5198 1.37421C16.5198 1.39524 16.525 1.41627 16.5302 1.44256C16.5458 1.50565 16.5822 1.57401 16.6602 1.63711C16.6654 1.63711 16.6654 1.63185 16.6706 1.63185C16.6914 1.62133 16.7174 1.6003 16.7434 1.58453C16.7486 1.57927 16.7539 1.57401 16.7591 1.57401ZM17.4403 5.12846C17.4247 5.40713 17.4091 5.68055 17.3883 5.94871C17.3415 6.59545 17.2999 7.23693 17.2375 7.87842C17.1959 8.30432 17.1491 8.73548 17.0867 9.16138C17.0347 9.4979 17.0139 9.89225 16.9359 10.2603C17.0555 10.071 17.2167 9.81338 17.3727 9.57677C17.5859 9.24025 17.7784 8.9458 17.7784 8.9458C17.794 8.92477 17.8148 8.91425 17.8356 8.91425C17.8564 8.91425 17.8824 8.92477 17.8928 8.9458C17.8928 8.9458 18.0748 9.24025 18.2776 9.57677C18.4077 9.7976 18.5533 10.0342 18.6626 10.2182C18.5897 9.8607 18.5689 9.48212 18.5221 9.15612C18.4597 8.73022 18.4129 8.29906 18.3713 7.87315C18.3141 7.23167 18.2724 6.59019 18.2204 5.94345C18.1996 5.6858 18.184 5.41765 18.1684 5.14949C18.1216 5.20732 18.0645 5.29145 18.0125 5.3598C17.9292 5.47022 17.8564 5.56487 17.8564 5.56487C17.8408 5.58064 17.8252 5.59116 17.8044 5.59116C17.7836 5.59116 17.7628 5.58064 17.7524 5.56487C17.7524 5.56487 17.6692 5.45445 17.5808 5.32826C17.534 5.26516 17.4819 5.19155 17.4403 5.12846ZM17.8252 8.28854C17.8876 8.28854 17.9396 8.34112 17.9396 8.40422C17.9396 8.46732 17.8876 8.5199 17.8252 8.5199C17.7628 8.5199 17.7108 8.46732 17.7108 8.40422C17.7108 8.33587 17.7628 8.28854 17.8252 8.28854ZM17.8096 6.16955C17.872 6.16955 17.924 6.22213 17.924 6.28523C17.924 6.34832 17.872 6.4009 17.8096 6.4009C17.7472 6.4009 17.6952 6.34832 17.6952 6.28523C17.6952 6.22213 17.742 6.16955 17.8096 6.16955ZM17.7992 7.18961C17.8616 7.18961 17.9136 7.24219 17.9136 7.30529C17.9136 7.36839 17.8616 7.42097 17.7992 7.42097C17.7368 7.42097 17.6848 7.36839 17.6848 7.30529C17.6848 7.24219 17.7368 7.18961 17.7992 7.18961ZM19.0214 1.28481C18.9694 1.2743 18.9018 1.25853 18.8237 1.24276C18.7509 1.22698 18.673 1.21121 18.5949 1.19017C18.4805 1.16388 18.3609 1.12707 18.2517 1.09552C18.1737 1.07449 18.1008 1.05346 18.0384 1.03243C18.3037 1.20069 18.6677 1.43204 18.8705 1.54246C18.8705 1.54246 18.8757 1.54772 18.8809 1.54772C18.9121 1.56349 18.9382 1.58978 18.9642 1.6003C19.0422 1.5372 19.0786 1.46885 19.0942 1.40576C19.0994 1.38998 19.0994 1.3742 19.0994 1.35843C19.1046 1.33739 19.1046 1.31636 19.1046 1.29533C19.0786 1.30059 19.0526 1.29533 19.0214 1.28481ZM8.79149 5.02329C8.67188 4.81297 8.48464 4.52378 8.26621 4.28191C8.07899 4.07685 7.86578 3.90333 7.64215 3.87704C7.44972 3.85601 7.28331 3.91384 7.13769 4.00849C6.84645 4.19778 6.65921 4.51326 6.602 4.61843C6.66961 4.72359 6.73201 4.82874 6.78402 4.9339C6.92964 4.82874 7.08567 4.76039 7.2521 4.72359C7.38211 4.69204 7.52255 4.68152 7.66297 4.69204C7.8606 4.70255 8.06344 4.74462 8.26107 4.80772C8.4431 4.85504 8.62507 4.9339 8.79149 5.02329ZM11.5375 4.75513C11.6051 4.59739 11.6519 4.508 11.6519 4.508C11.6519 4.50274 11.6571 4.49748 11.6571 4.49748C11.6155 4.39758 11.4959 4.15572 11.2671 4.00849C11.111 3.90859 10.9082 3.856 10.643 3.92436C10.3986 3.99271 10.1697 4.15046 9.96166 4.33975C9.69122 4.58688 9.46761 4.87607 9.32719 5.07587C9.47281 4.99174 9.62363 4.91813 9.77965 4.85504C9.94607 4.78668 10.1229 4.72884 10.2945 4.69204C10.4713 4.65523 10.6534 4.6342 10.8354 4.63945C11.0798 4.63945 11.3087 4.68152 11.5375 4.75513ZM6.83087 5.00752C6.97129 5.28619 7.08044 5.56488 7.15845 5.84355C7.28327 5.70159 7.42893 5.58591 7.58495 5.49652C7.71497 5.42291 7.85021 5.35981 7.99583 5.31775C8.13625 5.27568 8.28185 5.24413 8.42747 5.2231C8.57829 5.20207 8.73431 5.19681 8.88514 5.20207C8.88514 5.20207 8.88513 5.19681 8.87993 5.19681C8.6771 5.09165 8.44825 4.997 8.21422 4.92865C8.02699 4.87081 7.83978 4.83401 7.64736 4.82349C7.48613 4.81297 7.3301 4.82348 7.17928 4.86029C7.06486 4.88658 6.94528 4.9339 6.83087 5.00752ZM11.1215 5.9119C11.2515 5.46497 11.3971 5.09165 11.5011 4.84452C11.2827 4.78668 11.0643 4.76039 10.851 4.76565C10.6794 4.77091 10.5078 4.78668 10.3362 4.82349C10.1697 4.8603 9.99807 4.90762 9.83685 4.97071C9.63402 5.04958 9.43638 5.14423 9.24396 5.25465C9.45199 5.2599 9.66526 5.27568 9.87329 5.31248C10.0553 5.34403 10.2322 5.39136 10.4038 5.45445C10.5182 5.49652 10.6274 5.55436 10.7366 5.61745C10.877 5.69632 11.0019 5.79622 11.1215 5.9119ZM9.38959 11.3908C9.91487 11.1016 10.9498 10.5705 11.4075 10.3287C11.4439 10.3076 11.4751 10.2919 11.5011 10.2761C11.4387 10.192 11.3815 10.1078 11.3295 10.0237C11.0486 10.1762 10.7782 10.3339 10.5182 10.4969C10.3205 10.6231 10.1281 10.7598 9.94611 10.9018C9.82129 10.9964 9.70164 11.0963 9.58722 11.2015C9.52481 11.2646 9.4572 11.3277 9.38959 11.3908ZM6.63838 10.1341C6.60197 10.2077 6.57081 10.2656 6.5448 10.3129C6.96606 10.518 8.32342 11.1752 8.91631 11.4591C8.92671 11.4644 8.93714 11.4697 8.94754 11.4749C8.79672 11.354 8.64069 11.2331 8.47946 11.1226C8.30784 11.0017 8.131 10.886 7.94898 10.7809C7.76695 10.6704 7.58496 10.5705 7.39773 10.4759C7.1533 10.3444 6.89842 10.234 6.63838 10.1341ZM7.19489 5.95397C7.33531 6.49029 7.37174 7.0161 7.34574 7.51035C7.28853 8.60403 6.92447 9.5347 6.68523 10.0395C6.94527 10.1289 7.2053 10.234 7.46014 10.355C7.65257 10.4443 7.83977 10.5442 8.027 10.6547C8.20903 10.7651 8.39107 10.8808 8.56269 11.007C8.77072 11.1594 8.96315 11.3224 9.14517 11.496C9.25959 11.354 9.37918 11.2225 9.5092 11.1016C9.62362 10.9912 9.74327 10.886 9.86808 10.7861C10.0553 10.6389 10.2529 10.5022 10.4558 10.3812C10.721 10.2182 10.9966 10.071 11.2827 9.9238C10.955 9.34541 10.8198 8.69867 10.8042 8.05719C10.7886 7.32632 10.9238 6.60596 11.0902 6.00129C10.929 5.85406 10.7522 5.73839 10.5598 5.649C10.4297 5.5859 10.2893 5.53858 10.1489 5.49652C10.0085 5.45445 9.86287 5.42291 9.72245 5.39662C9.53002 5.36507 9.33239 5.34403 9.13997 5.33878C9.11916 5.35455 9.08795 5.3598 9.06194 5.3598C9.01514 5.3598 8.97355 5.33352 8.94754 5.29146C8.78112 5.29146 8.61472 5.30723 8.4535 5.32826C8.31308 5.34929 8.17784 5.3861 8.04262 5.42816C7.9074 5.47023 7.77739 5.52281 7.65777 5.59116C7.48614 5.69632 7.33011 5.80674 7.19489 5.95397Z" fill="#133F24"/>
</svg>
