<svg width="27" height="21" viewBox="0 0 27 21" fill="none" xmlns="http://www.w3.org/2000/svg">
<path fill-rule="evenodd" clip-rule="evenodd" d="M6.51846 8.91128C8.06402 8.92122 9.61953 9.35358 10.5041 10.2581C11.1601 10.929 11.5974 12.4397 11.8857 14.0946C12.3727 16.9323 12.4224 20.1775 12.4224 20.1775C12.4224 20.2123 12.4125 20.2421 12.3876 20.2669C12.3628 20.2918 12.333 20.3017 12.2982 20.3017C12.2982 20.3017 7.6267 20.3166 4.22745 20.2868C2.38371 20.2719 0.912687 20.2371 0.743718 20.1974C0.713901 20.1924 0.654249 20.1576 0.63437 20.0582C0.614492 19.9688 0.599609 19.77 0.599609 19.4867C0.599609 18.4182 0.758612 16.1073 1.13134 14.03C1.43448 12.3453 1.88178 10.8196 2.49305 10.2034L2.48807 10.1984C3.28819 9.38837 4.79399 8.93613 6.33956 8.91128L6.32463 5.80525C6.32463 5.77543 6.33457 5.75058 6.35445 5.7307C6.37433 5.71083 6.39919 5.70089 6.42901 5.70089C6.42901 5.70089 8.84922 5.72077 11.7266 5.74562C12.3628 5.75059 13.0237 5.76052 13.6847 5.76549C13.6797 5.54186 13.6698 5.06974 13.6648 4.53799C13.6599 4.23981 13.6599 3.92672 13.6599 3.62357C13.6599 3.40988 13.6698 3.20115 13.6698 3.01231C13.6797 2.54516 13.6946 2.19231 13.6996 2.1128C11.6919 2.09292 9.70399 2.0631 9.70399 2.0631C9.67914 2.0631 9.65432 2.05316 9.63942 2.03825C9.62451 2.02334 9.61454 2.00346 9.61454 1.97862L9.62449 0.567232C9.62449 0.512566 9.66922 0.472811 9.72389 0.472811L17.7797 0.408203C17.8493 0.408203 17.9039 0.462872 17.9039 0.527478L17.9487 2.01837C17.9487 2.05316 17.9387 2.08298 17.9139 2.10783C17.889 2.13268 17.8592 2.14758 17.8244 2.14758C17.8244 2.14758 15.8614 2.13267 13.8686 2.1128C13.8735 2.19231 13.8835 2.54516 13.8984 3.00733C13.9034 3.19618 13.9083 3.40491 13.9083 3.6186C13.9083 3.92175 13.9083 4.23484 13.9034 4.53302C13.8934 5.06477 13.8835 5.53689 13.8785 5.76549C14.3407 5.77046 14.8029 5.77543 15.2601 5.7804C16.3137 5.79531 17.3225 5.81022 18.2021 5.82513C19.9316 5.85495 21.1442 5.87482 21.1442 5.87482C21.1988 5.87482 21.2436 5.91955 21.2436 5.97422L21.2336 8.8765C22.7742 8.90135 24.28 9.35359 25.0801 10.1636L25.0752 10.1686C25.6864 10.7799 26.1337 12.3105 26.4368 13.9952C26.8096 16.0726 26.9686 18.3884 26.9686 19.4569C26.9686 19.7402 26.9587 19.934 26.9338 20.0284C26.9139 20.1278 26.8543 20.1576 26.8245 20.1676C26.6555 20.2123 25.1845 20.2421 23.3407 20.257C19.9415 20.2868 15.27 20.2719 15.27 20.2719C15.2352 20.2719 15.2054 20.257 15.1806 20.2371C15.1557 20.2123 15.1458 20.1825 15.1458 20.1477C15.1458 20.1477 15.1955 16.9025 15.6825 14.0648C15.9658 12.4099 16.4081 10.8942 17.0641 10.2282C17.9487 9.32377 19.5141 8.88644 21.0647 8.88147H21.0696L21.0448 6.08355C20.7217 6.08355 19.6384 6.07361 18.2021 6.06367C17.3225 6.0587 16.3137 6.04876 15.2601 6.03385C14.0922 6.01894 12.8746 6.00404 11.7266 5.98913C9.20206 5.95434 7.02538 5.91955 6.53338 5.90961L6.51846 8.91128ZM0.848092 19.9837C1.16615 20.0185 2.53777 20.0334 4.22745 20.0433C7.2987 20.0632 11.4136 20.0582 12.1739 20.0533C12.164 19.437 12.0795 16.6242 11.662 14.1294C11.3937 12.5242 10.9862 11.0532 10.355 10.4022C9.50524 9.52752 8.00437 9.11504 6.50851 9.1051C4.96294 9.09516 3.42732 9.51262 2.62721 10.3227L2.61729 10.3177C2.0259 10.919 1.6134 12.4149 1.33013 14.0598C0.972319 16.1272 0.828199 18.4232 0.833169 19.4867C0.823229 19.7253 0.833183 19.8942 0.848092 19.9837ZM5.37047 11.0631C5.35556 11.0781 5.33072 11.0781 5.31581 11.0631C5.3009 11.0433 5.3009 11.0184 5.31581 10.9985C5.31581 10.9985 5.51955 10.7699 5.85748 10.6109C6.03639 10.5264 6.25009 10.4568 6.48367 10.4519C6.64269 10.4469 6.81664 10.4767 6.99058 10.5413C7.19931 10.6208 7.41797 10.765 7.6416 10.9836C7.65651 10.9985 7.65652 11.0234 7.64658 11.0433C7.63167 11.0582 7.61177 11.0631 7.59189 11.0482C7.37322 10.8495 7.15954 10.7252 6.95579 10.6556C6.79179 10.596 6.63276 10.5761 6.48367 10.5761C6.26003 10.5811 6.06124 10.6358 5.89228 10.7153C5.56925 10.8544 5.37047 11.0631 5.37047 11.0631ZM8.00438 12.5988C7.99444 12.6236 7.97457 12.6336 7.95469 12.6236C7.93482 12.6137 7.91991 12.5888 7.92985 12.564C7.92985 12.564 8.07395 12.1018 8.46158 11.7788C8.66533 11.6098 8.93869 11.4806 9.29153 11.4806C9.45056 11.4806 9.59468 11.5054 9.72389 11.5502C9.87795 11.6048 10.0072 11.6794 10.1165 11.7688C10.5041 12.0869 10.6383 12.5441 10.6383 12.5441C10.6433 12.564 10.6333 12.5888 10.6134 12.5988C10.5936 12.6087 10.5737 12.5938 10.5687 12.5739C10.5687 12.5739 10.4296 12.1515 10.0568 11.8682C9.95249 11.7887 9.83323 11.7191 9.69407 11.6744C9.5748 11.6347 9.4456 11.6098 9.29651 11.6098C8.96851 11.6048 8.71506 11.7191 8.52124 11.8732C8.14852 12.1664 8.00438 12.5988 8.00438 12.5988ZM5.20149 12.5988C5.19155 12.6236 5.17168 12.6336 5.1518 12.6236C5.13192 12.6137 5.11702 12.5888 5.12696 12.564C5.12696 12.564 5.27108 12.1018 5.65872 11.7788C5.86247 11.6098 6.13579 11.4806 6.48864 11.4806C6.64767 11.4806 6.79179 11.5054 6.921 11.5502C7.07506 11.6048 7.20426 11.6794 7.31359 11.7688C7.70122 12.0869 7.83543 12.5441 7.83543 12.5441C7.8404 12.564 7.83043 12.5888 7.81056 12.5988C7.79068 12.6087 7.77082 12.5938 7.76585 12.5739C7.76585 12.5739 7.62668 12.1515 7.25396 11.8682C7.14959 11.7887 7.03033 11.7191 6.89118 11.6744C6.77191 11.6347 6.6427 11.6098 6.49361 11.6098C6.16562 11.6048 5.91217 11.7191 5.71835 11.8732C5.34563 12.1664 5.20149 12.5988 5.20149 12.5988ZM10.9961 14.4823V14.4773C10.9912 14.4574 10.9862 14.4177 10.9663 14.358C10.9067 14.1245 10.7377 13.6374 10.3799 13.3144C10.1811 13.1355 9.92764 13.0063 9.59468 13.0063C9.26171 13.0013 9.00328 13.1305 8.80946 13.3094C8.33734 13.7517 8.21807 14.5071 8.21807 14.5071C8.2131 14.532 8.19323 14.5469 8.16839 14.5469C8.14354 14.5419 8.12863 14.522 8.1336 14.4922C8.1336 14.4922 8.24791 13.6971 8.73991 13.2249C8.94864 13.0212 9.2319 12.8771 9.59965 12.882C9.81831 12.887 10.0072 12.9367 10.1662 13.0212C10.3501 13.1156 10.4942 13.2498 10.6134 13.4039C10.8818 13.7418 11.0061 14.1642 11.0508 14.363C11.0607 14.4127 11.0706 14.4525 11.0706 14.4674C11.0806 14.522 10.9961 14.5071 10.9961 14.5021C11.0011 14.4972 10.9961 14.4872 10.9961 14.4823ZM4.74429 14.4823V14.4773C4.73932 14.4574 4.72938 14.4177 4.71447 14.358C4.65483 14.1245 4.48587 13.6374 4.12805 13.3144C3.92927 13.1355 3.67581 13.0063 3.34284 13.0063C3.00987 13.0013 2.75147 13.1305 2.55766 13.3094C2.08554 13.7517 1.96626 14.5071 1.96626 14.5071C1.9613 14.532 1.9414 14.5469 1.91655 14.5469C1.8917 14.5419 1.87679 14.522 1.88176 14.4922C1.88176 14.4922 1.99608 13.6971 2.48807 13.2249C2.6968 13.0212 2.98006 12.8771 3.34781 12.882C3.56648 12.887 3.75533 12.9367 3.91436 13.0212C4.09824 13.1156 4.24234 13.2498 4.36161 13.4039C4.62997 13.7418 4.75422 14.1642 4.79894 14.363C4.80888 14.4127 4.81884 14.4525 4.81884 14.4674C4.82878 14.522 4.74429 14.5071 4.74429 14.5021C4.74926 14.4972 4.74429 14.4872 4.74429 14.4823ZM2.88564 11.0631C2.87073 11.0781 2.84092 11.0781 2.83098 11.0631C2.81607 11.0433 2.81607 11.0184 2.83098 10.9985C2.83098 10.9985 3.03472 10.7699 3.37266 10.6109C3.55156 10.5264 3.76526 10.4568 3.99884 10.4519C4.15787 10.4469 4.33181 10.4767 4.50575 10.5413C4.71448 10.6208 4.93314 10.765 5.15678 10.9836C5.17168 10.9985 5.17169 11.0234 5.16175 11.0433C5.15181 11.0582 5.12694 11.0631 5.11204 11.0482C4.89337 10.8495 4.67969 10.7252 4.47594 10.6507C4.31194 10.591 4.1529 10.5712 3.99884 10.5712C3.7752 10.5761 3.57642 10.6308 3.40745 10.7053C3.08939 10.8544 2.88564 11.0631 2.88564 11.0631ZM7.87022 14.4823V14.4773C7.86525 14.4574 7.85528 14.4177 7.84037 14.358C7.77577 14.1245 7.61177 13.6374 7.25396 13.3144C7.05517 13.1355 6.80171 13.0063 6.47372 13.0063C6.14075 13.0013 5.88235 13.1305 5.68853 13.3094C5.21642 13.7517 5.09714 14.5071 5.09714 14.5071C5.09217 14.532 5.07228 14.5469 5.04743 14.5469C5.02258 14.5419 5.0077 14.522 5.01267 14.4922C5.01267 14.4922 5.12695 13.6971 5.61895 13.2249C5.83265 13.0212 6.11094 12.8771 6.47869 12.882C6.69736 12.887 6.88124 12.9367 7.04524 13.0212C7.22912 13.1156 7.37822 13.2498 7.49252 13.4039C7.76088 13.7418 7.88513 14.1642 7.92985 14.363C7.93979 14.4127 7.94972 14.4525 7.94972 14.4674C7.95966 14.522 7.87516 14.5071 7.87516 14.5021C7.87019 14.4972 7.87022 14.4872 7.87022 14.4823ZM2.39862 12.5988C2.38868 12.6236 2.36879 12.6336 2.34891 12.6236C2.32903 12.6137 2.31413 12.5888 2.32407 12.564C2.32407 12.564 2.46819 12.1018 2.85582 11.7788C3.05958 11.6098 3.3329 11.4806 3.68575 11.4806C3.84478 11.4806 3.98889 11.5054 4.1181 11.5502C4.27216 11.6048 4.40139 11.6794 4.51073 11.7688C4.89836 12.0869 5.03253 12.5441 5.03253 12.5441C5.04247 12.564 5.02758 12.5888 5.01267 12.5988C4.99279 12.6087 4.9729 12.5938 4.96793 12.5739C4.96793 12.5739 4.82876 12.1515 4.45604 11.8682C4.35167 11.7887 4.23241 11.7191 4.09326 11.6744C3.97399 11.6347 3.83982 11.6098 3.6957 11.6098C3.3677 11.6048 3.11425 11.7191 2.92043 11.8732C2.53777 12.1664 2.39862 12.5988 2.39862 12.5988ZM4.92319 17.8815C4.90828 18.3536 4.92319 19.4569 4.92319 19.4569C4.92319 19.4569 4.6747 19.4619 4.6747 19.4569C4.66973 19.442 4.68466 19.1935 4.68963 19.0196C4.69957 18.7512 4.69956 18.3735 4.68465 17.9461L4.29206 17.9113C4.28709 17.9113 4.28211 17.9113 4.27714 17.9064C4.25229 17.9312 4.22746 17.9511 4.20261 17.9759C4.19267 17.9859 4.18273 17.9859 4.17279 17.9809C4.16782 17.9809 4.16781 17.9809 4.16284 17.9809C4.06842 17.9759 3.96902 17.971 3.87957 17.9561C3.81497 17.9461 3.75036 17.9312 3.69072 17.9163C3.63605 17.9014 3.58636 17.8815 3.53666 17.8616C3.482 17.8368 3.43728 17.8119 3.38758 17.7821C3.35279 17.7622 3.32297 17.7374 3.28818 17.7175C3.29315 17.7225 3.29316 17.7324 3.29813 17.7374C3.33292 17.8318 3.3826 17.961 3.43726 18.1051C3.46708 18.1847 3.4969 18.2691 3.52671 18.3487C3.55653 18.4331 3.58637 18.5176 3.61122 18.5971C3.68576 18.8059 3.74041 18.9699 3.74041 18.9699C3.74538 18.9798 3.7454 18.9897 3.73546 18.9997C3.73049 19.0096 3.72053 19.0146 3.71059 19.0196L3.28321 19.119H3.27823C3.27823 19.1488 3.28321 19.1687 3.28321 19.1836C3.28321 19.1885 3.28321 19.1935 3.28321 19.1985C3.28818 19.2531 3.20868 19.2382 3.20868 19.2382L3.23352 19.2482H3.22855C3.21861 19.2482 3.19376 19.2482 3.16394 19.2432C3.01982 19.2333 2.70175 19.2034 2.53278 19.1438C2.48309 19.1239 2.44334 19.104 2.42346 19.0842C2.39365 19.0494 2.38867 19.0146 2.41352 18.9748C2.51788 18.8208 2.60237 18.6319 2.67195 18.4481C2.78128 18.1499 2.84587 17.8517 2.87569 17.7026C2.8409 17.7324 2.80116 17.7573 2.7614 17.7821C2.7117 17.8119 2.66201 17.8368 2.61231 17.8616C2.56262 17.8815 2.51292 17.9014 2.45826 17.9163C2.39862 17.9312 2.33401 17.9461 2.26941 17.9561C2.17498 17.971 2.08056 17.9759 1.98613 17.9809C1.98116 17.9809 1.97618 17.9809 1.97618 17.9809C1.96624 17.9859 1.95631 17.9859 1.94637 17.9759C1.91158 17.9461 1.88176 17.9163 1.84697 17.8865C1.842 17.8865 1.84202 17.8865 1.83705 17.8865L1.53391 17.8815C1.50906 18.6916 1.57862 19.4072 1.57862 19.4072C1.58359 19.4569 1.3699 19.4221 1.3699 19.4221C1.3699 19.4221 1.17112 17.4442 1.56372 16.0129C1.7973 15.1532 2.25947 14.4723 3.07946 14.4127C3.54661 14.3779 3.9094 14.5767 4.17279 14.9146C4.39146 15.1929 4.55048 15.5706 4.65981 15.9881C4.72442 16.2415 4.77411 16.5099 4.80889 16.7832C4.84368 16.5198 4.89337 16.2564 4.95798 16.008C5.19155 15.1482 5.64877 14.4674 6.45882 14.4077C6.92597 14.3729 7.27882 14.5717 7.54718 14.9097C7.76584 15.188 7.91989 15.5657 8.02922 15.9831C8.09383 16.2366 8.14355 16.5049 8.17834 16.7783C8.21312 16.5149 8.26282 16.2515 8.33239 16.003C8.56597 15.1432 9.02814 14.4624 9.84813 14.4028C10.3153 14.368 10.6781 14.5668 10.9415 14.9047C11.1601 15.183 11.3191 15.5607 11.4285 15.9781C11.7118 17.0615 11.677 18.4381 11.6422 19.0693C11.6322 19.2184 11.6124 19.4817 11.6124 19.4817C11.6124 19.4817 11.4633 19.5165 11.4583 19.4619C11.4583 19.4619 11.4633 19.1736 11.4682 19.0047C11.4782 18.7363 11.4782 18.3586 11.4633 17.9312L11.0706 17.8964C11.0657 17.8964 11.0607 17.8964 11.0558 17.8915C11.0309 17.9163 11.0011 17.9362 10.9763 17.961C10.9663 17.971 10.9563 17.971 10.9464 17.966C10.9414 17.966 10.9365 17.966 10.9365 17.966C10.8371 17.961 10.7427 17.9561 10.6532 17.9411C10.5886 17.9312 10.524 17.9163 10.4644 17.9014C10.4097 17.8865 10.36 17.8666 10.3103 17.8467C10.2556 17.8219 10.206 17.797 10.1612 17.7672C10.1264 17.7473 10.0966 17.7225 10.0668 17.7026C10.0718 17.7076 10.0717 17.7175 10.0767 17.7225C10.1115 17.8169 10.1612 17.9461 10.2159 18.0902C10.2457 18.1698 10.2755 18.2542 10.3053 18.3338C10.3352 18.4182 10.365 18.5027 10.3898 18.5822C10.4644 18.791 10.519 18.955 10.519 18.955C10.524 18.9649 10.519 18.9748 10.514 18.9848C10.5091 18.9947 10.4991 18.9997 10.4892 19.0047L10.0618 19.104C10.0569 19.104 10.0568 19.104 10.0519 19.104C10.0568 19.1339 10.0568 19.1537 10.0568 19.1687C10.0568 19.1736 10.0568 19.1786 10.0568 19.1836C10.0618 19.2382 9.98232 19.2233 9.98232 19.2233L10.0072 19.2333H10.0022C9.99225 19.2333 9.9674 19.2333 9.93758 19.2283C9.79346 19.2184 9.47539 19.1885 9.30145 19.1289C9.25176 19.109 9.21699 19.0891 9.19711 19.0693C9.16729 19.0345 9.16231 18.9997 9.18716 18.9599C9.29152 18.8059 9.37602 18.617 9.44559 18.4331C9.55492 18.135 9.61952 17.8368 9.64933 17.6877C9.61455 17.7175 9.5748 17.7424 9.53504 17.7672C9.48535 17.797 9.43565 17.8219 9.38596 17.8467C9.33626 17.8666 9.28657 17.8865 9.2319 17.9014C9.17226 17.9163 9.10766 17.9312 9.04305 17.9411C8.94863 17.9561 8.8542 17.961 8.7548 17.966C8.74983 17.966 8.74982 17.966 8.74485 17.966C8.73491 17.971 8.72498 17.971 8.71504 17.961C8.68025 17.9312 8.64549 17.9014 8.61567 17.8716C8.6107 17.8716 8.61069 17.8716 8.60572 17.8716L8.2976 17.8666C8.28766 18.1698 8.23299 19.5712 8.23299 19.5712L8.00438 19.5762C8.00438 19.5762 8.07397 18.3586 8.05409 17.9312L7.66645 17.8964C7.66148 17.8964 7.65652 17.8964 7.65155 17.8915C7.6267 17.9163 7.60184 17.9362 7.577 17.961C7.56706 17.971 7.55712 17.971 7.54718 17.966C7.54221 17.966 7.5422 17.966 7.53723 17.966C7.44281 17.961 7.34838 17.9561 7.25396 17.9411C7.18935 17.9312 7.12972 17.9163 7.07008 17.9014C7.01542 17.8865 6.96572 17.8666 6.91602 17.8467C6.86136 17.8219 6.81664 17.797 6.76694 17.7672C6.73215 17.7473 6.70233 17.7225 6.67251 17.7026C6.67251 17.7076 6.67749 17.7175 6.68246 17.7225C6.71725 17.8169 6.76693 17.9461 6.8216 18.0902C6.85142 18.1698 6.88123 18.2542 6.91105 18.3338C6.94087 18.4182 6.97071 18.5027 6.99555 18.5822C7.0701 18.791 7.1198 18.955 7.1198 18.955C7.12477 18.9649 7.12477 18.9748 7.1198 18.9848C7.11483 18.9947 7.10486 18.9997 7.09492 19.0047L6.66754 19.104H6.66257C6.66754 19.1339 6.66754 19.1537 6.66754 19.1687C6.66754 19.1736 6.66754 19.1786 6.66754 19.1836C6.67251 19.2382 6.59798 19.2233 6.59301 19.2233L6.61786 19.2333H6.61288C6.60294 19.2333 6.57809 19.2333 6.54827 19.2283C6.40912 19.2184 6.08609 19.1885 5.92209 19.1289C5.8724 19.109 5.83762 19.0891 5.81277 19.0693C5.78296 19.0345 5.77798 18.9997 5.80282 18.9599C5.90719 18.8059 5.99168 18.617 6.05628 18.4331C6.16562 18.135 6.23021 17.8368 6.26003 17.6877C6.22524 17.7175 6.18549 17.7424 6.15071 17.7672C6.10101 17.797 6.05132 17.8219 6.00162 17.8467C5.95193 17.8666 5.90223 17.8865 5.84757 17.9014C5.78793 17.9163 5.72333 17.9312 5.66369 17.9411C5.56927 17.9561 5.47484 17.961 5.38042 17.966C5.37545 17.966 5.37544 17.966 5.37047 17.966C5.36053 17.971 5.35059 17.971 5.34065 17.961C5.30586 17.9312 5.27604 17.9014 5.24125 17.8716C5.23628 17.8716 5.23627 17.8716 5.2313 17.8716L4.92319 17.8815ZM6.42403 17.5485C6.43397 17.5535 6.44888 17.5585 6.45882 17.5585C6.46379 17.5585 6.46875 17.5585 6.47372 17.5585C6.49856 17.5535 6.52342 17.5336 6.5433 17.5038C6.55324 17.4889 6.56318 17.469 6.57312 17.4442C6.57809 17.4342 6.57809 17.4293 6.58307 17.4193C6.593 17.3895 6.59797 17.3597 6.60791 17.3249C6.61288 17.3001 6.61289 17.2752 6.61786 17.2504C6.61786 17.2404 6.61786 17.2305 6.61786 17.2206C6.61786 17.1957 6.61785 17.1709 6.61288 17.146C6.61288 17.1261 6.6079 17.1112 6.60293 17.0913C6.59796 17.0615 6.593 17.0317 6.58307 17.0069C6.58307 17.0019 6.57809 16.9969 6.57809 16.9969C6.54827 16.9224 6.49858 16.8677 6.45882 16.8677C6.41907 16.8677 6.3644 16.9224 6.33956 16.9969C6.33956 17.0019 6.33458 17.0069 6.33458 17.0069C6.32464 17.0317 6.31968 17.0615 6.31471 17.0913C6.30974 17.1062 6.30974 17.1261 6.30974 17.141C6.30477 17.1659 6.30477 17.1957 6.30477 17.2206C6.30477 17.2255 6.30477 17.2355 6.30477 17.2404C6.30477 17.2603 6.30974 17.2852 6.30974 17.305C6.31471 17.3398 6.31967 17.3696 6.32961 17.3995C6.33458 17.4144 6.33956 17.4293 6.34453 17.4392C6.3495 17.4541 6.35943 17.469 6.3644 17.479C6.38428 17.5138 6.40415 17.5386 6.42403 17.5485ZM11.3241 16.6739C11.2545 16.2664 11.1552 15.8688 11.0061 15.5358C10.7675 14.9991 10.4097 14.6214 9.84813 14.6612C9.1325 14.7109 8.74983 15.3271 8.53614 16.0775C8.4765 16.2912 8.42681 16.5099 8.39203 16.7385L8.61567 16.7484C8.62064 16.7286 8.62062 16.7087 8.62559 16.6838C8.64546 16.6143 8.71008 16.4304 8.88899 16.4751C8.97845 16.5 9.07286 16.5149 9.15734 16.5496C9.29152 16.6043 9.41576 16.6789 9.52509 16.7484C9.5897 16.7882 9.64933 16.8279 9.70897 16.8727C9.74872 16.823 9.79843 16.7932 9.84316 16.7932C9.88292 16.7932 9.93262 16.818 9.97237 16.8627C10.027 16.823 10.0817 16.7882 10.1364 16.7534C10.2457 16.6838 10.37 16.6093 10.5091 16.5546C10.5936 16.5198 10.688 16.5198 10.7725 16.4801C10.9365 16.4105 11.016 16.6192 11.0359 16.6888C11.0359 16.6938 11.0359 16.6938 11.0408 16.6987L11.3241 16.6739ZM6.33458 17.633C6.31967 17.7324 6.26005 18.1002 6.13084 18.4729C6.06126 18.6617 5.97677 18.8556 5.87241 19.0196L5.86743 19.0245L5.87241 19.0295C5.87738 19.0345 5.88233 19.0394 5.8873 19.0394C5.93203 19.0693 6.01154 19.0891 6.10099 19.104C6.26499 19.1339 6.4638 19.1488 6.55822 19.1587C6.55822 19.1339 6.55324 19.0941 6.54827 19.0494C6.53336 18.8804 6.51349 18.5971 6.48864 18.3238C6.46379 18.0505 6.44392 17.7871 6.43398 17.6678C6.40416 17.6628 6.37929 17.6479 6.34948 17.6281L6.33458 17.633ZM8.52619 17.797C8.51128 17.7821 8.50137 17.7622 8.49143 17.7473C8.44173 17.6678 8.42184 17.5833 8.44669 17.4839C8.4616 17.4243 8.49637 17.3647 8.53116 17.305C8.56098 17.2603 8.59579 17.2106 8.61567 17.1659C8.62561 17.146 8.63057 17.1212 8.63554 17.0963C8.64547 17.0118 8.63055 16.9373 8.62061 16.8677C8.62061 16.8578 8.62064 16.8478 8.61567 16.8379H8.3771C8.33238 17.1559 8.30754 17.474 8.29263 17.7772L8.52619 17.797ZM4.55544 16.6739C4.48586 16.2664 4.38646 15.8688 4.23737 15.5358C3.99883 14.9991 3.646 14.6214 3.07946 14.6612C2.36383 14.7109 1.98116 15.3271 1.76747 16.0775C1.70783 16.2912 1.65814 16.5099 1.62336 16.7385L1.84697 16.7484C1.85194 16.7286 1.85195 16.7087 1.86189 16.6838C1.88177 16.6143 1.94639 16.4304 2.12032 16.4751C2.20978 16.5 2.30419 16.5149 2.38867 16.5496C2.52285 16.6043 2.6471 16.6789 2.7614 16.7484C2.826 16.7882 2.88564 16.8279 2.94527 16.8727C2.98503 16.823 3.03474 16.7932 3.07946 16.7932C3.11922 16.7932 3.16892 16.818 3.20868 16.8627C3.26335 16.823 3.31799 16.7882 3.37266 16.7534C3.48199 16.6838 3.60623 16.6093 3.74538 16.5546C3.82986 16.5198 3.92431 16.5198 4.01376 16.4801C4.17776 16.4105 4.25228 16.6192 4.27216 16.6888C4.27216 16.6938 4.27714 16.6938 4.27714 16.6987L4.55544 16.6739ZM1.75752 17.797C1.74261 17.7821 1.73267 17.7622 1.72273 17.7473C1.67303 17.6678 1.65317 17.5833 1.67802 17.4839C1.69293 17.4243 1.7277 17.3647 1.76249 17.305C1.79231 17.2603 1.82709 17.2106 1.84697 17.1659C1.85691 17.146 1.8619 17.1212 1.86687 17.0963C1.87681 17.0118 1.86188 16.9373 1.85194 16.8677C1.85194 16.8578 1.85194 16.8478 1.84697 16.8379H1.60843C1.56371 17.1559 1.53887 17.474 1.52396 17.7772L1.75752 17.797ZM3.27823 16.9919C3.37762 16.9671 3.48201 16.9422 3.5814 16.9174C3.71558 16.8776 3.83982 16.8279 3.94418 16.7633C3.974 16.7484 4.02368 16.6888 4.0535 16.6341C4.05847 16.6242 4.06345 16.6143 4.06842 16.6043V16.5993C4.05848 16.5944 4.03861 16.5944 4.01376 16.5993C3.92928 16.6093 3.84479 16.6341 3.76528 16.6639C3.6311 16.7136 3.51181 16.7832 3.40247 16.8478C3.35278 16.8776 3.30309 16.9075 3.25339 16.9423C3.26333 16.9522 3.26829 16.9721 3.27823 16.9919ZM6.66257 16.9919C6.76196 16.9671 6.86634 16.9422 6.96076 16.9174C7.09494 16.8776 7.21917 16.8279 7.31856 16.7633C7.34838 16.7484 7.39809 16.6888 7.42791 16.6341C7.43288 16.6242 7.43784 16.6143 7.44281 16.6043C7.44281 16.6043 7.44281 16.5993 7.44778 16.5993C7.43784 16.5944 7.41797 16.5944 7.39312 16.5993C7.30864 16.6093 7.22415 16.6341 7.14464 16.6639C7.01543 16.7136 6.89614 16.7832 6.78681 16.8478C6.73711 16.8776 6.68742 16.9075 6.63772 16.9423C6.64269 16.9522 6.65263 16.9721 6.66257 16.9919ZM5.36052 17.9064H5.36549C5.4947 17.8915 5.62392 17.8616 5.74319 17.8268C5.79289 17.8119 5.84258 17.797 5.89228 17.7772C5.96682 17.7473 6.03639 17.7175 6.10597 17.6778C6.1656 17.643 6.22028 17.6032 6.26997 17.5635C6.27991 17.5585 6.28488 17.5485 6.29482 17.5436C6.27991 17.5187 6.26502 17.4839 6.25508 17.4492C6.22526 17.469 6.19544 17.4889 6.16066 17.5088C6.09605 17.5485 6.02646 17.5833 5.95688 17.6132C5.91216 17.633 5.86247 17.6479 5.81277 17.6628C5.7432 17.6827 5.66865 17.6976 5.59411 17.7026C5.5792 17.7076 5.56429 17.6927 5.55932 17.6678C5.55435 17.6479 5.56925 17.6281 5.58416 17.6231C5.6438 17.6082 5.70345 17.5883 5.75812 17.5684C5.81278 17.5485 5.8724 17.5237 5.92707 17.4988C5.99664 17.469 6.06126 17.4342 6.12586 17.3995C6.16065 17.3796 6.19542 17.3597 6.23021 17.3448C6.22524 17.31 6.22029 17.2752 6.22029 17.2404C6.16562 17.2454 6.11592 17.2454 6.06126 17.2454C6.00162 17.2454 5.94199 17.2404 5.88236 17.2355C5.7929 17.2255 5.7084 17.2056 5.61895 17.1858C5.60404 17.1808 5.58914 17.1659 5.59411 17.141C5.59411 17.1212 5.60902 17.1062 5.6289 17.1062C5.6935 17.1112 5.75314 17.1162 5.81775 17.1162C5.85751 17.1162 5.90223 17.1212 5.94199 17.1212C5.96187 17.1212 5.98175 17.1212 6.0066 17.1212C6.05629 17.1212 6.10598 17.1261 6.15071 17.1261C6.17556 17.1261 6.20039 17.1261 6.22523 17.1261C6.2302 17.1062 6.23021 17.0814 6.23518 17.0615C6.12585 17.0416 6.02148 17.0218 5.91712 16.9969C5.77797 16.9621 5.64878 16.9124 5.53447 16.8429C5.50963 16.8279 5.47483 16.7882 5.43508 16.7435C5.40526 16.7037 5.37543 16.654 5.36549 16.6093C5.34064 16.6391 5.33072 16.6689 5.32078 16.6938C5.30587 16.7534 5.31579 16.8081 5.32573 16.8677C5.33567 16.9373 5.34562 17.0069 5.33568 17.0864C5.33071 17.1261 5.32077 17.1609 5.30586 17.1957C5.28101 17.2504 5.24622 17.305 5.21143 17.3547C5.18162 17.3995 5.15676 17.4442 5.14185 17.4939C5.12694 17.5535 5.13691 17.6082 5.16672 17.6628C5.22139 17.7622 5.29094 17.8368 5.36052 17.9064ZM10.0469 16.9919C10.1463 16.9671 10.2507 16.9422 10.3501 16.9174C10.4843 16.8776 10.6085 16.8279 10.7128 16.7633C10.7427 16.7484 10.7923 16.6888 10.8222 16.6341C10.8271 16.6242 10.8321 16.6143 10.8321 16.6043L10.8371 16.5993C10.8272 16.5944 10.8073 16.5944 10.7824 16.5993C10.6979 16.6093 10.6135 16.6341 10.5339 16.6639C10.3998 16.7136 10.2805 16.7832 10.1711 16.8478C10.1165 16.8776 10.0718 16.9075 10.0221 16.9423C10.032 16.9522 10.037 16.9721 10.0469 16.9919ZM2.95025 17.633C2.93534 17.7324 2.87571 18.1002 2.74153 18.4729C2.67195 18.6617 2.58746 18.8556 2.4831 19.0196L2.47812 19.0245L2.4831 19.0295C2.48807 19.0345 2.49302 19.0394 2.49799 19.0394C2.54272 19.0693 2.62223 19.0891 2.71666 19.104C2.88563 19.1339 3.08444 19.1488 3.17886 19.1587C3.17886 19.1339 3.17388 19.0941 3.16891 19.0494C3.154 18.8804 3.12916 18.5971 3.10928 18.3238C3.0894 18.0505 3.0695 17.7871 3.05957 17.6678C3.02975 17.6628 2.99994 17.6479 2.97509 17.6281L2.95025 17.633ZM10.0022 17.5635C10.0072 17.5684 10.0121 17.5684 10.0171 17.5734C10.0668 17.6132 10.1215 17.6529 10.1811 17.6877C10.2457 17.7275 10.3202 17.7573 10.3948 17.7871C10.4445 17.807 10.4942 17.8219 10.5439 17.8368C10.6681 17.8716 10.7924 17.8964 10.9265 17.9163H10.9315C11.0011 17.8467 11.0707 17.7722 11.1104 17.6976C11.1402 17.643 11.1502 17.5883 11.1353 17.5287C11.1203 17.479 11.0905 17.4342 11.0607 17.3895C11.0259 17.3349 10.9912 17.2852 10.9663 17.2305C10.9514 17.1957 10.9415 17.1609 10.9365 17.1212C10.9265 17.0416 10.9414 16.9671 10.9514 16.9025C10.9613 16.8429 10.9713 16.7832 10.9564 16.7286C10.9464 16.6987 10.9365 16.6689 10.9116 16.6441C10.9017 16.6838 10.8719 16.7335 10.8371 16.7783C10.8023 16.823 10.7625 16.8627 10.7377 16.8776C10.6284 16.9472 10.4942 16.9919 10.3501 17.0317C10.2556 17.0566 10.1562 17.0764 10.0568 17.0963C10.0618 17.1162 10.0618 17.141 10.0668 17.1609C10.0817 17.1609 10.1016 17.1609 10.1165 17.1609C10.1662 17.1609 10.2159 17.1559 10.2656 17.1559C10.2854 17.1559 10.3053 17.1559 10.3252 17.1559C10.3699 17.1559 10.4097 17.151 10.4494 17.151C10.514 17.146 10.5737 17.146 10.6383 17.141C10.6532 17.1361 10.6731 17.1559 10.6731 17.1758C10.6781 17.1957 10.6631 17.2156 10.6482 17.2206C10.5588 17.2404 10.4693 17.2603 10.3849 17.2702C10.3252 17.2752 10.2656 17.2802 10.2059 17.2802C10.1612 17.2802 10.1165 17.2802 10.0718 17.2802C10.0718 17.3199 10.0668 17.3597 10.0618 17.3945C10.0916 17.4094 10.1165 17.4243 10.1463 17.4392C10.2109 17.474 10.2805 17.5038 10.3501 17.5386C10.4047 17.5635 10.4594 17.5883 10.519 17.6082C10.5737 17.6281 10.6333 17.6479 10.693 17.6628C10.7079 17.6678 10.7228 17.6827 10.7178 17.7076C10.7178 17.7275 10.7029 17.7424 10.683 17.7424C10.6085 17.7324 10.5339 17.7225 10.4594 17.7026C10.4097 17.6877 10.36 17.6728 10.3153 17.6529C10.2407 17.6231 10.1761 17.5833 10.1066 17.5485C10.0817 17.5336 10.0519 17.5187 10.032 17.5038C10.0221 17.5336 10.0121 17.5585 9.99722 17.5784C10.0121 17.5535 10.0072 17.5585 10.0022 17.5635ZM2.87569 16.9919C2.88066 16.9721 2.89062 16.9572 2.89559 16.9373C2.84092 16.9025 2.78127 16.8627 2.72163 16.8279C2.6123 16.7633 2.49304 16.6938 2.35886 16.6441C2.27934 16.6143 2.19486 16.5894 2.11037 16.5795C2.0905 16.5745 2.07063 16.5795 2.06069 16.5795V16.5844C2.06566 16.5944 2.07061 16.6043 2.07558 16.6143C2.1054 16.6689 2.15511 16.7286 2.18493 16.7435C2.28929 16.8081 2.41353 16.8578 2.54771 16.8975C2.65704 16.9422 2.76636 16.9671 2.87569 16.9919ZM6.56814 17.643C6.56814 17.643 6.56319 17.638 6.55822 17.638C6.54331 17.6529 6.52342 17.6628 6.50851 17.6678C6.51845 17.7871 6.54827 18.0505 6.57312 18.3238C6.59796 18.5922 6.62779 18.8754 6.6427 19.0494V19.0643L7.0204 18.9649C7.00052 18.9053 6.9558 18.781 6.90113 18.6369C6.87131 18.5624 6.8415 18.4779 6.81168 18.3884C6.78186 18.3039 6.75699 18.2194 6.72717 18.1399C6.67748 17.9958 6.63772 17.8616 6.60791 17.7672C6.58803 17.7076 6.57311 17.6628 6.56814 17.643ZM3.0397 17.5485C3.04964 17.5535 3.06455 17.5585 3.07449 17.5585C3.07946 17.5585 3.08441 17.5585 3.08938 17.5585C3.11423 17.5535 3.13909 17.5336 3.15896 17.5038C3.1689 17.4889 3.17884 17.469 3.18878 17.4442C3.19375 17.4342 3.19376 17.4293 3.19873 17.4193C3.20867 17.3895 3.2186 17.3597 3.22357 17.3249C3.22854 17.3001 3.23352 17.2752 3.23352 17.2504C3.23352 17.2404 3.23352 17.2305 3.23352 17.2206C3.23352 17.1957 3.23352 17.1709 3.22855 17.146C3.22855 17.1261 3.22357 17.1112 3.22357 17.0913C3.2186 17.0615 3.20867 17.0317 3.19873 17.0069C3.19873 17.0019 3.19376 16.9969 3.19376 16.9969C3.16394 16.9224 3.11425 16.8677 3.07449 16.8677C3.03473 16.8677 2.98007 16.9224 2.95522 16.9969C2.95522 17.0019 2.95025 17.0069 2.95025 17.0069C2.94031 17.0317 2.93535 17.0615 2.93038 17.0913C2.92541 17.1062 2.9254 17.1261 2.92043 17.141C2.92043 17.1659 2.91546 17.1957 2.92043 17.2206C2.92043 17.2255 2.92043 17.2355 2.92043 17.2404C2.92043 17.2603 2.92541 17.2852 2.92541 17.305C2.93037 17.3398 2.93533 17.3696 2.94527 17.3995C2.95024 17.4144 2.95523 17.4293 2.9602 17.4392C2.96517 17.4541 2.97012 17.469 2.98006 17.479C2.99994 17.5138 3.01982 17.5386 3.0397 17.5485ZM1.96626 17.9064H1.97121C2.10042 17.8915 2.22964 17.8616 2.35388 17.8268C2.40358 17.8119 2.45327 17.797 2.50297 17.7772C2.57751 17.7473 2.65205 17.7175 2.71666 17.6778C2.77629 17.643 2.83097 17.6032 2.88066 17.5635C2.8906 17.5585 2.89557 17.5485 2.90551 17.5436C2.8906 17.5187 2.87571 17.4839 2.86577 17.4492C2.83595 17.469 2.80613 17.4889 2.77135 17.5088C2.70674 17.5485 2.63714 17.5833 2.5626 17.6132C2.51787 17.633 2.46819 17.6479 2.41849 17.6628C2.34892 17.6827 2.27436 17.6976 2.19485 17.7026C2.17994 17.7076 2.16503 17.6927 2.16006 17.6678C2.16006 17.6479 2.17002 17.6281 2.18493 17.6231C2.24457 17.6082 2.30419 17.5883 2.35886 17.5684C2.41849 17.5485 2.47317 17.5237 2.52784 17.4988C2.59741 17.469 2.66698 17.4342 2.73158 17.3995C2.76637 17.3796 2.80117 17.3597 2.83595 17.3448C2.83099 17.31 2.82601 17.2752 2.82601 17.2404C2.77134 17.2454 2.72164 17.2454 2.66697 17.2454C2.60734 17.2454 2.54771 17.2404 2.48807 17.2355C2.39862 17.2255 2.31412 17.2056 2.22467 17.1858C2.20976 17.1808 2.19485 17.1659 2.19982 17.141C2.19982 17.1212 2.21474 17.1062 2.23462 17.1062C2.29922 17.1112 2.35886 17.1162 2.42346 17.1162C2.46322 17.1162 2.50795 17.1212 2.54771 17.1212C2.56758 17.1212 2.59244 17.1212 2.61231 17.1212C2.66201 17.1212 2.7117 17.1261 2.7614 17.1261C2.78625 17.1261 2.81111 17.1261 2.83595 17.1261C2.84092 17.1062 2.8409 17.0814 2.84587 17.0615C2.73654 17.0416 2.62723 17.0218 2.52286 16.9969C2.38371 16.9621 2.24952 16.9124 2.14019 16.8429C2.11534 16.8279 2.07558 16.7882 2.04079 16.7435C2.006 16.7037 1.98115 16.654 1.97121 16.6093C1.94636 16.6391 1.93644 16.6689 1.9265 16.6938C1.91159 16.7534 1.92153 16.8081 1.93147 16.8677C1.94141 16.9373 1.95134 17.0069 1.94637 17.0864C1.9414 17.1261 1.93146 17.1609 1.91655 17.1957C1.8917 17.2504 1.85691 17.305 1.82213 17.3547C1.79231 17.3995 1.76251 17.4442 1.7476 17.4939C1.72772 17.5535 1.74262 17.6082 1.77244 17.6628C1.82711 17.7622 1.89669 17.8368 1.96626 17.9064ZM8.73493 17.9064H8.73991C8.86912 17.8915 8.99831 17.8616 9.12255 17.8268C9.17225 17.8119 9.22194 17.797 9.27164 17.7772C9.34618 17.7473 9.42075 17.7175 9.48536 17.6778C9.54499 17.643 9.59964 17.6032 9.64933 17.5635C9.65927 17.5585 9.66424 17.5485 9.67418 17.5436C9.65927 17.5187 9.64438 17.4839 9.63444 17.4492C9.60462 17.469 9.5748 17.4889 9.54002 17.5088C9.47541 17.5485 9.40581 17.5833 9.33127 17.6132C9.28654 17.633 9.23686 17.6479 9.18716 17.6628C9.11759 17.6827 9.04303 17.6976 8.96352 17.7026C8.94861 17.7076 8.92873 17.6927 8.92873 17.6678C8.92873 17.643 8.93869 17.6281 8.9536 17.6231C9.01324 17.6082 9.07286 17.5883 9.12753 17.5684C9.18716 17.5485 9.24184 17.5237 9.29651 17.4988C9.36608 17.469 9.43565 17.4342 9.50025 17.3995C9.53504 17.3796 9.56984 17.3597 9.60462 17.3448C9.59966 17.31 9.59468 17.2752 9.59468 17.2404C9.54001 17.2454 9.49031 17.2454 9.43564 17.2454C9.37601 17.2454 9.31638 17.2404 9.25674 17.2355C9.16729 17.2255 9.07785 17.2056 8.98839 17.1858C8.97348 17.1808 8.95855 17.1659 8.96352 17.141C8.96849 17.1212 8.9834 17.1062 8.99831 17.1062C9.06292 17.1112 9.12752 17.1162 9.18716 17.1162C9.23189 17.1162 9.27164 17.1212 9.3114 17.1212C9.33128 17.1212 9.35116 17.1212 9.37601 17.1212C9.42571 17.1212 9.47539 17.1261 9.52012 17.1261C9.54497 17.1261 9.56983 17.1261 9.59468 17.1261C9.59964 17.1062 9.59966 17.0814 9.60462 17.0615C9.49529 17.0416 9.39092 17.0218 9.28656 16.9969C9.14741 16.9621 9.01322 16.9124 8.90389 16.8429C8.87904 16.8279 8.83927 16.7882 8.80449 16.7435C8.7697 16.7037 8.74487 16.654 8.73493 16.6093C8.71009 16.6391 8.70013 16.6689 8.69019 16.6938C8.67529 16.7534 8.68523 16.8081 8.69517 16.8677C8.70511 16.9373 8.71506 17.0069 8.70512 17.0864C8.70015 17.1261 8.69021 17.1609 8.6753 17.1957C8.65045 17.2504 8.62061 17.305 8.58582 17.3547C8.556 17.3995 8.5262 17.4442 8.51129 17.4939C8.49142 17.5535 8.50632 17.6082 8.53614 17.6628C8.59577 17.7622 8.66039 17.8368 8.73493 17.9064ZM7.72111 17.8368L8.04415 17.8467C8.02924 17.5436 7.99942 17.2156 7.95469 16.8926C7.94973 16.8528 7.94474 16.818 7.93977 16.7783L7.6565 16.7932C7.6565 16.823 7.65155 16.8478 7.65155 16.8776C7.64161 16.9472 7.6267 17.0218 7.6416 17.1062C7.64657 17.1311 7.65153 17.151 7.66147 17.1758C7.68135 17.2255 7.71616 17.2702 7.74598 17.315C7.78077 17.3696 7.81554 17.4293 7.83045 17.4939C7.8553 17.5883 7.83541 17.6778 7.78571 17.7573C7.76583 17.7821 7.74098 17.807 7.72111 17.8368ZM3.23352 17.5635C3.23849 17.5684 3.24344 17.5684 3.24841 17.5734C3.29811 17.6132 3.35279 17.6529 3.41242 17.6877C3.47703 17.7275 3.55157 17.7573 3.62611 17.7871C3.67581 17.807 3.7255 17.8219 3.7752 17.8368C3.89944 17.8716 4.02369 17.8964 4.15787 17.9163H4.16284C4.23242 17.8467 4.30199 17.7722 4.34174 17.6976C4.37156 17.643 4.38647 17.5883 4.36659 17.5287C4.35168 17.479 4.32188 17.4342 4.29206 17.3895C4.25727 17.3349 4.22248 17.2852 4.19764 17.2305C4.18273 17.1957 4.17279 17.1609 4.16782 17.1212C4.15788 17.0416 4.17277 16.9671 4.18271 16.9025C4.19265 16.8429 4.2026 16.7832 4.18769 16.7286C4.17775 16.6987 4.16783 16.6689 4.14298 16.6441C4.13304 16.6838 4.10321 16.7335 4.07339 16.7783C4.03861 16.823 3.99884 16.8627 3.974 16.8776C3.86466 16.9472 3.73047 16.9919 3.59132 17.0317C3.49193 17.0566 3.39255 17.0764 3.29315 17.0963C3.29812 17.1162 3.3031 17.141 3.3031 17.1609C3.31801 17.1609 3.33788 17.1609 3.35279 17.1609C3.40248 17.1609 3.45218 17.1559 3.50187 17.1559C3.52175 17.1559 3.54163 17.1559 3.56648 17.1559C3.60624 17.1559 3.65096 17.151 3.69072 17.151C3.75533 17.146 3.81497 17.146 3.87957 17.141C3.89448 17.1361 3.91436 17.1559 3.91436 17.1758C3.91933 17.1957 3.90443 17.2156 3.88952 17.2206C3.80007 17.2404 3.7106 17.2603 3.62611 17.2702C3.56648 17.2752 3.50685 17.2802 3.44721 17.2802C3.40249 17.2802 3.35775 17.2802 3.31302 17.2802C3.31302 17.3199 3.30807 17.3597 3.3031 17.3945C3.33292 17.4094 3.36273 17.4243 3.38758 17.4392C3.45218 17.474 3.52175 17.5038 3.59132 17.5386C3.64599 17.5635 3.70067 17.5883 3.7603 17.6082C3.81497 17.6281 3.87459 17.6479 3.93423 17.6628C3.94914 17.6678 3.96404 17.6827 3.95907 17.7076C3.9541 17.7275 3.93922 17.7424 3.92431 17.7424C3.84977 17.7324 3.77521 17.7225 3.70067 17.7026C3.65097 17.6877 3.60126 17.6728 3.55653 17.6529C3.48199 17.6231 3.41739 17.5833 3.34781 17.5485C3.32297 17.5336 3.29317 17.5187 3.27329 17.5038C3.26335 17.5336 3.2534 17.5585 3.2385 17.5784C3.24347 17.5535 3.23849 17.5585 3.23352 17.5635ZM5.1518 17.797C5.13689 17.7821 5.12695 17.7622 5.11701 17.7473C5.06731 17.6678 5.04745 17.5833 5.0723 17.4839C5.08721 17.4243 5.12199 17.3647 5.15678 17.305C5.18659 17.2603 5.2164 17.2106 5.24125 17.1659C5.25119 17.146 5.25618 17.1212 5.26115 17.0963C5.27109 17.0118 5.25617 16.9373 5.2512 16.8677C5.2512 16.8578 5.24623 16.8478 5.24623 16.8379H5.00769C4.96297 17.1559 4.9381 17.474 4.92816 17.7772L5.1518 17.797ZM6.265 16.9919C6.26997 16.9721 6.27993 16.9572 6.2849 16.9373C6.23023 16.9025 6.17058 16.8627 6.11592 16.8279C6.01155 16.7633 5.88733 16.6938 5.75812 16.6441C5.6786 16.6143 5.59412 16.5894 5.50963 16.5795C5.48478 16.5745 5.46986 16.5795 5.45992 16.5795C5.45992 16.5795 5.45992 16.5844 5.46489 16.5844C5.46986 16.5944 5.46987 16.6043 5.47484 16.6143C5.50466 16.6689 5.55434 16.7286 5.58416 16.7435C5.68852 16.8081 5.81278 16.8578 5.94199 16.8975C6.04635 16.9422 6.15567 16.9671 6.265 16.9919ZM9.80837 17.5485C9.81831 17.5535 9.83322 17.5585 9.84316 17.5585C9.84813 17.5585 9.85311 17.5585 9.85808 17.5585C9.88293 17.5535 9.90775 17.5336 9.92763 17.5038C9.93757 17.4889 9.94751 17.469 9.95745 17.4442C9.96242 17.4342 9.96243 17.4293 9.9674 17.4193C9.97734 17.3895 9.9823 17.3597 9.99224 17.3249C9.99721 17.3001 9.99722 17.2752 10.0022 17.2504C10.0022 17.2404 10.0022 17.2305 10.0022 17.2206C10.0022 17.1957 10.0022 17.1709 9.99722 17.146C9.99722 17.1261 9.99224 17.1112 9.99224 17.0913C9.98727 17.0615 9.97734 17.0317 9.9674 17.0069C9.9674 17.0019 9.96243 16.9969 9.96243 16.9969C9.93261 16.9224 9.88292 16.8677 9.84316 16.8677C9.8034 16.8677 9.74874 16.9224 9.72389 16.9969C9.72389 17.0019 9.71892 17.0069 9.71892 17.0069C9.70898 17.0317 9.70402 17.0615 9.69905 17.0913C9.69905 17.1062 9.69407 17.1261 9.69407 17.141C9.69407 17.1659 9.6891 17.1957 9.6891 17.2206C9.6891 17.2255 9.6891 17.2355 9.6891 17.2404C9.6891 17.2603 9.69407 17.2852 9.69407 17.305C9.69904 17.3398 9.704 17.3696 9.71394 17.3995C9.71891 17.4144 9.7239 17.4293 9.72887 17.4392C9.73384 17.4541 9.73879 17.469 9.74873 17.479C9.76861 17.5138 9.78849 17.5386 9.80837 17.5485ZM4.34672 17.8368L4.6747 17.8467C4.65979 17.5436 4.62998 17.2156 4.58525 16.8926C4.58028 16.8528 4.57533 16.818 4.57036 16.7783L4.28211 16.7932C4.28211 16.823 4.28211 16.8478 4.27714 16.8776C4.2672 16.9472 4.2523 17.0218 4.26224 17.1062C4.26721 17.1311 4.27217 17.151 4.28211 17.1758C4.30199 17.2255 4.33677 17.2702 4.36659 17.315C4.40137 17.3696 4.43618 17.4293 4.45109 17.4939C4.47594 17.5883 4.45605 17.6778 4.40635 17.7573C4.39144 17.7821 4.37157 17.807 4.34672 17.8368ZM9.95248 17.643C9.95248 17.643 9.94753 17.638 9.94256 17.638C9.92765 17.6529 9.90778 17.6628 9.8879 17.6678C9.89784 17.7871 9.92763 18.0505 9.95248 18.3238C9.98229 18.5922 10.0071 18.8754 10.0221 19.0494V19.0643L10.3998 18.9649C10.3799 18.9053 10.3302 18.781 10.2805 18.6369C10.2507 18.5624 10.2209 18.4779 10.191 18.3884C10.1612 18.3039 10.1364 18.2194 10.1066 18.1399C10.0569 17.9958 10.0121 17.8616 9.98232 17.7672C9.97238 17.7076 9.95745 17.6628 9.95248 17.643ZM7.92488 16.6739C7.8553 16.2664 7.75591 15.8688 7.61179 15.5358C7.37821 14.9991 7.02537 14.6214 6.46877 14.6612C5.75811 14.7109 5.38039 15.3271 5.17167 16.0775C5.11203 16.2912 5.06732 16.5099 5.03253 16.7385L5.25618 16.7484C5.25618 16.7286 5.26112 16.7087 5.26609 16.6838C5.28597 16.6143 5.35059 16.4304 5.52453 16.4751C5.61398 16.5 5.70345 16.5149 5.78793 16.5496C5.92211 16.6043 6.04635 16.6789 6.15568 16.7484C6.22029 16.7882 6.27992 16.8279 6.33956 16.8727C6.37931 16.823 6.42899 16.7932 6.47372 16.7932C6.51347 16.7932 6.56318 16.818 6.60293 16.8627C6.6576 16.823 6.71227 16.7882 6.76694 16.7534C6.87627 16.6838 7.00051 16.6093 7.13469 16.5546C7.21917 16.5198 7.30864 16.5198 7.3981 16.4801C7.56209 16.4105 7.63662 16.6192 7.6565 16.6888C7.6565 16.6938 7.66147 16.6938 7.66147 16.6987L7.92488 16.6739ZM6.61786 17.5635C6.62283 17.5684 6.62781 17.5684 6.62781 17.5734C6.6775 17.6132 6.73215 17.6529 6.79178 17.6877C6.85639 17.7275 6.93093 17.7573 7.00547 17.7871C7.05517 17.807 7.10489 17.8219 7.15459 17.8368C7.27386 17.8716 7.40304 17.8964 7.53226 17.9163H7.53723C7.60681 17.8467 7.67637 17.7722 7.71613 17.6976C7.74595 17.643 7.75591 17.5883 7.741 17.5287C7.73106 17.479 7.70124 17.4342 7.67142 17.3895C7.63663 17.3349 7.60184 17.2852 7.577 17.2305C7.56209 17.1957 7.55215 17.1609 7.54718 17.1212C7.53724 17.0416 7.55213 16.9671 7.56207 16.9025C7.57201 16.8429 7.58196 16.7832 7.56705 16.7286C7.55711 16.6987 7.54719 16.6689 7.52234 16.6441C7.5124 16.6838 7.48257 16.7335 7.45275 16.7783C7.41797 16.823 7.3782 16.8627 7.35336 16.8776C7.24402 16.9472 7.10983 16.9919 6.97068 17.0317C6.87626 17.0566 6.77688 17.0764 6.67749 17.0963C6.68246 17.1162 6.68744 17.141 6.68744 17.1609C6.70235 17.1609 6.72221 17.1609 6.73712 17.1609C6.78682 17.1609 6.83651 17.1559 6.88123 17.1559C6.90111 17.1559 6.92099 17.1559 6.94584 17.1559C6.9856 17.1559 7.03032 17.151 7.07008 17.151C7.12972 17.146 7.19433 17.146 7.25893 17.141C7.27384 17.1361 7.28875 17.1559 7.29372 17.1758C7.29869 17.1957 7.28379 17.2156 7.26888 17.2206C7.17943 17.2404 7.09493 17.2603 7.00547 17.2702C6.94584 17.2752 6.88621 17.2802 6.82657 17.2802C6.78185 17.2802 6.73711 17.2802 6.69238 17.2802C6.69238 17.3199 6.68743 17.3597 6.68246 17.3945C6.71228 17.4094 6.73712 17.4243 6.76694 17.4392C6.83155 17.474 6.89616 17.5038 6.96574 17.5386C7.0204 17.5635 7.07505 17.5883 7.13469 17.6082C7.18936 17.6281 7.24901 17.6479 7.30865 17.6628C7.32355 17.6678 7.33846 17.6827 7.33349 17.7076C7.32852 17.7275 7.31361 17.7424 7.2987 17.7424C7.22415 17.7324 7.14961 17.7225 7.08003 17.7026C7.03033 17.6877 6.98065 17.6728 6.93592 17.6529C6.86635 17.6231 6.79675 17.5833 6.73215 17.5485C6.7073 17.5336 6.6775 17.5187 6.65762 17.5038C6.64768 17.5336 6.63774 17.5585 6.62283 17.5784C6.62283 17.5535 6.62283 17.5585 6.61786 17.5635ZM9.71892 17.633C9.70401 17.7324 9.64438 18.1002 9.5102 18.4729C9.44062 18.6617 9.35613 18.8556 9.24679 19.0196V19.0245C9.24679 19.0245 9.2468 19.0295 9.25177 19.0295C9.25674 19.0345 9.26172 19.0394 9.26669 19.0394C9.31142 19.0693 9.3959 19.0891 9.48536 19.104C9.64936 19.1339 9.85311 19.1488 9.94753 19.1587C9.94256 19.1339 9.94255 19.0941 9.93758 19.0494C9.92267 18.8804 9.89783 18.5971 9.87795 18.3238C9.85807 18.0505 9.83323 17.7871 9.82329 17.6678C9.79347 17.6628 9.76363 17.6479 9.73878 17.6281L9.71892 17.633ZM9.64436 16.9919C9.64933 16.9721 9.65929 16.9572 9.66426 16.9373C9.60959 16.9025 9.54994 16.8627 9.4903 16.8279C9.38097 16.7633 9.26171 16.6938 9.12753 16.6441C9.04801 16.6143 8.96353 16.5894 8.87904 16.5795C8.8542 16.5745 8.83929 16.5795 8.82438 16.5795L8.82936 16.5844C8.83433 16.5944 8.83928 16.6043 8.84425 16.6143C8.87407 16.6689 8.92378 16.7286 8.9536 16.7435C9.05796 16.8081 9.18219 16.8578 9.31638 16.8975C9.42571 16.9422 9.53503 16.9671 9.64436 16.9919ZM3.18381 17.643L3.17886 17.638C3.16395 17.6529 3.14405 17.6628 3.12417 17.6678C3.13411 17.7871 3.16393 18.0505 3.18878 18.3238C3.2186 18.5922 3.24345 18.8754 3.25836 19.0494V19.0643L3.63606 18.9649C3.61618 18.9053 3.56649 18.781 3.5168 18.6369C3.48698 18.5624 3.45716 18.4779 3.42735 18.3884C3.39753 18.3039 3.36769 18.2194 3.34284 18.1399C3.29314 17.9958 3.24842 17.8616 3.22357 17.7672C3.20369 17.7076 3.18878 17.6628 3.18381 17.643ZM11.1154 17.8368L11.4434 17.8467C11.4285 17.5436 11.3987 17.2156 11.3539 16.8926C11.349 16.8528 11.344 16.818 11.3341 16.7783L11.0458 16.7932C11.0458 16.823 11.0458 16.8478 11.0408 16.8776C11.0309 16.9472 11.016 17.0218 11.0309 17.1062C11.0359 17.1311 11.0408 17.151 11.0508 17.1758C11.0707 17.2255 11.1054 17.2702 11.1353 17.315C11.17 17.3696 11.2049 17.4293 11.2198 17.4939C11.2446 17.5883 11.2247 17.6778 11.175 17.7573C11.1601 17.7821 11.1402 17.807 11.1154 17.8368ZM7.8553 11.0582C7.84039 11.0731 7.81057 11.0731 7.79566 11.0582C7.78075 11.0383 7.78076 11.0135 7.80064 10.9936C7.80064 10.9936 8.00935 10.7699 8.34729 10.6109C8.52619 10.5264 8.7399 10.4618 8.97844 10.4618C9.13747 10.4618 9.31142 10.4867 9.48536 10.5562C9.69408 10.6407 9.91274 10.7848 10.1314 11.0085C10.1463 11.0234 10.1463 11.0482 10.1364 11.0681C10.1215 11.083 10.1016 11.088 10.0867 11.0731C9.868 10.8693 9.6543 10.7451 9.45551 10.6705C9.29151 10.6109 9.12753 10.5861 8.97844 10.5861C8.75481 10.5861 8.55602 10.6407 8.38705 10.7153C8.05906 10.8544 7.8553 11.0582 7.8553 11.0582ZM9.79842 1.90904C10.2159 1.90904 11.9901 1.90407 13.7642 1.90407C15.4887 1.90407 17.2181 1.90904 17.6952 1.90904L17.6604 0.666627L9.82329 0.676565L9.79842 1.90904ZM26.7201 19.9588C26.735 19.8694 26.745 19.6954 26.745 19.4619C26.7499 18.3984 26.6058 16.1024 26.248 14.035C25.9647 12.39 25.5473 10.8942 24.9608 10.2928L24.9559 10.2978C24.1508 9.48777 22.6152 9.07032 21.0696 9.08025C19.5738 9.09019 18.0729 9.50268 17.2231 10.3773C16.5919 11.0284 16.1844 12.4994 15.9161 14.1046C15.4936 16.5993 15.4141 19.4122 15.4042 20.0284C16.1695 20.0284 20.2794 20.0383 23.3507 20.0185C25.0304 20.0085 26.4021 19.9936 26.7201 19.9588ZM22.8189 14.4574C22.8189 14.4624 22.8189 14.4674 22.8139 14.4773C22.8139 14.4773 22.7345 14.4972 22.7394 14.4425C22.7444 14.4226 22.7494 14.3878 22.7593 14.3381C22.804 14.1394 22.9283 13.7219 23.1966 13.379C23.3159 13.2299 23.465 13.0908 23.6439 12.9963C23.8079 12.9119 23.9967 12.8622 24.2104 12.8572C24.5782 12.8522 24.8615 12.9963 25.0702 13.2001C25.5572 13.6722 25.6765 14.4674 25.6765 14.4674C25.6814 14.4922 25.6665 14.5171 25.6417 14.522C25.6168 14.527 25.597 14.5071 25.592 14.4823C25.592 14.4823 25.4727 13.7269 24.9956 13.2846C24.8018 13.1007 24.5484 12.9765 24.2104 12.9814C23.8775 12.9864 23.624 13.1106 23.4252 13.2896C23.0674 13.6126 22.8985 14.0996 22.8388 14.3332C22.8239 14.3928 22.814 14.4326 22.809 14.4525C22.8189 14.4525 22.8189 14.4574 22.8189 14.4574ZM19.693 14.4574C19.693 14.4624 19.693 14.4674 19.688 14.4773C19.688 14.4773 19.6035 14.4972 19.6135 14.4425C19.6185 14.4226 19.6234 14.3878 19.6334 14.3381C19.6781 14.1394 19.8024 13.7219 20.0707 13.379C20.19 13.2299 20.3391 13.0908 20.518 12.9963C20.682 12.9119 20.8659 12.8622 21.0845 12.8572C21.4523 12.8522 21.7355 12.9963 21.9443 13.2001C22.4363 13.6722 22.5506 14.4674 22.5506 14.4674C22.5555 14.4922 22.5406 14.5171 22.5158 14.522C22.4909 14.527 22.4661 14.5071 22.4661 14.4823C22.4661 14.4823 22.3468 13.7269 21.8747 13.2846C21.6809 13.1007 21.4225 12.9765 21.0895 12.9814C20.7565 12.9864 20.5031 13.1106 20.3093 13.2896C19.9514 13.6126 19.7825 14.0996 19.7228 14.3332C19.7079 14.3928 19.698 14.4326 19.693 14.4525V14.4574ZM16.5671 14.4574C16.5671 14.4624 16.5671 14.4674 16.5621 14.4773C16.5621 14.4773 16.4826 14.4972 16.4876 14.4425C16.4926 14.4226 16.4975 14.3878 16.5075 14.3381C16.5522 14.1394 16.6764 13.7219 16.9448 13.379C17.0641 13.2299 17.2132 13.0908 17.3921 12.9963C17.5561 12.9119 17.74 12.8622 17.9586 12.8572C18.3264 12.8522 18.6096 12.9963 18.8184 13.2001C19.3054 13.6722 19.4247 14.4674 19.4247 14.4674C19.4296 14.4922 19.4147 14.5171 19.3899 14.522C19.365 14.527 19.3451 14.5071 19.3402 14.4823C19.3402 14.4823 19.2209 13.7269 18.7488 13.2846C18.555 13.1007 18.2966 12.9765 17.9636 12.9814C17.6306 12.9864 17.3772 13.1106 17.1784 13.2896C16.8206 13.6126 16.6516 14.0996 16.592 14.3332C16.5771 14.3928 16.5671 14.4326 16.5621 14.4525C16.5671 14.4525 16.5671 14.4574 16.5671 14.4574ZM25.1696 12.569C25.1696 12.569 25.0255 12.1366 24.6577 11.8434C24.4639 11.6893 24.2104 11.575 23.8824 11.58C23.7333 11.58 23.5992 11.6048 23.4849 11.6446C23.3457 11.6893 23.2215 11.7589 23.1221 11.8384C22.7493 12.1267 22.6102 12.5491 22.6102 12.5491C22.6052 12.569 22.5804 12.5839 22.5655 12.5739C22.5456 12.564 22.5357 12.5441 22.5456 12.5193C22.5456 12.5193 22.6798 12.062 23.0674 11.744C23.1767 11.6545 23.306 11.575 23.46 11.5253C23.5892 11.4806 23.7284 11.4557 23.8924 11.4557C24.2452 11.4557 24.5186 11.585 24.7223 11.7539C25.1099 12.072 25.2541 12.5391 25.2541 12.5391C25.264 12.564 25.2491 12.5888 25.2292 12.5988C25.1994 12.6087 25.1746 12.5938 25.1696 12.569ZM22.1977 11.0383C22.1977 11.0383 21.994 10.8296 21.6759 10.6855C21.5069 10.6109 21.3082 10.5513 21.0845 10.5463C20.9354 10.5463 20.7764 10.5662 20.6074 10.6258C20.4037 10.6954 20.19 10.8196 19.9713 11.0184C19.9564 11.0333 19.9316 11.0333 19.9167 11.0135C19.9067 10.9985 19.9067 10.9687 19.9216 10.9538C20.1453 10.7351 20.3639 10.591 20.5727 10.5115C20.7516 10.4419 20.9205 10.4171 21.0795 10.4221C21.3181 10.427 21.5318 10.4966 21.7057 10.5811C22.0387 10.7451 22.2474 10.9687 22.2474 10.9687C22.2623 10.9836 22.2623 11.0135 22.2474 11.0333C22.2375 11.0532 22.2126 11.0532 22.1977 11.0383ZM19.7129 11.0333C19.7129 11.0333 19.5091 10.8296 19.1861 10.6855C19.0171 10.6109 18.8134 10.5562 18.5947 10.5562C18.4456 10.5562 18.2866 10.5811 18.1176 10.6407C17.9139 10.7153 17.7052 10.8395 17.4865 11.0433C17.4716 11.0582 17.4467 11.0582 17.4318 11.0383C17.4169 11.0184 17.4219 10.9936 17.4368 10.9787C17.6555 10.755 17.8741 10.6109 18.0829 10.5264C18.2618 10.4568 18.4307 10.427 18.5897 10.432C18.8283 10.432 19.042 10.5016 19.2209 10.5811C19.5588 10.7401 19.7675 10.9638 19.7675 10.9638C19.7825 10.9787 19.7874 11.0085 19.7725 11.0284C19.7526 11.0482 19.7278 11.0482 19.7129 11.0333ZM22.3667 12.569C22.3667 12.569 22.2226 12.1366 21.8548 11.8434C21.661 11.6893 21.4075 11.575 21.0795 11.58C20.9305 11.58 20.7963 11.6048 20.682 11.6446C20.5428 11.6893 20.4186 11.7589 20.3192 11.8384C19.9465 12.1267 19.8073 12.5491 19.8073 12.5491C19.8023 12.569 19.7775 12.5839 19.7626 12.5739C19.7427 12.564 19.7328 12.5441 19.7427 12.5193C19.7427 12.5193 19.8769 12.062 20.2645 11.744C20.3738 11.6545 20.5031 11.575 20.6571 11.5253C20.7863 11.4806 20.9255 11.4557 21.0895 11.4557C21.4423 11.4557 21.7157 11.585 21.9194 11.7539C22.3071 12.072 22.4512 12.5391 22.4512 12.5391C22.4611 12.564 22.4462 12.5888 22.4263 12.5988C22.3965 12.6087 22.3717 12.5938 22.3667 12.569ZM19.5638 12.569C19.5638 12.569 19.4197 12.1366 19.0519 11.8434C18.8581 11.6893 18.6046 11.575 18.2767 11.58C18.1276 11.58 17.9934 11.6048 17.8791 11.6446C17.7399 11.6893 17.6157 11.7589 17.5163 11.8384C17.1436 12.1267 17.0044 12.5491 17.0044 12.5491C16.9945 12.569 16.9746 12.5839 16.9597 12.5739C16.9398 12.564 16.9299 12.5441 16.9349 12.5193C16.9349 12.5193 17.069 12.062 17.4567 11.744C17.566 11.6545 17.6952 11.575 17.8493 11.5253C17.9785 11.4806 18.1176 11.4557 18.2816 11.4557C18.6345 11.4557 18.9078 11.585 19.1116 11.7539C19.4992 12.072 19.6433 12.5391 19.6433 12.5391C19.6532 12.564 19.6383 12.5888 19.6185 12.5988C19.5936 12.6087 19.5688 12.5938 19.5638 12.569ZM24.6776 11.0383C24.6776 11.0383 24.4788 10.8296 24.1558 10.6855C23.9868 10.6109 23.788 10.5513 23.5644 10.5513C23.4153 10.5513 23.2563 10.5711 23.0873 10.6308C22.8835 10.7004 22.6698 10.8246 22.4512 11.0284C22.4363 11.0433 22.4114 11.0433 22.4015 11.0234C22.3866 11.0085 22.3916 10.9787 22.4065 10.9638C22.6301 10.7401 22.8488 10.601 23.0575 10.5215C23.2364 10.4519 23.4053 10.427 23.5644 10.432C23.8029 10.437 24.0166 10.5065 24.1906 10.591C24.5235 10.7501 24.7323 10.9787 24.7323 10.9787C24.7472 10.9985 24.7521 11.0234 24.7372 11.0433C24.7223 11.0532 24.6974 11.0532 24.6776 11.0383ZM22.645 17.8567L22.3419 17.8616C22.3369 17.8616 22.3319 17.8616 22.3319 17.8616C22.3021 17.8915 22.2673 17.9213 22.2325 17.9511C22.2226 17.961 22.2126 17.961 22.2027 17.9561C22.1977 17.9561 22.1977 17.9561 22.1927 17.9561C22.0983 17.9511 22.0039 17.9461 21.9095 17.9312C21.8449 17.9213 21.7853 17.9064 21.7206 17.8915C21.666 17.8765 21.6163 17.8567 21.5666 17.8368C21.5119 17.8119 21.4672 17.7871 21.4175 17.7573C21.3777 17.7324 21.3429 17.7076 21.3082 17.6778C21.338 17.8268 21.4026 18.125 21.5119 18.4232C21.5815 18.6071 21.661 18.791 21.7654 18.95C21.7952 18.9897 21.7852 19.0295 21.7554 19.0593C21.7355 19.0842 21.7008 19.104 21.6511 19.119C21.4871 19.1786 21.164 19.2084 21.0249 19.2183C20.9951 19.2183 20.9702 19.2233 20.9603 19.2233C20.9553 19.2233 20.9553 19.2233 20.9553 19.2233L20.9801 19.2134C20.9801 19.2134 20.9056 19.2283 20.9056 19.1736C20.9056 19.1736 20.9056 19.1637 20.9056 19.1587C20.9056 19.1438 20.9106 19.1239 20.9106 19.0941H20.9056L20.4782 18.9947C20.4683 18.9897 20.4583 18.9848 20.4534 18.9748C20.4484 18.9649 20.4434 18.955 20.4484 18.945C20.4484 18.945 20.5031 18.786 20.5727 18.5723C20.5975 18.4928 20.6273 18.4083 20.6571 18.3238C20.687 18.2393 20.7168 18.1598 20.7466 18.0803C20.8013 17.9362 20.846 17.807 20.8857 17.7125C20.8907 17.7076 20.8907 17.6976 20.8957 17.6927C20.8659 17.7175 20.836 17.7374 20.8012 17.7573C20.7515 17.7871 20.7019 17.8119 20.6522 17.8368C20.6025 17.8567 20.5528 17.8765 20.4981 17.8915C20.4385 17.9113 20.3739 17.9213 20.3142 17.9312C20.2198 17.9461 20.1254 17.9511 20.031 17.9561C20.026 17.9561 20.026 17.9561 20.021 17.9561C20.0111 17.961 20.0011 17.961 19.9912 17.9511C19.9663 17.9262 19.9365 17.9064 19.9167 17.8815C19.9117 17.8815 19.9067 17.8865 19.9017 17.8865L19.5141 17.9213C19.4942 18.3487 19.5638 19.5662 19.5638 19.5662L19.3352 19.5613C19.3352 19.5613 19.2805 18.1548 19.2706 17.8567L18.9674 17.8616C18.9625 17.8616 18.9575 17.8616 18.9575 17.8616C18.9277 17.8915 18.8929 17.9213 18.8581 17.9511C18.8482 17.961 18.8382 17.961 18.8283 17.9561C18.8233 17.9561 18.8233 17.9561 18.8184 17.9561C18.719 17.9511 18.6245 17.9461 18.5301 17.9312C18.4655 17.9213 18.4009 17.9064 18.3413 17.8915C18.2866 17.8765 18.2369 17.8567 18.1872 17.8368C18.1325 17.8119 18.0878 17.7871 18.0381 17.7573C17.9984 17.7324 17.9636 17.7076 17.9238 17.6778C17.9536 17.8268 18.0182 18.125 18.1276 18.4232C18.1971 18.6071 18.2816 18.791 18.386 18.95C18.4108 18.9897 18.4059 19.0295 18.376 19.0593C18.3562 19.0842 18.3164 19.104 18.2667 19.119C18.0978 19.1786 17.7747 19.2084 17.6306 19.2183C17.6008 19.2183 17.5759 19.2233 17.566 19.2233C17.561 19.2233 17.561 19.2233 17.561 19.2233L17.5859 19.2134C17.5859 19.2134 17.5064 19.2283 17.5113 19.1736C17.5113 19.1736 17.5113 19.1637 17.5113 19.1587C17.5113 19.1438 17.5163 19.1239 17.5163 19.0941C17.5113 19.0941 17.5113 19.0941 17.5064 19.0941L17.079 18.9947C17.069 18.9897 17.0591 18.9848 17.0541 18.9748C17.0492 18.9649 17.0492 18.955 17.0492 18.945C17.0492 18.945 17.1038 18.786 17.1784 18.5723C17.2032 18.4928 17.233 18.4083 17.2629 18.3238C17.2927 18.2393 17.3225 18.1598 17.3523 18.0803C17.407 17.9362 17.4567 17.807 17.4915 17.7125C17.4964 17.7076 17.4964 17.6976 17.5014 17.6927C17.4716 17.7175 17.4368 17.7374 17.407 17.7573C17.3573 17.7871 17.3076 17.8119 17.2579 17.8368C17.2082 17.8567 17.1585 17.8765 17.1038 17.8915C17.0442 17.9113 16.9796 17.9213 16.915 17.9312C16.8205 17.9461 16.7261 17.9511 16.6317 17.9561C16.6267 17.9561 16.6267 17.9561 16.6218 17.9561C16.6118 17.961 16.6019 17.961 16.592 17.9511C16.5671 17.9262 16.5373 17.9064 16.5124 17.8815C16.5075 17.8815 16.5025 17.8865 16.4975 17.8865L16.1049 17.9213C16.085 18.3487 16.09 18.7264 16.1 18.9947C16.1049 19.1637 16.1099 19.4519 16.1099 19.4519C16.1049 19.5016 15.9558 19.4718 15.9558 19.4718C15.9558 19.4718 15.936 19.2134 15.926 19.0593C15.8912 18.4282 15.8564 17.0516 16.1397 15.9682C16.249 15.5458 16.4081 15.1731 16.6268 14.8948C16.8951 14.5568 17.2529 14.358 17.7201 14.3928C18.54 14.4525 19.0022 15.1333 19.2358 15.993C19.3054 16.2415 19.3551 16.5 19.3899 16.7683C19.4247 16.495 19.4744 16.2266 19.539 15.9732C19.6483 15.5507 19.8073 15.178 20.021 14.8997C20.2894 14.5618 20.6422 14.363 21.1094 14.3978C21.9194 14.4574 22.3766 15.1383 22.6102 15.998C22.6748 16.2465 22.7245 16.5099 22.7593 16.7733C22.7941 16.4999 22.8438 16.2316 22.9084 15.9781C23.0177 15.5557 23.1768 15.183 23.3954 14.9047C23.6638 14.5668 24.0216 14.368 24.4887 14.4028C25.3087 14.4624 25.7659 15.1432 26.0045 16.003C26.3971 17.4342 26.1983 19.4122 26.1983 19.4122C26.1983 19.4122 25.9846 19.447 25.9896 19.3973C25.9896 19.3973 26.0592 18.6866 26.0293 17.8716L25.7262 17.8765C25.7212 17.8765 25.7212 17.8765 25.7162 17.8765C25.6815 17.9064 25.6516 17.9362 25.6168 17.966C25.6069 17.9759 25.597 17.9759 25.587 17.971C25.5821 17.971 25.582 17.971 25.5771 17.971C25.4827 17.966 25.3883 17.961 25.2938 17.9461C25.2292 17.9362 25.1646 17.9213 25.105 17.9064C25.0503 17.8915 25.0006 17.8716 24.9509 17.8517C24.8963 17.8268 24.8515 17.802 24.8018 17.7722C24.7621 17.7473 24.7273 17.7225 24.6875 17.6927C24.7173 17.8418 24.782 18.1399 24.8913 18.4381C24.9609 18.622 25.0453 18.8059 25.1497 18.9649C25.1795 19.0047 25.1696 19.0444 25.1398 19.0742C25.1199 19.0991 25.0851 19.119 25.0304 19.1339C24.8615 19.1935 24.5434 19.2233 24.3993 19.2333C24.3695 19.2333 24.3446 19.2382 24.3347 19.2382C24.3297 19.2382 24.3297 19.2382 24.3297 19.2382L24.3546 19.2283C24.3546 19.2283 24.275 19.2432 24.28 19.1885C24.28 19.1885 24.28 19.1786 24.28 19.1736C24.28 19.1587 24.285 19.1388 24.285 19.109H24.28L23.8526 19.0096C23.8427 19.0047 23.8327 18.9997 23.8278 18.9897C23.8228 18.9798 23.8228 18.9699 23.8228 18.9599C23.8228 18.9599 23.8775 18.8009 23.952 18.5872C23.9769 18.5077 24.0067 18.4232 24.0365 18.3387C24.0663 18.2542 24.0961 18.1747 24.1259 18.0952C24.1806 17.9511 24.2303 17.8219 24.2651 17.7275C24.2701 17.7225 24.2701 17.7125 24.275 17.7076C24.2452 17.7324 24.2104 17.7523 24.1757 17.7722C24.1309 17.802 24.0762 17.8268 24.0265 17.8517C23.9769 17.8716 23.9272 17.8915 23.8725 17.9064C23.8129 17.9262 23.7482 17.9362 23.6836 17.9461C23.5892 17.961 23.4948 17.966 23.4004 17.971C23.3954 17.971 23.3904 17.971 23.3904 17.971C23.3805 17.9759 23.3706 17.9759 23.3606 17.966C23.3308 17.9412 23.3059 17.9213 23.2811 17.8964C23.2761 17.8964 23.2712 17.9014 23.2662 17.9014L22.8736 17.9362C22.8537 18.3636 22.8587 18.7413 22.8686 19.0096C22.8736 19.1786 22.8885 19.432 22.8835 19.447C22.8835 19.4519 22.635 19.447 22.635 19.447C22.635 19.447 22.6549 18.3288 22.645 17.8567ZM19.6433 16.6441L19.9216 16.6739C19.9216 16.6689 19.9216 16.6689 19.9266 16.6639C19.9465 16.5944 20.021 16.3856 20.185 16.4552C20.2745 16.49 20.3639 16.495 20.4484 16.5298C20.5826 16.5844 20.7068 16.659 20.8162 16.7286C20.8708 16.7633 20.9255 16.7981 20.9801 16.8379C21.0199 16.7932 21.0696 16.7683 21.1094 16.7683C21.1541 16.7683 21.2038 16.7981 21.2436 16.8478C21.3032 16.8081 21.3628 16.7633 21.4274 16.7236C21.5368 16.654 21.661 16.5795 21.7952 16.5248C21.8797 16.49 21.9691 16.4751 22.0586 16.4503C22.2325 16.4055 22.2971 16.5894 22.317 16.659C22.322 16.6789 22.3269 16.6987 22.3269 16.7236L22.5506 16.7136C22.5158 16.49 22.4661 16.2664 22.4065 16.0527C22.1928 15.3023 21.8151 14.686 21.1094 14.6363C20.5528 14.5966 20.1999 14.9743 19.9663 15.511C19.8123 15.844 19.7129 16.2366 19.6433 16.6441ZM19.8471 17.807C19.8222 17.7821 19.8024 17.7523 19.7874 17.7275C19.7377 17.6479 19.7179 17.5635 19.7427 17.4641C19.7576 17.4044 19.7924 17.3448 19.8272 17.2852C19.857 17.2404 19.8868 17.1907 19.9117 17.146C19.9216 17.1261 19.9266 17.1013 19.9316 17.0764C19.9415 16.9919 19.9266 16.9174 19.9216 16.8478C19.9167 16.818 19.9167 16.7882 19.9167 16.7633L19.6334 16.7484C19.6284 16.7882 19.6234 16.823 19.6185 16.8627C19.5737 17.1858 19.5439 17.5138 19.529 17.8169L19.8471 17.807ZM22.4114 17.7722L22.64 17.7523C22.6301 17.4492 22.6052 17.1311 22.5605 16.813H22.322C22.322 16.823 22.322 16.8329 22.317 16.8429C22.307 16.9124 22.2922 16.987 22.3071 17.0715C22.3071 17.0963 22.317 17.1162 22.3269 17.141C22.3468 17.1907 22.3816 17.2355 22.4114 17.2802C22.4462 17.3349 22.481 17.3945 22.4959 17.4591C22.5208 17.5535 22.5009 17.643 22.4512 17.7225C22.4363 17.7374 22.4263 17.7573 22.4114 17.7722ZM21 17.6132C20.9901 17.633 20.9802 17.6778 20.9603 17.7324C20.9305 17.8268 20.8857 17.961 20.841 18.1051C20.8112 18.1847 20.7864 18.2691 20.7565 18.3536C20.7267 18.4381 20.6969 18.5226 20.6671 18.6021C20.6124 18.7512 20.5677 18.8705 20.5478 18.9301L20.9255 19.0295V19.0146C20.9404 18.8456 20.9702 18.5624 20.9951 18.294C21.0199 18.0207 21.0497 17.7573 21.0597 17.638C21.0398 17.633 21.0249 17.6231 21.005 17.6082C21.005 17.6132 21 17.6132 21 17.6132ZM20.9454 17.5386C20.9404 17.5336 20.9404 17.5287 20.9354 17.5237C20.9255 17.4989 20.9106 17.474 20.9006 17.4492C20.8758 17.4641 20.8509 17.479 20.8261 17.4939C20.7615 17.5336 20.6919 17.5684 20.6223 17.5982C20.5776 17.6181 20.5279 17.633 20.4782 17.6479C20.4087 17.6678 20.3341 17.6827 20.2596 17.6877C20.2447 17.6927 20.2297 17.6778 20.2248 17.6529C20.2198 17.633 20.2347 17.6132 20.2496 17.6082C20.3093 17.5933 20.3689 17.5734 20.4235 17.5535C20.4782 17.5336 20.5379 17.5088 20.5925 17.4839C20.6621 17.4541 20.7267 17.4193 20.7913 17.3846C20.8211 17.3696 20.846 17.3547 20.8758 17.3398C20.8708 17.305 20.8659 17.2653 20.8659 17.2255C20.8211 17.2255 20.7764 17.2305 20.7317 17.2305C20.672 17.2305 20.6124 17.2255 20.5528 17.2206C20.4633 17.2106 20.3788 17.1907 20.2894 17.1709C20.2745 17.1659 20.2595 17.151 20.2645 17.1261C20.2645 17.1062 20.2794 17.0913 20.2993 17.0913C20.3639 17.0963 20.4235 17.1013 20.4882 17.1013C20.5279 17.1013 20.5726 17.1062 20.6124 17.1062C20.6323 17.1062 20.6522 17.1062 20.677 17.1062C20.7267 17.1062 20.7714 17.1112 20.8211 17.1112C20.8361 17.1112 20.8559 17.1112 20.8708 17.1112C20.8708 17.0864 20.8758 17.0665 20.8808 17.0466C20.7814 17.0267 20.682 17.0069 20.5876 16.982C20.4484 16.9472 20.3192 16.8975 20.2049 16.8279C20.18 16.813 20.1453 16.7733 20.1055 16.7286C20.0757 16.6888 20.0459 16.6391 20.0359 16.5944C20.0161 16.6242 20.0011 16.654 19.9912 16.6789C19.9763 16.7385 19.9862 16.7932 19.9962 16.8528C20.0061 16.9224 20.0161 16.9919 20.0111 17.0715C20.0061 17.1112 19.9962 17.146 19.9813 17.1808C19.9564 17.2355 19.9216 17.2901 19.8868 17.3398C19.857 17.3845 19.8272 17.4293 19.8173 17.479C19.7974 17.5386 19.8123 17.5933 19.8421 17.6479C19.8819 17.7225 19.9514 17.797 20.021 17.8666H20.026C20.1552 17.8517 20.2844 17.8219 20.4037 17.7871C20.4534 17.7722 20.5031 17.7573 20.5528 17.7374C20.6273 17.7076 20.6969 17.6778 20.7665 17.638C20.8261 17.6032 20.8808 17.5635 20.9305 17.5237C20.9404 17.5436 20.9454 17.5436 20.9454 17.5386ZM20.9056 16.9671C20.9106 16.9472 20.9205 16.9224 20.9305 16.9075C20.8808 16.8776 20.8311 16.8429 20.7814 16.813C20.677 16.7484 20.5528 16.6789 20.4235 16.6292C20.344 16.5993 20.2595 16.5745 20.1751 16.5646C20.1502 16.5596 20.1353 16.5646 20.1204 16.5646L20.1254 16.5695C20.1303 16.5795 20.1353 16.5894 20.1403 16.5993C20.1701 16.654 20.2198 16.7136 20.2496 16.7286C20.354 16.7932 20.4782 16.8429 20.6074 16.8826C20.7018 16.9174 20.8013 16.9422 20.9056 16.9671ZM21.2286 17.6082L21.2038 17.6032C21.1789 17.6281 21.1491 17.638 21.1193 17.643C21.1094 17.7622 21.0895 18.0256 21.0696 18.299C21.0448 18.5673 21.0249 18.8506 21.01 19.0245C21.005 19.0693 21 19.109 21 19.1339C21.0945 19.1289 21.2932 19.114 21.4572 19.0792C21.5467 19.0643 21.6262 19.0444 21.6709 19.0146C21.6759 19.0096 21.6809 19.0047 21.6859 19.0047L21.6908 18.9997C21.6908 18.9997 21.6908 18.9947 21.6859 18.9947C21.5815 18.8307 21.497 18.6419 21.4274 18.4481C21.3082 18.0753 21.2485 17.7076 21.2286 17.6082ZM22.2027 17.8815C22.2723 17.8119 22.3418 17.7374 22.3816 17.6628C22.4114 17.6082 22.4214 17.5535 22.4065 17.4939C22.3916 17.4442 22.3667 17.3995 22.3369 17.3547C22.3021 17.3001 22.2673 17.2504 22.2425 17.1957C22.2275 17.1609 22.2176 17.1261 22.2126 17.0864C22.2027 17.0069 22.2126 16.9323 22.2275 16.8677C22.2375 16.8081 22.2474 16.7484 22.2325 16.6938C22.2226 16.6639 22.2126 16.6341 22.1878 16.6093C22.1779 16.649 22.148 16.6987 22.1182 16.7435C22.0834 16.7882 22.0437 16.8279 22.0188 16.8429C21.9095 16.9075 21.7753 16.9572 21.6361 16.9969C21.5318 17.0218 21.4274 17.0466 21.3181 17.0615C21.3231 17.0814 21.328 17.1013 21.328 17.1261C21.3529 17.1261 21.3777 17.1261 21.4026 17.1261C21.4523 17.1261 21.502 17.1212 21.5467 17.1212C21.5666 17.1212 21.5865 17.1212 21.6113 17.1212C21.6511 17.1212 21.6958 17.1162 21.7355 17.1162C21.7952 17.1112 21.8598 17.1112 21.9244 17.1062C21.9393 17.1013 21.9542 17.1162 21.9592 17.141C21.9642 17.1609 21.9492 17.1808 21.9343 17.1858C21.8449 17.2056 21.7604 17.2255 21.6709 17.2355C21.6113 17.2404 21.5517 17.2454 21.492 17.2454C21.4374 17.2454 21.3877 17.2454 21.333 17.2404C21.333 17.2752 21.328 17.31 21.3231 17.3448C21.3578 17.3647 21.3926 17.3845 21.4274 17.3995C21.492 17.4342 21.5567 17.4641 21.6262 17.4988C21.6809 17.5237 21.7355 17.5485 21.7952 17.5684C21.8498 17.5883 21.9095 17.6082 21.9691 17.6231C21.984 17.6281 21.9989 17.643 21.994 17.6678C21.994 17.6877 21.9791 17.7026 21.9592 17.7026C21.8846 17.6927 21.8101 17.6827 21.7405 17.6628C21.6908 17.6479 21.6411 17.633 21.5964 17.6132C21.5268 17.5833 21.4572 17.5485 21.3926 17.5088C21.3578 17.4889 21.328 17.469 21.2982 17.4492C21.2883 17.4839 21.2734 17.5138 21.2634 17.5436C21.2734 17.5485 21.2784 17.5585 21.2883 17.5635C21.338 17.6032 21.3926 17.643 21.4523 17.6778C21.5169 17.7175 21.5914 17.7473 21.666 17.7772C21.7157 17.797 21.7654 17.8119 21.8151 17.8268C21.9343 17.8616 22.0635 17.8865 22.1927 17.9064C22.2027 17.8765 22.2027 17.8815 22.2027 17.8815ZM16.2441 16.6441L16.5274 16.6739C16.5274 16.6689 16.5274 16.6689 16.5323 16.6639C16.5522 16.5944 16.6267 16.3856 16.7957 16.4552C16.8852 16.49 16.9746 16.495 17.0591 16.5298C17.1983 16.5844 17.3225 16.659 17.4318 16.7286C17.4865 16.7633 17.5411 16.7981 17.5958 16.8379C17.6356 16.7932 17.6853 16.7683 17.725 16.7683C17.7698 16.7683 17.8195 16.7981 17.8592 16.8478C17.9189 16.8081 17.9785 16.7633 18.0431 16.7236C18.1524 16.654 18.2767 16.5795 18.4108 16.5248C18.4953 16.49 18.5848 16.4751 18.6792 16.4503C18.8581 16.4055 18.9177 16.5894 18.9426 16.659C18.9476 16.6789 18.9525 16.6987 18.9525 16.7236L19.1762 16.7136C19.1414 16.49 19.0917 16.2664 19.032 16.0527C18.8184 15.3023 18.4357 14.686 17.7201 14.6363C17.1585 14.5966 16.8007 14.9743 16.5621 15.511C16.4131 15.844 16.3137 16.2366 16.2441 16.6441ZM18.8333 17.8815C18.9029 17.8119 18.9724 17.7374 19.0122 17.6628C19.042 17.6082 19.0569 17.5535 19.037 17.4939C19.0221 17.4442 18.9923 17.3995 18.9625 17.3547C18.9277 17.3001 18.8929 17.2504 18.868 17.1957C18.8531 17.1609 18.8432 17.1261 18.8382 17.0864C18.8283 17.0069 18.8382 16.9323 18.8531 16.8677C18.8631 16.8081 18.873 16.7484 18.8581 16.6938C18.8482 16.6639 18.8382 16.6341 18.8134 16.6093C18.8034 16.649 18.7736 16.6987 18.7438 16.7435C18.709 16.7882 18.6693 16.8279 18.6444 16.8429C18.5351 16.9075 18.4009 16.9572 18.2618 16.9969C18.1574 17.0218 18.0481 17.0466 17.9437 17.0615C17.9487 17.0814 17.9487 17.1013 17.9536 17.1261C17.9785 17.1261 18.0033 17.1261 18.0282 17.1261C18.0779 17.1261 18.1276 17.1212 18.1723 17.1212C18.1922 17.1212 18.2121 17.1212 18.2369 17.1212C18.2767 17.1212 18.3214 17.1162 18.3612 17.1162C18.4208 17.1112 18.4854 17.1112 18.55 17.1062C18.5649 17.1013 18.5798 17.1162 18.5848 17.141C18.5848 17.1609 18.5748 17.1808 18.5599 17.1858C18.4705 17.2056 18.381 17.2255 18.2916 17.2355C18.2319 17.2404 18.1723 17.2454 18.1127 17.2454C18.058 17.2454 18.0083 17.2454 17.9536 17.2404C17.9536 17.2752 17.9487 17.31 17.9437 17.3448C17.9785 17.3647 18.0133 17.3845 18.0481 17.3995C18.1127 17.4342 18.1822 17.4641 18.2518 17.4988C18.3065 17.5237 18.3661 17.5485 18.4208 17.5684C18.4755 17.5883 18.5351 17.6082 18.5947 17.6231C18.6096 17.6281 18.6245 17.643 18.6196 17.6678C18.6196 17.6877 18.6047 17.7026 18.5848 17.7026C18.5103 17.6927 18.4357 17.6827 18.3612 17.6628C18.3115 17.6479 18.2617 17.633 18.217 17.6132C18.1425 17.5833 18.0779 17.5485 18.0083 17.5088C17.9785 17.4889 17.9437 17.469 17.9139 17.4492C17.9039 17.4839 17.889 17.5138 17.8741 17.5436C17.884 17.5485 17.894 17.5585 17.899 17.5635C17.9536 17.6032 18.0033 17.643 18.063 17.6778C18.1325 17.7175 18.2021 17.7473 18.2767 17.7772C18.3263 17.797 18.3761 17.8119 18.4258 17.8268C18.55 17.8616 18.6792 17.8865 18.8084 17.9064C18.8283 17.8765 18.8283 17.8815 18.8333 17.8815ZM17.8493 17.6082L17.8294 17.6032C17.8046 17.6281 17.7747 17.638 17.7449 17.643C17.735 17.7622 17.7151 18.0256 17.6902 18.299C17.6704 18.5673 17.6455 18.8506 17.6306 19.0245C17.6256 19.0693 17.6257 19.109 17.6207 19.1339C17.7151 19.1289 17.9139 19.114 18.0829 19.0792C18.1723 19.0643 18.2518 19.0444 18.2965 19.0146C18.3065 19.0096 18.3065 19.0047 18.3114 19.0047C18.3164 19.0047 18.3164 18.9997 18.3164 18.9997V18.9947C18.2071 18.8307 18.1226 18.6419 18.053 18.4481C17.9238 18.0753 17.8642 17.7076 17.8493 17.6082ZM23.0127 16.6441L23.296 16.6739C23.296 16.6689 23.296 16.6689 23.301 16.6639C23.3209 16.5944 23.3954 16.3856 23.5594 16.4552C23.6489 16.49 23.7433 16.495 23.8278 16.5298C23.962 16.5844 24.0862 16.659 24.2005 16.7286C24.2552 16.7633 24.3098 16.7981 24.3645 16.8379C24.4042 16.7932 24.4539 16.7683 24.4937 16.7683C24.5384 16.7683 24.5881 16.7981 24.6279 16.8478C24.6875 16.8081 24.7472 16.7633 24.8118 16.7236C24.9211 16.654 25.0453 16.5795 25.1845 16.5248C25.269 16.49 25.3584 16.4751 25.4528 16.4503C25.6317 16.4055 25.6914 16.5894 25.7162 16.659C25.7212 16.6789 25.7262 16.6987 25.7262 16.7236L25.9498 16.7136C25.915 16.49 25.8653 16.2664 25.8057 16.0527C25.592 15.3023 25.2093 14.686 24.4937 14.6363C23.9272 14.5966 23.5743 14.9743 23.3358 15.511C23.1817 15.844 23.0823 16.2366 23.0127 16.6441ZM24.3297 17.5386C24.3247 17.5336 24.3247 17.5287 24.3198 17.5237C24.3098 17.4989 24.2949 17.474 24.285 17.4492C24.2601 17.4641 24.2353 17.479 24.2104 17.4939C24.1458 17.5336 24.0763 17.5684 24.0017 17.5982C23.957 17.6181 23.9073 17.633 23.8576 17.6479C23.7831 17.6678 23.7135 17.6827 23.634 17.6877C23.619 17.6927 23.6041 17.6778 23.5992 17.6529C23.5992 17.633 23.6091 17.6132 23.624 17.6082C23.6836 17.5933 23.7433 17.5734 23.798 17.5535C23.8576 17.5336 23.9122 17.5088 23.9669 17.4839C24.0365 17.4541 24.1061 17.4193 24.1707 17.3846C24.2005 17.3696 24.2253 17.3547 24.2552 17.3398C24.2502 17.305 24.2452 17.2653 24.2452 17.2255C24.2005 17.2255 24.1558 17.2305 24.1111 17.2305C24.0514 17.2305 23.9918 17.2255 23.9321 17.2206C23.8427 17.2106 23.7582 17.1907 23.6687 17.1709C23.6538 17.1659 23.6389 17.151 23.6439 17.1261C23.6439 17.1062 23.6588 17.0913 23.6787 17.0913C23.7433 17.0963 23.8029 17.1013 23.8675 17.1013C23.9073 17.1013 23.952 17.1062 23.9918 17.1062C24.0116 17.1062 24.0315 17.1062 24.0514 17.1062C24.1011 17.1062 24.1508 17.1112 24.2005 17.1112C24.2154 17.1112 24.2353 17.1112 24.2502 17.1112C24.2502 17.0864 24.2552 17.0665 24.2601 17.0466C24.1607 17.0267 24.0613 17.0069 23.9669 16.982C23.8278 16.9472 23.6936 16.8975 23.5793 16.8279C23.5544 16.813 23.5147 16.7733 23.4799 16.7286C23.4501 16.6888 23.4203 16.6391 23.4103 16.5944C23.3855 16.6242 23.3755 16.654 23.3656 16.6789C23.3507 16.7385 23.3606 16.7932 23.3705 16.8528C23.3805 16.9224 23.3904 16.9919 23.3855 17.0715C23.3805 17.1112 23.3706 17.146 23.3557 17.1808C23.3308 17.2355 23.296 17.2901 23.2612 17.3398C23.2314 17.3845 23.2016 17.4293 23.1867 17.479C23.1718 17.5386 23.1817 17.5933 23.2115 17.6479C23.2513 17.7225 23.3209 17.797 23.3904 17.8666H23.3954C23.5246 17.8517 23.6538 17.8219 23.7781 17.7871C23.8278 17.7722 23.8775 17.7573 23.9272 17.7374C24.0017 17.7076 24.0763 17.6778 24.1409 17.638C24.2005 17.6032 24.2551 17.5635 24.3048 17.5237C24.3198 17.5436 24.3247 17.5436 24.3297 17.5386ZM24.285 16.9671C24.2949 16.9472 24.2999 16.9224 24.3098 16.9075C24.2601 16.8776 24.2104 16.8429 24.1607 16.813C24.0514 16.7484 23.9321 16.6789 23.798 16.6292C23.7184 16.5993 23.634 16.5745 23.5495 16.5646C23.5246 16.5596 23.5097 16.5646 23.4948 16.5646C23.4948 16.5646 23.4948 16.5695 23.4998 16.5695C23.5047 16.5795 23.5047 16.5894 23.5097 16.5993C23.5395 16.654 23.5892 16.7136 23.619 16.7286C23.7234 16.7932 23.8477 16.8429 23.9818 16.8826C24.0812 16.9174 24.1856 16.9422 24.285 16.9671ZM25.8107 17.7722L26.0393 17.7523C26.0293 17.4492 25.9995 17.1311 25.9548 16.813H25.7162C25.7162 16.823 25.7162 16.8329 25.7113 16.8429C25.7013 16.9124 25.6864 16.987 25.6964 17.0715C25.7013 17.0963 25.7063 17.1162 25.7162 17.141C25.7361 17.1907 25.7709 17.2355 25.8007 17.2802C25.8355 17.3349 25.8703 17.3945 25.8852 17.4591C25.9101 17.5535 25.8902 17.643 25.8405 17.7225C25.8355 17.7374 25.8206 17.7573 25.8107 17.7722ZM23.2165 17.807C23.1916 17.7821 23.1718 17.7523 23.1569 17.7275C23.1072 17.6479 23.0873 17.5635 23.1121 17.4641C23.1271 17.4044 23.1618 17.3448 23.1966 17.2852C23.2264 17.2404 23.2612 17.1907 23.2811 17.146C23.291 17.1261 23.296 17.1013 23.301 17.0764C23.3109 16.9919 23.296 16.9174 23.291 16.8478C23.2861 16.818 23.2861 16.7882 23.2861 16.7633L22.9978 16.7484C22.9929 16.7882 22.9879 16.823 22.9829 16.8627C22.9382 17.1858 22.9084 17.5138 22.8935 17.8169L23.2165 17.807ZM21.1392 17.5237C21.1591 17.5138 21.179 17.4889 21.1939 17.4591C21.2038 17.4492 21.2088 17.4342 21.2137 17.4193C21.2187 17.4044 21.2237 17.3945 21.2286 17.3796C21.2386 17.3498 21.2436 17.3199 21.2485 17.2852C21.2535 17.2653 21.2535 17.2404 21.2535 17.2206C21.2535 17.2156 21.2535 17.2056 21.2535 17.2007C21.2535 17.1709 21.2535 17.146 21.2485 17.1212C21.2485 17.1062 21.2436 17.0864 21.2436 17.0715C21.2386 17.0416 21.2336 17.0118 21.2237 16.987C21.2237 16.982 21.2187 16.977 21.2187 16.977C21.1889 16.9025 21.1392 16.8478 21.0994 16.8478C21.0597 16.8478 21.01 16.9025 20.9801 16.977C20.9801 16.982 20.9752 16.987 20.9752 16.987C20.9653 17.0118 20.9603 17.0416 20.9553 17.0715C20.9503 17.0864 20.9504 17.1062 20.9454 17.1261C20.9454 17.151 20.9404 17.1758 20.9404 17.2007C20.9404 17.2106 20.9404 17.2205 20.9404 17.2305C20.9404 17.2553 20.9454 17.2802 20.9503 17.305C20.9553 17.3398 20.9653 17.3696 20.9752 17.3995C20.9752 17.4094 20.9802 17.4144 20.9851 17.4243C20.9951 17.4442 21.005 17.4641 21.0149 17.4839C21.0348 17.5138 21.0597 17.5336 21.0845 17.5386C21.0895 17.5386 21.0945 17.5386 21.0994 17.5386C21.1193 17.5336 21.1292 17.5287 21.1392 17.5237ZM24.5235 17.5237C24.5434 17.5138 24.5633 17.4889 24.5782 17.4591C24.5881 17.4492 24.5931 17.4342 24.5981 17.4193C24.603 17.4044 24.608 17.3945 24.613 17.3796C24.6229 17.3498 24.6279 17.3199 24.6329 17.2852C24.6378 17.2653 24.6378 17.2404 24.6378 17.2206C24.6378 17.2156 24.6378 17.2056 24.6378 17.2007C24.6378 17.1709 24.6378 17.146 24.6329 17.1212C24.6329 17.1062 24.6279 17.0864 24.6229 17.0715C24.6179 17.0416 24.613 17.0118 24.603 16.987C24.603 16.982 24.603 16.977 24.5981 16.977C24.5683 16.9025 24.5186 16.8478 24.4788 16.8478C24.439 16.8478 24.3844 16.9025 24.3595 16.977C24.3595 16.982 24.3546 16.987 24.3546 16.987C24.3446 17.0118 24.3397 17.0416 24.3297 17.0715C24.3247 17.0864 24.3247 17.1062 24.3247 17.1261C24.3198 17.151 24.3198 17.1758 24.3198 17.2007C24.3198 17.2106 24.3198 17.2205 24.3198 17.2305C24.3198 17.2553 24.3247 17.2802 24.3297 17.305C24.3347 17.3398 24.3446 17.3696 24.3546 17.3995C24.3595 17.4094 24.3595 17.4144 24.3645 17.4243C24.3744 17.4442 24.3844 17.4641 24.3943 17.4839C24.4142 17.5138 24.439 17.5336 24.4639 17.5386C24.4688 17.5386 24.4738 17.5386 24.4788 17.5386C24.4987 17.5336 24.5136 17.5287 24.5235 17.5237ZM24.3844 17.6132C24.3744 17.633 24.3645 17.6778 24.3446 17.7324C24.3148 17.8268 24.2701 17.961 24.2204 18.1051C24.1906 18.1847 24.1657 18.2691 24.1359 18.3536C24.1061 18.4381 24.0763 18.5226 24.0464 18.6021C23.9918 18.7512 23.9471 18.8705 23.9272 18.9301L24.3048 19.0295V19.0146C24.3198 18.8456 24.3496 18.5624 24.3744 18.294C24.3993 18.0207 24.4291 17.7573 24.439 17.638C24.4192 17.633 24.4043 17.6231 24.3844 17.6082C24.3844 17.6132 24.3844 17.6132 24.3844 17.6132ZM17.7548 17.5237C17.7747 17.5138 17.7946 17.4889 17.8095 17.4591C17.8195 17.4492 17.8244 17.4342 17.8294 17.4193C17.8344 17.4044 17.8393 17.3945 17.8443 17.3796C17.8542 17.3498 17.8592 17.3199 17.8642 17.2852C17.8642 17.2653 17.8692 17.2404 17.8692 17.2206C17.8692 17.2156 17.8692 17.2056 17.8692 17.2007C17.8692 17.1709 17.8692 17.146 17.8642 17.1212C17.8642 17.1062 17.8592 17.0864 17.8592 17.0715C17.8542 17.0416 17.8493 17.0118 17.8393 16.987C17.8393 16.982 17.8344 16.977 17.8344 16.977C17.8046 16.9025 17.7549 16.8478 17.7151 16.8478C17.6754 16.8478 17.6207 16.9025 17.5958 16.977C17.5958 16.982 17.5909 16.987 17.5909 16.987C17.5809 17.0118 17.5759 17.0416 17.571 17.0715C17.566 17.0864 17.566 17.1062 17.561 17.1261C17.561 17.151 17.5561 17.1758 17.5561 17.2007C17.5561 17.2106 17.5561 17.2205 17.5561 17.2305C17.5561 17.2553 17.561 17.2802 17.566 17.305C17.571 17.3398 17.5809 17.3696 17.5909 17.3995C17.5909 17.4094 17.5958 17.4144 17.6008 17.4243C17.6107 17.4442 17.6207 17.4641 17.6306 17.4839C17.6505 17.5138 17.6753 17.5336 17.7002 17.5386C17.7052 17.5386 17.7101 17.5386 17.7151 17.5386C17.73 17.5336 17.7449 17.5287 17.7548 17.5237ZM17.561 17.5386C17.5561 17.5336 17.5561 17.5287 17.5511 17.5237C17.5412 17.4989 17.5262 17.474 17.5163 17.4492C17.4915 17.4641 17.4666 17.479 17.4418 17.4939C17.3771 17.5336 17.3076 17.5684 17.238 17.5982C17.1883 17.6181 17.1436 17.633 17.0939 17.6479C17.0194 17.6678 16.9498 17.6827 16.8703 17.6877C16.8554 17.6927 16.8355 17.6778 16.8355 17.6529C16.8355 17.633 16.8454 17.6132 16.8603 17.6082C16.9199 17.5933 16.9796 17.5734 17.0342 17.5535C17.0939 17.5336 17.1486 17.5088 17.2032 17.4839C17.2728 17.4541 17.3374 17.4193 17.407 17.3846C17.4368 17.3696 17.4616 17.3547 17.4915 17.3398C17.4865 17.305 17.4815 17.2653 17.4815 17.2255C17.4368 17.2255 17.3921 17.2305 17.3473 17.2305C17.2877 17.2305 17.2281 17.2255 17.1684 17.2206C17.079 17.2106 16.9945 17.1907 16.9051 17.1709C16.8901 17.1659 16.8752 17.151 16.8802 17.1261C16.8802 17.1062 16.8951 17.0913 16.915 17.0913C16.9796 17.0963 17.0392 17.1013 17.1038 17.1013C17.1436 17.1013 17.1883 17.1062 17.2281 17.1062C17.2479 17.1062 17.2678 17.1062 17.2927 17.1062C17.3424 17.1062 17.3921 17.1112 17.4368 17.1112C17.4517 17.1112 17.4716 17.1112 17.4865 17.1112C17.4915 17.0864 17.4915 17.0665 17.4964 17.0466C17.397 17.0267 17.2976 17.0069 17.2032 16.982C17.0641 16.9472 16.9299 16.8975 16.8156 16.8279C16.7908 16.813 16.751 16.7733 16.7162 16.7286C16.6814 16.6888 16.6566 16.6391 16.6416 16.5944C16.6168 16.6242 16.6069 16.654 16.5969 16.6789C16.582 16.7385 16.5919 16.7932 16.6019 16.8528C16.6118 16.9224 16.6218 16.9919 16.6168 17.0715C16.6118 17.1112 16.6019 17.146 16.587 17.1808C16.5621 17.2355 16.5273 17.2901 16.4926 17.3398C16.4627 17.3845 16.4329 17.4293 16.418 17.479C16.4031 17.5386 16.4131 17.5933 16.4429 17.6479C16.4826 17.7225 16.5522 17.797 16.6218 17.8666C16.6267 17.8666 16.6268 17.8666 16.6268 17.8666C16.7609 17.8517 16.8852 17.8219 17.0094 17.7871C17.0591 17.7722 17.1088 17.7573 17.1585 17.7374C17.233 17.7076 17.3076 17.6778 17.3722 17.638C17.4318 17.6032 17.4865 17.5635 17.5362 17.5237C17.5511 17.5436 17.5561 17.5436 17.561 17.5386ZM17.5163 16.9671C17.5262 16.9472 17.5312 16.9224 17.5412 16.9075C17.4915 16.8776 17.4418 16.8429 17.3921 16.813C17.2827 16.7484 17.1635 16.6789 17.0293 16.6292C16.9498 16.5993 16.8653 16.5745 16.7808 16.5646C16.756 16.5596 16.741 16.5646 16.7261 16.5646C16.7261 16.5646 16.7261 16.5695 16.7311 16.5695C16.7361 16.5795 16.741 16.5894 16.741 16.5993C16.7709 16.654 16.8205 16.7136 16.8504 16.7286C16.9547 16.7932 17.079 16.8429 17.2132 16.8826C17.3175 16.9174 17.4169 16.9422 17.5163 16.9671ZM16.4478 17.807C16.423 17.7821 16.4031 17.7523 16.3882 17.7275C16.3385 17.6479 16.3186 17.5635 16.3435 17.4641C16.3584 17.4044 16.3932 17.3448 16.428 17.2852C16.4578 17.2404 16.4925 17.1907 16.5124 17.146C16.5224 17.1261 16.5274 17.1013 16.5323 17.0764C16.5423 16.9919 16.5273 16.9174 16.5224 16.8478C16.5174 16.818 16.5174 16.7882 16.5174 16.7633L16.2292 16.7484C16.2242 16.7882 16.2192 16.823 16.2143 16.8627C16.1695 17.1858 16.1397 17.5138 16.1248 17.8169L16.4478 17.807ZM19.042 17.7722L19.2706 17.7523C19.2606 17.4492 19.2358 17.1311 19.1861 16.813H18.9476C18.9476 16.823 18.9476 16.8329 18.9426 16.8429C18.9327 16.9124 18.9178 16.987 18.9277 17.0715C18.9327 17.0963 18.9376 17.1162 18.9476 17.141C18.9675 17.1907 19.0022 17.2355 19.032 17.2802C19.0668 17.3349 19.1016 17.3945 19.1165 17.4591C19.1414 17.5535 19.1215 17.643 19.0718 17.7225C19.0668 17.7374 19.0519 17.7573 19.042 17.7722ZM21.3032 16.9671C21.4125 16.9422 21.5219 16.9174 21.6262 16.8826C21.7604 16.8429 21.8846 16.7932 21.984 16.7286C22.0138 16.7136 22.0636 16.654 22.0934 16.5993C22.0983 16.5894 22.1033 16.5795 22.1083 16.5695V16.5646C22.0983 16.5596 22.0785 16.5596 22.0586 16.5646C21.9741 16.5745 21.8896 16.5993 21.8101 16.6292C21.6809 16.6789 21.5566 16.7484 21.4523 16.813C21.3976 16.8478 21.338 16.8826 21.2833 16.9224C21.2883 16.9323 21.2932 16.9472 21.3032 16.9671ZM24.6179 17.6082L24.5931 17.6032C24.5682 17.6281 24.5384 17.638 24.5086 17.643C24.4987 17.7622 24.4788 18.0256 24.4589 18.299C24.439 18.5673 24.4142 18.8506 24.3993 19.0245C24.3943 19.0693 24.3894 19.109 24.3894 19.1339C24.4838 19.1289 24.6826 19.114 24.8515 19.0792C24.941 19.0643 25.0255 19.0444 25.0702 19.0146C25.0801 19.0096 25.0801 19.0047 25.0851 19.0047C25.0901 19.0047 25.0901 18.9997 25.0901 18.9997V18.9947C24.9807 18.8307 24.8963 18.6419 24.8267 18.4481C24.6925 18.0753 24.6328 17.7076 24.6179 17.6082ZM25.6019 17.8815C25.6715 17.8119 25.7411 17.7374 25.7808 17.6628C25.8107 17.6082 25.8256 17.5535 25.8057 17.4939C25.7958 17.4442 25.7659 17.3995 25.7311 17.3547C25.6963 17.3001 25.6616 17.2504 25.6367 17.1957C25.6218 17.1609 25.6119 17.1261 25.6069 17.0864C25.597 17.0069 25.6069 16.9323 25.6168 16.8677C25.6268 16.8081 25.6367 16.7484 25.6218 16.6938C25.6119 16.6639 25.6019 16.6341 25.5771 16.6093C25.5671 16.649 25.5373 16.6987 25.5075 16.7435C25.4727 16.7882 25.433 16.8279 25.4081 16.8429C25.2988 16.9075 25.1646 16.9572 25.0255 16.9969C24.9211 17.0218 24.8118 17.0466 24.7024 17.0615C24.7074 17.0814 24.7124 17.1013 24.7124 17.1261C24.7372 17.1261 24.7621 17.1261 24.7869 17.1261C24.8366 17.1261 24.8863 17.1212 24.936 17.1212C24.9559 17.1212 24.9758 17.1212 25.0006 17.1212C25.0404 17.1212 25.0851 17.1162 25.1249 17.1162C25.1845 17.1112 25.2491 17.1112 25.3137 17.1062C25.3286 17.1013 25.3435 17.1162 25.3485 17.141C25.3485 17.1609 25.3386 17.1808 25.3187 17.1858C25.2292 17.2056 25.1398 17.2255 25.0553 17.2355C24.9956 17.2404 24.936 17.2454 24.8764 17.2454C24.8217 17.2454 24.772 17.2454 24.7173 17.2404C24.7173 17.2752 24.7124 17.31 24.7074 17.3448C24.7422 17.3647 24.777 17.3845 24.8118 17.3995C24.8764 17.4342 24.946 17.4641 25.0155 17.4988C25.0702 17.5237 25.1298 17.5485 25.1845 17.5684C25.2392 17.5883 25.2988 17.6082 25.3584 17.6231C25.3733 17.6281 25.3883 17.643 25.3833 17.6678C25.3783 17.6877 25.3684 17.7026 25.3485 17.7026C25.2739 17.6927 25.1994 17.6827 25.1249 17.6628C25.0752 17.6479 25.0255 17.633 24.9807 17.6132C24.9062 17.5833 24.8416 17.5485 24.772 17.5088C24.7372 17.4889 24.7074 17.469 24.6776 17.4492C24.6676 17.4839 24.6527 17.5138 24.6378 17.5436C24.6478 17.5485 24.6527 17.5585 24.6627 17.5635C24.7124 17.6032 24.767 17.643 24.8267 17.6778C24.8913 17.7175 24.9658 17.7473 25.0404 17.7772C25.0901 17.797 25.1398 17.8119 25.1895 17.8268C25.3137 17.8616 25.4429 17.8865 25.5721 17.9064C25.597 17.8765 25.597 17.8815 25.6019 17.8815ZM24.6875 16.9671C24.7969 16.9422 24.9062 16.9174 25.0155 16.8826C25.1497 16.8429 25.2739 16.7932 25.3783 16.7286C25.4032 16.7136 25.4578 16.654 25.4876 16.5993C25.4926 16.5894 25.4976 16.5795 25.5026 16.5695C25.5026 16.5695 25.5026 16.5646 25.5075 16.5646C25.4976 16.5596 25.4777 16.5596 25.4528 16.5646C25.3634 16.5745 25.2839 16.5993 25.2044 16.6292C25.0702 16.6789 24.9509 16.7484 24.8416 16.813C24.7819 16.8478 24.7223 16.8826 24.6677 16.9224C24.6726 16.9323 24.6826 16.9472 24.6875 16.9671ZM17.9188 16.9671C18.0282 16.9422 18.1425 16.9174 18.2468 16.8826C18.381 16.8429 18.5053 16.7932 18.6096 16.7286C18.6345 16.7136 18.6891 16.654 18.719 16.5993C18.7239 16.5894 18.7289 16.5795 18.7339 16.5695C18.7339 16.5695 18.7339 16.5646 18.7389 16.5646C18.7289 16.5596 18.709 16.5596 18.6842 16.5646C18.5997 16.5745 18.5152 16.5993 18.4357 16.6292C18.3015 16.6789 18.1822 16.7484 18.0729 16.813C18.0133 16.8478 17.9586 16.8826 17.899 16.9224C17.9089 16.9323 17.9139 16.9472 17.9188 16.9671ZM17.6157 17.6132C17.6058 17.633 17.5958 17.6778 17.5759 17.7324C17.5461 17.8268 17.5014 17.961 17.4517 18.1051C17.4219 18.1847 17.397 18.2691 17.3672 18.3536C17.3374 18.4381 17.3076 18.5226 17.2778 18.6021C17.2231 18.7512 17.1784 18.8705 17.1585 18.9301L17.5362 19.0295V19.0146C17.5511 18.8456 17.5809 18.5624 17.6058 18.294C17.6356 18.0207 17.6604 17.7573 17.6704 17.638C17.6505 17.633 17.6356 17.6231 17.6157 17.6082C17.6207 17.6132 17.6157 17.6132 17.6157 17.6132Z" fill="#133F24"/>
</svg>
