<svg width="28" height="19" viewBox="0 0 28 19" fill="none" xmlns="http://www.w3.org/2000/svg">
<path fill-rule="evenodd" clip-rule="evenodd" d="M13.2973 16.652C12.3088 17.378 11.0786 17.8083 9.75161 17.8136C8.10233 17.8136 6.60885 17.1522 5.52903 16.082C4.44921 15.0118 3.78843 13.5329 3.79381 11.9034C3.79918 10.2793 4.47065 8.80573 5.55048 7.74629C6.6303 6.68685 8.11307 6.03613 9.75161 6.04688V6.03613C10.8207 6.03075 11.8199 6.3104 12.6902 6.79441C12.7923 6.67609 12.8997 6.56316 13.0125 6.4556C14.2965 5.19718 16.0586 4.41739 18.0087 4.42814V4.41739C19.9589 4.41202 21.7264 5.1918 23.005 6.4556C24.2889 7.7194 25.084 9.47258 25.0893 11.4032C25.0947 13.3393 24.2996 15.0978 23.021 16.367C21.7371 17.6416 19.9642 18.4267 18.0087 18.4321C16.1983 18.4267 14.549 17.7545 13.2973 16.652ZM12.5183 6.98801C11.7017 6.53089 10.7562 6.27276 9.75161 6.26738V6.25662C8.18291 6.262 6.75928 6.90196 5.73318 7.92913C4.71245 8.95093 4.0785 10.3546 4.08924 11.9034C4.09461 13.4468 4.7339 14.8451 5.75462 15.8561C6.78072 16.8671 8.18828 17.4963 9.75161 17.4963C10.9872 17.4963 12.1315 17.1038 13.0609 16.4423C13.1469 16.3778 13.2328 16.3132 13.3188 16.2487C13.4692 16.1304 13.6142 16.0013 13.7485 15.8669L13.7539 15.8615C13.8237 15.7916 13.899 15.7163 13.9634 15.641C14.8606 14.6515 15.4086 13.3446 15.414 11.9087C15.4193 10.3599 14.7854 8.9563 13.7647 7.93451C13.6787 7.84846 13.5874 7.76242 13.4907 7.68175C13.3886 7.80544 13.2866 7.93451 13.1952 8.06358C13.4209 8.26256 13.625 8.47768 13.8076 8.70892C14.6296 9.74147 15.054 11.0806 14.8821 12.4842H14.8928C14.7746 13.5705 14.318 14.5439 13.6357 15.3076C13.5659 15.3828 13.496 15.4581 13.4262 15.5334C13.2865 15.6733 13.1469 15.8023 12.9911 15.9206C12.9857 15.9206 12.9857 15.926 12.9803 15.926C12.8997 15.9905 12.8191 16.0497 12.7332 16.1089C11.7339 16.8134 10.4769 17.1683 9.16067 17.0231C7.73166 16.8671 6.50141 16.1519 5.66872 15.1193C4.83602 14.0868 4.40083 12.7369 4.562 11.3226C4.72317 9.90819 5.45379 8.68741 6.50137 7.86459C7.54896 7.04178 8.90815 6.61693 10.3372 6.78365C11.0194 6.86432 11.6534 7.06868 12.2228 7.37522C12.3142 7.24077 12.4163 7.1117 12.5183 6.98801ZM13.5551 16.453C14.7478 17.4802 16.3057 18.104 18.0087 18.104C19.8783 18.104 21.5759 17.3565 22.8008 16.1411C24.0311 14.9257 24.7939 13.2478 24.7993 11.3925C24.8046 9.53712 24.0471 7.85385 22.8169 6.62769C21.5866 5.40692 19.889 4.64326 18.0087 4.63788V4.62713C16.1285 4.63251 14.4255 5.39616 13.1952 6.62231C13.0985 6.71911 13.0072 6.81592 12.9212 6.91272C12.8621 6.97725 12.8084 7.04179 12.7547 7.1117C12.6526 7.23539 12.5559 7.36446 12.4592 7.49353C12.4055 7.56882 12.3571 7.64411 12.3034 7.7194C11.6158 8.77346 11.2182 10.0319 11.2236 11.3817C11.229 13.0273 11.8306 14.5331 12.8245 15.7001C12.9749 15.5818 13.1254 15.4528 13.2597 15.3129C13.2275 15.2753 13.1952 15.2376 13.1683 15.2C12.1799 13.9739 11.6641 12.3712 11.8522 10.688C11.965 9.71458 12.298 8.82186 12.803 8.05282C12.8514 7.97753 12.9051 7.90224 12.9534 7.83233C13.0501 7.70326 13.1469 7.5742 13.2489 7.45051C13.3027 7.38597 13.3617 7.32144 13.4208 7.2569C13.6465 7.0149 13.8882 6.78903 14.1514 6.58467C15.3924 5.61128 17.0095 5.10576 18.7072 5.29936C20.3994 5.49834 21.8553 6.35342 22.833 7.57957C23.8108 8.80572 24.3158 10.3976 24.117 12.0701H24.1277C23.9397 13.7426 23.0855 15.1839 21.8553 16.1626C20.6197 17.1414 19.008 17.6523 17.3157 17.4695C16.0425 17.3296 14.9036 16.8134 13.9957 16.0497C13.9903 16.0551 13.9849 16.0605 13.9796 16.0658C13.8345 16.211 13.7002 16.3347 13.5551 16.453ZM13.668 7.4774C13.7647 7.56344 13.8614 7.64948 13.958 7.74091C15.0379 8.80572 15.7094 10.2739 15.7094 11.9034C15.7148 13.4146 15.14 14.7967 14.1998 15.84C15.0594 16.566 16.1392 17.0607 17.348 17.1952C18.965 17.3834 20.5068 16.8994 21.6887 15.969C22.876 15.0387 23.7033 13.6619 23.8913 12.0593H23.9021C24.0794 10.4513 23.5797 8.92404 22.6289 7.75166C21.6833 6.58467 20.2919 5.77799 18.6695 5.60052C17.0578 5.42305 15.5214 5.91244 14.3448 6.8428C14.1031 7.03641 13.8775 7.24615 13.668 7.4774ZM13.4692 15.1032C14.1085 14.3826 14.5383 13.4737 14.6618 12.4519H14.6726C14.8177 11.1128 14.3986 9.83827 13.6088 8.8595C13.4369 8.64977 13.2489 8.45617 13.0502 8.27332C12.5882 8.99395 12.2766 9.8329 12.1745 10.7364C11.9918 12.3336 12.4753 13.8502 13.4101 15.0172C13.4262 15.0494 13.4477 15.0763 13.4692 15.1032ZM12.0616 7.60109C11.5298 7.32144 10.9389 7.13859 10.305 7.06867C8.9619 6.92347 7.68326 7.33219 6.70014 8.10661C5.7224 8.88102 5.04012 10.0211 4.88432 11.3548C4.72853 12.6832 5.13684 13.9523 5.91582 14.9257C6.69479 15.8991 7.84982 16.5821 9.19825 16.7381C10.4339 16.8779 11.6104 16.5552 12.5613 15.9099C11.5352 14.6891 10.9173 13.1188 10.9227 11.4032C10.9281 9.99961 11.3471 8.69279 12.0616 7.60109ZM3.26196 12.2368C3.05781 12.2207 0.484504 12.0486 0.704766 11.2634C0.903539 10.5535 1.90277 10.9461 1.90814 10.9246C1.91352 10.8923 1.6771 10.0749 1.8705 9.84365C2.18209 9.47796 2.55816 9.71996 2.75156 10.0695C2.92347 10.4029 3.26196 12.2368 3.26196 12.2368ZM12.298 5.61665C11.8414 5.32087 9.3272 3.90112 8.67716 3.28804C8.24201 2.87394 7.90354 2.15331 8.46226 1.66931C9.17676 1.05085 10.6649 2.52439 10.681 2.50288C10.7562 2.36305 10.5414 1.12076 10.7831 0.70129C10.998 0.330217 11.4868 0.168878 11.8844 0.394748C13.2597 1.17992 12.298 5.61665 12.298 5.61665ZM13.9043 4.64326C13.8184 4.36899 12.6956 0.37862 14.1192 0.400131C15.1292 0.416265 15.097 2.07802 15.1185 2.07802C15.1937 2.0834 16.0747 0.889516 16.6711 1.2821C17.305 1.69082 17.2351 2.23935 16.7946 2.7395C16.1123 3.53004 13.9043 4.64326 13.9043 4.64326ZM24.998 8.0582C24.8046 7.47201 24.5038 5.87479 24.6219 5.40154C24.7562 4.85838 25.4493 4.59486 25.7824 5.10576C25.9113 5.29936 25.9489 5.98773 25.9811 6.05764C25.9865 6.0684 26.2444 5.80488 26.325 5.74034C26.556 5.54136 26.8353 5.37465 27.1254 5.579C27.4478 5.80487 27.2866 6.30502 27.0932 6.56854C26.6527 7.17624 24.998 8.0582 24.998 8.0582Z" fill="#133F24"/>
</svg>
