<svg width="16" height="18" viewBox="0 0 16 18" fill="none" xmlns="http://www.w3.org/2000/svg">
<path fill-rule="evenodd" clip-rule="evenodd" d="M14.9873 7.41447C15.0038 7.40876 15.0204 7.40876 15.0369 7.41447C15.081 7.43162 15.1031 7.47734 15.0921 7.52306C15.0479 7.6545 15.07 8.22601 15.1141 9.02612C15.2024 10.7063 15.412 13.3695 15.4616 15.1812C15.4782 15.8384 15.4727 16.3871 15.4341 16.7357C15.412 16.9472 15.3679 17.0957 15.3182 17.1643C15.2465 17.2615 15.1693 17.3072 15.0921 17.3301C14.9928 17.3586 14.877 17.3358 14.7446 17.3186C14.5681 17.2958 14.3971 17.2786 14.2206 17.2672C14.0441 17.2501 13.8731 17.2443 13.6966 17.2329C12.7865 17.1929 11.8765 17.1529 10.9719 17.1358C10.3652 17.1243 9.76399 17.1186 9.15727 17.1358C8.41266 17.1529 7.66253 17.1643 6.9124 17.2043C6.416 17.2272 5.91958 17.2672 5.42318 17.3186C5.16394 17.3472 4.90469 17.3815 4.65097 17.4272C4.04425 17.5244 3.44306 17.6444 2.83634 17.7358C2.54401 17.7758 2.24065 17.8216 1.93729 17.8216C1.73321 17.8273 1.52363 17.8101 1.32507 17.7701C1.27542 17.7587 1.00515 17.6958 0.905872 17.6444C0.834168 17.6044 0.812115 17.5472 0.812115 17.5129C0.8066 17.3472 0.812121 17.1815 0.817636 17.0157C0.828668 16.6385 0.861737 16.2614 0.861737 15.8842C0.850706 14.2782 0.856224 12.6666 0.795552 11.0607C0.751427 9.99196 0.67423 8.92324 0.541855 7.86024C0.536339 7.81452 0.558388 7.77452 0.596998 7.75738C0.596998 7.7288 0.608028 7.70023 0.63009 7.67737C0.635606 7.67165 0.635616 7.67165 0.641132 7.66593C1.26991 7.10015 1.92074 6.54008 2.55504 5.97429C2.55504 5.51709 2.53849 5.05417 2.55504 4.59696L2.61022 3.45967C2.61573 3.40823 2.59366 3.23679 2.6047 3.13391C2.61021 3.06533 2.63778 3.01389 2.65984 2.98532C2.72051 2.92817 2.81429 2.88245 2.91909 2.86531C3.10662 2.83102 3.34379 2.84245 3.46513 2.84816C3.68024 2.85388 3.89534 2.86531 4.10493 2.87674C4.55721 2.91103 5.00951 2.96246 5.46179 2.99104C5.55555 2.87674 5.6438 2.75672 5.73205 2.6367C6.01886 2.24808 6.30568 1.87089 6.60353 1.49941C6.80209 1.25367 7.00616 1.00792 7.21576 0.76789L7.58529 0.356407C7.60184 0.339261 7.64596 0.270677 7.68457 0.236387C7.71766 0.202097 7.75627 0.184957 7.78385 0.179242C7.86107 0.167812 7.96035 0.196381 8.06515 0.253531C8.21959 0.344972 8.3906 0.504992 8.46781 0.573572C8.68293 0.762168 8.887 0.962196 9.08004 1.17365C9.36685 1.48798 9.63161 1.81374 9.90739 2.1395C10.128 2.39667 10.3541 2.64813 10.5858 2.8996C10.8009 2.88817 11.0105 2.87102 11.2256 2.85959C11.5124 2.84244 11.7937 2.8253 12.075 2.80244C12.3563 2.77958 12.6431 2.75672 12.9244 2.73386C13.0678 2.72243 13.2829 2.671 13.4705 2.65385C13.5697 2.64814 13.669 2.65385 13.7462 2.67671C13.7849 2.68814 13.8345 2.72243 13.8676 2.79101C13.9172 2.88816 13.9448 3.05961 13.9504 3.11105C13.9724 3.26536 13.9724 3.41966 13.9558 3.57397C13.9393 3.79685 13.8897 4.01974 13.8456 4.2312C13.7297 4.78556 13.6304 5.3342 13.5643 5.88856C14.0441 6.37434 14.5239 6.88297 14.9873 7.41447ZM0.718325 7.9174C0.8507 8.95753 0.927937 10.0034 0.977578 11.055C1.04928 12.6609 1.04927 14.2782 1.06581 15.8842C1.07133 16.2614 1.04375 16.6443 1.0272 17.0272C1.0272 17.0786 1.02171 17.1243 1.02171 17.1758C1.83803 16.5585 2.66536 15.947 3.49823 15.3527C4.38073 14.724 5.27977 14.1125 6.17881 13.5124C6.36083 13.3924 6.54836 13.2724 6.73038 13.1524C6.57042 12.9866 6.416 12.798 6.29465 12.598C6.15676 12.3694 6.05746 12.1237 6.02988 11.8779C5.32388 11.3864 4.58479 10.9521 3.86224 10.4892C3.54785 10.2891 3.23899 10.0777 2.94114 9.86051C2.6102 9.62047 2.29029 9.35759 1.97038 9.07755C1.5512 8.70036 1.132 8.30031 0.718325 7.9174ZM1.0272 17.3872C1.0272 17.4044 1.0272 17.4272 1.0272 17.4444C1.12648 17.4844 1.31954 17.5244 1.35264 17.5358C1.54017 17.5701 1.72771 17.5815 1.91524 17.5815C2.20757 17.5758 2.4999 17.5358 2.7812 17.4901C3.38792 17.3986 3.98911 17.2786 4.59031 17.1758C4.84954 17.13 5.11429 17.0957 5.37352 17.0672C5.86993 17.01 6.37187 16.9757 6.87379 16.9472C7.62392 16.9072 8.37957 16.8957 9.12418 16.8786C9.73641 16.8671 10.3431 16.8671 10.9499 16.8843C11.8599 16.9014 12.7645 16.9472 13.6801 16.9929C13.8621 17.0043 14.0386 17.0157 14.2151 17.0272C14.3916 17.0443 14.5681 17.0615 14.7501 17.0843C14.8494 17.0957 14.9376 17.1243 15.0149 17.1015H15.0204C14.6674 16.8843 14.2813 16.6671 13.8952 16.4499C13.476 16.2156 13.0513 15.9927 12.6597 15.7927C11.8654 15.3812 11.0215 15.0498 10.2107 14.6611C9.85774 14.4954 9.51025 14.3182 9.1738 14.1182C8.9256 13.9696 8.67738 13.8153 8.44021 13.6496V13.6553C8.31335 13.8382 8.19201 14.0268 8.06515 14.2154C8.06515 14.2497 8.05414 14.2782 8.02105 14.2954C7.99899 14.3068 7.97141 14.3068 7.94934 14.3011C7.93831 14.3011 7.93277 14.2954 7.92174 14.2897C7.89968 14.2725 7.88316 14.2439 7.88316 14.2154C7.80594 14.0896 7.71767 13.9925 7.62391 13.901C7.45292 13.741 7.25438 13.6096 7.05581 13.4496C7.01169 13.4153 6.96754 13.3753 6.92341 13.3353C6.71933 13.4667 6.52078 13.5981 6.31671 13.7296C5.41214 14.3182 4.51309 14.924 3.62507 15.5413C2.7536 16.1356 1.88212 16.7586 1.0272 17.3872ZM15.1472 16.9643C15.1638 16.9072 15.1803 16.8214 15.1914 16.7071C15.23 16.3642 15.241 15.8327 15.2245 15.1869C15.1914 13.3753 14.9983 10.7178 14.9266 9.03755C14.899 8.43747 14.888 7.96312 14.899 7.69451C14.3089 8.13457 13.6966 8.54034 13.1009 8.97468C12.952 9.08327 12.7976 9.19757 12.6542 9.30616C12.1302 9.70621 11.6393 10.1405 11.1263 10.552C10.9057 10.7292 10.6796 10.9006 10.4424 11.0664C10.1556 11.2664 9.86327 11.4607 9.57094 11.655C9.54336 11.8665 9.47716 12.0665 9.3834 12.2551C9.24551 12.5409 9.04694 12.8038 8.86492 13.0552C8.77116 13.1809 8.68291 13.301 8.59466 13.4324C8.82632 13.5924 9.06349 13.7467 9.31169 13.8896C9.63711 14.0839 9.9791 14.2611 10.3266 14.4268C11.1374 14.8212 11.9757 15.1698 12.7645 15.587C13.1561 15.7927 13.5808 16.027 13.9945 16.2671C14.3916 16.5014 14.7832 16.7414 15.1472 16.9643ZM2.53299 6.26004C1.95936 6.76296 1.38575 7.25446 0.817636 7.75167C1.24234 8.14029 1.67255 8.53462 2.1138 8.91753C2.23514 9.0204 2.35098 9.11756 2.47233 9.21471C2.43923 8.87181 2.43368 8.53462 2.4392 8.19744C2.45023 7.63165 2.49989 7.07157 2.52195 6.50578C2.52746 6.42006 2.52747 6.34005 2.53299 6.26004ZM5.25771 3.23678C4.8661 3.20249 4.46896 3.15677 4.07184 3.12819C3.86224 3.11105 3.65264 3.09962 3.44305 3.09391C3.34377 3.09391 3.16728 3.07677 3.01285 3.09963C2.93563 3.11106 2.86393 3.12248 2.81429 3.15677C2.81429 3.20249 2.81981 3.43681 2.81429 3.48824L2.74811 4.62554C2.73156 5.01988 2.73707 5.4085 2.73707 5.80284C2.73707 5.89999 2.73707 5.99143 2.73707 6.08859C2.73707 6.10573 2.73707 6.12288 2.73707 6.14002C2.73155 6.26575 2.73154 6.3972 2.72602 6.52293C2.69845 7.08872 2.64329 7.64879 2.62675 8.20886C2.61571 8.58034 2.62123 8.95182 2.66536 9.3233C2.66536 9.34045 2.66535 9.3633 2.65432 9.37473C2.79221 9.48332 2.9301 9.58619 3.06799 9.68334C3.36583 9.90051 3.67473 10.1005 3.9836 10.2949C4.66754 10.7292 5.3625 11.135 6.0354 11.5864C6.07953 11.3236 6.22294 11.1007 6.4215 10.9521C6.68625 10.7578 7.03924 10.6949 7.3757 10.8606C7.49704 10.9235 7.60183 11.0092 7.67905 11.1178C7.75627 11.2207 7.81143 11.335 7.85555 11.455C7.92174 11.3293 7.99896 11.2093 8.09272 11.1064C8.21407 10.9692 8.36299 10.8549 8.54501 10.7749C8.85388 10.6435 9.12968 10.7006 9.31721 10.8664C9.44407 10.9807 9.53784 11.1521 9.56542 11.3636C9.81362 11.2035 10.0563 11.0378 10.299 10.8721C10.5306 10.712 10.7513 10.5463 10.9719 10.3749C11.4904 9.9691 11.9868 9.54047 12.5163 9.14042C12.6652 9.02611 12.8196 8.91753 12.9741 8.80894C13.0789 8.73465 13.1837 8.66036 13.2885 8.59178C13.283 8.58606 13.283 8.57463 13.283 8.5632C13.2278 7.81453 13.2388 7.08872 13.2995 6.36291C13.3105 6.23146 13.3215 6.0943 13.3381 5.96286C13.3491 5.87713 13.3547 5.79712 13.3657 5.71139C13.4264 5.20847 13.5146 4.69983 13.6139 4.19119C13.6525 3.98545 13.6966 3.77399 13.7132 3.55682C13.7242 3.41966 13.7242 3.2825 13.7021 3.14534C13.6966 3.11676 13.6856 3.03675 13.6635 2.96817C13.658 2.94531 13.6415 2.91674 13.636 2.8996C13.5863 2.88817 13.5256 2.88817 13.465 2.89388C13.2774 2.91103 13.0678 2.96246 12.9189 2.97961C12.6376 3.00818 12.3508 3.03104 12.064 3.0539C11.7772 3.07676 11.4959 3.09963 11.2091 3.11677C11.0657 3.1282 10.9222 3.13391 10.7844 3.14534C10.6796 3.15105 10.5748 3.15677 10.47 3.1682C9.58749 3.22535 8.70496 3.2825 7.81694 3.29965C7.05578 3.31679 6.29463 3.31108 5.5445 3.26536H5.53902C5.45077 3.24821 5.35699 3.2425 5.25771 3.23678ZM10.2494 2.91674C10.0673 2.71671 9.88533 2.51098 9.70331 2.30524C9.43305 1.98519 9.16278 1.65943 8.88149 1.35082C8.69396 1.14508 8.50091 0.950768 8.29131 0.773602C8.23064 0.722166 8.10378 0.602152 7.97692 0.516427C7.93831 0.487852 7.89416 0.464994 7.85555 0.447849C7.83901 0.442134 7.82797 0.436417 7.81694 0.436417C7.79488 0.464992 7.76731 0.522141 7.7618 0.533571L7.39226 0.945055C7.12751 1.24224 6.8793 1.54513 6.6311 1.85374C6.38841 2.16236 6.14573 2.47669 5.90855 2.79673C5.8534 2.87102 5.79824 2.94532 5.73757 3.01962C6.42702 3.05391 7.12197 3.05391 7.81694 3.03676C8.63325 3.0139 9.44407 2.96818 10.2494 2.91674ZM14.8384 7.50591C14.4192 7.02585 13.9724 6.57436 13.5201 6.12859C13.5091 6.2086 13.5036 6.28861 13.4925 6.37434C13.4264 7.06586 13.4098 7.76309 13.4484 8.47176C13.9117 8.15743 14.375 7.84882 14.8218 7.51163C14.8328 7.51163 14.8328 7.51163 14.8384 7.50591ZM7.81694 0.436417C7.82797 0.436417 7.85558 0.436417 7.85007 0.419272C7.84455 0.413557 7.83349 0.419272 7.81694 0.436417ZM7.27642 6.51722C7.10544 6.66009 6.89033 6.7401 6.65867 6.7401C6.38289 6.7401 6.13468 6.6258 5.95818 6.44292C5.77616 6.26004 5.67139 6.00286 5.67139 5.72283C5.6769 5.44279 5.7872 5.19133 5.96922 5.00845C6.15123 4.83128 6.39393 4.71698 6.66419 4.72269V4.71697C6.93446 4.71697 7.18267 4.82556 7.35917 5.00845C7.36468 5.01416 7.37018 5.01988 7.37018 5.01988C7.45291 4.93415 7.5522 4.86557 7.657 4.80842L7.65148 4.8027C7.92174 4.65983 8.2196 4.64269 8.48987 4.73413C8.76013 4.82557 8.99729 5.01988 9.13519 5.2942C9.27308 5.57423 9.28962 5.88285 9.20137 6.16289C9.11312 6.44292 8.92007 6.68295 8.64981 6.82582C8.37403 6.9687 8.07068 6.98013 7.80041 6.88869C7.59633 6.82582 7.41431 6.69438 7.27642 6.51722ZM7.2985 5.09989C7.29299 5.09417 7.28746 5.08846 7.28194 5.08274C7.12199 4.91701 6.90136 4.81414 6.65867 4.81414V4.80842C6.41598 4.80842 6.19536 4.91701 6.0354 5.08274C5.88096 5.24848 5.7817 5.47136 5.7817 5.72283C5.7817 5.96857 5.88097 6.19145 6.04092 6.35147C6.20088 6.5115 6.41598 6.61437 6.65315 6.61437C6.86274 6.61437 7.05579 6.54007 7.20471 6.41434C7.18817 6.38577 7.17164 6.35148 7.15509 6.32291C7.02272 6.04287 7.01167 5.73425 7.09992 5.45993C7.14404 5.32848 7.21025 5.20847 7.2985 5.09989ZM7.36469 6.43721C7.48603 6.59723 7.65149 6.71152 7.83903 6.77439C8.08171 6.8544 8.35198 6.84297 8.59466 6.71724C8.83735 6.59151 9.00835 6.37433 9.09108 6.12859C9.1683 5.88284 9.15725 5.6028 9.03591 5.35134C8.91456 5.09988 8.70498 4.92272 8.46229 4.83699C8.21961 4.75127 7.94382 4.7627 7.69561 4.88843V4.88271C7.59633 4.93415 7.50258 5.00845 7.43087 5.08846C7.56876 5.25991 7.65148 5.48279 7.65148 5.7171C7.65148 6.00286 7.54119 6.25432 7.36469 6.43721ZM7.2985 6.33433C7.44191 6.17431 7.53567 5.96286 7.53567 5.72283C7.53567 5.51708 7.46948 5.32848 7.35917 5.17418C7.28746 5.27133 7.23229 5.37421 7.19919 5.48851C7.12197 5.73997 7.13852 6.01429 7.26538 6.26575C7.27089 6.28861 7.28196 6.31147 7.2985 6.33433ZM4.42485 9.70621C4.39727 9.70621 4.37519 9.68335 4.37519 9.66049C4.37519 9.63191 4.39726 9.61477 4.41933 9.60905C4.55722 9.59762 4.70063 9.5919 4.83852 9.58619C4.93229 9.58047 5.02606 9.58047 5.11982 9.58047C5.18049 9.58047 5.24666 9.58047 5.30733 9.58619C5.4011 9.5919 5.49487 9.59762 5.58864 9.60333C5.6107 9.60333 5.63277 9.62048 5.62725 9.64905C5.62725 9.67191 5.6107 9.68906 5.58864 9.68906C5.49487 9.69478 5.4011 9.70049 5.30733 9.70049C5.24666 9.70049 5.18049 9.70621 5.11982 9.70621C5.02606 9.70621 4.93229 9.70621 4.83852 9.70621C4.70614 9.71192 4.56274 9.70621 4.42485 9.70621ZM6.91792 9.74621C6.89035 9.74621 6.87379 9.72335 6.87379 9.69477C6.87379 9.6662 6.89583 9.64905 6.92341 9.64905C7.05579 9.64905 7.18818 9.64906 7.32055 9.64334C7.4088 9.64334 7.49704 9.64334 7.58529 9.64334C7.64597 9.64334 7.70113 9.64905 7.7618 9.64905C7.85005 9.65477 7.93829 9.66048 8.02654 9.6662C8.0486 9.6662 8.07067 9.68334 8.07067 9.71192C8.07067 9.73478 8.0486 9.75764 8.02654 9.75764C7.91622 9.76336 7.80593 9.76907 7.69561 9.77478C7.61839 9.77478 7.54668 9.77478 7.47497 9.77478C7.40327 9.77478 7.32607 9.76907 7.25437 9.76335C7.13854 9.75764 7.02824 9.75192 6.91792 9.74621ZM9.43854 9.68906C9.41096 9.68906 9.38892 9.67192 9.38892 9.64334C9.38892 9.61477 9.41099 9.59762 9.43305 9.59191C9.57646 9.58048 9.71985 9.57476 9.86325 9.56333C9.95702 9.55762 10.0508 9.5519 10.1501 9.54619C10.2438 9.54047 10.3376 9.54047 10.4369 9.54047C10.5803 9.54047 10.7237 9.54047 10.8671 9.54047C10.8892 9.54047 10.9112 9.55762 10.9112 9.58047C10.9112 9.60334 10.8947 9.6262 10.8726 9.6262C10.7568 9.63763 10.6465 9.64906 10.5307 9.65477C10.4534 9.66049 10.3762 9.6662 10.3045 9.67192C10.1887 9.67763 10.0784 9.67763 9.96253 9.68334C9.78051 9.68906 9.60952 9.68906 9.43854 9.68906ZM10.2273 8.96896C10.1997 8.96896 10.1777 8.9461 10.1832 8.92324C10.1832 8.89467 10.2052 8.87753 10.2328 8.87753C10.3266 8.87181 10.4203 8.87181 10.5141 8.8661C10.5748 8.8661 10.6355 8.8661 10.7016 8.8661C10.7402 8.8661 10.7844 8.87181 10.8285 8.87181C10.8892 8.87752 10.9498 8.88324 11.016 8.88895C11.0381 8.88895 11.0546 8.9061 11.0546 8.93467C11.0546 8.96325 11.0381 8.98039 11.016 8.98039C10.9554 8.98611 10.8892 8.99182 10.8285 8.99754C10.7899 8.99754 10.7458 9.00325 10.7016 9.00325C10.641 9.00325 10.5803 9.00325 10.5141 8.99754C10.4148 8.98039 10.3211 8.97468 10.2273 8.96896ZM12.0695 8.92896C12.0419 8.92896 12.0199 8.9061 12.0254 8.87753C12.0254 8.84895 12.0474 8.83181 12.075 8.83181C12.1192 8.82609 12.1633 8.82037 12.2074 8.82037C12.235 8.82037 12.2626 8.82037 12.2957 8.82037C12.3177 8.82037 12.3343 8.82609 12.3508 8.82609C12.3839 8.8318 12.4059 8.83752 12.439 8.84323C12.4611 8.84323 12.4777 8.86609 12.4777 8.88895C12.4777 8.91181 12.4556 8.92896 12.4336 8.92896C12.4005 8.93468 12.3729 8.94039 12.3453 8.94039C12.3232 8.94039 12.3067 8.94611 12.2846 8.94611C12.257 8.94611 12.2239 8.94611 12.1964 8.94039C12.1577 8.94039 12.1136 8.93468 12.0695 8.92896ZM5.33491 10.3463C5.30733 10.3463 5.28528 10.3291 5.28528 10.3006C5.28528 10.272 5.30184 10.2491 5.32942 10.2491C5.45628 10.2377 5.58313 10.2206 5.70448 10.2091C5.78721 10.2034 5.87544 10.1977 5.95818 10.192C6.01333 10.192 6.06849 10.192 6.12916 10.192C6.21189 10.192 6.30016 10.1977 6.38289 10.2034C6.40495 10.2034 6.42702 10.2206 6.42702 10.2434C6.42702 10.2663 6.41047 10.2891 6.38841 10.2891C6.30568 10.2948 6.22293 10.3006 6.13468 10.312C6.07952 10.3177 6.02437 10.3234 5.96922 10.3234C5.88648 10.3291 5.79822 10.3291 5.71549 10.3349C5.58863 10.3406 5.46177 10.3463 5.33491 10.3463ZM7.4805 10.2949C7.45292 10.2949 7.43087 10.272 7.43087 10.2491C7.43087 10.2206 7.45292 10.2034 7.4805 10.2034C7.57426 10.1977 7.66804 10.192 7.76732 10.192C7.82799 10.192 7.89416 10.1863 7.95483 10.1863C7.99896 10.1863 8.03759 10.192 8.08171 10.192C8.14239 10.1977 8.20855 10.2034 8.26923 10.2091C8.29129 10.2091 8.30784 10.2263 8.30784 10.2548C8.30784 10.2777 8.2858 10.2949 8.26374 10.2949C8.18652 10.3006 8.10376 10.3063 8.02654 10.312C7.97138 10.312 7.92175 10.3177 7.8666 10.3177C7.81144 10.3177 7.76181 10.3177 7.70666 10.312C7.64047 10.3063 7.55771 10.3006 7.4805 10.2949ZM9.51577 10.2434C9.4937 10.2434 9.46614 10.2263 9.46614 10.1977C9.46063 10.1691 9.48267 10.1463 9.51024 10.1463C9.60953 10.1348 9.71432 10.1234 9.81912 10.112C9.88531 10.1063 9.95701 10.1005 10.0287 10.0948C10.0949 10.0891 10.1666 10.0891 10.2328 10.0891C10.3376 10.0891 10.4369 10.0891 10.5417 10.0891C10.5637 10.0891 10.5858 10.1063 10.5858 10.1291C10.5858 10.152 10.5692 10.1748 10.5472 10.1748C10.4645 10.1863 10.3817 10.1977 10.299 10.2034C10.2438 10.2091 10.1887 10.2148 10.1335 10.2206C10.0508 10.2263 9.96804 10.2263 9.8853 10.232C9.76396 10.2377 9.63711 10.2377 9.51577 10.2434ZM11.7551 8.44318C11.7275 8.44318 11.7055 8.42032 11.711 8.39746C11.711 8.36888 11.733 8.35174 11.7551 8.35174C11.8434 8.34602 11.9371 8.34031 12.0254 8.34031C12.086 8.34031 12.1467 8.34031 12.2074 8.34031C12.246 8.34031 12.2846 8.34602 12.3288 8.35174C12.3894 8.35745 12.4501 8.36889 12.5052 8.3746C12.5273 8.3746 12.5438 8.39746 12.5438 8.42032C12.5438 8.44318 12.5218 8.46032 12.4997 8.46032C12.4391 8.46032 12.3784 8.46604 12.3177 8.47176C12.2791 8.47176 12.2405 8.47176 12.1964 8.47176C12.1357 8.47176 12.075 8.46604 12.0144 8.46604C11.9316 8.45461 11.8434 8.44318 11.7551 8.44318ZM3.98912 9.02612C3.96155 9.02612 3.94499 9.00325 3.94499 8.98039C3.94499 8.95182 3.96703 8.93467 3.99461 8.93467C4.09941 8.93467 4.20973 8.92896 4.31453 8.92324C4.38623 8.92324 4.45794 8.91753 4.52965 8.92324C4.57929 8.92324 4.62893 8.92896 4.67306 8.92896C4.74476 8.93468 4.81644 8.94039 4.88814 8.94611C4.9102 8.94611 4.92675 8.96897 4.92675 8.99183C4.92675 9.01469 4.90472 9.03183 4.88265 9.03183C4.7944 9.03754 4.70061 9.04326 4.61236 9.04897C4.55169 9.04897 4.49105 9.05469 4.43589 9.05469C4.37522 9.05469 4.31454 9.05469 4.25386 9.04897C4.17113 9.03754 4.08289 9.03183 3.98912 9.02612ZM5.87546 9.0604C5.84788 9.0604 5.83133 9.03754 5.83133 9.01468C5.83133 8.99182 5.8534 8.96896 5.88098 8.96896C6.063 8.96896 6.23949 8.96325 6.4215 8.96325C6.54285 8.96325 6.65869 8.96325 6.78003 8.96896C6.85725 8.96896 6.93998 8.97468 7.0172 8.98039C7.13855 8.98611 7.25435 8.99182 7.3757 9.00325C7.39776 9.00325 7.41983 9.0204 7.41983 9.04897C7.41983 9.07183 7.39776 9.08898 7.3757 9.08898C7.25435 9.0947 7.13855 9.0947 7.0172 9.10041C6.93998 9.10041 6.85725 9.10041 6.78003 9.10041C6.65869 9.10041 6.54285 9.09469 6.4215 9.09469C6.23397 9.07755 6.05196 9.06612 5.87546 9.0604ZM8.2527 9.02612C8.22512 9.02612 8.20304 9.00325 8.20304 8.98039C8.20304 8.95753 8.22511 8.93467 8.24718 8.93467C8.35749 8.92896 8.47331 8.92324 8.58914 8.91753C8.66636 8.91753 8.73808 8.91182 8.8153 8.91182C8.86494 8.91182 8.91456 8.91753 8.9642 8.91753C9.04142 8.92324 9.11314 8.92896 9.19036 8.93467C9.21242 8.93467 9.22898 8.95182 9.22898 8.98039C9.22898 9.00897 9.2069 9.0204 9.18484 9.0204C9.10762 9.02612 9.0359 9.03183 8.95868 9.03183C8.90904 9.03183 8.85942 9.03755 8.80978 9.03755C8.73256 9.03755 8.66084 9.03755 8.58362 9.03755C8.47883 9.03183 8.36301 9.02612 8.2527 9.02612ZM3.75192 7.94597C3.72986 7.94597 3.70782 7.92311 3.70782 7.90025C3.70782 7.87168 3.72987 7.85453 3.75744 7.85453C3.84569 7.84882 3.92845 7.84882 4.0167 7.84882C4.07185 7.84882 4.13252 7.84882 4.18768 7.84882C4.24284 7.84882 4.30351 7.85453 4.35866 7.86024C4.44691 7.86596 4.52963 7.88311 4.61788 7.89454C4.63994 7.89454 4.65649 7.9174 4.65649 7.94026C4.65649 7.96312 4.63442 7.98026 4.61236 7.98026C4.54066 7.98026 4.4745 7.98598 4.4028 7.98598C4.35867 7.98598 4.30903 7.98598 4.26491 7.98598C4.19872 7.98598 4.12698 7.98027 4.0608 7.97455C3.96152 7.96312 3.85672 7.95169 3.75192 7.94597ZM5.53902 7.99741C5.51695 7.99741 5.48936 7.98026 5.48936 7.95169C5.48936 7.92311 5.50592 7.90597 5.53349 7.90025C5.64381 7.89454 5.74859 7.88311 5.8589 7.8774C5.9306 7.87168 6.00231 7.87168 6.07402 7.87168C6.14572 7.87168 6.21743 7.87168 6.28913 7.8774C6.39945 7.88311 6.50422 7.89454 6.61454 7.90596C6.6366 7.90596 6.65315 7.92883 6.65315 7.95169C6.65315 7.97455 6.63111 7.9917 6.60905 7.9917C6.5208 7.9917 6.43805 7.99741 6.3498 7.99741C6.29464 7.99741 6.23397 7.99741 6.17881 7.99741C6.09056 7.99741 6.00785 7.99741 5.9196 7.99741C5.79825 8.00312 5.66588 7.99741 5.53902 7.99741ZM7.51911 8.00884C7.49153 8.00884 7.46949 7.98598 7.46949 7.96312C7.46949 7.93454 7.49153 7.9174 7.51359 7.91169C7.61287 7.90597 7.71217 7.90026 7.81145 7.89454C7.87764 7.89454 7.94382 7.88882 8.01001 7.88882C8.0762 7.88882 8.14238 7.88883 8.20856 7.89454C8.30784 7.90026 8.40711 7.91168 8.50639 7.9174C8.52846 7.9174 8.54501 7.94026 8.54501 7.96312C8.54501 7.98598 8.52297 8.00312 8.50091 8.00312C8.41817 8.00883 8.34096 8.00884 8.26374 8.01455C8.20858 8.01455 8.15892 8.02027 8.10376 8.02027C8.02655 8.02027 7.94382 8.02027 7.8666 8.01455C7.7618 8.02027 7.64045 8.01455 7.51911 8.00884ZM9.23446 7.96883C9.20688 7.96883 9.19036 7.94597 9.18484 7.92311C9.18484 7.89453 9.20688 7.8774 9.23446 7.8774C9.35581 7.87168 9.47717 7.86596 9.59851 7.86024C9.68125 7.86024 9.76399 7.85453 9.84672 7.86024C9.90188 7.86024 9.95703 7.86596 10.0122 7.86596C10.0949 7.87168 10.1777 7.87739 10.2604 7.88882C10.2825 7.88882 10.299 7.91168 10.299 7.93454C10.299 7.9574 10.2769 7.97455 10.2549 7.97455C10.1556 7.97455 10.0508 7.98026 9.95152 7.98598C9.88533 7.98598 9.8136 7.98598 9.74741 7.98598C9.68122 7.98598 9.60952 7.98598 9.54334 7.98026C9.43854 7.97455 9.33374 7.96883 9.23446 7.96883ZM11.0657 7.92311C11.0381 7.92311 11.0216 7.90025 11.0216 7.87168C11.0216 7.8431 11.0436 7.82595 11.0712 7.82595C11.2036 7.82595 11.3359 7.82024 11.4683 7.82024C11.5566 7.82024 11.6448 7.82024 11.7331 7.82595C11.7937 7.82595 11.8489 7.83167 11.9096 7.83739C11.9978 7.8431 12.0861 7.85453 12.1743 7.86596C12.1964 7.86596 12.2129 7.88883 12.2129 7.91169C12.2129 7.93455 12.1908 7.95169 12.1688 7.95169C12.0585 7.95169 11.9482 7.95169 11.8379 7.95169C11.7662 7.95169 11.6944 7.95169 11.6172 7.94597C11.5455 7.94597 11.4738 7.94026 11.3966 7.93454C11.2863 7.94026 11.176 7.93454 11.0657 7.92311ZM3.71883 8.50605C3.69125 8.50605 3.66921 8.48318 3.66921 8.46032C3.66921 8.43175 3.69125 8.4146 3.71883 8.4146C3.81811 8.40889 3.92294 8.40318 4.02222 8.40318C4.0884 8.40318 4.16011 8.39746 4.22629 8.40318C4.29248 8.40318 4.36418 8.40889 4.43037 8.40889C4.52965 8.41461 4.63444 8.42604 4.73372 8.43747C4.75578 8.43747 4.77234 8.46033 4.77234 8.48319C4.77234 8.50605 4.75026 8.52319 4.7282 8.52319C4.64547 8.52319 4.56273 8.52891 4.48551 8.52891C4.43036 8.52891 4.37521 8.52891 4.32005 8.52891C4.23731 8.52891 4.15458 8.52319 4.07736 8.52319C3.96705 8.51748 3.84017 8.50605 3.71883 8.50605ZM5.88647 8.4889C5.85889 8.4889 5.84237 8.46604 5.84237 8.43747C5.84237 8.40889 5.86441 8.39175 5.89199 8.39175C6.01885 8.39746 6.14571 8.39174 6.26705 8.39746C6.34978 8.39746 6.43805 8.39746 6.52078 8.40318C6.57594 8.40318 6.63109 8.40889 6.69176 8.4146C6.7745 8.42032 6.86276 8.43175 6.9455 8.43747C6.96756 8.43747 6.98411 8.46033 6.98411 8.48319C6.98411 8.50605 6.96204 8.52319 6.93997 8.52319C6.83518 8.52319 6.73038 8.52891 6.62558 8.52891C6.55388 8.52891 6.48769 8.52891 6.41598 8.52891C6.34428 8.52891 6.27257 8.52319 6.20639 8.51748C6.09607 8.51176 5.99127 8.50033 5.88647 8.4889ZM8.03758 8.55177C8.01552 8.55177 7.99345 8.52891 7.99345 8.50605C7.99345 8.47747 8.01552 8.46032 8.0431 8.46032C8.18099 8.46032 8.31888 8.4489 8.45677 8.4489C8.55054 8.4489 8.64431 8.44318 8.73808 8.44318C8.79875 8.44318 8.8594 8.44319 8.92559 8.4489C9.01935 8.45462 9.10761 8.46033 9.20689 8.46604C9.22895 8.46604 9.2455 8.48319 9.2455 8.51177C9.2455 8.54034 9.22343 8.55177 9.20137 8.55177C9.08554 8.55748 8.96971 8.5632 8.85388 8.56891C8.77666 8.57463 8.69945 8.57462 8.62224 8.57462C8.54502 8.57462 8.46781 8.57463 8.39059 8.56891C8.26924 8.5632 8.15341 8.55748 8.03758 8.55177ZM10.0011 8.4889C9.97357 8.4889 9.95701 8.46604 9.95701 8.43747C9.95701 8.40889 9.97909 8.39175 10.0067 8.39175C10.1225 8.39175 10.2383 8.39175 10.3542 8.38603C10.4314 8.38603 10.5086 8.38603 10.5858 8.38603C10.641 8.38603 10.6906 8.39175 10.7403 8.39175C10.8175 8.39746 10.8947 8.40317 10.9719 8.4146C10.994 8.4146 11.0105 8.43746 11.0105 8.46032C11.0105 8.48318 10.9884 8.50033 10.9664 8.50033C10.8671 8.50605 10.7733 8.51177 10.6741 8.51177C10.6079 8.51177 10.5472 8.51177 10.481 8.51177C10.4148 8.51177 10.3542 8.50605 10.288 8.50605C10.1997 8.50605 10.1004 8.50033 10.0011 8.4889Z" fill="#133F24"/>
</svg>
