<svg width="19" height="26" viewBox="0 0 19 26" fill="none" xmlns="http://www.w3.org/2000/svg">
<path fill-rule="evenodd" clip-rule="evenodd" d="M12.5519 10.4249C12.5471 10.1606 12.5851 9.89151 12.6755 9.64163C12.7135 9.54072 12.7562 9.44461 12.8085 9.35331C12.8228 9.32448 12.8418 9.30046 12.8561 9.27163C12.8656 9.25721 12.875 9.21397 12.8846 9.22838C12.9321 9.30046 12.8988 9.47345 12.8846 9.55514C12.8323 9.87229 12.6707 10.1366 12.5519 10.4249ZM12.5519 10.4249C12.5519 10.4393 12.5519 10.4537 12.5519 10.4634C12.8513 9.93477 13.1983 9.43982 13.569 8.95929C14.1916 8.15199 14.8808 7.39275 15.5367 6.61429C15.5225 6.6239 15.5082 6.63351 15.4939 6.63831C15.3323 6.72961 15.1374 6.78728 14.9568 6.75845C14.8333 6.73922 14.7192 6.67676 14.6289 6.55663C14.5529 6.45572 14.5434 6.33558 14.5719 6.22025C14.6099 6.06648 14.7192 5.91752 14.8238 5.81661C14.9806 5.66764 15.1707 5.55232 15.3798 5.47543C15.5842 5.39374 15.8028 5.34568 16.0167 5.31685C16.012 5.29282 16.0073 5.2688 16.0073 5.24477C15.8884 5.20633 15.7743 5.16308 15.665 5.10542C15.5129 5.02853 15.3703 4.92281 15.242 4.77385C15.1612 4.67774 15.0899 4.56241 15.0472 4.44228C15.0044 4.31734 14.9901 4.17799 15.0186 4.04344C15.0661 3.83682 15.204 3.72629 15.3561 3.69746C15.5035 3.67343 15.6698 3.72629 15.8076 3.86084C15.8504 3.90409 15.8884 3.95215 15.9217 4.00501C15.9692 4.07709 16.0072 4.15877 16.0453 4.23565C16.0738 4.29812 16.1023 4.3654 16.1261 4.43267C16.1784 4.58644 16.2211 4.74021 16.2639 4.89398C16.2972 4.87956 16.3305 4.86996 16.3685 4.86035C16.3732 4.83633 16.3732 4.81229 16.378 4.78826C16.3875 4.67294 16.4018 4.56242 16.4255 4.44709C16.454 4.28371 16.4873 4.11071 16.5538 3.96175C16.6013 3.85603 16.6679 3.75993 16.7582 3.67824C16.9008 3.5581 17.0814 3.51486 17.2335 3.5581C17.3904 3.60135 17.5187 3.72148 17.5567 3.93292C17.571 4.02422 17.5615 4.11552 17.5377 4.20682C17.4997 4.33176 17.4284 4.44709 17.3476 4.548C17.2478 4.67774 17.1385 4.80269 17.0196 4.91802C17.0909 4.88438 17.1622 4.86035 17.2335 4.83632C17.4426 4.77385 17.6565 4.75943 17.8799 4.8219C17.994 4.85554 18.1318 4.9084 18.2316 4.99009C18.3077 5.05256 18.3647 5.13426 18.379 5.23517C18.4075 5.40816 18.3457 5.56193 18.2364 5.67245C18.1318 5.78298 17.9845 5.85505 17.8276 5.87427C17.7468 5.88388 17.666 5.87427 17.5852 5.85985C17.4759 5.83583 17.3713 5.79258 17.262 5.75414C17.1146 5.70608 16.9626 5.65803 16.82 5.60517C16.7867 5.59556 16.7582 5.58115 16.725 5.56674C16.7012 5.57635 16.6727 5.58596 16.6489 5.59557C16.6727 5.6292 16.6964 5.66764 16.7154 5.70608C16.801 5.86466 16.8723 6.03765 16.9198 6.22025C16.9673 6.40285 16.9911 6.59027 16.9911 6.76806C16.9911 6.95067 16.9531 7.14288 16.8532 7.29184C16.7819 7.39756 16.6821 7.47445 16.549 7.51769C16.3399 7.58016 16.1071 7.50327 15.9312 7.35911C15.7553 7.21495 15.6365 6.99871 15.6413 6.79209C15.6413 6.72481 15.6508 6.65273 15.6698 6.59026C15.2325 7.11884 14.7763 7.63782 14.339 8.17121C14.5386 8.00302 14.762 7.82043 15.0186 7.78679C15.1137 7.77237 15.223 7.77718 15.3133 7.82043C15.3228 7.82524 15.3846 7.86367 15.3751 7.88289C15.3513 7.94055 15.185 8.00783 15.1327 8.04147C14.8523 8.20966 14.5434 8.29134 14.2202 8.32017C14.03 8.55083 13.8447 8.78629 13.6593 9.02656C13.2268 9.59358 12.8276 10.1846 12.4996 10.8189C12.6184 10.6844 12.7467 10.5547 12.8798 10.4297C13.0414 10.2856 13.2078 10.1462 13.3884 10.0261C13.531 9.92996 13.6735 9.84346 13.8256 9.76658C13.8256 9.76177 13.8256 9.76178 13.8256 9.75697C13.9492 9.52632 14.0776 9.30527 14.2772 9.13708C14.339 9.08422 14.4055 9.04097 14.4815 9.00733C14.4863 9.00733 14.5528 8.98331 14.5528 8.98331C14.5576 9.04578 14.4435 9.18033 14.415 9.22838C14.3152 9.39177 14.2011 9.53111 14.068 9.65605C14.2819 9.56475 14.5053 9.49748 14.7382 9.45424C14.9473 9.3341 15.185 9.24761 15.4274 9.27644C15.4796 9.28125 15.7031 9.3341 15.6936 9.42059C15.6936 9.4254 15.646 9.43982 15.6413 9.43982C15.5747 9.46385 15.5034 9.48306 15.4369 9.49748C15.2135 9.55034 14.9806 9.56955 14.7525 9.55033C14.4911 9.6128 14.2439 9.7041 14.011 9.81943C13.9112 9.86748 13.8066 9.92516 13.7116 9.98282C13.7353 9.97321 13.7591 9.9684 13.7686 9.9636C14.0015 9.86269 14.2914 9.80501 14.5433 9.83384C14.6194 9.84346 14.7572 9.85788 14.8095 9.91554C14.819 9.92515 14.781 9.92515 14.7667 9.92996C14.7382 9.93957 14.7145 9.94437 14.6859 9.95398C14.6004 9.978 14.5148 10.002 14.4245 10.0213C14.1678 10.0693 13.9017 10.0693 13.6403 10.0261C13.5785 10.0645 13.5214 10.1029 13.4644 10.1414C13.2885 10.2615 13.1222 10.3865 12.9654 10.5258C12.7325 10.7276 12.5186 10.9535 12.3237 11.1842C12.2429 11.3523 12.1716 11.5253 12.1003 11.6935C12.4996 11.7608 12.7705 11.8377 12.8846 11.9194C12.9606 11.9722 12.9891 12.0347 12.9891 12.0923C12.9891 12.1116 12.9844 12.1308 12.9796 12.15C13.0604 12.2653 13.0937 12.3759 13.0842 12.4768C13.0794 12.5681 13.0414 12.6546 12.9701 12.7314C13.0937 12.89 13.1365 13.039 13.1127 13.1687C13.0889 13.3177 12.9844 13.4523 12.8038 13.5628C12.6897 13.6349 12.5376 13.7021 12.3617 13.7598C12.3617 13.7598 12.357 13.7598 12.357 13.7646C12.357 13.7646 12.1669 13.9088 12.2239 14.1202C12.2524 14.2211 12.3333 14.3316 12.5044 14.4518C12.704 14.5911 12.8703 14.7209 13.0129 14.8314C13.3313 15.0813 13.5025 15.2398 13.5025 15.2398C13.5215 15.2542 13.5309 15.2783 13.5309 15.3023C13.5309 15.3023 13.8684 19.4493 14.0015 21.8375C14.0395 22.5199 14.0633 23.0629 14.0538 23.3176C14.0538 23.4041 14.0443 23.4617 14.0348 23.4906C14.0253 23.5194 14.0157 23.5386 14.0062 23.5482C13.9159 23.6635 13.3551 24.394 11.9055 24.9081C11.0357 25.2157 9.83795 25.4463 8.22195 25.4127C6.52991 25.3742 5.21334 25.1196 4.22948 24.8072C2.642 24.3027 1.9005 23.6539 1.81495 23.5386C1.80544 23.529 1.79597 23.5098 1.78646 23.481C1.77696 23.4521 1.77218 23.3945 1.76743 23.308C1.76268 23.0485 1.78168 22.5103 1.81971 21.8279C1.95279 19.4445 2.28078 15.2927 2.28078 15.2927C2.28078 15.2687 2.29502 15.2446 2.31403 15.2254C2.31403 15.2254 2.48515 15.062 2.8036 14.8122C2.94618 14.7016 3.11251 14.5719 3.31213 14.4325C3.47849 14.3124 3.55932 14.2067 3.58784 14.1058C3.64488 13.904 3.4595 13.7598 3.4595 13.7598C3.45475 13.755 3.44999 13.755 3.44999 13.7502C3.44524 13.7502 3.44047 13.7454 3.43572 13.7454C3.10776 13.6204 2.91292 13.4571 2.86539 13.2745C2.83212 13.1399 2.87487 12.9813 3.02221 12.8035C2.98419 12.7603 2.9557 12.717 2.93669 12.6738C2.88441 12.5489 2.90338 12.3999 3.01746 12.2413C2.96517 12.1933 2.94615 12.1404 2.94615 12.0923C2.94615 12.0347 2.97471 11.9722 3.05076 11.9146C3.17433 11.8233 3.4975 11.7368 3.96328 11.6695C4.01557 11.6599 4.06789 11.6551 4.12017 11.6503C4.07739 11.6166 4.03936 11.583 3.99659 11.5542C3.854 11.4484 3.70187 11.3571 3.54027 11.2706C3.4357 11.213 3.33117 11.1601 3.22186 11.1073C3.046 11.0208 2.87014 10.9391 2.68953 10.8718C2.6325 10.8526 2.5707 10.8334 2.50892 10.8141C2.42336 10.9871 2.29505 11.1601 2.10493 11.2274C1.89105 11.3043 1.62963 11.0928 1.62488 10.8766C1.62012 10.6123 1.85778 10.4393 2.10969 10.4681C2.2903 10.4922 2.46139 10.5931 2.57546 10.7276C2.62299 10.7373 2.67049 10.7517 2.71802 10.7661C2.90814 10.8237 3.08877 10.9006 3.27413 10.9871C3.3882 11.04 3.49749 11.0928 3.60206 11.1505C3.76366 11.2418 3.92055 11.3379 4.06789 11.4484C4.13919 11.5013 4.21045 11.5638 4.27699 11.6214C4.32452 11.6166 4.36732 11.6118 4.41485 11.607C4.29603 11.2802 4.16767 10.9535 4.02983 10.6315C4.02983 10.6315 4.02983 10.6315 4.02508 10.6315C3.8302 10.4633 3.61635 10.3048 3.39771 10.1654C3.25037 10.0693 3.09824 9.98762 2.94615 9.91073C2.7893 9.83385 2.63251 9.76657 2.46616 9.71371C2.26653 9.64644 2.06214 9.59838 1.85301 9.57916C1.76746 9.7041 1.68191 9.83385 1.56784 9.93477C1.51081 9.98763 1.44424 10.0405 1.36344 10.0597C0.883396 10.1846 0.512695 9.40138 1.03552 9.22838C1.09731 9.20916 1.15904 9.19475 1.22083 9.19955C1.3254 9.19955 1.42521 9.23319 1.52027 9.27644C1.6486 9.3341 1.77695 9.41098 1.90053 9.48786C2.1049 9.49747 2.30929 9.53591 2.50416 9.59358C2.67526 9.64644 2.84158 9.71372 3.00318 9.79541C3.16478 9.8771 3.31692 9.9684 3.46426 10.0693C3.63061 10.1798 3.78746 10.3048 3.93955 10.4345C3.63061 9.74254 3.27885 9.06499 2.88436 8.40666C2.87961 8.40666 2.87014 8.40666 2.87014 8.40666C2.77509 8.42108 2.65149 8.44993 2.55168 8.42109C2.31878 8.35382 2.16195 8.06069 2.26651 7.83964C2.28552 7.8012 2.3093 7.76757 2.33782 7.73873C2.58497 7.49366 2.83209 7.85887 2.89863 8.0703C2.92715 8.1568 2.9414 8.24809 2.94615 8.33459C3.17429 8.7046 3.38822 9.08422 3.58784 9.46865C3.56883 9.39657 3.54506 9.32448 3.52605 9.25241C3.48803 9.11786 3.45948 8.97851 3.43572 8.83916C3.42146 8.74305 3.41199 8.65175 3.41199 8.55564C3.41199 8.45954 3.4167 8.35862 3.43572 8.26251C3.16955 8.08952 3.11251 7.66185 3.49275 7.55613C3.83971 7.46002 3.82548 7.90692 3.70191 8.09913C3.65438 8.17602 3.5926 8.24329 3.53081 8.30576C3.5213 8.42108 3.52601 8.53641 3.54027 8.65174C3.54977 8.72863 3.55931 8.80551 3.57357 8.8872C3.58783 8.96408 3.60208 9.04098 3.62109 9.12267C3.67337 9.36293 3.73989 9.6032 3.78267 9.82905C3.78267 9.83866 3.78267 9.84827 3.78267 9.85788C4.06309 10.4297 4.31504 11.0112 4.53367 11.6022C4.88539 11.5686 5.2894 11.5397 5.73142 11.5157C5.72192 11.4725 5.71239 11.4292 5.70763 11.386C5.64109 11.0496 5.56029 10.7132 5.46523 10.3865C5.07549 10.0645 4.75227 9.74735 4.55264 9.26682C4.4861 9.10824 4.42908 8.94967 4.39106 8.78629C4.3768 8.72863 4.36732 8.67576 4.35782 8.6181C4.35306 8.59407 4.31978 8.53162 4.34354 8.54123C4.48138 8.59409 4.61922 8.79109 4.70953 8.90642C5.00421 9.29565 5.17054 9.75696 5.40344 10.1798V10.1846C5.38443 10.127 5.37017 10.0693 5.35116 10.0117C5.03272 8.97371 4.63348 7.95977 4.3483 6.90741L4.31976 6.90261C3.93477 7.06119 3.49276 7.21495 3.084 7.20534C2.95567 7.20053 2.83208 7.17651 2.71326 7.13326C2.70851 7.13326 2.61822 7.09963 2.61822 7.09482C2.66575 6.92664 2.91293 6.81611 3.05552 6.77286C3.14582 6.74403 3.2361 6.7248 3.32641 6.71039C3.25511 6.69117 3.18385 6.66714 3.11731 6.63831C3.00324 6.59506 2.88437 6.55182 2.77981 6.48935C2.70376 6.4461 2.63725 6.39804 2.57546 6.33558C2.44714 6.20583 2.34258 5.96557 2.34258 5.74453C2.34258 5.58115 2.39957 5.43698 2.5374 5.34568C2.63246 5.28321 2.75133 5.2688 2.8749 5.29283C3.0365 5.32166 3.20282 5.40816 3.31213 5.47543C3.37392 5.51388 3.43096 5.55711 3.48799 5.60036C3.37867 5.37932 3.29787 5.13905 3.24559 4.87956C3.21707 4.72579 3.1268 4.4567 3.16482 4.29813C3.16482 4.29332 3.3169 4.37981 3.32641 4.38462C3.48801 4.49995 3.62108 4.65853 3.7304 4.82671C3.85397 5.02373 3.94432 5.23997 4.01086 5.46102C4.01561 5.39374 4.02034 5.32165 4.03935 5.25438C4.06311 5.15827 4.1059 5.06217 4.17244 4.98528C4.27701 4.86034 4.41486 4.83633 4.54319 4.87477C4.66201 4.91321 4.77131 5.00932 4.82359 5.12945C4.87588 5.25439 4.8949 5.38893 4.8949 5.52829C4.8949 5.69647 4.86637 5.86467 4.82359 6.01844C4.96618 5.82622 5.13255 5.64841 5.31792 5.50906C5.451 5.40815 5.58403 5.32165 5.73612 5.25438C5.79316 5.23035 5.85024 5.20633 5.90728 5.18711C5.93579 5.1775 6.0023 5.14386 5.98804 5.16789C5.87872 5.36971 5.6981 5.55231 5.56026 5.73491C5.23231 6.15297 4.91866 6.54221 4.47188 6.83533C4.46238 6.85455 4.45284 6.87377 4.44334 6.89299H4.43858C4.43858 6.89299 4.43858 6.893 4.43858 6.8978C4.69048 7.78679 5.01847 8.64213 5.3084 9.5119C5.27513 9.20436 5.27984 8.8872 5.32262 8.60368C5.35114 8.42108 5.38921 8.19524 5.49377 8.03666C5.51279 8.00783 5.50324 8.10393 5.50799 8.13757C5.51749 8.19523 5.52227 8.25771 5.53178 8.31538C5.55554 8.47395 5.58407 8.63733 5.60308 8.79591C5.66487 9.28125 5.62684 9.74736 5.53653 10.2231C5.64585 10.5979 5.74566 10.9775 5.82646 11.3619C5.83596 11.41 5.84544 11.4581 5.85494 11.5109C6.13537 11.4965 6.4301 11.4869 6.73428 11.4821C6.69626 11.0977 6.66771 10.7132 6.64395 10.3288C6.64395 10.3048 6.63919 10.2759 6.63919 10.2519C6.35401 9.8771 6.05936 9.53592 5.95955 9.05539C5.93104 8.93045 5.91678 8.80071 5.90728 8.67097C5.90728 8.64213 5.90252 8.61331 5.90252 8.58447C5.90252 8.57006 5.88826 8.54123 5.90252 8.54123C6.05937 8.57006 6.2257 8.81512 6.29699 8.94006C6.40631 9.13708 6.50139 9.3437 6.55367 9.56475C6.59169 9.73774 6.60592 9.92034 6.63443 10.0933C6.60116 9.30526 6.59166 8.522 6.58216 7.73873C6.2542 7.29664 5.93101 6.88339 5.87397 6.31155C5.85972 6.18662 5.85971 6.05687 5.86922 5.93193C5.86922 5.92712 5.86923 5.84064 5.87873 5.83583C5.89299 5.83103 5.96902 5.91752 5.97853 5.92713C6.06883 6.02805 6.14017 6.13857 6.20196 6.2587C6.37782 6.59988 6.50611 6.99871 6.58216 7.39275C6.5774 6.87858 6.56793 6.36442 6.55367 5.85025C6.53466 5.25439 6.50134 4.65371 6.44906 4.05305C6.21141 4.23565 5.92625 4.38943 5.63157 4.48073C5.30362 4.58164 4.9519 4.59606 4.62395 4.48073C4.50037 4.43748 4.31504 4.36059 4.18196 4.25007C4.07739 4.16357 4.01086 4.05787 4.01086 3.92812C4.01086 3.77435 4.08686 3.66383 4.20093 3.58214C4.35303 3.47642 4.57165 3.43317 4.7285 3.42355C4.91862 3.41394 5.11353 3.41875 5.3084 3.44278C5.32741 3.44278 5.34642 3.44758 5.36068 3.45239C5.32741 3.43797 5.2941 3.42837 5.26083 3.41395C5.07546 3.34667 4.89014 3.29381 4.70477 3.23135C4.58119 3.1881 4.4576 3.14005 4.33403 3.08719C4.28175 3.06316 4.23425 3.03914 4.18672 3.0103C4.17721 3.0055 4.16767 2.99588 4.15341 2.99108C4.14391 2.99108 4.13914 2.99108 4.13438 2.99108C4.06784 2.98627 3.99659 2.95744 3.93955 2.92861C3.86351 2.89017 3.77792 2.85172 3.72564 2.77964C3.6591 2.68354 3.71613 2.50575 3.84446 2.51536C3.96804 2.52497 4.06314 2.63069 4.12968 2.72679C4.16771 2.78446 4.19144 2.84212 4.2152 2.90459C4.22471 2.90939 4.23424 2.9142 4.23899 2.919C4.28177 2.94303 4.32926 2.96705 4.37679 2.98627C4.49561 3.03432 4.61919 3.07758 4.73802 3.11602C4.87585 3.16408 5.01368 3.20732 5.15152 3.26018C5.02794 3.15446 4.92342 3.03433 4.84262 2.89978C4.79509 2.82289 4.75702 2.7364 4.73326 2.64991C4.70949 2.5586 4.70003 2.4625 4.71904 2.36639C4.75231 2.19821 4.86639 2.06365 5.01848 1.98677C5.16582 1.90988 5.34163 1.89547 5.49847 1.95313C5.59353 1.99157 5.67435 2.04923 5.75039 2.11651C5.8502 2.21742 5.93102 2.34236 6.00231 2.46249C6.01657 2.49132 6.03557 2.52017 6.04983 2.549C6.02131 2.43367 5.98807 2.31353 5.96431 2.19339C5.93579 2.07807 5.91201 1.96275 5.88825 1.84262C5.87874 1.79456 5.86921 1.74171 5.8597 1.69365C5.84069 1.59274 5.82168 1.49182 5.80267 1.39571C5.7789 1.28038 5.75519 1.16506 5.73142 1.04973C5.68389 1.01128 5.64111 0.968038 5.60784 0.915179C5.57457 0.867126 5.55081 0.809464 5.55081 0.7518C5.55081 0.665304 5.64582 0.535558 5.74564 0.583611C5.81218 0.617248 5.8502 0.708561 5.8597 0.775836C5.86921 0.828694 5.8645 0.886356 5.85024 0.939215C5.84074 0.972852 5.8312 1.00648 5.81694 1.03531C5.86447 1.2035 5.91201 1.37649 5.95004 1.54467C5.9738 1.64078 5.99282 1.73689 6.01659 1.83781C6.0356 1.93391 6.05936 2.03001 6.07838 2.13092C6.10689 2.27508 6.14014 2.42405 6.17341 2.56821C6.17341 2.52016 6.17817 2.47692 6.18293 2.42887C6.20669 2.24146 6.26373 2.06365 6.3683 1.90507C6.46336 1.76091 6.61067 1.6552 6.75801 1.6552C6.85783 1.6504 6.96238 1.69365 7.04794 1.80898C7.11923 1.90508 7.16202 2.0108 7.18103 2.12613C7.20955 2.28951 7.19057 2.46731 7.15254 2.62108C7.11452 2.77004 7.07173 2.92861 7.01469 3.08238C7.05271 3.01991 7.09073 2.95745 7.12876 2.89498C7.23332 2.7268 7.34266 2.55861 7.45198 2.39522C7.52803 2.2847 7.60407 2.17898 7.68487 2.07326C7.76092 1.97235 7.83696 1.87144 7.91776 1.77052C7.93677 1.71767 7.96049 1.66962 7.99377 1.62637C8.04605 1.5591 8.12689 1.49182 8.21244 1.47741C8.3883 1.44858 8.31223 1.6552 8.25044 1.72728C8.21717 1.76572 8.16963 1.79455 8.1221 1.81858C8.06982 1.84741 8.01756 1.86664 7.96528 1.88586C7.87497 2.0108 7.7894 2.14054 7.70384 2.27028C7.61354 2.40483 7.52325 2.54419 7.42819 2.68355C7.34739 2.80848 7.26183 2.93342 7.18103 3.05836C7.30936 2.92381 7.44721 2.80848 7.61357 2.72198C7.74665 2.6499 7.93673 2.58263 8.11259 2.58743C8.24092 2.59224 8.35978 2.63549 8.44533 2.74121C8.52138 2.83731 8.52611 2.96705 8.48333 3.0968C8.43105 3.26018 8.30746 3.43317 8.23141 3.51486C8.0508 3.71187 7.82742 3.83201 7.58978 3.9089C7.25707 4.01461 6.88637 4.03863 6.54415 4.08188C6.60119 4.67774 6.63921 5.2736 6.66298 5.86946C6.72001 7.35911 6.701 8.84396 6.7818 10.3432C6.78655 10.4297 6.79132 10.5162 6.79607 10.5979C6.79607 10.5883 6.79607 10.5835 6.79607 10.5739C6.80083 10.0405 6.85309 9.5167 7.00993 9.00253C7.06697 8.81993 7.16681 8.5172 7.33792 8.41629C7.36643 8.39706 7.33791 8.48356 7.33316 8.51719C7.32841 8.57966 7.32364 8.64213 7.31889 8.7094C7.30463 8.88239 7.29038 9.05539 7.27137 9.22838C7.20958 9.75216 7.05273 10.2663 6.79607 10.7276C6.81509 10.9871 6.83886 11.2418 6.86262 11.4965C6.9862 11.4965 7.10973 11.4917 7.23331 11.4917L7.23806 11.4725C7.23806 11.4628 7.24759 11.3427 7.25709 11.3379C7.2666 11.3379 7.28561 11.4004 7.31413 11.4869C7.52326 11.4869 7.73713 11.4869 7.95576 11.4869V11.4773H7.96052C8.05558 10.891 8.14589 10.3 8.20768 9.70892C8.27422 9.065 8.30751 8.41148 8.27899 7.75796C8.26948 7.74835 8.25995 7.73393 8.2552 7.7099C8.2552 7.70029 8.2552 7.68587 8.2552 7.67145C8.24094 7.66184 8.2267 7.65224 8.2172 7.64743C7.85597 7.43119 7.51852 7.16209 7.27137 6.81611C7.21433 6.73442 7.0527 6.49415 7.11448 6.38363C7.11448 6.38363 7.20482 6.42688 7.20958 6.42688C7.30464 6.47493 7.40444 6.52299 7.49474 6.58065C7.41394 6.45091 7.34738 6.31637 7.2951 6.1674C7.24282 6.01363 7.21909 5.80219 7.27613 5.634C7.31415 5.50906 7.39491 5.40816 7.53274 5.3553C7.62305 5.32166 7.71814 5.33608 7.80369 5.38413C7.91301 5.4418 8.00804 5.55712 8.06507 5.64842C8.08884 5.69167 8.11261 5.73492 8.13638 5.77817C8.13638 5.64362 8.14115 5.50906 8.15541 5.37451C8.16967 5.16308 8.21717 4.94684 8.31223 4.75943C8.31699 4.74982 8.40728 4.59606 8.42154 4.60567C8.45006 4.6297 8.45955 4.74021 8.46906 4.77385C8.51659 4.93242 8.56415 5.09101 8.61643 5.24958C8.6497 5.3553 8.67348 5.45621 8.69725 5.56193C8.7733 5.48024 8.86356 5.40815 8.95387 5.37451C9.0917 5.32646 9.23904 5.35049 9.36261 5.51868C9.38163 5.54751 9.40069 5.57153 9.41495 5.60036C9.42921 5.62919 9.44344 5.65803 9.45295 5.69166C9.49097 5.79738 9.4957 5.9079 9.48144 6.02323C9.46243 6.18661 9.41019 6.34999 9.35316 6.48935C9.30087 6.6239 9.23432 6.75365 9.15827 6.87378C9.13451 6.91223 9.10597 6.95547 9.07745 6.99392C9.12973 6.96989 9.18205 6.95067 9.23433 6.93144C9.34365 6.893 9.50998 6.84014 9.62405 6.8978C9.63831 6.90261 9.60507 6.92183 9.59556 6.93144C9.57655 6.95547 9.55278 6.9843 9.53377 7.00833C9.47674 7.08041 9.41494 7.15249 9.35316 7.21977C9.08699 7.48406 8.77801 7.66184 8.41678 7.73392C8.40253 7.74353 8.38829 7.75315 8.37878 7.75796C8.37878 7.75796 8.37402 7.76275 8.36927 7.76275C8.40254 8.41628 8.37402 9.06499 8.31223 9.71371C8.2552 10.3 8.16965 10.8862 8.07934 11.4677C8.34075 11.4677 8.59741 11.4677 8.84932 11.4725C8.99666 10.9295 9.1535 10.3865 9.31985 9.84826C9.31035 9.83865 9.30082 9.82423 9.30082 9.80501C9.30558 9.67527 9.30563 9.54553 9.29612 9.42059C9.29137 9.3341 9.27708 9.25241 9.26758 9.16591C9.25332 9.07942 9.23908 8.99773 9.22482 8.91123C9.21531 8.87279 9.21054 8.83434 9.20103 8.8007C9.19152 8.7959 9.18676 8.7959 9.18676 8.7911C9.07744 8.67097 8.9396 8.42108 9.06793 8.27212C9.22003 8.09432 9.32936 8.47395 9.32461 8.57006C9.31986 8.62292 9.31033 8.67577 9.30082 8.72863C9.31983 8.78149 9.33414 8.83434 9.3484 8.8872C9.37216 8.97369 9.39117 9.0602 9.40067 9.1515C9.41493 9.23799 9.41965 9.32929 9.4244 9.42059C9.4244 9.46384 9.4244 9.50708 9.4244 9.55033C9.47669 9.39176 9.52901 9.238 9.58129 9.07942C9.80468 8.42109 10.0423 7.77238 10.2942 7.12846C10.2562 6.98911 10.2087 6.84975 10.1611 6.7152C10.0756 6.49415 9.9805 6.28273 9.90446 6.10493C9.76662 5.78778 9.65259 5.41777 9.70963 5.09581C9.7429 4.9084 9.83321 4.73541 10.0091 4.60086C10.0138 4.59125 10.0185 4.58645 10.0185 4.57684C10.1088 4.37502 10.2467 4.00981 10.5033 3.98578C10.6412 3.97137 10.6554 4.0915 10.6269 4.19722C10.5794 4.35579 10.4653 4.48554 10.3275 4.57684C10.2229 4.64412 10.1136 4.69216 9.99955 4.73541C9.89498 4.84593 9.83795 4.97568 9.81894 5.11504C9.77616 5.41777 9.89495 5.75894 10.028 6.05687C10.0946 6.20103 10.1707 6.36921 10.242 6.54701C10.2942 6.67195 10.3417 6.80169 10.3797 6.93624C10.6934 6.14817 11.0357 5.36972 11.3921 4.60567C11.4111 4.21164 11.2781 3.83682 11.2448 3.44759C11.2353 3.34668 11.2353 3.24576 11.2401 3.14004C11.2448 3.06316 11.2591 2.97666 11.2876 2.89978C11.3066 2.84692 11.3351 2.79406 11.3732 2.75081C11.4302 2.68354 11.5062 2.64029 11.5775 2.63068C11.6583 2.62107 11.7391 2.6499 11.8009 2.73159C11.8436 2.78445 11.8674 2.83732 11.8817 2.89498C11.9007 2.97187 11.9054 3.04874 11.9149 3.12563L11.9245 3.11121C11.9625 3.05355 12.0053 2.99109 12.0528 2.93823C12.0861 2.89979 12.1193 2.86615 12.1621 2.83251C12.2809 2.74121 12.4805 2.68834 12.6326 2.73159C12.7467 2.76523 12.8323 2.84691 12.8418 3.00068C12.8513 3.12082 12.8228 3.23615 12.7705 3.34667C12.6992 3.50044 12.5804 3.635 12.4568 3.74552C12.2524 3.92812 12.0433 4.11071 11.8389 4.29332C11.7059 4.41825 11.5727 4.5432 11.4492 4.67775C11.2733 5.06217 11.1022 5.4466 10.9359 5.83583C10.9501 5.82142 10.9691 5.80219 10.9881 5.78778C11.0262 5.74933 11.0689 5.7157 11.1165 5.68687C11.1593 5.65323 11.2068 5.62919 11.2591 5.60036C11.3209 5.49945 11.3969 5.39855 11.4825 5.32166C11.5585 5.24958 11.6678 5.19191 11.7724 5.19672C11.8865 5.20152 11.9435 5.25438 11.8865 5.3601C11.8722 5.38412 11.8579 5.40816 11.8389 5.43219C11.8104 5.47063 11.7724 5.50906 11.7344 5.5427C11.6631 5.60517 11.5823 5.64842 11.4967 5.68206C11.4064 5.7157 11.3161 5.74453 11.221 5.75895C11.1973 5.77817 11.1782 5.79739 11.1545 5.81661C11.1402 5.83102 11.126 5.84063 11.1117 5.85504C11.0784 5.88388 11.0452 5.91272 11.0167 5.94155C10.9406 6.00882 10.8693 6.0809 10.8028 6.15778C10.6744 6.47013 10.5461 6.78248 10.4273 7.09482C10.4463 7.1669 10.4606 7.24378 10.4748 7.31586C10.5271 7.63782 10.5081 7.95497 10.356 8.21446C10.3085 8.30095 10.2419 8.37303 10.1659 8.44031C10.0708 8.5268 9.9615 8.59888 9.85694 8.66616C9.80466 8.81512 9.75715 8.96408 9.70487 9.11305C9.57654 9.50708 9.4482 9.90112 9.33413 10.3C9.34363 10.2855 9.35311 10.2711 9.36261 10.2567C9.41965 10.175 9.47669 10.0933 9.54799 10.0213C9.61453 9.94918 9.69062 9.8819 9.77142 9.81943C9.85222 9.75696 9.94249 9.7041 10.0376 9.65605C10.0423 9.65125 10.0423 9.64644 10.0423 9.64163C10.0661 9.55994 10.0993 9.46865 10.1516 9.39657C10.299 9.18995 10.7125 9.2476 10.5366 9.52631C10.5081 9.57436 10.4701 9.61281 10.4273 9.64644C10.3655 9.6993 10.2895 9.74736 10.2134 9.77139C10.1421 9.79541 10.0661 9.80502 9.99003 9.79541C9.9425 9.82905 9.89495 9.86749 9.84742 9.90594C9.77613 9.9684 9.70962 10.0309 9.64308 10.0981C9.58129 10.1654 9.5195 10.2375 9.46246 10.3144C9.37691 10.4297 9.30087 10.5498 9.23433 10.6748C9.22958 10.6844 9.22481 10.6892 9.2153 10.694C9.14401 10.9535 9.07274 11.2082 9.00144 11.4677C9.31514 11.4725 9.61928 11.4821 9.90921 11.4965C10.1754 10.5931 10.4748 9.69931 10.8218 8.82474C10.9074 8.6085 10.9976 8.38745 11.0879 8.17602C11.0166 7.71951 10.9263 7.13326 11.2163 6.72961C11.2163 6.72961 11.2401 6.78728 11.2401 6.79209C11.2496 6.82572 11.259 6.85936 11.2685 6.89299C11.2876 6.99391 11.3019 7.09482 11.3066 7.20054C11.3209 7.44081 11.2638 7.67627 11.2068 7.90692C11.5965 7.00352 12.0385 6.12415 12.5281 5.2736C12.5233 5.25919 12.5233 5.24478 12.5281 5.23517C12.723 4.83152 12.8798 4.40865 13.0034 3.98097C13.0557 3.79837 13.1032 3.62057 13.1507 3.43797C13.1698 3.36109 13.1888 3.2794 13.2078 3.20251C13.2458 3.04394 13.2791 2.88536 13.3076 2.73159C13.3456 2.53457 13.3836 2.33275 13.4169 2.13573C13.2838 1.87625 13.2078 1.41974 13.6023 1.33805C13.9825 1.25636 13.8256 1.79456 13.7068 1.94352C13.6498 2.0156 13.5833 2.07807 13.512 2.13092C13.474 2.43366 13.4312 2.7364 13.3694 3.03433C13.3266 3.25537 13.2743 3.47642 13.2173 3.69746C13.1603 3.91851 13.0889 4.13475 13.0177 4.34618C12.9796 4.4519 12.9416 4.55281 12.8988 4.65852C13.184 4.20202 13.4834 3.75993 13.7971 3.32265C13.7924 3.31304 13.7924 3.30343 13.7924 3.29863C13.7971 3.19291 13.8209 3.092 13.8732 2.99589C13.916 2.919 13.9635 2.84693 14.0253 2.78926C14.1488 2.67394 14.4768 2.61146 14.434 2.87576C14.4055 3.04394 14.2724 3.16888 14.1298 3.24576C14.0538 3.28901 13.9777 3.31784 13.8922 3.33706C12.9654 4.61528 12.1906 5.9944 11.5347 7.436C11.5775 7.37833 11.6203 7.31587 11.6631 7.2582C11.8009 7.0756 11.9435 6.90261 12.1051 6.74403C12.2096 6.63831 12.3237 6.5374 12.4426 6.4461C12.5899 6.33077 12.742 6.22987 12.9083 6.13857C12.9749 6.05688 13.0604 5.97999 13.165 5.97038C13.1982 5.96558 13.279 5.96556 13.2933 6.00401C13.3123 6.04725 13.2648 6.12415 13.241 6.15299C13.1555 6.26351 13.0176 6.28272 12.8941 6.25389C12.7182 6.36922 12.5518 6.49896 12.395 6.64312C12.2572 6.76806 12.1336 6.89781 12.01 7.03716C11.8865 7.17652 11.7724 7.31586 11.6631 7.46483C11.5252 7.64743 11.3969 7.83964 11.2733 8.03666C11.1545 8.31537 11.0404 8.59889 10.9311 8.8824C10.9168 8.92084 10.9026 8.95929 10.8836 9.00253C10.9264 8.95448 10.9691 8.90162 10.9786 8.87759C11.126 8.56525 11.3256 8.27693 11.6156 8.08472C11.6964 8.03186 11.8675 7.91654 11.972 7.94056C11.991 7.94537 11.953 7.96938 11.9435 7.9886C11.9245 8.01744 11.9055 8.04627 11.8865 8.07991C11.8294 8.1616 11.7676 8.24329 11.7058 8.32498C11.4587 8.64694 11.183 8.87279 10.8503 9.07942C10.5461 9.88191 10.2752 10.6988 10.0328 11.5253C10.2182 11.5349 10.394 11.5445 10.5651 11.5542C10.6364 11.4821 10.7125 11.4244 10.798 11.386C10.8265 11.3716 10.779 11.4436 10.7648 11.4725C10.7505 11.5061 10.741 11.5349 10.7267 11.5686C10.8645 11.5782 10.9977 11.5878 11.1212 11.5974C11.221 11.3187 11.3303 11.0448 11.4396 10.7709C11.568 10.4585 11.7059 10.1462 11.8484 9.83865C11.8437 9.81943 11.8484 9.80021 11.8627 9.7906C11.8674 9.78579 11.8722 9.78099 11.8769 9.77618C12.0195 9.47825 12.1669 9.18033 12.3285 8.89201C12.338 8.69018 12.338 8.48836 12.3475 8.28653C12.357 8.14237 12.3665 7.99822 12.3902 7.85887C12.4092 7.76276 12.4283 7.67147 12.4568 7.58016C12.4805 7.50328 12.5091 7.42639 12.5471 7.35431C12.5471 7.25821 12.5566 7.16209 12.5946 7.0756C12.6279 7.00352 12.6802 6.93625 12.7515 6.90261C12.8798 6.84495 12.9321 6.91222 12.9036 7.03235C12.8988 7.06599 12.8845 7.09482 12.875 7.12365C12.8513 7.18132 12.818 7.23418 12.7752 7.27743C12.7325 7.32548 12.6849 7.36391 12.6374 7.40236C12.6184 7.45041 12.6041 7.49847 12.5899 7.54171C12.5566 7.65224 12.5376 7.76276 12.5186 7.87809C12.4948 8.01264 12.4806 8.15199 12.4711 8.29134C12.4615 8.42109 12.4521 8.55083 12.4426 8.68057C12.7705 8.08952 13.1365 7.51288 13.5452 6.95546C13.5595 6.85936 13.569 6.76326 13.5738 6.66235C13.5785 6.57105 13.5832 6.47493 13.5832 6.38363C13.5642 6.36441 13.5642 6.33559 13.5832 6.31636C13.5832 6.29234 13.5832 6.2635 13.5832 6.23948C13.5737 5.99921 13.5547 5.75894 13.5832 5.52829C13.5975 5.41296 13.626 5.29763 13.6736 5.18711C13.6736 5.18231 13.6688 5.1775 13.6688 5.1727C13.6593 5.06217 13.6546 4.93244 13.6831 4.83152C13.7116 4.73542 13.7639 4.63931 13.8542 4.58645C14.0015 4.49995 14.1108 4.60566 14.0918 4.75943C14.0871 4.80749 14.0728 4.85554 14.0585 4.89879C14.03 4.97087 13.9872 5.03334 13.9349 5.091C13.8827 5.14866 13.8162 5.19192 13.7496 5.23517C13.7116 5.33608 13.6926 5.43699 13.6783 5.53791C13.6546 5.74934 13.6783 5.97037 13.6926 6.18661C13.7306 6.14336 13.7639 6.10012 13.8019 6.05687C13.8494 5.99921 13.8969 5.93674 13.9397 5.87908C13.9872 5.82141 14.03 5.75895 14.0728 5.70128C14.1108 5.64843 14.1488 5.60037 14.1821 5.54751C14.1821 5.5379 14.1821 5.53309 14.1821 5.52829C14.2011 5.43218 14.2202 5.32646 14.2724 5.24477C14.3152 5.16789 14.3912 5.10543 14.4815 5.0862C14.6146 5.06218 14.6717 5.16788 14.6337 5.28321C14.6194 5.32165 14.6052 5.35529 14.5814 5.38893C14.5481 5.44179 14.5006 5.48984 14.4483 5.52348C14.3913 5.56192 14.3342 5.58595 14.2724 5.60517C14.2439 5.65803 14.2106 5.71569 14.1773 5.76374C14.1346 5.83102 14.0918 5.89349 14.0443 5.95116C13.9968 6.01362 13.9445 6.07129 13.8922 6.12895C13.8304 6.19622 13.7638 6.2635 13.702 6.33078C13.7068 6.4413 13.7068 6.55183 13.702 6.66235C13.702 6.69118 13.6973 6.72001 13.6973 6.74884C13.7733 6.64793 13.8494 6.54701 13.9302 6.4461C13.954 6.36441 13.9825 6.28272 14.03 6.21544C14.0728 6.15297 14.1346 6.10012 14.2106 6.0857C14.377 6.04726 14.4293 6.13856 14.3627 6.27791C14.3437 6.31155 14.3247 6.34519 14.3009 6.37403C14.2581 6.42688 14.2059 6.46052 14.1441 6.48935C14.0871 6.51818 14.03 6.5374 13.9682 6.55182C13.8732 6.67676 13.7781 6.8017 13.6878 6.93144C13.6831 6.98911 13.6735 7.04676 13.664 7.10443C13.6355 7.27742 13.588 7.44561 13.5262 7.60419C13.4359 7.83965 13.3123 8.06549 13.1888 8.29134C13.0176 8.59888 12.8418 8.87759 12.6374 9.13708C12.452 9.37735 12.2429 9.59839 12.0005 9.80982C11.8437 10.1414 11.6963 10.4778 11.5585 10.8189C11.4539 11.0784 11.3541 11.3427 11.2543 11.6118C11.5157 11.6358 11.7534 11.6647 11.9625 11.6935C12.0813 11.4004 12.2144 11.1121 12.3617 10.8285C12.4188 10.718 12.4806 10.6075 12.5424 10.497C12.5424 10.4826 12.5376 10.4682 12.5424 10.4585C12.5471 10.4393 12.5471 10.4345 12.5519 10.4249ZM6.53464 3.88488C6.64396 3.70227 6.74376 3.50526 6.82456 3.29863C6.91962 3.06317 6.9909 2.8229 7.04318 2.59224C7.0717 2.47211 7.08599 2.34237 7.07648 2.21743C7.06698 2.0973 7.0337 1.98197 6.95766 1.88586C6.88636 1.79456 6.80081 1.77053 6.72001 1.78975C6.6297 1.81378 6.54891 1.88586 6.48712 1.97235C6.39206 2.11171 6.33979 2.27509 6.31602 2.43847C6.29226 2.60666 6.30177 2.78446 6.32554 2.95264C6.3398 3.05836 6.35881 3.15927 6.38257 3.26499C6.4301 3.47642 6.48711 3.67825 6.53464 3.88488ZM11.0547 11.7992C11.0214 11.7944 10.9834 11.7944 10.9501 11.7896C10.8551 11.78 10.7553 11.7752 10.6555 11.7656C10.5984 11.9001 10.5414 12.0347 10.4748 12.1644C10.4273 12.2605 10.375 12.3518 10.318 12.4431C10.5033 12.4335 10.6792 12.4191 10.8503 12.4095C10.9168 12.1981 10.9834 11.9962 11.0547 11.7992ZM9.57177 12.7267C9.2866 12.7363 8.98716 12.7459 8.68298 12.7507C8.64495 12.9141 8.60694 13.0822 8.57367 13.2456C8.86835 13.2408 9.15826 13.236 9.44819 13.2264C9.48622 13.0582 9.529 12.89 9.57177 12.7267ZM11.8817 11.8953C11.6773 11.8665 11.4444 11.8377 11.183 11.8088C11.1165 12.001 11.0499 12.1933 10.9881 12.3903C11.2591 12.3662 11.5062 12.3422 11.7296 12.3134C11.7772 12.174 11.8294 12.0347 11.8817 11.8953ZM16.82 5.50426C16.8295 5.50907 16.839 5.50906 16.8438 5.51387C16.9911 5.56192 17.1384 5.60037 17.2905 5.64842C17.3951 5.68206 17.4949 5.7205 17.6042 5.74453C17.6708 5.75895 17.7373 5.76375 17.8038 5.75414C17.9274 5.73972 18.0463 5.67725 18.1318 5.59076C18.2126 5.50426 18.2601 5.38894 18.2411 5.264C18.2316 5.19672 18.1889 5.14387 18.1366 5.10062C18.051 5.02854 17.9322 4.98049 17.8324 4.95166C17.6328 4.89399 17.4379 4.90359 17.2478 4.95645C17.1242 4.99009 17.0006 5.04295 16.8818 5.10542C16.9578 5.22555 16.9578 5.38413 16.82 5.50426ZM4.42436 6.74884C4.4814 6.63351 4.53843 6.51818 4.59546 6.39805C4.63824 6.29713 4.68101 6.19142 4.70953 6.0857C4.75706 5.91752 4.79504 5.72531 4.79029 5.53791C4.79029 5.41777 4.77133 5.29764 4.7238 5.19192C4.68578 5.10543 4.6097 5.03815 4.5194 5.00932C4.4386 4.98529 4.3483 4.9997 4.28651 5.07658C4.21997 5.15827 4.18194 5.25439 4.16293 5.3553C4.14392 5.46102 4.14391 5.57634 4.15341 5.67725C4.16767 5.82621 4.19145 5.96557 4.22472 6.10493C4.277 6.31636 4.34356 6.52299 4.41961 6.73442L4.42436 6.74884ZM6.64395 3.95695C6.94814 3.91851 7.27136 3.88487 7.56129 3.78395C7.77992 3.71187 7.98429 3.59655 8.14589 3.41395C8.21243 3.33706 8.32173 3.1881 8.36451 3.03914C8.39303 2.95264 8.40252 2.86615 8.35024 2.80368C8.28845 2.72679 8.20289 2.70277 8.11259 2.69796C7.96049 2.69316 7.79418 2.75082 7.68011 2.81328C7.49 2.90939 7.33314 3.04875 7.1953 3.20732C6.99093 3.44278 6.82456 3.71188 6.64395 3.95695ZM10.3465 7.31105C10.1944 7.70989 10.047 8.11355 9.90446 8.51719C9.971 8.47394 10.0328 8.42109 10.0898 8.36823C10.1564 8.30576 10.2134 8.24328 10.2562 8.1664C10.394 7.92613 10.3988 7.63783 10.3513 7.3399C10.3465 7.33029 10.3465 7.32066 10.3465 7.31105ZM8.81131 11.6743C8.56891 11.6695 8.31697 11.6647 8.06031 11.6647C8.01754 11.9434 7.97005 12.2173 7.92728 12.496C7.94153 12.496 7.95577 12.496 7.96528 12.496C8.18391 12.496 8.39778 12.496 8.60691 12.4912C8.63068 12.3903 8.65446 12.2846 8.68298 12.1837C8.72575 12.0155 8.76854 11.8473 8.81131 11.6743ZM5.41295 17.3157C5.4082 16.8256 5.38919 16.3354 5.35116 15.8453C5.30363 15.2446 5.21807 14.6536 5.104 14.0721C4.58593 14.0193 4.12016 13.9472 3.75418 13.8511C3.79221 13.9376 3.80643 14.0433 3.77791 14.1586C3.74464 14.2884 3.64484 14.4373 3.43096 14.5959C3.23609 14.7353 3.06977 14.8602 2.93193 14.9707C2.69904 15.1581 2.54692 15.2927 2.48989 15.3455C2.46137 15.7252 2.23802 18.7669 2.10969 21.0206C2.05265 21.9961 2.0146 22.8274 2.01935 23.2215C2.01935 23.2983 2.02411 23.38 2.02887 23.4089C2.15719 23.5482 2.8701 24.1152 4.315 24.5669C5.2846 24.8697 6.57739 25.1196 8.23617 25.1532C9.80939 25.1868 10.9786 24.9658 11.8294 24.6679C13.1365 24.2114 13.6831 23.5723 13.8019 23.4185C13.8019 23.3897 13.8114 23.3128 13.8114 23.2311C13.8162 22.837 13.7781 22.0105 13.7211 21.0302C13.5927 18.7717 13.3741 15.7252 13.3456 15.3504C13.2885 15.2975 13.1365 15.1581 12.8988 14.9707C12.761 14.8602 12.5946 14.7305 12.3997 14.5911C12.1859 14.4373 12.0908 14.2884 12.0528 14.1586C12.0195 14.0337 12.0433 13.9232 12.0813 13.8319C12.0433 13.8415 12.0053 13.8511 11.9625 13.8607C11.7819 13.9039 11.5775 13.9376 11.3636 13.9712C11.3019 14.2067 11.2401 14.447 11.1783 14.6824C10.9311 15.6291 10.7315 16.5757 10.5794 17.5272C10.6079 17.4695 10.6459 17.3974 10.6507 17.3686C10.8266 16.7583 11.2305 15.8693 11.8247 15.5762C11.8484 15.5618 11.8056 15.6291 11.7961 15.6531C11.7724 15.7108 11.7486 15.7684 11.7249 15.8309C11.6488 16.0039 11.5585 16.1673 11.4682 16.3306C11.2163 16.7775 10.9073 17.186 10.5699 17.5704C10.4748 18.1567 10.3988 18.7381 10.3417 19.3243C10.3037 19.704 10.2752 20.0788 10.2514 20.4584C10.3084 20.2854 10.394 20.0019 10.4131 19.9058C10.5224 19.3964 10.7362 18.8775 11.0547 18.4642C11.1593 18.3297 11.2733 18.2047 11.4016 18.0942C11.4587 18.0461 11.5157 18.0029 11.5727 17.9596C11.5918 17.9452 11.6345 17.8972 11.6345 17.9212C11.6108 18.1855 11.4207 18.4978 11.3161 18.7333C11.0262 19.382 10.6887 20.0019 10.2372 20.5497C10.1944 21.2993 10.1754 22.0538 10.1897 22.813C11.1593 22.9331 12.1193 23.1205 12.9939 23.38C13.1269 23.4185 13.1888 23.4858 13.203 23.5338C13.2173 23.5771 13.2125 23.6203 13.1888 23.6684C13.1602 23.7164 13.0889 23.7789 12.9843 23.8317C12.5899 24.0336 11.625 24.2642 11.3303 24.3219C11.2828 24.3315 11.2353 24.3027 11.2258 24.2546C11.2163 24.2066 11.2448 24.1633 11.2923 24.1537C11.5062 24.1056 12.0765 23.9615 12.5091 23.8077C12.6564 23.7549 12.7895 23.702 12.8893 23.6491C12.9226 23.6299 12.9511 23.6155 12.9701 23.5963C12.9559 23.5915 12.9463 23.5867 12.9321 23.5819C12.0765 23.3416 11.1402 23.1734 10.1944 23.0629C10.2039 23.3848 10.2134 23.7116 10.2324 24.0336C10.2324 24.0624 10.2134 24.0816 10.1849 24.0816C10.1564 24.0816 10.1373 24.0624 10.1326 24.0384C10.1136 23.7068 10.0993 23.38 10.0898 23.0485C10.0233 23.0389 9.95202 23.0341 9.88548 23.0244C9.72864 23.01 9.57179 22.9908 9.41019 22.9812C9.41969 23.3032 9.43394 23.6251 9.45771 23.9471C9.45771 23.9759 9.43871 23.9951 9.41495 23.9999C9.38643 23.9999 9.36737 23.9807 9.36261 23.9567C9.33885 23.6251 9.3246 23.2984 9.31034 22.9716C9.10596 22.9524 8.89687 22.9379 8.69249 22.9283C8.74477 23.3368 8.81128 23.7501 8.89684 24.1585C8.90159 24.1825 8.88735 24.2114 8.85883 24.2162C8.83031 24.221 8.80655 24.2065 8.8018 24.1777C8.71625 23.7597 8.64492 23.3416 8.58788 22.9235C8.38351 22.9139 8.18393 22.9043 7.98431 22.8947C8.02708 23.2695 8.07457 23.6491 8.11735 24.0288C8.1221 24.0576 8.1031 24.0768 8.07459 24.0816C8.04607 24.0864 8.02231 24.0672 8.02231 24.0384C7.97478 23.6539 7.92723 23.2743 7.8797 22.8899C7.85593 22.8899 7.83697 22.8899 7.81321 22.8899C7.69914 22.8851 7.58503 22.8851 7.47571 22.8803C7.48046 23.2071 7.48999 23.5338 7.49474 23.8606C7.49474 23.8846 7.47574 23.9086 7.44722 23.9086C7.41871 23.9086 7.39965 23.8894 7.39965 23.8606C7.39014 23.5338 7.38067 23.207 7.37592 22.8755C7.20006 22.8707 7.02421 22.8707 6.85311 22.8707C6.8341 23.0821 6.81984 23.2887 6.80083 23.5002C6.79608 23.529 6.77702 23.5482 6.7485 23.5434C6.71998 23.5386 6.70099 23.5194 6.70574 23.4906C6.72475 23.2839 6.739 23.0773 6.75801 22.8707C6.56314 22.8707 6.37305 22.8755 6.18768 22.8803C6.17343 23.1638 6.14965 23.4473 6.11638 23.726C6.11163 23.7548 6.08787 23.7741 6.0641 23.7693C6.03559 23.7645 6.01659 23.7404 6.02134 23.7164C6.05461 23.4377 6.07363 23.159 6.08789 22.8803C5.77895 22.8899 5.47952 22.9043 5.19909 22.9235C5.18959 23.0677 5.18481 23.207 5.17531 23.3512C5.17531 23.38 5.15155 23.3993 5.12303 23.3993C5.09451 23.3993 5.07551 23.3752 5.07551 23.3512C5.08027 23.2118 5.08973 23.0725 5.09449 22.938C4.5479 22.9764 4.07262 23.0341 3.68764 23.0965C3.34067 23.159 3.0745 23.2263 2.9129 23.2983C2.86062 23.3224 2.81785 23.3416 2.79884 23.3704C2.80359 23.38 2.81782 23.3945 2.82733 23.4041C2.87486 23.4473 2.95094 23.4954 3.04124 23.5434C3.16007 23.6059 3.30741 23.6684 3.46426 23.7308C4.06313 23.9663 4.80932 24.1633 4.80932 24.1633C4.8616 24.1777 4.89013 24.2306 4.88063 24.2786C4.86637 24.3315 4.81409 24.3603 4.7618 24.3459C4.7618 24.3459 3.53557 24.0336 2.94145 23.7308C2.76084 23.6395 2.63246 23.5338 2.59444 23.4521C2.56117 23.3848 2.56593 23.3176 2.60395 23.2551C2.66099 23.1638 2.84159 23.0629 3.12676 22.9812C3.55928 22.8611 4.25323 22.7505 5.104 22.6833C5.16579 21.6261 5.25608 20.5689 5.32262 19.5069C5.10874 19.3436 4.91864 19.1514 4.75229 18.9303C4.74754 18.9255 4.74753 18.9207 4.74277 18.9159C4.89962 19.358 4.9757 19.8145 5.07076 20.2806C5.09927 20.42 5.15628 20.9774 5.15628 20.9774C4.74752 20.2998 4.42912 19.6559 4.36733 18.8486C4.35307 18.6852 4.3483 18.5219 4.34354 18.3585C4.33879 18.2768 4.25323 18.099 4.33879 18.1086C4.37206 18.1134 4.41959 18.1855 4.46712 18.272C4.44811 18.1759 4.43858 18.0846 4.44334 17.9885C4.45284 17.7386 4.5574 17.5175 4.79029 17.3734C4.92813 17.2917 5.08501 17.2581 5.24661 17.2581C5.03273 16.9553 4.84737 16.6334 4.71429 16.2826C4.662 16.148 4.61921 16.0087 4.58119 15.8645C4.56693 15.8069 4.55268 15.754 4.53367 15.6963C4.52892 15.6723 4.49563 15.6195 4.51464 15.6291C4.63822 15.6963 4.75706 15.9126 4.83311 16.0279C5.08026 16.4075 5.18955 16.84 5.33689 17.2629C5.37491 17.3109 5.39394 17.3109 5.41295 17.3157ZM5.45571 19.6367C5.38917 20.665 5.29412 21.6934 5.22758 22.7217C5.50801 22.7025 5.80268 22.6833 6.11162 22.6737C6.12588 22.2748 6.12589 21.876 6.12589 21.4771C6.12589 21.554 6.12114 21.6117 6.12114 21.6117C5.89775 21.0206 5.71711 20.3815 5.6173 19.752C5.56026 19.7088 5.508 19.6751 5.45571 19.6367ZM5.97377 19.9539C6.04031 20.2854 6.07836 20.6218 6.12114 20.9582C6.12114 20.9726 6.12589 20.9918 6.12589 21.0158C6.13065 20.7708 6.13542 20.5257 6.14492 20.2854C6.14968 20.2085 6.14963 20.1268 6.15438 20.05C6.09259 20.0163 6.03556 19.9827 5.97377 19.9539ZM6.26851 20.098C6.26375 20.1605 6.26374 20.2229 6.25899 20.2902C6.22097 21.0831 6.23993 21.876 6.21141 22.6689C6.40153 22.664 6.59169 22.6592 6.79132 22.6544C6.84835 21.9 6.89584 21.136 6.92911 20.3719C6.72949 20.295 6.52987 20.2181 6.335 20.1268V20.1316C6.335 20.1316 6.335 20.1316 6.335 20.1268C6.31123 20.1172 6.28752 20.1076 6.26851 20.098ZM7.03848 20.4104C7.00045 21.16 6.94814 21.9096 6.89111 22.6544C7.05271 22.6544 7.21908 22.6544 7.38543 22.6544C7.36642 21.9433 7.35212 21.2321 7.34262 20.5209C7.23805 20.4872 7.13829 20.4488 7.03848 20.4104ZM7.45674 20.5641C7.46149 21.2609 7.47573 21.9577 7.48998 22.6544C7.60881 22.6544 7.72287 22.6592 7.8417 22.664C7.8512 22.664 7.86073 22.664 7.86548 22.664C7.82746 22.3613 7.79891 22.0586 7.77039 21.7558C7.73712 21.3714 7.70859 20.987 7.69909 20.6026C7.67057 20.6218 7.64681 20.6218 7.64681 20.6218C7.6373 20.6218 7.62307 20.6218 7.61357 20.617V20.6266C7.55653 20.6026 7.50427 20.5833 7.45674 20.5641ZM7.80369 20.5017C7.80369 20.5593 7.80845 20.617 7.80845 20.6794C7.8132 20.6074 7.81316 20.5401 7.81791 20.468C7.81791 20.4776 7.8132 20.492 7.80369 20.5017ZM8.11735 20.5785C8.05081 20.987 7.97476 21.3954 7.88446 21.8039C7.90822 22.0922 7.94152 22.3805 7.97479 22.664C8.17442 22.6688 8.37405 22.6785 8.57843 22.6929C8.48812 21.8952 8.4501 21.0975 8.4596 20.2998C8.35979 20.3863 8.25998 20.4728 8.16016 20.5593H8.15541C8.13639 20.5689 8.12685 20.5785 8.11735 20.5785ZM8.56415 20.2037C8.54989 21.035 8.5784 21.8664 8.67346 22.7025C8.88734 22.7169 9.10121 22.7313 9.3151 22.7505C9.29133 21.7414 9.32463 20.7419 9.40543 19.752C9.41969 19.6031 9.42918 19.4589 9.44343 19.3099C9.24381 19.5406 9.03471 19.7568 8.81607 19.9683C8.74003 20.1268 8.65922 20.2758 8.56891 20.4296C8.56891 20.4296 8.57368 20.3239 8.58318 20.1893C8.57843 20.1893 8.57366 20.1941 8.56415 20.2037ZM9.58129 19.1465C9.55752 19.3484 9.53851 19.555 9.5195 19.7568C9.43394 20.7467 9.39594 21.7462 9.41495 22.7553C9.58605 22.7698 9.75238 22.789 9.92349 22.8082C9.98052 22.813 10.0375 22.8226 10.0946 22.8274C10.0898 22.6833 10.0898 22.5391 10.0898 22.3901C9.81416 21.7991 9.60029 21.184 9.57177 20.5209C9.57177 20.468 9.53847 19.9106 9.60026 19.8914C9.62403 19.8818 9.75716 20.2902 9.77142 20.3383C9.93302 20.8669 9.96153 21.4195 10.0613 21.9577C10.0661 21.9913 10.0803 22.0634 10.0898 22.1403C10.0898 21.1984 10.1374 20.2614 10.2277 19.3292C10.2752 18.8438 10.3322 18.3633 10.4035 17.8827C10.394 17.8972 10.3893 17.9116 10.3845 17.926C10.1849 18.3345 9.92348 18.7285 9.62405 19.0985C9.60979 19.1129 9.59555 19.1321 9.58129 19.1465ZM10.5746 16.864C10.7077 16.1288 10.8693 15.3936 11.0594 14.6632C11.1165 14.4422 11.1735 14.2259 11.2305 14.0049C11.107 14.0193 10.9834 14.0385 10.8503 14.0529C10.8836 14.6151 10.836 15.1629 10.8028 15.7252C10.8028 15.7348 10.7695 15.7588 10.7695 15.7588C10.684 15.1966 10.6079 14.6392 10.6555 14.0721C10.6032 14.0769 10.5509 14.0817 10.4986 14.0866C10.375 14.5767 10.2562 15.0765 10.1516 15.581C10.0803 15.9318 10.0091 16.2778 9.94727 16.6238C10.0756 16.5901 10.2087 16.5949 10.3322 16.643C10.4558 16.6862 10.5319 16.7631 10.5746 16.864ZM9.81894 16.667C9.88548 16.297 9.95675 15.927 10.0328 15.5522C10.1326 15.062 10.2467 14.5767 10.3655 14.0962C10.0423 14.1202 9.70958 14.1394 9.36737 14.1538C9.30083 14.4662 9.23433 14.7785 9.17254 15.0909C9.06798 15.605 8.97764 16.124 8.89684 16.6382C8.95387 16.7871 8.9919 16.9409 9.02042 17.0659C9.02992 17.1091 9.03946 17.2244 9.05848 17.3301C9.07274 17.3109 9.08698 17.2917 9.10124 17.2725C9.12976 17.234 9.163 17.1956 9.19627 17.1572C9.33411 16.9986 9.54798 16.792 9.78087 16.6766C9.79513 16.6766 9.80468 16.6718 9.81894 16.667ZM8.8018 16.4267C8.87309 15.9702 8.9539 15.5185 9.0442 15.062C9.10124 14.7593 9.16779 14.4566 9.22958 14.1586C8.94915 14.1682 8.66396 14.1779 8.38354 14.1827C8.30749 14.5815 8.24092 14.9803 8.17914 15.384C8.15062 15.5618 8.1269 15.7444 8.10313 15.927C8.15541 15.9222 8.21244 15.9318 8.26947 15.9462H8.27423C8.32651 15.8309 8.38354 15.7204 8.44533 15.6194C8.50712 15.5137 8.65443 15.2446 8.77325 15.211C8.81128 15.2014 8.75904 15.2879 8.75428 15.3263C8.74002 15.3888 8.73048 15.4513 8.71622 15.5137C8.67344 15.7059 8.62595 15.903 8.57367 16.0904C8.57367 16.0952 8.56891 16.1048 8.56891 16.1096C8.6307 16.1673 8.68772 16.2345 8.73525 16.3114C8.75902 16.3451 8.78279 16.3883 8.8018 16.4267ZM7.97004 15.9462C7.9938 15.7492 8.02234 15.557 8.05086 15.36C8.10789 14.9659 8.1744 14.5719 8.25044 14.1827C8.15063 14.1827 8.04606 14.1827 7.94625 14.1875C7.86069 14.1875 7.77518 14.1875 7.68963 14.1875C7.68012 14.2932 7.66583 14.3989 7.65633 14.5046C7.59454 15.1437 7.55174 15.778 7.51847 16.4171C7.55174 16.3499 7.58981 16.2874 7.62784 16.2297C7.72765 16.0904 7.84171 15.9895 7.97004 15.9462ZM7.39019 16.4748C7.42346 15.8117 7.4662 15.1485 7.52799 14.4854C7.53749 14.3845 7.54703 14.2836 7.56129 14.1779C7.4092 14.1779 7.25706 14.173 7.10497 14.173C7.12873 14.8698 7.13827 15.5714 7.13827 16.273C7.23333 16.3354 7.31414 16.4027 7.39019 16.4748ZM7.01469 16.2153C7.00994 15.5329 6.9957 14.8506 6.97193 14.1779C6.72003 14.173 6.47284 14.1634 6.22569 14.1538C6.24945 14.4133 6.26371 14.668 6.28272 14.9275C6.30648 15.36 6.32548 15.7876 6.33024 16.2201C6.51085 16.1096 6.73902 16.0904 7.01469 16.2153ZM6.20671 16.3114C6.19721 15.8501 6.17815 15.3888 6.15438 14.9323C6.14012 14.668 6.12111 14.4085 6.09735 14.1442C5.95951 14.1394 5.82169 14.1298 5.6886 14.1202C5.53651 14.1106 5.3892 14.0962 5.24185 14.0866C5.35593 14.6632 5.43197 15.2446 5.4795 15.8357C5.48425 15.903 5.48902 15.9702 5.49377 16.0375C5.52704 15.4417 5.70289 14.8266 6.07838 14.3653C6.09264 14.346 6.07362 14.4181 6.07362 14.4422C6.06887 14.5046 6.06409 14.5719 6.05459 14.6344C6.03558 14.7977 6.0118 14.9563 5.98328 15.1197C5.89298 15.6194 5.75991 16.1 5.52226 16.5517C5.53177 16.8112 5.53653 17.0755 5.53653 17.335C5.60308 17.3542 5.66963 17.3734 5.73142 17.4022C5.75043 17.4118 5.80742 17.4455 5.86446 17.4839C5.86446 17.4551 5.86922 17.4263 5.86922 17.3974C5.87397 17.3205 5.87398 17.2436 5.87873 17.162C5.89299 16.8448 6.00234 16.5084 6.20671 16.3114ZM5.36068 19.2715C5.3987 19.3051 5.43672 19.334 5.47474 19.3676C5.50801 19.3964 5.54127 19.4205 5.57454 19.4445C5.6791 19.5214 5.78845 19.5934 5.90252 19.6607C5.90727 19.6607 5.91203 19.6655 5.91203 19.6655C5.99284 19.7136 6.07834 19.7616 6.1639 19.8049C6.20192 19.8241 6.23994 19.8433 6.27796 19.8626C6.31599 19.8818 6.34931 19.8962 6.38733 19.9154C6.39683 19.9202 6.40631 19.925 6.41582 19.9298C6.58692 20.0115 6.76277 20.0836 6.93863 20.1557C6.97665 20.1701 7.00991 20.1845 7.04794 20.1989C7.14299 20.2374 7.24286 20.2758 7.33792 20.3094C7.37594 20.3239 7.41396 20.3383 7.45198 20.3527C7.50902 20.3767 7.56605 20.3959 7.62308 20.42C7.63259 20.4103 7.64206 20.4055 7.64681 20.4055C7.66107 20.2277 7.67537 20.0499 7.68963 19.8673C7.68963 19.8001 7.68963 19.7328 7.69439 19.6655C7.60408 19.4301 7.52328 19.185 7.45198 18.9399C7.40921 18.7862 7.37113 18.6324 7.34262 18.4738C7.34262 18.4642 7.33792 18.4498 7.33792 18.4402C7.25236 17.9933 7.23332 17.5464 7.30461 17.0995C7.31887 17.0274 7.33789 16.9361 7.3664 16.8304C7.30462 16.7391 7.22858 16.6526 7.14303 16.5853C7.10501 16.5517 7.06222 16.5229 7.01945 16.4988C6.99093 16.4844 6.96239 16.4652 6.93387 16.4508C6.68196 16.3306 6.49187 16.3835 6.36354 16.5229C6.35879 16.5325 6.34926 16.5373 6.34451 16.5469C6.29223 16.6141 6.24945 16.691 6.22093 16.7775C6.17815 16.9025 6.15443 17.037 6.14968 17.1764C6.14968 17.2581 6.14492 17.3349 6.14017 17.4166C6.13541 17.4695 6.1354 17.5272 6.12589 17.58C6.12589 17.5944 6.12113 17.6809 6.11162 17.7194C6.09261 17.8011 6.03084 17.8251 6.01183 17.8299C5.98806 17.8347 5.94529 17.8347 5.893 17.8107C5.82171 17.777 5.6696 17.6617 5.63633 17.6425C5.60781 17.6281 5.57932 17.6185 5.54605 17.6089C5.50327 17.5944 5.46525 17.5848 5.42247 17.5752C5.37494 17.5656 5.32739 17.5608 5.27986 17.556C5.16103 17.5512 5.04699 17.5704 4.94718 17.6329C4.79033 17.729 4.72379 17.878 4.71429 18.0461C4.70003 18.32 4.82356 18.6324 4.9709 18.8342C5.08022 18.9976 5.21334 19.1418 5.36068 19.2715ZM7.91776 19.7232C7.98905 19.925 8.06509 20.122 8.14113 20.3143C8.14589 20.3094 8.15065 20.3046 8.15541 20.2998C8.25522 20.2133 8.35503 20.122 8.45484 20.0307C8.49287 19.9923 8.53089 19.9587 8.56891 19.9202C8.57842 19.9106 8.5879 19.901 8.60216 19.8914C8.7495 19.7472 8.89686 19.5983 9.03945 19.4397C9.10599 19.3676 9.17254 19.2955 9.23433 19.2234C9.31989 19.1225 9.40539 19.0216 9.48619 18.9159C9.53372 18.8534 9.58128 18.791 9.62881 18.7285C9.83794 18.4402 10.0233 18.1374 10.1706 17.8299C10.2277 17.705 10.356 17.4166 10.3702 17.1668C10.3797 17.0418 10.3608 16.9217 10.2467 16.8784C10.1326 16.8352 10.0138 16.8592 9.8997 16.9121C9.89495 16.9121 9.89024 16.9169 9.89024 16.9169C9.84746 16.9361 9.80468 16.9649 9.7619 16.9938C9.61456 17.0947 9.48147 17.2292 9.39116 17.3398C9.36264 17.3734 9.3341 17.407 9.30558 17.4455C9.2628 17.4983 9.22002 17.556 9.182 17.6089C9.17725 17.6137 9.14398 17.6617 9.12972 17.6809C9.06318 17.7674 8.96338 17.729 8.95863 17.7242C8.9206 17.705 8.87308 17.6473 8.84456 17.5608C8.82555 17.4983 8.80655 17.4166 8.79704 17.3398C8.78278 17.2485 8.7733 17.1668 8.7638 17.1331C8.75429 17.0851 8.74 17.0274 8.72574 16.9697C8.68296 16.8016 8.61645 16.6142 8.51663 16.4604C8.50713 16.4412 8.49284 16.4268 8.48333 16.4075C8.41204 16.3066 8.32175 16.2297 8.20768 16.1961C8.19818 16.1961 8.1934 16.1913 8.18389 16.1913C8.14587 16.1817 8.10786 16.1865 8.07459 16.1961C8.0223 16.2105 7.97951 16.2393 7.93673 16.2778C7.90346 16.3066 7.87497 16.3451 7.84645 16.3835C7.75615 16.5084 7.68958 16.6622 7.64205 16.8112C7.59452 16.9457 7.56603 17.0707 7.55177 17.162C7.55177 17.1668 7.55177 17.1716 7.54702 17.1764C7.47097 17.5992 7.49 18.0269 7.56605 18.4546C7.60407 18.6708 7.65633 18.8871 7.71812 19.0985C7.72762 19.1321 7.73716 19.1658 7.74666 19.1994C7.77043 19.2811 7.79415 19.3628 7.82267 19.4397C7.85118 19.5262 7.87973 19.6079 7.90825 19.6896C7.90349 19.6896 7.91301 19.7088 7.91776 19.7232ZM7.26185 19.8722C7.03371 19.728 6.78181 19.6319 6.55367 19.4925C6.30652 19.3436 6.08789 19.1466 5.85024 18.9736C5.64587 18.8246 5.37492 18.642 5.34641 18.3633C5.29888 17.8827 6.03085 18.099 6.25899 18.1951C6.32078 18.2191 6.42058 18.3056 6.48712 18.3104C6.49663 18.3104 6.49188 18.099 6.49188 18.075C6.48713 17.9212 6.39681 17.4503 6.59643 17.3686C6.82932 17.2677 6.99095 17.6809 7.03848 17.8347C7.22384 18.4162 7.10973 19.0024 7.17627 19.5886C7.19053 19.6463 7.26185 19.8722 7.26185 19.8722ZM8.20292 19.6175C8.06034 18.9543 7.92252 18.2768 7.86548 17.604C7.84647 17.4022 7.86547 16.8881 8.20292 17.1043C8.46434 17.2725 8.57367 17.6521 8.6307 17.9404C8.64971 18.0221 8.64021 18.2047 8.69249 18.272C8.7115 18.296 8.74003 18.2383 8.7638 18.2191C8.83509 18.1711 8.9016 18.1134 8.96814 18.0557C9.14875 17.9116 9.42919 17.5848 9.69535 17.6809C9.94726 17.7722 9.79515 18.1663 9.67632 18.3056C9.28183 18.7525 8.75424 19.0601 8.35975 19.5166C8.34074 19.5406 8.20292 19.6175 8.20292 19.6175ZM10.8313 13.8175C10.9882 13.803 11.145 13.7838 11.2876 13.7646C11.3304 13.606 11.3731 13.4474 11.4207 13.2889C11.1925 13.3273 10.9454 13.3561 10.6887 13.385C10.6649 13.4715 10.6412 13.5532 10.6174 13.6397C10.5984 13.7069 10.5794 13.7742 10.5651 13.8415C10.6079 13.8367 10.6459 13.8367 10.6887 13.8319C10.7125 13.6733 10.7505 13.4234 10.76 13.4234C10.7933 13.4282 10.8171 13.6589 10.8313 13.8175ZM3.81122 6.12414C3.72566 6.01362 3.63538 5.90311 3.53557 5.807C3.45477 5.72531 3.36442 5.64842 3.25986 5.58595C3.16005 5.52348 3.01273 5.4514 2.86539 5.42257C2.77983 5.40815 2.68952 5.40816 2.62298 5.45621C2.49941 5.5379 2.47087 5.68686 2.48989 5.84063C2.51365 5.9992 2.58495 6.16259 2.67526 6.25389C2.72754 6.30675 2.78933 6.35 2.85111 6.38844C2.95093 6.44611 3.06502 6.48935 3.16958 6.53259C3.32643 6.59506 3.48804 6.63832 3.65439 6.67676C3.6639 6.68157 3.67338 6.68156 3.68764 6.68637C3.89676 6.69117 4.10586 6.72481 4.31024 6.78728C4.26746 6.72 4.21997 6.65274 4.16769 6.58546C4.12016 6.51819 4.06784 6.45572 4.01556 6.38844C3.94902 6.30675 3.87776 6.21544 3.81122 6.12414ZM7.76088 12.7555C7.70859 12.7555 7.65157 12.7555 7.59929 12.7555C7.62306 12.9189 7.64683 13.0822 7.66584 13.2456H7.68487C7.70864 13.0822 7.73711 12.9189 7.76088 12.7555ZM11.644 12.5729C11.4207 12.6017 11.1782 12.6257 10.9121 12.6498C10.8598 12.8131 10.8123 12.9813 10.7648 13.1447C11.0262 13.1207 11.2733 13.0919 11.4967 13.0534C11.5395 12.89 11.5918 12.7315 11.644 12.5729ZM11.4302 13.7454C11.606 13.7214 11.7676 13.6925 11.9197 13.6589C12.2476 13.5868 12.5138 13.5003 12.6944 13.3946C12.818 13.3225 12.8988 13.2408 12.9131 13.1447C12.9274 13.063 12.8941 12.9717 12.818 12.866C12.7182 12.9333 12.5947 12.9957 12.4426 13.0486C12.2049 13.1351 11.9054 13.2072 11.5632 13.2697C11.5204 13.4282 11.473 13.5868 11.4302 13.7454ZM10.5508 13.3994C10.4415 13.409 10.3275 13.4186 10.2182 13.4282C9.99478 13.4474 9.76191 13.4619 9.52901 13.4715V13.4763C9.49574 13.6204 9.46243 13.7646 9.42916 13.9088C9.77137 13.8991 10.1136 13.8799 10.432 13.8559C10.4558 13.7742 10.4748 13.6877 10.4986 13.606C10.5128 13.5339 10.5318 13.4667 10.5508 13.3994ZM8.14589 6.14337C8.10312 5.98959 8.04608 5.84063 7.97004 5.70608C7.92251 5.62919 7.84642 5.53309 7.75612 5.48504C7.70384 5.45621 7.64206 5.4418 7.58502 5.46102C7.48521 5.49946 7.42817 5.57153 7.39965 5.66283C7.35212 5.8118 7.37115 5.9944 7.41868 6.12895C7.47571 6.30194 7.56603 6.46533 7.66584 6.6191C7.70386 6.67677 7.74664 6.73442 7.78466 6.79209C7.97478 6.96508 8.12686 7.16209 8.24568 7.38794C8.16964 7.10923 8.16491 6.81131 8.15541 6.52299C8.15541 6.39805 8.15064 6.2683 8.14589 6.14337ZM6.93863 13.4955C6.67722 13.4907 6.4158 13.4811 6.1639 13.4667C6.17816 13.606 6.19246 13.7502 6.20671 13.8943C6.26375 13.8943 6.32078 13.8992 6.37781 13.8992C6.57268 13.904 6.76755 13.9088 6.96717 13.9136C6.95767 13.7742 6.94813 13.6349 6.93863 13.4955ZM9.92824 12.7074C9.85695 12.7122 9.78092 12.7122 9.70963 12.717C9.66685 12.8852 9.62407 13.0486 9.58605 13.2168C9.61932 13.2168 9.65733 13.212 9.6906 13.212C9.7714 13.087 9.8522 12.9525 9.87121 12.89C9.88547 12.8372 9.90448 12.7747 9.92824 12.7074ZM10.3988 11.7464C10.2609 11.7368 10.1231 11.7271 9.98052 11.7223C9.95675 11.7992 9.93774 11.8713 9.91873 11.9482C9.8712 12.1212 9.82365 12.2942 9.77612 12.4672C9.86167 12.4624 9.94248 12.4576 10.028 12.4576C10.1231 12.2125 10.2467 11.953 10.3988 11.7464ZM16.0453 5.41777C15.8837 5.4418 15.7221 5.47543 15.5652 5.52829C15.3181 5.60998 15.0852 5.73011 14.9093 5.90791C14.8238 5.9896 14.7287 6.11934 14.7002 6.25389C14.6812 6.33078 14.6859 6.41246 14.7382 6.48454C14.819 6.59987 14.9379 6.63831 15.0567 6.63831C15.185 6.63831 15.3228 6.59506 15.4369 6.53259C15.6127 6.44129 15.7506 6.30676 15.8647 6.15299C15.9122 6.07129 15.9645 5.9896 16.012 5.90791C16.0453 5.85505 16.0785 5.80219 16.1118 5.74453C16.1403 5.69167 16.1641 5.63882 16.1879 5.58115C16.1261 5.54271 16.0785 5.48505 16.0453 5.41777ZM6.03556 13.4619C5.9405 13.4571 5.8407 13.4523 5.75039 13.4426C5.52225 13.4282 5.30362 13.409 5.09449 13.3898C5.13251 13.5388 5.16582 13.6877 5.19434 13.8367C5.47476 13.8559 5.77419 13.8751 6.07838 13.8847C6.06412 13.7454 6.04982 13.606 6.03556 13.4619ZM11.6345 13.0294C11.7058 13.015 11.7772 13.0054 11.8484 12.9909C12.2524 12.9093 12.5661 12.8035 12.7467 12.669C12.8275 12.6065 12.8798 12.544 12.8846 12.4672C12.8893 12.4143 12.8751 12.3614 12.8418 12.3038C12.6945 12.3855 12.395 12.4672 11.972 12.5296C11.915 12.5392 11.8532 12.5489 11.7867 12.5585C11.7344 12.7122 11.6821 12.8708 11.6345 13.0294ZM7.94625 11.6551C7.75613 11.6551 7.56604 11.6599 7.37592 11.6647C7.40444 11.7752 7.4282 11.8761 7.43295 11.8953C7.48048 12.0972 7.52326 12.2942 7.55653 12.496C7.63733 12.496 7.71814 12.496 7.80369 12.496C7.85122 12.2173 7.89872 11.9338 7.94625 11.6551ZM8.3883 13.5051C8.25046 13.5051 8.11262 13.5099 7.97004 13.5099C7.90349 13.5099 7.84169 13.5099 7.77515 13.5099C7.75614 13.6493 7.73713 13.7886 7.72287 13.928C7.79892 13.928 7.87496 13.928 7.951 13.928C8.06983 13.928 8.18389 13.928 8.30272 13.928C8.33124 13.7838 8.35503 13.6445 8.3883 13.5051ZM9.84742 11.7127C9.55749 11.6983 9.25805 11.6887 8.94435 11.6791C8.89682 11.8569 8.85409 12.0347 8.81131 12.2173C8.78755 12.3086 8.76853 12.3999 8.74477 12.496C9.05371 12.4912 9.35314 12.4816 9.63832 12.472C9.68585 12.2846 9.73811 12.0972 9.79039 11.9146C9.8094 11.8425 9.82841 11.78 9.84742 11.7127ZM8.54988 12.7555C8.35976 12.7603 8.16491 12.7603 7.97004 12.7603C7.94152 12.7603 7.91773 12.7603 7.88921 12.7603C7.86545 12.9237 7.83697 13.0871 7.81321 13.2504C7.86549 13.2504 7.91775 13.2504 7.97004 13.2504C8.12688 13.2504 8.28372 13.2504 8.44057 13.2504C8.47384 13.0822 8.51186 12.9189 8.54988 12.7555ZM9.3864 13.4763C9.10122 13.4907 8.81132 13.4955 8.51663 13.5003C8.48812 13.6397 8.45957 13.779 8.43106 13.9232C8.71623 13.9232 9.00143 13.9184 9.28661 13.9088C9.31988 13.7646 9.35313 13.6204 9.3864 13.4763ZM5.94052 12.7074C5.56029 12.6882 5.20858 12.6642 4.88538 12.6354C4.93291 12.8035 4.98041 12.9765 5.02794 13.1495C5.33213 13.1784 5.6601 13.1976 6.00231 13.212C5.9833 13.0438 5.96429 12.8756 5.94052 12.7074ZM4.50513 11.8377C4.50037 11.8377 4.49566 11.8377 4.48615 11.8377C4.49566 11.8473 4.50514 11.8617 4.51464 11.8713C4.50989 11.8617 4.50513 11.8473 4.50513 11.8377ZM6.77229 11.6791C6.47285 11.6887 6.18295 11.7031 5.91203 11.7175C5.95481 11.9626 5.99753 12.2077 6.03556 12.4527C6.29697 12.4672 6.57268 12.4768 6.85311 12.4816C6.82459 12.2173 6.79605 11.9482 6.77229 11.6791ZM7.23331 12.7507C7.15726 12.7507 7.08598 12.7459 7.00993 12.7459C7.01944 12.8228 7.02421 12.8948 7.02896 12.9717C7.03847 13.063 7.04319 13.1495 7.05269 13.2408C7.143 13.2408 7.23334 13.2456 7.32364 13.2456C7.28562 13.0822 7.25232 12.9141 7.23331 12.7507ZM6.04983 3.67824C6.17816 3.74071 6.30175 3.80318 6.42057 3.86565C6.3065 3.55811 6.22568 3.23135 6.10211 2.92381C6.04982 2.78926 5.98803 2.65952 5.91673 2.53458C5.85019 2.42406 5.77415 2.30873 5.67909 2.21743C5.62205 2.15977 5.55079 2.11171 5.47474 2.08288C5.35117 2.03483 5.21331 2.05405 5.09924 2.11171C4.98517 2.16938 4.89487 2.27028 4.86635 2.40002C4.8521 2.47691 4.85686 2.55379 4.87587 2.62587C4.89488 2.70276 4.93288 2.77484 4.9709 2.84212C5.09923 3.05355 5.28935 3.22174 5.50323 3.3707C5.64582 3.46681 5.80271 3.5533 5.95955 3.63499C5.99282 3.64941 6.02131 3.66382 6.04983 3.67824ZM7.22855 11.6647C7.11923 11.6695 7.00994 11.6695 6.90062 11.6743C6.92914 11.9434 6.95768 12.2173 6.98145 12.4864C7.05274 12.4864 7.12877 12.4912 7.20006 12.4912C7.1858 12.3278 7.1858 12.1644 7.1953 11.9962C7.20481 11.8857 7.21429 11.7752 7.22855 11.6647ZM11.8722 12.2942C12.1336 12.2557 12.3475 12.2173 12.5044 12.174C12.5899 12.15 12.6564 12.126 12.7087 12.102C12.7135 12.102 12.7135 12.0972 12.7182 12.0972C12.7135 12.0972 12.7135 12.0923 12.7087 12.0923C12.6612 12.0683 12.5899 12.0443 12.5044 12.0203C12.376 11.9818 12.2097 11.9482 12.01 11.9146C11.9625 12.0395 11.915 12.1692 11.8722 12.2942ZM16.3019 5.60998C16.2544 5.68687 16.2116 5.76374 16.1688 5.84063C16.1071 5.96557 16.0405 6.0905 15.9597 6.20103C15.9549 6.20583 15.9502 6.21064 15.9455 6.22025C15.9027 6.29714 15.8647 6.37403 15.8314 6.45091C15.7886 6.56143 15.7553 6.67676 15.7553 6.7969C15.7506 6.96508 15.8599 7.14287 16.0025 7.2582C16.1451 7.37353 16.3304 7.4408 16.5015 7.39275C16.6299 7.35431 16.7202 7.26301 16.7725 7.15248C16.8295 7.03716 16.8532 6.89781 16.858 6.76806C16.8628 6.59988 16.839 6.42207 16.801 6.24908C16.7582 6.07609 16.7012 5.90791 16.6204 5.75895C16.6013 5.7205 16.5776 5.67726 16.549 5.63881C16.5443 5.63401 16.5396 5.62439 16.5348 5.61959C16.4635 5.6292 16.378 5.6244 16.3019 5.60998ZM7.38543 13.5051C7.28087 13.5051 7.17629 13.5003 7.07172 13.5003C7.08123 13.6397 7.09076 13.779 7.09551 13.9184C7.22859 13.9184 7.36642 13.9232 7.4995 13.9232C7.46148 13.7838 7.42346 13.6445 7.38543 13.5051ZM11.492 4.50956C11.5823 4.41345 11.6773 4.31735 11.7724 4.22605C11.972 4.03384 12.1764 3.85123 12.3808 3.66382C12.4901 3.56291 12.5946 3.43798 12.6612 3.29863C12.704 3.21213 12.723 3.11603 12.7182 3.01511C12.7135 2.96226 12.6945 2.92381 12.6659 2.89498C12.6327 2.86615 12.5899 2.85173 12.5424 2.84693C12.4378 2.84212 12.3237 2.88056 12.2477 2.93823C12.2144 2.96225 12.1859 2.99108 12.1573 3.02472C12.1146 3.07277 12.0765 3.13043 12.0385 3.18329L11.9673 3.28421C11.9673 3.28421 11.9482 3.30823 11.9387 3.31784C11.8912 3.3707 11.8247 3.29863 11.8247 3.29863C11.7866 3.17849 11.7961 3.04874 11.7629 2.92861C11.7534 2.88536 11.7344 2.84692 11.7058 2.80848C11.6726 2.76523 11.6345 2.74601 11.5918 2.75081C11.549 2.75562 11.5015 2.78445 11.4682 2.8277C11.4349 2.87095 11.4111 2.919 11.3921 2.97185C11.3731 3.02952 11.3684 3.08719 11.3636 3.14485C11.3541 3.24096 11.3589 3.33707 11.3636 3.43317C11.3874 3.79838 11.492 4.14916 11.492 4.50956ZM4.75229 12.6257C4.65248 12.6161 4.55743 12.6065 4.46712 12.5969C3.84924 12.5296 3.39297 12.4383 3.16958 12.3374C3.10779 12.4287 3.07926 12.5056 3.09828 12.5777C3.13155 12.7026 3.27887 12.7891 3.49275 12.8708C3.66385 12.9333 3.87302 12.9861 4.12017 13.0294C4.35306 13.0726 4.60972 13.1063 4.8949 13.1303C4.85212 12.9669 4.80457 12.7939 4.75229 12.6257ZM5.7837 11.7271C5.50327 11.7464 5.23709 11.7656 4.98994 11.7848C4.86161 11.7944 4.74277 11.8088 4.62395 11.8184C4.63346 11.8473 4.64299 11.8809 4.65725 11.9097C4.70954 12.0635 4.76179 12.2173 4.80932 12.3711C4.87111 12.3759 4.92815 12.3807 4.99469 12.3855C5.27512 12.4095 5.58408 12.4287 5.90728 12.4431C5.86925 12.2077 5.82647 11.9674 5.7837 11.7271ZM16.1641 4.95166C16.1118 4.79308 16.0643 4.6345 16.0073 4.47592C15.9835 4.41345 15.9597 4.35098 15.9264 4.29332C15.8932 4.22124 15.8504 4.14916 15.8076 4.08188C15.7791 4.03863 15.7459 3.99538 15.7078 3.96175C15.608 3.86084 15.4796 3.8176 15.3703 3.83682C15.261 3.85604 15.1707 3.93772 15.1374 4.08188C15.1089 4.1924 15.1232 4.30294 15.1565 4.40865C15.1945 4.51918 15.2563 4.62008 15.3276 4.70658C15.4416 4.84593 15.57 4.94204 15.7126 5.01892C15.8076 5.07178 15.9122 5.11503 16.0167 5.15347C16.0215 5.12944 16.0358 5.11023 16.0453 5.0862C16.0785 5.02854 16.1166 4.98529 16.1641 4.95166ZM10.7695 12.6594C10.5747 12.6738 10.3655 12.6882 10.1516 12.7026C10.028 12.8804 9.89498 13.0534 9.75714 13.2168C10.0566 13.2024 10.3465 13.1832 10.6222 13.1591C10.6649 12.9909 10.7172 12.8228 10.7695 12.6594ZM4.95669 13.3754C4.38158 13.3129 3.88728 13.2216 3.53557 13.0967C3.38347 13.0438 3.25988 12.9813 3.16007 12.9189C3.06976 13.0294 3.03174 13.1255 3.046 13.212C3.06026 13.3081 3.1458 13.385 3.26937 13.4522C3.44999 13.5532 3.71615 13.63 4.03935 13.6925C4.33403 13.7502 4.681 13.7934 5.05648 13.8223C5.02321 13.6781 4.98996 13.5291 4.95669 13.3754ZM4.35306 11.8521C3.96332 11.9001 3.6496 11.9578 3.43572 12.0155C3.35016 12.0395 3.28365 12.0635 3.23137 12.0875C3.23137 12.0875 3.22661 12.0875 3.22661 12.0923C3.23137 12.0923 3.23137 12.0972 3.23137 12.0972C3.2789 12.1212 3.35016 12.1452 3.43572 12.1692C3.70663 12.2413 4.13439 12.3086 4.67623 12.3566C4.65246 12.2894 4.63344 12.2173 4.60968 12.15C4.52888 12.0443 4.44336 11.9482 4.35306 11.8521ZM5.87873 3.70707C5.86923 3.70226 5.85975 3.69746 5.85024 3.69746C5.67914 3.63019 5.49853 3.59174 5.31316 3.57252C5.1278 3.5533 4.93766 3.5485 4.75705 3.56291C4.61921 3.57252 4.42911 3.61097 4.29603 3.70227C4.21998 3.75994 4.16292 3.83201 4.15817 3.94254C4.15817 4.02903 4.21046 4.10111 4.28175 4.16358C4.40058 4.26449 4.57167 4.33176 4.68098 4.37501C4.98517 4.48553 5.30841 4.47592 5.6126 4.38462C5.89777 4.30293 6.16864 4.15878 6.39679 3.99059C6.28747 3.93773 6.18294 3.87045 6.07838 3.81278C6.01184 3.77434 5.94527 3.74551 5.87873 3.70707ZM6.87684 12.7459C6.59641 12.7411 6.33027 12.7266 6.06886 12.717C6.09263 12.8852 6.11164 13.0486 6.13541 13.2168C6.23047 13.2216 6.32552 13.2216 6.42533 13.2264C6.59168 13.2312 6.75325 13.236 6.92435 13.2408C6.90534 13.0726 6.8911 12.9093 6.87684 12.7459ZM8.77801 7.19092C8.79227 7.1717 8.80657 7.15729 8.82083 7.13807C8.90638 7.03235 8.98713 6.92182 9.06318 6.80169C9.13447 6.68636 9.20102 6.56624 9.24855 6.4365C9.30083 6.30675 9.35311 6.15778 9.36737 6.00882C9.37688 5.91271 9.37216 5.81661 9.34364 5.73011C9.33414 5.70609 9.3246 5.68207 9.31034 5.65804C9.29608 5.63401 9.28184 5.60998 9.26758 5.59076C9.18678 5.47543 9.08699 5.4514 8.99669 5.48504C8.89687 5.51868 8.79703 5.60997 8.72574 5.70608C8.78752 6.13375 8.75425 6.57104 8.65919 6.99871C8.62116 7.1669 8.57366 7.33509 8.50236 7.48886C8.50712 7.48886 8.50712 7.48405 8.50712 7.48405C8.58317 7.37353 8.67345 7.27742 8.77801 7.19092ZM13.5214 7.15248C12.9844 7.92614 12.5233 8.72382 12.1193 9.55033C12.2762 9.39176 12.4188 9.22838 12.5471 9.05539C12.742 8.7959 12.9131 8.522 13.0747 8.21927C13.1935 7.99822 13.3123 7.77718 13.4026 7.54652C13.4549 7.41678 13.4929 7.28703 13.5214 7.15248ZM16.7867 4.97568C16.8152 4.95165 16.839 4.92763 16.8628 4.9036C17.0006 4.77386 17.1242 4.62488 17.2383 4.47592C17.2953 4.39903 17.3475 4.31735 17.3808 4.22605C17.4141 4.13955 17.4284 4.05305 17.4141 3.96175C17.3856 3.81278 17.3001 3.72148 17.186 3.69265C17.0719 3.65901 16.9341 3.69265 16.8248 3.78395C16.744 3.85123 16.6869 3.93293 16.6489 4.01942C16.5824 4.15878 16.5538 4.31734 16.5206 4.47592C16.4968 4.58644 16.4825 4.69697 16.4683 4.80749C16.4683 4.8219 16.4635 4.84113 16.4635 4.85554C16.5063 4.85554 16.5538 4.86035 16.5919 4.87477C16.6679 4.89399 16.7297 4.92762 16.7867 4.97568Z" fill="#133F24"/>
</svg>
