<svg width="26" height="21" viewBox="0 0 26 21" fill="none" xmlns="http://www.w3.org/2000/svg">
<path fill-rule="evenodd" clip-rule="evenodd" d="M0.955614 12.1558C0.71335 12.0847 0.471078 12.0034 0.239123 11.9019C0.187578 11.8816 0.166972 11.8206 0.187591 11.7749C0.1979 11.7597 0.208208 11.7445 0.218517 11.7343C0.800981 10.8305 1.35765 9.93676 1.93496 9.04814C2.32155 8.44896 2.71846 7.85487 3.13082 7.26076C3.86792 6.20966 4.64111 5.18902 5.38852 4.14807C5.57408 3.8891 5.75965 3.63013 5.94006 3.36608C6.2184 2.96494 6.49676 2.56887 6.78541 2.17788C7.06891 1.78689 7.35757 1.39591 7.65653 1.00999C7.739 0.898281 7.88331 0.629155 8.02248 0.436199C8.11527 0.314332 8.21322 0.222926 8.30085 0.192459C8.38848 0.161992 8.50701 0.156915 8.63588 0.177226C8.85752 0.212771 9.1101 0.309247 9.25443 0.349869C9.6204 0.451425 9.98638 0.547903 10.3524 0.618992C10.5946 0.664692 10.842 0.700243 11.0894 0.720554C11.8369 0.77641 12.5894 0.613915 13.3368 0.603759C13.5121 0.603759 13.6822 0.608841 13.8574 0.624075C14.0378 0.547908 14.2286 0.486971 14.4245 0.446349C14.5894 0.410804 14.7595 0.385418 14.9296 0.370185C15.0997 0.354951 15.2698 0.354957 15.4399 0.360035C16.1306 0.395579 16.5584 0.756103 16.8007 1.26388C17.1409 1.95954 17.1357 2.93956 17.012 3.67584C17.012 3.68599 17.0069 3.69107 17.0069 3.70122C17.0224 3.91449 17.0275 4.12776 17.0223 4.34103C17.9038 4.05159 19.0172 3.90433 20.0223 4.06174C20.7542 4.17853 21.4346 4.45273 21.9192 4.95036C23.5171 6.57525 24.5377 7.33184 25.0067 7.71268C25.1562 7.83455 25.249 7.92087 25.3006 7.98689C25.3521 8.0529 25.3624 8.11383 25.3572 8.15953C25.3418 8.25093 25.249 8.44388 25.0944 8.71301C25.1047 8.71808 25.115 8.72825 25.1253 8.73841C25.1614 8.78918 25.2181 8.8501 25.2799 8.91612C25.4037 9.04814 25.5325 9.17001 25.5325 9.17001C25.5686 9.20047 25.5686 9.25634 25.5428 9.29188C25.5428 9.29188 25.3933 9.48992 25.1408 9.83013L25.7954 10.734C25.8212 10.7695 25.8212 10.8152 25.7902 10.8508C25.7902 10.8508 25.7438 10.9066 25.6562 11.0132C25.6614 11.0183 25.6665 11.0234 25.6717 11.0336C25.6975 11.0742 25.7645 11.1757 25.8006 11.2621C25.8315 11.3281 25.8315 11.3941 25.816 11.4347C25.7902 11.5058 25.7438 11.5769 25.682 11.648C25.5737 11.7851 25.4243 11.9273 25.3366 12.039L24.2233 13.4811C24.0429 13.7197 23.8521 13.9584 23.6614 14.192C23.213 14.7302 22.7439 15.2532 22.3006 15.7965C21.7181 16.5024 21.1357 17.2082 20.5584 17.9191C19.981 18.63 19.4038 19.3408 18.8316 20.0568C18.8007 20.0974 18.7336 20.1076 18.6924 20.072C18.6873 20.067 18.6873 20.067 18.6821 20.0619C18.3419 20.0314 18.0172 19.9603 17.6924 19.8689C17.2027 19.7268 16.7234 19.5236 16.2492 19.3307C15.6976 19.1022 15.1564 18.8737 14.6564 18.569C14.3214 18.3659 14.0069 18.1323 13.7131 17.848C13.1771 17.33 12.7338 16.7359 12.1977 16.2434C11.9709 16.0352 11.7338 15.8473 11.4606 15.6899C11.141 15.502 10.5225 15.4614 10.0998 15.3345C9.99154 15.304 9.89877 15.2685 9.82145 15.2278C9.79568 15.2278 9.76989 15.2227 9.74412 15.2024C9.69773 15.1618 8.86268 14.7048 8.05857 14.3849C7.67713 14.2326 7.30085 14.1056 7.02766 14.0752C6.81632 14.5423 6.5947 15.0146 6.37305 15.5071C6.07924 16.1469 5.67201 16.6547 5.16171 17.0508C4.65657 17.4367 4.05866 17.7109 3.37826 17.8835C3.1463 17.9444 2.9092 17.9902 2.67209 18.0206C2.43498 18.0511 2.19271 18.0714 1.9556 18.0714L1.6721 18.0663C1.65149 18.0663 1.62055 18.0765 1.59477 18.0765C1.56385 18.0816 1.53293 18.0816 1.51231 18.0765C1.46592 18.0714 1.43499 18.046 1.41438 18.0257C1.38345 17.9901 1.36283 17.9445 1.38345 17.8784C1.39376 17.8531 1.42466 17.8073 1.48652 17.7718C1.59476 17.7159 1.88344 17.6398 1.92983 17.6195C2.1257 17.5382 2.30611 17.4417 2.47621 17.325C2.62569 17.2183 2.76487 17.1015 2.89373 16.9644C2.88342 16.9695 2.86795 16.9746 2.85764 16.9746C2.80094 16.9949 2.73908 17.0152 2.68238 17.0304C2.43496 17.1066 2.18754 17.1472 1.94012 17.1625C1.6927 17.1777 1.44014 17.1574 1.18242 17.1066C1.12572 17.0965 0.852515 17.0406 0.754579 16.9847C0.682415 16.9492 0.656636 16.8933 0.651481 16.8578C0.646327 16.8121 0.656656 16.7816 0.67212 16.7512C0.687583 16.7258 0.713337 16.7004 0.749419 16.6902C0.770037 16.6801 0.800982 16.675 0.83191 16.675C0.847373 16.675 0.883448 16.675 0.888602 16.675L1.14117 16.5988C1.23911 16.5633 1.33705 16.5176 1.43498 16.4719C1.58447 16.4008 1.72362 16.3196 1.86795 16.2383C2.22877 16.0352 2.58961 15.8016 2.92466 15.5427C3.2597 15.2837 3.56896 14.9993 3.84215 14.6896C3.85246 14.6794 3.85761 14.6743 3.86792 14.6642C3.47617 14.7353 3.07927 14.781 2.67722 14.7708C2.43495 14.7657 2.22363 14.7302 2.01745 14.6794C1.71333 14.5982 1.43499 14.4712 1.1154 14.3088C1.10509 14.3037 1.09995 14.2986 1.08964 14.2935C1.05871 14.2681 1.04325 14.2275 1.05871 14.1869C1.06387 14.1513 1.05869 14.1005 1.069 14.0396C1.07415 14.0091 1.07417 13.9736 1.08448 13.9381C1.08963 13.9178 1.09993 13.8974 1.11024 13.8822C1.05354 13.8568 1.02263 13.8416 1.02263 13.8416C0.981389 13.8213 0.960747 13.7756 0.965901 13.735L1.08448 12.9276C1.08448 12.9225 1.08448 12.9225 1.08448 12.9174C0.945305 12.8565 0.857676 12.8159 0.857676 12.8159C0.811285 12.7956 0.790674 12.7499 0.800983 12.6991L0.955614 12.1558ZM0.434999 11.7648C0.981381 11.973 1.55353 12.0948 2.13084 12.1507C2.75454 12.2116 3.3834 12.1964 4.0071 12.1253C4.57926 12.0644 5.15142 11.9374 5.72357 11.8765C5.72873 11.8765 5.73903 11.8765 5.74418 11.8765C6.06376 11.3078 6.36788 10.734 6.67715 10.1754C7.03797 9.53053 7.4452 8.91104 7.82148 8.27124C7.91426 8.11383 8.00703 7.95642 8.09466 7.79393C8.28537 7.44864 8.48639 7.10842 8.69773 6.77328C9.18741 6.00146 9.71318 5.25503 10.2132 4.48321C10.7235 3.69615 11.2235 2.88369 11.8369 2.17788C12.2492 1.70057 12.7131 1.26895 13.2647 0.91858C13.3111 0.888114 13.3575 0.857656 13.409 0.832267C13.3832 0.832267 13.3626 0.832267 13.3368 0.832267C12.5843 0.8475 11.8266 1.01506 11.0688 0.964279C10.8111 0.949045 10.5534 0.91351 10.3008 0.862732C9.92454 0.791643 9.55339 0.695165 9.18226 0.593609C9.0637 0.563143 8.86269 0.486971 8.67712 0.446349C8.56888 0.426038 8.47095 0.405732 8.39879 0.436199C8.3524 0.451432 8.30083 0.517437 8.24929 0.588527C8.10496 0.781483 7.96065 1.05569 7.87817 1.16232C7.58436 1.54823 7.29571 1.93415 7.00705 2.32514C6.72355 2.71613 6.44004 3.10712 6.1617 3.50826C5.97613 3.77231 5.79059 4.03128 5.59987 4.29025C4.84731 5.32612 4.06895 6.34676 3.32669 7.38771C3.01227 7.82948 2.7133 8.26616 2.41949 8.71301C1.74424 9.72349 1.10509 10.7391 0.434999 11.7648ZM2.95558 10.2262C2.92466 10.2262 2.90402 10.2059 2.90402 10.1805C2.89886 10.1551 2.92465 10.1297 2.95042 10.1297C3.00197 10.1246 3.0535 10.1145 3.09989 10.1094C3.13598 10.1043 3.16691 10.1043 3.20299 10.1043C3.23392 10.1043 3.27 10.1043 3.30093 10.1094C3.35247 10.1145 3.39885 10.1246 3.4504 10.1297C3.47617 10.1297 3.4968 10.15 3.4968 10.1754C3.4968 10.2008 3.47617 10.2211 3.4504 10.2211C3.40916 10.2262 3.37309 10.2313 3.33185 10.2363C3.30608 10.2363 3.2803 10.2414 3.25452 10.2414C3.21329 10.2414 3.17722 10.2414 3.13598 10.2363C3.07412 10.2313 3.01744 10.2313 2.95558 10.2262ZM5.97614 10.3684C5.94521 10.3633 5.92974 10.3379 5.92974 10.3125C5.93489 10.2871 5.96069 10.2668 5.98646 10.2719C6.03801 10.2719 6.08954 10.277 6.13593 10.282C6.17201 10.2871 6.20294 10.2922 6.23387 10.2973C6.2648 10.3024 6.29572 10.3125 6.32665 10.3277C6.37304 10.343 6.41944 10.3684 6.46583 10.3887C6.4916 10.3988 6.50191 10.4242 6.49676 10.4445C6.48645 10.4699 6.46068 10.4801 6.44006 10.4699C6.40914 10.4648 6.37818 10.4598 6.34725 10.4547C6.31633 10.4496 6.2854 10.4445 6.25448 10.4395C6.21839 10.4293 6.18233 10.4191 6.14625 10.409C6.0844 10.3938 6.02769 10.3785 5.97614 10.3684ZM9.8575 2.14233C9.83173 2.13725 9.81113 2.11187 9.81113 2.08648C9.81628 2.06109 9.84205 2.04077 9.86782 2.04585C9.95545 2.05093 10.0431 2.05601 10.1307 2.06617C10.1874 2.07125 10.2493 2.0814 10.306 2.09155C10.3472 2.09663 10.3833 2.10679 10.4245 2.11695C10.4812 2.13218 10.5379 2.1525 10.5946 2.16773C10.6204 2.17281 10.6358 2.19818 10.6307 2.2185C10.6255 2.24389 10.5998 2.25912 10.5792 2.25404C10.5225 2.24389 10.4606 2.23881 10.4039 2.23373C10.3678 2.22865 10.3266 2.22357 10.2905 2.2185C10.2338 2.20834 10.1771 2.19819 10.1204 2.18803C10.0328 2.1728 9.94513 2.15757 9.8575 2.14233ZM6.60498 3.97034C6.57921 3.97034 6.55861 3.94495 6.55861 3.91956C6.56376 3.89417 6.58437 3.87386 6.61014 3.87386C6.69262 3.87386 6.78024 3.87894 6.86271 3.88401C6.91941 3.88909 6.97612 3.88911 7.03282 3.89926C7.0689 3.90434 7.10499 3.90941 7.14108 3.91956C7.19778 3.92972 7.24933 3.94496 7.30603 3.95511C7.3318 3.96019 7.34724 3.9805 7.34724 4.00589C7.34208 4.03128 7.32148 4.04651 7.29571 4.04651C7.23901 4.04651 7.1823 4.04652 7.13076 4.04144C7.09468 4.04144 7.05861 4.03636 7.01737 4.03636C6.96067 4.03128 6.90912 4.0262 6.85242 4.01604C6.76995 3.99573 6.68746 3.9805 6.60498 3.97034ZM9.34721 3.08681C9.32143 3.08173 9.30597 3.05127 9.31112 3.02588C9.32143 3.00049 9.34723 2.98525 9.373 2.99033C9.42455 3.00049 9.48125 3.01065 9.53279 3.02588C9.56888 3.03604 9.60494 3.04619 9.64102 3.05635C9.6771 3.07158 9.70804 3.08173 9.74412 3.10204C9.79566 3.12743 9.83691 3.15789 9.8833 3.18836C9.90907 3.19851 9.91422 3.2239 9.90391 3.24929C9.8936 3.2696 9.86267 3.27976 9.84206 3.2696C9.80597 3.25945 9.77504 3.24929 9.73896 3.23914C9.70288 3.22898 9.67195 3.21882 9.64102 3.20359C9.59978 3.18836 9.56371 3.17313 9.52248 3.15789C9.46578 3.13758 9.40906 3.1122 9.34721 3.08681ZM4.52255 10.2262C4.49678 10.2262 4.47102 10.2059 4.47102 10.1754C4.47102 10.1449 4.49162 10.1246 4.5174 10.1246C4.5844 10.1196 4.64626 10.1145 4.71327 10.1145C4.75451 10.1145 4.8009 10.1145 4.84213 10.1196C4.88337 10.1246 4.92976 10.1297 4.971 10.1348C5.03285 10.145 5.0947 10.1653 5.15655 10.1805C5.18233 10.1856 5.1978 10.2059 5.1978 10.2313C5.19265 10.2567 5.17204 10.2719 5.14627 10.2668C5.09472 10.2668 5.04316 10.2617 4.99676 10.2617C4.96068 10.2617 4.92975 10.2617 4.89883 10.2567C4.84728 10.2516 4.8009 10.2465 4.74936 10.2414C4.67204 10.2414 4.59987 10.2313 4.52255 10.2262ZM7.89362 4.09729C7.86269 4.09729 7.84209 4.0719 7.84725 4.04651C7.84725 4.02112 7.87301 3.99573 7.89878 4.00081C7.99156 4.00081 8.08436 3.99573 8.17715 3.99573C8.239 3.99573 8.30085 3.99573 8.3627 4.00081C8.40394 4.00589 8.44517 4.01096 8.48641 4.01604C8.54826 4.0262 8.61011 4.04144 8.67196 4.05667C8.69773 4.06175 8.7132 4.08205 8.70805 4.10744C8.70289 4.13283 8.68229 4.14806 8.65652 4.14299C8.5792 4.13791 8.50703 4.13791 8.42971 4.13284C8.37817 4.13284 8.3266 4.12775 8.28021 4.12267C8.22867 4.11759 8.17713 4.11252 8.13074 4.11252C8.04311 4.11252 7.96578 4.10744 7.89362 4.09729ZM5.56894 5.31089C5.54317 5.30581 5.52254 5.28549 5.52254 5.25503C5.52769 5.22964 5.5483 5.20933 5.57407 5.20933C5.64108 5.21441 5.7081 5.21441 5.77511 5.22456C5.8215 5.22964 5.86274 5.23472 5.90913 5.23979C5.95037 5.24487 5.99676 5.25502 6.03799 5.26518C6.09985 5.28041 6.16686 5.30072 6.22871 5.31596C6.25448 5.32103 6.26995 5.34135 6.2648 5.36674C6.25964 5.39213 6.23904 5.40736 6.21326 5.40229C6.16172 5.39721 6.10502 5.3972 6.05347 5.39212C6.01739 5.38704 5.9813 5.38705 5.95038 5.38197C5.89883 5.37182 5.84729 5.36166 5.79575 5.35151C5.71843 5.34135 5.64626 5.32612 5.56894 5.31089ZM9.35753 4.25978C9.33175 4.2547 9.31629 4.22424 9.32144 4.19885C9.33175 4.17346 9.35752 4.15822 9.38329 4.1633C9.42968 4.16838 9.47608 4.17853 9.51732 4.18868C9.54824 4.19376 9.57401 4.20392 9.60493 4.21915C9.62555 4.22931 9.64104 4.23438 9.66166 4.24962C9.68743 4.26485 9.71319 4.28516 9.73896 4.3004C9.75958 4.31055 9.76991 4.33594 9.7596 4.36133C9.74929 4.38164 9.71833 4.3918 9.69771 4.38164C9.67194 4.37657 9.65135 4.37149 9.62557 4.36641C9.5998 4.36133 9.57917 4.35625 9.5534 4.3461C9.52763 4.33594 9.50184 4.32579 9.47607 4.31563C9.43483 4.29532 9.39876 4.28009 9.35753 4.25978ZM7.87301 2.91923C7.84724 2.91923 7.82148 2.89892 7.82148 2.86845C7.82148 2.84307 7.84209 2.81769 7.87301 2.81769C7.95549 2.81261 8.03795 2.80245 8.12558 2.79737C8.18228 2.79229 8.23899 2.78722 8.29569 2.78722C8.33693 2.78722 8.37299 2.78721 8.40908 2.79229C8.46578 2.79737 8.52248 2.80245 8.57918 2.81261C8.60496 2.81261 8.62558 2.83799 8.62043 2.8583C8.62043 2.88369 8.59464 2.89894 8.56886 2.89894C8.50186 2.89894 8.42971 2.90909 8.3627 2.91417C8.31631 2.91925 8.26991 2.91923 8.22352 2.91923C8.17713 2.91923 8.13075 2.91923 8.07921 2.91923C8.01735 2.92431 7.94518 2.92431 7.87301 2.91923ZM6.37818 6.819C6.35241 6.81392 6.33181 6.78852 6.33697 6.76313C6.34212 6.73774 6.36789 6.71744 6.39366 6.72252C6.45551 6.7276 6.52253 6.72759 6.58954 6.73775C6.63077 6.74283 6.67201 6.74791 6.7184 6.75298C6.74417 6.75806 6.77508 6.76313 6.80086 6.77328C6.84209 6.78344 6.88336 6.79868 6.92459 6.80883C6.95037 6.81391 6.9658 6.83422 6.96065 6.85961C6.95549 6.885 6.92973 6.90024 6.90911 6.89516C6.86272 6.89516 6.82149 6.89516 6.78025 6.89008C6.74932 6.89008 6.72356 6.88501 6.69779 6.87993C6.6514 6.87485 6.61532 6.86469 6.56893 6.85453C6.50192 6.84437 6.44519 6.82915 6.37818 6.819ZM8.40395 5.82882C8.37817 5.81866 8.36785 5.7882 8.38331 5.76281C8.39362 5.73742 8.42455 5.72726 8.45032 5.74249C8.4864 5.75265 8.51734 5.76281 8.55342 5.77804C8.57404 5.78819 8.59981 5.79327 8.61527 5.8085C8.63073 5.81866 8.64105 5.82375 8.65652 5.8339C8.67713 5.84914 8.69259 5.86437 8.71321 5.8796C8.73383 5.88976 8.74412 5.92022 8.73381 5.94053C8.72351 5.96084 8.69258 5.971 8.67196 5.96085C8.64619 5.95577 8.62557 5.95069 8.60495 5.94561C8.58949 5.94054 8.57404 5.93546 8.55858 5.93038C8.53796 5.92023 8.51734 5.91007 8.49673 5.89483C8.46064 5.86944 8.43487 5.84913 8.40395 5.82882ZM8.70289 1.99509C8.67712 1.99001 8.65652 1.96461 8.66167 1.93922C8.66683 1.91383 8.69259 1.89353 8.71837 1.89861C8.78538 1.90369 8.85239 1.90875 8.9194 1.91891C8.96579 1.92399 9.007 1.92907 9.05339 1.93922C9.09978 1.94938 9.14103 1.95953 9.18742 1.96969C9.25443 1.99 9.31628 2.01031 9.38329 2.03062C9.40907 2.0357 9.42453 2.06109 9.41938 2.0814C9.41422 2.10679 9.38846 2.12203 9.36785 2.11695C9.3163 2.11187 9.2596 2.10679 9.20806 2.09663C9.17197 2.09156 9.13588 2.08648 9.0998 2.0814C9.04825 2.07125 8.99671 2.06109 8.94517 2.04585C8.85754 2.03062 8.78021 2.01032 8.70289 1.99509ZM6.92972 5.48353C6.90395 5.47846 6.88335 5.45307 6.88851 5.4226C6.89366 5.39721 6.92459 5.38198 6.95036 5.38705C7.01737 5.39721 7.08435 5.40228 7.15136 5.41244C7.19775 5.41751 7.24415 5.42768 7.28539 5.43783C7.31631 5.44291 7.34726 5.45306 7.37304 5.46322C7.41943 5.47845 7.46064 5.49369 7.50703 5.514C7.5328 5.51908 7.54311 5.54446 7.53796 5.56985C7.52765 5.59524 7.50188 5.60539 7.48126 5.60031C7.42456 5.59016 7.36786 5.58509 7.31631 5.57493C7.28023 5.56985 7.24417 5.56477 7.20809 5.55461C7.17201 5.54446 7.13591 5.53939 7.09467 5.52923C7.03797 5.51908 6.98127 5.50384 6.92972 5.48353ZM3.66175 8.81964C3.63598 8.81456 3.61535 8.79425 3.61535 8.76379C3.6205 8.7384 3.64111 8.71809 3.67204 8.71809C3.73905 8.72317 3.80091 8.72316 3.86792 8.72824C3.91431 8.73332 3.95554 8.73839 3.99678 8.74347C4.02771 8.74855 4.0535 8.75363 4.07927 8.76379C4.12566 8.77394 4.16174 8.78918 4.20813 8.79934C4.23391 8.80441 4.24938 8.82473 4.24938 8.85012C4.24423 8.87551 4.22359 8.89073 4.19782 8.88565C4.15142 8.88565 4.11019 8.88566 4.06895 8.88058C4.03802 8.88058 4.01226 8.8755 3.98133 8.8755C3.93494 8.87042 3.89371 8.86534 3.85247 8.85518C3.78546 8.84503 3.72361 8.82979 3.66175 8.81964ZM5.04833 6.69205C5.02256 6.69205 5.00192 6.66666 5.00192 6.64127C5.00192 6.61588 5.02772 6.59557 5.05349 6.59557C5.10503 6.59557 5.15141 6.59557 5.20296 6.59557C5.23389 6.59557 5.26482 6.60064 5.3009 6.60064C5.33182 6.60572 5.36275 6.6108 5.39884 6.61587C5.44523 6.62603 5.4916 6.64127 5.54315 6.6565C5.56892 6.66158 5.58439 6.6819 5.57923 6.70728C5.57408 6.73267 5.55347 6.7479 5.5277 6.7479C5.48646 6.7479 5.45039 6.7479 5.40915 6.7479C5.38338 6.7479 5.3576 6.7479 5.33182 6.74282C5.29059 6.73774 5.25449 6.73266 5.21841 6.72758C5.16171 6.71235 5.10503 6.70221 5.04833 6.69205ZM5.92974 8.06305C5.90396 8.06305 5.87821 8.03766 5.88336 8.01227C5.88336 7.98688 5.90912 7.96657 5.9349 7.96657C6.00706 7.96657 6.08438 7.97166 6.15654 7.97674C6.20293 7.98181 6.25449 7.98689 6.30088 7.99197C6.35243 7.99705 6.3988 8.0072 6.44519 8.02243C6.51736 8.04274 6.58954 8.06306 6.65655 8.08845C6.68232 8.09352 6.69778 8.11891 6.68747 8.1443C6.68232 8.16968 6.65653 8.18492 6.63591 8.17476C6.57921 8.16461 6.52253 8.15952 6.46583 8.15445C6.42459 8.14937 6.3885 8.14429 6.35241 8.13921C6.29571 8.12906 6.23904 8.1189 6.18234 8.10875C6.09986 8.08844 6.01221 8.0732 5.92974 8.06305ZM7.67714 7.04749C7.65137 7.03733 7.64106 7.00686 7.65137 6.98147C7.66168 6.95609 7.69261 6.94594 7.71322 6.95609C7.75961 6.97133 7.81118 6.98656 7.85757 7.00179C7.88849 7.01195 7.91942 7.02718 7.95034 7.03734C7.98127 7.05257 8.01219 7.0678 8.03796 7.08304C8.08435 7.10843 8.12044 7.13888 8.16683 7.16935C8.18744 7.17951 8.19774 7.20999 8.18743 7.2303C8.17712 7.25061 8.1462 7.26075 8.12558 7.2506C8.08435 7.23536 8.04828 7.22522 8.0122 7.20998C7.98642 7.19983 7.9658 7.18967 7.94003 7.17952C7.90394 7.16428 7.86786 7.14397 7.83693 7.12874C7.78538 7.10335 7.73384 7.07288 7.67714 7.04749ZM5.05862 9.00245C5.02769 8.99737 5.01224 8.97197 5.01224 8.94658C5.0174 8.92119 5.04316 8.90089 5.06894 8.90597C5.13595 8.91104 5.20812 8.91104 5.27513 8.9212C5.32152 8.92628 5.36789 8.93136 5.41428 8.94151C5.44521 8.94659 5.47616 8.95674 5.50193 8.9669C5.54832 8.98213 5.58956 8.99737 5.63596 9.01768C5.66173 9.02276 5.67204 9.04814 5.66688 9.07353C5.66173 9.09892 5.63594 9.10909 5.61532 9.10401C5.56893 9.09893 5.52253 9.09384 5.48129 9.08876C5.45037 9.08368 5.4246 9.08369 5.39368 9.07861C5.34728 9.06845 5.30604 9.06338 5.25965 9.05323C5.19264 9.03292 5.12563 9.01768 5.05862 9.00245ZM4.26999 7.97165C4.24421 7.97165 4.21843 7.94626 4.22358 7.92087C4.22358 7.89548 4.24937 7.87517 4.27515 7.87517C4.32669 7.87517 4.3834 7.87517 4.4401 7.87517C4.47618 7.87517 4.51224 7.87518 4.54832 7.88026C4.5844 7.88533 4.6205 7.88533 4.65658 7.89041C4.70812 7.89548 4.76482 7.91071 4.81637 7.91579C4.84214 7.91579 4.86277 7.93611 4.86277 7.9615C4.86277 7.98689 4.84214 8.0072 4.81637 8.0072C4.76998 8.01228 4.72874 8.01735 4.68234 8.01735C4.65142 8.01735 4.62565 8.01735 4.59473 8.01735C4.54834 8.01735 4.50709 8.0072 4.4607 8.00212C4.39885 7.99196 4.337 7.97673 4.26999 7.97165ZM6.65655 9.25634C6.63077 9.25126 6.61015 9.22079 6.62046 9.1954C6.62562 9.17002 6.65654 9.15478 6.68231 9.15986C6.7184 9.16493 6.75449 9.16493 6.79057 9.17001C6.81119 9.17508 6.83696 9.18016 6.85758 9.18524C6.87305 9.19032 6.88849 9.1954 6.8988 9.20555C6.91941 9.21571 6.94003 9.23095 6.96065 9.2411C6.98642 9.24618 6.99673 9.27156 6.99157 9.29695C6.98126 9.32234 6.9555 9.33249 6.93488 9.32742C6.90911 9.32742 6.88849 9.32743 6.86787 9.32235C6.85241 9.32235 6.83696 9.31727 6.8215 9.31727C6.80088 9.31219 6.78026 9.30203 6.75964 9.29695C6.71841 9.28172 6.69263 9.26649 6.65655 9.25634ZM7.39364 8.29156C7.36787 8.28648 7.3524 8.25601 7.35756 8.23063C7.36271 8.20524 7.39364 8.19 7.41941 8.19508C7.43487 8.19508 7.45035 8.18999 7.46582 8.18999C7.47612 8.18999 7.48643 8.19 7.49674 8.19508C7.50705 8.20015 7.51219 8.20015 7.51735 8.20523C7.52766 8.21538 7.53796 8.22047 7.54311 8.23063C7.56889 8.24078 7.5792 8.26616 7.57404 8.28647C7.56373 8.31186 7.53797 8.32202 7.51735 8.31694C7.50704 8.31694 7.50189 8.32202 7.49158 8.32202C7.48127 8.32202 7.47612 8.3271 7.46582 8.32202C7.45551 8.32202 7.4452 8.31693 7.43489 8.31186C7.42458 8.30678 7.40911 8.30171 7.39364 8.29156ZM10.1926 14.1056C10.2132 14.1209 10.2338 14.1412 10.2493 14.1564C11.3626 13.6436 12.2286 13.5166 13.0018 13.7045C13.8059 13.9025 14.5172 14.4458 15.3162 15.2684C15.8265 15.7915 16.3213 16.2028 16.7698 16.5227C17.5275 17.066 18.1254 17.3351 18.3471 17.4214C18.5945 17.0965 19.5996 15.7915 20.7646 14.2529C21.5687 13.1916 22.4501 12.0187 23.2026 10.9777C23.8779 10.0485 24.4552 9.22587 24.7954 8.68762C24.9604 8.42358 25.0686 8.23062 25.0944 8.13415C25.0841 8.11891 25.048 8.0732 25.0119 8.04273C24.7851 7.83454 24.2594 7.45372 23.4192 6.70728C22.9604 6.29598 22.3985 5.77297 21.7491 5.1027C21.3006 4.64062 20.6666 4.38164 19.9811 4.26993C18.9708 4.10744 17.8471 4.25978 16.9811 4.55937C16.9553 4.56953 16.9296 4.56444 16.9038 4.55429C16.7028 4.8488 16.1048 5.70695 15.3471 6.7936C15.0069 7.28107 14.6409 7.80917 14.2544 8.35757C13.7131 9.1294 13.141 9.93676 12.6049 10.6984C11.4554 12.3284 10.4554 13.74 10.1926 14.1056ZM15.9657 15.0806C15.945 15.0603 15.9502 15.0298 15.9708 15.0095C15.9914 14.9892 16.0224 14.9942 16.0378 15.0146C16.0739 15.0501 16.11 15.0806 16.1461 15.1161C16.1718 15.1364 16.1925 15.1618 16.2131 15.1872C16.2337 15.2126 16.2543 15.2329 16.2749 15.2583C16.3059 15.2938 16.3316 15.3345 16.3626 15.37C16.3832 15.3852 16.3832 15.4157 16.3677 15.4309C16.3522 15.4513 16.3213 15.4512 16.3059 15.436C16.2698 15.4157 16.2388 15.3903 16.2079 15.3649C16.1873 15.3497 16.1667 15.3294 16.1461 15.3091C16.1203 15.2786 16.0945 15.2481 16.0688 15.2177C16.0378 15.177 16.0017 15.1314 15.9657 15.0806ZM17.1254 5.4226C17.0997 5.4226 17.0739 5.40228 17.0739 5.37689C17.0739 5.3515 17.0945 5.32612 17.1203 5.32612C17.1667 5.32104 17.2079 5.31088 17.2543 5.30581C17.2852 5.30073 17.311 5.30073 17.3419 5.29566C17.3729 5.29566 17.4038 5.29566 17.4347 5.29566C17.4811 5.29566 17.5223 5.30581 17.5687 5.30581C17.5945 5.30581 17.6151 5.32103 17.6203 5.34642C17.6254 5.37181 17.6048 5.39212 17.579 5.39212C17.543 5.40228 17.5069 5.40736 17.4708 5.41244C17.445 5.41751 17.4244 5.41752 17.3986 5.4226C17.3625 5.4226 17.3265 5.4226 17.2904 5.4226C17.2337 5.43276 17.177 5.42768 17.1254 5.4226ZM18.244 5.43275C18.2182 5.42767 18.1976 5.40228 18.2027 5.37689C18.2079 5.3515 18.2337 5.33119 18.2594 5.33627C18.3419 5.34643 18.4244 5.35658 18.512 5.36674C18.5687 5.37689 18.6254 5.38705 18.677 5.40229C18.7337 5.41752 18.7852 5.43276 18.8419 5.45307C18.9244 5.48353 19.0017 5.51907 19.0738 5.5597C19.0996 5.56985 19.11 5.59523 19.0996 5.61555C19.0893 5.63586 19.0635 5.6511 19.0429 5.64094C18.9965 5.62571 18.9502 5.61555 18.9038 5.60031C18.8574 5.59016 18.811 5.57494 18.7646 5.56478C18.7285 5.55462 18.6924 5.54445 18.6512 5.5343C18.5945 5.51907 18.5378 5.50383 18.4862 5.4886C18.4038 5.46829 18.3213 5.45306 18.244 5.43275ZM16.512 6.39753C16.4863 6.39245 16.4656 6.37215 16.4656 6.34168C16.4708 6.31629 16.4966 6.29597 16.5224 6.30105C16.5533 6.30105 16.5842 6.29597 16.6151 6.29597C16.6358 6.29597 16.6564 6.29597 16.6718 6.30105C16.6873 6.30105 16.6976 6.30614 16.7131 6.31122C16.7337 6.3163 16.7492 6.32644 16.7698 6.3366C16.7955 6.34168 16.811 6.36199 16.8059 6.38738C16.8007 6.41277 16.7801 6.42799 16.7543 6.42291C16.7337 6.42291 16.7131 6.428 16.6924 6.43308C16.677 6.43308 16.6667 6.43308 16.6512 6.43308C16.6306 6.43308 16.61 6.42799 16.5945 6.42291C16.5687 6.41276 16.543 6.40261 16.512 6.39753ZM19.9038 6.01161C19.878 5.99638 19.8728 5.96593 19.8883 5.94561C19.9037 5.92023 19.9347 5.91515 19.9553 5.93038C20.0068 5.95577 20.0532 5.98115 20.1048 6.01161C20.1357 6.03192 20.1666 6.04717 20.2027 6.06748C20.2336 6.08779 20.2645 6.1081 20.2955 6.12841C20.3419 6.15887 20.3831 6.19443 20.4295 6.22997C20.4501 6.24013 20.4604 6.27059 20.445 6.2909C20.4347 6.31121 20.4037 6.32137 20.3831 6.30613C20.3419 6.2909 20.3007 6.27058 20.2594 6.25027C20.2285 6.23504 20.2079 6.22489 20.1769 6.20965C20.1357 6.18934 20.0996 6.16396 20.0635 6.13349C20.0068 6.09287 19.9553 6.05224 19.9038 6.01161ZM17.4914 6.57526C17.4657 6.5651 17.4502 6.53971 17.4605 6.51433C17.4708 6.48894 17.4966 6.4737 17.5224 6.48386C17.5636 6.48894 17.5945 6.49909 17.6306 6.50924C17.6563 6.51432 17.677 6.52447 17.7027 6.53463C17.7234 6.54478 17.7491 6.55494 17.7698 6.57017C17.8007 6.59049 17.8265 6.61588 17.8574 6.63619C17.878 6.64634 17.8883 6.67681 17.8729 6.69712C17.8625 6.71743 17.8316 6.72759 17.811 6.71235C17.7852 6.70727 17.7646 6.69713 17.744 6.69205C17.7234 6.68697 17.6976 6.67681 17.677 6.66665C17.6512 6.6565 17.6306 6.64126 17.6048 6.63111C17.5687 6.61079 17.5327 6.59049 17.4914 6.57526ZM21.8006 7.46387C21.7852 7.44356 21.7903 7.41309 21.8109 7.39278C21.8315 7.37754 21.8625 7.38263 21.8779 7.40294C21.9243 7.45372 21.9707 7.49942 22.0171 7.54512C22.048 7.57559 22.079 7.60605 22.1099 7.6416C22.1357 7.66699 22.1563 7.69746 22.1821 7.72285C22.2078 7.74823 22.2285 7.77869 22.2542 7.80408C22.2748 7.81931 22.2748 7.84979 22.2594 7.86502C22.2439 7.88533 22.213 7.88532 22.1975 7.87009C22.1511 7.83962 22.1047 7.80409 22.0583 7.76854C22.0274 7.74315 22.0016 7.71776 21.9759 7.6873C21.9501 7.65683 21.9243 7.63143 21.9037 7.60097C21.8676 7.56034 21.8367 7.51465 21.8006 7.46387ZM22.7954 8.30679C22.7748 8.29156 22.7697 8.256 22.7903 8.23569C22.8109 8.21538 22.8418 8.21031 22.8625 8.23063C22.914 8.26617 22.9707 8.30679 23.0274 8.34234C23.0686 8.36773 23.1047 8.38803 23.146 8.41342C23.1717 8.42865 23.1975 8.44389 23.2233 8.4642C23.2542 8.48451 23.2851 8.50482 23.3212 8.52513C23.3573 8.54544 23.3882 8.56575 23.4192 8.58606C23.4449 8.59622 23.4552 8.62161 23.4449 8.64193C23.4346 8.66224 23.4088 8.67746 23.3882 8.66731C23.3212 8.647 23.2542 8.62161 23.1924 8.59114C23.1511 8.57083 23.1099 8.55052 23.0686 8.52513C23.0274 8.49974 22.9965 8.47435 22.9552 8.44388C22.8985 8.39818 22.847 8.35249 22.7954 8.30679ZM21.5996 9.3782C21.579 9.36296 21.5738 9.32743 21.5944 9.30712C21.6099 9.28681 21.646 9.28172 21.6614 9.30203C21.7388 9.35789 21.8212 9.40866 21.9037 9.45436C21.9398 9.47467 21.9759 9.48991 22.0119 9.51023C22.0274 9.52038 22.0429 9.52545 22.0583 9.53561C22.0944 9.55592 22.1305 9.57624 22.1717 9.59147C22.213 9.61178 22.2491 9.62702 22.2903 9.64225C22.3161 9.64733 22.3264 9.67271 22.3212 9.6981C22.3161 9.72349 22.2903 9.73364 22.2645 9.72857C22.1872 9.71333 22.115 9.6981 22.0429 9.66764C21.9913 9.64732 21.9501 9.62701 21.9037 9.60162C21.8573 9.57623 21.8161 9.55084 21.7749 9.52038C21.713 9.47975 21.6563 9.42898 21.5996 9.3782ZM20.9398 6.59557C20.9243 6.57526 20.9295 6.54479 20.9501 6.52448C20.9707 6.50924 21.0017 6.51431 21.0223 6.53463C21.0687 6.5854 21.1099 6.63111 21.1563 6.68189C21.1872 6.71743 21.2181 6.7479 21.2439 6.78345C21.2645 6.80884 21.28 6.82914 21.2955 6.85453C21.3212 6.89007 21.347 6.92562 21.3728 6.96624C21.3882 6.98655 21.3882 7.01194 21.3676 7.02717C21.347 7.04241 21.3212 7.04242 21.3058 7.02211C21.2697 6.99164 21.2388 6.96116 21.2027 6.93069C21.1821 6.91038 21.1563 6.89008 21.1408 6.8647C21.1099 6.82915 21.0841 6.7936 21.0584 6.75805C21.0171 6.70727 20.981 6.65143 20.9398 6.59557ZM15.3884 7.87009C15.3626 7.85993 15.3471 7.83455 15.3523 7.80916C15.3626 7.78377 15.3884 7.76854 15.4141 7.77869C15.4657 7.78885 15.512 7.799 15.5636 7.80916C15.5945 7.81931 15.6254 7.82439 15.6564 7.83962C15.677 7.84978 15.6976 7.85487 15.7183 7.86502C15.7492 7.88026 15.7749 7.89549 15.8059 7.91072C15.8316 7.92088 15.842 7.94626 15.8368 7.96657C15.8265 7.99196 15.8007 8.00212 15.7801 7.99197C15.744 7.98689 15.7131 7.98181 15.6822 7.97674C15.6616 7.97166 15.6409 7.96658 15.6203 7.9615C15.5894 7.95135 15.5584 7.94119 15.5275 7.92595C15.476 7.91072 15.4347 7.8904 15.3884 7.87009ZM18.5223 6.99164C18.4966 6.98148 18.4862 6.95102 18.5017 6.92563C18.512 6.90024 18.5429 6.89008 18.5687 6.90531C18.6306 6.93578 18.6976 6.96117 18.7594 6.99164C18.8007 7.01195 18.8419 7.03226 18.8831 7.05257C18.9089 7.0678 18.9347 7.08304 18.9605 7.10335C19.0017 7.12874 19.0378 7.15412 19.0738 7.18458C19.0945 7.19474 19.1048 7.22522 19.0945 7.24553C19.0842 7.26584 19.0532 7.27599 19.0326 7.26583C18.9862 7.2506 18.945 7.23538 18.9038 7.21507C18.8728 7.20491 18.847 7.18967 18.8213 7.17443C18.78 7.15412 18.7388 7.12873 18.6976 7.10842C18.6409 7.06272 18.5842 7.02718 18.5223 6.99164ZM19.5739 12.9733C19.5481 12.9631 19.5326 12.9327 19.5429 12.9073C19.5532 12.8819 19.5842 12.8717 19.6099 12.8819C19.6821 12.9073 19.7594 12.9225 19.8316 12.9428C19.8831 12.9581 19.9295 12.9682 19.9811 12.9834C20.0171 12.9936 20.0481 13.0038 20.079 13.019C20.1305 13.0393 20.1769 13.0596 20.2285 13.0799C20.2543 13.085 20.2697 13.1104 20.2594 13.1358C20.2543 13.1612 20.2285 13.1713 20.2027 13.1662C20.1408 13.1561 20.0738 13.1459 20.0068 13.1307C19.9656 13.1205 19.9243 13.1104 19.878 13.0952C19.8316 13.0799 19.7955 13.0647 19.7542 13.0495C19.6975 13.0291 19.6357 13.0038 19.5739 12.9733ZM16.4193 8.13921C16.3935 8.12906 16.378 8.10367 16.3883 8.07828C16.3987 8.05289 16.4296 8.03766 16.4502 8.04782C16.5172 8.06813 16.5842 8.08844 16.6512 8.10875C16.6976 8.12398 16.7388 8.13414 16.7852 8.14938C16.8316 8.16461 16.8728 8.17984 16.9141 8.19508C16.9759 8.22047 17.043 8.25093 17.1048 8.27632C17.1306 8.2814 17.1409 8.30678 17.1358 8.33217C17.1306 8.35756 17.1048 8.36771 17.079 8.36264C17.0223 8.35248 16.9708 8.34232 16.9141 8.32709C16.878 8.31693 16.8419 8.30678 16.8059 8.29662C16.7543 8.28139 16.7028 8.26109 16.6512 8.24078C16.5688 8.20523 16.4914 8.16968 16.4193 8.13921ZM20.6563 8.4388C20.6408 8.41341 20.6512 8.38296 20.6769 8.3728C20.7027 8.35757 20.7285 8.36772 20.7439 8.38804C20.7697 8.4185 20.7903 8.44897 20.8109 8.48452C20.8419 8.52006 20.8676 8.5556 20.8986 8.59114C20.9192 8.61653 20.9398 8.63684 20.9553 8.66223C20.981 8.69269 21.0017 8.72317 21.0274 8.75364C21.0532 8.7841 21.0738 8.81457 21.0996 8.84503C21.1151 8.86027 21.1202 8.89073 21.0996 8.90597C21.079 8.92628 21.0532 8.92628 21.0377 8.90597C20.9862 8.87042 20.9398 8.82979 20.8934 8.78917C20.8625 8.7587 20.8367 8.72824 20.8109 8.69777C20.7852 8.66731 20.7646 8.63177 20.7439 8.59623C20.713 8.55053 20.6821 8.49466 20.6563 8.4388ZM17.9656 8.71301C17.945 8.6927 17.945 8.66224 17.9605 8.64193C17.9811 8.62161 18.012 8.62161 18.0326 8.63684C18.0842 8.67747 18.1409 8.71809 18.1924 8.76379C18.2285 8.79425 18.2594 8.82472 18.2904 8.86027C18.311 8.88058 18.3316 8.90596 18.3471 8.93135C18.3728 8.96689 18.3986 9.00752 18.4244 9.04306C18.4399 9.06337 18.4399 9.08877 18.4192 9.10401C18.3986 9.11924 18.3728 9.11924 18.3574 9.09892C18.3213 9.06846 18.2904 9.03798 18.2594 9.0126C18.2337 8.99228 18.2131 8.97198 18.1924 8.95166C18.1615 8.9212 18.1306 8.88565 18.0997 8.85518C18.0533 8.80948 18.012 8.75871 17.9656 8.71301ZM19.7491 7.62128C19.7285 7.60097 19.7285 7.5705 19.7491 7.55019C19.7697 7.52987 19.8006 7.52987 19.8213 7.55019C19.8831 7.60096 19.945 7.65176 20.0017 7.70761C20.0429 7.74316 20.079 7.77869 20.1151 7.81931C20.1408 7.8447 20.1615 7.87009 20.1821 7.90056C20.2182 7.94118 20.2491 7.98688 20.28 8.0275C20.2955 8.04781 20.2955 8.07321 20.28 8.08845C20.2594 8.10368 20.2336 8.10368 20.2182 8.08336C20.1769 8.04782 20.1357 8.01227 20.0996 7.9818C20.0739 7.95641 20.0481 7.93611 20.0223 7.91072C19.9862 7.87518 19.9501 7.83455 19.914 7.79901C19.8522 7.73808 19.8058 7.67714 19.7491 7.62128ZM19.8831 10.4395C19.8676 10.4191 19.8728 10.3887 19.8934 10.3684C19.9192 10.3531 19.945 10.3582 19.9656 10.3785C19.9862 10.4039 20.012 10.4293 20.0326 10.4496C20.0635 10.475 20.0893 10.5004 20.1202 10.5258C20.1409 10.541 20.1615 10.5613 20.1821 10.5766C20.2027 10.5969 20.2233 10.6121 20.2388 10.6324C20.2697 10.6629 20.2955 10.6933 20.3264 10.7238C20.347 10.739 20.3522 10.7695 20.3316 10.7848C20.3161 10.8051 20.2852 10.8051 20.2697 10.7898C20.2233 10.7644 20.1769 10.739 20.1357 10.7086C20.1048 10.6883 20.079 10.668 20.0532 10.6426C20.0274 10.6172 20.0017 10.5918 19.9811 10.5664C19.945 10.5359 19.914 10.4902 19.8831 10.4395ZM13.9863 9.6067C13.9554 9.6067 13.9348 9.5864 13.9348 9.56101C13.9348 9.53562 13.9554 9.51023 13.9811 9.51023C14.0378 9.50007 14.0946 9.48992 14.1513 9.48484C14.1925 9.47976 14.2286 9.47976 14.2647 9.47976C14.2904 9.47976 14.3162 9.47976 14.342 9.48484C14.3832 9.48992 14.4193 9.50006 14.4554 9.50514C14.4812 9.50514 14.5018 9.53053 14.4966 9.55084C14.4914 9.57623 14.4708 9.59147 14.4502 9.59147C14.4038 9.59147 14.3574 9.60163 14.311 9.6067C14.2801 9.6067 14.2492 9.61179 14.2183 9.61179C14.1873 9.61179 14.1564 9.61179 14.1255 9.61179C14.0791 9.60671 14.0275 9.6067 13.9863 9.6067ZM18.8007 9.44421C18.7852 9.41882 18.7903 9.38835 18.8161 9.3782C18.8419 9.36296 18.8677 9.37312 18.8831 9.39343C18.9295 9.45436 18.9759 9.5153 19.0223 9.57116C19.0584 9.61178 19.0893 9.6524 19.1254 9.69302C19.1512 9.71841 19.1718 9.74888 19.1924 9.77427C19.2233 9.80981 19.2491 9.84028 19.2749 9.87583C19.3058 9.91137 19.3316 9.94183 19.3625 9.97737C19.3831 9.99261 19.3831 10.0231 19.3625 10.0383C19.347 10.0586 19.3161 10.0586 19.3006 10.0383C19.2388 9.98754 19.1769 9.94183 19.1202 9.88598C19.0842 9.85043 19.0481 9.80982 19.012 9.7692C18.9759 9.72858 18.9501 9.68795 18.9192 9.64225C18.878 9.58132 18.8368 9.5153 18.8007 9.44421ZM14.9399 9.66764C14.9141 9.66256 14.8935 9.63718 14.8987 9.61179C14.9038 9.5864 14.9296 9.56608 14.9554 9.57116C15.0585 9.58639 15.1564 9.60163 15.2543 9.62702C15.3213 9.64225 15.3832 9.66256 15.4502 9.68287C15.5121 9.70318 15.5791 9.72857 15.6358 9.75903C15.7285 9.79965 15.811 9.85551 15.8987 9.90629C15.9193 9.91645 15.9296 9.94691 15.9141 9.96722C15.9038 9.98754 15.8729 9.99769 15.8522 9.98246C15.7904 9.95199 15.7234 9.9266 15.6564 9.90121C15.6151 9.88598 15.5687 9.86566 15.5275 9.85043C15.5069 9.84027 15.4811 9.8352 15.4605 9.82505C15.409 9.80474 15.3574 9.78951 15.311 9.7692C15.1873 9.73365 15.0688 9.6981 14.9399 9.66764ZM20.9501 11.2062C20.9243 11.2011 20.9037 11.1757 20.914 11.1453C20.9192 11.1199 20.945 11.0996 20.9707 11.1097C21.0326 11.1199 21.0944 11.125 21.1563 11.1351C21.1975 11.1402 21.2388 11.1453 21.28 11.1504C21.3212 11.1554 21.3573 11.1656 21.3986 11.1707C21.4553 11.1808 21.5171 11.196 21.579 11.2011C21.6048 11.2011 21.6254 11.2214 21.6254 11.2468C21.6254 11.2722 21.6048 11.2925 21.579 11.2925C21.5274 11.2976 21.4759 11.2976 21.4243 11.2976C21.3882 11.2976 21.3573 11.2976 21.3213 11.2925C21.2697 11.2875 21.2233 11.2773 21.1718 11.2621C21.0944 11.2468 21.0223 11.2265 20.9501 11.2062ZM19.0223 14.1006C18.9965 14.0955 18.9759 14.0701 18.9862 14.0396C18.9914 14.0142 19.0171 13.9939 19.0429 14.0041C19.0893 14.0092 19.1357 14.0142 19.1821 14.0193C19.213 14.0244 19.2439 14.0295 19.2697 14.0345C19.2903 14.0396 19.311 14.0447 19.3264 14.0498C19.3574 14.0599 19.3831 14.0701 19.4141 14.0802C19.4398 14.0853 19.4553 14.1056 19.4501 14.131C19.445 14.1564 19.4244 14.1716 19.3986 14.1666C19.3677 14.1666 19.3367 14.1666 19.3058 14.1666C19.2852 14.1666 19.2646 14.1666 19.244 14.1615C19.213 14.1564 19.1821 14.1513 19.1512 14.1412C19.1099 14.131 19.0687 14.1107 19.0223 14.1006ZM18.5945 12.2065C18.5739 12.1862 18.5739 12.1558 18.5945 12.1354C18.6151 12.1151 18.646 12.1151 18.6615 12.1354C18.7182 12.1862 18.7749 12.2319 18.8316 12.2827C18.8728 12.3182 18.9089 12.3487 18.945 12.3843C18.9708 12.4097 18.9914 12.43 19.0172 12.4553C19.0532 12.4909 19.0842 12.5264 19.1202 12.562C19.1409 12.5772 19.1409 12.6077 19.1254 12.6229C19.1099 12.6432 19.079 12.6432 19.0636 12.628C19.0172 12.5975 18.9759 12.5721 18.9347 12.5417C18.9089 12.5214 18.8831 12.501 18.8574 12.4757C18.8161 12.4401 18.78 12.4046 18.7491 12.369C18.6924 12.3233 18.646 12.2675 18.5945 12.2065ZM17.4863 11.2062C17.4708 11.1859 17.4759 11.1554 17.5017 11.1402C17.5223 11.125 17.5533 11.13 17.5687 11.1554C17.6203 11.2214 17.6666 11.2824 17.7182 11.3484C17.7543 11.3941 17.7904 11.4347 17.8265 11.4804C17.8522 11.5109 17.8729 11.5363 17.8986 11.5667C17.9296 11.6023 17.9553 11.6378 17.9862 11.6784C18.0172 11.714 18.0429 11.7495 18.079 11.7851C18.0945 11.8003 18.0945 11.8308 18.079 11.846C18.0636 11.8612 18.0326 11.8663 18.0172 11.846C17.9656 11.8054 17.9141 11.7597 17.8677 11.714C17.8368 11.6835 17.8058 11.6531 17.7749 11.6175C17.7337 11.5667 17.6925 11.516 17.6512 11.4601C17.5894 11.3789 17.5378 11.2925 17.4863 11.2062ZM13.3265 11.0132C13.2956 11.0132 13.275 10.9879 13.2801 10.9625C13.2801 10.9371 13.3059 10.9168 13.3317 10.9168C13.3936 10.9168 13.4554 10.9168 13.5121 10.9168C13.5533 10.9168 13.5946 10.9168 13.6358 10.9219C13.677 10.9269 13.7183 10.932 13.7595 10.9422C13.8162 10.9523 13.8781 10.9726 13.9348 10.9879C13.9605 10.9929 13.976 11.0133 13.9709 11.0386C13.9657 11.064 13.9451 11.0793 13.9193 11.0742C13.8729 11.0742 13.8214 11.0691 13.775 11.0691C13.7441 11.0691 13.7131 11.064 13.6822 11.064C13.6307 11.059 13.5894 11.0539 13.5379 11.0437C13.4709 11.0336 13.3987 11.0234 13.3265 11.0132ZM12.3781 12.0948C12.3523 12.0948 12.3266 12.0745 12.3266 12.044C12.3266 12.0187 12.3472 11.9933 12.3781 11.9933C12.4451 11.9882 12.5121 11.9831 12.5791 11.978C12.6255 11.978 12.6719 11.973 12.7131 11.978C12.7441 11.978 12.775 11.9831 12.8059 11.9882C12.8523 11.9933 12.8936 12.0034 12.9399 12.0085C12.9657 12.0085 12.9863 12.0288 12.9863 12.0542C12.9863 12.0796 12.9657 12.0999 12.9399 12.0948C12.8936 12.0999 12.8523 12.105 12.8059 12.105C12.775 12.105 12.7441 12.1101 12.7131 12.1101C12.6668 12.1101 12.6255 12.1101 12.5791 12.105C12.5121 12.105 12.4451 12.0948 12.3781 12.0948ZM15.8574 11.846C15.8368 11.8257 15.8368 11.7952 15.8574 11.7749C15.878 11.7546 15.9038 11.7546 15.9244 11.7699C16.0069 11.8359 16.0842 11.8968 16.1615 11.9628C16.2131 12.0085 16.2646 12.0542 16.311 12.0999C16.3419 12.1304 16.3729 12.1659 16.4038 12.2015C16.4502 12.2522 16.4914 12.3081 16.5327 12.3639C16.5481 12.3843 16.5481 12.4096 16.5275 12.4249C16.5069 12.4401 16.4811 12.4401 16.4656 12.4198C16.4089 12.3589 16.3419 12.303 16.2801 12.2472C16.2388 12.2116 16.1976 12.171 16.1564 12.1304C16.1151 12.0897 16.0739 12.0542 16.0327 12.0136C15.9811 11.9679 15.9193 11.9069 15.8574 11.846ZM14.5842 11.191C14.5585 11.1808 14.5482 11.1504 14.5585 11.125C14.5688 11.0996 14.5997 11.0894 14.6255 11.0996C14.7028 11.13 14.7853 11.1605 14.8626 11.1961C14.9141 11.2214 14.9657 11.2468 15.0121 11.2722C15.043 11.2925 15.0739 11.3128 15.1049 11.3382C15.1513 11.3738 15.1925 11.4093 15.2389 11.4499C15.2595 11.4652 15.2646 11.4906 15.2492 11.5109C15.2337 11.5312 15.2028 11.5363 15.1873 11.521C15.1461 11.4956 15.11 11.4753 15.0688 11.455C15.0275 11.4347 14.9914 11.4144 14.9502 11.3941C14.9038 11.3687 14.8574 11.3433 14.8059 11.3128C14.7286 11.2671 14.6564 11.2265 14.5842 11.191ZM16.3574 10.2516C16.3368 10.2313 16.3368 10.2008 16.3523 10.1805C16.3729 10.1602 16.4038 10.1602 16.4244 10.1805C16.4811 10.2262 16.5378 10.2719 16.5894 10.3227C16.6255 10.3531 16.6615 10.3887 16.6976 10.4242C16.7337 10.4598 16.7646 10.4953 16.7955 10.5309C16.8419 10.5867 16.8832 10.6426 16.9296 10.7035C16.945 10.7238 16.945 10.7492 16.9244 10.7644C16.9038 10.7797 16.878 10.7797 16.8626 10.7594C16.8213 10.7187 16.7749 10.6832 16.7337 10.6426C16.7028 10.6172 16.677 10.5918 16.6512 10.5613C16.61 10.5207 16.5739 10.4801 16.5327 10.4395C16.4708 10.3785 16.4193 10.3125 16.3574 10.2516ZM17.0533 12.8565C17.0326 12.8362 17.0378 12.8057 17.0584 12.7854C17.079 12.7702 17.11 12.7702 17.1306 12.7905C17.1821 12.8463 17.2337 12.8971 17.2852 12.9479C17.3213 12.9834 17.3574 13.019 17.3986 13.0495C17.4244 13.0748 17.4502 13.0951 17.4708 13.1205C17.5017 13.151 17.5326 13.1815 17.5636 13.2069C17.5945 13.2373 17.6254 13.2678 17.6563 13.2932C17.677 13.3084 17.6821 13.3338 17.6667 13.3541C17.6512 13.3744 17.6254 13.3795 17.6048 13.3643C17.5378 13.3237 17.4759 13.283 17.4141 13.2373C17.3729 13.2069 17.3368 13.1713 17.2955 13.1408C17.2595 13.1053 17.2234 13.0698 17.1925 13.0291C17.1409 12.9784 17.0945 12.9174 17.0533 12.8565ZM13.2956 13.2069C13.2698 13.2018 13.2544 13.1713 13.2595 13.1459C13.2647 13.1205 13.2956 13.1053 13.3214 13.1104C13.4039 13.1256 13.4863 13.1459 13.5636 13.1662C13.6152 13.1815 13.6719 13.1967 13.7234 13.217C13.7595 13.2322 13.7904 13.2475 13.8265 13.2678C13.8781 13.2932 13.9193 13.3237 13.9709 13.3541C13.9915 13.3643 14.0018 13.3947 13.9863 13.4151C13.976 13.4354 13.9451 13.4455 13.9245 13.4303L13.2956 13.2069ZM13.5688 12.2015C13.543 12.1913 13.5276 12.1659 13.5379 12.1405C13.5482 12.1151 13.5739 12.0999 13.5997 12.1101C13.6719 12.1304 13.7492 12.1507 13.8214 12.1761C13.8729 12.1913 13.9193 12.2116 13.9657 12.237C13.9966 12.2522 14.0275 12.2725 14.0585 12.2878C14.1049 12.3182 14.1461 12.3487 14.1822 12.3843C14.2028 12.3995 14.208 12.4249 14.1925 12.4452C14.177 12.4655 14.1513 12.4706 14.1306 12.4553C14.0946 12.435 14.0585 12.4198 14.0172 12.4046C13.9863 12.3893 13.9554 12.3792 13.9296 12.3639C13.8987 12.3487 13.8678 12.3386 13.8368 12.3233C13.8008 12.3081 13.7647 12.2878 13.7286 12.2725C13.6822 12.2522 13.6255 12.2268 13.5688 12.2015ZM18.2904 15.3141C18.2646 15.3141 18.2388 15.2888 18.244 15.2634C18.2491 15.238 18.2698 15.2177 18.2955 15.2177C18.3471 15.2177 18.3986 15.2126 18.4502 15.2126C18.4862 15.2126 18.5223 15.2126 18.5584 15.2177C18.5842 15.2177 18.6048 15.2228 18.6254 15.2278C18.6615 15.2329 18.6924 15.2431 18.7285 15.2532C18.7543 15.2532 18.7749 15.2786 18.7697 15.2989C18.7697 15.3243 18.744 15.3395 18.7182 15.3395C18.6821 15.3395 18.6512 15.3446 18.6151 15.3446C18.5893 15.3446 18.5687 15.3446 18.5429 15.3446C18.5069 15.3446 18.4759 15.3395 18.4398 15.3345C18.3883 15.3345 18.3419 15.3243 18.2904 15.3141ZM18.0429 13.6588C18.0223 13.6435 18.0172 13.6131 18.0326 13.5877C18.0481 13.5674 18.079 13.5623 18.0997 13.5775C18.1512 13.608 18.1976 13.6334 18.244 13.6588C18.2749 13.674 18.311 13.6943 18.3419 13.7096C18.3677 13.7248 18.3935 13.7451 18.4192 13.7603C18.445 13.7756 18.4708 13.7959 18.4965 13.8111C18.5223 13.8213 18.5326 13.8467 18.5223 13.8721C18.512 13.8924 18.4811 13.9025 18.4605 13.8924C18.4141 13.8771 18.3677 13.867 18.3213 13.8467C18.2904 13.8365 18.2646 13.8213 18.2337 13.801C18.2027 13.7857 18.1821 13.7654 18.1512 13.7451C18.1151 13.7197 18.079 13.6892 18.0429 13.6588ZM14.8626 14.0193C14.842 13.999 14.842 13.9685 14.8626 13.9482C14.8832 13.9279 14.9141 13.9279 14.9348 13.9482C14.9915 13.999 15.0533 14.0498 15.1049 14.1056C15.1461 14.1412 15.1822 14.1767 15.2182 14.2123C15.2543 14.2478 15.2904 14.2884 15.3213 14.324C15.3729 14.3849 15.4193 14.4408 15.4708 14.5017C15.4863 14.5169 15.4863 14.5474 15.4708 14.5626C15.4502 14.5779 15.4244 14.5779 15.409 14.5626C15.3626 14.522 15.311 14.4814 15.2647 14.4408C15.2337 14.4154 15.2028 14.3849 15.177 14.3545C15.1306 14.3088 15.0894 14.263 15.0481 14.2173C14.9811 14.1564 14.9244 14.0853 14.8626 14.0193ZM17.3265 14.8064C17.3059 14.7911 17.3007 14.7556 17.3213 14.7353C17.3368 14.715 17.3729 14.7099 17.3883 14.7302C17.4193 14.7505 17.4502 14.7657 17.4811 14.7861C17.5017 14.8013 17.5223 14.8114 17.5378 14.8267C17.5481 14.8368 17.5636 14.847 17.5739 14.8571C17.5893 14.8724 17.6048 14.8927 17.6203 14.913C17.6409 14.9282 17.646 14.9536 17.6306 14.9739C17.6151 14.9943 17.5842 14.9993 17.5687 14.9841C17.5481 14.9739 17.5223 14.9638 17.5017 14.9536C17.4862 14.9485 17.4708 14.9384 17.4605 14.9282C17.4398 14.913 17.4244 14.8978 17.4038 14.8825C17.378 14.8571 17.3522 14.8318 17.3265 14.8064ZM16.0069 13.6588C15.9863 13.6385 15.9863 13.608 16.0069 13.5877C16.0275 13.5674 16.0585 13.5674 16.0739 13.5877C16.1512 13.6537 16.2234 13.7248 16.3007 13.7908C16.3522 13.8365 16.3986 13.8822 16.4502 13.9279C16.4966 13.9736 16.543 14.0244 16.5945 14.0701C16.6615 14.1412 16.7285 14.2173 16.8007 14.2884C16.8213 14.3037 16.8213 14.3341 16.8059 14.3494C16.7904 14.3697 16.7595 14.3697 16.744 14.3545C16.6822 14.3037 16.6151 14.2529 16.5533 14.2021C16.5121 14.1666 16.4708 14.131 16.4296 14.0955C16.3729 14.0396 16.3162 13.9787 16.2595 13.9228C16.1667 13.8365 16.0894 13.7502 16.0069 13.6588ZM14.9966 12.8666C14.9708 12.8514 14.9657 12.821 14.9811 12.8006C14.9966 12.7803 15.0275 12.7702 15.0481 12.7854C15.1255 12.8311 15.2028 12.8768 15.2749 12.9276C15.3213 12.9631 15.3729 12.9936 15.4193 13.0342C15.4657 13.0698 15.5121 13.1104 15.5533 13.151C15.6152 13.2119 15.677 13.2779 15.7337 13.344C15.7543 13.3592 15.7543 13.3897 15.7337 13.4049C15.7182 13.4201 15.6873 13.4252 15.6719 13.4049C15.6152 13.3592 15.5636 13.3186 15.5069 13.2779C15.4708 13.2475 15.4347 13.2221 15.3986 13.1916C15.3626 13.1612 15.3265 13.1307 15.2904 13.1053C15.2389 13.0596 15.1873 13.019 15.1306 12.9733C15.0894 12.9377 15.043 12.9022 14.9966 12.8666ZM17.1306 15.9641C17.1048 15.9539 17.0945 15.9235 17.1048 15.8981C17.1151 15.8727 17.146 15.8626 17.1718 15.8727C17.2491 15.8981 17.3265 15.9235 17.4038 15.9489C17.4553 15.9641 17.5069 15.9793 17.5584 15.9946C17.5945 16.0047 17.6254 16.02 17.6615 16.0301C17.713 16.0504 17.7646 16.0657 17.8161 16.0809C17.8419 16.086 17.8574 16.1114 17.8522 16.1317C17.8471 16.1571 17.8213 16.1723 17.8007 16.1672C17.7285 16.1571 17.6615 16.152 17.5945 16.1367C17.5481 16.1266 17.5017 16.1164 17.4605 16.1012C17.4141 16.086 17.3729 16.0707 17.3265 16.0504C17.2543 16.025 17.1925 15.9946 17.1306 15.9641ZM11.7132 13.0545C11.6874 13.0545 11.6616 13.0342 11.6616 13.0038C11.6616 12.9784 11.6874 12.953 11.7132 12.953C11.7647 12.9479 11.8214 12.9428 11.8781 12.9377C11.9142 12.9377 11.9503 12.9377 11.9863 12.9377C12.0121 12.9377 12.0379 12.9428 12.0585 12.9479C12.0946 12.953 12.1307 12.9631 12.1668 12.9682C12.1925 12.9682 12.2132 12.9885 12.208 13.0139C12.208 13.0393 12.1874 13.0596 12.1616 13.0545C12.1255 13.0596 12.0894 13.0647 12.0533 13.0647C12.0276 13.0647 12.0018 13.0698 11.9812 13.0698C11.9451 13.0698 11.909 13.0647 11.873 13.0647C11.8214 13.0647 11.7699 13.0596 11.7132 13.0545ZM16.8471 4.47304C16.8471 4.46796 16.8471 4.46289 16.8471 4.45781C16.8368 4.44257 16.8316 4.42228 16.8316 4.40704C16.8574 3.76724 16.7749 3.1325 16.5378 2.5841C16.512 2.56887 16.5017 2.5384 16.5017 2.50793V2.50287C16.4914 2.48256 16.4811 2.45716 16.4708 2.43685C16.2492 1.98493 15.9141 1.59901 15.4399 1.32481C15.2079 1.38575 14.9399 1.55839 14.6306 1.81736C13.8677 2.45716 12.9245 3.61998 11.9812 4.94021C10.3163 7.28107 8.66681 10.1297 8.09466 11.5718C8.02249 11.7546 7.94518 11.9374 7.87301 12.1202C8.15651 12.2218 8.42971 12.3487 8.68228 12.5061C9.27505 12.8717 9.77505 13.3795 10.1359 14.0193C10.4297 13.5979 11.3884 12.2167 12.5018 10.6324C13.0327 9.87074 13.5997 9.06338 14.1461 8.29156C14.5327 7.74315 14.9038 7.21506 15.2492 6.73267C16.043 5.6054 16.6615 4.73709 16.8471 4.47304ZM10.7235 11.6074C10.7132 11.582 10.7286 11.5515 10.7544 11.5464C10.7802 11.5363 10.806 11.5515 10.8163 11.5769C10.8317 11.6023 10.8472 11.6277 10.8626 11.6531C10.873 11.6683 10.8781 11.6886 10.8833 11.7038C10.8884 11.7191 10.8884 11.7343 10.8936 11.7495C10.8936 11.7648 10.8936 11.78 10.8987 11.8003C10.909 11.8206 10.8987 11.8511 10.873 11.8562C10.8523 11.8663 10.8266 11.8562 10.8163 11.8308C10.8008 11.8155 10.7905 11.8003 10.7802 11.7851C10.775 11.7749 10.7647 11.7648 10.7595 11.7495C10.7544 11.7343 10.7493 11.714 10.7441 11.6937C10.7338 11.6632 10.7287 11.6327 10.7235 11.6074ZM10.7802 9.99262C10.7647 9.97231 10.7647 9.94184 10.7853 9.92153C10.806 9.90121 10.8369 9.9063 10.8575 9.92661C10.8936 9.96215 10.9297 9.99769 10.9657 10.0332C10.9915 10.0586 11.0121 10.084 11.0328 10.1094C11.0534 10.1348 11.074 10.1602 11.0946 10.1906C11.1204 10.2313 11.1462 10.277 11.1719 10.3176C11.1874 10.3379 11.1874 10.3633 11.1668 10.3785C11.1462 10.3938 11.1204 10.3938 11.1049 10.3735C11.074 10.3481 11.0431 10.3176 11.0121 10.2922C10.9915 10.2719 10.9709 10.2516 10.9554 10.2313C10.9297 10.2008 10.9039 10.1703 10.8833 10.1348C10.8472 10.0942 10.8163 10.0434 10.7802 9.99262ZM12.9039 8.44388C12.8884 8.4185 12.8987 8.38803 12.9245 8.37787C12.9502 8.36264 12.9812 8.3728 12.9915 8.39819C13.0069 8.4185 13.0276 8.43881 13.043 8.4642C13.0534 8.47943 13.0637 8.49466 13.074 8.5099C13.0791 8.52513 13.0843 8.54036 13.0894 8.5556C13.0946 8.57083 13.0946 8.58606 13.0997 8.60129C13.1152 8.62161 13.1049 8.64699 13.0843 8.66223C13.0636 8.67746 13.0379 8.6673 13.0224 8.64699C13.0069 8.63176 12.9915 8.62161 12.976 8.60638C12.9657 8.59622 12.9554 8.58607 12.9502 8.57591C12.9399 8.56068 12.9296 8.54036 12.9245 8.52513C12.9193 8.49974 12.9142 8.46927 12.9039 8.44388ZM10.1874 8.25601C10.1616 8.24585 10.1513 8.21538 10.1616 8.18999C10.1719 8.1646 10.2029 8.15446 10.2286 8.16461C10.2957 8.19 10.3627 8.21539 10.4245 8.24586C10.4658 8.26617 10.507 8.28647 10.5482 8.31186C10.574 8.32709 10.5998 8.34741 10.6256 8.36772C10.6616 8.39819 10.6977 8.43374 10.7286 8.46928C10.7492 8.48452 10.7492 8.51498 10.7338 8.53021C10.7183 8.55052 10.6874 8.55051 10.6719 8.53528L10.1874 8.25601ZM10.0379 10.8609C10.0173 10.8406 10.0173 10.8101 10.0379 10.7898C10.0585 10.7695 10.0895 10.7695 10.1101 10.7898C10.1462 10.8152 10.1771 10.8406 10.208 10.8711C10.2287 10.8914 10.2493 10.9117 10.2647 10.932C10.2854 10.9523 10.3008 10.9777 10.3111 10.998C10.3317 11.0336 10.3524 11.0691 10.3678 11.1046C10.3833 11.125 10.3781 11.1504 10.3575 11.1656C10.3369 11.1808 10.3111 11.1757 10.2957 11.1554C10.2699 11.13 10.2493 11.1097 10.2286 11.0894C10.2132 11.0742 10.1977 11.0589 10.1822 11.0437C10.1616 11.0183 10.1462 10.9929 10.1255 10.9676C10.0946 10.9371 10.0689 10.8965 10.0379 10.8609ZM11.2647 8.95675C11.2441 8.93644 11.2441 8.90596 11.2647 8.88565C11.2853 8.86534 11.3163 8.86534 11.3369 8.88565C11.3781 8.9212 11.4142 8.95167 11.4503 8.98721C11.476 9.0126 11.4967 9.03291 11.5173 9.06338C11.5379 9.08877 11.5585 9.11416 11.574 9.14462C11.5998 9.18525 11.6204 9.23095 11.6461 9.27665C11.6616 9.29696 11.6564 9.32235 11.6358 9.33758C11.6152 9.35281 11.5843 9.34773 11.574 9.32742C11.543 9.29695 11.5173 9.27157 11.4915 9.2411C11.4761 9.22079 11.4554 9.20555 11.44 9.18524C11.4142 9.15477 11.3936 9.12431 11.3678 9.09384C11.3317 9.04814 11.3008 9.00245 11.2647 8.95675ZM9.49155 9.27665C9.46578 9.26649 9.45031 9.24109 9.45546 9.2157C9.46577 9.19032 9.49154 9.17508 9.51732 9.18524C9.58433 9.20047 9.6565 9.22079 9.72351 9.2411C9.7699 9.25634 9.81111 9.27157 9.8575 9.29188C9.90389 9.31219 9.94 9.33251 9.98124 9.3579C10.0379 9.39852 10.0946 9.43913 10.1462 9.48991C10.1668 9.50514 10.1719 9.53053 10.1565 9.55084C10.141 9.57115 10.1152 9.57624 10.0946 9.56101C10.0585 9.5407 10.0276 9.52038 9.99153 9.50514C9.95544 9.48483 9.91938 9.46959 9.8833 9.45436C9.86784 9.44928 9.85236 9.43914 9.8369 9.43406C9.80597 9.41883 9.76989 9.40359 9.73896 9.38328C9.65649 9.34266 9.57918 9.30712 9.49155 9.27665ZM8.95033 10.2871C8.92456 10.277 8.90909 10.2516 8.91424 10.2262C8.92455 10.2008 8.95032 10.1856 8.97609 10.1957C9.02764 10.2059 9.08434 10.216 9.13588 10.2313C9.17197 10.2414 9.20806 10.2516 9.24414 10.2668C9.26991 10.277 9.2905 10.2871 9.31112 10.3024C9.3472 10.3227 9.373 10.343 9.40393 10.3684C9.42455 10.3785 9.43484 10.409 9.41938 10.4293C9.40907 10.4496 9.37814 10.4547 9.35753 10.4445C9.31629 10.4293 9.27506 10.4192 9.23382 10.4039C9.2029 10.3938 9.1771 10.3836 9.15133 10.3785C9.12556 10.3684 9.0998 10.3582 9.06887 10.3481C9.03279 10.3227 8.99156 10.3024 8.95033 10.2871ZM12.1564 7.63143C12.141 7.61112 12.1462 7.58065 12.1719 7.56542C12.1977 7.55019 12.2235 7.55528 12.2389 7.58067C12.275 7.62637 12.3111 7.66698 12.3472 7.71268C12.3729 7.74315 12.3936 7.77361 12.4142 7.80408C12.4296 7.82439 12.44 7.8447 12.4554 7.87009C12.476 7.90563 12.4915 7.93611 12.507 7.97165C12.5224 7.99196 12.5173 8.01735 12.4967 8.03258C12.476 8.04782 12.4502 8.04274 12.4348 8.02243C12.3987 7.98689 12.3678 7.95642 12.3317 7.92087C12.3111 7.89548 12.2905 7.8701 12.275 7.84471C12.2544 7.81932 12.2389 7.79393 12.2235 7.76346C12.2028 7.71268 12.1771 7.67206 12.1564 7.63143ZM9.46578 11.9425C9.45032 11.9222 9.45546 11.8917 9.48123 11.8714C9.50185 11.8562 9.53278 11.8612 9.54824 11.8815C9.59463 11.9425 9.64619 12.0034 9.68743 12.0644C9.71835 12.105 9.74412 12.1507 9.77504 12.1913C9.79051 12.2218 9.80599 12.2522 9.82145 12.2827C9.84207 12.3284 9.86268 12.3792 9.8833 12.4249C9.89361 12.4452 9.88844 12.4757 9.86266 12.4858C9.84204 12.496 9.81112 12.4909 9.80081 12.4655C9.76988 12.4249 9.74412 12.3843 9.71319 12.3436C9.69257 12.3182 9.67196 12.2878 9.6565 12.2624C9.63073 12.2218 9.60494 12.1761 9.57917 12.1354C9.53793 12.0745 9.50187 12.0085 9.46578 11.9425ZM8.32662 11.2468C8.30084 11.2367 8.28538 11.2113 8.29569 11.1859C8.306 11.1605 8.33177 11.1453 8.35754 11.1554C8.41424 11.1707 8.47611 11.1859 8.52765 11.2062C8.56889 11.2214 8.60495 11.2316 8.64104 11.2519C8.67712 11.2671 8.71321 11.2875 8.74929 11.3078C8.80084 11.3382 8.84721 11.3789 8.8936 11.4195C8.91422 11.4347 8.91939 11.4601 8.90392 11.4804C8.88846 11.5007 8.86269 11.5058 8.84207 11.4906C8.80599 11.4703 8.77506 11.455 8.73897 11.4398C8.70289 11.4245 8.67196 11.4093 8.63588 11.3941C8.60495 11.3789 8.58434 11.3687 8.55342 11.3535C8.51218 11.3332 8.47095 11.3128 8.42971 11.2925C8.39879 11.2773 8.3627 11.2621 8.32662 11.2468ZM15.0069 3.94496C14.9863 3.92973 14.9811 3.89925 14.9966 3.87386C15.0121 3.85355 15.0482 3.84848 15.0688 3.86371C15.1409 3.91449 15.2131 3.97034 15.2801 4.03127C15.3265 4.0719 15.3677 4.1176 15.4038 4.1633C15.445 4.209 15.476 4.25978 15.5069 4.31056C15.5533 4.38673 15.5842 4.47305 15.61 4.55937C15.6203 4.58476 15.6049 4.61014 15.5842 4.61522C15.5585 4.62537 15.5378 4.61015 15.5275 4.58984C15.4914 4.51367 15.445 4.44257 15.3986 4.37656C15.3677 4.33086 15.3368 4.28517 15.3007 4.24455C15.2647 4.19885 15.2286 4.15823 15.1925 4.1176C15.1358 4.06175 15.0739 4.00082 15.0069 3.94496ZM13.9038 3.25945C13.8781 3.2493 13.8626 3.22391 13.8678 3.19852C13.8781 3.17313 13.9038 3.1579 13.9296 3.16298C13.9812 3.17313 14.0275 3.18329 14.0791 3.19852C14.1152 3.20868 14.1461 3.21882 14.177 3.23406C14.2079 3.24929 14.2389 3.26454 14.2698 3.27977C14.3162 3.30516 14.3523 3.33562 14.3935 3.36608C14.4142 3.37624 14.4244 3.4067 14.4141 3.42702C14.4038 3.44733 14.3729 3.45749 14.3523 3.44733C14.3111 3.4321 14.2801 3.42195 14.2389 3.40672C14.2131 3.39656 14.1874 3.39147 14.1667 3.38132C14.1307 3.36608 14.0997 3.35085 14.0636 3.33562C14.0121 3.30515 13.9605 3.27977 13.9038 3.25945ZM11.0946 6.94086C11.0688 6.92563 11.0585 6.90023 11.074 6.87485C11.0895 6.84946 11.1204 6.84437 11.141 6.85453C11.1926 6.87992 11.2493 6.90024 11.3008 6.92563C11.3369 6.94086 11.3729 6.96116 11.409 6.98147C11.4348 6.99671 11.4554 7.01194 11.476 7.03226C11.507 7.05764 11.5379 7.08812 11.5637 7.11859C11.5843 7.13382 11.5843 7.16428 11.5688 7.17952C11.5534 7.19983 11.5224 7.19982 11.507 7.18458C11.4657 7.15919 11.4245 7.1389 11.3833 7.11859C11.3575 7.10335 11.3317 7.08812 11.3008 7.07289C11.275 7.05765 11.2492 7.03734 11.2183 7.02211C11.1771 6.99164 11.1358 6.96625 11.0946 6.94086ZM13.7647 7.13382C13.7544 7.10843 13.7647 7.07796 13.7853 7.0678C13.8111 7.05765 13.842 7.06781 13.8523 7.08812C13.8729 7.12366 13.8987 7.15412 13.9193 7.18967C13.9348 7.21506 13.9451 7.23537 13.9605 7.26076C13.9657 7.276 13.9708 7.2963 13.9811 7.31153C13.9863 7.33692 13.9915 7.36231 14.0018 7.39278C14.0121 7.41309 14.0018 7.44356 13.976 7.44864C13.9554 7.4588 13.9244 7.44863 13.9193 7.42324C13.8987 7.39277 13.8781 7.37248 13.8626 7.34201C13.8523 7.3217 13.842 7.30646 13.8317 7.28615C13.8214 7.26583 13.8162 7.24553 13.8059 7.22521C13.7853 7.19475 13.775 7.16429 13.7647 7.13382ZM14.2698 5.0773C14.2544 5.05699 14.2543 5.02653 14.275 5.00622C14.2956 4.99099 14.3265 4.99097 14.3471 5.01129C14.3987 5.06714 14.4502 5.11793 14.5018 5.16871C14.5378 5.20426 14.5688 5.24487 14.5997 5.28549C14.6203 5.31088 14.641 5.34135 14.6513 5.37182C14.677 5.41752 14.6977 5.46322 14.7183 5.50892C14.7286 5.52923 14.7234 5.55969 14.6976 5.56985C14.677 5.58 14.6512 5.57493 14.6358 5.55461C14.5997 5.50384 14.5636 5.46322 14.5224 5.41752C14.4966 5.38705 14.4708 5.35659 14.4451 5.32612C14.4193 5.29566 14.3987 5.26011 14.3729 5.22964C14.342 5.17887 14.3059 5.12808 14.2698 5.0773ZM12.8935 4.25978C12.8678 4.2547 12.8471 4.22932 12.8575 4.19885C12.8626 4.17346 12.8884 4.15315 12.9142 4.1633C13.0173 4.17854 13.1152 4.20392 13.2131 4.23438C13.275 4.25469 13.342 4.2801 13.4038 4.31056C13.4657 4.34103 13.5276 4.37149 13.5843 4.41211C13.6667 4.46797 13.744 4.5289 13.8214 4.59999C13.842 4.61522 13.842 4.6457 13.8265 4.66093C13.8111 4.68124 13.7801 4.68123 13.7647 4.666C13.708 4.62538 13.6461 4.58983 13.5894 4.55429C13.5482 4.5289 13.5069 4.50858 13.4657 4.48827C13.4451 4.47812 13.4245 4.46796 13.4038 4.45781C13.3574 4.43242 13.3059 4.41212 13.2595 4.38673C13.141 4.34103 13.0224 4.29533 12.8935 4.25978ZM11.9451 5.34642C11.9193 5.33627 11.9039 5.31088 11.9142 5.28549C11.9245 5.2601 11.9503 5.24487 11.976 5.25503C12.0431 5.27534 12.1101 5.29565 12.1719 5.32104C12.2183 5.34135 12.2596 5.35658 12.3008 5.38197C12.342 5.40228 12.3832 5.42767 12.4193 5.45814C12.476 5.49876 12.5276 5.54953 12.574 5.60031C12.5946 5.61555 12.5946 5.64601 12.5791 5.66124C12.5637 5.68156 12.5327 5.68156 12.5173 5.66633C12.4812 5.64602 12.4503 5.62571 12.4142 5.6054C12.3781 5.58508 12.3472 5.56478 12.3111 5.54446C12.2956 5.53939 12.2853 5.52922 12.2699 5.51907C12.2389 5.49875 12.208 5.48353 12.1719 5.46322C12.1049 5.4226 12.0276 5.38197 11.9451 5.34642ZM13.1049 6.20965C13.0894 6.18427 13.0997 6.1538 13.1255 6.14364C13.1513 6.12841 13.1822 6.13857 13.1925 6.16396C13.2234 6.20966 13.2544 6.25027 13.2853 6.29597C13.3059 6.32644 13.3265 6.35691 13.342 6.38738C13.3523 6.40769 13.3626 6.43308 13.3729 6.45339C13.3884 6.48894 13.3987 6.5194 13.409 6.55494C13.4193 6.57525 13.4142 6.60572 13.3884 6.61587C13.3678 6.62603 13.3368 6.62096 13.3265 6.59557C13.3059 6.56511 13.2801 6.53971 13.2595 6.50924C13.2441 6.48893 13.2337 6.46862 13.2183 6.44831C13.2028 6.41785 13.1822 6.38738 13.1667 6.35183C13.1461 6.30613 13.1255 6.25536 13.1049 6.20965ZM25.0171 9.97737C24.5583 10.5969 23.8315 11.5718 23.0326 12.6483C22.4913 13.3744 21.914 14.1463 21.3625 14.8876C19.878 16.868 18.5635 18.6096 18.5635 18.6096C18.5223 18.6655 18.4502 18.6807 18.3883 18.6452C18.3883 18.6452 17.4708 18.1273 16.3883 17.2691C15.8059 16.8121 15.1719 16.2535 14.6049 15.6239C14.2956 15.2786 13.6925 15.0298 13.0224 14.8571C12.0997 14.6185 11.0379 14.5322 10.3678 14.5829C10.3678 14.588 10.3678 14.5982 10.3627 14.6083C10.3627 14.6185 10.3575 14.6287 10.3575 14.6388C11.4864 14.7708 12.4915 14.9485 13.3317 15.4208C13.9245 15.7559 14.4296 16.2332 14.8265 16.9391C15.2337 17.655 15.8213 18.173 16.4089 18.5436C17.3007 19.1073 18.1924 19.3307 18.4553 19.3866C18.7131 19.0717 19.9244 17.5941 21.28 15.954C23.1253 13.7248 25.2387 11.191 25.5789 10.7848L25.0171 9.97737ZM16.8832 2.97002C16.9089 2.41146 16.8471 1.8072 16.6151 1.34005C16.3987 0.903356 16.0275 0.588528 15.4244 0.558061C15.2647 0.552983 15.1049 0.552978 14.9451 0.568211C14.7853 0.583444 14.6255 0.608841 14.4708 0.639308C14.4193 0.649463 14.3626 0.66469 14.311 0.679923C14.1719 0.720546 14.043 0.766245 13.909 0.822101C13.8884 0.832257 13.8677 0.837344 13.8523 0.847499C13.6925 0.918589 13.5327 1.00491 13.3884 1.10139C12.8523 1.4416 12.409 1.85798 12.0121 2.32006C11.4091 3.02079 10.9193 3.82309 10.4142 4.60507C9.98638 5.26518 9.54311 5.91007 9.11528 6.56511C8.83693 7.0018 8.56372 7.44355 8.3163 7.90056C8.22867 8.06305 8.1359 8.22555 8.04312 8.38804C7.66684 9.02784 7.25962 9.64225 6.90396 10.2871C6.62045 10.8 6.34213 11.323 6.05347 11.846C6.00193 11.9374 5.95036 12.0339 5.89881 12.1253C5.7751 12.3436 5.6514 12.5671 5.51738 12.7803C5.45552 12.8819 5.39368 12.9834 5.33182 13.085L5.32666 13.0952C5.21842 13.2678 5.11017 13.4404 4.99676 13.608C4.90914 13.735 4.82153 13.867 4.72875 13.9939C4.67205 14.0752 4.61018 14.1564 4.55348 14.2326C4.46585 14.3443 4.37822 14.456 4.29059 14.5677C4.21328 14.6642 4.13598 14.7556 4.0535 14.847C3.77 15.172 3.44525 15.4665 3.09989 15.7356C2.75454 16.0047 2.38857 16.2434 2.01229 16.4516C1.86796 16.5328 1.71849 16.6191 1.56901 16.6902C1.46592 16.741 1.36283 16.7867 1.25459 16.8273C1.48654 16.873 1.71332 16.8883 1.94012 16.8781C2.16692 16.868 2.39372 16.8273 2.62052 16.7562C2.67722 16.741 2.73393 16.7207 2.78547 16.7004C2.86795 16.6699 2.95041 16.6395 3.03804 16.609C3.05866 16.5988 3.0896 16.5785 3.12053 16.5582C3.16177 16.5328 3.20299 16.5074 3.23392 16.5024C3.28031 16.4871 3.32153 16.4973 3.35246 16.5074C3.3937 16.5277 3.43496 16.5633 3.44527 16.6395C3.45043 16.6801 3.43495 16.7359 3.39887 16.7969C3.33701 16.8934 3.20814 17.0254 3.16691 17.066C3.01227 17.2386 2.84217 17.3859 2.65145 17.5179C2.51228 17.6144 2.36797 17.6956 2.21849 17.7667C2.36281 17.7566 2.50712 17.7464 2.65145 17.7261C2.87825 17.6956 3.10505 17.6499 3.32669 17.5941C3.96586 17.4316 4.53802 17.1726 5.01224 16.807C5.48646 16.4414 5.87306 15.9641 6.14625 15.3649C6.35243 14.913 6.55861 14.4763 6.75448 14.0447C6.79572 13.9584 6.83695 13.8721 6.87303 13.7807C6.93488 13.6486 6.99676 13.5115 7.05346 13.3795C7.08954 13.2983 7.12561 13.217 7.16684 13.1358C7.18231 13.1002 7.19778 13.0647 7.21325 13.0291C7.22871 12.9987 7.24415 12.9631 7.25446 12.9327C7.29054 12.8514 7.32663 12.7752 7.35756 12.694C7.41941 12.5467 7.48642 12.3995 7.54827 12.2472C7.58436 12.171 7.61528 12.0897 7.64621 12.0136C7.72353 11.8308 7.80085 11.6429 7.87817 11.455C8.46064 10.0078 10.1307 7.13889 11.8214 4.79294C12.7802 3.45748 13.7441 2.2896 14.5224 1.64472C14.7801 1.43145 15.0172 1.27404 15.2286 1.18264C15.3059 1.14709 15.3832 1.12171 15.4554 1.10647C15.4863 1.10139 15.5121 1.0963 15.543 1.09122C15.8316 1.06076 16.0688 1.18264 16.2492 1.37559C16.5172 1.66503 16.6615 2.10679 16.6924 2.36576C16.7595 2.57395 16.8265 2.7669 16.8832 2.97002ZM25.5222 11.1605C24.8676 11.9628 23.0841 14.1615 21.4913 16.1114C19.9656 17.9749 18.6151 19.61 18.6151 19.61C18.5842 19.6455 18.5378 19.6658 18.4862 19.6557C18.4862 19.6557 17.378 19.4576 16.2749 18.7518C15.6564 18.3608 15.043 17.8074 14.6203 17.0508C14.2492 16.3805 13.775 15.9286 13.2183 15.6137C12.4039 15.1466 11.4142 14.9689 10.306 14.8318C10.2957 14.8622 10.2854 14.8927 10.2751 14.9181C10.2441 14.9942 10.2183 15.0704 10.1977 15.1415C10.6359 15.2532 11.2492 15.2989 11.574 15.4817C11.8626 15.6442 12.1204 15.8422 12.3626 16.0555C12.909 16.548 13.3626 17.132 13.8987 17.6499C14.177 17.9191 14.4811 18.1374 14.7956 18.3304C15.2801 18.63 15.8007 18.8635 16.3368 19.092C16.8007 19.2951 17.2646 19.5033 17.7492 19.6557C18.0584 19.7572 18.378 19.8334 18.7079 19.8689C19.2543 19.1631 19.8058 18.4573 20.3625 17.7515C20.9295 17.0355 21.5068 16.3196 22.0841 15.6087C22.5274 15.0653 22.9965 14.5423 23.4501 14.0091C23.6408 13.7806 23.8315 13.5522 24.0171 13.3186C24.1666 13.1256 24.3212 12.9377 24.4707 12.7448C24.7026 12.4604 24.9294 12.1812 25.1614 11.8968C25.2542 11.7851 25.4036 11.648 25.517 11.5109C25.5634 11.4601 25.5995 11.4093 25.6201 11.3585C25.5737 11.3636 25.5428 11.2367 25.5222 11.1605ZM1.28551 14.1818C1.51231 14.2834 1.71849 14.3697 1.92467 14.4306C2.15663 14.4966 2.39888 14.5372 2.68238 14.5372C2.96072 14.5372 3.23906 14.5119 3.51225 14.4662C3.72359 14.4306 3.92978 14.39 4.13596 14.3392C4.19266 14.2681 4.25453 14.192 4.31123 14.1158C3.91949 14.2123 3.54835 14.2529 3.20299 14.258C2.38342 14.2732 1.72362 14.0955 1.35249 13.9635C1.35249 13.9838 1.34736 14.0041 1.34221 14.0244C1.33705 14.0548 1.32159 14.0802 1.31128 14.1107C1.30612 14.1361 1.29582 14.1615 1.28551 14.1818ZM7.13076 13.8264C7.41426 13.8771 7.78025 13.999 8.14622 14.1564C8.61528 14.3544 9.09981 14.6033 9.43486 14.7861C9.44517 14.6743 9.46579 14.5423 9.50187 14.4204C9.50702 14.4052 9.51216 14.3951 9.51732 14.3798C8.96062 13.8873 8.26475 13.5725 7.54311 13.4557C7.4658 13.4455 7.39363 13.4303 7.31631 13.4252C7.2493 13.5572 7.19261 13.6893 7.13076 13.8264ZM1.27003 12.9885C1.24942 13.1459 1.18757 13.674 1.18757 13.674C1.20819 13.6842 1.22881 13.6893 1.25459 13.6994C1.25974 13.6994 1.26487 13.6994 1.26487 13.6994C1.28034 13.7045 1.29581 13.7096 1.30612 13.7197C1.6257 13.8365 2.32156 14.0396 3.19783 14.0142C3.6205 13.999 4.07927 13.933 4.5638 13.7756C4.70297 13.5775 4.84213 13.3744 4.971 13.1713C4.53286 13.2678 4.09473 13.3744 3.65143 13.4404C3.41432 13.4709 3.18237 13.4912 2.9401 13.4912C2.73392 13.4912 2.40402 13.4049 2.06382 13.2932C1.78032 13.1967 1.49683 13.085 1.27003 12.9885ZM9.78536 14.9892C9.80598 14.9892 9.83175 14.9942 9.84722 15.0095C9.89361 15.0399 9.95031 15.0653 10.0122 15.0907C10.0379 14.9333 10.0998 14.7505 10.1101 14.5829C10.1153 14.5169 10.1101 14.4509 10.0843 14.3951C10.0637 14.3443 10.0173 14.3037 9.9606 14.2884C9.91936 14.2732 9.87298 14.2681 9.8369 14.3037C9.78535 14.3544 9.74412 14.4255 9.71319 14.5017C9.66165 14.6337 9.63072 14.7861 9.61525 14.8978C9.68742 14.9282 9.74413 14.9638 9.78536 14.9892ZM7.51219 12.9682C7.48642 13.0291 7.46066 13.0901 7.43489 13.1459C7.42973 13.1561 7.42456 13.1713 7.41941 13.1815C7.47611 13.1916 7.53281 13.2018 7.58436 13.2119C8.32146 13.3541 9.02765 13.6943 9.59465 14.2021C9.60496 14.1869 9.61527 14.1666 9.63073 14.1513C9.22868 13.5725 8.77507 13.2576 8.239 13.0952C8.00704 13.0342 7.76992 12.9936 7.51219 12.9682ZM16.2182 1.68025C16.1822 1.62439 16.1409 1.56854 16.0894 1.52284C16.0327 1.46191 15.9605 1.40605 15.8883 1.36543C16.012 1.46699 16.1203 1.56854 16.2182 1.68025ZM24.9861 8.86027C24.6459 9.40867 24.0789 10.216 23.4192 11.13C22.6666 12.171 21.7851 13.349 20.981 14.4103C19.6305 16.1875 18.4914 17.6499 18.4914 17.6499C18.4553 17.6956 18.3986 17.7109 18.3471 17.6906C18.3471 17.6906 17.6151 17.4316 16.6254 16.7156C16.1718 16.3856 15.6667 15.9641 15.1512 15.4259C14.3935 14.6337 13.7234 14.1006 12.9554 13.9025C12.2234 13.7146 11.409 13.8365 10.3524 14.3088C10.3575 14.3341 10.3678 14.3544 10.373 14.3798C11.0585 14.3291 12.141 14.4052 13.0843 14.6388C13.8059 14.8216 14.4502 15.0958 14.7853 15.4614C15.3471 16.0758 15.9708 16.6191 16.5481 17.066C17.4089 17.7363 18.1564 18.1933 18.4244 18.3507C18.7182 17.9597 19.8677 16.4262 21.1511 14.7251C21.7078 13.9888 22.2903 13.2221 22.8418 12.501C24.0531 10.9066 25.0995 9.53562 25.3315 9.23095C25.2799 9.18017 25.2026 9.10401 25.1304 9.02276C25.0737 8.97198 25.0222 8.91105 24.9861 8.86027ZM7.78024 12.3436C7.72354 12.4757 7.66683 12.6077 7.61013 12.7397C8.00187 12.7854 8.35238 12.8768 8.67196 13.0291C9.08948 13.2322 9.45547 13.5471 9.7802 14.0345C9.82659 14.0193 9.873 14.0091 9.91939 14.0091C9.56372 13.4557 9.0998 13.019 8.55858 12.6991C8.31631 12.5569 8.05343 12.435 7.78024 12.3436ZM5.57923 12.1659C5.05862 12.2269 4.54316 12.3335 4.02771 12.3792C3.38854 12.4401 2.73908 12.4452 2.10507 12.3792C1.77518 12.3436 1.45043 12.2878 1.13085 12.2015C1.09477 12.3284 1.00715 12.6635 1.00715 12.6635C1.19271 12.7397 1.66693 12.9276 2.13084 13.0748C2.44011 13.1713 2.74425 13.2475 2.92982 13.2424C3.15662 13.2373 3.38342 13.217 3.60506 13.1815C4.05866 13.1155 4.5071 12.9987 4.95555 12.8971C5.02256 12.8819 5.09471 12.8666 5.16171 12.8514C5.3112 12.628 5.44521 12.3995 5.57923 12.1659Z" fill="#133F24"/>
</svg>
