<svg width="14" height="26" viewBox="0 0 14 26" fill="none" xmlns="http://www.w3.org/2000/svg">
<path fill-rule="evenodd" clip-rule="evenodd" d="M0.223163 5.83769C0.217279 5.8139 0.217279 5.7901 0.223163 5.76631C0.276113 5.58192 0.323191 5.42727 0.382024 5.28451C0.429091 5.17149 0.476157 5.07038 0.529107 4.97521C0.611474 4.82055 0.705596 4.68374 0.811496 4.55288C0.946813 4.36849 1.0998 4.19005 1.27041 3.96996C1.27041 3.96402 1.2763 3.96402 1.2763 3.95807C1.42927 3.3692 1.58811 2.69706 1.85875 2.10819C2.0529 1.68587 2.29997 1.30518 2.64121 1.01967C3.17659 0.56761 3.85907 0.293993 4.57096 0.169082C5.27107 0.0441701 6.00645 0.0560669 6.66539 0.163134C6.93602 0.210719 7.20665 0.264253 7.4714 0.353475C7.73615 0.442698 7.99504 0.555714 8.23037 0.716314C8.63632 0.98993 8.94225 1.38251 9.17758 1.82862C9.51293 2.45318 9.70707 3.17291 9.89533 3.77962C9.90122 3.78557 9.90712 3.79152 9.913 3.79747C9.95418 3.83316 10.1719 3.99376 10.419 4.23168C10.5249 4.3328 10.6308 4.44582 10.7249 4.56478C10.7896 4.64806 10.8485 4.73133 10.9014 4.82055C10.9838 4.96331 11.0544 5.10606 11.0956 5.24882C11.1014 5.26667 11.1073 5.28451 11.1014 5.30235C11.125 5.33804 11.125 5.37968 11.1014 5.41537C11.072 5.46296 11.0073 5.4808 10.9544 5.45106C10.6425 5.26667 10.3248 5.09417 9.99537 4.92762C9.98949 5.15365 9.9954 5.36778 10.0248 5.58787C10.0601 5.86148 10.1365 6.12915 10.2601 6.39682C10.4189 6.72397 10.6602 7.02138 10.8249 7.34853C10.9014 7.50318 10.9602 7.66378 10.9955 7.83628C11.0426 8.10394 11.0132 8.36566 10.9426 8.62738C10.8602 8.95453 10.7132 9.28168 10.5955 9.60288C10.519 9.81107 10.4602 10.0193 10.4425 10.2215C10.4249 10.3999 10.4602 10.5605 10.5131 10.7211C10.6543 11.1435 10.9308 11.542 10.9544 12.0119C10.9602 12.1844 10.9308 12.339 10.8661 12.4877C10.7837 12.6959 10.6484 12.8922 10.5308 13.0885C10.4543 13.2789 10.3484 13.4692 10.3013 13.6774C10.2896 13.7369 10.2307 13.7726 10.1778 13.7607C10.119 13.7488 10.0837 13.6952 10.0954 13.6357C10.119 13.5287 10.1542 13.4216 10.1954 13.3205V13.3145C10.2189 13.2372 10.2542 13.1599 10.2895 13.0826C10.319 13.0112 10.3366 12.9339 10.3542 12.8625C10.3719 12.7673 10.3719 12.6721 10.3425 12.571C10.2778 12.3628 10.1542 12.1963 10.0189 12.0416C9.86596 11.8632 9.69534 11.6966 9.57179 11.5003C9.46001 11.3219 9.38354 11.1256 9.37178 10.8817C9.35413 10.5605 9.43055 10.2453 9.53057 9.94193C9.6247 9.65642 9.73064 9.37685 9.78947 9.09134C9.83654 8.86531 9.8483 8.63333 9.78358 8.3954C9.7424 8.25265 9.68944 8.10989 9.62472 7.97903C9.54236 8.27049 9.46002 8.5679 9.36 8.85341C9.24233 9.19841 9.11287 9.5434 8.96579 9.87055C8.87754 10.0668 8.77752 10.2631 8.66574 10.4535C8.57749 10.6022 8.48336 10.7449 8.37746 10.8817C8.29509 11.4706 8.2833 12.0535 8.4245 12.5889C8.57158 13.1361 8.88346 13.6298 9.44238 13.9986C10.0013 14.3674 10.6602 14.5577 11.2368 14.8849C11.4956 15.0336 11.7369 15.212 11.9428 15.444C12.1958 15.7295 12.4017 16.0507 12.5723 16.3897C12.8253 16.8894 13.0017 17.4366 13.1371 17.972C13.3842 18.9237 13.6136 19.8397 13.7666 20.7736C13.8666 21.3981 13.9372 22.0286 13.9548 22.6889C13.9666 23.2183 13.9784 23.8904 13.8901 24.515C13.8254 24.9551 13.7077 25.3715 13.5136 25.7105C13.4253 25.8652 13.2783 25.9425 13.0841 25.9306C12.7782 25.9187 12.3076 25.6689 11.7898 25.2644C10.9485 24.6101 9.94242 23.5573 9.25996 22.6353C9.15406 22.7543 9.05992 22.8852 8.96579 23.016C8.67162 23.4264 8.41868 23.8607 8.12451 24.2711C7.97155 24.4852 7.80092 24.7053 7.595 24.8837C7.44792 25.0086 7.28313 25.1098 7.10075 25.1693C7.05368 25.1871 6.99491 25.1811 6.94196 25.1574C6.86547 25.1276 6.77723 25.0384 6.72428 25.0027C6.55954 24.8897 6.39476 24.7767 6.23003 24.6637C6.15943 24.6101 6.08883 24.5566 6.01823 24.5031C5.62405 24.1819 5.20048 23.8785 4.80042 23.5513C4.52978 23.3313 4.26499 23.0993 4.02377 22.8435C3.88846 22.7008 3.71198 22.4926 3.60608 22.2784C3.55313 22.1714 3.51192 22.0584 3.50015 21.9513C3.49427 22.1059 3.48844 22.2665 3.48255 22.4212C3.45902 22.7483 3.42369 23.0755 3.37662 23.3967C3.30602 23.8785 3.21776 24.3544 3.14127 24.8362C3.13539 24.8956 3.08247 24.9373 3.02364 24.9254C2.9648 24.9135 2.9236 24.8659 2.92948 24.8064C2.98243 24.2413 3.05306 23.6822 3.10601 23.1171C3.11778 23.016 3.12361 22.9149 3.1295 22.8138C3.00006 22.8138 2.87068 22.8197 2.74125 22.8138C2.61181 22.8078 2.48236 22.7959 2.35293 22.7781C2.22349 22.7602 2.09404 22.7364 1.96461 22.7127C1.82341 22.6829 1.68811 22.6532 1.54691 22.6234C1.54103 22.7781 1.53513 22.9327 1.52925 23.0874C1.48806 23.9082 1.41157 24.7231 1.29979 25.544C1.2939 25.6035 1.24098 25.6451 1.18215 25.6332C1.12332 25.6273 1.08211 25.5737 1.088 25.5142C1.18213 24.6934 1.23511 23.8844 1.26452 23.0755C1.28806 22.2606 1.28806 21.4516 1.27041 20.6248C1.25865 19.8813 1.20568 19.0902 1.25275 18.3229C1.28805 17.7935 1.3704 17.276 1.53513 16.7823C1.66457 16.4016 1.87637 16.1161 2.12936 15.8842C2.42352 15.6105 2.7765 15.4083 3.13539 15.2061C3.47074 15.0157 3.80608 14.8254 4.08848 14.5637C4.52385 14.177 4.76512 13.7607 4.8769 13.3264C5.05929 12.6246 4.92391 11.8691 4.74741 11.0542C4.74741 11.0483 4.74741 11.0423 4.74741 11.0364C4.65328 10.9531 4.57094 10.8698 4.48269 10.7806C4.37679 10.6676 4.27676 10.5486 4.17675 10.4297C4.03555 10.5248 3.87086 10.6022 3.70612 10.6676C3.40019 10.7866 3.07661 10.8817 2.82362 11.0602C2.63536 11.191 2.49415 11.3814 2.45297 11.6728C2.41179 11.9762 2.55295 12.2379 2.7118 12.4877C2.89419 12.7733 3.11184 13.0528 3.20009 13.3621C3.27658 13.6298 3.26483 13.9213 3.07068 14.2484C3.04126 14.3019 2.97654 14.3138 2.92359 14.2841C2.87064 14.2544 2.85303 14.1889 2.88244 14.1413C2.98246 13.9569 3.02362 13.7963 3.01186 13.6417C2.91772 13.4632 2.80008 13.3086 2.66476 13.1718C2.30588 12.7971 1.85282 12.5294 1.52336 12.0892C1.34097 11.8453 1.19978 11.5479 1.16448 11.2386V11.2327C1.04093 10.9055 0.970332 10.5486 1.0174 10.2155C1.0174 10.2096 1.0174 10.2036 1.0174 10.1977C1.00563 10.1799 0.993842 10.162 0.993842 10.1382C0.964426 9.88839 0.999728 9.65047 1.07033 9.42444C1.14681 9.16867 1.25866 8.92479 1.35868 8.68092C1.45281 8.45489 1.53516 8.22291 1.55869 7.97308C1.57634 7.78869 1.55277 7.61025 1.51747 7.43775C1.42333 6.98569 1.22334 6.56337 1.18804 6.09346C1.17039 5.83174 1.21153 5.58787 1.2939 5.35589C1.31743 5.29641 1.33508 5.24287 1.3645 5.18934C1.02326 5.40347 0.693852 5.6414 0.393802 5.90907C0.346736 5.95071 0.270235 5.94476 0.229052 5.89717C0.234935 5.88528 0.223163 5.86148 0.223163 5.83769ZM1.47043 4.07703C1.46454 4.08298 1.46453 4.09488 1.45865 4.10082C1.31157 4.33875 1.18217 4.52909 1.05273 4.72538C0.964483 4.85624 0.882085 4.99305 0.799718 5.12986C0.746768 5.22503 0.687912 5.3202 0.629078 5.42727C0.958545 5.16555 1.30567 4.93357 1.66455 4.72538C1.68808 4.69564 1.71751 4.6778 1.74693 4.6778C2.31761 4.3566 2.92363 4.10677 3.55315 3.92238C4.28268 3.70824 5.0416 3.58928 5.80055 3.57144C6.30652 3.55954 6.81834 3.60118 7.31843 3.68445C7.98913 3.80342 8.64222 4.01755 9.27174 4.29711C9.48354 4.39228 9.6953 4.4934 9.90122 4.59452C9.92476 4.60047 9.94828 4.61237 9.96593 4.63021C10.2189 4.76107 10.466 4.90383 10.7072 5.04658C10.6661 4.999 10.6308 4.94546 10.5837 4.89788C10.5308 4.83245 10.4778 4.77297 10.4248 4.70754C10.3719 4.64211 10.313 4.57668 10.2601 4.5172C10.0071 4.22574 9.77184 3.9997 9.73654 3.95807C9.72478 3.94617 9.71887 3.93428 9.71299 3.92238C9.7071 3.91643 9.70121 3.90453 9.70121 3.89264C9.50117 3.29782 9.28346 2.57214 8.93635 1.95353C8.71278 1.55501 8.43038 1.20406 8.05973 0.960189C7.84205 0.817433 7.61265 0.716314 7.37143 0.644936C7.12433 0.567609 6.87132 0.514076 6.61246 0.472439C5.98294 0.37132 5.2887 0.359424 4.618 0.472439C3.95906 0.585455 3.3237 0.823381 2.81773 1.23975C2.50592 1.49552 2.27648 1.84052 2.09409 2.2212C1.81758 2.79817 1.65283 3.45247 1.49398 4.02945C1.4881 4.04729 1.48219 4.05919 1.47043 4.07703ZM10.5896 12.5056C10.6072 12.4699 10.619 12.4283 10.6366 12.3926C10.6778 12.2736 10.7014 12.1546 10.6896 12.0238C10.672 11.8097 10.5955 11.6193 10.5131 11.4349C10.419 11.2267 10.3072 11.0304 10.2307 10.8163C10.1601 10.62 10.1189 10.4178 10.1307 10.1918C10.1483 9.95977 10.2131 9.72185 10.2954 9.48987C10.4072 9.17461 10.5543 8.85936 10.6425 8.53816C10.7014 8.31808 10.7308 8.098 10.6955 7.87791C10.672 7.73516 10.6249 7.59835 10.5602 7.46749C10.4013 7.13439 10.1601 6.83103 10.013 6.49794C9.88361 6.20648 9.80711 5.90907 9.7718 5.60571C9.74239 5.34399 9.74238 5.07632 9.76003 4.80271C9.56588 4.70754 9.36584 4.62426 9.1658 4.54099C9.11874 4.52314 9.06579 4.49935 9.01872 4.48151L9.01283 4.48746C8.97165 4.84435 8.98343 5.24882 9.0305 5.6533C9.08933 6.08751 9.19527 6.52173 9.36 6.86078C9.51885 7.19387 9.73649 7.50318 9.90122 7.83628C9.97771 7.98498 10.0425 8.14558 10.0895 8.30618C10.1719 8.59169 10.1601 8.87126 10.1072 9.15082C10.0484 9.44823 9.93065 9.73969 9.83651 10.0311C9.74826 10.3048 9.66588 10.5784 9.67765 10.8639C9.68354 11.0542 9.74237 11.2029 9.82474 11.3397C9.93652 11.5241 10.0895 11.6847 10.2307 11.8572C10.3837 12.0416 10.519 12.2439 10.5896 12.4937C10.5896 12.4937 10.5896 12.4996 10.5896 12.5056ZM9.49531 7.70542C9.35999 7.46154 9.21877 7.22956 9.10699 6.97974C8.94225 6.61095 8.83051 6.15294 8.77756 5.68304C8.75991 5.49864 8.74811 5.31425 8.74222 5.12986C8.59514 5.42727 8.4128 5.70088 8.19511 5.94476C7.82446 6.36113 7.3479 6.66449 6.7831 6.7775C6.31243 6.87267 5.71229 6.81914 5.20044 6.94405C4.89451 7.01543 4.61804 7.15819 4.44154 7.46154C4.40036 7.53292 4.38854 7.62214 4.39443 7.71136C4.40031 7.87791 4.45328 8.05041 4.48269 8.19317C4.55918 8.53816 4.70629 8.8891 4.73571 9.24004C4.75924 9.50176 4.72982 9.76348 4.58862 10.0133C4.52979 10.1144 4.45913 10.2036 4.38265 10.281C4.47678 10.394 4.57681 10.507 4.68271 10.6081C4.81214 10.733 4.9416 10.852 5.0828 10.9591C5.55347 11.316 6.10651 11.5003 6.63601 11.4885C7.16551 11.4706 7.67731 11.2565 8.05385 10.7866C8.18328 10.6319 8.301 10.4594 8.4069 10.2869C8.51869 10.1085 8.61283 9.92408 8.70696 9.73969C8.85993 9.42444 9.0011 9.09729 9.12465 8.75824C9.2482 8.42514 9.36585 8.08015 9.47175 7.74705C9.47763 7.72921 9.48354 7.71731 9.49531 7.70542ZM8.13622 11.1673C7.71262 11.5836 7.18317 11.7799 6.6419 11.7859C6.10064 11.7918 5.54168 11.6074 5.05925 11.2684C5.2181 12.0238 5.31814 12.7316 5.15929 13.3919C5.12399 13.5346 5.07692 13.6774 5.01221 13.8201C5.35932 14.1354 5.73587 14.3317 6.13005 14.4447C6.41245 14.522 6.69483 14.5518 6.98311 14.5399C7.27139 14.5339 7.55377 14.4804 7.84205 14.4031C8.21859 14.296 8.59512 14.1354 8.94812 13.9153C8.55982 13.5465 8.33037 13.1123 8.20682 12.6364C8.09503 12.1784 8.08327 11.6788 8.13622 11.1673ZM9.14232 22.4569C9.10702 22.4034 9.07169 22.3558 9.03639 22.3082C8.7834 21.9394 8.19509 20.8747 7.65971 20.0955C7.40084 19.7148 7.15372 19.4055 6.97133 19.2925C6.78306 19.1794 6.49476 19.001 6.21825 18.7869C5.98291 19.0724 5.7535 19.3638 5.51816 19.6493C5.14751 20.1193 4.77686 20.5892 4.40621 21.0591L3.93551 21.6658C3.91198 21.6955 3.82374 21.8026 3.8002 21.8204C3.79432 21.9275 3.82963 22.0346 3.88258 22.1416C3.97671 22.332 4.13557 22.5045 4.25323 22.6294C4.42973 22.8078 4.61804 22.9803 4.8063 23.1409C5.2652 23.5276 5.75935 23.8785 6.21825 24.2532C6.28296 24.3068 6.34773 24.3544 6.41244 24.4079C6.57129 24.5268 6.736 24.6339 6.90073 24.7529C6.93015 24.7707 6.97726 24.848 7.01844 24.8778C7.01844 24.8778 7.02427 24.8778 7.03015 24.8718C7.17135 24.8243 7.3008 24.7469 7.41847 24.6518C7.61262 24.4971 7.77146 24.2949 7.91854 24.0986C8.22447 23.7001 8.48333 23.2658 8.78926 22.8673C8.90693 22.7305 9.01877 22.5877 9.14232 22.4569ZM6.04179 18.6322C5.90647 18.5192 5.78294 18.3943 5.6888 18.2694C5.68292 18.2694 5.67702 18.2634 5.67114 18.2634C5.67114 18.2634 5.15925 17.9601 4.8239 17.6864C4.70035 17.5853 4.60625 17.4902 4.55918 17.4128C4.52388 17.3593 4.51214 17.3117 4.51214 17.2701C4.51214 17.2225 4.52976 17.1809 4.55329 17.1571C4.58859 17.1214 4.64746 17.0916 4.73571 17.0976C4.81807 17.1035 4.95339 17.1511 5.10047 17.2165C4.95927 17.0738 4.82394 16.9251 4.71804 16.8002C4.60037 16.6634 4.51801 16.5444 4.50036 16.479C4.47683 16.4016 4.50031 16.3422 4.52384 16.3065C4.54738 16.2767 4.5886 16.2529 4.64155 16.247C4.68274 16.247 4.75922 16.2648 4.86512 16.3243C4.93572 16.366 5.02983 16.4254 5.13573 16.4968C5.07102 16.4135 5.01216 16.3362 4.96509 16.2589C4.86508 16.1102 4.8004 15.9853 4.78275 15.902C4.75921 15.7949 4.7945 15.7176 4.84157 15.676C4.89452 15.6284 4.95921 15.6046 5.04158 15.6105C5.13571 15.6165 5.27104 15.6879 5.41812 15.8068C5.45931 15.8425 5.50054 15.8782 5.54172 15.9198C5.51819 15.8544 5.4946 15.7949 5.48872 15.7473C5.46519 15.6165 5.51227 15.5273 5.57698 15.4856C5.64758 15.438 5.72997 15.4261 5.81822 15.4559C5.90059 15.4797 6.00059 15.5511 6.09472 15.6641C6.33005 15.9258 6.6007 16.4195 6.77132 16.7228C6.79485 16.7585 6.81838 16.8002 6.84192 16.8359C6.8478 16.824 6.84781 16.8121 6.85369 16.8002C6.90664 16.6277 6.93017 16.3719 6.99489 16.1875C7.03019 16.0804 7.08314 15.9912 7.14786 15.9377C7.19493 15.896 7.24198 15.8901 7.28317 15.8901C7.32435 15.8901 7.37139 15.9079 7.40669 15.9496C7.43611 15.9853 7.46553 16.0507 7.48907 16.1459C7.51848 16.2827 7.54204 16.5087 7.58322 16.7764C7.71266 16.6098 7.84793 16.4492 7.98325 16.2886C8.09503 16.1578 8.20687 16.0269 8.33042 15.902C8.36572 15.8663 8.47161 15.7176 8.5481 15.6403C8.60693 15.5867 8.65988 15.563 8.69518 15.557C8.83638 15.5451 8.97756 15.5808 9.11876 15.6462C9.30115 15.7354 9.46591 15.8723 9.58946 15.9853C9.64241 16.0329 9.68948 16.0745 9.73654 16.1221C9.74831 16.1102 9.76004 16.0923 9.77769 16.0804C9.83064 16.021 9.88361 15.9674 9.94244 15.9258C9.95421 15.9139 10.0189 15.8723 10.1013 15.9198C10.1131 15.9258 10.1307 15.9377 10.1601 15.9615C10.2484 16.0269 10.4248 16.1697 10.6307 16.3422C11.0426 16.6931 11.578 17.1809 11.7663 17.4485C11.778 17.4664 11.831 17.5437 11.7604 17.6389C11.7486 17.6567 11.7251 17.6864 11.6898 17.7221C11.6427 17.7757 11.578 17.8411 11.5074 17.9184C11.7075 18.0969 11.9074 18.2753 12.1075 18.4597C12.1722 18.5192 12.3017 18.6144 12.3899 18.7155C12.4546 18.7928 12.4958 18.8701 12.5017 18.9356C12.5193 19.0962 12.4781 19.2568 12.4075 19.4114C12.3134 19.6137 12.1663 19.804 12.031 19.9527C11.9016 20.0955 11.7722 20.2382 11.6427 20.375C11.3721 20.6605 11.0897 20.9342 10.8249 21.2256C10.9014 21.3029 10.9661 21.3684 11.0191 21.4219C11.172 21.5885 11.3191 21.755 11.4544 21.9215C11.4485 21.8859 11.4426 21.8561 11.4368 21.8204C11.4191 21.7074 11.3956 21.6003 11.3897 21.4873C11.3838 21.41 11.3779 21.3386 11.3779 21.2613C11.3779 21.1483 11.3838 21.0353 11.3897 20.9163C11.3897 20.8568 11.4309 20.8092 11.4898 20.8033C11.5486 20.8033 11.5956 20.8449 11.6015 20.9044C11.625 21.0412 11.6545 21.1721 11.678 21.3089C11.6957 21.3981 11.7075 21.4933 11.7192 21.5825C11.731 21.6777 11.7368 21.7669 11.7427 21.8621C11.7545 22.0048 11.7604 22.1416 11.7604 22.2844C11.7604 22.2963 11.7604 22.3022 11.7604 22.3141C11.7839 22.3439 11.8015 22.3677 11.8192 22.3974C11.9604 22.3736 12.1016 22.3439 12.2487 22.3201C12.3546 22.3022 12.4664 22.2844 12.5782 22.2725C12.7429 22.2546 12.9076 22.2368 13.0723 22.2249C13.2606 22.2071 13.443 22.2011 13.6313 22.1892C13.6019 21.7253 13.543 21.2673 13.4724 20.8211C13.3195 19.8992 13.1018 18.9891 12.8606 18.0433C12.7311 17.5258 12.5664 17.0024 12.331 16.5206C12.1722 16.1994 11.9839 15.902 11.7486 15.6343C11.5662 15.4261 11.3486 15.2596 11.1132 15.1228C10.5425 14.7837 9.87769 14.5875 9.31878 14.2068C9.25406 14.1592 9.18937 14.1116 9.12465 14.064C8.754 14.3376 8.35392 14.5577 7.93621 14.6945C7.63027 14.7956 7.31259 14.8551 6.99489 14.8611C6.6713 14.867 6.35361 14.8254 6.04768 14.7243C5.64173 14.5934 5.25339 14.3733 4.90628 14.0402C4.76508 14.29 4.57092 14.5399 4.31205 14.7778C3.72372 15.3191 2.92951 15.5867 2.37059 16.1102C2.15291 16.3124 1.97054 16.5622 1.86464 16.8894C1.70579 17.3534 1.63514 17.847 1.59984 18.3467C1.54689 19.1081 1.59396 19.8873 1.59984 20.6248C1.60573 21.2137 1.59983 21.7907 1.58218 22.3736C1.77044 22.3974 1.95876 22.4152 2.15291 22.439C2.30588 22.4569 2.45879 22.4688 2.61176 22.4926C2.71178 22.5045 2.8118 22.5223 2.9177 22.5342C3.00595 22.5461 3.09425 22.5639 3.1825 22.5758C3.18838 22.5164 3.18839 22.4628 3.19428 22.4034C3.21193 22.1178 3.21777 21.8323 3.22954 21.5468C3.24131 21.1185 3.25311 20.6843 3.27076 20.2561C3.28253 19.9468 3.30016 19.6374 3.32958 19.3281C3.33546 19.2627 3.38839 19.2151 3.45311 19.2211C3.51783 19.227 3.56492 19.2806 3.55904 19.346C3.54727 19.5482 3.54137 19.7505 3.53548 19.9587C3.52372 20.4524 3.53548 20.9401 3.52959 21.4338C3.52959 21.5349 3.52959 21.636 3.52959 21.7372C3.53548 21.7134 3.54721 21.6836 3.57075 21.6539C3.61193 21.5884 3.6943 21.5111 3.72372 21.4754L4.20619 20.8747C4.51801 20.4821 4.82981 20.0955 5.14751 19.7088C5.4358 19.3519 5.73586 18.9891 6.04179 18.6322ZM5.68292 17.9898C5.72998 17.9779 5.77703 17.9958 5.80644 18.0374C5.91823 18.2039 6.08298 18.3586 6.26536 18.5013C6.56541 18.7452 6.90072 18.9475 7.10664 19.0724C7.31255 19.1973 7.5891 19.5304 7.87739 19.9408C8.41866 20.7141 9.01287 21.7728 9.27174 22.1416C9.83654 22.9565 10.7308 23.9439 11.5604 24.6577C12.0369 25.0741 12.4899 25.3953 12.837 25.538C12.9429 25.5797 13.0371 25.6094 13.1136 25.6094C13.1783 25.6094 13.2371 25.5975 13.2665 25.538C13.443 25.2287 13.543 24.848 13.596 24.4495C13.6842 23.8428 13.6666 23.1945 13.6548 22.677C13.6548 22.5937 13.6489 22.5104 13.643 22.4271C13.4665 22.4569 13.2842 22.4866 13.1077 22.5104C12.9429 22.5342 12.7782 22.558 12.6134 22.5699C12.5016 22.5818 12.3899 22.5877 12.284 22.5877C12.184 22.5937 12.084 22.5937 11.9839 22.5937C12.1781 22.8792 12.3546 23.1766 12.5193 23.5038C12.5488 23.5573 12.5252 23.6227 12.4781 23.6465C12.4311 23.6703 12.3605 23.6525 12.3369 23.6049C12.1251 23.2301 11.8898 22.8911 11.6368 22.5639C11.3839 22.2368 11.1073 21.9334 10.8014 21.6241C10.619 21.4338 10.2895 21.1126 9.91889 20.7438C9.49529 20.3215 9.01287 19.8278 8.61281 19.3876C8.18921 18.9296 7.85387 18.5311 7.74797 18.3289C7.74209 18.311 7.73619 18.2991 7.73619 18.2813C7.57734 17.8827 7.48319 17.4842 7.41847 17.1273C7.34787 16.7407 7.31256 16.4135 7.2655 16.2173C7.25373 16.2589 7.242 16.3065 7.23024 16.3541C7.18905 16.5385 7.16548 16.7526 7.11841 16.8953C7.06546 17.0381 6.98314 17.1273 6.87136 17.1452C6.84194 17.1511 6.79482 17.1511 6.74187 17.1095C6.71246 17.0857 6.66541 17.0262 6.61246 16.937C6.44184 16.6634 6.13002 16.0745 5.87115 15.8128C5.86527 15.8068 5.85348 15.7949 5.84759 15.789C5.85348 15.8128 5.86527 15.8366 5.87704 15.8604C6.05354 16.241 6.46537 16.8359 6.60657 17.0559C6.64775 17.1154 6.67128 17.1571 6.67128 17.169C6.71834 17.282 6.63599 17.3474 6.61246 17.3652C6.59481 17.3771 6.50658 17.4307 6.41244 17.3415C6.40068 17.3296 6.37715 17.3058 6.34185 17.2582C6.183 17.0619 5.92412 16.7407 5.66525 16.4611C5.50051 16.2827 5.34164 16.1161 5.20044 16.0091C5.47108 16.4373 6.13594 17.1571 6.28303 17.3117C6.27126 17.3117 6.25947 17.3117 6.25358 17.3117C6.27712 17.3296 6.28885 17.3415 6.29473 17.3355V17.3296C6.3065 17.3415 6.3124 17.3474 6.3124 17.3474C6.34182 17.3771 6.34774 17.395 6.35362 17.4009C6.39481 17.4842 6.3536 17.5437 6.32418 17.5734C6.30065 17.5972 6.25948 17.627 6.19476 17.6151C6.18888 17.6151 6.15947 17.6091 6.12417 17.5853C6.10652 17.5734 6.05357 17.5318 5.97708 17.4723C5.7947 17.3296 5.47113 17.0738 5.18285 16.8597C5.41818 17.1154 5.68881 17.389 5.84178 17.5437C5.88884 17.5913 5.92999 17.627 5.94764 17.6448L5.95353 17.6508C6.07119 17.7519 5.87114 17.8887 5.85937 17.8887C5.85937 17.8887 5.82996 17.8887 5.79466 17.8649C5.78878 17.8649 5.78877 17.8589 5.78289 17.8589C5.76524 17.847 5.72998 17.8233 5.68292 17.7935C5.50053 17.6864 5.14166 17.4723 4.88868 17.3712C4.94751 17.4307 5.02399 17.4961 5.10636 17.5615C5.30051 17.7459 5.5476 17.9065 5.68292 17.9898ZM2.64121 12.803C2.60002 12.7435 2.55887 12.69 2.52357 12.6305C2.32353 12.3271 2.15877 12.0119 2.19995 11.6372C2.24114 11.2446 2.42944 11.0007 2.67654 10.8163C2.94129 10.626 3.28839 10.513 3.61197 10.3761C3.90025 10.2572 4.17086 10.1204 4.31794 9.85271C4.42384 9.65642 4.44152 9.46013 4.42387 9.25789C4.39446 8.91884 4.25324 8.5798 4.18264 8.2467C4.14734 8.09205 4.09437 7.89576 4.08848 7.70542C4.0826 7.55076 4.10615 7.40801 4.18264 7.2831C4.35325 6.99758 4.58861 6.82509 4.86512 6.71802C5.15929 6.605 5.49465 6.56932 5.83 6.55147C6.1477 6.53363 6.46536 6.53363 6.74187 6.48604C7.24784 6.39087 7.67734 6.11725 8.01269 5.75442C8.27156 5.4808 8.47751 5.1477 8.63047 4.80271C8.39514 4.98115 8.13035 5.15365 7.85972 5.29046C7.54202 5.45106 7.21256 5.57002 6.90662 5.60571C6.35947 5.67114 5.7947 5.63545 5.24755 5.69493C4.90632 5.73657 4.57093 5.8139 4.25323 5.99829C4.18852 6.03993 4.12383 6.08156 4.05911 6.12915C4.00028 6.17674 3.94142 6.22432 3.88847 6.27785C3.68844 6.48604 3.61196 6.71207 3.60019 6.95C3.58254 7.2593 3.67077 7.5805 3.72961 7.90171C3.79432 8.2586 3.83551 8.62143 3.7355 8.96643C3.6649 9.19841 3.54725 9.36496 3.3884 9.49582C3.1766 9.67426 2.90006 9.78133 2.62943 9.90029C2.38821 10.0074 2.12348 10.1442 1.91168 10.3226C1.77048 10.4356 1.65284 10.5724 1.57047 10.7211C1.47045 10.9115 1.45869 11.1197 1.49987 11.3219C1.54694 11.536 1.64694 11.7383 1.77637 11.9167C2.01171 12.2855 2.34116 12.5294 2.64121 12.803ZM1.2763 10.6676C1.28219 10.6498 1.2939 10.6319 1.29979 10.6141C1.39392 10.4237 1.53516 10.2572 1.70577 10.1144C1.94111 9.91219 2.22937 9.75753 2.49412 9.63857C2.73534 9.5315 2.98834 9.43633 3.17661 9.27573C3.28839 9.18056 3.37071 9.0616 3.42366 8.901C3.51191 8.59764 3.47079 8.28834 3.41196 7.98498C3.34724 7.63404 3.26482 7.28904 3.28247 6.95595C3.30012 6.65259 3.40015 6.36113 3.6649 6.08751C3.72962 6.02208 3.8002 5.9626 3.8708 5.90907C3.9414 5.85553 4.01789 5.80795 4.09437 5.76036C4.35912 5.60571 4.63566 5.52244 4.92394 5.4689C5.55934 5.35589 6.22419 5.43321 6.87136 5.36184C7.21848 5.32615 7.59499 5.17149 7.94799 4.97521C8.25392 4.80271 8.54222 4.60047 8.77756 4.39823C8.54222 4.31496 8.30684 4.23763 8.06562 4.1722C7.52436 4.56478 6.86545 4.70754 6.18298 4.79676C5.50052 4.88003 4.78866 4.90383 4.15326 5.06443C3.612 5.20124 3.12361 5.43916 2.75884 5.91502C2.64118 6.06967 2.57647 6.23027 2.54705 6.39682C2.47645 6.7656 2.55881 7.15818 2.61176 7.55076C2.66471 7.98498 2.68238 8.4192 2.48234 8.82367C2.41763 8.95453 2.32942 9.06755 2.2294 9.16272C2.02348 9.35901 1.75873 9.50176 1.56458 9.7159C1.36455 9.93003 1.28807 10.1799 1.2763 10.4416C1.26454 10.507 1.27042 10.5843 1.2763 10.6676ZM1.31157 9.57314C1.32333 9.5553 1.34103 9.53745 1.35868 9.51961C1.55283 9.29953 1.81758 9.15082 2.01761 8.94264C2.09409 8.86531 2.15878 8.78204 2.20584 8.68092C2.37058 8.32997 2.34117 7.94929 2.28822 7.57456C2.22939 7.14629 2.14703 6.71802 2.22351 6.31949C2.26469 6.10536 2.34704 5.89717 2.50001 5.70088C2.77653 5.34399 3.11191 5.10012 3.48844 4.93952C4.19444 4.63616 5.02982 4.60642 5.85348 4.53504C6.52418 4.47556 7.18317 4.39228 7.74208 4.07703C7.58323 4.04134 7.43024 4.0116 7.27139 3.98781C6.78895 3.91048 6.30065 3.87479 5.81233 3.88669C5.0828 3.89859 4.34734 4.00565 3.64134 4.20194C3.00006 4.38039 2.38238 4.63021 1.79993 4.95141C1.70579 5.11201 1.62342 5.27261 1.57047 5.44511C1.50575 5.6414 1.47634 5.84959 1.49987 6.06967C1.54694 6.52768 1.75872 6.93215 1.85286 7.37232C1.89992 7.57456 1.91755 7.78274 1.8999 8.00283C1.87637 8.22886 1.80581 8.44299 1.72344 8.65118C1.59989 8.93669 1.44691 9.21625 1.34101 9.50771C1.32924 9.53745 1.32333 9.5553 1.31157 9.57314ZM6.26536 17.3296C6.27124 17.3296 6.27714 17.3355 6.27714 17.3415C6.27126 17.3355 6.26536 17.3355 6.26536 17.3296ZM7.61848 17.0678C7.67732 17.4128 7.75974 17.8054 7.90094 18.198C7.91271 18.2099 7.92443 18.2218 7.93032 18.2337C8.0421 18.43 8.37743 18.7928 8.78926 19.2151C9.2011 19.6375 9.6953 20.1133 10.1189 20.5356C10.3189 20.7319 10.5013 20.9163 10.6602 21.071C10.9544 20.726 11.2662 20.3988 11.5663 20.0598C11.6486 19.9646 11.7309 19.8694 11.8133 19.7743C11.9251 19.6434 12.0545 19.4709 12.131 19.2925C12.1781 19.1854 12.2016 19.0783 12.1898 18.9713C12.1898 18.9713 12.1722 18.9475 12.1605 18.9356C12.1369 18.9118 12.1134 18.882 12.084 18.8582C12.0134 18.7928 11.931 18.7333 11.8839 18.6917C11.6839 18.5132 11.478 18.3348 11.278 18.1504C11.1485 18.2872 11.0426 18.4002 11.0426 18.4002C11.0132 18.43 10.9779 18.4478 10.9367 18.4478C10.8955 18.4478 10.8544 18.4359 10.8249 18.4062L9.25996 16.8597H9.25407C9.23054 16.8418 9.21292 16.8121 9.21292 16.7823C9.21292 16.7526 9.22465 16.7228 9.24818 16.705V16.6991C9.35408 16.592 9.4541 16.473 9.54235 16.3541C9.4894 16.3005 9.43643 16.247 9.3776 16.1994C9.2717 16.1042 9.13054 15.9793 8.97757 15.896C8.8952 15.8544 8.81281 15.8247 8.73044 15.8247C8.69514 15.8604 8.53628 16.0448 8.50098 16.0804C8.38332 16.1994 8.27156 16.3243 8.15978 16.4492C7.98916 16.6396 7.82445 16.8359 7.6656 17.0321C7.65971 17.05 7.64202 17.0619 7.61848 17.0678ZM11.278 17.7043C11.3368 17.6389 11.3898 17.5794 11.4309 17.5318C11.1368 17.169 10.4308 16.5444 10.1072 16.2708C10.0778 16.241 10.0484 16.2232 10.0248 16.1994C10.0072 16.2173 9.98358 16.2351 9.96593 16.2589C9.95416 16.2767 9.93654 16.2886 9.92478 16.3065C9.96596 16.3481 10.0012 16.3838 10.0424 16.4254C10.3778 16.7704 10.6896 17.1333 11.0308 17.4723C11.1132 17.5496 11.1956 17.627 11.278 17.7043ZM9.73065 16.5325C9.66005 16.6217 9.58356 16.7109 9.50119 16.7883C9.6777 16.9429 9.96009 17.1928 10.2307 17.4426C10.5072 17.6924 10.7778 17.9422 10.9308 18.079C10.9661 18.0374 11.0132 17.9898 11.0603 17.9422C10.972 17.8589 10.8896 17.7816 10.8073 17.6924C10.466 17.3474 10.1542 16.9786 9.82474 16.6277C9.78944 16.5979 9.76007 16.5682 9.73065 16.5325ZM11.4603 17.5021C11.4839 17.4783 11.5074 17.4604 11.4957 17.4545C11.4604 17.4307 11.4544 17.4604 11.4603 17.5021ZM4.67682 16.5325C4.65328 16.5147 4.63566 16.5147 4.62978 16.5266C4.62389 16.5622 4.65328 16.5503 4.67682 16.5325ZM5.73585 15.7354C5.72996 15.7295 5.72407 15.7295 5.72407 15.7354C5.72407 15.7414 5.72996 15.7414 5.73585 15.7354Z" fill="#133F24"/>
</svg>
