<svg width="21" height="18" viewBox="0 0 21 18" fill="none" xmlns="http://www.w3.org/2000/svg">
<path fill-rule="evenodd" clip-rule="evenodd" d="M7.5638 1.98404C6.7221 1.53583 5.7511 1.3931 4.81602 1.58011C3.88094 1.76713 3.03954 2.27235 2.43496 3.0098C1.83039 3.74726 1.5 4.67141 1.5 5.62501C1.5 8.46731 3.61647 11.1802 5.93922 13.2707C7.07792 14.2955 8.22003 15.1296 9.07905 15.708C9.50783 15.9967 9.86427 16.2205 10.1121 16.3713C10.1164 16.3739 10.1207 16.3766 10.125 16.3792C10.1293 16.3766 10.1336 16.3739 10.1379 16.3713C10.3857 16.2205 10.7422 15.9967 11.171 15.708C12.03 15.1296 13.1721 14.2955 14.3108 13.2707C16.6335 11.1802 18.75 8.46731 18.75 5.62501C18.75 4.67141 18.4196 3.74726 17.815 3.0098C17.2105 2.27235 16.3691 1.76713 15.434 1.58011C14.4989 1.3931 13.5279 1.53583 12.6862 1.98404C11.8445 2.43224 11.1841 3.15822 10.8173 4.03847L10.125 5L9.43269 4.03847C9.06592 3.15822 8.40551 2.43224 7.5638 1.98404ZM10.125 2.25C9.63362 1.59484 9.0016 1.05025 8.26882 0.660047C7.12104 0.0488604 5.79696 -0.14578 4.52185 0.109242C3.24674 0.364265 2.09937 1.0532 1.27495 2.05882C0.450535 3.06445 0 4.32465 0 5.62501C0 9.15771 2.57103 12.2573 4.93578 14.3856C6.14083 15.4702 7.34247 16.347 8.24126 16.9522C8.69139 17.2553 9.06737 17.4915 9.33227 17.6527C9.46476 17.7333 9.56958 17.7952 9.64213 17.8375C9.67841 17.8587 9.70664 17.8749 9.72623 17.8861L9.74907 17.8991L9.75551 17.9027L9.75746 17.9038C9.75746 17.9038 9.75855 17.9044 10.125 17.25L9.75855 17.9044C9.98621 18.0319 10.2638 18.0319 10.4915 17.9044L10.125 17.25C10.4915 17.9044 10.4915 17.9044 10.4915 17.9044L10.4925 17.9038L10.4945 17.9027L10.5009 17.8991L10.5238 17.8861C10.5434 17.8749 10.5716 17.8587 10.6079 17.8375C10.6804 17.7952 10.7852 17.7333 10.9177 17.6527C11.1826 17.4915 11.5586 17.2553 12.0087 16.9522C12.9075 16.347 14.1092 15.4702 15.3142 14.3856C17.679 12.2573 20.25 9.15771 20.25 5.62501C20.25 4.32465 19.7995 3.06445 18.975 2.05882C18.1506 1.0532 17.0033 0.364265 15.7282 0.109242C14.453 -0.14578 13.129 0.0488604 11.9812 0.660047C11.2484 1.05025 10.6164 1.59484 10.125 2.25Z" fill="#3A7E55"/>
</svg>
