<svg width="36" height="36" viewBox="0 0 36 36" fill="none" xmlns="http://www.w3.org/2000/svg">
<circle cx="18" cy="18" r="18" fill="#FAFCF6"/>
<path fill-rule="evenodd" clip-rule="evenodd" d="M15.5638 10.984C14.7221 10.5358 13.7511 10.3931 12.816 10.5801C11.8809 10.7671 11.0395 11.2723 10.435 12.0098C9.83039 12.7473 9.5 13.6714 9.5 14.625C9.5 17.4673 11.6165 20.1802 13.9392 22.2707C15.0779 23.2955 16.22 24.1296 17.079 24.708C17.5078 24.9967 17.8643 25.2205 18.1121 25.3713C18.1164 25.3739 18.1207 25.3766 18.125 25.3792C18.1293 25.3766 18.1336 25.3739 18.1379 25.3713C18.3857 25.2205 18.7422 24.9967 19.171 24.708C20.03 24.1296 21.1721 23.2955 22.3108 22.2707C24.6335 20.1802 26.75 17.4673 26.75 14.625C26.75 13.6714 26.4196 12.7473 25.815 12.0098C25.2105 11.2723 24.3691 10.7671 23.434 10.5801C22.4989 10.3931 21.5279 10.5358 20.6862 10.984C19.8445 11.4322 19.1841 12.1582 18.8173 13.0385L18.125 14L17.4327 13.0385C17.0659 12.1582 16.4055 11.4322 15.5638 10.984ZM18.125 11.25C17.6336 10.5948 17.0016 10.0502 16.2688 9.66005C15.121 9.04886 13.797 8.85422 12.5218 9.10924C11.2467 9.36426 10.0994 10.0532 9.27495 11.0588C8.45053 12.0644 8 13.3246 8 14.625C8 18.1577 10.571 21.2573 12.9358 23.3856C14.1408 24.4702 15.3425 25.347 16.2413 25.9522C16.6914 26.2553 17.0674 26.4915 17.3323 26.6527C17.4648 26.7333 17.5696 26.7952 17.6421 26.8375C17.6784 26.8587 17.7066 26.8749 17.7262 26.8861L17.7491 26.8991L17.7555 26.9027L17.7575 26.9038C17.7575 26.9038 17.7585 26.9044 18.125 26.25L17.7585 26.9044C17.9862 27.0319 18.2638 27.0319 18.4915 26.9044L18.125 26.25C18.4915 26.9044 18.4915 26.9044 18.4915 26.9044L18.4925 26.9038L18.4945 26.9027L18.5009 26.8991L18.5238 26.8861C18.5434 26.8749 18.5716 26.8587 18.6079 26.8375C18.6804 26.7952 18.7852 26.7333 18.9177 26.6527C19.1826 26.4915 19.5586 26.2553 20.0087 25.9522C20.9075 25.347 22.1092 24.4702 23.3142 23.3856C25.679 21.2573 28.25 18.1577 28.25 14.625C28.25 13.3246 27.7995 12.0644 26.975 11.0588C26.1506 10.0532 25.0033 9.36426 23.7282 9.10924C22.453 8.85422 21.129 9.04886 19.9812 9.66005C19.2484 10.0502 18.6164 10.5948 18.125 11.25Z" fill="#3A7E55"/>
</svg>
