<svg width="78" height="26" viewBox="0 0 78 26" fill="none" xmlns="http://www.w3.org/2000/svg">
<path d="M24.552 25.168C23.112 25.168 21.672 24.964 20.232 24.556C18.792 24.172 17.364 23.68 15.948 23.08C14.532 22.504 13.14 21.94 11.772 21.388C10.74 21.916 9.624 22.384 8.424 22.792C7.224 23.224 5.976 23.464 4.68 23.512C3.096 23.512 1.932 23.224 1.188 22.648C0.444 22.072 0.072 21.388 0.072 20.596C0.072 19.804 0.444 19.072 1.188 18.4C1.932 17.728 2.964 17.392 4.284 17.392C5.436 17.392 6.636 17.656 7.884 18.184C9.132 18.712 10.428 19.324 11.772 20.02C12.684 19.252 13.584 18.388 14.472 17.428C15.384 16.444 16.284 15.4 17.172 14.296C16.524 14.248 15.828 14.128 15.084 13.936C14.364 13.72 13.68 13.444 13.032 13.108C12.384 12.748 11.844 12.316 11.412 11.812C11.004 11.284 10.8 10.672 10.8 9.976C10.8 9.184 11.028 8.512 11.484 7.96C11.94 7.384 12.528 6.916 13.248 6.556C13.992 6.196 14.784 5.932 15.624 5.764C16.488 5.572 17.316 5.476 18.108 5.476C19.044 5.476 19.932 5.56 20.772 5.728C21.612 5.872 22.38 6.076 23.076 6.34C23.94 5.284 24.852 4.312 25.812 3.424C26.772 2.512 27.768 1.78 28.8 1.228C29.856 0.675999 30.948 0.399999 32.076 0.399999C33.012 0.399999 33.696 0.651999 34.128 1.156C34.584 1.636 34.812 2.26 34.812 3.028C34.812 3.988 34.476 5.068 33.804 6.268C33.156 7.468 32.184 8.644 30.888 9.796C29.592 10.948 27.996 11.932 26.1 12.748C24.228 13.564 22.08 14.068 19.656 14.26C18.696 15.508 17.664 16.684 16.56 17.788C15.48 18.892 14.28 19.852 12.96 20.668C14.136 21.268 15.324 21.856 16.524 22.432C17.748 23.032 18.996 23.512 20.268 23.872C21.564 24.256 22.884 24.448 24.228 24.448C24.996 24.448 25.764 24.34 26.532 24.124C27.3 23.932 27.948 23.572 28.476 23.044C29.004 22.54 29.268 21.844 29.268 20.956C29.268 20.116 28.944 19.516 28.296 19.156C27.672 18.796 26.904 18.616 25.992 18.616C25.368 18.616 24.684 18.724 23.94 18.94C23.22 19.132 22.596 19.42 22.068 19.804C21.972 19.876 21.888 19.912 21.816 19.912C21.744 19.912 21.708 19.888 21.708 19.84C21.708 19.6 21.972 19.348 22.5 19.084C23.028 18.796 23.652 18.556 24.372 18.364C25.116 18.148 25.764 18.04 26.316 18.04C26.844 18.04 27.456 18.136 28.152 18.328C28.848 18.496 29.46 18.796 29.988 19.228C30.516 19.66 30.78 20.26 30.78 21.028C30.78 21.988 30.456 22.768 29.808 23.368C29.16 23.992 28.356 24.448 27.396 24.736C26.46 25.024 25.512 25.168 24.552 25.168ZM20.16 13.612C22.32 13.372 24.24 12.832 25.92 11.992C27.624 11.152 29.076 10.18 30.276 9.076C31.476 7.948 32.388 6.82 33.012 5.692C33.636 4.564 33.948 3.592 33.948 2.776C33.948 2.224 33.792 1.78 33.48 1.444C33.192 1.108 32.736 0.939999 32.112 0.939999C31.512 0.939999 30.888 1.12 30.24 1.48C29.592 1.816 28.956 2.248 28.332 2.776C27.732 3.304 27.18 3.844 26.676 4.396C26.196 4.924 25.824 5.38 25.56 5.764L24.588 7.132C25.284 7.612 25.872 8.164 26.352 8.788C26.448 8.908 26.496 9.076 26.496 9.292C26.496 9.436 26.472 9.508 26.424 9.508C26.4 9.508 26.364 9.472 26.316 9.4C25.764 8.704 25.08 8.104 24.264 7.6C23.616 8.56 22.956 9.556 22.284 10.588C21.612 11.596 20.904 12.604 20.16 13.612ZM17.604 13.72C18.3 12.88 19.068 11.836 19.908 10.588C20.748 9.34 21.672 8.092 22.68 6.844C21.24 6.292 19.656 6.016 17.928 6.016C17.4 6.016 16.8 6.112 16.128 6.304C15.48 6.472 14.856 6.736 14.256 7.096C13.68 7.432 13.2 7.852 12.816 8.356C12.432 8.86 12.24 9.448 12.24 10.12C12.24 10.888 12.528 11.536 13.104 12.064C13.68 12.592 14.388 12.988 15.228 13.252C16.068 13.516 16.86 13.672 17.604 13.72ZM4.68 22.936C5.76 22.936 6.792 22.744 7.776 22.36C8.76 22 9.708 21.508 10.62 20.884C9.372 20.38 8.16 19.96 6.984 19.624C5.832 19.264 4.728 19.084 3.672 19.084C2.688 19.084 1.98 19.228 1.548 19.516C1.116 19.804 0.9 20.152 0.9 20.56C0.9 21.088 1.248 21.616 1.944 22.144C2.64 22.672 3.552 22.936 4.68 22.936ZM34.4332 22.036C33.5452 22.036 33.1012 21.532 33.1012 20.524C33.1012 19.948 33.2692 19.264 33.6052 18.472C33.9412 17.656 34.4452 16.804 35.1172 15.916C35.5972 15.316 36.1852 14.68 36.8812 14.008C37.5772 13.312 38.3332 12.652 39.1492 12.028C39.9892 11.404 40.8412 10.9 41.7052 10.516C42.5692 10.108 43.4092 9.904 44.2252 9.904C44.5852 9.904 44.8372 9.964 44.9812 10.084C45.1252 10.18 45.2212 10.288 45.2692 10.408C45.3172 10.504 45.3172 10.576 45.2692 10.624C45.2452 10.672 45.2092 10.684 45.1612 10.66C45.0652 10.612 44.8732 10.588 44.5852 10.588C43.7212 10.588 42.6892 11.008 41.4892 11.848C40.3132 12.664 39.1492 13.732 37.9972 15.052C37.1812 15.964 36.5092 16.864 35.9812 17.752C35.4532 18.616 35.1052 19.336 34.9372 19.912C34.8892 20.104 34.8652 20.272 34.8652 20.416C34.8652 20.752 34.9972 20.92 35.2612 20.92C35.4292 20.92 35.6572 20.848 35.9452 20.704C36.2332 20.536 36.6052 20.26 37.0612 19.876C37.7812 19.252 38.4892 18.52 39.1852 17.68C39.9052 16.84 40.6132 15.988 41.3092 15.124C42.0052 14.236 42.6772 13.42 43.3252 12.676C43.9972 11.932 44.6332 11.368 45.2332 10.984C46.0012 10.48 46.5292 10.192 46.8172 10.12C47.1292 10.048 47.3812 10 47.5732 9.976C47.4532 10.12 47.1892 10.456 46.7812 10.984C46.3732 11.512 45.9412 12.076 45.4852 12.676C45.0292 13.252 44.6572 13.732 44.3692 14.116C43.9372 14.74 43.4692 15.412 42.9652 16.132C42.4852 16.852 42.0412 17.536 41.6332 18.184C41.2492 18.808 40.9852 19.324 40.8412 19.732C40.7212 20.14 40.6612 20.44 40.6612 20.632C40.6612 21.016 40.8172 21.208 41.1292 21.208C41.3452 21.208 41.5972 21.124 41.8852 20.956C42.1972 20.764 42.5092 20.548 42.8212 20.308C43.2292 19.972 43.6132 19.624 43.9732 19.264C44.3332 18.88 44.7052 18.46 45.0892 18.004C45.1852 18.004 45.2332 18.076 45.2332 18.22C45.2332 18.436 45.1852 18.604 45.0892 18.724C44.7772 19.084 44.3932 19.48 43.9372 19.912C43.5052 20.344 43.0732 20.728 42.6412 21.064C42.3292 21.328 41.9692 21.556 41.5612 21.748C41.1532 21.94 40.7572 22.036 40.3732 22.036C39.8212 22.036 39.4372 21.904 39.2212 21.64C39.0052 21.376 38.8972 21.04 38.8972 20.632C38.8972 20.152 39.0052 19.636 39.2212 19.084C39.4372 18.508 39.6772 17.968 39.9412 17.464C39.6292 17.848 39.2332 18.316 38.7532 18.868C38.2732 19.396 37.8412 19.84 37.4572 20.2C36.9292 20.68 36.4252 21.112 35.9452 21.496C35.4652 21.856 34.9612 22.036 34.4332 22.036ZM45.6128 22.036C44.7248 22.084 44.2808 21.58 44.2808 20.524C44.2808 19.948 44.4488 19.264 44.7848 18.472C45.1208 17.656 45.6248 16.804 46.2968 15.916C46.8248 15.244 47.4968 14.512 48.3128 13.72C49.1288 12.928 50.0168 12.208 50.9768 11.56C51.9368 10.888 52.8968 10.408 53.8568 10.12C54.1208 10.048 54.3968 10 54.6848 9.976C54.9728 9.928 55.3208 9.904 55.7288 9.904C56.1128 9.904 56.3048 9.952 56.3048 10.048C56.3048 10.168 56.1368 10.264 55.8008 10.336C55.5128 10.408 55.1648 10.528 54.7568 10.696C54.3488 10.864 53.9768 11.044 53.6408 11.236C52.9448 11.62 52.2128 12.148 51.4448 12.82C50.6768 13.468 49.9208 14.212 49.1768 15.052C48.3608 15.964 47.6888 16.864 47.1608 17.752C46.6328 18.616 46.2848 19.336 46.1168 19.912C46.0688 20.104 46.0448 20.272 46.0448 20.416C46.0448 20.752 46.1768 20.92 46.4408 20.92C46.6088 20.92 46.8368 20.848 47.1248 20.704C47.4128 20.536 47.7848 20.26 48.2408 19.876C49.1528 19.108 50.0648 18.232 50.9768 17.248C51.9128 16.264 52.7528 15.244 53.4968 14.188C54.0728 13.372 54.7448 12.508 55.5128 11.596C56.2808 10.66 57.0848 9.76 57.9248 8.896C58.7648 8.008 59.5808 7.204 60.3728 6.484C61.1888 5.764 61.9208 5.188 62.5688 4.756C63.3128 4.252 63.8288 3.964 64.1168 3.892C64.4288 3.82 64.6928 3.784 64.9088 3.784C64.6928 3.952 64.2248 4.384 63.5048 5.08C62.8088 5.752 61.9688 6.604 60.9848 7.636C60.0248 8.668 59.0168 9.784 57.9608 10.984C56.9288 12.184 55.9808 13.384 55.1168 14.584C54.4448 15.496 53.8088 16.444 53.2088 17.428C52.6088 18.388 52.2128 19.156 52.0208 19.732C51.9488 19.924 51.9008 20.092 51.8768 20.236C51.8528 20.38 51.8408 20.512 51.8408 20.632C51.8408 21.016 51.9968 21.208 52.3088 21.208C52.5248 21.208 52.7768 21.124 53.0648 20.956C53.3768 20.764 53.6888 20.548 54.0008 20.308C54.4088 19.972 54.8048 19.6 55.1888 19.192C55.5968 18.784 55.9568 18.388 56.2688 18.004C56.3648 18.004 56.4128 18.076 56.4128 18.22C56.4128 18.436 56.3648 18.604 56.2688 18.724C55.9568 19.084 55.5728 19.48 55.1168 19.912C54.6848 20.344 54.2528 20.728 53.8208 21.064C53.5088 21.328 53.1488 21.556 52.7408 21.748C52.3328 21.94 51.9368 22.036 51.5528 22.036C51.0008 22.036 50.6048 21.904 50.3648 21.64C50.1488 21.376 50.0408 21.04 50.0408 20.632C50.0408 20.224 50.1248 19.78 50.2928 19.3C50.4608 18.82 50.6648 18.352 50.9048 17.896C50.4968 18.328 50.0528 18.796 49.5728 19.3C49.0928 19.78 48.7808 20.08 48.6368 20.2C48.1088 20.68 47.6048 21.1 47.1248 21.46C46.6448 21.796 46.1408 21.988 45.6128 22.036ZM61.9732 22.036C61.4692 22.036 61.1092 21.904 60.8932 21.64C60.6772 21.352 60.5692 20.992 60.5692 20.56C60.5692 19.912 60.7972 19.18 61.2532 18.364C61.7092 17.524 62.2972 16.648 63.0172 15.736C63.7612 14.824 64.5292 13.924 65.3212 13.036C66.1372 12.148 66.9052 11.332 67.6252 10.588C67.2652 10.588 66.8692 10.684 66.4372 10.876C66.0292 11.068 65.6092 11.296 65.1772 11.56C64.5292 11.992 63.8212 12.568 63.0532 13.288C62.2852 14.008 61.5172 14.776 60.7492 15.592C59.9812 16.408 59.2492 17.212 58.5532 18.004C58.0012 18.652 57.5572 19.192 57.2212 19.624C56.9092 20.056 56.6332 20.452 56.3932 20.812C56.1772 21.148 55.9372 21.532 55.6732 21.964C55.2892 21.964 55.0972 21.736 55.0972 21.28C55.0972 20.8 55.2532 20.224 55.5652 19.552C55.8532 18.88 56.1052 18.352 56.3212 17.968C56.9452 16.912 57.6532 15.808 58.4452 14.656C59.2612 13.48 60.0172 12.448 60.7132 11.56C61.0732 11.08 61.4572 10.732 61.8652 10.516C62.2732 10.276 62.6212 10.132 62.9092 10.084C63.1972 10.012 63.3412 9.976 63.3412 9.976C63.1972 10.192 62.8972 10.648 62.4412 11.344C61.9852 12.04 61.4572 12.856 60.8572 13.792C60.2572 14.728 59.6452 15.676 59.0212 16.636C60.0052 15.508 61.0612 14.416 62.1892 13.36C63.3172 12.28 64.3972 11.404 65.4292 10.732C65.7412 10.516 66.0652 10.336 66.4012 10.192C66.7372 10.048 67.0852 9.976 67.4452 9.976C68.0932 9.976 68.4172 10.228 68.4172 10.732C68.4172 11.116 68.1892 11.572 67.7332 12.1C67.1812 12.748 66.5812 13.468 65.9332 14.26C65.2852 15.052 64.6612 15.856 64.0612 16.672C63.4852 17.488 63.0052 18.244 62.6212 18.94C62.2612 19.636 62.0812 20.2 62.0812 20.632C62.0812 20.872 62.1412 21.052 62.2612 21.172C62.4052 21.268 62.5252 21.316 62.6212 21.316C62.9812 21.316 63.3772 21.172 63.8092 20.884C64.2652 20.596 64.6972 20.26 65.1052 19.876C65.5372 19.468 65.9092 19.084 66.2212 18.724C66.5572 18.364 66.7732 18.124 66.8692 18.004C66.9652 18.004 67.0132 18.076 67.0132 18.22C67.0132 18.436 66.9652 18.604 66.8692 18.724C66.5332 19.084 66.0892 19.528 65.5372 20.056C64.9852 20.584 64.3972 21.052 63.7732 21.46C63.1492 21.844 62.5492 22.036 61.9732 22.036ZM68.2712 22.18C67.5752 22.18 67.0832 22.012 66.7952 21.676C66.4832 21.316 66.3272 20.872 66.3272 20.344C66.3272 19.672 66.5192 18.88 66.9032 17.968C67.3112 17.056 67.8512 16.132 68.5232 15.196C69.1952 14.26 69.9512 13.396 70.7912 12.604C71.6312 11.788 72.4832 11.14 73.3472 10.66C74.2352 10.156 75.0872 9.904 75.9032 9.904C76.5032 9.904 76.9352 10.06 77.1992 10.372C77.4632 10.684 77.5952 11.092 77.5952 11.596C77.5952 12.268 77.4032 13.072 77.0192 14.008C76.6352 14.92 76.1072 15.856 75.4352 16.816C74.7872 17.752 74.0552 18.628 73.2392 19.444C72.4472 20.26 71.6192 20.92 70.7552 21.424C69.8912 21.928 69.0632 22.18 68.2712 22.18ZM68.7032 21.496C69.2072 21.496 69.8072 21.244 70.5032 20.74C71.2232 20.212 71.9552 19.54 72.6992 18.724C73.4432 17.908 74.1272 17.044 74.7512 16.132C75.3992 15.196 75.9152 14.32 76.2992 13.504C76.7072 12.664 76.9112 11.98 76.9112 11.452C76.9112 10.876 76.6352 10.588 76.0832 10.588C75.6272 10.588 75.0512 10.864 74.3552 11.416C73.6832 11.944 72.9752 12.628 72.2312 13.468C71.5112 14.308 70.8272 15.196 70.1792 16.132C69.5312 17.068 69.0032 17.956 68.5952 18.796C68.2112 19.636 68.0192 20.296 68.0192 20.776C68.0192 21.256 68.2472 21.496 68.7032 21.496Z" fill="#133F24"/>
</svg>
