<svg width="20" height="26" viewBox="0 0 20 26" fill="none" xmlns="http://www.w3.org/2000/svg">
<path fill-rule="evenodd" clip-rule="evenodd" d="M10.3286 4.01562C12.4669 7.81863 16.9543 9.4124 18.7648 13.318C19.0535 13.9413 19.1784 14.6356 19.272 15.3063C19.3501 15.8665 19.3969 16.4267 19.3579 16.9948C19.1472 20.348 15.4793 19.5985 13.2707 20.8135C12.2016 21.3974 11.507 22.4625 10.4925 23.1332C9.12677 24.0406 7.37086 24.2536 5.76323 24.3088C3.21911 24.3956 0.511131 22.644 0.620387 19.8352C0.729644 16.9869 4.53801 15.1642 5.24818 12.3159C5.97396 9.40449 4.49897 5.84613 7.95616 4.32335C8.40099 4.11821 10.3286 4.01562 10.3286 4.01562Z" fill="#FFF0E0"/>
<path fill-rule="evenodd" clip-rule="evenodd" d="M3.22316 5.83769C3.21728 5.8139 3.21728 5.7901 3.22316 5.76631C3.27611 5.58192 3.32319 5.42727 3.38202 5.28451C3.42909 5.17149 3.47616 5.07038 3.52911 4.97521C3.61147 4.82055 3.7056 4.68374 3.8115 4.55288C3.94681 4.36849 4.0998 4.19005 4.27041 3.96996C4.27041 3.96402 4.2763 3.96402 4.2763 3.95807C4.42927 3.3692 4.58811 2.69706 4.85875 2.10819C5.0529 1.68587 5.29997 1.30518 5.64121 1.01967C6.17659 0.56761 6.85907 0.293993 7.57096 0.169082C8.27107 0.0441701 9.00645 0.0560669 9.66539 0.163134C9.93602 0.210719 10.2067 0.264253 10.4714 0.353475C10.7362 0.442698 10.995 0.555714 11.2304 0.716314C11.6363 0.98993 11.9422 1.38251 12.1776 1.82862C12.5129 2.45318 12.7071 3.17291 12.8953 3.77962C12.9012 3.78557 12.9071 3.79152 12.913 3.79747C12.9542 3.83316 13.1719 3.99376 13.419 4.23168C13.5249 4.3328 13.6308 4.44582 13.7249 4.56478C13.7896 4.64806 13.8485 4.73133 13.9014 4.82055C13.9838 4.96331 14.0544 5.10606 14.0956 5.24882C14.1014 5.26667 14.1073 5.28451 14.1014 5.30235C14.125 5.33804 14.125 5.37968 14.1014 5.41537C14.072 5.46296 14.0073 5.4808 13.9544 5.45106C13.6425 5.26667 13.3248 5.09417 12.9954 4.92762C12.9895 5.15365 12.9954 5.36778 13.0248 5.58787C13.0601 5.86148 13.1365 6.12915 13.2601 6.39682C13.4189 6.72397 13.6602 7.02138 13.8249 7.34853C13.9014 7.50318 13.9602 7.66378 13.9955 7.83628C14.0426 8.10394 14.0132 8.36566 13.9426 8.62738C13.8602 8.95453 13.7132 9.28168 13.5955 9.60288C13.519 9.81107 13.4602 10.0193 13.4425 10.2215C13.4249 10.3999 13.4602 10.5605 13.5131 10.7211C13.6543 11.1435 13.9308 11.542 13.9544 12.0119C13.9602 12.1844 13.9308 12.339 13.8661 12.4877C13.7837 12.6959 13.6484 12.8922 13.5308 13.0885C13.4543 13.2789 13.3484 13.4692 13.3013 13.6774C13.2896 13.7369 13.2307 13.7726 13.1778 13.7607C13.119 13.7488 13.0837 13.6952 13.0954 13.6357C13.119 13.5287 13.1542 13.4216 13.1954 13.3205V13.3145C13.2189 13.2372 13.2542 13.1599 13.2895 13.0826C13.319 13.0112 13.3366 12.9339 13.3542 12.8625C13.3719 12.7673 13.3719 12.6721 13.3425 12.571C13.2778 12.3628 13.1542 12.1963 13.0189 12.0416C12.866 11.8632 12.6953 11.6966 12.5718 11.5003C12.46 11.3219 12.3835 11.1256 12.3718 10.8817C12.3541 10.5605 12.4306 10.2453 12.5306 9.94193C12.6247 9.65642 12.7306 9.37685 12.7895 9.09134C12.8365 8.86531 12.8483 8.63333 12.7836 8.3954C12.7424 8.25265 12.6894 8.10989 12.6247 7.97903C12.5424 8.27049 12.46 8.5679 12.36 8.85341C12.2423 9.19841 12.1129 9.5434 11.9658 9.87055C11.8775 10.0668 11.7775 10.2631 11.6657 10.4535C11.5775 10.6022 11.4834 10.7449 11.3775 10.8817C11.2951 11.4706 11.2833 12.0535 11.4245 12.5889C11.5716 13.1361 11.8835 13.6298 12.4424 13.9986C13.0013 14.3674 13.6602 14.5577 14.2368 14.8849C14.4956 15.0336 14.7369 15.212 14.9428 15.444C15.1958 15.7295 15.4017 16.0507 15.5723 16.3897C15.8253 16.8894 16.0017 17.4366 16.1371 17.972C16.3842 18.9237 16.6136 19.8397 16.7666 20.7736C16.8666 21.3981 16.9372 22.0286 16.9548 22.6889C16.9666 23.2183 16.9784 23.8904 16.8901 24.515C16.8254 24.9551 16.7077 25.3715 16.5136 25.7105C16.4253 25.8652 16.2783 25.9425 16.0841 25.9306C15.7782 25.9187 15.3076 25.6689 14.7898 25.2644C13.9485 24.6101 12.9424 23.5573 12.26 22.6353C12.1541 22.7543 12.0599 22.8852 11.9658 23.016C11.6716 23.4264 11.4187 23.8607 11.1245 24.2711C10.9715 24.4852 10.8009 24.7053 10.595 24.8837C10.4479 25.0086 10.2831 25.1098 10.1007 25.1693C10.0537 25.1871 9.99491 25.1811 9.94196 25.1574C9.86547 25.1276 9.77723 25.0384 9.72428 25.0027C9.55954 24.8897 9.39476 24.7767 9.23003 24.6637C9.15943 24.6101 9.08883 24.5566 9.01823 24.5031C8.62405 24.1819 8.20048 23.8785 7.80042 23.5513C7.52978 23.3313 7.26499 23.0993 7.02377 22.8435C6.88846 22.7008 6.71198 22.4926 6.60608 22.2784C6.55313 22.1714 6.51192 22.0584 6.50015 21.9513C6.49427 22.1059 6.48844 22.2665 6.48255 22.4212C6.45902 22.7483 6.42369 23.0755 6.37662 23.3967C6.30602 23.8785 6.21776 24.3544 6.14127 24.8362C6.13539 24.8956 6.08247 24.9373 6.02364 24.9254C5.9648 24.9135 5.9236 24.8659 5.92948 24.8064C5.98243 24.2413 6.05306 23.6822 6.10601 23.1171C6.11778 23.016 6.12361 22.9149 6.1295 22.8138C6.00006 22.8138 5.87068 22.8197 5.74125 22.8138C5.61181 22.8078 5.48236 22.7959 5.35293 22.7781C5.22349 22.7602 5.09404 22.7364 4.96461 22.7127C4.82341 22.6829 4.68811 22.6532 4.54691 22.6234C4.54103 22.7781 4.53513 22.9327 4.52925 23.0874C4.48806 23.9082 4.41157 24.7231 4.29979 25.544C4.2939 25.6035 4.24098 25.6451 4.18215 25.6332C4.12332 25.6273 4.08211 25.5737 4.088 25.5142C4.18213 24.6934 4.23511 23.8844 4.26452 23.0755C4.28806 22.2606 4.28806 21.4516 4.27041 20.6248C4.25865 19.8813 4.20568 19.0902 4.25275 18.3229C4.28805 17.7935 4.3704 17.276 4.53513 16.7823C4.66457 16.4016 4.87637 16.1161 5.12936 15.8842C5.42352 15.6105 5.7765 15.4083 6.13539 15.2061C6.47074 15.0157 6.80608 14.8254 7.08848 14.5637C7.52385 14.177 7.76512 13.7607 7.8769 13.3264C8.05929 12.6246 7.92391 11.8691 7.74741 11.0542C7.74741 11.0483 7.74741 11.0423 7.74741 11.0364C7.65328 10.9531 7.57094 10.8698 7.48269 10.7806C7.37679 10.6676 7.27676 10.5486 7.17675 10.4297C7.03555 10.5248 6.87086 10.6022 6.70612 10.6676C6.40019 10.7866 6.07661 10.8817 5.82362 11.0602C5.63536 11.191 5.49415 11.3814 5.45297 11.6728C5.41179 11.9762 5.55295 12.2379 5.7118 12.4877C5.89419 12.7733 6.11184 13.0528 6.20009 13.3621C6.27658 13.6298 6.26483 13.9213 6.07068 14.2484C6.04126 14.3019 5.97654 14.3138 5.92359 14.2841C5.87064 14.2544 5.85303 14.1889 5.88244 14.1413C5.98246 13.9569 6.02362 13.7963 6.01186 13.6417C5.91772 13.4632 5.80008 13.3086 5.66476 13.1718C5.30588 12.7971 4.85282 12.5294 4.52336 12.0892C4.34097 11.8453 4.19978 11.5479 4.16448 11.2386V11.2327C4.04093 10.9055 3.97033 10.5486 4.0174 10.2155C4.0174 10.2096 4.0174 10.2036 4.0174 10.1977C4.00563 10.1799 3.99384 10.162 3.99384 10.1382C3.96443 9.88839 3.99973 9.65047 4.07033 9.42444C4.14681 9.16867 4.25866 8.92479 4.35868 8.68092C4.45281 8.45489 4.53516 8.22291 4.55869 7.97308C4.57634 7.78869 4.55277 7.61025 4.51747 7.43775C4.42333 6.98569 4.22334 6.56337 4.18804 6.09346C4.17039 5.83174 4.21153 5.58787 4.2939 5.35589C4.31743 5.29641 4.33508 5.24287 4.3645 5.18934C4.02326 5.40347 3.69385 5.6414 3.3938 5.90907C3.34674 5.95071 3.27023 5.94476 3.22905 5.89717C3.23493 5.88528 3.22316 5.86148 3.22316 5.83769ZM4.47043 4.07703C4.46454 4.08298 4.46453 4.09488 4.45865 4.10082C4.31157 4.33875 4.18217 4.52909 4.05273 4.72538C3.96448 4.85624 3.88208 4.99305 3.79972 5.12986C3.74677 5.22503 3.68791 5.3202 3.62908 5.42727C3.95855 5.16555 4.30567 4.93357 4.66455 4.72538C4.68808 4.69564 4.71751 4.6778 4.74693 4.6778C5.31761 4.3566 5.92363 4.10677 6.55315 3.92238C7.28268 3.70824 8.0416 3.58928 8.80055 3.57144C9.30652 3.55954 9.81834 3.60118 10.3184 3.68445C10.9891 3.80342 11.6422 4.01755 12.2717 4.29711C12.4835 4.39228 12.6953 4.4934 12.9012 4.59452C12.9248 4.60047 12.9483 4.61237 12.9659 4.63021C13.2189 4.76107 13.466 4.90383 13.7072 5.04658C13.6661 4.999 13.6308 4.94546 13.5837 4.89788C13.5308 4.83245 13.4778 4.77297 13.4248 4.70754C13.3719 4.64211 13.313 4.57668 13.2601 4.5172C13.0071 4.22574 12.7718 3.9997 12.7365 3.95807C12.7248 3.94617 12.7189 3.93428 12.713 3.92238C12.7071 3.91643 12.7012 3.90453 12.7012 3.89264C12.5012 3.29782 12.2835 2.57214 11.9363 1.95353C11.7128 1.55501 11.4304 1.20406 11.0597 0.960189C10.8421 0.817433 10.6126 0.716314 10.3714 0.644936C10.1243 0.567609 9.87132 0.514076 9.61246 0.472439C8.98294 0.37132 8.2887 0.359424 7.618 0.472439C6.95906 0.585455 6.3237 0.823381 5.81773 1.23975C5.50592 1.49552 5.27648 1.84052 5.09409 2.2212C4.81758 2.79817 4.65283 3.45247 4.49398 4.02945C4.4881 4.04729 4.48219 4.05919 4.47043 4.07703ZM13.5896 12.5056C13.6072 12.4699 13.619 12.4283 13.6366 12.3926C13.6778 12.2736 13.7014 12.1546 13.6896 12.0238C13.672 11.8097 13.5955 11.6193 13.5131 11.4349C13.419 11.2267 13.3072 11.0304 13.2307 10.8163C13.1601 10.62 13.1189 10.4178 13.1307 10.1918C13.1483 9.95977 13.2131 9.72185 13.2954 9.48987C13.4072 9.17461 13.5543 8.85936 13.6425 8.53816C13.7014 8.31808 13.7308 8.098 13.6955 7.87791C13.672 7.73516 13.6249 7.59835 13.5602 7.46749C13.4013 7.13439 13.1601 6.83103 13.013 6.49794C12.8836 6.20648 12.8071 5.90907 12.7718 5.60571C12.7424 5.34399 12.7424 5.07632 12.76 4.80271C12.5659 4.70754 12.3658 4.62426 12.1658 4.54099C12.1187 4.52314 12.0658 4.49935 12.0187 4.48151L12.0128 4.48746C11.9716 4.84435 11.9834 5.24882 12.0305 5.6533C12.0893 6.08751 12.1953 6.52173 12.36 6.86078C12.5189 7.19387 12.7365 7.50318 12.9012 7.83628C12.9777 7.98498 13.0425 8.14558 13.0895 8.30618C13.1719 8.59169 13.1601 8.87126 13.1072 9.15082C13.0484 9.44823 12.9306 9.73969 12.8365 10.0311C12.7483 10.3048 12.6659 10.5784 12.6777 10.8639C12.6835 11.0542 12.7424 11.2029 12.8247 11.3397C12.9365 11.5241 13.0895 11.6847 13.2307 11.8572C13.3837 12.0416 13.519 12.2439 13.5896 12.4937C13.5896 12.4937 13.5896 12.4996 13.5896 12.5056ZM12.4953 7.70542C12.36 7.46154 12.2188 7.22956 12.107 6.97974C11.9423 6.61095 11.8305 6.15294 11.7776 5.68304C11.7599 5.49864 11.7481 5.31425 11.7422 5.12986C11.5951 5.42727 11.4128 5.70088 11.1951 5.94476C10.8245 6.36113 10.3479 6.66449 9.7831 6.7775C9.31243 6.87267 8.71229 6.81914 8.20044 6.94405C7.89451 7.01543 7.61804 7.15819 7.44154 7.46154C7.40036 7.53292 7.38854 7.62214 7.39443 7.71136C7.40031 7.87791 7.45328 8.05041 7.48269 8.19317C7.55918 8.53816 7.70629 8.8891 7.73571 9.24004C7.75924 9.50176 7.72982 9.76348 7.58862 10.0133C7.52979 10.1144 7.45913 10.2036 7.38265 10.281C7.47678 10.394 7.57681 10.507 7.68271 10.6081C7.81214 10.733 7.9416 10.852 8.0828 10.9591C8.55347 11.316 9.10651 11.5003 9.63601 11.4885C10.1655 11.4706 10.6773 11.2565 11.0538 10.7866C11.1833 10.6319 11.301 10.4594 11.4069 10.2869C11.5187 10.1085 11.6128 9.92408 11.707 9.73969C11.8599 9.42444 12.0011 9.09729 12.1247 8.75824C12.2482 8.42514 12.3658 8.08015 12.4717 7.74705C12.4776 7.72921 12.4835 7.71731 12.4953 7.70542ZM11.1362 11.1673C10.7126 11.5836 10.1832 11.7799 9.6419 11.7859C9.10064 11.7918 8.54168 11.6074 8.05925 11.2684C8.2181 12.0238 8.31814 12.7316 8.15929 13.3919C8.12399 13.5346 8.07692 13.6774 8.01221 13.8201C8.35932 14.1354 8.73587 14.3317 9.13005 14.4447C9.41245 14.522 9.69483 14.5518 9.98311 14.5399C10.2714 14.5339 10.5538 14.4804 10.8421 14.4031C11.2186 14.296 11.5951 14.1354 11.9481 13.9153C11.5598 13.5465 11.3304 13.1123 11.2068 12.6364C11.095 12.1784 11.0833 11.6788 11.1362 11.1673ZM12.1423 22.4569C12.107 22.4034 12.0717 22.3558 12.0364 22.3082C11.7834 21.9394 11.1951 20.8747 10.6597 20.0955C10.4008 19.7148 10.1537 19.4055 9.97133 19.2925C9.78306 19.1794 9.49476 19.001 9.21825 18.7869C8.98291 19.0724 8.7535 19.3638 8.51816 19.6493C8.14751 20.1193 7.77686 20.5892 7.40621 21.0591L6.93551 21.6658C6.91198 21.6955 6.82374 21.8026 6.8002 21.8204C6.79432 21.9275 6.82963 22.0346 6.88258 22.1416C6.97671 22.332 7.13557 22.5045 7.25323 22.6294C7.42973 22.8078 7.61804 22.9803 7.8063 23.1409C8.2652 23.5276 8.75935 23.8785 9.21825 24.2532C9.28296 24.3068 9.34773 24.3544 9.41244 24.4079C9.57129 24.5268 9.736 24.6339 9.90073 24.7529C9.93015 24.7707 9.97726 24.848 10.0184 24.8778C10.0184 24.8778 10.0243 24.8778 10.0302 24.8718C10.1714 24.8243 10.3008 24.7469 10.4185 24.6518C10.6126 24.4971 10.7715 24.2949 10.9185 24.0986C11.2245 23.7001 11.4833 23.2658 11.7893 22.8673C11.9069 22.7305 12.0188 22.5877 12.1423 22.4569ZM9.04179 18.6322C8.90647 18.5192 8.78294 18.3943 8.6888 18.2694C8.68292 18.2694 8.67702 18.2634 8.67114 18.2634C8.67114 18.2634 8.15925 17.9601 7.8239 17.6864C7.70035 17.5853 7.60625 17.4902 7.55918 17.4128C7.52388 17.3593 7.51214 17.3117 7.51214 17.2701C7.51214 17.2225 7.52976 17.1809 7.55329 17.1571C7.58859 17.1214 7.64746 17.0916 7.73571 17.0976C7.81807 17.1035 7.95339 17.1511 8.10047 17.2165C7.95927 17.0738 7.82394 16.9251 7.71804 16.8002C7.60037 16.6634 7.51801 16.5444 7.50036 16.479C7.47683 16.4016 7.50031 16.3422 7.52384 16.3065C7.54738 16.2767 7.5886 16.2529 7.64155 16.247C7.68274 16.247 7.75922 16.2648 7.86512 16.3243C7.93572 16.366 8.02983 16.4254 8.13573 16.4968C8.07102 16.4135 8.01216 16.3362 7.96509 16.2589C7.86508 16.1102 7.8004 15.9853 7.78275 15.902C7.75921 15.7949 7.7945 15.7176 7.84157 15.676C7.89452 15.6284 7.95921 15.6046 8.04158 15.6105C8.13571 15.6165 8.27104 15.6879 8.41812 15.8068C8.45931 15.8425 8.50054 15.8782 8.54172 15.9198C8.51819 15.8544 8.4946 15.7949 8.48872 15.7473C8.46519 15.6165 8.51227 15.5273 8.57698 15.4856C8.64758 15.438 8.72997 15.4261 8.81822 15.4559C8.90059 15.4797 9.00059 15.5511 9.09472 15.6641C9.33005 15.9258 9.6007 16.4195 9.77132 16.7228C9.79485 16.7585 9.81838 16.8002 9.84192 16.8359C9.8478 16.824 9.84781 16.8121 9.85369 16.8002C9.90664 16.6277 9.93017 16.3719 9.99489 16.1875C10.0302 16.0804 10.0831 15.9912 10.1479 15.9377C10.1949 15.896 10.242 15.8901 10.2832 15.8901C10.3243 15.8901 10.3714 15.9079 10.4067 15.9496C10.4361 15.9853 10.4655 16.0507 10.4891 16.1459C10.5185 16.2827 10.542 16.5087 10.5832 16.7764C10.7127 16.6098 10.8479 16.4492 10.9832 16.2886C11.095 16.1578 11.2069 16.0269 11.3304 15.902C11.3657 15.8663 11.4716 15.7176 11.5481 15.6403C11.6069 15.5867 11.6599 15.563 11.6952 15.557C11.8364 15.5451 11.9776 15.5808 12.1188 15.6462C12.3011 15.7354 12.4659 15.8723 12.5895 15.9853C12.6424 16.0329 12.6895 16.0745 12.7365 16.1221C12.7483 16.1102 12.76 16.0923 12.7777 16.0804C12.8306 16.021 12.8836 15.9674 12.9424 15.9258C12.9542 15.9139 13.0189 15.8723 13.1013 15.9198C13.1131 15.9258 13.1307 15.9377 13.1601 15.9615C13.2484 16.0269 13.4248 16.1697 13.6307 16.3422C14.0426 16.6931 14.578 17.1809 14.7663 17.4485C14.778 17.4664 14.831 17.5437 14.7604 17.6389C14.7486 17.6567 14.7251 17.6864 14.6898 17.7221C14.6427 17.7757 14.578 17.8411 14.5074 17.9184C14.7075 18.0969 14.9074 18.2753 15.1075 18.4597C15.1722 18.5192 15.3017 18.6144 15.3899 18.7155C15.4546 18.7928 15.4958 18.8701 15.5017 18.9356C15.5193 19.0962 15.4781 19.2568 15.4075 19.4114C15.3134 19.6137 15.1663 19.804 15.031 19.9527C14.9016 20.0955 14.7722 20.2382 14.6427 20.375C14.3721 20.6605 14.0897 20.9342 13.8249 21.2256C13.9014 21.3029 13.9661 21.3684 14.0191 21.4219C14.172 21.5885 14.3191 21.755 14.4544 21.9215C14.4485 21.8859 14.4426 21.8561 14.4368 21.8204C14.4191 21.7074 14.3956 21.6003 14.3897 21.4873C14.3838 21.41 14.3779 21.3386 14.3779 21.2613C14.3779 21.1483 14.3838 21.0353 14.3897 20.9163C14.3897 20.8568 14.4309 20.8092 14.4898 20.8033C14.5486 20.8033 14.5956 20.8449 14.6015 20.9044C14.625 21.0412 14.6545 21.1721 14.678 21.3089C14.6957 21.3981 14.7075 21.4933 14.7192 21.5825C14.731 21.6777 14.7368 21.7669 14.7427 21.8621C14.7545 22.0048 14.7604 22.1416 14.7604 22.2844C14.7604 22.2963 14.7604 22.3022 14.7604 22.3141C14.7839 22.3439 14.8015 22.3677 14.8192 22.3974C14.9604 22.3736 15.1016 22.3439 15.2487 22.3201C15.3546 22.3022 15.4664 22.2844 15.5782 22.2725C15.7429 22.2546 15.9076 22.2368 16.0723 22.2249C16.2606 22.2071 16.443 22.2011 16.6313 22.1892C16.6019 21.7253 16.543 21.2673 16.4724 20.8211C16.3195 19.8992 16.1018 18.9891 15.8606 18.0433C15.7311 17.5258 15.5664 17.0024 15.331 16.5206C15.1722 16.1994 14.9839 15.902 14.7486 15.6343C14.5662 15.4261 14.3486 15.2596 14.1132 15.1228C13.5425 14.7837 12.8777 14.5875 12.3188 14.2068C12.2541 14.1592 12.1894 14.1116 12.1247 14.064C11.754 14.3376 11.3539 14.5577 10.9362 14.6945C10.6303 14.7956 10.3126 14.8551 9.99489 14.8611C9.6713 14.867 9.35361 14.8254 9.04768 14.7243C8.64173 14.5934 8.25339 14.3733 7.90628 14.0402C7.76508 14.29 7.57092 14.5399 7.31205 14.7778C6.72372 15.3191 5.92951 15.5867 5.37059 16.1102C5.15291 16.3124 4.97054 16.5622 4.86464 16.8894C4.70579 17.3534 4.63514 17.847 4.59984 18.3467C4.54689 19.1081 4.59396 19.8873 4.59984 20.6248C4.60573 21.2137 4.59983 21.7907 4.58218 22.3736C4.77044 22.3974 4.95876 22.4152 5.15291 22.439C5.30588 22.4569 5.45879 22.4688 5.61176 22.4926C5.71178 22.5045 5.8118 22.5223 5.9177 22.5342C6.00595 22.5461 6.09425 22.5639 6.1825 22.5758C6.18838 22.5164 6.18839 22.4628 6.19428 22.4034C6.21193 22.1178 6.21777 21.8323 6.22954 21.5468C6.24131 21.1185 6.25311 20.6843 6.27076 20.2561C6.28253 19.9468 6.30016 19.6374 6.32958 19.3281C6.33546 19.2627 6.38839 19.2151 6.45311 19.2211C6.51783 19.227 6.56492 19.2806 6.55904 19.346C6.54727 19.5482 6.54137 19.7505 6.53548 19.9587C6.52372 20.4524 6.53548 20.9401 6.52959 21.4338C6.52959 21.5349 6.52959 21.636 6.52959 21.7372C6.53548 21.7134 6.54721 21.6836 6.57075 21.6539C6.61193 21.5884 6.6943 21.5111 6.72372 21.4754L7.20619 20.8747C7.51801 20.4821 7.82981 20.0955 8.14751 19.7088C8.4358 19.3519 8.73586 18.9891 9.04179 18.6322ZM8.68292 17.9898C8.72998 17.9779 8.77703 17.9958 8.80644 18.0374C8.91823 18.2039 9.08298 18.3586 9.26536 18.5013C9.56541 18.7452 9.90072 18.9475 10.1066 19.0724C10.3126 19.1973 10.5891 19.5304 10.8774 19.9408C11.4187 20.7141 12.0129 21.7728 12.2717 22.1416C12.8365 22.9565 13.7308 23.9439 14.5604 24.6577C15.0369 25.0741 15.4899 25.3953 15.837 25.538C15.9429 25.5797 16.0371 25.6094 16.1136 25.6094C16.1783 25.6094 16.2371 25.5975 16.2665 25.538C16.443 25.2287 16.543 24.848 16.596 24.4495C16.6842 23.8428 16.6666 23.1945 16.6548 22.677C16.6548 22.5937 16.6489 22.5104 16.643 22.4271C16.4665 22.4569 16.2842 22.4866 16.1077 22.5104C15.9429 22.5342 15.7782 22.558 15.6134 22.5699C15.5016 22.5818 15.3899 22.5877 15.284 22.5877C15.184 22.5937 15.084 22.5937 14.9839 22.5937C15.1781 22.8792 15.3546 23.1766 15.5193 23.5038C15.5488 23.5573 15.5252 23.6227 15.4781 23.6465C15.4311 23.6703 15.3605 23.6525 15.3369 23.6049C15.1251 23.2301 14.8898 22.8911 14.6368 22.5639C14.3839 22.2368 14.1073 21.9334 13.8014 21.6241C13.619 21.4338 13.2895 21.1126 12.9189 20.7438C12.4953 20.3215 12.0129 19.8278 11.6128 19.3876C11.1892 18.9296 10.8539 18.5311 10.748 18.3289C10.7421 18.311 10.7362 18.2991 10.7362 18.2813C10.5773 17.8827 10.4832 17.4842 10.4185 17.1273C10.3479 16.7407 10.3126 16.4135 10.2655 16.2173C10.2537 16.2589 10.242 16.3065 10.2302 16.3541C10.1891 16.5385 10.1655 16.7526 10.1184 16.8953C10.0655 17.0381 9.98314 17.1273 9.87136 17.1452C9.84194 17.1511 9.79482 17.1511 9.74187 17.1095C9.71246 17.0857 9.66541 17.0262 9.61246 16.937C9.44184 16.6634 9.13002 16.0745 8.87115 15.8128C8.86527 15.8068 8.85348 15.7949 8.84759 15.789C8.85348 15.8128 8.86527 15.8366 8.87704 15.8604C9.05354 16.241 9.46537 16.8359 9.60657 17.0559C9.64775 17.1154 9.67128 17.1571 9.67128 17.169C9.71834 17.282 9.63599 17.3474 9.61246 17.3652C9.59481 17.3771 9.50658 17.4307 9.41244 17.3415C9.40068 17.3296 9.37715 17.3058 9.34185 17.2582C9.183 17.0619 8.92412 16.7407 8.66525 16.4611C8.50051 16.2827 8.34164 16.1161 8.20044 16.0091C8.47108 16.4373 9.13594 17.1571 9.28303 17.3117C9.27126 17.3117 9.25947 17.3117 9.25358 17.3117C9.27712 17.3296 9.28885 17.3415 9.29473 17.3355V17.3296C9.3065 17.3415 9.3124 17.3474 9.3124 17.3474C9.34182 17.3771 9.34774 17.395 9.35362 17.4009C9.39481 17.4842 9.3536 17.5437 9.32418 17.5734C9.30065 17.5972 9.25948 17.627 9.19476 17.6151C9.18888 17.6151 9.15947 17.6091 9.12417 17.5853C9.10652 17.5734 9.05357 17.5318 8.97708 17.4723C8.7947 17.3296 8.47113 17.0738 8.18285 16.8597C8.41818 17.1154 8.68881 17.389 8.84178 17.5437C8.88884 17.5913 8.92999 17.627 8.94764 17.6448L8.95353 17.6508C9.07119 17.7519 8.87114 17.8887 8.85937 17.8887C8.85937 17.8887 8.82996 17.8887 8.79466 17.8649C8.78878 17.8649 8.78877 17.8589 8.78289 17.8589C8.76524 17.847 8.72998 17.8233 8.68292 17.7935C8.50053 17.6864 8.14166 17.4723 7.88868 17.3712C7.94751 17.4307 8.02399 17.4961 8.10636 17.5615C8.30051 17.7459 8.5476 17.9065 8.68292 17.9898ZM5.64121 12.803C5.60002 12.7435 5.55887 12.69 5.52357 12.6305C5.32353 12.3271 5.15877 12.0119 5.19995 11.6372C5.24114 11.2446 5.42944 11.0007 5.67654 10.8163C5.94129 10.626 6.28839 10.513 6.61197 10.3761C6.90025 10.2572 7.17086 10.1204 7.31794 9.85271C7.42384 9.65642 7.44152 9.46013 7.42387 9.25789C7.39446 8.91884 7.25324 8.5798 7.18264 8.2467C7.14734 8.09205 7.09437 7.89576 7.08848 7.70542C7.0826 7.55076 7.10615 7.40801 7.18264 7.2831C7.35325 6.99758 7.58861 6.82509 7.86512 6.71802C8.15929 6.605 8.49465 6.56932 8.83 6.55147C9.1477 6.53363 9.46536 6.53363 9.74187 6.48604C10.2478 6.39087 10.6773 6.11725 11.0127 5.75442C11.2716 5.4808 11.4775 5.1477 11.6305 4.80271C11.3951 4.98115 11.1304 5.15365 10.8597 5.29046C10.542 5.45106 10.2126 5.57002 9.90662 5.60571C9.35947 5.67114 8.7947 5.63545 8.24755 5.69493C7.90632 5.73657 7.57093 5.8139 7.25323 5.99829C7.18852 6.03993 7.12383 6.08156 7.05911 6.12915C7.00028 6.17674 6.94142 6.22432 6.88847 6.27785C6.68844 6.48604 6.61196 6.71207 6.60019 6.95C6.58254 7.2593 6.67077 7.5805 6.72961 7.90171C6.79432 8.2586 6.83551 8.62143 6.7355 8.96643C6.6649 9.19841 6.54725 9.36496 6.3884 9.49582C6.1766 9.67426 5.90006 9.78133 5.62943 9.90029C5.38821 10.0074 5.12348 10.1442 4.91168 10.3226C4.77048 10.4356 4.65284 10.5724 4.57047 10.7211C4.47045 10.9115 4.45869 11.1197 4.49987 11.3219C4.54694 11.536 4.64694 11.7383 4.77637 11.9167C5.01171 12.2855 5.34116 12.5294 5.64121 12.803ZM4.2763 10.6676C4.28219 10.6498 4.2939 10.6319 4.29979 10.6141C4.39392 10.4237 4.53516 10.2572 4.70577 10.1144C4.94111 9.91219 5.22937 9.75753 5.49412 9.63857C5.73534 9.5315 5.98834 9.43633 6.17661 9.27573C6.28839 9.18056 6.37071 9.0616 6.42366 8.901C6.51191 8.59764 6.47079 8.28834 6.41196 7.98498C6.34724 7.63404 6.26482 7.28904 6.28247 6.95595C6.30012 6.65259 6.40015 6.36113 6.6649 6.08751C6.72962 6.02208 6.8002 5.9626 6.8708 5.90907C6.9414 5.85553 7.01789 5.80795 7.09437 5.76036C7.35912 5.60571 7.63566 5.52244 7.92394 5.4689C8.55934 5.35589 9.22419 5.43321 9.87136 5.36184C10.2185 5.32615 10.595 5.17149 10.948 4.97521C11.2539 4.80271 11.5422 4.60047 11.7776 4.39823C11.5422 4.31496 11.3068 4.23763 11.0656 4.1722C10.5244 4.56478 9.86545 4.70754 9.18298 4.79676C8.50052 4.88003 7.78866 4.90383 7.15326 5.06443C6.612 5.20124 6.12361 5.43916 5.75884 5.91502C5.64118 6.06967 5.57647 6.23027 5.54705 6.39682C5.47645 6.7656 5.55881 7.15818 5.61176 7.55076C5.66471 7.98498 5.68238 8.4192 5.48234 8.82367C5.41763 8.95453 5.32942 9.06755 5.2294 9.16272C5.02348 9.35901 4.75873 9.50176 4.56458 9.7159C4.36455 9.93003 4.28807 10.1799 4.2763 10.4416C4.26454 10.507 4.27042 10.5843 4.2763 10.6676ZM4.31157 9.57314C4.32333 9.5553 4.34103 9.53745 4.35868 9.51961C4.55283 9.29953 4.81758 9.15082 5.01761 8.94264C5.09409 8.86531 5.15878 8.78204 5.20584 8.68092C5.37058 8.32997 5.34117 7.94929 5.28822 7.57456C5.22939 7.14629 5.14703 6.71802 5.22351 6.31949C5.26469 6.10536 5.34704 5.89717 5.50001 5.70088C5.77653 5.34399 6.11191 5.10012 6.48844 4.93952C7.19444 4.63616 8.02982 4.60642 8.85348 4.53504C9.52418 4.47556 10.1832 4.39228 10.7421 4.07703C10.5832 4.04134 10.4302 4.0116 10.2714 3.98781C9.78895 3.91048 9.30065 3.87479 8.81233 3.88669C8.0828 3.89859 7.34734 4.00565 6.64134 4.20194C6.00006 4.38039 5.38238 4.63021 4.79993 4.95141C4.70579 5.11201 4.62342 5.27261 4.57047 5.44511C4.50575 5.6414 4.47634 5.84959 4.49987 6.06967C4.54694 6.52768 4.75872 6.93215 4.85286 7.37232C4.89992 7.57456 4.91755 7.78274 4.8999 8.00283C4.87637 8.22886 4.80581 8.44299 4.72344 8.65118C4.59989 8.93669 4.44691 9.21625 4.34101 9.50771C4.32924 9.53745 4.32333 9.5553 4.31157 9.57314ZM9.26536 17.3296C9.27124 17.3296 9.27714 17.3355 9.27714 17.3415C9.27126 17.3355 9.26536 17.3355 9.26536 17.3296ZM10.6185 17.0678C10.6773 17.4128 10.7597 17.8054 10.9009 18.198C10.9127 18.2099 10.9244 18.2218 10.9303 18.2337C11.0421 18.43 11.3774 18.7928 11.7893 19.2151C12.2011 19.6375 12.6953 20.1133 13.1189 20.5356C13.3189 20.7319 13.5013 20.9163 13.6602 21.071C13.9544 20.726 14.2662 20.3988 14.5663 20.0598C14.6486 19.9646 14.7309 19.8694 14.8133 19.7743C14.9251 19.6434 15.0545 19.4709 15.131 19.2925C15.1781 19.1854 15.2016 19.0783 15.1898 18.9713C15.1898 18.9713 15.1722 18.9475 15.1605 18.9356C15.1369 18.9118 15.1134 18.882 15.084 18.8582C15.0134 18.7928 14.931 18.7333 14.8839 18.6917C14.6839 18.5132 14.478 18.3348 14.278 18.1504C14.1485 18.2872 14.0426 18.4002 14.0426 18.4002C14.0132 18.43 13.9779 18.4478 13.9367 18.4478C13.8955 18.4478 13.8544 18.4359 13.8249 18.4062L12.26 16.8597H12.2541C12.2305 16.8418 12.2129 16.8121 12.2129 16.7823C12.2129 16.7526 12.2246 16.7228 12.2482 16.705V16.6991C12.3541 16.592 12.4541 16.473 12.5423 16.3541C12.4894 16.3005 12.4364 16.247 12.3776 16.1994C12.2717 16.1042 12.1305 15.9793 11.9776 15.896C11.8952 15.8544 11.8128 15.8247 11.7304 15.8247C11.6951 15.8604 11.5363 16.0448 11.501 16.0804C11.3833 16.1994 11.2716 16.3243 11.1598 16.4492C10.9892 16.6396 10.8244 16.8359 10.6656 17.0321C10.6597 17.05 10.642 17.0619 10.6185 17.0678ZM14.278 17.7043C14.3368 17.6389 14.3898 17.5794 14.4309 17.5318C14.1368 17.169 13.4308 16.5444 13.1072 16.2708C13.0778 16.241 13.0484 16.2232 13.0248 16.1994C13.0072 16.2173 12.9836 16.2351 12.9659 16.2589C12.9542 16.2767 12.9365 16.2886 12.9248 16.3065C12.966 16.3481 13.0012 16.3838 13.0424 16.4254C13.3778 16.7704 13.6896 17.1333 14.0308 17.4723C14.1132 17.5496 14.1956 17.627 14.278 17.7043ZM12.7307 16.5325C12.6601 16.6217 12.5836 16.7109 12.5012 16.7883C12.6777 16.9429 12.9601 17.1928 13.2307 17.4426C13.5072 17.6924 13.7778 17.9422 13.9308 18.079C13.9661 18.0374 14.0132 17.9898 14.0603 17.9422C13.972 17.8589 13.8896 17.7816 13.8073 17.6924C13.466 17.3474 13.1542 16.9786 12.8247 16.6277C12.7894 16.5979 12.7601 16.5682 12.7307 16.5325ZM14.4603 17.5021C14.4839 17.4783 14.5074 17.4604 14.4957 17.4545C14.4604 17.4307 14.4544 17.4604 14.4603 17.5021ZM7.67682 16.5325C7.65328 16.5147 7.63566 16.5147 7.62978 16.5266C7.62389 16.5622 7.65328 16.5503 7.67682 16.5325ZM8.73585 15.7354C8.72996 15.7295 8.72407 15.7295 8.72407 15.7354C8.72407 15.7414 8.72996 15.7414 8.73585 15.7354Z" fill="#133F24"/>
</svg>
