<svg width="22" height="18" viewBox="0 0 22 18" fill="none" xmlns="http://www.w3.org/2000/svg">
<path fill-rule="evenodd" clip-rule="evenodd" d="M6.59178 3.87298C13.6154 4.6462 17.8062 8.00736 19.0939 8.94627C22.5901 11.5105 23.2456 16.2604 18.1418 17.2861C13.6544 18.1855 6.40448 17.3413 2.88486 14.1142C0.621683 12.0471 -1.11862 8.7648 1.37087 6.18475C1.97178 5.56933 3.1658 3.49425 6.59178 3.87298Z" fill="#FFF0E0"/>
<path fill-rule="evenodd" clip-rule="evenodd" d="M16.9873 7.41447C17.0038 7.40876 17.0204 7.40876 17.0369 7.41447C17.081 7.43162 17.1031 7.47734 17.0921 7.52306C17.0479 7.6545 17.07 8.22601 17.1141 9.02612C17.2024 10.7063 17.412 13.3695 17.4616 15.1812C17.4782 15.8384 17.4727 16.3871 17.4341 16.7357C17.412 16.9472 17.3679 17.0957 17.3182 17.1643C17.2465 17.2615 17.1693 17.3072 17.0921 17.3301C16.9928 17.3586 16.877 17.3358 16.7446 17.3186C16.5681 17.2958 16.3971 17.2786 16.2206 17.2672C16.0441 17.2501 15.8731 17.2443 15.6966 17.2329C14.7865 17.1929 13.8765 17.1529 12.9719 17.1358C12.3652 17.1243 11.764 17.1186 11.1573 17.1358C10.4127 17.1529 9.66253 17.1643 8.9124 17.2043C8.416 17.2272 7.91958 17.2672 7.42318 17.3186C7.16394 17.3472 6.90469 17.3815 6.65097 17.4272C6.04425 17.5244 5.44306 17.6444 4.83634 17.7358C4.54401 17.7758 4.24065 17.8216 3.93729 17.8216C3.73321 17.8273 3.52363 17.8101 3.32507 17.7701C3.27542 17.7587 3.00515 17.6958 2.90587 17.6444C2.83417 17.6044 2.81212 17.5472 2.81212 17.5129C2.8066 17.3472 2.81212 17.1815 2.81764 17.0157C2.82867 16.6385 2.86174 16.2614 2.86174 15.8842C2.85071 14.2782 2.85622 12.6666 2.79555 11.0607C2.75143 9.99196 2.67423 8.92324 2.54185 7.86024C2.53634 7.81452 2.55839 7.77452 2.597 7.75738C2.597 7.7288 2.60803 7.70023 2.63009 7.67737C2.63561 7.67165 2.63562 7.67165 2.64113 7.66593C3.26991 7.10015 3.92074 6.54008 4.55504 5.97429C4.55504 5.51709 4.53849 5.05417 4.55504 4.59696L4.61022 3.45967C4.61573 3.40823 4.59366 3.23679 4.6047 3.13391C4.61021 3.06533 4.63778 3.01389 4.65984 2.98532C4.72051 2.92817 4.81429 2.88245 4.91909 2.86531C5.10662 2.83102 5.34379 2.84245 5.46513 2.84816C5.68024 2.85388 5.89534 2.86531 6.10493 2.87674C6.55721 2.91103 7.00951 2.96246 7.46179 2.99104C7.55555 2.87674 7.6438 2.75672 7.73205 2.6367C8.01886 2.24808 8.30568 1.87089 8.60353 1.49941C8.80209 1.25367 9.00616 1.00792 9.21576 0.76789L9.58529 0.356407C9.60184 0.339261 9.64596 0.270677 9.68457 0.236387C9.71766 0.202097 9.75627 0.184957 9.78385 0.179242C9.86107 0.167812 9.96035 0.196381 10.0652 0.253531C10.2196 0.344972 10.3906 0.504992 10.4678 0.573572C10.6829 0.762168 10.887 0.962196 11.08 1.17365C11.3669 1.48798 11.6316 1.81374 11.9074 2.1395C12.128 2.39667 12.3541 2.64813 12.5858 2.8996C12.8009 2.88817 13.0105 2.87102 13.2256 2.85959C13.5124 2.84244 13.7937 2.8253 14.075 2.80244C14.3563 2.77958 14.6431 2.75672 14.9244 2.73386C15.0678 2.72243 15.2829 2.671 15.4705 2.65385C15.5697 2.64814 15.669 2.65385 15.7462 2.67671C15.7849 2.68814 15.8345 2.72243 15.8676 2.79101C15.9172 2.88816 15.9448 3.05961 15.9504 3.11105C15.9724 3.26536 15.9724 3.41966 15.9558 3.57397C15.9393 3.79685 15.8897 4.01974 15.8456 4.2312C15.7297 4.78556 15.6304 5.3342 15.5643 5.88856C16.0441 6.37434 16.5239 6.88297 16.9873 7.41447ZM2.71833 7.9174C2.8507 8.95753 2.92794 10.0034 2.97758 11.055C3.04928 12.6609 3.04927 14.2782 3.06581 15.8842C3.07133 16.2614 3.04375 16.6443 3.0272 17.0272C3.0272 17.0786 3.02171 17.1243 3.02171 17.1758C3.83803 16.5585 4.66536 15.947 5.49823 15.3527C6.38073 14.724 7.27977 14.1125 8.17881 13.5124C8.36083 13.3924 8.54836 13.2724 8.73038 13.1524C8.57042 12.9866 8.416 12.798 8.29465 12.598C8.15676 12.3694 8.05746 12.1237 8.02988 11.8779C7.32388 11.3864 6.58479 10.9521 5.86224 10.4892C5.54785 10.2891 5.23899 10.0777 4.94114 9.86051C4.6102 9.62047 4.29029 9.35759 3.97038 9.07755C3.5512 8.70036 3.132 8.30031 2.71833 7.9174ZM3.0272 17.3872C3.0272 17.4044 3.0272 17.4272 3.0272 17.4444C3.12648 17.4844 3.31954 17.5244 3.35264 17.5358C3.54017 17.5701 3.72771 17.5815 3.91524 17.5815C4.20757 17.5758 4.4999 17.5358 4.7812 17.4901C5.38792 17.3986 5.98911 17.2786 6.59031 17.1758C6.84954 17.13 7.11429 17.0957 7.37352 17.0672C7.86993 17.01 8.37187 16.9757 8.87379 16.9472C9.62392 16.9072 10.3796 16.8957 11.1242 16.8786C11.7364 16.8671 12.3431 16.8671 12.9499 16.8843C13.8599 16.9014 14.7645 16.9472 15.6801 16.9929C15.8621 17.0043 16.0386 17.0157 16.2151 17.0272C16.3916 17.0443 16.5681 17.0615 16.7501 17.0843C16.8494 17.0957 16.9376 17.1243 17.0149 17.1015H17.0204C16.6674 16.8843 16.2813 16.6671 15.8952 16.4499C15.476 16.2156 15.0513 15.9927 14.6597 15.7927C13.8654 15.3812 13.0215 15.0498 12.2107 14.6611C11.8577 14.4954 11.5103 14.3182 11.1738 14.1182C10.9256 13.9696 10.6774 13.8153 10.4402 13.6496V13.6553C10.3134 13.8382 10.192 14.0268 10.0652 14.2154C10.0652 14.2497 10.0541 14.2782 10.0211 14.2954C9.99899 14.3068 9.97141 14.3068 9.94934 14.3011C9.93831 14.3011 9.93277 14.2954 9.92174 14.2897C9.89968 14.2725 9.88316 14.2439 9.88316 14.2154C9.80594 14.0896 9.71767 13.9925 9.62391 13.901C9.45292 13.741 9.25438 13.6096 9.05581 13.4496C9.01169 13.4153 8.96754 13.3753 8.92341 13.3353C8.71933 13.4667 8.52078 13.5981 8.31671 13.7296C7.41214 14.3182 6.51309 14.924 5.62507 15.5413C4.7536 16.1356 3.88212 16.7586 3.0272 17.3872ZM17.1472 16.9643C17.1638 16.9072 17.1803 16.8214 17.1914 16.7071C17.23 16.3642 17.241 15.8327 17.2245 15.1869C17.1914 13.3753 16.9983 10.7178 16.9266 9.03755C16.899 8.43747 16.888 7.96312 16.899 7.69451C16.3089 8.13457 15.6966 8.54034 15.1009 8.97468C14.952 9.08327 14.7976 9.19757 14.6542 9.30616C14.1302 9.70621 13.6393 10.1405 13.1263 10.552C12.9057 10.7292 12.6796 10.9006 12.4424 11.0664C12.1556 11.2664 11.8633 11.4607 11.5709 11.655C11.5434 11.8665 11.4772 12.0665 11.3834 12.2551C11.2455 12.5409 11.0469 12.8038 10.8649 13.0552C10.7712 13.1809 10.6829 13.301 10.5947 13.4324C10.8263 13.5924 11.0635 13.7467 11.3117 13.8896C11.6371 14.0839 11.9791 14.2611 12.3266 14.4268C13.1374 14.8212 13.9757 15.1698 14.7645 15.587C15.1561 15.7927 15.5808 16.027 15.9945 16.2671C16.3916 16.5014 16.7832 16.7414 17.1472 16.9643ZM4.53299 6.26004C3.95936 6.76296 3.38575 7.25446 2.81764 7.75167C3.24234 8.14029 3.67255 8.53462 4.1138 8.91753C4.23514 9.0204 4.35098 9.11756 4.47233 9.21471C4.43923 8.87181 4.43368 8.53462 4.4392 8.19744C4.45023 7.63165 4.49989 7.07157 4.52195 6.50578C4.52746 6.42006 4.52747 6.34005 4.53299 6.26004ZM7.25771 3.23678C6.8661 3.20249 6.46896 3.15677 6.07184 3.12819C5.86224 3.11105 5.65264 3.09962 5.44305 3.09391C5.34377 3.09391 5.16728 3.07677 5.01285 3.09963C4.93563 3.11106 4.86393 3.12248 4.81429 3.15677C4.81429 3.20249 4.81981 3.43681 4.81429 3.48824L4.74811 4.62554C4.73156 5.01988 4.73707 5.4085 4.73707 5.80284C4.73707 5.89999 4.73707 5.99143 4.73707 6.08859C4.73707 6.10573 4.73707 6.12288 4.73707 6.14002C4.73155 6.26575 4.73154 6.3972 4.72602 6.52293C4.69845 7.08872 4.64329 7.64879 4.62675 8.20886C4.61571 8.58034 4.62123 8.95182 4.66536 9.3233C4.66536 9.34045 4.66535 9.3633 4.65432 9.37473C4.79221 9.48332 4.9301 9.58619 5.06799 9.68334C5.36583 9.90051 5.67473 10.1005 5.9836 10.2949C6.66754 10.7292 7.3625 11.135 8.0354 11.5864C8.07953 11.3236 8.22294 11.1007 8.4215 10.9521C8.68625 10.7578 9.03924 10.6949 9.3757 10.8606C9.49704 10.9235 9.60183 11.0092 9.67905 11.1178C9.75627 11.2207 9.81143 11.335 9.85555 11.455C9.92174 11.3293 9.99896 11.2093 10.0927 11.1064C10.2141 10.9692 10.363 10.8549 10.545 10.7749C10.8539 10.6435 11.1297 10.7006 11.3172 10.8664C11.4441 10.9807 11.5378 11.1521 11.5654 11.3636C11.8136 11.2035 12.0563 11.0378 12.299 10.8721C12.5306 10.712 12.7513 10.5463 12.9719 10.3749C13.4904 9.9691 13.9868 9.54047 14.5163 9.14042C14.6652 9.02611 14.8196 8.91753 14.9741 8.80894C15.0789 8.73465 15.1837 8.66036 15.2885 8.59178C15.283 8.58606 15.283 8.57463 15.283 8.5632C15.2278 7.81453 15.2388 7.08872 15.2995 6.36291C15.3105 6.23146 15.3215 6.0943 15.3381 5.96286C15.3491 5.87713 15.3547 5.79712 15.3657 5.71139C15.4264 5.20847 15.5146 4.69983 15.6139 4.19119C15.6525 3.98545 15.6966 3.77399 15.7132 3.55682C15.7242 3.41966 15.7242 3.2825 15.7021 3.14534C15.6966 3.11676 15.6856 3.03675 15.6635 2.96817C15.658 2.94531 15.6415 2.91674 15.636 2.8996C15.5863 2.88817 15.5256 2.88817 15.465 2.89388C15.2774 2.91103 15.0678 2.96246 14.9189 2.97961C14.6376 3.00818 14.3508 3.03104 14.064 3.0539C13.7772 3.07676 13.4959 3.09963 13.2091 3.11677C13.0657 3.1282 12.9222 3.13391 12.7844 3.14534C12.6796 3.15105 12.5748 3.15677 12.47 3.1682C11.5875 3.22535 10.705 3.2825 9.81694 3.29965C9.05578 3.31679 8.29463 3.31108 7.5445 3.26536H7.53902C7.45077 3.24821 7.35699 3.2425 7.25771 3.23678ZM12.2494 2.91674C12.0673 2.71671 11.8853 2.51098 11.7033 2.30524C11.433 1.98519 11.1628 1.65943 10.8815 1.35082C10.694 1.14508 10.5009 0.950768 10.2913 0.773602C10.2306 0.722166 10.1038 0.602152 9.97692 0.516427C9.93831 0.487852 9.89416 0.464994 9.85555 0.447849C9.83901 0.442134 9.82797 0.436417 9.81694 0.436417C9.79488 0.464992 9.76731 0.522141 9.7618 0.533571L9.39226 0.945055C9.12751 1.24224 8.8793 1.54513 8.6311 1.85374C8.38841 2.16236 8.14573 2.47669 7.90855 2.79673C7.8534 2.87102 7.79824 2.94532 7.73757 3.01962C8.42702 3.05391 9.12197 3.05391 9.81694 3.03676C10.6333 3.0139 11.4441 2.96818 12.2494 2.91674ZM16.8384 7.50591C16.4192 7.02585 15.9724 6.57436 15.5201 6.12859C15.5091 6.2086 15.5036 6.28861 15.4925 6.37434C15.4264 7.06586 15.4098 7.76309 15.4484 8.47176C15.9117 8.15743 16.375 7.84882 16.8218 7.51163C16.8328 7.51163 16.8328 7.51163 16.8384 7.50591ZM9.81694 0.436417C9.82797 0.436417 9.85558 0.436417 9.85007 0.419272C9.84455 0.413557 9.83349 0.419272 9.81694 0.436417ZM9.27642 6.51722C9.10544 6.66009 8.89033 6.7401 8.65867 6.7401C8.38289 6.7401 8.13468 6.6258 7.95818 6.44292C7.77616 6.26004 7.67139 6.00286 7.67139 5.72283C7.6769 5.44279 7.7872 5.19133 7.96922 5.00845C8.15123 4.83128 8.39393 4.71698 8.66419 4.72269V4.71697C8.93446 4.71697 9.18267 4.82556 9.35917 5.00845C9.36468 5.01416 9.37018 5.01988 9.37018 5.01988C9.45291 4.93415 9.5522 4.86557 9.657 4.80842L9.65148 4.8027C9.92174 4.65983 10.2196 4.64269 10.4899 4.73413C10.7601 4.82557 10.9973 5.01988 11.1352 5.2942C11.2731 5.57423 11.2896 5.88285 11.2014 6.16289C11.1131 6.44292 10.9201 6.68295 10.6498 6.82582C10.374 6.9687 10.0707 6.98013 9.80041 6.88869C9.59633 6.82582 9.41431 6.69438 9.27642 6.51722ZM9.2985 5.09989C9.29299 5.09417 9.28746 5.08846 9.28194 5.08274C9.12199 4.91701 8.90136 4.81414 8.65867 4.81414V4.80842C8.41598 4.80842 8.19536 4.91701 8.0354 5.08274C7.88096 5.24848 7.7817 5.47136 7.7817 5.72283C7.7817 5.96857 7.88097 6.19145 8.04092 6.35147C8.20088 6.5115 8.41598 6.61437 8.65315 6.61437C8.86274 6.61437 9.05579 6.54007 9.20471 6.41434C9.18817 6.38577 9.17164 6.35148 9.15509 6.32291C9.02272 6.04287 9.01167 5.73425 9.09992 5.45993C9.14404 5.32848 9.21025 5.20847 9.2985 5.09989ZM9.36469 6.43721C9.48603 6.59723 9.65149 6.71152 9.83903 6.77439C10.0817 6.8544 10.352 6.84297 10.5947 6.71724C10.8374 6.59151 11.0083 6.37433 11.0911 6.12859C11.1683 5.88284 11.1573 5.6028 11.0359 5.35134C10.9146 5.09988 10.705 4.92272 10.4623 4.83699C10.2196 4.75127 9.94382 4.7627 9.69561 4.88843V4.88271C9.59633 4.93415 9.50258 5.00845 9.43087 5.08846C9.56876 5.25991 9.65148 5.48279 9.65148 5.7171C9.65148 6.00286 9.54119 6.25432 9.36469 6.43721ZM9.2985 6.33433C9.44191 6.17431 9.53567 5.96286 9.53567 5.72283C9.53567 5.51708 9.46948 5.32848 9.35917 5.17418C9.28746 5.27133 9.23229 5.37421 9.19919 5.48851C9.12197 5.73997 9.13852 6.01429 9.26538 6.26575C9.27089 6.28861 9.28196 6.31147 9.2985 6.33433ZM6.42485 9.70621C6.39727 9.70621 6.37519 9.68335 6.37519 9.66049C6.37519 9.63191 6.39726 9.61477 6.41933 9.60905C6.55722 9.59762 6.70063 9.5919 6.83852 9.58619C6.93229 9.58047 7.02606 9.58047 7.11982 9.58047C7.18049 9.58047 7.24666 9.58047 7.30733 9.58619C7.4011 9.5919 7.49487 9.59762 7.58864 9.60333C7.6107 9.60333 7.63277 9.62048 7.62725 9.64905C7.62725 9.67191 7.6107 9.68906 7.58864 9.68906C7.49487 9.69478 7.4011 9.70049 7.30733 9.70049C7.24666 9.70049 7.18049 9.70621 7.11982 9.70621C7.02606 9.70621 6.93229 9.70621 6.83852 9.70621C6.70614 9.71192 6.56274 9.70621 6.42485 9.70621ZM8.91792 9.74621C8.89035 9.74621 8.87379 9.72335 8.87379 9.69477C8.87379 9.6662 8.89583 9.64905 8.92341 9.64905C9.05579 9.64905 9.18818 9.64906 9.32055 9.64334C9.4088 9.64334 9.49704 9.64334 9.58529 9.64334C9.64597 9.64334 9.70113 9.64905 9.7618 9.64905C9.85005 9.65477 9.93829 9.66048 10.0265 9.6662C10.0486 9.6662 10.0707 9.68334 10.0707 9.71192C10.0707 9.73478 10.0486 9.75764 10.0265 9.75764C9.91622 9.76336 9.80593 9.76907 9.69561 9.77478C9.61839 9.77478 9.54668 9.77478 9.47497 9.77478C9.40327 9.77478 9.32607 9.76907 9.25437 9.76335C9.13854 9.75764 9.02824 9.75192 8.91792 9.74621ZM11.4385 9.68906C11.411 9.68906 11.3889 9.67192 11.3889 9.64334C11.3889 9.61477 11.411 9.59762 11.4331 9.59191C11.5765 9.58048 11.7198 9.57476 11.8633 9.56333C11.957 9.55762 12.0508 9.5519 12.1501 9.54619C12.2438 9.54047 12.3376 9.54047 12.4369 9.54047C12.5803 9.54047 12.7237 9.54047 12.8671 9.54047C12.8892 9.54047 12.9112 9.55762 12.9112 9.58047C12.9112 9.60334 12.8947 9.6262 12.8726 9.6262C12.7568 9.63763 12.6465 9.64906 12.5307 9.65477C12.4534 9.66049 12.3762 9.6662 12.3045 9.67192C12.1887 9.67763 12.0784 9.67763 11.9625 9.68334C11.7805 9.68906 11.6095 9.68906 11.4385 9.68906ZM12.2273 8.96896C12.1997 8.96896 12.1777 8.9461 12.1832 8.92324C12.1832 8.89467 12.2052 8.87753 12.2328 8.87753C12.3266 8.87181 12.4203 8.87181 12.5141 8.8661C12.5748 8.8661 12.6355 8.8661 12.7016 8.8661C12.7402 8.8661 12.7844 8.87181 12.8285 8.87181C12.8892 8.87752 12.9498 8.88324 13.016 8.88895C13.0381 8.88895 13.0546 8.9061 13.0546 8.93467C13.0546 8.96325 13.0381 8.98039 13.016 8.98039C12.9554 8.98611 12.8892 8.99182 12.8285 8.99754C12.7899 8.99754 12.7458 9.00325 12.7016 9.00325C12.641 9.00325 12.5803 9.00325 12.5141 8.99754C12.4148 8.98039 12.3211 8.97468 12.2273 8.96896ZM14.0695 8.92896C14.0419 8.92896 14.0199 8.9061 14.0254 8.87753C14.0254 8.84895 14.0474 8.83181 14.075 8.83181C14.1192 8.82609 14.1633 8.82037 14.2074 8.82037C14.235 8.82037 14.2626 8.82037 14.2957 8.82037C14.3177 8.82037 14.3343 8.82609 14.3508 8.82609C14.3839 8.8318 14.4059 8.83752 14.439 8.84323C14.4611 8.84323 14.4777 8.86609 14.4777 8.88895C14.4777 8.91181 14.4556 8.92896 14.4336 8.92896C14.4005 8.93468 14.3729 8.94039 14.3453 8.94039C14.3232 8.94039 14.3067 8.94611 14.2846 8.94611C14.257 8.94611 14.2239 8.94611 14.1964 8.94039C14.1577 8.94039 14.1136 8.93468 14.0695 8.92896ZM7.33491 10.3463C7.30733 10.3463 7.28528 10.3291 7.28528 10.3006C7.28528 10.272 7.30184 10.2491 7.32942 10.2491C7.45628 10.2377 7.58313 10.2206 7.70448 10.2091C7.78721 10.2034 7.87544 10.1977 7.95818 10.192C8.01333 10.192 8.06849 10.192 8.12916 10.192C8.21189 10.192 8.30016 10.1977 8.38289 10.2034C8.40495 10.2034 8.42702 10.2206 8.42702 10.2434C8.42702 10.2663 8.41047 10.2891 8.38841 10.2891C8.30568 10.2948 8.22293 10.3006 8.13468 10.312C8.07952 10.3177 8.02437 10.3234 7.96922 10.3234C7.88648 10.3291 7.79822 10.3291 7.71549 10.3349C7.58863 10.3406 7.46177 10.3463 7.33491 10.3463ZM9.4805 10.2949C9.45292 10.2949 9.43087 10.272 9.43087 10.2491C9.43087 10.2206 9.45292 10.2034 9.4805 10.2034C9.57426 10.1977 9.66804 10.192 9.76732 10.192C9.82799 10.192 9.89416 10.1863 9.95483 10.1863C9.99896 10.1863 10.0376 10.192 10.0817 10.192C10.1424 10.1977 10.2086 10.2034 10.2692 10.2091C10.2913 10.2091 10.3078 10.2263 10.3078 10.2548C10.3078 10.2777 10.2858 10.2949 10.2637 10.2949C10.1865 10.3006 10.1038 10.3063 10.0265 10.312C9.97138 10.312 9.92175 10.3177 9.8666 10.3177C9.81144 10.3177 9.76181 10.3177 9.70666 10.312C9.64047 10.3063 9.55771 10.3006 9.4805 10.2949ZM11.5158 10.2434C11.4937 10.2434 11.4661 10.2263 11.4661 10.1977C11.4606 10.1691 11.4827 10.1463 11.5102 10.1463C11.6095 10.1348 11.7143 10.1234 11.8191 10.112C11.8853 10.1063 11.957 10.1005 12.0287 10.0948C12.0949 10.0891 12.1666 10.0891 12.2328 10.0891C12.3376 10.0891 12.4369 10.0891 12.5417 10.0891C12.5637 10.0891 12.5858 10.1063 12.5858 10.1291C12.5858 10.152 12.5692 10.1748 12.5472 10.1748C12.4645 10.1863 12.3817 10.1977 12.299 10.2034C12.2438 10.2091 12.1887 10.2148 12.1335 10.2206C12.0508 10.2263 11.968 10.2263 11.8853 10.232C11.764 10.2377 11.6371 10.2377 11.5158 10.2434ZM13.7551 8.44318C13.7275 8.44318 13.7055 8.42032 13.711 8.39746C13.711 8.36888 13.733 8.35174 13.7551 8.35174C13.8434 8.34602 13.9371 8.34031 14.0254 8.34031C14.086 8.34031 14.1467 8.34031 14.2074 8.34031C14.246 8.34031 14.2846 8.34602 14.3288 8.35174C14.3894 8.35745 14.4501 8.36889 14.5052 8.3746C14.5273 8.3746 14.5438 8.39746 14.5438 8.42032C14.5438 8.44318 14.5218 8.46032 14.4997 8.46032C14.4391 8.46032 14.3784 8.46604 14.3177 8.47176C14.2791 8.47176 14.2405 8.47176 14.1964 8.47176C14.1357 8.47176 14.075 8.46604 14.0144 8.46604C13.9316 8.45461 13.8434 8.44318 13.7551 8.44318ZM5.98912 9.02612C5.96155 9.02612 5.94499 9.00325 5.94499 8.98039C5.94499 8.95182 5.96703 8.93467 5.99461 8.93467C6.09941 8.93467 6.20973 8.92896 6.31453 8.92324C6.38623 8.92324 6.45794 8.91753 6.52965 8.92324C6.57929 8.92324 6.62893 8.92896 6.67306 8.92896C6.74476 8.93468 6.81644 8.94039 6.88814 8.94611C6.9102 8.94611 6.92675 8.96897 6.92675 8.99183C6.92675 9.01469 6.90472 9.03183 6.88265 9.03183C6.7944 9.03754 6.70061 9.04326 6.61236 9.04897C6.55169 9.04897 6.49105 9.05469 6.43589 9.05469C6.37522 9.05469 6.31454 9.05469 6.25386 9.04897C6.17113 9.03754 6.08289 9.03183 5.98912 9.02612ZM7.87546 9.0604C7.84788 9.0604 7.83133 9.03754 7.83133 9.01468C7.83133 8.99182 7.8534 8.96896 7.88098 8.96896C8.063 8.96896 8.23949 8.96325 8.4215 8.96325C8.54285 8.96325 8.65869 8.96325 8.78003 8.96896C8.85725 8.96896 8.93998 8.97468 9.0172 8.98039C9.13855 8.98611 9.25435 8.99182 9.3757 9.00325C9.39776 9.00325 9.41983 9.0204 9.41983 9.04897C9.41983 9.07183 9.39776 9.08898 9.3757 9.08898C9.25435 9.0947 9.13855 9.0947 9.0172 9.10041C8.93998 9.10041 8.85725 9.10041 8.78003 9.10041C8.65869 9.10041 8.54285 9.09469 8.4215 9.09469C8.23397 9.07755 8.05196 9.06612 7.87546 9.0604ZM10.2527 9.02612C10.2251 9.02612 10.203 9.00325 10.203 8.98039C10.203 8.95753 10.2251 8.93467 10.2472 8.93467C10.3575 8.92896 10.4733 8.92324 10.5891 8.91753C10.6664 8.91753 10.7381 8.91182 10.8153 8.91182C10.8649 8.91182 10.9146 8.91753 10.9642 8.91753C11.0414 8.92324 11.1131 8.92896 11.1904 8.93467C11.2124 8.93467 11.229 8.95182 11.229 8.98039C11.229 9.00897 11.2069 9.0204 11.1848 9.0204C11.1076 9.02612 11.0359 9.03183 10.9587 9.03183C10.909 9.03183 10.8594 9.03755 10.8098 9.03755C10.7326 9.03755 10.6608 9.03755 10.5836 9.03755C10.4788 9.03183 10.363 9.02612 10.2527 9.02612ZM5.75192 7.94597C5.72986 7.94597 5.70782 7.92311 5.70782 7.90025C5.70782 7.87168 5.72987 7.85453 5.75744 7.85453C5.84569 7.84882 5.92845 7.84882 6.0167 7.84882C6.07185 7.84882 6.13252 7.84882 6.18768 7.84882C6.24284 7.84882 6.30351 7.85453 6.35866 7.86024C6.44691 7.86596 6.52963 7.88311 6.61788 7.89454C6.63994 7.89454 6.65649 7.9174 6.65649 7.94026C6.65649 7.96312 6.63442 7.98026 6.61236 7.98026C6.54066 7.98026 6.4745 7.98598 6.4028 7.98598C6.35867 7.98598 6.30903 7.98598 6.26491 7.98598C6.19872 7.98598 6.12698 7.98027 6.0608 7.97455C5.96152 7.96312 5.85672 7.95169 5.75192 7.94597ZM7.53902 7.99741C7.51695 7.99741 7.48936 7.98026 7.48936 7.95169C7.48936 7.92311 7.50592 7.90597 7.53349 7.90025C7.64381 7.89454 7.74859 7.88311 7.8589 7.8774C7.9306 7.87168 8.00231 7.87168 8.07402 7.87168C8.14572 7.87168 8.21743 7.87168 8.28913 7.8774C8.39945 7.88311 8.50422 7.89454 8.61454 7.90596C8.6366 7.90596 8.65315 7.92883 8.65315 7.95169C8.65315 7.97455 8.63111 7.9917 8.60905 7.9917C8.5208 7.9917 8.43805 7.99741 8.3498 7.99741C8.29464 7.99741 8.23397 7.99741 8.17881 7.99741C8.09056 7.99741 8.00785 7.99741 7.9196 7.99741C7.79825 8.00312 7.66588 7.99741 7.53902 7.99741ZM9.51911 8.00884C9.49153 8.00884 9.46949 7.98598 9.46949 7.96312C9.46949 7.93454 9.49153 7.9174 9.51359 7.91169C9.61287 7.90597 9.71217 7.90026 9.81145 7.89454C9.87764 7.89454 9.94382 7.88882 10.01 7.88882C10.0762 7.88882 10.1424 7.88883 10.2086 7.89454C10.3078 7.90026 10.4071 7.91168 10.5064 7.9174C10.5285 7.9174 10.545 7.94026 10.545 7.96312C10.545 7.98598 10.523 8.00312 10.5009 8.00312C10.4182 8.00883 10.341 8.00884 10.2637 8.01455C10.2086 8.01455 10.1589 8.02027 10.1038 8.02027C10.0265 8.02027 9.94382 8.02027 9.8666 8.01455C9.7618 8.02027 9.64045 8.01455 9.51911 8.00884ZM11.2345 7.96883C11.2069 7.96883 11.1904 7.94597 11.1848 7.92311C11.1848 7.89453 11.2069 7.8774 11.2345 7.8774C11.3558 7.87168 11.4772 7.86596 11.5985 7.86024C11.6812 7.86024 11.764 7.85453 11.8467 7.86024C11.9019 7.86024 11.957 7.86596 12.0122 7.86596C12.0949 7.87168 12.1777 7.87739 12.2604 7.88882C12.2825 7.88882 12.299 7.91168 12.299 7.93454C12.299 7.9574 12.2769 7.97455 12.2549 7.97455C12.1556 7.97455 12.0508 7.98026 11.9515 7.98598C11.8853 7.98598 11.8136 7.98598 11.7474 7.98598C11.6812 7.98598 11.6095 7.98598 11.5433 7.98026C11.4385 7.97455 11.3337 7.96883 11.2345 7.96883ZM13.0657 7.92311C13.0381 7.92311 13.0216 7.90025 13.0216 7.87168C13.0216 7.8431 13.0436 7.82595 13.0712 7.82595C13.2036 7.82595 13.3359 7.82024 13.4683 7.82024C13.5566 7.82024 13.6448 7.82024 13.7331 7.82595C13.7937 7.82595 13.8489 7.83167 13.9096 7.83739C13.9978 7.8431 14.0861 7.85453 14.1743 7.86596C14.1964 7.86596 14.2129 7.88883 14.2129 7.91169C14.2129 7.93455 14.1908 7.95169 14.1688 7.95169C14.0585 7.95169 13.9482 7.95169 13.8379 7.95169C13.7662 7.95169 13.6944 7.95169 13.6172 7.94597C13.5455 7.94597 13.4738 7.94026 13.3966 7.93454C13.2863 7.94026 13.176 7.93454 13.0657 7.92311ZM5.71883 8.50605C5.69125 8.50605 5.66921 8.48318 5.66921 8.46032C5.66921 8.43175 5.69125 8.4146 5.71883 8.4146C5.81811 8.40889 5.92294 8.40318 6.02222 8.40318C6.0884 8.40318 6.16011 8.39746 6.22629 8.40318C6.29248 8.40318 6.36418 8.40889 6.43037 8.40889C6.52965 8.41461 6.63444 8.42604 6.73372 8.43747C6.75578 8.43747 6.77234 8.46033 6.77234 8.48319C6.77234 8.50605 6.75026 8.52319 6.7282 8.52319C6.64547 8.52319 6.56273 8.52891 6.48551 8.52891C6.43036 8.52891 6.37521 8.52891 6.32005 8.52891C6.23731 8.52891 6.15458 8.52319 6.07736 8.52319C5.96705 8.51748 5.84017 8.50605 5.71883 8.50605ZM7.88647 8.4889C7.85889 8.4889 7.84237 8.46604 7.84237 8.43747C7.84237 8.40889 7.86441 8.39175 7.89199 8.39175C8.01885 8.39746 8.14571 8.39174 8.26705 8.39746C8.34978 8.39746 8.43805 8.39746 8.52078 8.40318C8.57594 8.40318 8.63109 8.40889 8.69176 8.4146C8.7745 8.42032 8.86276 8.43175 8.9455 8.43747C8.96756 8.43747 8.98411 8.46033 8.98411 8.48319C8.98411 8.50605 8.96204 8.52319 8.93997 8.52319C8.83518 8.52319 8.73038 8.52891 8.62558 8.52891C8.55388 8.52891 8.48769 8.52891 8.41598 8.52891C8.34428 8.52891 8.27257 8.52319 8.20639 8.51748C8.09607 8.51176 7.99127 8.50033 7.88647 8.4889ZM10.0376 8.55177C10.0155 8.55177 9.99345 8.52891 9.99345 8.50605C9.99345 8.47747 10.0155 8.46032 10.0431 8.46032C10.181 8.46032 10.3189 8.4489 10.4568 8.4489C10.5505 8.4489 10.6443 8.44318 10.7381 8.44318C10.7987 8.44318 10.8594 8.44319 10.9256 8.4489C11.0194 8.45462 11.1076 8.46033 11.2069 8.46604C11.229 8.46604 11.2455 8.48319 11.2455 8.51177C11.2455 8.54034 11.2234 8.55177 11.2014 8.55177C11.0855 8.55748 10.9697 8.5632 10.8539 8.56891C10.7767 8.57463 10.6995 8.57462 10.6222 8.57462C10.545 8.57462 10.4678 8.57463 10.3906 8.56891C10.2692 8.5632 10.1534 8.55748 10.0376 8.55177ZM12.0011 8.4889C11.9736 8.4889 11.957 8.46604 11.957 8.43747C11.957 8.40889 11.9791 8.39175 12.0067 8.39175C12.1225 8.39175 12.2383 8.39175 12.3542 8.38603C12.4314 8.38603 12.5086 8.38603 12.5858 8.38603C12.641 8.38603 12.6906 8.39175 12.7403 8.39175C12.8175 8.39746 12.8947 8.40317 12.9719 8.4146C12.994 8.4146 13.0105 8.43746 13.0105 8.46032C13.0105 8.48318 12.9884 8.50033 12.9664 8.50033C12.8671 8.50605 12.7733 8.51177 12.6741 8.51177C12.6079 8.51177 12.5472 8.51177 12.481 8.51177C12.4148 8.51177 12.3542 8.50605 12.288 8.50605C12.1997 8.50605 12.1004 8.50033 12.0011 8.4889Z" fill="#133F24"/>
</svg>
