<svg width="24" height="26" viewBox="0 0 24 26" fill="none" xmlns="http://www.w3.org/2000/svg">
<path fill-rule="evenodd" clip-rule="evenodd" d="M1.0841 12.6936C4.53349 9.05628 10.9562 5.9318 16.0601 7.58871C18.6042 8.41717 24.5196 16.0863 22.8808 18.8241C21.3824 21.3332 18.5652 20.9703 16.1069 21.7198C13.7735 22.4299 11.9629 23.8501 9.43444 24.0079C4.47107 24.3235 -0.00064981 20.2049 0.998268 15.1789C1.08411 14.6976 1.0841 12.6936 1.0841 12.6936Z" fill="#FFF0E0"/>
<path fill-rule="evenodd" clip-rule="evenodd" d="M18.2315 10.5506C18.2752 10.6772 18.325 10.8039 18.3749 10.9242C18.8801 12.0516 19.9029 13.0649 20.3769 14.0972C20.539 14.4519 20.6139 14.8255 20.6326 15.1992C20.6763 16.0415 20.4518 16.9218 20.4268 17.7452C20.4019 18.4988 20.4455 19.2525 20.5453 20.0061C20.6388 20.7598 20.7823 21.5135 20.9444 22.2418C21.0567 22.7421 21.1939 23.4071 21.1752 24.0214C21.1627 24.4648 21.0691 24.8891 20.8446 25.2247C20.8259 25.2501 20.801 25.2754 20.7573 25.2944C20.7261 25.3071 20.6762 25.3197 20.6201 25.3261C20.4642 25.3387 20.1898 25.3261 20.1399 25.3261C19.8156 25.3261 19.4851 25.3134 19.1545 25.2881C18.824 25.2628 18.4935 25.2248 18.1692 25.1678C17.2898 25.0031 16.4228 24.7814 15.5435 24.5914C15.1693 24.5091 14.8014 24.4331 14.4209 24.3761C13.9095 24.2938 13.3981 24.2304 12.8929 24.1861C12.1196 24.1164 11.3462 24.0721 10.5729 24.0151C9.84944 23.9644 9.13225 23.9011 8.4088 23.8948C7.93481 23.8884 7.4608 23.9074 6.98058 23.9644C6.22595 24.0531 5.49005 24.2621 4.74165 24.3888C4.41111 24.4458 4.08058 24.4838 3.7438 24.4901C3.45692 24.4964 3.15754 24.4838 2.87066 24.4458C2.57753 24.4078 2.2844 24.3444 2.00375 24.2431C1.92891 24.2178 1.71061 24.1418 1.59211 24.0531C1.52351 24.0024 1.48612 23.9454 1.46741 23.8948C1.4487 23.8314 1.46114 23.7174 1.50479 23.5908C1.59834 23.3248 1.81667 22.9194 1.86032 22.7738C1.99753 22.2924 2.13473 21.7985 2.24075 21.2981C2.34677 20.7978 2.43409 20.2975 2.48399 19.8035C2.51517 19.4488 2.51518 19.0942 2.49023 18.7395C2.39668 17.2892 1.96009 15.8769 2.07859 14.4139C2.12225 13.8692 2.25325 13.3435 2.42164 12.8306C2.67734 12.0642 3.02656 11.3232 3.32592 10.5632C3.30097 10.5506 3.26979 10.5316 3.24484 10.5126C3.19495 10.4809 3.15131 10.4492 3.10765 10.4049C2.84571 10.1642 2.83948 9.92358 2.95174 9.71459C3.07023 9.49926 3.33842 9.30926 3.58789 9.20793C3.46315 9.01159 3.33843 8.8216 3.20746 8.6316C3.08273 8.45427 2.95175 8.28327 2.81455 8.1186C2.71476 7.99827 2.52765 7.82094 2.40915 7.63728C2.34055 7.53594 2.29685 7.43461 2.28437 7.33961C2.25319 7.04828 2.40915 6.80129 2.64615 6.61129C2.71475 6.55429 2.79582 6.50996 2.8769 6.46562C2.7584 6.32629 2.63362 6.19329 2.51513 6.06029C2.35921 5.88929 2.19712 5.7183 2.03497 5.55363C1.96013 5.47763 1.82292 5.3763 1.72314 5.27497C1.66077 5.21164 1.61706 5.1483 1.59211 5.0913C1.5734 5.0533 1.5734 5.00264 1.59211 4.94564C1.61706 4.86331 1.70436 4.75564 1.73555 4.72398C1.81038 4.63531 1.91022 4.55931 2.01624 4.49598C1.97258 4.43265 1.92888 4.36931 1.89146 4.30598C1.86028 4.25531 1.83533 4.21098 1.81662 4.16031C1.7792 4.07165 1.8104 3.94498 1.90395 3.81832C2.02868 3.64732 2.25947 3.46366 2.33431 3.41932C2.60873 3.22932 2.92053 3.08999 3.24484 2.97599C3.71259 2.81766 4.2053 2.729 4.66681 2.615L5.35907 2.43767C5.53993 2.387 5.72079 2.33634 5.89541 2.27934C6.01391 2.24134 6.13245 2.20967 6.25094 2.16534C6.30707 2.14634 6.44425 2.083 6.5378 2.05767C6.59393 2.045 6.64381 2.045 6.68123 2.05134C6.7436 2.064 6.82465 2.12734 6.88702 2.22234C6.96186 2.34267 7.03047 2.52 7.05542 2.58333C7.09284 2.67833 7.13028 2.77966 7.15523 2.88099C7.24877 3.19132 7.29867 3.51432 7.39222 3.82465C7.54814 3.60299 7.70403 3.38766 7.84124 3.15966C7.97221 2.94433 8.09074 2.72266 8.18429 2.49467C8.21547 2.406 8.2529 2.32367 8.27785 2.235C8.32151 2.102 8.36514 1.96901 8.4088 1.83601C8.42751 1.77901 8.43998 1.67134 8.48363 1.61434C8.51482 1.57001 8.55844 1.54468 8.60209 1.53201C8.76425 1.48768 8.9514 1.51934 9.12602 1.58901C9.2071 1.62068 9.28819 1.65868 9.36926 1.70301C9.41292 1.62701 9.45655 1.55101 9.50021 1.46868C9.54386 1.39268 9.59374 1.31668 9.6374 1.24068C9.66234 1.20268 9.70603 1.12035 9.74969 1.06968C9.77464 1.03802 9.79958 1.01901 9.82453 1.00635C9.85571 0.993682 9.89933 0.981016 9.94923 0.987349C10.0365 0.993683 10.1551 1.03801 10.205 1.05068C10.3234 1.08235 10.4357 1.13302 10.5417 1.18368C10.5853 1.20268 10.629 1.22801 10.6727 1.25335C10.7413 1.19635 10.8161 1.13935 10.8785 1.08235C10.9533 1.01902 11.0282 0.949348 11.103 0.879683C11.1342 0.848016 11.1965 0.765684 11.2464 0.721351C11.2776 0.689685 11.315 0.677018 11.34 0.664351C11.4024 0.645352 11.5022 0.664352 11.6082 0.721351C11.7454 0.791017 11.9138 0.924016 11.9761 0.962016C12.2194 1.12035 12.4564 1.25968 12.6934 1.39268C12.9304 1.52568 13.1735 1.64601 13.4355 1.75367C13.7037 1.86767 13.9844 1.988 14.2588 2.102C14.4459 2.178 14.6267 2.24767 14.8138 2.311C14.8949 2.34267 15.1131 2.38067 15.2192 2.45033C15.3065 2.50733 15.3502 2.58333 15.3502 2.66567C15.3502 2.90633 15.2566 3.13433 15.1132 3.34966C14.9323 3.62832 14.6704 3.88165 14.4958 4.10331C14.2338 4.43264 13.9906 4.78731 13.766 5.15464C13.66 5.32563 13.5665 5.5093 13.4729 5.68663C13.4979 5.6613 13.5291 5.6423 13.554 5.61697C13.8659 5.35097 14.1902 5.10397 14.4958 4.83797C14.8949 4.49598 15.2816 4.14131 15.6745 3.79932C15.9427 3.57132 16.2108 3.34332 16.4852 3.12799C16.7659 2.91266 17.0839 2.558 17.4332 2.33634C17.6078 2.22234 17.7949 2.14634 17.9758 2.121C18.0631 2.10834 18.1317 2.12734 18.1878 2.159C18.2315 2.18434 18.2752 2.22867 18.3063 2.273C18.3313 2.311 18.3625 2.35533 18.3937 2.39967C18.4498 2.47567 18.5059 2.55167 18.5621 2.62766C18.6868 2.805 18.8053 2.98233 18.9362 3.15332C19.036 3.28632 19.1421 3.40666 19.2543 3.52065C19.5225 3.80565 19.8156 4.07165 20.0713 4.36931C20.1212 4.43265 20.1773 4.48964 20.221 4.55931C20.2521 4.60998 20.2833 4.66064 20.3083 4.71131C20.3145 4.72398 20.3582 4.81897 20.3582 4.85697C20.3645 4.90764 20.3457 4.94564 20.327 4.96464C20.2771 5.02164 20.2272 5.07864 20.1711 5.1293C20.0775 5.21797 19.9778 5.30664 19.8905 5.40164C19.9528 5.47763 20.0464 5.61063 20.09 5.71196C20.1274 5.80063 20.1274 5.87663 20.1025 5.92096C20.0838 5.95896 20.0526 6.00329 19.9964 6.04129C19.8967 6.11729 19.7283 6.20596 19.6659 6.25662C19.4663 6.42129 19.2543 6.57962 19.0547 6.73795C19.036 6.75062 19.0173 6.76962 18.9986 6.78229C19.404 6.69995 19.8093 6.63029 20.221 6.59862C20.2771 6.59229 20.3083 6.61129 20.327 6.63029C20.3582 6.65562 20.3769 6.68729 20.3769 6.72529C20.3769 6.75062 20.3769 6.78229 20.3582 6.82028C20.3395 6.85195 20.2896 6.90262 20.2709 6.93428L20.1336 7.15595C20.065 7.26361 19.9902 7.37128 19.9154 7.47261C19.8405 7.57394 19.7594 7.68161 19.6784 7.78294C19.3354 8.20727 18.8302 8.53027 18.4435 8.93559C18.3437 9.03693 18.2564 9.14459 18.1816 9.26493C18.3375 9.29026 18.4809 9.39159 18.5745 9.52459C18.6805 9.67025 18.7304 9.85392 18.6805 10.0249C18.6493 10.1516 18.5745 10.2592 18.4872 10.3606C18.4311 10.4302 18.3313 10.4999 18.2315 10.5506ZM17.7201 3.05199C17.7013 3.02033 17.6827 3.00133 17.6639 3.02033C17.6328 3.04566 17.6764 3.05199 17.7201 3.05199ZM3.46935 6.25029C3.5629 6.23129 3.65648 6.21862 3.73132 6.21862C3.91218 6.21862 4.09303 6.25029 4.26766 6.29462C4.65433 6.39596 5.03479 6.58595 5.39028 6.69995C5.8705 6.85195 6.34444 6.99128 6.82467 7.08628C7.18015 7.15595 7.54187 7.20028 7.90983 7.21295C7.74768 7.06095 7.58553 6.89629 7.44209 6.72529C7.31112 6.56696 7.19891 6.40229 7.10536 6.22496C6.96192 5.95263 6.83716 5.6613 6.69372 5.38263C6.63135 5.26863 6.56894 5.1483 6.4941 5.04064C6.43797 4.95197 6.37565 4.85064 6.30705 4.76197C6.26339 4.70497 6.21351 4.65431 6.15738 4.60998C6.12619 4.58464 6.08875 4.57831 6.05133 4.57198C5.93283 4.55298 5.79565 4.56564 5.68339 4.50865C5.62102 4.47698 5.56489 4.43898 5.52123 4.38831C5.42768 4.29331 5.35282 4.16665 5.2655 4.05898C5.25303 4.04631 5.22809 4.01465 5.19691 3.98298C5.19067 3.97665 5.17818 3.97032 5.17194 3.96398C5.12205 3.97665 5.07216 3.99565 5.02227 4.01465C4.87882 4.06532 4.74166 4.12865 4.59822 4.17298C4.53585 4.19198 4.46721 4.21098 4.40485 4.23631C4.14914 4.31231 3.88721 4.38198 3.63151 4.46431C3.5442 4.48964 3.39455 4.53398 3.27605 4.60364C3.21369 4.63531 3.15756 4.67331 3.12638 4.71764C3.13885 4.74297 3.16377 4.79364 3.17 4.79997C3.18871 4.85064 3.20122 4.90131 3.20746 4.95831C3.2137 5.00897 3.2137 5.06597 3.20746 5.11664C3.20122 5.1863 3.18246 5.25597 3.15127 5.3193C3.12009 5.3763 3.08271 5.4333 3.03906 5.48397C3.03282 5.4903 2.98291 5.5473 2.94549 5.5853C3.05775 5.73096 3.16379 5.8703 3.27605 6.00963C3.34466 6.09829 3.40698 6.17429 3.46935 6.25029ZM13.8534 2.843C13.8596 2.81133 13.8596 2.79233 13.8409 2.79233C13.8035 2.79866 13.8284 2.824 13.8534 2.843ZM6.0326 3.28632C6.06378 3.29266 6.1075 3.29899 6.09503 3.27366C6.08255 3.25466 6.05755 3.26733 6.0326 3.28632ZM15.0383 2.672C15.0383 2.69733 15.0446 2.74166 15.0571 2.72266C15.0695 2.69733 15.0633 2.67833 15.0383 2.672ZM16.7722 4.50231C16.7597 4.49598 16.7534 4.49598 16.7534 4.50231H16.7597C16.7659 4.50231 16.7722 4.50231 16.7722 4.50231ZM17.8822 9.48026C17.876 9.45492 17.876 9.42959 17.8822 9.39792C17.982 9.16359 18.1255 8.9546 18.3001 8.77093C18.6743 8.3656 19.1733 8.04261 19.5038 7.61828C19.5786 7.51694 19.6535 7.42194 19.7283 7.31428C19.8032 7.21295 19.8717 7.10528 19.9403 7.00395L20.0089 6.89628C19.2044 6.99762 18.4249 7.23828 17.6266 7.33328C17.2399 7.37761 16.847 7.39028 16.4416 7.34595C15.5809 7.23828 14.7889 6.81395 13.9657 6.57962C13.6289 6.48462 13.2858 6.42129 12.9304 6.44029C11.6269 6.49729 10.5106 7.13061 9.2757 7.40928C8.95763 7.47894 8.63952 7.52961 8.30275 7.54228C7.88489 7.55494 7.47329 7.52328 7.07415 7.45995C6.47543 7.36495 5.89545 7.19395 5.3092 6.99762C5.00361 6.89628 4.68553 6.74429 4.36122 6.63029C4.15541 6.56062 3.94961 6.50996 3.7438 6.50996C3.50057 6.50996 3.10138 6.62395 2.8332 6.83295C2.66481 6.95962 2.54636 7.11795 2.56507 7.32061C2.5713 7.39661 2.6274 7.48528 2.68977 7.56761C2.80203 7.71961 2.9455 7.86527 3.02657 7.96027C3.17002 8.13127 3.30099 8.31494 3.42573 8.4986C3.57541 8.72026 3.71882 8.94193 3.86226 9.17626C3.88721 9.18893 3.90597 9.21426 3.9122 9.24593C3.9122 9.25226 3.91837 9.25859 3.91837 9.27126C3.93084 9.29026 3.93711 9.30293 3.94958 9.32192C3.96206 9.34092 3.97455 9.35992 3.97455 9.38526C3.98079 9.40426 3.97455 9.42326 3.97455 9.43592C3.98079 9.47392 3.96829 9.51192 3.94958 9.53726C3.90593 9.70192 3.85605 9.86659 3.80615 10.0249C3.81863 10.0376 3.83106 10.0503 3.84353 10.0566C3.9745 10.1706 4.12423 10.2466 4.28639 10.3036C4.45478 10.3606 4.62937 10.3922 4.804 10.4112C5.3154 10.4619 5.82679 10.3479 6.34443 10.2149C6.88078 10.0756 7.41717 9.91725 7.94105 9.87925C8.42127 9.84759 8.89527 9.91092 9.35678 10.1769C9.60001 10.3162 9.79957 10.4936 9.9742 10.6962C10.3359 10.7469 10.6976 10.7976 11.0656 10.8356C11.2901 10.8546 11.5146 10.8736 11.7391 10.8862C11.9637 10.7786 12.2069 10.6899 12.4376 10.6202C12.8118 10.4999 13.1923 10.3986 13.579 10.3416C13.8409 10.3036 14.1091 10.2846 14.3772 10.3036C14.9635 10.3352 15.5435 10.4556 16.1298 10.5252C16.373 10.5569 16.6162 10.5759 16.8656 10.5696C17.2087 10.5696 17.6203 10.4556 17.8386 10.2086C17.8635 10.1769 17.8885 10.1452 17.9072 10.1136C17.8698 9.90458 17.8635 9.69559 17.8822 9.48026ZM10.6727 11.9249C10.7662 11.6652 10.9159 11.4309 11.1653 11.2282C11.1903 11.2092 11.2153 11.1902 11.2403 11.1712C11.1717 11.1649 11.0968 11.1586 11.0282 11.1522C10.7662 11.1269 10.5043 11.0952 10.2423 11.0572C10.417 11.3296 10.5542 11.6272 10.6727 11.9249ZM6.83091 10.3796C7.1365 10.3796 7.44207 10.3922 7.74143 10.4112C8.07821 10.4302 8.41499 10.4682 8.75177 10.5126C8.97628 10.5442 9.20085 10.5759 9.42537 10.6076C9.35053 10.5506 9.27569 10.4999 9.19462 10.4492C8.79547 10.2149 8.37762 10.1516 7.95353 10.1769C7.57933 10.2022 7.20511 10.2909 6.83091 10.3796ZM12.5312 10.9179C12.7245 10.9242 12.9179 10.9242 13.1112 10.9306C13.8035 10.9369 14.4957 10.9179 15.1755 10.8926C15.5186 10.8799 15.8927 10.8609 16.2669 10.8166C16.2108 10.8102 16.1547 10.8039 16.0923 10.7976C15.5123 10.7342 14.9386 10.6202 14.3586 10.5949C14.1091 10.5822 13.8658 10.6012 13.6226 10.6392C13.2484 10.6962 12.8867 10.7976 12.5312 10.9179ZM18.1629 10.3099C18.2253 10.2719 18.2876 10.2276 18.3375 10.1706C18.3998 10.1072 18.456 10.0249 18.481 9.94258C18.5122 9.84125 18.4809 9.72725 18.4186 9.63859C18.3562 9.54359 18.2564 9.47392 18.1504 9.46126C18.1317 9.46126 18.113 9.45492 18.1006 9.44226V9.44859C18.1193 9.46126 18.1317 9.48026 18.1442 9.50559C18.2502 9.77792 18.2315 9.99958 18.1379 10.1896C18.1442 10.2339 18.1567 10.2719 18.1629 10.3099ZM3.70635 10.2719C3.68763 10.3162 3.67519 10.3669 3.65648 10.4112C3.66895 10.4176 3.68139 10.4176 3.69386 10.4239C3.75623 10.4429 3.81862 10.4556 3.88099 10.4682C3.94336 10.4809 4.00575 10.4872 4.06188 10.4936C3.93091 10.4302 3.81237 10.3606 3.70635 10.2719ZM14.2088 6.30729C14.9635 6.54796 15.6932 6.93428 16.479 7.03562C16.8594 7.08628 17.2274 7.07362 17.5954 7.03562C17.6827 7.02295 17.77 7.01662 17.8636 7.00395C17.9634 6.92162 18.0694 6.83295 18.1629 6.74429C18.2939 6.63029 18.4186 6.50995 18.5433 6.38962C18.5995 6.33262 18.6805 6.26929 18.7429 6.19963C18.7678 6.16796 18.7928 6.12996 18.8115 6.09196C18.799 6.07929 18.7741 6.06029 18.7616 6.05396C18.7304 6.02229 18.7055 5.98429 18.6805 5.93996C18.6618 5.90196 18.6431 5.85763 18.6369 5.8133C18.6307 5.7753 18.6307 5.73096 18.6307 5.69296C18.6369 5.6233 18.6618 5.55363 18.6805 5.48397C18.6992 5.42697 18.7117 5.36997 18.7055 5.31297C18.7055 5.28763 18.6805 5.26864 18.6556 5.2433C18.5994 5.19264 18.5246 5.14197 18.4934 5.1103C18.3936 5.0153 18.2938 4.92031 18.2003 4.81897C18.1067 4.71764 18.0195 4.61631 17.9259 4.50865C17.901 4.47698 17.876 4.45164 17.8511 4.42631C17.8261 4.40098 17.7949 4.37565 17.7638 4.35665C17.7638 4.35665 17.7575 4.35031 17.745 4.34398C17.7138 4.38198 17.6826 4.42631 17.6515 4.45165C17.5766 4.51498 17.4894 4.56564 17.3958 4.59098C17.3023 4.62264 17.2024 4.62898 17.1026 4.61631C17.0652 4.60998 17.0278 4.60364 16.9904 4.59098C16.9405 4.57831 16.8906 4.55298 16.8407 4.53398C16.8283 4.52764 16.8095 4.50864 16.7908 4.49598C16.7846 4.50231 16.7784 4.50864 16.7722 4.51498L16.6286 4.64164C16.5351 4.72398 16.4416 4.79998 16.3418 4.88231C16.2482 4.95831 16.1485 5.0343 16.0487 5.1103C15.9177 5.2053 15.7805 5.3003 15.6433 5.3953C15.4375 5.5283 15.2317 5.6613 15.0259 5.7943C14.8076 5.93363 14.5893 6.07296 14.371 6.20596C14.3149 6.24396 14.2587 6.27563 14.2088 6.30729ZM13.342 6.11729C13.3607 6.11729 13.3856 6.12363 13.4044 6.12363C13.922 5.8513 14.4147 5.53463 14.8824 5.1863C15.3502 4.83797 15.7992 4.45164 16.2171 4.04631C16.4728 3.79932 16.6973 3.52065 16.9467 3.26732C17.0091 3.19766 17.0777 3.13433 17.1463 3.07099C17.2399 2.98866 17.3334 2.89999 17.4457 2.83666C17.533 2.786 17.6203 2.748 17.7138 2.729C17.7575 2.72266 17.8323 2.729 17.8947 2.79866C17.9633 2.87466 18.0694 3.11533 18.1006 3.15966C18.2128 3.35599 18.3313 3.54599 18.4498 3.74232C18.5683 3.93865 18.6867 4.12865 18.8052 4.31865C18.8801 4.43898 18.9736 4.54031 19.0734 4.63531C19.2917 4.83797 19.5412 5.00897 19.7532 5.21797C19.8405 5.1293 19.9341 5.04064 20.0214 4.95197C20.0526 4.92031 20.0838 4.88231 20.115 4.85064C20.1087 4.83797 20.1025 4.81897 20.1025 4.81897C20.0838 4.78097 20.0588 4.74298 20.0339 4.71131C19.9902 4.65431 19.9403 4.59731 19.8966 4.54664C19.6347 4.25531 19.3416 4.00198 19.0734 3.72332C18.9549 3.60299 18.8364 3.46999 18.7304 3.33699L18.1816 2.596C18.1441 2.54533 18.113 2.48833 18.0756 2.45033C18.0694 2.444 18.0631 2.43767 18.0569 2.43767C17.8635 2.463 17.6827 2.577 17.508 2.70366C17.2211 2.91899 16.953 3.20399 16.716 3.38766C16.5102 3.54599 16.3106 3.71065 16.1048 3.87532C15.6308 4.26165 15.1693 4.66064 14.6953 5.04697C14.3772 5.30664 14.0467 5.54097 13.7287 5.80063C13.5915 5.90196 13.4667 6.00963 13.342 6.11729ZM13.766 6.18696C13.8596 6.20596 13.9532 6.23129 14.0405 6.25662C14.1278 6.20596 14.2213 6.15529 14.3086 6.10463C14.5269 5.97163 14.7452 5.82596 14.9573 5.68663C15.1631 5.55363 15.3626 5.42063 15.5684 5.2813C15.6994 5.19264 15.8304 5.09764 15.9614 4.9963C16.0611 4.92031 16.1547 4.84431 16.2482 4.76831C16.3418 4.69231 16.4354 4.60998 16.5289 4.53398L16.6723 4.40731C16.6786 4.40098 16.7035 4.36931 16.7222 4.35665C16.7409 4.34398 16.7597 4.33765 16.7722 4.33765C16.7909 4.33765 16.8033 4.33765 16.8283 4.34398C16.8594 4.35665 16.8969 4.38198 16.9218 4.39465C16.9592 4.41365 16.9904 4.42631 17.0278 4.43898C17.059 4.45165 17.0964 4.45798 17.1338 4.46431C17.2087 4.47064 17.2898 4.46431 17.3584 4.43898C17.4332 4.41365 17.5018 4.37565 17.5579 4.32498C17.5891 4.29331 17.6203 4.24265 17.6577 4.21098C17.6702 4.19831 17.6889 4.18565 17.7014 4.17298C17.7139 4.16665 17.7388 4.15398 17.77 4.16031C17.7949 4.16665 17.8511 4.20465 17.8636 4.21098C17.901 4.23631 17.9384 4.26165 17.9695 4.29331C18.0007 4.32498 18.0319 4.35665 18.0631 4.39465C18.1504 4.49598 18.2378 4.59731 18.3251 4.69864C18.4124 4.79364 18.5121 4.88864 18.6057 4.98364C18.6493 5.02164 18.7429 5.08497 18.7991 5.15464C18.8365 5.19897 18.8614 5.24964 18.8677 5.29397C18.8739 5.36997 18.8552 5.44597 18.8364 5.52197C18.8177 5.57897 18.7991 5.6423 18.7928 5.70563C18.7928 5.73096 18.7866 5.7563 18.7928 5.78796C18.7991 5.81963 18.8052 5.8513 18.824 5.87663C18.8364 5.90196 18.8552 5.93363 18.8739 5.95263C18.8864 5.96529 18.9238 5.99063 18.9425 6.01596C18.9612 6.04129 18.9674 6.07296 18.9611 6.09196C18.9424 6.16163 18.9051 6.22496 18.8552 6.28196C18.7928 6.35796 18.7055 6.42129 18.6431 6.47829C18.5184 6.59862 18.3874 6.71262 18.2565 6.82662C18.2066 6.87095 18.1505 6.91528 18.1006 6.95962C18.2565 6.93428 18.4124 6.90262 18.5683 6.87095C18.6868 6.75695 18.8115 6.64295 18.9425 6.53529C19.1421 6.36429 19.3479 6.20596 19.5474 6.03496C19.5973 5.99063 19.7096 5.9273 19.8094 5.86396C19.8343 5.8513 19.8593 5.82596 19.878 5.80696C19.8343 5.74363 19.7096 5.55363 19.6846 5.52197C19.4539 5.2623 19.1483 5.07864 18.8925 4.85064C18.7741 4.74297 18.6619 4.62264 18.5683 4.47698C18.4249 4.24898 18.2751 4.01465 18.1317 3.78032C18.0381 3.62199 17.9384 3.46999 17.8511 3.31166C17.8324 3.28632 17.7949 3.12799 17.7513 3.04566C17.7139 3.05833 17.6764 3.07733 17.639 3.09632C17.5454 3.15332 17.4644 3.22932 17.3896 3.29266C17.3272 3.34966 17.2648 3.41299 17.2024 3.46999C16.9467 3.72332 16.716 4.00198 16.4541 4.24898C16.0175 4.65431 15.5559 5.04064 15.0632 5.38263C14.6329 5.6993 14.2026 5.95896 13.766 6.18696ZM11.7204 6.30096C11.7953 6.28196 11.8639 6.26296 11.9388 6.24396C12.0136 6.22496 12.0884 6.21229 12.1633 6.19329C12.3005 5.84496 12.4564 5.5093 12.631 5.17997C12.9179 4.63531 13.2422 4.10965 13.5478 3.57765C13.6226 3.45099 13.6974 3.32432 13.7536 3.19132C13.791 3.10899 13.8159 3.02666 13.8284 2.93799C13.8284 2.93166 13.8471 2.88733 13.8534 2.85566C13.7473 2.79866 13.6226 2.76066 13.4979 2.71633C13.2672 2.64666 13.0176 2.58967 12.8118 2.52633C12.394 2.39967 11.9949 2.273 11.6144 2.102C11.3525 1.988 11.103 1.85501 10.8598 1.69034C10.7225 1.59534 10.5854 1.50668 10.4357 1.43068C10.3422 1.38001 10.2486 1.34201 10.1426 1.31034C10.0989 1.29768 9.92426 1.19001 9.9305 1.25335C9.9305 1.25968 9.94299 1.24701 9.94923 1.24701C9.95546 1.24701 9.96171 1.24068 9.96171 1.24068C9.96171 1.24068 9.88686 1.35468 9.86815 1.38635C9.81826 1.45601 9.77462 1.52568 9.73096 1.60168C9.6873 1.67768 9.63743 1.74734 9.59377 1.82334C9.6499 1.85501 9.70603 1.89301 9.74969 1.91834C9.97421 2.05134 10.1987 2.159 10.4357 2.254C10.6727 2.349 10.9159 2.425 11.1716 2.48833C11.4211 2.55166 11.6768 2.60233 11.9325 2.653C12.1882 2.69733 12.4501 2.74166 12.7059 2.77333L13.0613 2.83666C13.0675 2.83666 13.1487 2.84933 13.1798 2.85566C13.2734 2.881 13.2983 2.957 13.3045 2.98233C13.3357 3.14699 13.3108 3.31799 13.2484 3.48265C13.1237 3.79932 12.8555 4.10331 12.6996 4.33131C12.4813 4.65431 12.2817 5.00264 12.1071 5.36363C11.9449 5.6613 11.814 5.97796 11.7204 6.30096ZM12.4252 6.15529C12.5873 6.12996 12.7432 6.11729 12.9116 6.11096C12.9615 6.11096 13.0114 6.11096 13.0613 6.11096C13.1923 5.74363 13.3669 5.3763 13.5603 5.02797C13.7723 4.64164 14.0218 4.26798 14.2775 3.92598C14.4459 3.70432 14.6891 3.45732 14.8637 3.17866C14.9635 3.02033 15.0384 2.84933 15.0446 2.67833C14.976 2.64033 14.7764 2.64033 14.7265 2.62766C14.5394 2.558 14.3523 2.482 14.159 2.406C13.8783 2.292 13.6039 2.16534 13.3295 2.045C13.0551 1.92467 12.8056 1.79167 12.5624 1.65234C12.3192 1.51301 12.0884 1.36101 11.8389 1.19635C11.7953 1.16468 11.6955 1.08868 11.5895 1.01902C11.5396 0.987349 11.4959 0.955683 11.4523 0.943017C11.446 0.936683 11.4335 0.936683 11.4211 0.93035C11.3961 0.962016 11.3151 1.04435 11.2901 1.06968C11.209 1.13935 11.1342 1.20901 11.0531 1.27868C11.0032 1.31668 10.9596 1.35468 10.9097 1.39268C10.9409 1.41168 10.9782 1.43701 11.0094 1.45601C11.2402 1.60801 11.4834 1.72834 11.7267 1.82967C12.1009 1.988 12.4938 2.10834 12.8929 2.22234C13.1049 2.28567 13.3544 2.33633 13.5852 2.406C13.7536 2.45667 13.9157 2.52 14.0592 2.596C14.0903 2.615 14.134 2.653 14.1465 2.72266C14.1652 2.79233 14.1402 2.95699 14.134 2.98866C14.1153 3.10266 14.0779 3.21666 14.0343 3.31799C13.9719 3.46366 13.8846 3.60299 13.8035 3.73599C13.4854 4.25531 13.1549 4.76831 12.8493 5.30664C12.7058 5.5853 12.5561 5.86396 12.4252 6.15529ZM11.2776 6.43396C11.3462 6.41496 11.4086 6.38962 11.4772 6.37062C11.5707 5.99063 11.7079 5.61063 11.8701 5.2433C12.0385 4.86331 12.2443 4.50231 12.4564 4.16665C12.5749 3.97665 12.7807 3.72965 12.9116 3.47632C12.9678 3.36232 13.0052 3.24833 13.0114 3.14066L12.6746 3.08366C12.3566 3.03933 12.0447 2.99499 11.7267 2.93799C11.5146 2.89999 11.3088 2.84933 11.0967 2.79866C10.8348 2.729 10.5791 2.64666 10.3297 2.54533C10.0802 2.444 9.83701 2.32367 9.60002 2.18434C9.45034 2.08934 9.24451 1.95001 9.0387 1.87401C8.93892 1.83601 8.83291 1.80434 8.73936 1.81701C8.73312 1.84867 8.72062 1.90567 8.70814 1.931C8.66449 2.07034 8.62085 2.20334 8.57095 2.34267C8.53977 2.43133 8.50232 2.52633 8.4649 2.615C8.36512 2.862 8.23416 3.08999 8.09072 3.31799C7.76642 3.82465 7.36724 4.29331 7.04293 4.78731C7.07412 4.87597 7.11156 4.96464 7.14274 5.04697C7.27995 4.84431 7.41718 4.63531 7.56062 4.43264C7.63546 4.32498 7.71029 4.22365 7.78513 4.11598C7.92857 3.92598 8.0658 3.72965 8.19677 3.53332C8.32774 3.33699 8.45871 3.13433 8.58344 2.93166C8.59591 2.91266 8.62086 2.89366 8.65828 2.88733C8.70193 2.881 8.77675 2.88099 8.79546 2.88099C8.87654 2.87466 8.95763 2.881 9.0387 2.87466C9.0886 2.86833 9.13223 2.862 9.17589 2.843C9.21331 2.824 9.25693 2.80499 9.29435 2.77966C9.33177 2.75433 9.36297 2.729 9.39416 2.69733C9.43781 2.653 9.45655 2.60233 9.50021 2.577C9.52515 2.558 9.55635 2.54533 9.59377 2.539C9.65614 2.53267 9.71846 2.539 9.78083 2.55167C9.8619 2.57067 9.94298 2.60867 10.0178 2.64033C10.2174 2.729 10.3983 2.84299 10.5916 2.93799C10.6353 2.96333 10.6852 2.98233 10.7351 3.00133C10.8411 3.04566 10.9534 3.08366 11.0656 3.10899C11.1779 3.14066 11.2901 3.15966 11.4086 3.17233C11.4834 3.17866 11.5707 3.17866 11.6518 3.18499C11.6955 3.18499 11.7329 3.19133 11.7704 3.20399C11.7891 3.21033 11.814 3.22299 11.8265 3.25466C11.8389 3.27999 11.8514 3.33699 11.8514 3.34966C11.8639 3.41299 11.8701 3.48266 11.8826 3.54599C11.8888 3.57132 11.8888 3.59665 11.8951 3.62199C11.92 3.71065 11.9575 3.77399 12.0136 3.82465C12.076 3.88165 12.1508 3.91965 12.2381 3.97032C12.2568 3.98298 12.2817 4.00198 12.2817 4.04631C12.2817 4.09065 12.263 4.19198 12.2568 4.21098C12.238 4.28065 12.2131 4.35031 12.1819 4.41365C12.1383 4.50231 12.0821 4.59098 12.0322 4.67331C11.8576 4.98364 11.7017 5.30664 11.5707 5.63597C11.446 5.88296 11.3525 6.15529 11.2776 6.43396ZM3.54419 9.50559C3.39451 9.58792 3.25109 9.70192 3.18249 9.83492C3.12012 9.95525 3.13886 10.0819 3.28854 10.2149C3.31972 10.2466 3.35709 10.2656 3.39451 10.2909C3.40699 10.2972 3.4195 10.3036 3.43197 10.3162C3.46315 10.2339 3.48811 10.1579 3.51929 10.0756C3.43822 9.96158 3.41325 9.84758 3.42573 9.74625C3.4382 9.65759 3.47558 9.57526 3.54419 9.50559ZM8.77049 7.17495C9.59997 7.05462 10.3609 6.73162 11.1467 6.47196C11.2215 6.16163 11.3213 5.86396 11.4336 5.5663C11.5645 5.23064 11.7142 4.90131 11.8888 4.57831C11.9325 4.49598 11.9886 4.40731 12.0322 4.32498C12.0572 4.26798 12.0822 4.21731 12.0947 4.15398C12.0947 4.14765 12.1071 4.09698 12.1071 4.06532C12.0011 4.00832 11.9138 3.95765 11.8452 3.87532C11.7891 3.81199 11.7516 3.74232 11.7204 3.64099C11.7142 3.60932 11.708 3.58399 11.7018 3.55232C11.6893 3.48899 11.683 3.42566 11.6705 3.36232C11.6705 3.36232 11.6643 3.34966 11.6643 3.33699C11.6456 3.33699 11.6331 3.33066 11.6144 3.33066C11.5334 3.32432 11.446 3.33066 11.365 3.31799C11.2402 3.30532 11.1218 3.27999 11.0033 3.25466C10.8848 3.22299 10.7662 3.18499 10.654 3.13433C10.6041 3.11533 10.5542 3.08999 10.5043 3.06466C10.311 2.96966 10.1301 2.85566 9.93674 2.767C9.87438 2.73533 9.79956 2.70366 9.73096 2.68466C9.6873 2.672 9.64367 2.672 9.60002 2.672C9.58754 2.672 9.58127 2.67833 9.5688 2.68466C9.54386 2.71 9.52514 2.748 9.48772 2.786C9.4503 2.824 9.40668 2.862 9.36302 2.88733C9.31936 2.91899 9.26941 2.94433 9.21951 2.96333C9.16338 2.98866 9.10107 3.00133 9.0387 3.00133C8.95763 3.00766 8.8703 3.00766 8.78922 3.00766C8.77675 3.00766 8.70812 3.01399 8.68317 3.01399C8.55844 3.21033 8.42747 3.40666 8.2965 3.59665C8.1593 3.79298 8.02213 3.98932 7.87245 4.18565C7.79761 4.28698 7.71655 4.38831 7.64794 4.49598C7.49203 4.71764 7.34235 4.93931 7.18644 5.16097C7.27999 5.36364 7.39218 5.5473 7.51068 5.73096C7.72273 6.04763 7.97222 6.34529 8.24039 6.63029C8.36513 6.75695 8.4836 6.89628 8.60834 7.02295C8.66446 7.07995 8.7206 7.12428 8.77049 7.17495ZM3.11389 6.35796C3.18873 6.32629 3.26356 6.30096 3.3384 6.28196C3.28851 6.21863 3.23862 6.16163 3.18873 6.09829C3.064 5.94629 2.93929 5.78796 2.82079 5.62963C2.81455 5.6233 2.79584 5.59163 2.81455 5.55363C2.81455 5.5473 2.82073 5.54097 2.8332 5.5283C2.86438 5.49663 2.93926 5.4143 2.94549 5.40164C2.98291 5.3573 3.01411 5.31297 3.03906 5.2623C3.064 5.21797 3.07644 5.1673 3.08268 5.1103C3.08892 5.06597 3.08892 5.02164 3.08268 4.97731C3.07644 4.93297 3.07025 4.89497 3.05154 4.85697C3.04531 4.84431 3.00783 4.78097 2.99536 4.74931C2.98289 4.71764 2.98912 4.69231 2.99536 4.67964C3.03278 4.59731 3.11385 4.52764 3.21987 4.47064C3.35084 4.40098 3.50682 4.35031 3.60037 4.31865C3.85607 4.23631 4.11801 4.16665 4.37371 4.08432C4.43607 4.06532 4.4984 4.04632 4.567 4.02098C4.70421 3.97665 4.84144 3.91332 4.97864 3.86265C5.04101 3.83732 5.10333 3.81832 5.1657 3.79932C5.19064 3.79298 5.22809 3.79298 5.27175 3.82465C5.32164 3.85632 5.38398 3.93232 5.40269 3.95132C5.47753 4.03998 5.53995 4.14131 5.61479 4.22998C5.65845 4.28065 5.70834 4.32498 5.77071 4.35665C5.8206 4.38198 5.88298 4.38831 5.93911 4.38831C6.01395 4.39464 6.08877 4.39464 6.15738 4.41998C6.20103 4.43264 6.23841 4.45164 6.26959 4.47698C6.33196 4.52764 6.38811 4.59098 6.44424 4.65431C6.51908 4.74931 6.58148 4.85064 6.63761 4.94564C6.71245 5.05964 6.77478 5.17997 6.83715 5.3003C6.98059 5.57897 7.0991 5.8703 7.2363 6.14896C7.32362 6.31996 7.42964 6.47829 7.54814 6.63029C7.71029 6.83295 7.89738 7.02295 8.08448 7.20028C8.15308 7.20028 8.22166 7.20028 8.2965 7.19395C8.35887 7.19395 8.42127 7.18761 8.48363 7.18128C8.4774 7.17495 8.47114 7.16861 8.4649 7.16861C8.33393 7.04828 8.20921 6.91529 8.07824 6.78229C7.78511 6.49729 7.51693 6.19329 7.29241 5.8703C7.06166 5.54097 6.8683 5.17997 6.72486 4.78731C6.63131 4.53398 6.54402 4.26798 6.438 4.01465C6.36939 3.84998 6.29456 3.69165 6.20724 3.53965C6.1823 3.49532 6.13868 3.41932 6.08878 3.34966C6.07007 3.32432 6.0513 3.29899 6.02636 3.27999L6.02011 3.27366C5.97646 3.31166 5.92661 3.37499 5.91414 3.38132C5.82683 3.43199 5.73948 3.47632 5.64593 3.51432C5.51496 3.57132 5.37775 3.61565 5.24678 3.65999C4.63559 3.87532 4.0057 4.05265 3.38827 4.24898C3.12633 4.33131 2.86439 4.41998 2.60869 4.52131C2.47148 4.57198 2.3156 4.62898 2.1784 4.71131C2.09109 4.75564 2.01626 4.81264 1.95389 4.88231C1.94142 4.89497 1.89776 4.95831 1.87905 4.98997C1.89153 5.01531 1.91645 5.03431 1.93516 5.05964C2.03495 5.16097 2.17215 5.2623 2.24075 5.34464C2.4029 5.51563 2.55882 5.69296 2.71474 5.86396C2.84571 6.04129 2.98293 6.19963 3.11389 6.35796ZM6.6064 2.33C6.55027 2.31733 6.38809 2.45033 6.34443 2.463C6.19475 2.51366 6.04509 2.56433 5.89541 2.615C5.74573 2.66566 5.59607 2.71 5.44015 2.75433C5.32165 2.786 5.20311 2.81766 5.08462 2.84933C4.96612 2.88099 4.84766 2.90633 4.72916 2.93166C4.27389 3.03299 3.78743 3.11533 3.32592 3.26099C3.02656 3.35599 2.73968 3.46999 2.47775 3.64099C2.43409 3.67265 2.30315 3.76765 2.19713 3.86898C2.14723 3.91965 2.09729 3.97032 2.06611 4.02098C2.05987 4.03365 2.04738 4.05898 2.04738 4.06532C2.07232 4.11598 2.09727 4.16665 2.12846 4.21731C2.15964 4.27431 2.19708 4.32498 2.22826 4.38198C2.31558 4.34398 2.40915 4.30598 2.49023 4.27431C2.75217 4.17298 3.01412 4.07798 3.2823 3.98932C3.89349 3.78665 4.52336 3.60299 5.12832 3.38132C5.25929 3.33699 5.38402 3.29266 5.51499 3.23566C5.59606 3.20399 5.6709 3.16599 5.74574 3.12166C5.77068 3.10899 5.88915 3.00766 5.94528 2.98233C6.00764 2.95066 6.05759 2.95699 6.08254 2.96333C6.14491 2.98233 6.21971 3.02666 6.27584 3.09632C6.36315 3.19132 6.44428 3.33699 6.4817 3.40666C6.57524 3.57132 6.65625 3.74865 6.72486 3.92598C6.7997 4.10965 6.86211 4.30598 6.92447 4.48964C7.02426 4.34398 7.12404 4.19831 7.23006 4.05265C7.19888 3.98298 7.17393 3.90698 7.14898 3.83098C7.02425 3.45732 6.95568 3.05833 6.79353 2.69733C6.76858 2.634 6.68124 2.30467 6.6064 2.33ZM6.6064 2.33C6.61887 2.33 6.62513 2.33634 6.62513 2.349C6.62513 2.35534 6.61264 2.349 6.61264 2.349C6.6064 2.349 6.58768 2.349 6.59391 2.34267C6.60015 2.33 6.6064 2.33 6.6064 2.33ZM3.56291 10.6582C3.26979 11.4056 2.92675 12.1466 2.67728 12.9066C2.51513 13.4005 2.39046 13.9072 2.35304 14.4265C2.24078 15.8769 2.68355 17.2828 2.78333 18.7142C2.80828 19.0815 2.80827 19.4488 2.77709 19.8225C2.73344 20.3291 2.64612 20.8421 2.5401 21.3551C2.43407 21.8618 2.29688 22.3621 2.15967 22.8498C2.12225 22.9828 1.94762 23.3184 1.8416 23.5844C1.81665 23.6478 1.79796 23.7048 1.78549 23.7554C1.77925 23.7681 1.77924 23.7871 1.77924 23.7998C1.79795 23.8124 1.84787 23.8441 1.87905 23.8568C1.9726 23.9011 2.0848 23.9391 2.12846 23.9518C2.38416 24.0468 2.65235 24.1038 2.92676 24.1354C3.20118 24.1671 3.48187 24.1798 3.75629 24.1734C4.08059 24.1671 4.39237 24.1291 4.71043 24.0784C5.46507 23.9518 6.20098 23.7428 6.96185 23.6478C7.44831 23.5908 7.94107 23.5718 8.42752 23.5781C9.15721 23.5844 9.88066 23.6478 10.6103 23.6984C11.3899 23.7554 12.1633 23.7934 12.9366 23.8631C13.4542 23.9074 13.9719 23.9708 14.4895 24.0531C14.87 24.1164 15.2504 24.1924 15.6246 24.2748C16.4977 24.4648 17.3584 24.6864 18.2377 24.8574C18.5496 24.9144 18.8677 24.9524 19.1857 24.9778C19.51 25.0031 19.8281 25.0158 20.1461 25.0158C20.196 25.0158 20.4767 25.0411 20.6139 25.0221C20.7885 24.7371 20.8571 24.3888 20.8696 24.0278C20.8883 23.4388 20.7573 22.8054 20.6513 22.3241C20.4892 21.5831 20.352 20.8231 20.2584 20.0568C20.1649 19.2905 20.1212 18.5178 20.1524 17.7515C20.1835 17.0485 20.3519 16.3075 20.3769 15.5792C20.3956 15.1105 20.3457 14.6482 20.1524 14.2112C19.6846 13.1726 18.6743 12.1592 18.1754 11.0256C18.1193 10.9052 18.0755 10.7786 18.0319 10.6582C17.7201 10.7976 17.3833 10.8989 17.034 10.9749C16.4166 11.1079 15.768 11.1586 15.1943 11.1902C14.5082 11.2282 13.8159 11.2536 13.1174 11.2536C12.6746 11.2536 12.2381 11.2409 11.7952 11.2156C11.6456 11.2916 11.5022 11.3802 11.3774 11.4879C11.1779 11.6526 11.0531 11.8489 10.9783 12.0579C10.9284 12.2036 10.8972 12.3492 10.8722 12.5076C10.8785 12.5202 10.8847 12.5329 10.8847 12.5456C10.9159 12.6152 10.9471 12.6912 10.9845 12.7609C11.1966 13.1282 11.4959 13.4702 11.6768 13.8565C11.7641 14.0339 11.8202 14.2239 11.8452 14.4329C11.8951 14.9205 11.7267 15.3955 11.6705 15.8705C11.6518 16.0542 11.6456 16.2442 11.6955 16.4278C11.7267 16.5545 11.7766 16.6622 11.8389 16.7635C11.9762 16.9852 12.1757 17.1688 12.3566 17.3652C12.4938 17.5045 12.6185 17.6565 12.7183 17.8212C12.7246 17.8212 12.7245 17.8212 12.7307 17.8212V17.8148C12.8492 17.8148 12.9491 17.8592 13.0302 17.9352C13.1112 18.0112 13.1549 18.1188 13.1611 18.2328C13.1611 18.3532 13.1174 18.4608 13.0363 18.5432C12.9615 18.6255 12.8492 18.6698 12.7307 18.6762C12.6122 18.6762 12.5 18.6255 12.4252 18.5495C12.3503 18.4672 12.3005 18.3595 12.3005 18.2392C12.3067 18.1188 12.3503 18.0175 12.4314 17.9415C12.4501 17.9225 12.4688 17.9098 12.4937 17.8908C12.4064 17.7642 12.3004 17.6502 12.1882 17.5362C11.9886 17.3335 11.7766 17.1435 11.6269 16.9092C11.5458 16.7825 11.4834 16.6495 11.4398 16.4975C11.3837 16.2822 11.3775 16.0605 11.3962 15.8452C11.4398 15.3892 11.602 14.9332 11.5458 14.4709C11.5147 14.2429 11.4274 14.0339 11.3151 13.8439C11.1592 13.5779 10.9658 13.3309 10.7974 13.0775C10.7662 13.3499 10.7225 13.6222 10.629 13.8755C10.4856 14.2555 10.2361 14.5849 10.0989 14.9459C10.0178 15.1549 9.98668 15.3829 10.0553 15.6362C10.205 16.2062 10.6165 16.6685 10.8785 17.2005C10.9471 17.3398 11.0095 17.4855 11.0469 17.6438C11.0843 17.7768 11.0967 17.9225 11.0967 18.0618C11.0967 18.1758 11.0843 18.2835 11.0656 18.3975C11.1342 18.4165 11.1904 18.4545 11.2403 18.4988C11.3213 18.5748 11.365 18.6825 11.3712 18.7965C11.3712 18.9168 11.3275 19.0245 11.2464 19.1068C11.1716 19.1891 11.0593 19.2335 10.9408 19.2398C10.8223 19.2398 10.7101 19.1892 10.6352 19.1132C10.5604 19.0308 10.5105 18.9232 10.5105 18.8028C10.5168 18.6825 10.5604 18.5812 10.6415 18.5052C10.6976 18.4545 10.7663 18.4165 10.8411 18.4038C10.8536 18.3215 10.8598 18.2455 10.866 18.1632C10.8722 18.0112 10.8598 17.8592 10.8161 17.7198C10.6477 17.1498 10.2236 16.6938 9.95547 16.1682C9.88063 16.0289 9.82448 15.8769 9.78083 15.7249C9.71222 15.4842 9.71844 15.2689 9.7621 15.0599C9.86188 14.6102 10.1737 14.2302 10.3359 13.7742C10.4357 13.4955 10.4669 13.1979 10.4981 12.9066C10.5105 12.7862 10.523 12.6659 10.5355 12.5519C10.4856 12.3999 10.442 12.2479 10.3796 12.1022C10.2549 11.7792 10.1052 11.4562 9.91185 11.1712C9.87443 11.1206 9.83697 11.0636 9.79955 11.0129C9.43783 10.9559 9.06987 10.8989 8.70814 10.8482C8.38384 10.8039 8.05332 10.7659 7.72278 10.7406C7.34235 10.7152 6.94945 10.7026 6.56277 10.7026C6.1761 10.7026 5.78313 10.7152 5.40269 10.7342C5.0971 10.7469 4.78527 10.7849 4.47344 10.7912C4.25516 10.7976 4.04317 10.7849 3.83112 10.7532C3.75628 10.7406 3.68138 10.7216 3.61278 10.7026C3.59407 10.6709 3.57539 10.6646 3.56291 10.6582Z" fill="#133F24"/>
</svg>
