<svg width="24" height="24" viewBox="0 0 24 24" fill="none" xmlns="http://www.w3.org/2000/svg">
<path fill-rule="evenodd" clip-rule="evenodd" d="M15.6553 7.5C17.7936 11.303 19.3388 7.40364 21.1494 11.3092C21.4381 11.9325 21.563 12.6269 21.6566 13.2975C21.7346 13.8577 21.7815 14.4179 21.7425 14.986C21.5318 18.3393 17.8638 17.5897 15.6553 18.8048C14.5861 19.3886 13.8916 20.4538 12.877 21.1244C11.5113 22.0318 9.75543 22.2448 8.1478 22.3C5.60368 22.3868 2.89571 20.6353 3.00496 17.8264C3.11422 14.9781 0.790275 14.8552 1.50044 12.0069C2.22622 9.09544 6.04457 6.02964 9.50176 4.50686C18 4.0132 15.6553 7.5 15.6553 7.5Z" fill="#FFF0E0"/>
<path fill-rule="evenodd" clip-rule="evenodd" d="M17.1699 16.8087C17.2375 16.9874 17.3 17.1715 17.3624 17.3555C17.7368 18.4913 18.0436 19.79 18.2413 21.2728C18.2465 21.2833 18.2517 21.2938 18.2569 21.3096C18.2621 21.3569 18.2309 21.4042 18.1789 21.4147C17.5652 21.5041 17.0607 21.8196 16.5823 22.1771C16.083 22.5452 15.6045 22.9606 15.0636 23.2393C14.7828 23.3812 14.4863 23.4917 14.1587 23.539C13.7842 23.5968 13.4306 23.539 13.0873 23.4286C12.7129 23.3076 12.3488 23.1131 11.9796 22.9343C11.6311 22.7661 11.2775 22.603 10.8926 22.5452C10.6846 22.5084 10.4817 22.5137 10.2841 22.5347C9.86284 22.582 9.46238 22.724 9.04633 22.8502C8.61986 22.9764 8.18825 23.0868 7.72538 23.0658C7.45494 23.0552 7.15848 23.0132 6.86204 22.9501C6.5656 22.887 6.27957 22.7976 6.02993 22.6872C5.67108 22.5294 5.36943 22.3559 5.04178 22.2192C4.83895 22.1351 4.6205 22.0667 4.37086 22.0352C3.934 21.9773 3.51798 22.0772 3.10712 22.2034C2.67026 22.3349 2.23859 22.4926 1.79652 22.54C1.56769 22.5662 1.33368 22.561 1.09964 22.5137C0.912416 22.4769 0.725164 22.398 0.553539 22.2981C0.381915 22.2034 0.22588 22.0878 0.0854602 21.9616C0.0750587 21.9511 0.069896 21.9405 0.0594946 21.93C0.0178886 21.9142 -0.00810743 21.8722 0.00229405 21.8301C0.199922 20.4367 0.558758 19.1275 1.02682 17.9234C1.36487 17.0506 1.7549 16.2303 2.16576 15.4784C2.63382 14.6266 3.1279 13.8642 3.60117 13.2016C4.98976 11.2562 6.22756 10.1309 6.22756 10.1309L6.23277 10.1257C6.23797 10.1099 6.24313 10.0889 6.25353 10.0784C6.25353 10.0784 7.01806 8.85325 7.11687 7.27583C7.17408 6.39774 7.02849 5.40922 6.43561 4.46277C6.3992 4.43648 6.38357 4.3839 6.40437 4.33657C6.40437 4.33657 6.62803 3.85809 7.01809 3.58993C7.1013 3.53209 7.19486 3.48477 7.29368 3.45322C7.26767 3.31126 7.21052 3.00629 7.15331 2.654C7.12211 2.46471 7.09088 2.25965 7.06488 2.0651C7.04927 1.92839 7.03369 1.79168 7.02329 1.67075C6.99209 1.32897 6.97123 1.07658 6.97123 1.07658C6.96603 1.02926 6.99725 0.981939 7.04926 0.971423C7.10127 0.966165 7.14291 0.99771 7.15331 1.05029C7.15331 1.05029 7.2053 1.29742 7.26771 1.63393C7.28852 1.75487 7.31452 1.88632 7.33532 2.02303C7.36653 2.21758 7.39255 2.42264 7.41335 2.61193C7.45495 2.95371 7.48612 3.25868 7.50172 3.4059C7.55893 3.40065 7.61618 3.40065 7.67339 3.4059C7.94902 3.43219 8.21941 3.62674 8.45864 3.87387C8.72908 4.16306 8.95275 4.52061 9.08277 4.74145C9.22839 4.53112 9.48323 4.18935 9.80047 3.91594C10.0397 3.70561 10.3154 3.53735 10.5962 3.469C10.669 3.45322 10.7366 3.44271 10.8042 3.43745C10.8042 3.29548 10.8094 3.02732 10.8198 2.71709C10.825 2.54358 10.8302 2.35429 10.8406 2.17026C10.8458 2.04407 10.8562 1.92313 10.8666 1.80745C10.8874 1.59713 10.9082 1.40259 10.9186 1.26062C10.929 1.1502 10.9394 1.07132 10.9446 1.03452C10.9446 1.024 10.9446 1.01875 10.9446 1.01349C10.9446 0.997714 10.9446 0.987197 10.955 0.971423C10.9758 0.918843 11.0227 0.91884 11.0435 0.91884C11.0591 0.91884 11.111 0.9241 11.1266 0.987197C11.1266 0.992455 11.1266 0.997709 11.1266 1.00823C11.1266 1.01348 11.1266 1.024 11.1266 1.03452C11.1266 1.07132 11.1266 1.15545 11.1266 1.26587C11.1266 1.40784 11.1267 1.60239 11.1215 1.81271C11.1215 1.92839 11.1163 2.05458 11.1059 2.18078C11.0955 2.36481 11.0798 2.5541 11.0642 2.72761C11.0382 3.03784 11.0174 3.30074 11.0018 3.44271C11.1526 3.469 11.2774 3.52684 11.3867 3.60045C11.7195 3.84232 11.8443 4.25245 11.8443 4.25245C11.8547 4.27874 11.8495 4.30503 11.8391 4.32606C11.8391 4.34184 11.834 4.35235 11.8288 4.36812C11.8288 4.36812 10.981 6.08225 11.033 7.83318C11.0538 8.54828 11.2307 9.26337 11.6883 9.86805C11.8496 9.36853 12.2136 8.35899 12.3228 7.96463C12.5308 7.22325 12.7493 6.49763 12.9781 5.78254C13.2121 5.06218 13.4566 4.34709 13.7166 3.62674C13.8831 3.16403 14.0651 2.70658 14.2939 2.27016C14.4447 1.97571 14.6112 1.69703 14.8036 1.42887C14.814 1.41836 14.8244 1.40784 14.84 1.40784C14.9024 1.3132 14.9804 1.22907 15.0636 1.15546C15.0844 1.13443 15.1052 1.11865 15.126 1.10287C15.1156 1.0871 15.1052 1.07133 15.1 1.06081C15.0792 1.01874 15.0948 0.987195 15.1 0.976678C15.1312 0.939872 15.4276 0.692744 15.7501 0.582325C15.8905 0.535002 16.0414 0.513969 16.1714 0.540259C16.1506 0.487679 16.1453 0.440362 16.1453 0.398297C16.1401 0.266846 16.2026 0.17746 16.2754 0.119621C16.3586 0.0512667 16.447 0.0302274 16.447 0.0302274C16.4574 0.0249693 16.473 0.0249693 16.4834 0.0302274L17.7628 0.571814L19.1046 0.00394354C19.115 -0.00131451 19.1306 -0.00131451 19.141 0.00394354C19.141 0.00394354 19.2294 0.0302328 19.3126 0.0933295C19.3855 0.151168 19.4479 0.240554 19.4427 0.372006C19.4427 0.419328 19.4322 0.477163 19.4062 0.540259C19.5414 0.508711 19.6923 0.529747 19.8327 0.577069C20.1552 0.687488 20.4516 0.934617 20.4828 0.971423C20.488 0.981939 20.5036 1.01349 20.4828 1.05555C20.4776 1.06607 20.4672 1.08185 20.4568 1.09762C20.4776 1.11339 20.4984 1.13442 20.5192 1.1502C20.6076 1.22381 20.6804 1.30793 20.7428 1.40258C20.7584 1.40258 20.774 1.4131 20.7792 1.42362C20.9717 1.69178 21.1433 1.97571 21.2941 2.2649C21.5177 2.70132 21.6997 3.16403 21.8662 3.62148C22.1262 4.34709 22.3707 5.06219 22.6047 5.77728C22.8335 6.49764 23.052 7.21799 23.26 7.95937C23.3744 8.3695 23.7697 9.45792 23.9153 9.93114C23.9465 10.031 23.9673 10.1047 23.9725 10.1415C23.9829 10.1783 23.9725 10.1993 23.9673 10.2098C23.9517 10.2361 23.9204 10.2729 23.8736 10.3045C23.7904 10.3676 23.65 10.4464 23.494 10.5253C23.0415 10.7514 22.3966 10.988 22.3186 10.9985C22.303 10.9985 22.2718 10.9985 22.2458 10.9617C22.2302 10.9407 22.199 10.8881 22.1678 10.804C22.069 10.5463 21.8922 9.98373 21.6946 9.30544C21.4345 8.40105 21.1381 7.29686 20.9353 6.46609C21.0133 7.25479 21.0705 8.03824 21.1901 8.81644C21.2785 9.42111 21.4033 10.0153 21.6009 10.5989C21.6113 10.6199 21.601 10.641 21.5854 10.6568C21.5854 10.662 21.5802 10.6725 21.575 10.6778C21.4189 10.846 21.2005 10.988 20.9612 11.0932V11.0984L22.1054 19.974C22.1054 19.9951 22.1002 20.0161 22.0794 20.0319L20.7948 21.0572C20.7792 21.0677 20.7584 21.073 20.7376 21.0677L18.959 20.626C18.933 20.6208 18.9122 20.5945 18.907 20.5682C18.907 20.5682 18.5793 18.2915 18.2569 16.0095C18.0228 14.3584 17.794 12.7127 17.6796 11.9239L17.1543 16.7561C17.1803 16.7929 17.1751 16.8034 17.1699 16.8087ZM11.6571 10.2677C11.6207 10.2887 11.5791 10.3097 11.5323 10.336C11.4075 10.4044 11.2411 10.4885 11.0539 10.5884C11.2411 10.7356 11.4179 10.8934 11.5739 11.0564C11.6884 11.1773 11.7924 11.3035 11.8964 11.4297C11.9952 11.5611 12.0888 11.6979 12.1772 11.8346C12.302 12.0396 12.4164 12.2605 12.5257 12.4813C12.5361 12.5023 12.5308 12.5286 12.5048 12.5444C12.484 12.5549 12.4528 12.5497 12.4424 12.5234C12.354 12.3709 12.2656 12.2184 12.172 12.0712C12.1096 11.9713 12.0472 11.8766 11.9796 11.782C11.9483 11.7347 11.912 11.6873 11.8808 11.64C11.8028 11.5296 11.7196 11.4244 11.6363 11.3193C11.4387 11.0774 11.2151 10.846 10.9602 10.6357C10.9602 10.6357 10.955 10.6357 10.955 10.6305C10.7314 10.7514 10.4766 10.8828 10.2425 11.009C10.3517 11.1195 10.4505 11.2351 10.5389 11.3561C10.6117 11.4507 10.6794 11.5506 10.7418 11.6505C10.8042 11.7504 10.8614 11.8556 10.9186 11.966C11.0019 12.1238 11.0694 12.292 11.137 12.455C11.1474 12.476 11.1371 12.5076 11.1163 12.5181C11.0955 12.5286 11.0642 12.5181 11.059 12.4971C11.0018 12.3814 10.9394 12.271 10.877 12.1606C10.8354 12.0869 10.7938 12.0133 10.7522 11.9397C10.7314 11.9029 10.7106 11.8661 10.6898 11.8293C10.6378 11.7452 10.591 11.661 10.5338 11.5769C10.4194 11.3981 10.2894 11.2194 10.1437 11.0616C9.93571 11.172 9.74325 11.2772 9.58722 11.3613C9.66003 11.456 9.73286 11.5611 9.79527 11.661C9.84207 11.7399 9.88888 11.8188 9.92528 11.9029C9.96689 11.987 9.99807 12.0712 10.0293 12.1553C10.0761 12.2815 10.1073 12.4129 10.1385 12.5497C10.1437 12.5759 10.1281 12.597 10.1073 12.6075C10.0813 12.6128 10.0553 12.597 10.0501 12.5759C10.0189 12.4866 9.98772 12.3972 9.95131 12.3078C9.92531 12.2499 9.9045 12.1921 9.87849 12.1343C9.86809 12.1027 9.85246 12.0764 9.84205 12.0501C9.81085 11.9818 9.77968 11.9187 9.74848 11.8503C9.67567 11.7031 9.5924 11.5559 9.49879 11.4192C9.48319 11.4297 9.4676 11.4349 9.452 11.4455C9.35839 11.498 9.29077 11.5401 9.25437 11.5664C9.24397 11.5822 9.22838 11.5979 9.20237 11.6085C9.18677 11.6137 9.16074 11.6295 9.10873 11.619C9.10353 11.619 9.08274 11.6137 9.05674 11.6032C9.01513 11.5874 8.92152 11.5454 8.80191 11.4823C8.7551 11.4612 8.70313 11.435 8.64592 11.4087C8.57311 11.5296 8.50029 11.6558 8.43788 11.782C8.38587 11.8819 8.33905 11.9818 8.29745 12.0869C8.25064 12.1868 8.20904 12.292 8.16743 12.3972C8.10502 12.5497 8.04784 12.7074 8.00103 12.8757C7.99583 12.9019 7.96977 12.9125 7.94377 12.9072C7.91777 12.9019 7.9022 12.8757 7.9126 12.8494C7.949 12.6758 7.99061 12.5128 8.04262 12.3498C8.07902 12.2394 8.12062 12.1343 8.16743 12.0291C8.21424 11.9239 8.26627 11.824 8.32348 11.7189C8.39109 11.5979 8.46386 11.477 8.54707 11.3613C8.24543 11.2194 7.86056 11.0301 7.49131 10.8513C7.31448 11.0248 7.14807 11.2088 6.98165 11.3929C6.86723 11.5243 6.7528 11.661 6.64359 11.7978C6.57078 11.8871 6.50322 11.9818 6.43561 12.0764C6.33679 12.2184 6.24316 12.3656 6.15995 12.5234C6.14955 12.5444 6.12355 12.5549 6.09755 12.5444C6.07674 12.5339 6.06632 12.5076 6.07672 12.4813C6.14953 12.3183 6.23794 12.1606 6.33155 12.0081C6.39396 11.9082 6.46158 11.8083 6.53439 11.7136C6.64361 11.5717 6.75805 11.4349 6.88286 11.3035C7.04409 11.13 7.2157 10.9617 7.39253 10.804C6.91926 10.5726 6.4928 10.3623 6.35238 10.2939C6.24316 10.3991 5.09379 11.5086 3.80921 13.3541C3.34634 14.0167 2.8627 14.7791 2.40503 15.6204C1.99938 16.3617 1.60929 17.1662 1.26604 18.0285C0.803172 19.1906 0.41315 20.4525 0.194719 21.7986C0.20512 21.8038 0.210278 21.8091 0.215479 21.8143C0.350698 21.9248 0.496306 22.0352 0.657529 22.1193C0.813551 22.2034 0.974807 22.2718 1.14643 22.3033C1.35966 22.3454 1.57287 22.3454 1.7757 22.3191C2.16056 22.2718 2.54025 22.1351 2.9199 22.0142C2.99271 21.8459 3.06028 21.6724 3.13309 21.4989C3.18509 21.3674 3.23713 21.2307 3.28913 21.0992C3.34114 20.9678 3.39317 20.8311 3.43998 20.6996C3.51799 20.4998 3.59076 20.2948 3.65837 20.0897C3.66357 20.0634 3.68956 20.0529 3.71557 20.0582C3.74157 20.0634 3.752 20.0897 3.7468 20.116C3.69479 20.3263 3.6324 20.5366 3.56479 20.7417C3.51798 20.8784 3.47116 21.0151 3.41915 21.1518C3.36715 21.2885 3.30996 21.42 3.25276 21.5514C3.19035 21.6934 3.12794 21.8301 3.06033 21.9721C3.49719 21.8354 3.94444 21.7355 4.40731 21.7881C4.68294 21.8196 4.917 21.8932 5.14063 21.9826C5.47348 22.114 5.78028 22.2928 6.13913 22.4453C6.23794 22.4874 6.34194 22.5242 6.44596 22.561C6.39915 22.3507 6.3524 22.1403 6.31079 21.9248C6.27959 21.746 6.24837 21.5672 6.22756 21.3884C6.21196 21.2675 6.20153 21.1466 6.19633 21.0256C6.18593 20.8416 6.18072 20.6628 6.18592 20.4788C6.18592 20.4525 6.20677 20.4315 6.23277 20.4315C6.25877 20.4315 6.27956 20.4525 6.27956 20.4788C6.28996 20.7049 6.31076 20.9257 6.34197 21.1466C6.35757 21.2938 6.37836 21.441 6.39917 21.5882C6.41997 21.7355 6.44077 21.8827 6.46678 22.0299C6.49798 22.2192 6.52922 22.4032 6.56563 22.5925C6.68524 22.6293 6.80483 22.6556 6.92445 22.6819C7.20009 22.7398 7.48616 22.7766 7.741 22.7871C8.17266 22.8029 8.57831 22.6977 8.97357 22.5768C9.12439 22.5294 9.27522 22.4821 9.43124 22.4348C9.48325 22.2928 9.53 22.1509 9.57161 22.0089C9.61321 21.8722 9.64966 21.7407 9.68607 21.604C9.72248 21.4673 9.75365 21.3306 9.78485 21.1939C9.83166 20.9888 9.87326 20.7838 9.90446 20.5734C9.90966 20.5472 9.93045 20.5314 9.95646 20.5314C9.98246 20.5366 9.9981 20.5577 9.9981 20.584C9.9825 20.7995 9.95648 21.0099 9.91487 21.2202C9.88887 21.3621 9.85769 21.4989 9.81609 21.6356C9.77968 21.7723 9.73288 21.909 9.69128 22.0457C9.64967 22.1614 9.60806 22.2771 9.56126 22.3927C9.79009 22.3296 10.0241 22.2718 10.2581 22.2455C10.4818 22.2192 10.7106 22.2192 10.9446 22.256C11.3503 22.3244 11.7299 22.4926 12.1044 22.6767C12.1512 22.6977 12.198 22.724 12.2448 22.745C12.1252 22.5084 12.016 22.2665 11.9224 22.0194C11.8443 21.8143 11.7715 21.5988 11.7143 21.3884C11.6571 21.1729 11.6051 20.9573 11.5635 20.7417C11.5011 20.4157 11.4647 20.0844 11.4387 19.7532C11.4335 19.7269 11.4543 19.7059 11.4803 19.7059C11.5063 19.7059 11.5271 19.7216 11.5323 19.7479C11.5687 20.0739 11.6259 20.3999 11.6935 20.7207C11.7404 20.9362 11.7871 21.1466 11.8495 21.3569C11.9067 21.5672 11.9744 21.7775 12.0472 21.9826C12.146 22.2718 12.2656 22.5557 12.406 22.8291C12.6609 22.9553 12.9157 23.0815 13.181 23.1709C13.4826 23.2708 13.7946 23.3287 14.1327 23.2813C14.7412 23.1972 15.2457 22.8922 15.7241 22.54C15.8489 22.4506 15.9789 22.3559 16.1038 22.2613C16.1038 22.2613 16.1038 22.2613 16.1038 22.256C15.9373 22.0299 15.7761 21.7933 15.6357 21.5514C15.5421 21.3884 15.4484 21.2254 15.3652 21.0519C15.282 20.8837 15.2041 20.7102 15.1416 20.5314C15.0428 20.2685 14.9648 19.9951 14.9024 19.7164C14.8972 19.6901 14.9128 19.6691 14.9336 19.6585C14.9596 19.6533 14.9856 19.6691 14.9856 19.6901C15.0584 19.9635 15.152 20.2212 15.256 20.4788C15.3289 20.6523 15.4016 20.8206 15.4848 20.9888C15.5681 21.1571 15.6513 21.3201 15.7449 21.4831C15.8801 21.725 16.0258 21.9616 16.187 22.1929C16.5302 21.9353 16.8787 21.6829 17.2583 21.4989C17.5079 21.3779 17.7732 21.2833 18.0645 21.2307C17.8356 19.79 17.5079 18.5281 17.1283 17.4239C16.811 16.509 16.4574 15.6992 16.0829 14.9841C15.6201 14.1008 15.1312 13.3699 14.6475 12.76C13.8622 11.7715 13.0978 11.1195 12.5465 10.7198C12.4009 10.6568 12.25 10.5884 12.1148 10.5253C11.9536 10.4464 11.8183 10.3676 11.7351 10.3045C11.6935 10.3045 11.6727 10.2887 11.6571 10.2677ZM13.2486 11.009C13.545 11.2509 13.8674 11.5506 14.2055 11.9082C14.2107 11.8871 14.2107 11.8714 14.2159 11.8503C14.2263 11.7925 14.2315 11.7347 14.2471 11.6716C14.2627 11.5822 14.2835 11.4928 14.3043 11.4034C14.3563 11.1878 14.4031 11.009 14.4031 11.009V11.0038C14.2523 10.9197 14.1223 10.8145 14.0183 10.7041C14.0131 10.6988 14.0079 10.6936 14.0079 10.683C13.9922 10.6725 13.9818 10.6462 13.9922 10.6252C14.1899 10.0416 14.3147 9.44215 14.4031 8.84273C14.5227 8.06454 14.5799 7.27583 14.6579 6.49238C14.4551 7.32315 14.1587 8.42734 13.8987 9.33172C13.701 10.0048 13.5242 10.5726 13.4254 10.8303C13.3942 10.9144 13.3682 10.967 13.3473 10.988C13.3213 11.0196 13.2901 11.0248 13.2745 11.0248C13.2693 11.0143 13.259 11.009 13.2486 11.009ZM14.2991 12.0081C14.4707 12.1974 14.6527 12.4024 14.8295 12.618C15.0948 12.944 15.36 13.3068 15.6253 13.7064C15.6461 13.5224 15.6825 13.2385 15.7241 12.9282C15.7553 12.7127 15.7813 12.4813 15.8177 12.2605C15.8385 12.1027 15.8645 11.9555 15.8853 11.8188C15.9269 11.5559 15.9634 11.3456 15.9842 11.2351C15.7813 11.293 15.5577 11.314 15.3341 11.293C15.0428 11.2667 14.7516 11.1826 14.502 11.0511C14.4916 11.1089 14.4656 11.2562 14.4343 11.4297C14.4187 11.5191 14.4031 11.6085 14.3823 11.6978C14.3667 11.7609 14.3511 11.8188 14.3355 11.8766C14.3251 11.9239 14.3095 11.966 14.2991 12.0081ZM15.7137 13.8484C15.9165 14.1639 16.1194 14.5057 16.3066 14.8737C16.5874 15.4048 16.8579 15.9884 17.1023 16.6352L17.6328 11.4612C17.638 11.4297 17.6587 11.4087 17.69 11.4087C17.7212 11.4087 17.742 11.4297 17.7472 11.4612C17.7472 11.4612 18.08 13.738 18.4077 16.02C18.7093 18.1127 19.0058 20.2054 19.0526 20.5314L20.7324 20.9468C20.6908 20.6733 20.462 19.1801 20.2072 17.4344C20.0927 16.6667 19.9731 15.8465 19.8587 15.063C19.7755 14.5109 19.7027 13.9693 19.6351 13.4803C19.4427 12.108 19.3022 11.1037 19.3022 11.1037C19.3022 11.0984 19.3022 11.0932 19.3022 11.0879C19.167 11.0038 19.0526 10.8934 18.959 10.7567C18.8706 10.6305 18.8029 10.4832 18.7561 10.3308C18.6781 10.2098 18.4129 9.79969 18.1736 9.42637C18.0332 9.20553 17.9032 9.00047 17.8356 8.89005C17.7628 9.00047 17.6276 9.20553 17.482 9.42637C17.1907 9.86279 16.8578 10.3623 16.8578 10.3623C16.8578 10.3676 16.8526 10.3676 16.8526 10.3728C16.8006 10.5095 16.7434 10.641 16.6602 10.7567C16.5146 10.9722 16.317 11.1142 16.0881 11.1983C16.0777 11.2825 16.0517 11.5243 16.0153 11.8346C15.9997 11.9713 15.9789 12.1237 15.9581 12.2815C15.9269 12.5023 15.8958 12.7337 15.8593 12.9493C15.7969 13.3384 15.7397 13.6854 15.7137 13.8484ZM12.9209 10.7514C13.0717 10.8092 13.1966 10.8566 13.2538 10.8723C13.2798 10.825 13.3162 10.7356 13.3578 10.6094C13.5606 10.0363 13.935 8.77437 14.2523 7.6176C14.4707 6.82889 14.658 6.08225 14.7516 5.64583C14.788 5.33035 14.8296 5.01486 14.866 4.69938C14.918 4.23667 14.9648 3.77396 14.9752 3.31126C14.9908 2.73287 14.9596 2.14923 14.8348 1.57084C14.6683 1.81271 14.5227 2.06509 14.3927 2.32274C14.1743 2.75916 13.9923 3.21135 13.831 3.67406C13.571 4.39967 13.3318 5.11477 13.1029 5.82987C12.8741 6.55022 12.6609 7.27057 12.458 8.01195C12.4164 8.16444 12.3384 8.40631 12.2448 8.67447C12.0836 9.15295 11.8859 9.71557 11.7975 10.01C11.8027 10.0153 11.8132 10.0363 11.8236 10.0573C11.99 10.1415 12.3956 10.3518 12.9209 10.7514ZM16.395 0.939876C16.343 0.850489 16.291 0.761097 16.239 0.67171L16.2338 0.666455C16.1402 0.624391 16.031 0.624391 15.9218 0.650682C15.8801 0.661198 15.8385 0.67171 15.7969 0.687484C15.5473 0.776871 15.3132 0.955649 15.2352 1.02926C15.2404 1.03978 15.2508 1.05029 15.256 1.06606C15.2716 1.0871 15.2872 1.11339 15.308 1.13968C15.4381 1.31845 15.6773 1.60239 15.8177 1.73384C15.9269 1.83374 16.0986 1.98097 16.2858 2.15449C16.5146 2.35955 16.7643 2.59616 16.9671 2.81174C17.0867 2.93268 17.1855 3.04835 17.2635 3.14826C17.2375 2.95371 17.2011 2.75916 17.1543 2.56987C17.0867 2.30171 16.9775 2.03355 16.8526 1.78116C16.811 1.69177 16.7642 1.60239 16.7174 1.51826C16.6966 1.52877 16.6758 1.53929 16.6654 1.54455C16.629 1.56032 16.603 1.54455 16.5926 1.53929C16.5042 1.4762 16.4522 1.40784 16.4262 1.33949C16.3846 1.25536 16.3794 1.17123 16.3846 1.09236C16.3846 1.0871 16.3846 1.08184 16.3846 1.07133C16.3846 1.06081 16.3846 1.0503 16.3846 1.03978C16.395 1.00297 16.395 0.971425 16.395 0.939876ZM18.3193 3.35332C18.3037 3.51106 18.2933 3.6688 18.288 3.82654C18.2672 4.46802 18.3141 5.12002 18.3609 5.7247C18.3869 6.06647 18.4129 6.40825 18.4389 6.75003C18.5221 6.56074 18.673 6.21896 18.855 5.81935C18.9954 5.50386 19.1566 5.15157 19.3126 4.81506C19.6247 4.14203 19.9159 3.52683 19.9939 3.35858L19.011 2.62245C18.9069 2.7171 18.8134 2.80648 18.7198 2.90113C18.5377 3.07464 18.3869 3.23764 18.3193 3.35332ZM16.8215 1.46568C16.8735 1.55507 16.9203 1.64445 16.9619 1.73384C17.0919 1.99674 17.2063 2.27017 17.2791 2.54358C17.3832 2.94845 17.4351 3.37961 17.4507 3.81603C17.4611 4.121 17.4611 4.43122 17.4455 4.73619C17.4975 4.79929 17.5964 4.92548 17.6848 5.0359C17.7368 5.09899 17.7784 5.15683 17.8096 5.19889C17.8408 5.16209 17.8772 5.11476 17.9188 5.06744C18.0228 4.94651 18.1372 4.81506 18.1684 4.78877C18.1528 4.46803 18.1476 4.14203 18.1632 3.81603C18.184 3.37961 18.2309 2.95371 18.3349 2.54358C18.4077 2.26491 18.5169 1.99674 18.6521 1.73384C18.7041 1.63394 18.7509 1.53929 18.8081 1.43939C18.5637 1.29216 18.0748 0.960906 17.8304 0.797907C17.6068 0.95039 17.0815 1.30794 16.8215 1.46568ZM17.8252 1.26587C17.8876 1.26587 17.9396 1.31845 17.9396 1.38155C17.9396 1.44465 17.8876 1.49723 17.8252 1.49723C17.7628 1.49723 17.7108 1.44465 17.7108 1.38155C17.7108 1.31845 17.7628 1.26587 17.8252 1.26587ZM17.82 2.7539C17.8824 2.7539 17.9344 2.80648 17.9344 2.86958C17.9344 2.93268 17.8824 2.98526 17.82 2.98526C17.7576 2.98526 17.7056 2.93268 17.7056 2.86958C17.7056 2.80648 17.7576 2.7539 17.82 2.7539ZM17.8408 4.00532C17.9032 4.00532 17.9552 4.0579 17.9552 4.121C17.9552 4.1841 17.9032 4.23667 17.8408 4.23667C17.7784 4.23667 17.7264 4.1841 17.7264 4.121C17.7316 4.0579 17.7784 4.00532 17.8408 4.00532ZM20.8625 5.64583C20.9509 6.08751 21.1433 6.82889 21.3617 7.6176C21.679 8.77437 22.0482 10.0363 22.2562 10.6094C22.2978 10.7356 22.3343 10.825 22.3603 10.8723C22.4903 10.8355 22.9271 10.6673 23.3016 10.4938C23.4992 10.3991 23.6813 10.3097 23.7905 10.2309C23.8217 10.2098 23.8477 10.1888 23.8633 10.173C23.8581 10.1467 23.8477 10.1099 23.8321 10.0573C23.7488 9.77866 23.5356 9.17924 23.3692 8.67973C23.2808 8.41157 23.1975 8.16969 23.1559 8.01721C22.9531 7.27582 22.7399 6.55547 22.511 5.83512C22.2822 5.11477 22.043 4.40493 21.7881 3.67932C21.6269 3.22187 21.4449 2.76442 21.2265 2.328C21.0965 2.07036 20.9509 1.81797 20.7844 1.5761C20.6596 2.15974 20.6284 2.73812 20.644 3.31651C20.6596 3.77922 20.7012 4.24193 20.7584 4.70464C20.7844 5.01487 20.826 5.33035 20.8625 5.64583ZM16.6498 1.41836C16.6446 1.41836 16.629 1.40784 16.629 1.41836C16.6342 1.42362 16.6394 1.42362 16.6498 1.41836ZM18.4493 6.93932C18.4701 7.17593 18.4909 7.41254 18.5117 7.64915C18.5533 8.07505 18.6001 8.50096 18.6573 8.92686C18.7042 9.26337 18.7197 9.65773 18.7977 10.0258C18.8497 10.2677 18.9225 10.499 19.0577 10.6936C19.323 11.0879 19.7963 11.2246 20.2696 11.1878C20.748 11.151 21.2265 10.9459 21.523 10.6462C21.3201 10.0626 21.1849 9.46318 21.0913 8.8585C20.9456 7.94886 20.8832 7.0287 20.7792 6.10854C20.7272 5.64583 20.6648 5.18313 20.6128 4.72042C20.5608 4.25245 20.5244 3.78448 20.514 3.31651C20.5036 2.70658 20.5504 2.09139 20.7012 1.48145C20.7012 1.48145 20.7012 1.48145 20.7012 1.47619C20.6336 1.39206 20.5504 1.31845 20.4672 1.25535C20.4464 1.23958 20.4256 1.22381 20.41 1.21329C20.41 1.21855 20.4048 1.21855 20.3996 1.22381C20.2644 1.4131 20.0251 1.70755 19.8795 1.839C19.7703 1.9389 19.5987 2.08613 19.4114 2.25964C19.3074 2.35429 19.193 2.45419 19.0838 2.55409L20.1031 3.29548C20.1291 3.31126 20.1343 3.3428 20.1239 3.36909C20.1239 3.36909 19.8015 4.08944 19.4375 4.87815C19.2814 5.21467 19.115 5.56696 18.9642 5.87719C18.7613 6.30835 18.5897 6.6659 18.5013 6.83941C18.4805 6.88673 18.4597 6.91828 18.4545 6.93405C18.4545 6.93405 18.4545 6.93406 18.4493 6.93932ZM19.1202 7.58605C19.2294 7.58605 19.3178 7.67544 19.3178 7.78585C19.3178 7.89627 19.2294 7.98566 19.1202 7.98566C19.0109 7.98566 18.9226 7.89627 18.9226 7.78585C18.9226 7.67544 19.0109 7.58605 19.1202 7.58605ZM18.9694 1.39207C18.9798 1.39733 18.9901 1.39733 18.9901 1.39207C18.9901 1.38155 18.9694 1.39207 18.9694 1.39207ZM17.2948 3.35332C17.2271 3.23764 17.0763 3.07465 16.8943 2.89587C16.8059 2.80649 16.707 2.71184 16.603 2.6172L15.6201 3.35332C15.6981 3.52158 15.9894 4.13677 16.3014 4.8098C16.4574 5.14632 16.6134 5.4986 16.7591 5.81408C16.9411 6.2137 17.0919 6.55547 17.1751 6.74476C17.2011 6.40299 17.2271 6.06122 17.2531 5.71944C17.2999 5.10951 17.3467 4.45751 17.3259 3.82129C17.3207 3.66355 17.3104 3.5058 17.2948 3.35332ZM17.1595 6.93932C17.1595 6.93932 17.1543 6.93406 17.1543 6.9288C17.1491 6.91302 17.1335 6.88147 17.1075 6.83415C17.0243 6.66063 16.8475 6.30308 16.6447 5.87192C16.4938 5.55644 16.3326 5.20941 16.1714 4.8729C15.8073 4.08419 15.4848 3.36384 15.4848 3.36384C15.4744 3.33755 15.4797 3.306 15.5057 3.29023L16.525 2.54884C16.4158 2.44894 16.3066 2.34903 16.2025 2.25439C16.0101 2.08613 15.8385 1.93365 15.7293 1.83374C15.5837 1.70229 15.3497 1.40784 15.2093 1.21855C15.2041 1.21329 15.204 1.21329 15.1988 1.20803C15.178 1.22381 15.1572 1.23433 15.1416 1.2501C15.0532 1.3132 14.9752 1.38681 14.9076 1.47094C14.9076 1.47094 14.9076 1.47093 14.9024 1.47619C15.0532 2.08613 15.1 2.70132 15.0896 3.31126C15.0844 3.77922 15.0428 4.24719 14.9908 4.71515C14.9388 5.17786 14.8764 5.64057 14.8244 6.10328C14.7204 7.02344 14.6579 7.9436 14.5123 8.85325C14.4187 9.45792 14.2835 10.0521 14.0807 10.641C14.3719 10.9407 14.8556 11.1458 15.3289 11.1826C15.8073 11.2194 16.2754 11.0827 16.5406 10.6883C16.6706 10.4938 16.7486 10.2624 16.8006 10.0205C16.8787 9.65246 16.8943 9.25811 16.9411 8.9216C16.9983 8.49569 17.0451 8.0698 17.0867 7.64389C17.1231 7.41254 17.1439 7.17593 17.1595 6.93932ZM16.6862 7.63337C16.7955 7.63337 16.8839 7.72276 16.8839 7.83318C16.8839 7.9436 16.7955 8.03298 16.6862 8.03298C16.577 8.03298 16.4886 7.9436 16.4886 7.83318C16.4886 7.72276 16.577 7.63337 16.6862 7.63337ZM16.551 0.997715C16.6082 0.981941 16.6811 0.955645 16.7643 0.934613C16.8371 0.913581 16.9099 0.892554 16.9931 0.866264C17.1075 0.834716 17.2271 0.808426 17.3363 0.776878C17.4195 0.755846 17.4975 0.740071 17.5703 0.719039C17.4819 0.708523 17.3831 0.698003 17.2739 0.682229C17.1491 0.666455 17.0139 0.645427 16.8839 0.629653C16.7955 0.613879 16.7071 0.598104 16.6238 0.587588C16.499 0.566555 16.3898 0.545523 16.3222 0.529749C16.3482 0.587587 16.395 0.655942 16.4574 0.734813C16.5094 0.797909 16.5302 0.871521 16.5302 0.95565V0.960905C16.5354 0.971421 16.5406 0.987199 16.551 0.997715ZM19.3282 0.403553C19.3282 0.393037 19.3282 0.382519 19.3282 0.377261C19.3334 0.29839 19.2918 0.24055 19.245 0.203744C19.2086 0.172196 19.1618 0.151166 19.141 0.14065L18.0488 0.577069C18.132 0.561295 18.2257 0.545523 18.3245 0.529749C18.4493 0.508717 18.5845 0.487684 18.7145 0.47191C18.803 0.461394 18.8966 0.450879 18.9746 0.440363C19.1358 0.419331 19.2658 0.408811 19.3282 0.403553ZM20.8832 11.151C20.6908 11.2246 20.4828 11.272 20.28 11.293C19.9679 11.3193 19.6611 11.2772 19.401 11.1458C19.4374 11.3719 19.5779 12.2815 19.7547 13.4646C19.8275 13.9536 19.9107 14.4899 19.9939 15.0472C20.1083 15.8307 20.228 16.6509 20.3372 17.4186C20.5764 19.1012 20.7844 20.5471 20.8312 20.8994L21.9962 19.974L20.8832 11.151ZM19.089 0.950387C19.089 0.945129 19.089 0.934616 19.089 0.929358C19.089 0.850487 19.1046 0.776875 19.1618 0.708521C19.2242 0.62965 19.271 0.561295 19.297 0.503457C19.2294 0.519231 19.1202 0.535006 18.9953 0.561296C18.9121 0.57707 18.8289 0.592845 18.7353 0.603361C18.6053 0.624393 18.4701 0.640163 18.3453 0.655937C18.2412 0.671711 18.1372 0.682231 18.0488 0.692747C18.1164 0.708521 18.1996 0.729554 18.2828 0.750586C18.3973 0.776876 18.5169 0.808424 18.6261 0.839972C18.7093 0.861004 18.7822 0.887297 18.855 0.908329C18.9434 0.934619 19.0162 0.955646 19.0786 0.976678L19.089 0.950387ZM17.5651 0.603361C17.1803 0.450878 16.473 0.166942 16.473 0.166942C16.4522 0.177458 16.4054 0.19323 16.369 0.230036C16.3274 0.266842 16.2858 0.319424 16.2858 0.403553C16.2858 0.414069 16.2858 0.424586 16.2858 0.429844C16.3482 0.435103 16.4782 0.450873 16.6395 0.466647C16.7175 0.477163 16.8059 0.487686 16.8995 0.498202C17.0295 0.513976 17.1647 0.535 17.2895 0.556033C17.3884 0.571807 17.4819 0.587587 17.5651 0.603361ZM18.9018 1.49723C18.8498 1.59187 18.8029 1.68652 18.7509 1.78642C18.6261 2.04407 18.5169 2.30697 18.4493 2.57513C18.4025 2.76442 18.366 2.95371 18.34 3.15351C18.4181 3.05361 18.5169 2.93793 18.6365 2.817C18.8446 2.60142 19.0942 2.3648 19.3178 2.15974C19.505 1.98622 19.6767 1.839 19.7859 1.73909C19.9263 1.6129 20.1603 1.32897 20.2955 1.14494C20.3163 1.11865 20.332 1.09236 20.3476 1.07133C20.358 1.06081 20.3631 1.04503 20.3683 1.03452C20.2903 0.960905 20.0563 0.787392 19.8067 0.692747C19.7651 0.676973 19.7235 0.666453 19.6819 0.655937C19.5727 0.629647 19.4635 0.629646 19.3751 0.67171L19.3698 0.676974C19.323 0.761102 19.271 0.850484 19.219 0.934613C19.219 0.960903 19.2242 0.987198 19.2242 1.01349C19.2242 1.024 19.2242 1.03452 19.2242 1.04504C19.2242 1.05029 19.2242 1.05555 19.2242 1.06606C19.2294 1.14494 19.2242 1.22906 19.1826 1.31319C19.1514 1.38155 19.0994 1.44465 19.0162 1.513C19.0058 1.51826 18.9798 1.53403 18.9433 1.51826C18.9381 1.513 18.9226 1.50774 18.9018 1.49723ZM16.7591 1.35526C16.9619 1.23958 17.3207 1.01348 17.5808 0.845227C17.5131 0.866259 17.4403 0.887297 17.3675 0.908329C17.2583 0.939878 17.1387 0.971422 17.0243 1.00297C16.9463 1.024 16.863 1.03978 16.7954 1.05555C16.7278 1.07133 16.6654 1.0871 16.6082 1.09762C16.577 1.10288 16.5458 1.10813 16.5198 1.11339C16.5198 1.12917 16.5198 1.13968 16.5198 1.15546C16.5198 1.17649 16.525 1.19752 16.5302 1.22381C16.5458 1.2869 16.5822 1.35526 16.6602 1.41836C16.6654 1.41836 16.6654 1.4131 16.6706 1.4131C16.6914 1.40258 16.7174 1.38155 16.7434 1.36578C16.7486 1.36052 16.7539 1.35526 16.7591 1.35526ZM17.4403 4.90971C17.4247 5.18838 17.4091 5.4618 17.3883 5.72996C17.3415 6.3767 17.2999 7.01818 17.2375 7.65967C17.1959 8.08557 17.1491 8.51673 17.0867 8.94263C17.0347 9.27915 17.0139 9.6735 16.9359 10.0416C17.0555 9.85227 17.2167 9.59463 17.3727 9.35801C17.5859 9.0215 17.7784 8.72705 17.7784 8.72705C17.794 8.70602 17.8148 8.6955 17.8356 8.6955C17.8564 8.6955 17.8824 8.70602 17.8928 8.72705C17.8928 8.72705 18.0748 9.0215 18.2776 9.35801C18.4077 9.57885 18.5533 9.81547 18.6626 9.9995C18.5897 9.64195 18.5689 9.26337 18.5221 8.93737C18.4597 8.51147 18.4129 8.08031 18.3713 7.6544C18.3141 7.01292 18.2724 6.37144 18.2204 5.7247C18.1996 5.46705 18.184 5.1989 18.1684 4.93074C18.1216 4.98857 18.0645 5.0727 18.0125 5.14105C17.9292 5.25147 17.8564 5.34612 17.8564 5.34612C17.8408 5.36189 17.8252 5.37241 17.8044 5.37241C17.7836 5.37241 17.7628 5.36189 17.7524 5.34612C17.7524 5.34612 17.6692 5.2357 17.5808 5.10951C17.534 5.04641 17.4819 4.9728 17.4403 4.90971ZM17.8252 8.06979C17.8876 8.06979 17.9396 8.12237 17.9396 8.18547C17.9396 8.24857 17.8876 8.30115 17.8252 8.30115C17.7628 8.30115 17.7108 8.24857 17.7108 8.18547C17.7108 8.11712 17.7628 8.06979 17.8252 8.06979ZM17.8096 5.9508C17.872 5.9508 17.924 6.00338 17.924 6.06648C17.924 6.12957 17.872 6.18215 17.8096 6.18215C17.7472 6.18215 17.6952 6.12957 17.6952 6.06648C17.6952 6.00338 17.742 5.9508 17.8096 5.9508ZM17.7992 6.97086C17.8616 6.97086 17.9136 7.02344 17.9136 7.08654C17.9136 7.14964 17.8616 7.20222 17.7992 7.20222C17.7368 7.20222 17.6848 7.14964 17.6848 7.08654C17.6848 7.02344 17.7368 6.97086 17.7992 6.97086ZM19.0214 1.06606C18.9694 1.05555 18.9018 1.03978 18.8237 1.02401C18.7509 1.00823 18.673 0.992455 18.5949 0.971423C18.4805 0.945133 18.3609 0.908322 18.2517 0.876774C18.1737 0.855742 18.1008 0.834712 18.0384 0.81368C18.3037 0.981938 18.6677 1.21329 18.8705 1.32371C18.8705 1.32371 18.8757 1.32897 18.8809 1.32897C18.9121 1.34474 18.9382 1.37103 18.9642 1.38155C19.0422 1.31845 19.0786 1.2501 19.0942 1.18701C19.0994 1.17123 19.0994 1.15545 19.0994 1.13968C19.1046 1.11864 19.1046 1.09761 19.1046 1.07658C19.0786 1.08184 19.0526 1.07658 19.0214 1.06606ZM8.79149 4.80454C8.67188 4.59422 8.48465 4.30503 8.26621 4.06316C8.07899 3.8581 7.86578 3.68458 7.64215 3.65829C7.44972 3.63726 7.28331 3.69509 7.13769 3.78974C6.84645 3.97903 6.65921 4.29451 6.602 4.39968C6.66961 4.50484 6.73201 4.60999 6.78402 4.71515C6.92964 4.60999 7.08567 4.54164 7.2521 4.50483C7.38211 4.47329 7.52255 4.46277 7.66297 4.47329C7.8606 4.4838 8.06344 4.52587 8.26107 4.58897C8.4431 4.63629 8.62507 4.71515 8.79149 4.80454ZM11.5375 4.53638C11.6051 4.37864 11.6519 4.28925 11.6519 4.28925C11.6519 4.28399 11.6571 4.27873 11.6571 4.27873C11.6155 4.17883 11.4959 3.93697 11.2671 3.78974C11.111 3.68984 10.9082 3.63725 10.643 3.70561C10.3986 3.77396 10.1697 3.93171 9.96166 4.121C9.69122 4.36813 9.46761 4.65732 9.32719 4.85712C9.47281 4.77299 9.62363 4.69938 9.77965 4.63629C9.94607 4.56793 10.1229 4.51009 10.2945 4.47329C10.4713 4.43648 10.6534 4.41545 10.8354 4.4207C11.0798 4.4207 11.3087 4.46277 11.5375 4.53638ZM6.83087 4.78877C6.97129 5.06744 7.08044 5.34613 7.15845 5.6248C7.28327 5.48284 7.42893 5.36716 7.58495 5.27777C7.71497 5.20416 7.85021 5.14106 7.99583 5.099C8.13625 5.05693 8.28185 5.02538 8.42747 5.00435C8.57829 4.98332 8.73431 4.97806 8.88514 4.98332C8.88514 4.98332 8.88513 4.97806 8.87993 4.97806C8.6771 4.8729 8.44825 4.77825 8.21422 4.7099C8.02699 4.65206 7.83978 4.61526 7.64736 4.60474C7.48613 4.59422 7.3301 4.60474 7.17928 4.64154C7.06486 4.66783 6.94528 4.71515 6.83087 4.78877ZM11.1215 5.69315C11.2515 5.24622 11.3971 4.8729 11.5011 4.62577C11.2827 4.56793 11.0643 4.54164 10.851 4.5469C10.6794 4.55216 10.5078 4.56793 10.3362 4.60474C10.1697 4.64155 9.99807 4.68887 9.83685 4.75196C9.63402 4.83083 9.43638 4.92548 9.24396 5.0359C9.45199 5.04115 9.66526 5.05693 9.87329 5.09373C10.0553 5.12528 10.2322 5.17261 10.4038 5.2357C10.5182 5.27777 10.6274 5.33561 10.7366 5.3987C10.877 5.47757 11.0019 5.57747 11.1215 5.69315ZM9.38959 11.172C9.91487 10.8828 10.9498 10.3518 11.4075 10.1099C11.4439 10.0889 11.4751 10.0731 11.5011 10.0573C11.4387 9.97321 11.3815 9.88908 11.3295 9.80495C11.0486 9.95744 10.7782 10.1152 10.5182 10.2782C10.3205 10.4044 10.1281 10.5411 9.94611 10.683C9.82129 10.7777 9.70164 10.8776 9.58722 10.9828C9.52481 11.0458 9.4572 11.1089 9.38959 11.172ZM6.63838 9.91537C6.60197 9.98898 6.57081 10.0468 6.5448 10.0941C6.96606 10.2992 8.32342 10.9565 8.91631 11.2404C8.92671 11.2457 8.93714 11.2509 8.94754 11.2562C8.79672 11.1352 8.64069 11.0143 8.47946 10.9039C8.30784 10.7829 8.131 10.6673 7.94898 10.5621C7.76695 10.4517 7.58496 10.3518 7.39773 10.2571C7.1533 10.1257 6.89842 10.0153 6.63838 9.91537ZM7.19489 5.73522C7.33531 6.27154 7.37174 6.79735 7.34574 7.2916C7.28853 8.38528 6.92447 9.31595 6.68523 9.82073C6.94527 9.91011 7.2053 10.0153 7.46014 10.1362C7.65256 10.2256 7.83977 10.3255 8.027 10.4359C8.20903 10.5463 8.39107 10.662 8.56269 10.7882C8.77072 10.9407 8.96315 11.1037 9.14517 11.2772C9.25959 11.1352 9.37918 11.0038 9.5092 10.8829C9.62362 10.7724 9.74327 10.6673 9.86808 10.5674C10.0553 10.4201 10.2529 10.2834 10.4558 10.1625C10.721 9.9995 10.9966 9.85227 11.2827 9.70505C10.955 9.12666 10.8198 8.47992 10.8042 7.83844C10.7886 7.10757 10.9238 6.38721 11.0902 5.78254C10.929 5.63531 10.7522 5.51964 10.5598 5.43025C10.4297 5.36715 10.2893 5.31983 10.1489 5.27777C10.0085 5.2357 9.86287 5.20416 9.72245 5.17786C9.53002 5.14632 9.33239 5.12528 9.13997 5.12003C9.11916 5.1358 9.08795 5.14105 9.06194 5.14105C9.01514 5.14105 8.97355 5.11477 8.94754 5.07271C8.78112 5.07271 8.61472 5.08848 8.4535 5.10951C8.31308 5.13054 8.17784 5.16735 8.04262 5.20941C7.9074 5.25148 7.77739 5.30406 7.65777 5.37241C7.48614 5.47757 7.33011 5.58799 7.19489 5.73522Z" fill="#133F24"/>
</svg>
