<svg width="26" height="22" viewBox="0 0 26 22" fill="none" xmlns="http://www.w3.org/2000/svg">
<path fill-rule="evenodd" clip-rule="evenodd" d="M14.8651 2.85899C7.43562 7.52201 4.56377 6.76453 0.950499 11.751C-2.27257 16.1931 4.38425 16.8638 6.72546 18.6391C8.03654 19.6411 8.98864 21.7557 10.8226 21.8424C15.8406 22.0713 15.2865 17.7633 18.1506 15.1359C19.9299 13.5027 22.6847 13.8025 24.4875 12.0746C26.5399 10.1099 26.4229 6.22013 23.9646 4.66579C22.474 3.72688 20.5932 3.69531 18.9076 3.32447C18.1037 3.15089 17.6199 1.12318 14.8651 2.85899Z" fill="#FFF0E0"/>
<path fill-rule="evenodd" clip-rule="evenodd" d="M3.28226 8.87668C2.99703 8.83578 2.79195 8.62615 2.64933 8.34494C2.35519 7.77742 2.32846 6.91847 2.32846 6.91847C2.32401 6.86223 2.3641 6.8111 2.41758 6.8111C2.41758 6.8111 2.41758 6.8111 2.42204 6.8111C2.55574 6.70373 2.99703 6.34072 3.50955 5.77319C3.72347 5.538 3.95076 5.26191 4.17359 4.96025C4.37415 4.68927 4.57461 4.39273 4.75734 4.07574C5.01583 3.63092 5.2432 3.1452 5.39472 2.61347C5.39472 2.59813 5.39919 2.5879 5.40811 2.57256C5.42148 2.54189 5.45264 2.52143 5.48384 2.52143H5.4883C5.4883 2.52143 5.80912 2.51121 6.20576 2.50099C6.25924 2.50099 6.31277 2.50098 6.36625 2.49587C6.37517 2.49075 6.38857 2.49076 6.40194 2.49076C6.41085 2.49076 6.41968 2.49075 6.4286 2.49587C6.51328 2.49587 6.59799 2.49587 6.68712 2.49587C6.79408 2.49587 6.90548 2.50098 7.00353 2.5061C7.19071 2.51632 7.35564 2.52655 7.48043 2.53166C7.54282 2.53677 7.59188 2.53678 7.62753 2.54189C7.63644 2.29647 7.64091 2.05106 7.64091 1.82098C7.64091 1.37616 7.62749 0.987584 7.58738 0.747281C7.57401 0.65525 7.5607 0.588786 7.53396 0.558109C7.50276 0.522319 7.49381 0.486531 7.49381 0.455854C7.49381 0.420064 7.50713 0.36893 7.56062 0.338253C7.59181 0.317802 7.65428 0.297353 7.75233 0.276902C8.04647 0.225774 8.70597 0.195098 9.55274 0.174647C11.7365 0.123519 15.1682 0.164418 16.7102 0.195095C17.0578 0.200208 17.3075 0.210438 17.4278 0.215551C17.4679 0.215551 17.4946 0.220661 17.508 0.220661C17.6105 0.230886 17.6239 0.333146 17.6283 0.343371C17.6283 0.35871 17.5793 1.45796 17.5526 2.58278C17.6729 2.57256 17.869 2.547 18.0874 2.53166C18.1899 2.52144 18.2924 2.51632 18.4038 2.51121C18.5063 2.50609 18.6132 2.50099 18.7202 2.50099C19.2149 2.49076 19.6651 2.49076 19.6651 2.49076C19.7141 2.49076 19.7586 2.53166 19.7586 2.59301C19.7586 2.60324 19.7586 2.61858 19.7542 2.62881C19.7987 2.96114 19.928 3.28835 20.0973 3.60535C20.2622 3.91212 20.4716 4.20355 20.6989 4.48476C20.9708 4.8222 21.2695 5.1392 21.5636 5.42041C22.3168 6.14131 23.012 6.62703 23.012 6.62703C23.0432 6.64748 23.061 6.68839 23.0565 6.72418C23.0565 6.72929 23.0565 6.73952 23.0565 6.74463C23.0565 7.11787 23.0343 7.41952 22.9897 7.65983C22.9452 7.92569 22.8739 8.12509 22.7937 8.26314C22.6332 8.53923 22.4148 8.62103 22.192 8.57502C22.1162 8.55968 22.0315 8.52901 21.9513 8.4881C21.9468 8.63637 21.9468 8.87668 21.9424 9.18345C21.9201 10.886 21.8711 14.6746 21.8399 17.1032C21.8265 18.0184 21.8176 18.7393 21.8086 19.0819C21.8086 19.179 21.8042 19.2506 21.8042 19.2813C21.8042 19.3375 21.7865 19.3631 21.7865 19.3682C21.7775 19.3835 21.7596 19.4142 21.7106 19.4296C21.6883 19.4347 21.6438 19.4449 21.577 19.4551C21.3854 19.4807 20.9842 19.5063 20.4271 19.542C19.7586 19.5778 18.8583 19.6187 17.8244 19.6596C17.6729 19.7057 17.5213 19.7466 17.3653 19.7772C17.2628 19.7977 17.1603 19.813 17.0489 19.8232C16.9464 19.8335 16.8395 19.8335 16.7325 19.8232C16.474 19.8079 16.2601 19.7721 16.064 19.721C16.0596 19.721 16.0551 19.721 16.0506 19.7159C15.6139 19.7312 15.1637 19.7414 14.7047 19.7517C12.8418 19.7977 10.8542 19.8284 9.08042 19.8284C9.03585 19.8335 8.9868 19.8386 8.93777 19.8437C8.82635 19.8539 8.72387 19.8539 8.62136 19.8488C8.54114 19.8437 8.46091 19.8386 8.38515 19.8232C6.44649 19.813 4.8421 19.7619 4.06664 19.6392C3.79032 19.5983 3.61198 19.5369 3.54067 19.4807C3.48273 19.4347 3.46494 19.3784 3.46494 19.3273C3.46494 18.9132 3.44707 17.6605 3.42033 16.1573C3.36239 13.3095 3.29117 9.5209 3.28226 8.87668ZM2.51572 6.98493C2.53355 7.16388 2.59139 7.62404 2.75183 8.01261C2.88553 8.33472 3.08608 8.61593 3.42033 8.59548C3.61197 8.58525 3.83483 8.47788 4.1156 8.25292C4.37409 8.04329 4.6727 7.74163 5.02032 7.30704C5.03815 7.28659 5.06049 7.27125 5.08278 7.27636C5.17637 7.03095 5.39473 6.43275 5.62202 5.6965C5.73344 5.3386 5.84485 4.94492 5.95181 4.54612C6.03649 4.22401 6.11671 3.89678 6.17911 3.57467C6.23259 3.29858 6.27716 3.03272 6.29945 2.77707C6.23705 2.77707 6.17905 2.77196 6.12111 2.77196C5.85371 2.76174 5.63531 2.7464 5.53726 2.74129C5.40356 3.27302 5.19863 3.76896 4.95352 4.22401C4.77079 4.55634 4.57021 4.86822 4.36074 5.14943C4.12899 5.46131 3.8883 5.73229 3.66101 5.97259C3.12175 6.52989 2.65388 6.88267 2.51572 6.98493ZM5.05155 7.55757C4.75295 7.9666 4.48999 8.26825 4.25378 8.47276C3.94627 8.73863 3.68332 8.85623 3.46494 8.88179C3.47831 9.55157 3.56303 13.3197 3.62097 16.1778C3.65217 17.6298 3.67439 18.8467 3.67439 19.3068C3.72787 19.3273 3.8973 19.3835 4.08002 19.4091C4.70842 19.5011 5.88936 19.5523 7.3467 19.5676C7.33779 19.5523 7.32886 19.5318 7.33332 19.5114C7.33778 19.5011 7.34225 19.4858 7.3467 19.4807C7.3467 19.4756 7.35117 19.4705 7.35563 19.4653C7.39128 19.3835 7.4314 19.3069 7.47596 19.2455L7.48043 19.2404C6.0008 19.1841 4.03987 19.1126 4.03987 19.1126C3.99085 19.1126 3.95076 19.0717 3.95076 19.0205C3.95076 19.0205 3.84823 12.742 3.80812 10.2827C3.7992 9.86346 3.79473 9.55668 3.79473 9.40841C3.79473 9.36751 3.79473 9.33683 3.79473 9.3215C3.79028 9.29593 3.79475 9.27037 3.80812 9.24481C3.81703 9.22947 3.83482 9.19368 3.88384 9.17834C3.8883 9.17834 3.89724 9.17323 3.91061 9.17323C3.91952 9.17323 3.9374 9.17323 3.96414 9.17323C4.04436 9.17323 4.21364 9.17833 4.44093 9.18345C5.77348 9.21924 9.17399 9.33172 9.17399 9.33172C9.24084 9.33172 9.29433 9.39819 9.29433 9.47488C9.29433 9.47488 9.28539 11.0445 9.27202 12.9209H9.27649C9.40127 12.9874 9.45473 13.0999 9.47701 13.2328C9.49484 13.3504 9.48146 13.4833 9.46363 13.6163C9.45026 13.7185 9.43687 13.8157 9.44579 13.8975C9.46807 13.8924 9.5038 13.8873 9.52609 13.8924C9.57957 13.8975 9.63744 13.9077 9.68647 13.9384C9.6731 12.5886 9.66426 11.2797 9.65535 10.431C9.65089 10.0117 9.65088 9.70496 9.64643 9.5618C9.64643 9.5209 9.64643 9.49022 9.64643 9.47488C9.64643 9.46977 9.64643 9.46976 9.64643 9.46976C9.64643 9.46976 9.64643 9.46976 9.65089 9.46976C9.65089 9.45443 9.65089 9.4442 9.65089 9.43909C9.66426 9.3624 9.71325 9.34195 9.72662 9.33683C9.7489 9.32661 9.7756 9.3215 9.79788 9.33172C9.8068 9.33172 9.81574 9.33172 9.82465 9.33172C9.90933 9.33172 10.092 9.33172 10.3416 9.33172C11.7945 9.32661 15.5069 9.30616 15.5069 9.30616C15.5426 9.30616 15.5738 9.3215 15.596 9.34706C15.6183 9.37263 15.6317 9.40841 15.6317 9.44932C15.6317 9.44932 15.5783 12.2154 15.5292 14.782L15.5337 14.7769C15.5827 14.7411 15.6361 14.7155 15.6985 14.7002C15.7208 14.6951 15.7387 14.6951 15.761 14.69C15.7655 14.69 15.7655 14.69 15.7699 14.69C15.761 14.6644 15.7565 14.6388 15.7521 14.6286C15.7298 14.5417 15.6941 14.4343 15.6852 14.3321C15.6762 14.2452 15.6807 14.1633 15.7119 14.0918C15.7342 14.0355 15.7698 13.9946 15.81 13.9639C15.8545 13.9282 15.908 13.9077 15.9615 13.8975C15.9482 12.4966 15.9392 11.1161 15.9303 10.2316C15.9258 9.81233 15.9258 9.50556 15.9258 9.3624C15.9258 9.3215 15.9258 9.29082 15.9258 9.27548C15.9258 9.27037 15.9258 9.27036 15.9258 9.27036C15.9258 9.25503 15.9258 9.24481 15.9258 9.24481C15.9392 9.14766 16.0105 9.13744 16.0239 9.13232C16.0372 9.13232 16.0507 9.12721 16.0685 9.13232C16.0774 9.13232 16.0863 9.13232 16.0952 9.13232C16.171 9.13232 16.3359 9.13232 16.5543 9.13232C17.8512 9.12721 21.1535 9.10676 21.1535 9.10676C21.1847 9.10676 21.2205 9.1221 21.2427 9.14766C21.265 9.17323 21.2783 9.20901 21.2783 9.24992C21.2783 9.24992 21.2427 15.3546 21.2294 17.7423C21.2294 18.1514 21.2249 18.4479 21.2249 18.5911C21.2249 18.632 21.2249 18.6575 21.2249 18.6729C21.2294 18.6933 21.2249 18.7189 21.216 18.7393C21.2071 18.7547 21.1981 18.7802 21.1624 18.7956C21.158 18.7956 21.1492 18.8007 21.1313 18.8058C21.1224 18.8058 21.1045 18.8109 21.0778 18.8109C21.002 18.816 20.8416 18.8262 20.6232 18.8365C19.9859 18.8671 18.8584 18.9183 17.8868 18.9643C17.8913 18.9694 17.9001 18.9694 17.9046 18.9745C17.9536 19.0001 17.9982 19.0308 18.0428 19.0614C18.0829 19.0972 18.123 19.1381 18.1586 19.1841C18.2032 19.2404 18.2389 19.312 18.2745 19.3887C19.1124 19.358 19.8433 19.3273 20.4093 19.2966C20.9619 19.2659 21.3541 19.2404 21.5458 19.2199C21.5547 19.2199 21.5636 19.2199 21.5725 19.2148C21.577 19.0768 21.5814 18.8058 21.5903 18.4377C21.6259 16.7351 21.6928 12.9465 21.7418 10.5179C21.7597 9.6027 21.7731 8.88179 21.782 8.53923C21.782 8.48299 21.782 8.43698 21.7865 8.4063C21.6839 8.33472 21.5814 8.24269 21.4833 8.14043C21.2204 7.87457 20.9887 7.54735 20.855 7.34283C20.7703 7.87457 20.6455 8.23758 20.4939 8.47788C20.2577 8.84601 19.9592 8.94315 19.6561 8.88179C19.3932 8.83066 19.1213 8.64661 18.8762 8.42164C18.542 8.11487 18.2612 7.72629 18.1186 7.51667C17.9894 8.02795 17.8334 8.38585 17.664 8.61592C17.41 8.96871 17.1203 9.06074 16.8395 9.00961C16.5721 8.9636 16.3091 8.76931 16.0774 8.52901C15.7565 8.19667 15.5025 7.77231 15.3821 7.55757C15.195 8.02284 15.0033 8.36028 14.8117 8.59548C14.5443 8.9227 14.2813 9.06074 14.0362 9.08119C13.6574 9.11698 13.3142 8.86646 13.0513 8.54946C12.8151 8.26314 12.6369 7.93081 12.5433 7.73141C12.4096 8.14043 12.2758 8.4472 12.1421 8.67216C11.9237 9.03006 11.6965 9.18856 11.487 9.22435C11.2062 9.27548 10.9433 9.10676 10.7338 8.85112C10.4932 8.55968 10.3104 8.16089 10.2168 7.9257C10.0029 8.32961 9.80237 8.62615 9.60628 8.82555C9.33442 9.11187 9.08042 9.21924 8.85758 9.21924C8.56344 9.22435 8.3138 9.03518 8.12216 8.77954C7.87704 8.45743 7.72114 8.01773 7.64538 7.77231C7.43591 8.17111 7.23532 8.45743 7.04368 8.65683C6.77182 8.94314 6.51782 9.05052 6.29498 9.05052C6.00084 9.05563 5.7512 8.86645 5.55957 8.61081C5.28325 8.25803 5.12286 7.78765 5.05155 7.55757ZM7.61415 2.7464C7.53838 2.75151 7.40911 2.76174 7.24867 2.77196C7.14171 2.77708 7.02136 2.78219 6.89211 2.7873C6.77624 2.7873 6.65599 2.7873 6.53566 2.7873C6.51338 2.7873 6.48657 2.7873 6.46429 2.7873C6.45092 3.11452 6.4108 3.47242 6.34841 3.83032C6.30384 4.09618 6.24596 4.36716 6.17911 4.62792C6.0766 5.03694 5.95626 5.43064 5.83593 5.79365C5.55962 6.63215 5.27878 7.28659 5.21193 7.4502C5.26541 7.61381 5.3947 7.97171 5.59525 8.27848C5.76461 8.53924 5.98745 8.76931 6.26822 8.7642C6.44203 8.75909 6.63816 8.66706 6.86099 8.45232C7.07491 8.2478 7.31105 7.94103 7.56508 7.49621C7.57399 7.48599 7.57847 7.47576 7.59184 7.46554C7.60076 7.30193 7.61864 7.02072 7.64538 6.70884C7.65875 6.51455 7.67652 6.30493 7.6988 6.10553C7.71663 5.94703 7.7345 5.79365 7.75233 5.6556C7.77907 5.46131 7.80131 5.30281 7.81468 5.20567C7.81913 5.1801 7.81468 5.14943 7.81914 5.13409C7.6587 5.12898 7.56954 5.12898 7.56954 5.12898C7.5428 5.12898 7.52056 5.11875 7.50273 5.0983C7.4849 5.07785 7.47597 5.05229 7.48043 5.02672C7.48934 5.0165 7.57849 3.88145 7.61415 2.7464ZM17.5347 2.79241C17.5303 3.06851 17.5258 3.34971 17.5303 3.60535C17.5303 4.05528 17.5436 4.44897 17.5748 4.69439C17.5837 4.77619 17.6105 4.86822 17.6149 4.87845C17.6506 4.91935 17.6551 4.96537 17.6506 5.00627C17.6462 5.03694 17.6327 5.07785 17.5926 5.10852C17.5748 5.12386 17.5347 5.14432 17.4678 5.15454C17.45 5.15966 17.4278 5.15965 17.4055 5.16476C17.4322 5.26702 17.4634 5.3795 17.4991 5.49199C17.5481 5.64026 17.6016 5.78853 17.6595 5.93681C17.7264 6.12087 17.7977 6.30492 17.8645 6.47365C18.0428 6.92358 18.2033 7.26614 18.2033 7.26614C18.2077 7.27636 18.2122 7.28659 18.2122 7.29681C18.3147 7.43997 18.5598 7.76209 18.8584 8.05352C19.1124 8.30405 19.411 8.52901 19.6962 8.58525C19.9146 8.62615 20.1241 8.55968 20.3023 8.29893C20.4672 8.06374 20.6098 7.68539 20.7123 7.11275C20.5162 6.91335 20.0795 6.44808 19.6294 5.83454C19.3976 5.51755 19.1614 5.16477 18.9564 4.78642C18.8227 4.53589 18.7024 4.28024 18.5998 4.01438C18.4439 3.61046 18.3414 3.19122 18.3102 2.7873C18.2344 2.7873 18.1587 2.79241 18.0874 2.79241C17.8556 2.80264 17.6551 2.79753 17.5347 2.79241ZM17.2183 5.1801C17.049 5.19544 16.8217 5.20056 16.5498 5.21079C16.1443 5.22101 15.6317 5.22612 15.0568 5.22612C15.0568 5.23635 15.0568 5.24146 15.0568 5.25168C15.0613 5.32837 15.0747 5.43064 15.097 5.55334C15.1148 5.66071 15.1459 5.7783 15.1727 5.90612C15.1994 6.02372 15.2217 6.14132 15.2484 6.26403C15.2796 6.4123 15.3109 6.56057 15.3376 6.6935C15.4134 7.05651 15.4802 7.33772 15.4802 7.33772C15.4802 7.34283 15.4802 7.34794 15.4846 7.35305C15.5693 7.49621 15.7877 7.849 16.0729 8.166C16.3047 8.42675 16.581 8.66194 16.8662 8.71307C17.0713 8.74886 17.2762 8.67217 17.4723 8.42164C17.655 8.19156 17.8289 7.82344 17.9849 7.27636C17.9136 7.14854 17.7799 6.89802 17.6462 6.59125C17.5704 6.42252 17.4902 6.23846 17.4278 6.04417C17.3832 5.91635 17.3476 5.78853 17.3119 5.66071C17.2673 5.4971 17.2362 5.33349 17.2183 5.1801ZM14.8786 5.22612C14.1388 5.22612 13.3098 5.22101 12.4853 5.21079C12.4942 5.27725 12.5031 5.36417 12.512 5.47154C12.5254 5.64026 12.5476 5.84477 12.5566 6.05951C12.5655 6.2538 12.5744 6.45831 12.5789 6.6526C12.5878 6.96448 12.5878 7.24569 12.5922 7.40419C12.5967 7.41441 12.6012 7.41953 12.6012 7.42975C12.6056 7.43486 12.6101 7.44509 12.6145 7.45532C12.6145 7.45532 12.8419 7.96659 13.1939 8.36028C13.4168 8.61081 13.6931 8.81533 14.0006 8.78977C14.1967 8.76931 14.4061 8.65171 14.629 8.40119C14.8384 8.16088 15.0568 7.81321 15.2796 7.31215C15.2306 7.15877 15.137 6.83155 15.0479 6.47365C15.0211 6.37139 14.9989 6.26402 14.9766 6.15665C14.9543 6.04417 14.9364 5.9368 14.9231 5.83454C14.8874 5.59424 14.8741 5.38461 14.8875 5.25168C14.8786 5.24146 14.8786 5.23635 14.8786 5.22612ZM12.3071 5.21079C11.6519 5.20056 11.0057 5.19033 10.4085 5.1801C10.404 5.31304 10.404 5.57379 10.3996 5.87545C10.3951 6.04417 10.3906 6.22824 10.3817 6.40719C10.3728 6.59125 10.3639 6.77019 10.3505 6.93892C10.3327 7.26614 10.3149 7.54223 10.306 7.66494C10.3595 7.79787 10.5734 8.30915 10.8765 8.6466C11.0369 8.82555 11.2241 8.9636 11.4291 8.9227C11.5004 8.90736 11.5717 8.87668 11.6475 8.81532C11.7411 8.74374 11.8346 8.63638 11.9327 8.49322C12.0842 8.26826 12.2447 7.94615 12.4051 7.51156C12.3962 7.4093 12.3649 7.06162 12.3426 6.65771C12.3293 6.46853 12.316 6.26402 12.3115 6.06974C12.3071 5.89079 12.3071 5.72206 12.3071 5.5789C12.3026 5.43063 12.3026 5.2977 12.3071 5.21079ZM10.2302 5.17499C9.27198 5.15965 8.46086 5.1392 7.99736 5.12898C7.99736 5.14943 7.99736 5.18011 7.99736 5.21079C7.99736 5.30793 7.993 5.47154 7.97963 5.67094C7.97071 5.80898 7.96177 5.96748 7.9484 6.12598C7.93057 6.32538 7.90823 6.535 7.88595 6.72929C7.83692 7.14343 7.7879 7.49622 7.77453 7.60359C7.82801 7.7672 7.9573 8.1251 8.15785 8.43698C8.32721 8.69773 8.55004 8.92781 8.83082 8.9227C9.00463 8.91758 9.20076 8.82555 9.42359 8.61081C9.6286 8.41141 9.86026 8.11487 10.1098 7.68539C10.1098 7.67517 10.1098 7.67005 10.1098 7.65983C10.1098 7.51156 10.1098 7.16389 10.1188 6.77531C10.1232 6.56568 10.1277 6.34583 10.1366 6.13109C10.1455 5.98282 10.1545 5.83455 10.1678 5.70161C10.1946 5.48176 10.2123 5.2977 10.2302 5.17499ZM19.5803 2.71061C19.4332 2.72594 19.0856 2.75663 18.7157 2.78219C18.6355 2.78731 18.5553 2.79242 18.475 2.79753C18.5152 3.10941 18.6043 3.42129 18.7247 3.73317C18.845 4.04505 18.9965 4.35183 19.1614 4.64837C19.3664 5.01138 19.5892 5.35905 19.8076 5.67094C20.387 6.4941 20.9352 7.07186 20.9352 7.07186C20.9574 7.09231 20.9664 7.12298 20.9664 7.14854C21.0956 7.33261 21.3452 7.66494 21.626 7.93081C21.8221 8.11487 22.0271 8.26825 22.2187 8.30404C22.397 8.33472 22.5485 8.23757 22.6644 7.95125C22.7669 7.70073 22.8427 7.32749 22.8783 6.79065C22.7357 6.69862 22.085 6.26402 21.3987 5.63003C21.0956 5.34883 20.7792 5.02672 20.5029 4.67905C20.3157 4.44386 20.1464 4.19333 20.0038 3.93258C19.7809 3.53378 19.6293 3.11963 19.5803 2.71061ZM10.0564 19.5625C11.5583 19.5523 13.1627 19.5165 14.6869 19.4807C14.9186 19.4756 15.1504 19.4705 15.3777 19.4602C15.3732 19.4551 15.3732 19.45 15.3732 19.4449C15.3598 19.4193 15.3598 19.3887 15.3777 19.3682C15.4178 19.2864 15.4624 19.2097 15.5159 19.1432C15.5515 19.0972 15.5961 19.0563 15.6407 19.0256C15.6852 18.9899 15.7342 18.9643 15.7877 18.9438C15.8144 18.9336 15.8412 18.9234 15.868 18.9132C15.7922 18.8365 15.7209 18.7444 15.663 18.6422C15.5783 18.499 15.5158 18.3405 15.4668 18.182C15.4623 18.5553 15.4534 18.8314 15.4534 18.9643C15.4534 19.0001 15.4534 19.0256 15.4534 19.041C15.4579 19.0717 15.4535 19.0972 15.4357 19.1279C15.4268 19.1381 15.4133 19.1637 15.3821 19.1739C15.3777 19.1739 15.3687 19.179 15.3509 19.179C15.342 19.179 15.3242 19.179 15.293 19.1841C15.2083 19.1893 15.0345 19.1893 14.7938 19.1944C13.6707 19.2097 11.1394 19.2199 10.1857 19.225C10.2124 19.2659 10.2391 19.312 10.2614 19.358C10.2748 19.3835 10.2792 19.4142 10.2659 19.4347C10.2614 19.4551 10.2435 19.4705 10.2257 19.4807C10.1678 19.5114 10.1143 19.5369 10.0564 19.5625ZM15.7476 19.4551C15.8546 19.4909 15.966 19.5216 16.0863 19.5472C16.2735 19.5881 16.4785 19.6136 16.7281 19.6238C16.8306 19.629 16.9286 19.6238 17.0266 19.6187C17.1291 19.6136 17.2273 19.5983 17.3253 19.5829C17.5882 19.542 17.8467 19.4756 18.1231 19.4091C18.1141 19.3989 18.1052 19.3887 18.0918 19.3784C18.0874 19.3784 18.0874 19.3733 18.0829 19.3733C18.0517 19.3426 18.0205 19.312 17.9938 19.2864C17.9537 19.2455 17.9136 19.2097 17.8735 19.179C17.8066 19.1279 17.7353 19.0768 17.6506 19.041C17.3966 19.2608 17.0713 19.3529 16.7548 19.3324C16.4919 19.312 16.2289 19.2148 16.0105 19.0461C15.9347 19.0819 15.8679 19.1228 15.801 19.1688C15.7565 19.1995 15.712 19.2353 15.6674 19.2762C15.6362 19.3069 15.6005 19.3324 15.5693 19.3631C15.5604 19.3733 15.5515 19.3784 15.5426 19.3887C15.6095 19.404 15.6763 19.4296 15.7476 19.4551ZM7.95732 19.5676C8.07765 19.5932 8.19801 19.6136 8.31388 19.629C8.41193 19.6392 8.50994 19.6494 8.61244 19.6545C8.71049 19.6596 8.8085 19.6596 8.91101 19.6494C9.1383 19.6341 9.32997 19.6085 9.49932 19.5676C9.51715 19.5625 9.53046 19.5574 9.54828 19.5574C9.74438 19.5114 9.91382 19.45 10.0876 19.3784C10.0787 19.3682 10.0698 19.3631 10.0609 19.3529C10.0297 19.3222 9.99403 19.2966 9.96283 19.2711C9.94946 19.2608 9.93159 19.2455 9.91822 19.2353C9.88703 19.2097 9.85585 19.1893 9.82465 19.1688C9.789 19.1483 9.7578 19.1228 9.71769 19.1023C9.68204 19.0819 9.64639 19.0665 9.61074 19.0512C9.39682 19.225 9.13837 19.3324 8.87543 19.358C8.66596 19.3784 8.45198 19.3478 8.25589 19.2659C8.15338 19.2199 8.05984 19.1637 7.97071 19.0921C7.88603 19.133 7.81472 19.1841 7.74787 19.2404C7.74341 19.2455 7.7434 19.2455 7.73895 19.2506C7.70329 19.2813 7.66764 19.3171 7.62753 19.3529C7.60079 19.3835 7.56962 19.4091 7.53842 19.4449C7.52505 19.4602 7.5161 19.4705 7.50273 19.4858C7.66763 19.5063 7.81471 19.542 7.95732 19.5676ZM9.02688 12.4199C9.0358 11.0854 9.04027 9.98105 9.04473 9.60781C8.42525 9.58736 5.61749 9.48511 4.43201 9.44421C4.2582 9.43909 4.12008 9.43398 4.02649 9.43398C4.03095 9.59248 4.03095 9.88391 4.03541 10.2725C4.06215 12.5579 4.12453 18.1462 4.13345 18.9183L7.73895 19.0103C7.7746 18.9899 7.81026 18.9745 7.85037 18.9592C7.82363 18.9285 7.79681 18.8978 7.77007 18.862L4.32059 18.7751C4.28939 18.7751 4.26271 18.7444 4.26271 18.7086L4.18698 9.68451H4.18252C4.18252 9.67428 4.18699 9.65894 4.1959 9.64872C4.20481 9.63849 4.21811 9.63338 4.23148 9.63338V9.62827L8.89316 9.77143C8.9199 9.77143 8.94669 9.79699 8.94669 9.83278L8.93777 12.3125C8.9556 12.3227 8.97347 12.3381 8.98684 12.3585C9.00021 12.379 9.01351 12.3994 9.02688 12.4199ZM9.68201 14.2196C9.67755 14.1991 9.67308 14.1838 9.66862 14.1685C9.65525 14.1378 9.63302 14.1224 9.61074 14.1071C9.57954 14.0918 9.54836 14.0815 9.5127 14.0815C9.48596 14.0815 9.46361 14.0918 9.44133 14.0918C9.41459 14.0969 9.39234 14.0918 9.37006 14.0866C9.32995 14.0713 9.29431 14.0458 9.27649 13.9742C9.25866 13.8873 9.26312 13.7748 9.27649 13.6572C9.28986 13.5242 9.31216 13.3811 9.29433 13.2635C9.28987 13.2328 9.28093 13.2021 9.26756 13.1766C9.24974 13.1459 9.22749 13.1203 9.1963 13.105C9.18293 13.0948 9.16952 13.105 9.15615 13.1101C9.13832 13.1152 9.12044 13.1203 9.10261 13.1254C9.08033 13.1306 9.05809 13.1306 9.03581 13.1254C9.03135 13.1254 9.02688 13.1203 9.02242 13.1203C9.00014 13.1101 8.9779 13.0896 8.96008 13.0487C8.95116 13.0181 8.94222 12.9567 8.93331 12.9107C8.92885 12.8851 8.92885 12.8647 8.92885 12.8596C8.91994 12.788 8.91544 12.6755 8.8887 12.5835C8.87979 12.5528 8.86648 12.5221 8.8442 12.5068C8.83974 12.5017 8.83081 12.5017 8.82635 12.5017C8.81744 12.5017 8.8085 12.5017 8.79959 12.5068C8.74165 12.5221 8.70599 12.5681 8.67925 12.6193C8.63023 12.7266 8.62136 12.8647 8.61244 12.9721C8.60799 13.0027 8.61243 13.1459 8.59906 13.2072C8.59015 13.2482 8.57228 13.2737 8.55891 13.2839C8.54554 13.2993 8.51884 13.3095 8.48764 13.3095C8.46536 13.3095 8.42526 13.3044 8.38961 13.2993C8.37624 13.2993 8.35837 13.2993 8.34946 13.2993C8.26032 13.3555 8.22465 13.4578 8.21574 13.56C8.20682 13.6878 8.23361 13.8208 8.26927 13.9384C8.28264 13.9844 8.26926 14.0151 8.26035 14.0355C8.24252 14.0611 8.22027 14.0815 8.18462 14.0815C8.1757 14.0815 8.16229 14.0815 8.14447 14.0713C8.14001 14.0662 8.1177 14.056 8.11324 14.0509L8.0732 14.0406C8.04646 14.0406 8.01518 14.0509 7.98844 14.0662C7.96616 14.0764 7.94393 14.0918 7.93502 14.1173C7.90828 14.1685 7.91272 14.2298 7.92163 14.2861C7.935 14.3627 7.95734 14.4394 7.97963 14.5008L8.02859 14.6286C8.02859 14.6286 8.04644 14.6644 8.0509 14.6797C8.08209 14.7564 8.02412 14.8127 8.01967 14.8127C8.0063 14.8229 7.98406 14.8331 7.95286 14.8331C7.92166 14.8331 7.87711 14.8229 7.85483 14.8229C7.81472 14.8229 7.76568 14.828 7.72557 14.8485C7.69437 14.8587 7.6632 14.8791 7.64538 14.9098C7.62309 14.9507 7.62754 14.9916 7.63645 15.0376C7.65428 15.0939 7.68544 15.1501 7.71218 15.1961L7.77899 15.2933C7.7879 15.2984 7.81915 15.3291 7.82806 15.3393C7.84143 15.3649 7.8459 15.3853 7.8459 15.4058C7.8459 15.4313 7.83695 15.462 7.80129 15.4876C7.78792 15.4978 7.76568 15.5029 7.73449 15.508C7.69438 15.508 7.63643 15.4978 7.61415 15.4978C7.5473 15.4978 7.45816 15.4927 7.38239 15.5234C7.34674 15.5387 7.31111 15.5591 7.29328 15.5949C7.26208 15.6563 7.27992 15.7228 7.30666 15.7841C7.34232 15.8608 7.40017 15.9273 7.4492 15.9784L7.56508 16.0807C7.56953 16.0858 7.58293 16.0909 7.59184 16.096C7.60521 16.1062 7.61862 16.1113 7.62753 16.1216C7.64536 16.1369 7.64973 16.1573 7.65419 16.1778C7.65865 16.2034 7.65428 16.2289 7.63199 16.2545C7.61417 16.2749 7.58736 16.2903 7.56062 16.3056C7.52496 16.321 7.48485 16.3312 7.44474 16.3465C7.418 16.3568 7.39129 16.367 7.36901 16.3874C7.31553 16.4437 7.33782 16.5255 7.37347 16.597C7.41804 16.684 7.49375 16.7658 7.54723 16.7964C7.55169 16.8016 7.55616 16.8016 7.56062 16.8067C7.60073 16.8169 7.63638 16.822 7.67649 16.8271C7.83693 16.8527 7.99741 16.8629 8.15339 16.8731C8.32274 16.8885 8.49205 16.8936 8.66141 16.8936C8.71489 16.8936 8.76395 16.8936 8.81743 16.8936C8.85754 16.8936 8.89766 16.8885 8.93777 16.8885C8.96451 16.8885 8.99568 16.8834 9.02242 16.8834C9.09819 16.8783 9.17396 16.868 9.24972 16.8578C9.3032 16.8527 9.36119 16.8425 9.41467 16.8322C9.51717 16.8118 9.61965 16.7862 9.71769 16.7607C9.78009 16.7402 9.84244 16.7198 9.90038 16.6993C9.9494 16.6789 9.99846 16.6635 10.043 16.638C10.043 16.6328 10.0475 16.6277 10.0475 16.6277L10.0519 16.6226C10.0831 16.5766 10.1232 16.5204 10.1589 16.459C10.2213 16.3516 10.2793 16.2238 10.2971 16.1062C10.3105 15.9989 10.2882 15.8966 10.1946 15.8199C10.1857 15.8097 10.1723 15.8046 10.1634 15.8046C10.15 15.7994 10.1321 15.7943 10.1143 15.7943C10.0965 15.7892 10.0742 15.7892 10.0564 15.7841C10.0341 15.779 10.0162 15.7739 9.99395 15.7688C9.96721 15.7585 9.94051 15.7483 9.91822 15.733C9.91377 15.7279 9.90484 15.7228 9.90038 15.7125C9.89147 15.6972 9.88254 15.6767 9.887 15.6512C9.887 15.641 9.89147 15.6256 9.90038 15.6C9.92266 15.5387 9.99396 15.4006 10.0029 15.3904C10.0296 15.3291 10.052 15.2728 10.0609 15.2166V15.1399C10.0564 15.1041 10.043 15.0632 10.0163 15.0223C9.99397 14.9865 9.96726 14.9558 9.93607 14.9354C9.9227 14.9252 9.91375 14.92 9.90038 14.9149C9.8781 14.9047 9.85586 14.8945 9.83357 14.8945L9.74446 14.8894C9.74 14.8894 9.71322 14.8945 9.70431 14.8945H9.69985C9.64191 14.8996 9.6152 14.8382 9.6152 14.8382C9.60629 14.8178 9.60628 14.7871 9.60628 14.7564C9.61073 14.7002 9.63751 14.6235 9.64196 14.5928C9.65979 14.5161 9.68647 14.4292 9.69539 14.3423L9.68201 14.2196ZM15.2796 15.687C15.3153 13.2481 15.3643 10.2623 15.3732 9.57714C14.7092 9.58225 11.6251 9.59247 10.3327 9.59247C10.1321 9.59247 9.97623 9.59247 9.87818 9.59247C9.87818 9.75097 9.87808 10.0424 9.88253 10.4208C9.88253 11.4331 9.887 13.0948 9.887 14.7002C9.93156 14.7155 9.97168 14.736 10.0073 14.7615C10.0207 14.7718 10.0341 14.782 10.0475 14.7922L10.0743 9.89413H10.0698C10.0698 9.8839 10.0743 9.86857 10.0832 9.85834C10.0921 9.84812 10.1054 9.84301 10.1143 9.84301V9.83789L15.1059 9.84812C15.1192 9.84812 15.1325 9.85323 15.1459 9.86856C15.1548 9.87879 15.1593 9.89413 15.1593 9.90947L15.1103 18.7342C15.1103 18.7751 15.0835 18.8058 15.0479 18.8058L10.0876 18.8671C10.0698 18.8671 10.0564 18.862 10.043 18.8467C10.0297 18.8365 10.0252 18.816 10.0252 18.8007V18.5092C10.0029 18.5553 9.98066 18.5962 9.95837 18.6422C9.93609 18.6831 9.91374 18.7189 9.887 18.7547V18.9694C9.91819 18.9847 9.94948 19.0001 9.97622 19.0205C10.7071 19.0103 13.5639 18.9796 14.7805 18.9541C14.9766 18.9489 15.1326 18.9489 15.2262 18.9438C15.2262 18.7904 15.2306 18.4939 15.235 18.0951C15.2395 17.6554 15.2484 17.093 15.2573 16.4641C15.1994 16.3567 15.1504 16.2443 15.1281 16.1267C15.1102 15.9682 15.1415 15.8097 15.2796 15.687ZM15.9615 14.0815C15.9482 14.0866 15.9347 14.0918 15.9214 14.102C15.8991 14.1173 15.8769 14.1378 15.8635 14.1633C15.8457 14.2042 15.8456 14.2503 15.8501 14.3014C15.859 14.3934 15.8902 14.4854 15.908 14.5673C15.9169 14.5979 15.9437 14.6746 15.9481 14.7309C15.9526 14.7615 15.9481 14.7922 15.9437 14.8127C15.9437 14.8127 15.917 14.8791 15.8546 14.874C15.8457 14.874 15.8189 14.8689 15.8144 14.8689L15.7253 14.874C15.6897 14.8791 15.654 14.8945 15.6228 14.92C15.5916 14.9456 15.5649 14.9763 15.5426 15.007C15.5337 15.0223 15.5248 15.0376 15.5203 15.053L15.5159 15.2575C15.5292 15.2984 15.5425 15.3342 15.5648 15.3751C15.5737 15.3904 15.6451 15.5285 15.6719 15.5847C15.6808 15.6103 15.6852 15.6256 15.6852 15.6358C15.6896 15.6819 15.6674 15.7074 15.654 15.7176C15.6318 15.733 15.6049 15.7483 15.5782 15.7585C15.5559 15.7637 15.5337 15.7688 15.5069 15.7739C15.4891 15.779 15.4757 15.779 15.4579 15.7841C15.4311 15.7892 15.4 15.7994 15.3777 15.8148C15.2841 15.8915 15.2618 15.9989 15.2796 16.1062C15.3064 16.2647 15.4044 16.4334 15.4891 16.5561C15.5025 16.5766 15.5203 16.5971 15.5337 16.6175C15.5382 16.6226 15.5426 16.6277 15.5426 16.638C15.6852 16.6993 15.8323 16.7453 15.9794 16.776C16.0418 16.7913 16.0997 16.8016 16.1621 16.8118C16.1665 16.8118 16.171 16.8118 16.1754 16.8118C16.2066 16.8169 16.2378 16.822 16.2735 16.8271C16.3091 16.8322 16.3492 16.8374 16.3849 16.8425C16.5676 16.8578 16.7503 16.8629 16.9331 16.8578C17.1024 16.8527 17.2718 16.8425 17.4412 16.8271C17.5972 16.8118 17.7575 16.7964 17.918 16.7658C17.9581 16.7607 17.9937 16.7504 18.0338 16.7402C18.0383 16.7351 18.0428 16.7351 18.0472 16.73C18.1007 16.6993 18.1765 16.6175 18.2166 16.5306C18.2523 16.459 18.2746 16.3772 18.2166 16.321C18.1944 16.3005 18.1675 16.2903 18.1408 16.2801C18.1007 16.2647 18.0606 16.2596 18.0249 16.2443C17.9982 16.234 17.9715 16.2187 17.9537 16.1982C17.9314 16.1727 17.9269 16.1471 17.9269 16.1216C17.9269 16.1011 17.9358 16.0858 17.9537 16.0653C17.9626 16.0551 17.9715 16.05 17.9893 16.0398C17.9983 16.0346 18.0115 16.0295 18.016 16.0244L18.1274 15.917C18.1764 15.8659 18.2299 15.7943 18.2656 15.7176C18.2923 15.6563 18.3057 15.5898 18.2745 15.5285C18.2567 15.4876 18.2211 15.4722 18.1809 15.4569C18.1052 15.4313 18.016 15.4364 17.9492 15.4364C17.9225 15.4364 17.8645 15.4518 17.8289 15.4518C17.8021 15.4518 17.7799 15.4416 17.762 15.4364C17.7264 15.416 17.7174 15.3853 17.7174 15.3597C17.7174 15.3393 17.7175 15.3137 17.7353 15.2933C17.7442 15.283 17.7754 15.2524 17.7843 15.2422L17.8512 15.145C17.8779 15.099 17.9091 15.0427 17.9224 14.9814C17.9313 14.9405 17.9358 14.8945 17.9135 14.8536C17.8957 14.8229 17.8645 14.8076 17.8289 14.7973C17.7843 14.782 17.7352 14.7769 17.6951 14.7769C17.6773 14.7769 17.6283 14.7871 17.6016 14.7871C17.5704 14.7871 17.5481 14.7769 17.5347 14.7667C17.5347 14.7667 17.4723 14.7104 17.5035 14.6337C17.508 14.6184 17.5214 14.5826 17.5258 14.5826L17.5748 14.4497C17.5971 14.3883 17.6194 14.3116 17.6283 14.2349C17.6372 14.1736 17.6372 14.1122 17.6105 14.0662C17.5971 14.0457 17.5793 14.0304 17.5571 14.0202C17.5303 14.0048 17.499 13.9997 17.4723 13.9997L17.4323 14.01C17.4233 14.0151 17.4055 14.0304 17.401 14.0304C17.3832 14.0406 17.3698 14.0406 17.3609 14.0406C17.3252 14.0406 17.2985 14.0202 17.2807 13.9946C17.2718 13.9793 17.2539 13.9486 17.2673 13.8975C17.2985 13.785 17.3253 13.647 17.3164 13.5191C17.3075 13.4118 17.2718 13.3146 17.1782 13.2584C17.1737 13.2584 17.1514 13.2584 17.138 13.2584C17.1024 13.2635 17.0623 13.2686 17.04 13.2686C17.0044 13.2686 16.9821 13.2584 16.9643 13.243C16.9509 13.2328 16.9286 13.2072 16.9197 13.1663C16.9063 13.1101 16.9018 12.9618 16.9018 12.9312C16.8929 12.8238 16.8796 12.6806 16.8261 12.5784C16.7994 12.5272 16.7637 12.4812 16.7058 12.4659C16.6879 12.4608 16.6702 12.4608 16.6568 12.4659C16.6345 12.4761 16.6211 12.5068 16.6122 12.5426C16.5854 12.6346 16.5854 12.7471 16.5765 12.8187C16.5765 12.8391 16.5632 12.9618 16.5498 13.0078C16.532 13.0641 16.4963 13.0845 16.474 13.0896C16.4517 13.0948 16.4295 13.0948 16.4072 13.0948C16.4027 13.0948 16.3983 13.0948 16.3893 13.0896C16.376 13.0896 16.3626 13.0845 16.3537 13.0794C16.3403 13.0743 16.327 13.0692 16.3136 13.0743C16.3047 13.0794 16.3002 13.0845 16.2958 13.0845C16.2468 13.1203 16.2245 13.1766 16.22 13.2328C16.2022 13.3504 16.2289 13.4936 16.2467 13.6265C16.2601 13.7441 16.269 13.8566 16.2512 13.9435C16.2378 14.01 16.2066 14.0406 16.171 14.056C16.1665 14.056 16.1665 14.056 16.1621 14.0611C16.1398 14.0662 16.1175 14.0713 16.0908 14.0662C16.0685 14.0662 16.0417 14.056 16.0194 14.056C15.9971 14.0713 15.9749 14.0764 15.9615 14.0815ZM17.909 18.7291C18.8717 18.678 19.9859 18.6217 20.6098 18.5859C20.7836 18.5757 20.9219 18.5655 21.011 18.5604C21.011 18.5399 21.011 18.5144 21.011 18.4837C21.011 18.1871 21.011 17.5685 21.011 16.7862C21.0154 14.3116 21.0243 10.1907 21.0287 9.37774C20.4137 9.38285 17.6952 9.39819 16.5498 9.39307C16.3805 9.39307 16.2467 9.39307 16.1576 9.39307C16.1576 9.55157 16.1576 9.843 16.1576 10.2214C16.1576 10.9065 16.1576 11.8933 16.1621 12.9516C16.1799 12.9363 16.2022 12.9209 16.2245 12.9056C16.2468 12.8954 16.269 12.8851 16.2869 12.8851L16.2958 9.65383H16.2913C16.2913 9.62826 16.3136 9.60781 16.3359 9.60781V9.6027L20.846 9.58737C20.8594 9.58737 20.8728 9.59247 20.8862 9.60781C20.8951 9.61804 20.8996 9.63338 20.8996 9.64872L20.8327 18.3814C20.8327 18.4172 20.806 18.4479 20.7748 18.453L17.9849 18.5808C17.9626 18.6268 17.9358 18.678 17.909 18.7291ZM15.4757 17.3486C15.4935 17.5071 15.5114 17.6656 15.5426 17.8241C15.5916 18.0798 15.6673 18.3201 15.801 18.5348C15.859 18.6268 15.9259 18.7086 16.0017 18.7802C16.1086 18.8825 16.2333 18.9592 16.3626 19.0154C16.4918 19.0717 16.6256 19.1023 16.7638 19.1126C16.9821 19.1279 17.2049 19.0819 17.3966 18.9694C17.4991 18.9132 17.5883 18.8365 17.6729 18.7393C17.6997 18.7035 17.7264 18.6729 17.7531 18.632C17.7665 18.6166 17.7754 18.5962 17.7843 18.5808C17.8111 18.5348 17.8378 18.4888 17.8601 18.4377C17.9314 18.2843 17.9848 18.1156 18.0294 17.9315C18.1141 17.5685 18.1587 17.1748 18.1943 16.8374C18.1186 16.868 18.0383 16.8936 17.9537 16.914C17.7932 16.955 17.6283 16.9805 17.4678 17.0061C17.3252 17.0265 17.1782 17.0419 17.0311 17.0521C16.8172 17.0623 16.6033 17.0572 16.3893 17.0316C16.3849 17.0316 16.376 17.0316 16.3715 17.0316C16.3403 17.0265 16.3091 17.0214 16.2779 17.0163C16.2423 17.0112 16.2022 17.0061 16.1665 16.9958C16.1041 16.9856 16.0462 16.9703 15.9838 16.9549C15.8145 16.9089 15.6495 16.8527 15.4846 16.776C15.4623 16.7658 15.4401 16.7555 15.4178 16.7402C15.4401 16.9447 15.4534 17.1441 15.4757 17.3486ZM9.21403 19.0563C9.40567 18.9796 9.584 18.8518 9.72215 18.678C9.75781 18.632 9.78899 18.5859 9.81573 18.5399C9.84247 18.4939 9.86917 18.4479 9.89146 18.3968C9.95385 18.2587 9.99845 18.1156 10.0341 17.9622C10.043 17.9162 10.052 17.8701 10.0609 17.819C10.1143 17.5174 10.1277 17.2055 10.15 16.9038C10.1544 16.8527 10.1589 16.7965 10.1634 16.7453C10.1589 16.7453 10.1544 16.7504 10.15 16.7504C10.1143 16.7709 10.0742 16.7913 10.0386 16.8067C9.98954 16.8322 9.94048 16.8527 9.89146 16.8731C9.82906 16.8987 9.77117 16.9192 9.70877 16.9396C9.55279 16.9907 9.39678 17.0265 9.23634 17.0521C9.23188 17.0521 9.22295 17.0521 9.21849 17.0572C9.14718 17.0674 9.08035 17.0777 9.00904 17.0828C8.9823 17.0879 8.95113 17.0879 8.92439 17.0879C8.88428 17.093 8.84416 17.093 8.80405 17.093C8.72383 17.0981 8.64359 17.0981 8.56337 17.093C8.4163 17.0879 8.26924 17.0777 8.12662 17.0572C7.96618 17.0368 7.80136 17.0163 7.64091 16.9754C7.56069 16.955 7.476 16.9345 7.40024 16.9038C7.44035 17.2413 7.49379 17.6298 7.58738 17.9929C7.65423 18.2536 7.74778 18.4939 7.87702 18.6831C7.88594 18.6984 7.89488 18.7086 7.90825 18.724C7.94836 18.7751 7.99295 18.8262 8.03751 18.8671C8.10436 18.9285 8.17566 18.9796 8.25142 19.0205C8.44306 19.1228 8.6615 19.1586 8.87097 19.1381C8.98684 19.1279 9.10261 19.1023 9.21403 19.0563ZM8.82635 12.2869L8.83974 9.89413L4.27163 9.73563L4.38305 18.6371L7.67649 18.7189C7.56508 18.5246 7.48494 18.2894 7.427 18.044C7.33341 17.6401 7.29324 17.2004 7.25759 16.8374C7.25313 16.8169 7.26206 16.7964 7.27543 16.7811C7.27989 16.7658 7.28883 16.7555 7.29774 16.7504C7.26209 16.7044 7.2308 16.6482 7.20852 16.597C7.16395 16.4795 7.16845 16.3619 7.25313 16.2698C7.27096 16.2494 7.2932 16.234 7.31994 16.2187C7.35113 16.2034 7.38689 16.188 7.42254 16.1778C7.41363 16.1727 7.40469 16.1625 7.39577 16.1573C7.37349 16.1369 7.35115 16.1164 7.33332 16.096C7.26201 16.0193 7.1729 15.917 7.13279 15.7994C7.10159 15.7074 7.09715 15.6052 7.14171 15.5131C7.17737 15.4313 7.24417 15.3802 7.31994 15.3495C7.40016 15.3188 7.49377 15.3137 7.56954 15.3137L7.56508 15.3086C7.51605 15.2319 7.46702 15.1399 7.4492 15.0428C7.43583 14.9661 7.44478 14.8843 7.48489 14.8076C7.51608 14.7513 7.56513 14.7104 7.61861 14.6797C7.681 14.6491 7.75674 14.6337 7.81914 14.6286L7.79683 14.5724C7.76564 14.4855 7.73002 14.373 7.7211 14.2605C7.71219 14.1736 7.7256 14.0867 7.76125 14.01C7.78354 13.9639 7.82364 13.923 7.86375 13.8924C7.91723 13.8566 7.98404 13.8361 8.04197 13.831C8.01523 13.7032 8.00631 13.5651 8.03305 13.4424C8.05979 13.3044 8.12664 13.1868 8.25589 13.105C8.28263 13.0896 8.31381 13.0794 8.35392 13.0794C8.37175 13.0794 8.39409 13.0794 8.41637 13.0845C8.41637 13.0334 8.42084 12.9618 8.42084 12.9465C8.42975 12.8084 8.44755 12.6397 8.50995 12.5119C8.55897 12.4045 8.63475 12.3227 8.75063 12.292C8.77737 12.2869 8.80407 12.2869 8.82635 12.2869ZM10.15 15.6103C10.1678 15.6154 10.1812 15.6205 10.1991 15.6256C10.2258 15.6358 10.248 15.6461 10.2703 15.6665C10.4218 15.7892 10.4575 15.9477 10.4308 16.1164C10.4085 16.2596 10.3372 16.413 10.2614 16.5408C10.2659 16.5459 10.2748 16.5459 10.2792 16.551C10.3015 16.5664 10.3149 16.597 10.3149 16.6277C10.2793 17.0214 10.2836 17.4458 10.2212 17.8497C10.2034 17.9622 10.1812 18.0747 10.15 18.182V18.7342L14.99 18.6677L15.0568 9.97083L10.1634 9.94015L10.1589 14.9252C10.1946 14.9916 10.2124 15.0581 10.2124 15.1194C10.2169 15.2064 10.1946 15.2984 10.1589 15.3853L10.15 15.6103ZM16.3849 12.834C16.3849 12.8187 16.3893 12.8033 16.3893 12.7982C16.3983 12.7266 16.3983 12.6295 16.4161 12.5375C16.4339 12.4608 16.4607 12.3892 16.5008 12.3381C16.5542 12.2767 16.6256 12.2409 16.7325 12.2665C16.8484 12.292 16.9242 12.3739 16.9777 12.4761C17.0401 12.6039 17.0623 12.7727 17.0757 12.9107C17.0757 12.926 17.0802 12.9976 17.0846 13.0487C17.1069 13.0436 17.1291 13.0436 17.147 13.0436C17.1826 13.0436 17.2183 13.0487 17.245 13.0641C17.3742 13.1408 17.4411 13.2584 17.4723 13.3913C17.499 13.514 17.4946 13.6521 17.4723 13.7799C17.5302 13.785 17.5971 13.8003 17.6506 13.8361C17.6952 13.8668 17.7308 13.9026 17.7576 13.9486C17.7977 14.0202 17.8065 14.1071 17.8021 14.1991C17.7932 14.3065 17.762 14.419 17.7308 14.511L17.7085 14.5673C17.7709 14.5724 17.8466 14.5826 17.909 14.6133C17.967 14.6388 18.016 14.6797 18.0472 14.736C18.0873 14.8076 18.1007 14.8894 18.0874 14.9661C18.074 15.0632 18.025 15.1603 17.976 15.237L17.9715 15.2422C18.0473 15.2422 18.1409 15.2422 18.2211 15.2728C18.2969 15.2984 18.3637 15.3495 18.3993 15.4313C18.4439 15.5285 18.4439 15.6256 18.4127 15.7176C18.3726 15.8352 18.2924 15.9426 18.2211 16.0193C18.1988 16.0398 18.1809 16.0602 18.1586 16.0807C18.1497 16.0858 18.1408 16.096 18.1319 16.1011C18.1675 16.1113 18.2033 16.1216 18.2345 16.142C18.2568 16.1573 18.279 16.1727 18.3013 16.188C18.386 16.2749 18.3904 16.3976 18.3503 16.5152C18.3324 16.5715 18.3013 16.6226 18.2656 16.6737C18.2745 16.6789 18.2834 16.6942 18.2879 16.7044C18.3013 16.7198 18.3057 16.7402 18.3057 16.7607C18.279 17.1237 18.2478 17.5685 18.1631 17.9724C18.1274 18.1309 18.0873 18.2843 18.0338 18.4223L20.6989 18.2945L20.7837 9.68962H16.367L16.3849 12.834ZM10.6669 13.8208C10.6714 13.7645 10.716 13.7185 10.7651 13.7236C10.8141 13.7288 10.8542 13.7799 10.8497 13.8361C10.8497 13.9639 10.8586 14.0918 10.8631 14.2196C10.8676 14.3065 10.872 14.3883 10.872 14.4752C10.872 14.5315 10.8676 14.5877 10.8676 14.6491C10.8631 14.736 10.8542 14.8229 10.8497 14.9098C10.8497 14.9609 10.8185 15.007 10.7695 15.007C10.725 15.0121 10.6848 14.9712 10.6848 14.92C10.6669 14.8127 10.6492 14.7053 10.6358 14.5979C10.6269 14.5264 10.6269 14.4497 10.6269 14.3781C10.6269 14.3065 10.6313 14.2298 10.6358 14.1582C10.6403 14.0406 10.6535 13.9282 10.6669 13.8208ZM7.73895 0.522316C7.75678 0.573444 7.77454 0.634803 7.78345 0.711495C7.82356 0.967137 7.83698 1.36594 7.83698 1.83121C7.82807 2.99182 7.71215 4.53077 7.68095 4.9398C8.50099 4.95002 14.2234 5.02161 16.5454 4.94492C16.9153 4.93469 17.196 4.91935 17.3564 4.8989C17.352 4.87845 17.3476 4.858 17.3431 4.83754C17.3119 4.66882 17.2941 4.40296 17.2851 4.07574C17.254 2.91001 17.3386 0.987586 17.3609 0.501868C17.2049 0.496755 16.8974 0.486528 16.4918 0.476302C14.5532 0.430286 10.2837 0.368933 8.45195 0.460964C8.12216 0.47119 7.87265 0.491639 7.73895 0.522316ZM14.3526 2.80264C14.1521 2.79241 13.956 2.77707 13.7555 2.76685C13.7065 2.76685 13.6619 2.72084 13.6664 2.65948C13.6664 2.60324 13.7065 2.55723 13.7599 2.55723C13.9828 2.55211 14.2012 2.547 14.424 2.547C14.4507 2.547 14.473 2.547 14.4997 2.547C14.5844 2.40384 14.6602 2.25557 14.7538 2.12263C14.8697 1.9488 15.0167 1.76474 15.2084 1.7085C15.4178 1.64714 15.5293 1.85677 15.4401 2.06128C15.3777 2.19933 15.2618 2.30158 15.1459 2.37827C15.0434 2.44985 14.9365 2.50098 14.825 2.547C14.8384 2.547 14.8518 2.547 14.8607 2.547C15.0078 2.55211 15.1549 2.55211 15.3019 2.56234C15.4401 2.56745 15.5782 2.57767 15.7164 2.58278C15.8278 2.51632 15.9437 2.45497 16.0596 2.40384C16.2245 2.33226 16.4562 2.26068 16.6211 2.37316C16.8796 2.547 16.7949 2.88444 16.5186 2.96114C16.2779 3.0276 16.0417 2.90489 15.8189 2.79241C15.6896 2.80775 15.5604 2.81798 15.4312 2.82309C15.3109 2.8282 15.195 2.83332 15.0746 2.83332C15.0301 2.83332 14.99 2.83332 14.9454 2.83332C15.0835 2.89467 15.2128 2.98159 15.3064 3.09919C15.3911 3.21167 15.4757 3.44175 15.3554 3.56445C15.2618 3.6616 15.0881 3.54912 15.0034 3.49288C14.8474 3.39062 14.7136 3.23723 14.5888 3.09407C14.5131 2.99692 14.4284 2.91001 14.3526 2.80264ZM10.6892 2.78219C10.6135 2.88445 10.5288 2.97648 10.4441 3.07362C10.3193 3.21678 10.1856 3.37016 10.0296 3.47242C9.94496 3.52866 9.77113 3.64114 9.67754 3.544C9.56167 3.42129 9.6464 3.19121 9.72662 3.07873C9.82021 2.95602 9.94948 2.87422 10.0876 2.81287C10.0431 2.81287 10.0029 2.81287 9.95837 2.81287C9.83804 2.81287 9.72215 2.80775 9.60182 2.80264C9.47257 2.79753 9.34327 2.78219 9.21403 2.76685C8.9912 2.87422 8.75953 3.00204 8.51441 2.93557C8.23809 2.85888 8.15788 2.51632 8.41191 2.3476C8.57681 2.24023 8.80856 2.31181 8.969 2.37827C9.08933 2.4294 9.20076 2.49076 9.31217 2.55723C9.45033 2.55211 9.58846 2.54188 9.72662 2.53677C9.87369 2.53166 10.0208 2.52655 10.1678 2.52143C10.1812 2.52143 10.1946 2.52143 10.2035 2.52143C10.0921 2.47542 9.98504 2.42429 9.88253 2.35271C9.76666 2.27602 9.65083 2.17376 9.58843 2.03572C9.4993 1.8312 9.61072 1.62158 9.82019 1.68293C10.0118 1.73917 10.1589 1.92323 10.2748 2.09707C10.3684 2.23511 10.4486 2.37827 10.5288 2.52143C10.5556 2.52143 10.5778 2.52143 10.6046 2.52143C10.8274 2.52143 11.0458 2.52655 11.2686 2.53166C11.3176 2.53166 11.3622 2.57767 11.3622 2.63392C11.3622 2.69016 11.3221 2.73618 11.2731 2.74129C11.0859 2.75663 10.8898 2.77197 10.6892 2.78219ZM12.561 3.66671C12.1777 3.24234 11.8658 2.73106 11.848 2.08173C11.8435 1.81075 11.955 1.40173 12.1867 1.3915C12.4764 1.37616 12.5967 2.02038 12.6012 2.01527C12.6234 1.99482 12.6546 1.3915 12.9042 1.36594C13.1983 1.33526 13.3276 1.84654 13.2607 2.15331C13.0691 3.08384 12.5788 3.68716 12.561 3.66671ZM9.82019 9.33172C9.8291 9.34195 9.8425 9.35217 9.85142 9.36751C9.85587 9.37262 9.87373 9.39307 9.87818 9.43909C9.87818 9.43909 9.87818 9.4442 9.87818 9.44932C9.87818 9.41353 9.86921 9.3624 9.82019 9.33172ZM16.8172 16.4488C16.835 16.4846 16.8261 16.5357 16.7949 16.5561C16.7637 16.5766 16.7191 16.5664 16.7013 16.5306C16.6746 16.4846 16.6523 16.4385 16.63 16.3874C16.6077 16.3363 16.5899 16.2852 16.5765 16.2289C16.5676 16.1931 16.5588 16.1573 16.5543 16.1267C16.5498 16.0909 16.5454 16.0551 16.5454 16.0193C16.5409 15.917 16.5542 15.8352 16.581 15.779C16.6032 15.7279 16.6345 15.6921 16.6657 15.6716C16.7147 15.641 16.7771 15.6307 16.8439 15.6665C16.8885 15.687 16.9376 15.733 16.991 15.7994C17.0356 15.8659 17.0668 15.9324 17.0846 16.004C17.1114 16.1062 17.1114 16.2136 17.1069 16.321C17.1069 16.3619 17.0801 16.3925 17.0445 16.3925C17.0088 16.3925 16.9821 16.3619 16.9821 16.321C16.9777 16.2443 16.9643 16.1676 16.9464 16.1011C16.9286 16.0397 16.9019 15.9784 16.8573 15.9273C16.8306 15.8966 16.8083 15.8761 16.7861 15.8608C16.7816 15.8557 16.7727 15.8557 16.7682 15.8506C16.7638 15.8506 16.7637 15.8455 16.7593 15.8455C16.7459 15.8506 16.7414 15.871 16.737 15.8915C16.7281 15.9222 16.7236 15.9579 16.7236 15.9988C16.7236 16.0295 16.7236 16.0551 16.7281 16.0858C16.7325 16.1164 16.7325 16.1471 16.7414 16.1727C16.7504 16.2187 16.7593 16.2596 16.7727 16.3056C16.7816 16.3619 16.7993 16.4028 16.8172 16.4488ZM15.9794 16.4539C15.9571 16.459 15.9347 16.4539 15.9169 16.4386C15.8813 16.4079 15.8456 16.3772 15.81 16.3414C15.7877 16.3158 15.7654 16.2903 15.7431 16.2647C15.6986 16.2034 15.6674 16.1164 15.654 16.0295C15.6451 15.9579 15.6496 15.8915 15.6719 15.8352C15.712 15.7381 15.8011 15.6665 15.966 15.733C15.9704 15.733 15.9704 15.7381 15.9749 15.7381C16.0373 15.7688 16.0952 15.8199 16.1353 15.8813C16.1442 15.8966 16.1576 15.9119 16.1665 15.9273C16.2111 16.004 16.2423 16.096 16.2556 16.1727C16.2645 16.2085 16.2512 16.2494 16.2156 16.2596C16.1978 16.2647 16.1799 16.2647 16.1621 16.2545C16.1487 16.2443 16.1397 16.234 16.1353 16.2187C16.113 16.1573 16.0774 16.0909 16.0328 16.0346C16.015 16.0091 15.9927 15.9886 15.9749 15.9682C15.9526 15.9477 15.9303 15.9375 15.9035 15.9273C15.8857 15.9222 15.8724 15.917 15.859 15.917C15.8501 15.917 15.8456 15.9119 15.8412 15.917C15.8367 15.9222 15.8323 15.9324 15.8323 15.9426C15.8233 16.004 15.8412 16.0909 15.8724 16.142C15.8902 16.1727 15.9125 16.2034 15.9348 16.2289C15.9481 16.2443 15.9615 16.2647 15.9794 16.2801C15.9883 16.2903 15.9972 16.3005 16.0061 16.3107C16.0373 16.3363 16.0372 16.3874 16.0149 16.4232C16.006 16.4386 15.9927 16.4488 15.9794 16.4539ZM17.566 16.0449C17.5571 16.0193 17.5392 16.0858 17.5258 16.1318C17.5214 16.1522 17.5169 16.1676 17.5124 16.188C17.508 16.2085 17.508 16.2289 17.5035 16.2545C17.4991 16.2903 17.4991 16.3261 17.4991 16.3619C17.4991 16.4028 17.5035 16.4386 17.5035 16.4795C17.508 16.5204 17.4813 16.5613 17.4456 16.5664C17.41 16.5715 17.3743 16.5408 17.3698 16.4999C17.3609 16.4488 17.352 16.4028 17.3475 16.3516C17.343 16.3158 17.3431 16.2801 17.3431 16.2443C17.3431 16.2085 17.343 16.1778 17.3475 16.1471C17.352 16.1216 17.3564 16.1011 17.3609 16.0755C17.4054 15.8915 17.4901 15.8352 17.5703 15.8352C17.6104 15.8352 17.6506 15.8506 17.6951 15.8864C17.7263 15.9119 17.762 15.9528 17.7976 16.004C17.8422 16.0704 17.869 16.1369 17.8868 16.2085C17.9091 16.3107 17.9135 16.413 17.9046 16.5255C17.9046 16.5664 17.8779 16.597 17.8422 16.597C17.8066 16.597 17.7799 16.5664 17.7799 16.5306C17.771 16.4539 17.762 16.3823 17.7397 16.3107C17.7219 16.2494 17.6952 16.1931 17.6506 16.142C17.6283 16.1113 17.6015 16.0807 17.5793 16.0653C17.5793 16.0551 17.5704 16.05 17.566 16.0449ZM17.566 16.0449C17.5615 16.0449 17.5571 16.0449 17.5615 16.0449C17.5615 16.0397 17.5615 16.0397 17.566 16.0449ZM16.1665 15.4518C16.1398 15.4058 16.1086 15.3546 16.0863 15.2984C16.0551 15.2319 16.0328 15.1603 16.0194 15.099C15.9971 14.9712 16.0328 14.8689 16.1264 14.8127C16.1353 14.8076 16.1487 14.8024 16.1665 14.8024C16.1799 14.8024 16.1888 14.8024 16.2022 14.8076C16.2245 14.8127 16.2557 14.8382 16.2824 14.8587C16.3002 14.874 16.3136 14.8843 16.3181 14.8894C16.3404 14.9149 16.3626 14.9405 16.3849 14.9661C16.4116 15.0018 16.4383 15.0376 16.4562 15.0785C16.4918 15.145 16.5231 15.2217 16.5454 15.2933C16.5587 15.3291 16.5453 15.37 16.5141 15.3853C16.483 15.4006 16.4473 15.3853 16.434 15.3495C16.4206 15.3188 16.4027 15.2933 16.3849 15.2677C16.3671 15.237 16.3493 15.2115 16.327 15.1859C16.3092 15.1655 16.2958 15.145 16.2779 15.1246C16.2556 15.099 16.2289 15.0734 16.2022 15.053C16.2022 15.053 16.1933 15.0427 16.1888 15.0376V15.0428C16.1888 15.0837 16.1978 15.1297 16.2111 15.1757C16.229 15.237 16.2512 15.2933 16.2735 15.3444C16.2958 15.3955 16.3181 15.4364 16.3315 15.4569C16.3537 15.4927 16.3493 15.5387 16.3181 15.5643C16.3047 15.5745 16.2868 15.5796 16.2735 15.5796C16.2556 15.5796 16.2334 15.5694 16.22 15.5489C16.2156 15.5336 16.1933 15.4978 16.1665 15.4518ZM16.1665 15.0223C16.171 15.0223 16.1754 15.0223 16.1754 15.0172C16.171 15.0121 16.1665 15.0121 16.1665 15.007V15.0223ZM16.3893 13.877C16.376 13.8054 16.376 13.7339 16.3804 13.6623C16.3804 13.647 16.3849 13.6265 16.3893 13.6112C16.4027 13.5396 16.4294 13.4782 16.4606 13.4322C16.5364 13.3351 16.6612 13.2942 16.8306 13.4578C16.884 13.514 16.9286 13.5856 16.9554 13.6623C16.991 13.7645 17.0043 13.8821 17.0132 13.9895C17.0177 14.0304 16.9955 14.0662 16.9643 14.0713C16.9286 14.0764 16.8975 14.0509 16.893 14.0151C16.8752 13.923 16.8484 13.8259 16.8083 13.739C16.786 13.6878 16.7548 13.6469 16.7147 13.6112C16.6924 13.5907 16.6702 13.5754 16.6479 13.5651C16.6345 13.56 16.6211 13.5549 16.6122 13.56C16.5944 13.5651 16.5854 13.5856 16.5765 13.606C16.5408 13.693 16.5408 13.8259 16.5676 13.9179C16.5809 13.9691 16.6033 14.0202 16.6211 14.0662C16.6434 14.1173 16.6701 14.1633 16.6968 14.2094C16.7191 14.2451 16.7102 14.2912 16.679 14.3167C16.6478 14.3423 16.6032 14.3321 16.581 14.3014C16.5498 14.2554 16.5141 14.2042 16.4874 14.1531C16.4562 14.102 16.4339 14.0457 16.4117 13.9844C16.4027 13.9537 16.3938 13.9179 16.3893 13.877ZM16.9464 14.9916C16.9553 15.0325 16.9287 15.0734 16.893 15.0837C16.8574 15.0939 16.8172 15.0632 16.8127 15.0223C16.786 14.8996 16.7682 14.7615 16.7816 14.6235C16.7905 14.5264 16.8128 14.4292 16.8573 14.3474C16.9197 14.2298 17.0089 14.2094 17.098 14.2349C17.1649 14.2554 17.2361 14.3167 17.2941 14.3934C17.352 14.4701 17.3921 14.557 17.4055 14.6184C17.4233 14.7053 17.4278 14.7973 17.4099 14.8894C17.3921 15.007 17.352 15.1246 17.3253 15.237C17.3164 15.2728 17.2851 15.2984 17.2495 15.2882C17.2183 15.2779 17.196 15.2422 17.205 15.2012C17.2228 15.0939 17.245 14.9814 17.2495 14.8638C17.2539 14.7973 17.2496 14.736 17.2317 14.6746C17.2184 14.6184 17.1604 14.5315 17.1025 14.4752C17.0713 14.4446 17.0312 14.4036 17.0044 14.4497C16.9599 14.5212 16.942 14.6082 16.9331 14.6951C16.9241 14.8024 16.9331 14.9047 16.9464 14.9916ZM9.0135 15.3955C9.00013 15.3751 8.99567 15.3495 9.00458 15.324C9.00904 15.3137 9.0135 15.2984 9.0135 15.2882C9.03133 15.2268 9.05814 15.1655 9.08488 15.1092C9.12053 15.0376 9.16501 14.9712 9.21849 14.9149C9.22295 14.9098 9.23635 14.8996 9.25418 14.8843C9.28092 14.8638 9.31655 14.8331 9.33883 14.828C9.37003 14.8178 9.39685 14.8229 9.41913 14.8331C9.51272 14.8843 9.54837 14.9865 9.53055 15.1143C9.52163 15.1808 9.49929 15.2524 9.46809 15.3188C9.41907 15.4364 9.35219 15.5387 9.32545 15.5745C9.30762 15.6052 9.27645 15.6154 9.24526 15.6C9.2408 15.5949 9.23187 15.5949 9.22741 15.5898C9.19622 15.5643 9.19175 15.5131 9.21403 15.4825C9.22294 15.4671 9.23635 15.4467 9.24972 15.416C9.27646 15.3597 9.30763 15.2779 9.32991 15.2012C9.34328 15.1552 9.35221 15.1092 9.35221 15.0683V15.0632C9.34776 15.0683 9.34329 15.0785 9.33883 15.0785C9.30763 15.1041 9.28092 15.1348 9.25418 15.1655C9.24081 15.1808 9.23186 15.1961 9.21849 15.2115C9.17838 15.2677 9.14719 15.324 9.116 15.3802C9.10263 15.416 9.067 15.4313 9.03581 15.416C9.02689 15.4058 9.01796 15.4007 9.0135 15.3955ZM9.37006 15.0325C9.38789 15.0376 9.40574 15.0376 9.39682 15.0223C9.39237 15.0121 9.37897 15.0172 9.37006 15.0325ZM8.81743 13.6265C8.81298 13.6316 8.8085 13.6367 8.79959 13.6418C8.75948 13.6776 8.73276 13.7236 8.71048 13.7697C8.67037 13.8566 8.65257 13.9537 8.63475 14.0458C8.63029 14.0867 8.59902 14.1122 8.56337 14.1071C8.52772 14.102 8.50549 14.0662 8.50995 14.0253C8.51886 13.9179 8.52772 13.8003 8.56337 13.6981C8.59011 13.6214 8.63023 13.5498 8.68371 13.4884C8.73273 13.4373 8.77733 13.4066 8.82189 13.3862C8.862 13.3709 8.90212 13.3657 8.93777 13.3709C8.96897 13.376 9.00014 13.3913 9.02688 13.4169C9.04025 13.4271 9.0492 13.4373 9.05811 13.4527C9.10268 13.5038 9.12939 13.5856 9.14276 13.6776C9.15613 13.785 9.14719 13.9128 9.11154 14.0048C9.08925 14.0611 9.06701 14.1173 9.04027 14.1736C9.03581 14.1838 9.02688 14.194 9.02242 14.2042C9.00014 14.2452 8.97344 14.286 8.95116 14.327C8.9467 14.3321 8.94223 14.3372 8.93777 14.3423C8.91549 14.3627 8.87987 14.3627 8.85758 14.3474C8.82639 14.3218 8.81745 14.2758 8.83974 14.24C8.86648 14.194 8.88872 14.1429 8.91101 14.0969C8.91992 14.0713 8.93332 14.0457 8.94223 14.0202C8.95115 13.9946 8.96008 13.9742 8.96454 13.9486C8.99128 13.8566 8.98235 13.7236 8.94669 13.6367C8.94669 13.6316 8.94223 13.6265 8.94223 13.6265C8.93332 13.6112 8.92438 13.5958 8.91101 13.5907C8.90209 13.5856 8.8888 13.5907 8.87543 13.6009C8.85314 13.606 8.83526 13.6163 8.81743 13.6265ZM8.00182 16.0909C8.00628 16.0858 8.00628 16.0858 8.00628 16.0909C8.00628 16.096 8.00182 16.096 8.00182 16.0909ZM8.00182 16.0909C7.99737 16.096 7.993 16.1011 7.98409 16.1062C7.9618 16.1267 7.93946 16.1522 7.91717 16.1829C7.87706 16.234 7.85035 16.2954 7.83252 16.3567C7.81469 16.4283 7.80129 16.4999 7.79683 16.5766C7.79683 16.6175 7.77014 16.6482 7.73449 16.6482C7.69883 16.6482 7.67203 16.6175 7.67203 16.5766C7.66312 16.4692 7.66313 16.3619 7.68542 16.2596C7.69879 16.188 7.72996 16.1164 7.77007 16.05C7.80572 15.9989 7.83701 15.9579 7.86821 15.9324C7.91278 15.8966 7.95279 15.8761 7.9929 15.8761C8.06867 15.871 8.1579 15.9273 8.20692 16.1113C8.21138 16.1318 8.21574 16.1573 8.2202 16.1829C8.22465 16.2136 8.22912 16.2494 8.22912 16.2801C8.22912 16.3158 8.22912 16.3516 8.22466 16.3874C8.2202 16.4385 8.21584 16.4897 8.20692 16.5357C8.20247 16.5766 8.16674 16.6073 8.13108 16.6022C8.09543 16.5971 8.06428 16.5561 8.06874 16.5152C8.06874 16.4743 8.0732 16.4386 8.0732 16.3976C8.0732 16.3619 8.0732 16.3261 8.06874 16.2903C8.06428 16.2698 8.06427 16.2494 8.05982 16.2238C8.05536 16.2034 8.05089 16.1829 8.04643 16.1676C8.02861 16.1318 8.00628 16.0704 8.00182 16.0909C7.99737 16.0909 7.99737 16.0909 8.00182 16.0909ZM8.80405 15.8813C8.80405 15.8813 8.79958 15.8813 8.79513 15.8864C8.79067 15.8864 8.7862 15.8915 8.77728 15.8966C8.755 15.9119 8.73276 15.9324 8.70602 15.9631C8.66591 16.0142 8.63919 16.0755 8.62136 16.1369C8.60354 16.2085 8.59459 16.2852 8.59014 16.3619C8.59014 16.4028 8.56345 16.4334 8.52779 16.4334C8.49214 16.4334 8.46534 16.4028 8.46534 16.3619C8.45642 16.2545 8.45644 16.1471 8.48318 16.0398C8.50101 15.9631 8.52773 15.8966 8.57229 15.8301C8.62132 15.7585 8.67037 15.7125 8.71494 15.6921C8.74613 15.6767 8.77731 15.6665 8.80405 15.6665C8.83525 15.6665 8.86642 15.6767 8.89316 15.6921C8.90208 15.6972 8.91548 15.7074 8.92439 15.7176C8.94667 15.7381 8.96456 15.7637 8.98238 15.7994C8.99575 15.825 9.00458 15.8557 9.00904 15.8915C9.01795 15.9324 9.02242 15.9835 9.02242 16.0398C9.02242 16.0755 9.01796 16.1113 9.0135 16.1471C9.0135 16.1574 9.00904 16.1676 9.00904 16.1778C9.00458 16.2034 9.00011 16.2289 8.99566 16.2494C8.98229 16.3056 8.96898 16.3567 8.94669 16.4079C8.93778 16.4283 8.9333 16.4437 8.92439 16.459C8.91102 16.4897 8.89315 16.5204 8.87978 16.551C8.86195 16.5817 8.83525 16.5971 8.80405 16.5868C8.79959 16.5868 8.79066 16.5817 8.78621 16.5766C8.75501 16.5562 8.74172 16.505 8.75955 16.4692C8.77738 16.4283 8.79068 16.3925 8.80405 16.3516C8.80405 16.3465 8.80405 16.3465 8.80851 16.3414C8.82188 16.3005 8.83082 16.2545 8.83974 16.2085C8.84419 16.1778 8.84866 16.1522 8.84866 16.1216C8.84866 16.0909 8.84866 16.0653 8.84866 16.0346C8.84866 15.9937 8.83973 15.9579 8.83082 15.9273C8.82636 15.9068 8.82188 15.8864 8.80405 15.8813ZM9.69985 15.9273C9.68648 15.9273 9.67753 15.9324 9.66416 15.9375C9.61068 15.9579 9.57066 15.9989 9.53501 16.05C9.4949 16.1062 9.45915 16.1727 9.43687 16.2392C9.42795 16.2749 9.39233 16.2954 9.36114 16.2852C9.32994 16.2749 9.31218 16.234 9.3211 16.1982C9.33892 16.1011 9.37893 15.9886 9.43687 15.9017C9.48143 15.8352 9.53943 15.779 9.60628 15.7483C9.64193 15.733 9.67757 15.7228 9.70877 15.7176C9.80682 15.7074 9.86918 15.7637 9.90038 15.8404C9.92266 15.8915 9.9316 15.9631 9.92268 16.0295C9.91823 16.0602 9.90929 16.096 9.90038 16.1267C9.88255 16.1778 9.86031 16.2289 9.83357 16.2647C9.81575 16.2903 9.7934 16.321 9.77112 16.3465C9.75329 16.367 9.73552 16.3874 9.71323 16.4079C9.69986 16.4232 9.68199 16.4386 9.66862 16.4488C9.64188 16.4795 9.59733 16.4743 9.57059 16.4437C9.54385 16.413 9.54831 16.3619 9.57505 16.3312C9.59733 16.3056 9.62414 16.2749 9.64643 16.2494C9.66871 16.2238 9.68648 16.1931 9.70431 16.1625C9.70431 16.1573 9.70877 16.1573 9.70877 16.1522C9.73551 16.096 9.74891 16.0193 9.74 15.9579C9.74 15.9477 9.73553 15.9375 9.73108 15.9324C9.72662 15.9273 9.72215 15.9324 9.71323 15.9324C9.70432 15.9222 9.69985 15.9222 9.69985 15.9273ZM8.73278 15.053C8.72387 15.0939 8.68825 15.1246 8.65259 15.1143C8.61694 15.1041 8.59015 15.0632 8.59906 15.0223C8.61243 14.9303 8.61689 14.8331 8.60352 14.736C8.59461 14.6491 8.57236 14.5621 8.52779 14.4906C8.50105 14.4445 8.46541 14.4803 8.42976 14.5161C8.37182 14.5775 8.31833 14.6593 8.30496 14.7155C8.28713 14.7769 8.28712 14.8433 8.29157 14.9047C8.30049 15.0172 8.32717 15.1348 8.345 15.237C8.35391 15.2728 8.33169 15.3137 8.3005 15.324C8.2693 15.3342 8.23357 15.3086 8.22466 15.2728C8.19346 15.1655 8.15337 15.0479 8.13108 14.9303C8.11771 14.8382 8.11326 14.7462 8.13108 14.6593C8.14445 14.5979 8.18456 14.511 8.23804 14.4343C8.29152 14.3576 8.36291 14.2912 8.42976 14.2707C8.51889 14.24 8.60348 14.2605 8.67033 14.3781C8.71489 14.4599 8.74171 14.5519 8.75063 14.6491C8.77291 14.7922 8.75952 14.9303 8.73278 15.053ZM16.1353 9.17323C16.1397 9.17834 16.1397 9.18345 16.1397 9.18345C16.1397 9.18856 16.1531 9.2039 16.1531 9.23969V9.24481V9.24992C16.162 9.22435 16.1531 9.19879 16.1353 9.17323Z" fill="#133F24"/>
</svg>
