<svg width="20" height="26" viewBox="0 0 20 26" fill="none" xmlns="http://www.w3.org/2000/svg">
<path fill-rule="evenodd" clip-rule="evenodd" d="M13.0293 8.59807C16.7363 10.0814 16.5099 13.2453 16.6894 15.4545C17.2201 21.9165 9.88433 26.5874 4.02349 24.3782C-0.136069 22.808 -0.12044 17.4744 2.14273 14.3499C3.06361 13.0796 4.24983 12.0381 5.56091 11.186C7.43388 9.9788 9.72042 7.27254 13.0293 8.59807Z" fill="#FFF0E0"/>
<path fill-rule="evenodd" clip-rule="evenodd" d="M13.5519 10.4249C13.5471 10.1606 13.5851 9.89151 13.6755 9.64163C13.7135 9.54072 13.7562 9.44461 13.8085 9.35331C13.8228 9.32448 13.8418 9.30046 13.8561 9.27163C13.8656 9.25721 13.875 9.21397 13.8846 9.22838C13.9321 9.30046 13.8988 9.47345 13.8846 9.55514C13.8323 9.87229 13.6707 10.1366 13.5519 10.4249ZM13.5519 10.4249C13.5519 10.4393 13.5519 10.4537 13.5519 10.4634C13.8513 9.93477 14.1983 9.43982 14.569 8.95929C15.1916 8.15199 15.8808 7.39275 16.5367 6.61429C16.5225 6.6239 16.5082 6.63351 16.4939 6.63831C16.3323 6.72961 16.1374 6.78728 15.9568 6.75845C15.8333 6.73922 15.7192 6.67676 15.6289 6.55663C15.5529 6.45572 15.5434 6.33558 15.5719 6.22025C15.6099 6.06648 15.7192 5.91752 15.8238 5.81661C15.9806 5.66764 16.1707 5.55232 16.3798 5.47543C16.5842 5.39374 16.8028 5.34568 17.0167 5.31685C17.012 5.29282 17.0073 5.2688 17.0073 5.24477C16.8884 5.20633 16.7743 5.16308 16.665 5.10542C16.5129 5.02853 16.3703 4.92281 16.242 4.77385C16.1612 4.67774 16.0899 4.56241 16.0472 4.44228C16.0044 4.31734 15.9901 4.17799 16.0186 4.04344C16.0661 3.83682 16.204 3.72629 16.3561 3.69746C16.5035 3.67343 16.6698 3.72629 16.8076 3.86084C16.8504 3.90409 16.8884 3.95215 16.9217 4.00501C16.9692 4.07709 17.0072 4.15877 17.0453 4.23565C17.0738 4.29812 17.1023 4.3654 17.1261 4.43267C17.1784 4.58644 17.2211 4.74021 17.2639 4.89398C17.2972 4.87956 17.3305 4.86996 17.3685 4.86035C17.3732 4.83633 17.3732 4.81229 17.378 4.78826C17.3875 4.67294 17.4018 4.56242 17.4255 4.44709C17.454 4.28371 17.4873 4.11071 17.5538 3.96175C17.6013 3.85603 17.6679 3.75993 17.7582 3.67824C17.9008 3.5581 18.0814 3.51486 18.2335 3.5581C18.3904 3.60135 18.5187 3.72148 18.5567 3.93292C18.571 4.02422 18.5615 4.11552 18.5377 4.20682C18.4997 4.33176 18.4284 4.44709 18.3476 4.548C18.2478 4.67774 18.1385 4.80269 18.0196 4.91802C18.0909 4.88438 18.1622 4.86035 18.2335 4.83632C18.4426 4.77385 18.6565 4.75943 18.8799 4.8219C18.994 4.85554 19.1318 4.9084 19.2316 4.99009C19.3077 5.05256 19.3647 5.13426 19.379 5.23517C19.4075 5.40816 19.3457 5.56193 19.2364 5.67245C19.1318 5.78298 18.9845 5.85505 18.8276 5.87427C18.7468 5.88388 18.666 5.87427 18.5852 5.85985C18.4759 5.83583 18.3713 5.79258 18.262 5.75414C18.1146 5.70608 17.9626 5.65803 17.82 5.60517C17.7867 5.59556 17.7582 5.58115 17.725 5.56674C17.7012 5.57635 17.6727 5.58596 17.6489 5.59557C17.6727 5.6292 17.6964 5.66764 17.7154 5.70608C17.801 5.86466 17.8723 6.03765 17.9198 6.22025C17.9673 6.40285 17.9911 6.59027 17.9911 6.76806C17.9911 6.95067 17.9531 7.14288 17.8532 7.29184C17.7819 7.39756 17.6821 7.47445 17.549 7.51769C17.3399 7.58016 17.1071 7.50327 16.9312 7.35911C16.7553 7.21495 16.6365 6.99871 16.6413 6.79209C16.6413 6.72481 16.6508 6.65273 16.6698 6.59026C16.2325 7.11884 15.7763 7.63782 15.339 8.17121C15.5386 8.00302 15.762 7.82043 16.0186 7.78679C16.1137 7.77237 16.223 7.77718 16.3133 7.82043C16.3228 7.82524 16.3846 7.86367 16.3751 7.88289C16.3513 7.94055 16.185 8.00783 16.1327 8.04147C15.8523 8.20966 15.5434 8.29134 15.2202 8.32017C15.03 8.55083 14.8447 8.78629 14.6593 9.02656C14.2268 9.59358 13.8276 10.1846 13.4996 10.8189C13.6184 10.6844 13.7467 10.5547 13.8798 10.4297C14.0414 10.2856 14.2078 10.1462 14.3884 10.0261C14.531 9.92996 14.6735 9.84346 14.8256 9.76658C14.8256 9.76177 14.8256 9.76178 14.8256 9.75697C14.9492 9.52632 15.0776 9.30527 15.2772 9.13708C15.339 9.08422 15.4055 9.04097 15.4815 9.00733C15.4863 9.00733 15.5528 8.98331 15.5528 8.98331C15.5576 9.04578 15.4435 9.18033 15.415 9.22838C15.3152 9.39177 15.2011 9.53111 15.068 9.65605C15.2819 9.56475 15.5053 9.49748 15.7382 9.45424C15.9473 9.3341 16.185 9.24761 16.4274 9.27644C16.4796 9.28125 16.7031 9.3341 16.6936 9.42059C16.6936 9.4254 16.646 9.43982 16.6413 9.43982C16.5747 9.46385 16.5034 9.48306 16.4369 9.49748C16.2135 9.55034 15.9806 9.56955 15.7525 9.55033C15.4911 9.6128 15.2439 9.7041 15.011 9.81943C14.9112 9.86748 14.8066 9.92516 14.7116 9.98282C14.7353 9.97321 14.7591 9.9684 14.7686 9.9636C15.0015 9.86269 15.2914 9.80501 15.5433 9.83384C15.6194 9.84346 15.7572 9.85788 15.8095 9.91554C15.819 9.92515 15.781 9.92515 15.7667 9.92996C15.7382 9.93957 15.7145 9.94437 15.6859 9.95398C15.6004 9.978 15.5148 10.002 15.4245 10.0213C15.1678 10.0693 14.9017 10.0693 14.6403 10.0261C14.5785 10.0645 14.5214 10.1029 14.4644 10.1414C14.2885 10.2615 14.1222 10.3865 13.9654 10.5258C13.7325 10.7276 13.5186 10.9535 13.3237 11.1842C13.2429 11.3523 13.1716 11.5253 13.1003 11.6935C13.4996 11.7608 13.7705 11.8377 13.8846 11.9194C13.9606 11.9722 13.9891 12.0347 13.9891 12.0923C13.9891 12.1116 13.9844 12.1308 13.9796 12.15C14.0604 12.2653 14.0937 12.3759 14.0842 12.4768C14.0794 12.5681 14.0414 12.6546 13.9701 12.7314C14.0937 12.89 14.1365 13.039 14.1127 13.1687C14.0889 13.3177 13.9844 13.4523 13.8038 13.5628C13.6897 13.6349 13.5376 13.7021 13.3617 13.7598C13.3617 13.7598 13.357 13.7598 13.357 13.7646C13.357 13.7646 13.1669 13.9088 13.2239 14.1202C13.2524 14.2211 13.3333 14.3316 13.5044 14.4518C13.704 14.5911 13.8703 14.7209 14.0129 14.8314C14.3313 15.0813 14.5025 15.2398 14.5025 15.2398C14.5215 15.2542 14.5309 15.2783 14.5309 15.3023C14.5309 15.3023 14.8684 19.4493 15.0015 21.8375C15.0395 22.5199 15.0633 23.0629 15.0538 23.3176C15.0538 23.4041 15.0443 23.4617 15.0348 23.4906C15.0253 23.5194 15.0157 23.5386 15.0062 23.5482C14.9159 23.6635 14.3551 24.394 12.9055 24.9081C12.0357 25.2157 10.838 25.4463 9.22195 25.4127C7.52991 25.3742 6.21334 25.1196 5.22948 24.8072C3.642 24.3027 2.9005 23.6539 2.81495 23.5386C2.80544 23.529 2.79597 23.5098 2.78646 23.481C2.77696 23.4521 2.77218 23.3945 2.76743 23.308C2.76268 23.0485 2.78168 22.5103 2.81971 21.8279C2.95279 19.4445 3.28078 15.2927 3.28078 15.2927C3.28078 15.2687 3.29502 15.2446 3.31403 15.2254C3.31403 15.2254 3.48515 15.062 3.8036 14.8122C3.94618 14.7016 4.11251 14.5719 4.31213 14.4325C4.47849 14.3124 4.55932 14.2067 4.58784 14.1058C4.64488 13.904 4.4595 13.7598 4.4595 13.7598C4.45475 13.755 4.44999 13.755 4.44999 13.7502C4.44524 13.7502 4.44047 13.7454 4.43572 13.7454C4.10776 13.6204 3.91292 13.4571 3.86539 13.2745C3.83212 13.1399 3.87487 12.9813 4.02221 12.8035C3.98419 12.7603 3.9557 12.717 3.93669 12.6738C3.88441 12.5489 3.90338 12.3999 4.01746 12.2413C3.96517 12.1933 3.94615 12.1404 3.94615 12.0923C3.94615 12.0347 3.97471 11.9722 4.05076 11.9146C4.17433 11.8233 4.4975 11.7368 4.96328 11.6695C5.01557 11.6599 5.06789 11.6551 5.12017 11.6503C5.07739 11.6166 5.03936 11.583 4.99659 11.5542C4.854 11.4484 4.70187 11.3571 4.54027 11.2706C4.4357 11.213 4.33117 11.1601 4.22186 11.1073C4.046 11.0208 3.87014 10.9391 3.68953 10.8718C3.6325 10.8526 3.5707 10.8334 3.50892 10.8141C3.42336 10.9871 3.29505 11.1601 3.10493 11.2274C2.89105 11.3043 2.62963 11.0928 2.62488 10.8766C2.62012 10.6123 2.85778 10.4393 3.10969 10.4681C3.2903 10.4922 3.46139 10.5931 3.57546 10.7276C3.62299 10.7373 3.67049 10.7517 3.71802 10.7661C3.90814 10.8237 4.08877 10.9006 4.27413 10.9871C4.3882 11.04 4.49749 11.0928 4.60206 11.1505C4.76366 11.2418 4.92055 11.3379 5.06789 11.4484C5.13919 11.5013 5.21045 11.5638 5.27699 11.6214C5.32452 11.6166 5.36732 11.6118 5.41485 11.607C5.29603 11.2802 5.16767 10.9535 5.02983 10.6315C5.02983 10.6315 5.02983 10.6315 5.02508 10.6315C4.8302 10.4633 4.61635 10.3048 4.39771 10.1654C4.25037 10.0693 4.09824 9.98762 3.94615 9.91073C3.7893 9.83385 3.63251 9.76657 3.46616 9.71371C3.26653 9.64644 3.06214 9.59838 2.85301 9.57916C2.76746 9.7041 2.68191 9.83385 2.56784 9.93477C2.51081 9.98763 2.44424 10.0405 2.36344 10.0597C1.8834 10.1846 1.5127 9.40138 2.03552 9.22838C2.09731 9.20916 2.15904 9.19475 2.22083 9.19955C2.3254 9.19955 2.42521 9.23319 2.52027 9.27644C2.6486 9.3341 2.77695 9.41098 2.90053 9.48786C3.1049 9.49747 3.30929 9.53591 3.50416 9.59358C3.67526 9.64644 3.84158 9.71372 4.00318 9.79541C4.16478 9.8771 4.31692 9.9684 4.46426 10.0693C4.63061 10.1798 4.78746 10.3048 4.93955 10.4345C4.63061 9.74254 4.27885 9.06499 3.88436 8.40666C3.87961 8.40666 3.87014 8.40666 3.87014 8.40666C3.77509 8.42108 3.65149 8.44993 3.55168 8.42109C3.31878 8.35382 3.16195 8.06069 3.26651 7.83964C3.28552 7.8012 3.3093 7.76757 3.33782 7.73873C3.58497 7.49366 3.83209 7.85887 3.89863 8.0703C3.92715 8.1568 3.9414 8.24809 3.94615 8.33459C4.17429 8.7046 4.38822 9.08422 4.58784 9.46865C4.56883 9.39657 4.54506 9.32448 4.52605 9.25241C4.48803 9.11786 4.45948 8.97851 4.43572 8.83916C4.42146 8.74305 4.41199 8.65175 4.41199 8.55564C4.41199 8.45954 4.4167 8.35862 4.43572 8.26251C4.16955 8.08952 4.11251 7.66185 4.49275 7.55613C4.83971 7.46002 4.82548 7.90692 4.70191 8.09913C4.65438 8.17602 4.5926 8.24329 4.53081 8.30576C4.5213 8.42108 4.52601 8.53641 4.54027 8.65174C4.54977 8.72863 4.55931 8.80551 4.57357 8.8872C4.58783 8.96408 4.60208 9.04098 4.62109 9.12267C4.67337 9.36293 4.73989 9.6032 4.78267 9.82905C4.78267 9.83866 4.78267 9.84827 4.78267 9.85788C5.06309 10.4297 5.31504 11.0112 5.53367 11.6022C5.88539 11.5686 6.2894 11.5397 6.73142 11.5157C6.72192 11.4725 6.71239 11.4292 6.70763 11.386C6.64109 11.0496 6.56029 10.7132 6.46523 10.3865C6.07549 10.0645 5.75227 9.74735 5.55264 9.26682C5.4861 9.10824 5.42908 8.94967 5.39106 8.78629C5.3768 8.72863 5.36732 8.67576 5.35782 8.6181C5.35306 8.59407 5.31978 8.53162 5.34354 8.54123C5.48138 8.59409 5.61922 8.79109 5.70953 8.90642C6.00421 9.29565 6.17054 9.75696 6.40344 10.1798V10.1846C6.38443 10.127 6.37017 10.0693 6.35116 10.0117C6.03272 8.97371 5.63348 7.95977 5.3483 6.90741L5.31976 6.90261C4.93477 7.06119 4.49276 7.21495 4.084 7.20534C3.95567 7.20053 3.83208 7.17651 3.71326 7.13326C3.70851 7.13326 3.61822 7.09963 3.61822 7.09482C3.66575 6.92664 3.91293 6.81611 4.05552 6.77286C4.14582 6.74403 4.2361 6.7248 4.32641 6.71039C4.25511 6.69117 4.18385 6.66714 4.11731 6.63831C4.00324 6.59506 3.88437 6.55182 3.77981 6.48935C3.70376 6.4461 3.63725 6.39804 3.57546 6.33558C3.44714 6.20583 3.34258 5.96557 3.34258 5.74453C3.34258 5.58115 3.39957 5.43698 3.5374 5.34568C3.63246 5.28321 3.75133 5.2688 3.8749 5.29283C4.0365 5.32166 4.20282 5.40816 4.31213 5.47543C4.37392 5.51388 4.43096 5.55711 4.48799 5.60036C4.37867 5.37932 4.29787 5.13905 4.24559 4.87956C4.21707 4.72579 4.1268 4.4567 4.16482 4.29813C4.16482 4.29332 4.3169 4.37981 4.32641 4.38462C4.48801 4.49995 4.62108 4.65853 4.7304 4.82671C4.85397 5.02373 4.94432 5.23997 5.01086 5.46102C5.01561 5.39374 5.02034 5.32165 5.03935 5.25438C5.06311 5.15827 5.1059 5.06217 5.17244 4.98528C5.27701 4.86034 5.41486 4.83633 5.54319 4.87477C5.66201 4.91321 5.77131 5.00932 5.82359 5.12945C5.87588 5.25439 5.8949 5.38893 5.8949 5.52829C5.8949 5.69647 5.86637 5.86467 5.82359 6.01844C5.96618 5.82622 6.13255 5.64841 6.31792 5.50906C6.451 5.40815 6.58403 5.32165 6.73612 5.25438C6.79316 5.23035 6.85024 5.20633 6.90728 5.18711C6.93579 5.1775 7.0023 5.14386 6.98804 5.16789C6.87872 5.36971 6.6981 5.55231 6.56026 5.73491C6.23231 6.15297 5.91866 6.54221 5.47188 6.83533C5.46238 6.85455 5.45284 6.87377 5.44334 6.89299H5.43858C5.43858 6.89299 5.43858 6.893 5.43858 6.8978C5.69048 7.78679 6.01847 8.64213 6.3084 9.5119C6.27513 9.20436 6.27984 8.8872 6.32262 8.60368C6.35114 8.42108 6.38921 8.19524 6.49377 8.03666C6.51279 8.00783 6.50324 8.10393 6.50799 8.13757C6.51749 8.19523 6.52227 8.25771 6.53178 8.31538C6.55554 8.47395 6.58407 8.63733 6.60308 8.79591C6.66487 9.28125 6.62684 9.74736 6.53653 10.2231C6.64585 10.5979 6.74566 10.9775 6.82646 11.3619C6.83596 11.41 6.84544 11.4581 6.85494 11.5109C7.13537 11.4965 7.4301 11.4869 7.73428 11.4821C7.69626 11.0977 7.66771 10.7132 7.64395 10.3288C7.64395 10.3048 7.63919 10.2759 7.63919 10.2519C7.35401 9.8771 7.05936 9.53592 6.95955 9.05539C6.93104 8.93045 6.91678 8.80071 6.90728 8.67097C6.90728 8.64213 6.90252 8.61331 6.90252 8.58447C6.90252 8.57006 6.88826 8.54123 6.90252 8.54123C7.05937 8.57006 7.2257 8.81512 7.29699 8.94006C7.40631 9.13708 7.50139 9.3437 7.55367 9.56475C7.59169 9.73774 7.60592 9.92034 7.63443 10.0933C7.60116 9.30526 7.59166 8.522 7.58216 7.73873C7.2542 7.29664 6.93101 6.88339 6.87397 6.31155C6.85972 6.18662 6.85971 6.05687 6.86922 5.93193C6.86922 5.92712 6.86923 5.84064 6.87873 5.83583C6.89299 5.83103 6.96902 5.91752 6.97853 5.92713C7.06883 6.02805 7.14017 6.13857 7.20196 6.2587C7.37782 6.59988 7.50611 6.99871 7.58216 7.39275C7.5774 6.87858 7.56793 6.36442 7.55367 5.85025C7.53466 5.25439 7.50134 4.65371 7.44906 4.05305C7.21141 4.23565 6.92625 4.38943 6.63157 4.48073C6.30362 4.58164 5.9519 4.59606 5.62395 4.48073C5.50037 4.43748 5.31504 4.36059 5.18196 4.25007C5.07739 4.16357 5.01086 4.05787 5.01086 3.92812C5.01086 3.77435 5.08686 3.66383 5.20093 3.58214C5.35303 3.47642 5.57165 3.43317 5.7285 3.42355C5.91862 3.41394 6.11353 3.41875 6.3084 3.44278C6.32741 3.44278 6.34642 3.44758 6.36068 3.45239C6.32741 3.43797 6.2941 3.42837 6.26083 3.41395C6.07546 3.34667 5.89014 3.29381 5.70477 3.23135C5.58119 3.1881 5.4576 3.14005 5.33403 3.08719C5.28175 3.06316 5.23425 3.03914 5.18672 3.0103C5.17721 3.0055 5.16767 2.99588 5.15341 2.99108C5.14391 2.99108 5.13914 2.99108 5.13438 2.99108C5.06784 2.98627 4.99659 2.95744 4.93955 2.92861C4.86351 2.89017 4.77792 2.85172 4.72564 2.77964C4.6591 2.68354 4.71613 2.50575 4.84446 2.51536C4.96804 2.52497 5.06314 2.63069 5.12968 2.72679C5.16771 2.78446 5.19144 2.84212 5.2152 2.90459C5.22471 2.90939 5.23424 2.9142 5.23899 2.919C5.28177 2.94303 5.32926 2.96705 5.37679 2.98627C5.49561 3.03432 5.61919 3.07758 5.73802 3.11602C5.87585 3.16408 6.01368 3.20732 6.15152 3.26018C6.02794 3.15446 5.92342 3.03433 5.84262 2.89978C5.79509 2.82289 5.75702 2.7364 5.73326 2.64991C5.70949 2.5586 5.70003 2.4625 5.71904 2.36639C5.75231 2.19821 5.86639 2.06365 6.01848 1.98677C6.16582 1.90988 6.34163 1.89547 6.49847 1.95313C6.59353 1.99157 6.67435 2.04923 6.75039 2.11651C6.8502 2.21742 6.93102 2.34236 7.00231 2.46249C7.01657 2.49132 7.03557 2.52017 7.04983 2.549C7.02131 2.43367 6.98807 2.31353 6.96431 2.19339C6.93579 2.07807 6.91201 1.96275 6.88825 1.84262C6.87874 1.79456 6.86921 1.74171 6.8597 1.69365C6.84069 1.59274 6.82168 1.49182 6.80267 1.39571C6.7789 1.28038 6.75519 1.16506 6.73142 1.04973C6.68389 1.01128 6.64111 0.968038 6.60784 0.915179C6.57457 0.867126 6.55081 0.809464 6.55081 0.7518C6.55081 0.665304 6.64582 0.535558 6.74564 0.583611C6.81218 0.617248 6.8502 0.708561 6.8597 0.775836C6.86921 0.828694 6.8645 0.886356 6.85024 0.939215C6.84074 0.972852 6.8312 1.00648 6.81694 1.03531C6.86447 1.2035 6.91201 1.37649 6.95004 1.54467C6.9738 1.64078 6.99282 1.73689 7.01659 1.83781C7.0356 1.93391 7.05936 2.03001 7.07838 2.13092C7.10689 2.27508 7.14014 2.42405 7.17341 2.56821C7.17341 2.52016 7.17817 2.47692 7.18293 2.42887C7.20669 2.24146 7.26373 2.06365 7.3683 1.90507C7.46336 1.76091 7.61067 1.6552 7.75801 1.6552C7.85783 1.6504 7.96238 1.69365 8.04794 1.80898C8.11923 1.90508 8.16202 2.0108 8.18103 2.12613C8.20955 2.28951 8.19057 2.46731 8.15254 2.62108C8.11452 2.77004 8.07173 2.92861 8.01469 3.08238C8.05271 3.01991 8.09073 2.95745 8.12876 2.89498C8.23332 2.7268 8.34266 2.55861 8.45198 2.39522C8.52803 2.2847 8.60407 2.17898 8.68487 2.07326C8.76092 1.97235 8.83696 1.87144 8.91776 1.77052C8.93677 1.71767 8.96049 1.66962 8.99377 1.62637C9.04605 1.5591 9.12689 1.49182 9.21244 1.47741C9.3883 1.44858 9.31223 1.6552 9.25044 1.72728C9.21717 1.76572 9.16963 1.79455 9.1221 1.81858C9.06982 1.84741 9.01756 1.86664 8.96528 1.88586C8.87497 2.0108 8.7894 2.14054 8.70384 2.27028C8.61354 2.40483 8.52325 2.54419 8.42819 2.68355C8.34739 2.80848 8.26183 2.93342 8.18103 3.05836C8.30936 2.92381 8.44721 2.80848 8.61357 2.72198C8.74665 2.6499 8.93673 2.58263 9.11259 2.58743C9.24092 2.59224 9.35978 2.63549 9.44533 2.74121C9.52138 2.83731 9.52611 2.96705 9.48333 3.0968C9.43105 3.26018 9.30746 3.43317 9.23141 3.51486C9.0508 3.71187 8.82742 3.83201 8.58978 3.9089C8.25707 4.01461 7.88637 4.03863 7.54415 4.08188C7.60119 4.67774 7.63921 5.2736 7.66298 5.86946C7.72001 7.35911 7.701 8.84396 7.7818 10.3432C7.78655 10.4297 7.79132 10.5162 7.79607 10.5979C7.79607 10.5883 7.79607 10.5835 7.79607 10.5739C7.80083 10.0405 7.85309 9.5167 8.00993 9.00253C8.06697 8.81993 8.16681 8.5172 8.33792 8.41629C8.36643 8.39706 8.33791 8.48356 8.33316 8.51719C8.32841 8.57966 8.32364 8.64213 8.31889 8.7094C8.30463 8.88239 8.29038 9.05539 8.27137 9.22838C8.20958 9.75216 8.05273 10.2663 7.79607 10.7276C7.81509 10.9871 7.83886 11.2418 7.86262 11.4965C7.9862 11.4965 8.10973 11.4917 8.23331 11.4917L8.23806 11.4725C8.23806 11.4628 8.24759 11.3427 8.25709 11.3379C8.2666 11.3379 8.28561 11.4004 8.31413 11.4869C8.52326 11.4869 8.73713 11.4869 8.95576 11.4869V11.4773H8.96052C9.05558 10.891 9.14589 10.3 9.20768 9.70892C9.27422 9.065 9.30751 8.41148 9.27899 7.75796C9.26948 7.74835 9.25995 7.73393 9.2552 7.7099C9.2552 7.70029 9.2552 7.68587 9.2552 7.67145C9.24094 7.66184 9.2267 7.65224 9.2172 7.64743C8.85597 7.43119 8.51852 7.16209 8.27137 6.81611C8.21433 6.73442 8.0527 6.49415 8.11448 6.38363C8.11448 6.38363 8.20482 6.42688 8.20958 6.42688C8.30464 6.47493 8.40444 6.52299 8.49474 6.58065C8.41394 6.45091 8.34738 6.31637 8.2951 6.1674C8.24282 6.01363 8.21909 5.80219 8.27613 5.634C8.31415 5.50906 8.39491 5.40816 8.53274 5.3553C8.62305 5.32166 8.71814 5.33608 8.80369 5.38413C8.91301 5.4418 9.00804 5.55712 9.06507 5.64842C9.08884 5.69167 9.11261 5.73492 9.13638 5.77817C9.13638 5.64362 9.14115 5.50906 9.15541 5.37451C9.16967 5.16308 9.21717 4.94684 9.31223 4.75943C9.31699 4.74982 9.40728 4.59606 9.42154 4.60567C9.45006 4.6297 9.45955 4.74021 9.46906 4.77385C9.51659 4.93242 9.56415 5.09101 9.61643 5.24958C9.6497 5.3553 9.67348 5.45621 9.69725 5.56193C9.7733 5.48024 9.86356 5.40815 9.95387 5.37451C10.0917 5.32646 10.239 5.35049 10.3626 5.51868C10.3816 5.54751 10.4007 5.57153 10.4149 5.60036C10.4292 5.62919 10.4434 5.65803 10.4529 5.69166C10.491 5.79738 10.4957 5.9079 10.4814 6.02323C10.4624 6.18661 10.4102 6.34999 10.3532 6.48935C10.3009 6.6239 10.2343 6.75365 10.1583 6.87378C10.1345 6.91223 10.106 6.95547 10.0774 6.99392C10.1297 6.96989 10.1821 6.95067 10.2343 6.93144C10.3437 6.893 10.51 6.84014 10.624 6.8978C10.6383 6.90261 10.6051 6.92183 10.5956 6.93144C10.5765 6.95547 10.5528 6.9843 10.5338 7.00833C10.4767 7.08041 10.4149 7.15249 10.3532 7.21977C10.087 7.48406 9.77801 7.66184 9.41678 7.73392C9.40253 7.74353 9.38829 7.75315 9.37878 7.75796C9.37878 7.75796 9.37402 7.76275 9.36927 7.76275C9.40254 8.41628 9.37402 9.06499 9.31223 9.71371C9.2552 10.3 9.16965 10.8862 9.07934 11.4677C9.34075 11.4677 9.59741 11.4677 9.84932 11.4725C9.99666 10.9295 10.1535 10.3865 10.3199 9.84826C10.3103 9.83865 10.3008 9.82423 10.3008 9.80501C10.3056 9.67527 10.3056 9.54553 10.2961 9.42059C10.2914 9.3341 10.2771 9.25241 10.2676 9.16591C10.2533 9.07942 10.2391 8.99773 10.2248 8.91123C10.2153 8.87279 10.2105 8.83434 10.201 8.8007C10.1915 8.7959 10.1868 8.7959 10.1868 8.7911C10.0774 8.67097 9.9396 8.42108 10.0679 8.27212C10.22 8.09432 10.3294 8.47395 10.3246 8.57006C10.3199 8.62292 10.3103 8.67577 10.3008 8.72863C10.3198 8.78149 10.3341 8.83434 10.3484 8.8872C10.3722 8.97369 10.3912 9.0602 10.4007 9.1515C10.4149 9.23799 10.4197 9.32929 10.4244 9.42059C10.4244 9.46384 10.4244 9.50708 10.4244 9.55033C10.4767 9.39176 10.529 9.238 10.5813 9.07942C10.8047 8.42109 11.0423 7.77238 11.2942 7.12846C11.2562 6.98911 11.2087 6.84975 11.1611 6.7152C11.0756 6.49415 10.9805 6.28273 10.9045 6.10493C10.7666 5.78778 10.6526 5.41777 10.7096 5.09581C10.7429 4.9084 10.8332 4.73541 11.0091 4.60086C11.0138 4.59125 11.0185 4.58645 11.0185 4.57684C11.1088 4.37502 11.2467 4.00981 11.5033 3.98578C11.6412 3.97137 11.6554 4.0915 11.6269 4.19722C11.5794 4.35579 11.4653 4.48554 11.3275 4.57684C11.2229 4.64412 11.1136 4.69216 10.9995 4.73541C10.895 4.84593 10.8379 4.97568 10.8189 5.11504C10.7762 5.41777 10.895 5.75894 11.028 6.05687C11.0946 6.20103 11.1707 6.36921 11.242 6.54701C11.2942 6.67195 11.3417 6.80169 11.3797 6.93624C11.6934 6.14817 12.0357 5.36972 12.3921 4.60567C12.4111 4.21164 12.2781 3.83682 12.2448 3.44759C12.2353 3.34668 12.2353 3.24576 12.2401 3.14004C12.2448 3.06316 12.2591 2.97666 12.2876 2.89978C12.3066 2.84692 12.3351 2.79406 12.3732 2.75081C12.4302 2.68354 12.5062 2.64029 12.5775 2.63068C12.6583 2.62107 12.7391 2.6499 12.8009 2.73159C12.8436 2.78445 12.8674 2.83732 12.8817 2.89498C12.9007 2.97187 12.9054 3.04874 12.9149 3.12563L12.9245 3.11121C12.9625 3.05355 13.0053 2.99109 13.0528 2.93823C13.0861 2.89979 13.1193 2.86615 13.1621 2.83251C13.2809 2.74121 13.4805 2.68834 13.6326 2.73159C13.7467 2.76523 13.8323 2.84691 13.8418 3.00068C13.8513 3.12082 13.8228 3.23615 13.7705 3.34667C13.6992 3.50044 13.5804 3.635 13.4568 3.74552C13.2524 3.92812 13.0433 4.11071 12.8389 4.29332C12.7059 4.41825 12.5727 4.5432 12.4492 4.67775C12.2733 5.06217 12.1022 5.4466 11.9359 5.83583C11.9501 5.82142 11.9691 5.80219 11.9881 5.78778C12.0262 5.74933 12.0689 5.7157 12.1165 5.68687C12.1593 5.65323 12.2068 5.62919 12.2591 5.60036C12.3209 5.49945 12.3969 5.39855 12.4825 5.32166C12.5585 5.24958 12.6678 5.19191 12.7724 5.19672C12.8865 5.20152 12.9435 5.25438 12.8865 5.3601C12.8722 5.38412 12.8579 5.40816 12.8389 5.43219C12.8104 5.47063 12.7724 5.50906 12.7344 5.5427C12.6631 5.60517 12.5823 5.64842 12.4967 5.68206C12.4064 5.7157 12.3161 5.74453 12.221 5.75895C12.1973 5.77817 12.1782 5.79739 12.1545 5.81661C12.1402 5.83102 12.126 5.84063 12.1117 5.85504C12.0784 5.88388 12.0452 5.91272 12.0167 5.94155C11.9406 6.00882 11.8693 6.0809 11.8028 6.15778C11.6744 6.47013 11.5461 6.78248 11.4273 7.09482C11.4463 7.1669 11.4606 7.24378 11.4748 7.31586C11.5271 7.63782 11.5081 7.95497 11.356 8.21446C11.3085 8.30095 11.2419 8.37303 11.1659 8.44031C11.0708 8.5268 10.9615 8.59888 10.8569 8.66616C10.8047 8.81512 10.7572 8.96408 10.7049 9.11305C10.5765 9.50708 10.4482 9.90112 10.3341 10.3C10.3436 10.2855 10.3531 10.2711 10.3626 10.2567C10.4196 10.175 10.4767 10.0933 10.548 10.0213C10.6145 9.94918 10.6906 9.8819 10.7714 9.81943C10.8522 9.75696 10.9425 9.7041 11.0376 9.65605C11.0423 9.65125 11.0423 9.64644 11.0423 9.64163C11.0661 9.55994 11.0993 9.46865 11.1516 9.39657C11.299 9.18995 11.7125 9.2476 11.5366 9.52631C11.5081 9.57436 11.4701 9.61281 11.4273 9.64644C11.3655 9.6993 11.2895 9.74736 11.2134 9.77139C11.1421 9.79541 11.0661 9.80502 10.99 9.79541C10.9425 9.82905 10.895 9.86749 10.8474 9.90594C10.7761 9.9684 10.7096 10.0309 10.6431 10.0981C10.5813 10.1654 10.5195 10.2375 10.4625 10.3144C10.3769 10.4297 10.3009 10.5498 10.2343 10.6748C10.2296 10.6844 10.2248 10.6892 10.2153 10.694C10.144 10.9535 10.0727 11.2082 10.0014 11.4677C10.3151 11.4725 10.6193 11.4821 10.9092 11.4965C11.1754 10.5931 11.4748 9.69931 11.8218 8.82474C11.9074 8.6085 11.9976 8.38745 12.0879 8.17602C12.0166 7.71951 11.9263 7.13326 12.2163 6.72961C12.2163 6.72961 12.2401 6.78728 12.2401 6.79209C12.2496 6.82572 12.259 6.85936 12.2685 6.89299C12.2876 6.99391 12.3019 7.09482 12.3066 7.20054C12.3209 7.44081 12.2638 7.67627 12.2068 7.90692C12.5965 7.00352 13.0385 6.12415 13.5281 5.2736C13.5233 5.25919 13.5233 5.24478 13.5281 5.23517C13.723 4.83152 13.8798 4.40865 14.0034 3.98097C14.0557 3.79837 14.1032 3.62057 14.1507 3.43797C14.1698 3.36109 14.1888 3.2794 14.2078 3.20251C14.2458 3.04394 14.2791 2.88536 14.3076 2.73159C14.3456 2.53457 14.3836 2.33275 14.4169 2.13573C14.2838 1.87625 14.2078 1.41974 14.6023 1.33805C14.9825 1.25636 14.8256 1.79456 14.7068 1.94352C14.6498 2.0156 14.5833 2.07807 14.512 2.13092C14.474 2.43366 14.4312 2.7364 14.3694 3.03433C14.3266 3.25537 14.2743 3.47642 14.2173 3.69746C14.1603 3.91851 14.0889 4.13475 14.0177 4.34618C13.9796 4.4519 13.9416 4.55281 13.8988 4.65852C14.184 4.20202 14.4834 3.75993 14.7971 3.32265C14.7924 3.31304 14.7924 3.30343 14.7924 3.29863C14.7971 3.19291 14.8209 3.092 14.8732 2.99589C14.916 2.919 14.9635 2.84693 15.0253 2.78926C15.1488 2.67394 15.4768 2.61146 15.434 2.87576C15.4055 3.04394 15.2724 3.16888 15.1298 3.24576C15.0538 3.28901 14.9777 3.31784 14.8922 3.33706C13.9654 4.61528 13.1906 5.9944 12.5347 7.436C12.5775 7.37833 12.6203 7.31587 12.6631 7.2582C12.8009 7.0756 12.9435 6.90261 13.1051 6.74403C13.2096 6.63831 13.3237 6.5374 13.4426 6.4461C13.5899 6.33077 13.742 6.22987 13.9083 6.13857C13.9749 6.05688 14.0604 5.97999 14.165 5.97038C14.1982 5.96558 14.279 5.96556 14.2933 6.00401C14.3123 6.04725 14.2648 6.12415 14.241 6.15299C14.1555 6.26351 14.0176 6.28272 13.8941 6.25389C13.7182 6.36922 13.5518 6.49896 13.395 6.64312C13.2572 6.76806 13.1336 6.89781 13.01 7.03716C12.8865 7.17652 12.7724 7.31586 12.6631 7.46483C12.5252 7.64743 12.3969 7.83964 12.2733 8.03666C12.1545 8.31537 12.0404 8.59889 11.9311 8.8824C11.9168 8.92084 11.9026 8.95929 11.8836 9.00253C11.9264 8.95448 11.9691 8.90162 11.9786 8.87759C12.126 8.56525 12.3256 8.27693 12.6156 8.08472C12.6964 8.03186 12.8675 7.91654 12.972 7.94056C12.991 7.94537 12.953 7.96938 12.9435 7.9886C12.9245 8.01744 12.9055 8.04627 12.8865 8.07991C12.8294 8.1616 12.7676 8.24329 12.7058 8.32498C12.4587 8.64694 12.183 8.87279 11.8503 9.07942C11.5461 9.88191 11.2752 10.6988 11.0328 11.5253C11.2182 11.5349 11.394 11.5445 11.5651 11.5542C11.6364 11.4821 11.7125 11.4244 11.798 11.386C11.8265 11.3716 11.779 11.4436 11.7648 11.4725C11.7505 11.5061 11.741 11.5349 11.7267 11.5686C11.8645 11.5782 11.9977 11.5878 12.1212 11.5974C12.221 11.3187 12.3303 11.0448 12.4396 10.7709C12.568 10.4585 12.7059 10.1462 12.8484 9.83865C12.8437 9.81943 12.8484 9.80021 12.8627 9.7906C12.8674 9.78579 12.8722 9.78099 12.8769 9.77618C13.0195 9.47825 13.1669 9.18033 13.3285 8.89201C13.338 8.69018 13.338 8.48836 13.3475 8.28653C13.357 8.14237 13.3665 7.99822 13.3902 7.85887C13.4092 7.76276 13.4283 7.67147 13.4568 7.58016C13.4805 7.50328 13.5091 7.42639 13.5471 7.35431C13.5471 7.25821 13.5566 7.16209 13.5946 7.0756C13.6279 7.00352 13.6802 6.93625 13.7515 6.90261C13.8798 6.84495 13.9321 6.91222 13.9036 7.03235C13.8988 7.06599 13.8845 7.09482 13.875 7.12365C13.8513 7.18132 13.818 7.23418 13.7752 7.27743C13.7325 7.32548 13.6849 7.36391 13.6374 7.40236C13.6184 7.45041 13.6041 7.49847 13.5899 7.54171C13.5566 7.65224 13.5376 7.76276 13.5186 7.87809C13.4948 8.01264 13.4806 8.15199 13.4711 8.29134C13.4615 8.42109 13.4521 8.55083 13.4426 8.68057C13.7705 8.08952 14.1365 7.51288 14.5452 6.95546C14.5595 6.85936 14.569 6.76326 14.5738 6.66235C14.5785 6.57105 14.5832 6.47493 14.5832 6.38363C14.5642 6.36441 14.5642 6.33559 14.5832 6.31636C14.5832 6.29234 14.5832 6.2635 14.5832 6.23948C14.5737 5.99921 14.5547 5.75894 14.5832 5.52829C14.5975 5.41296 14.626 5.29763 14.6736 5.18711C14.6736 5.18231 14.6688 5.1775 14.6688 5.1727C14.6593 5.06217 14.6546 4.93244 14.6831 4.83152C14.7116 4.73542 14.7639 4.63931 14.8542 4.58645C15.0015 4.49995 15.1108 4.60566 15.0918 4.75943C15.0871 4.80749 15.0728 4.85554 15.0585 4.89879C15.03 4.97087 14.9872 5.03334 14.9349 5.091C14.8827 5.14866 14.8162 5.19192 14.7496 5.23517C14.7116 5.33608 14.6926 5.43699 14.6783 5.53791C14.6546 5.74934 14.6783 5.97037 14.6926 6.18661C14.7306 6.14336 14.7639 6.10012 14.8019 6.05687C14.8494 5.99921 14.8969 5.93674 14.9397 5.87908C14.9872 5.82141 15.03 5.75895 15.0728 5.70128C15.1108 5.64843 15.1488 5.60037 15.1821 5.54751C15.1821 5.5379 15.1821 5.53309 15.1821 5.52829C15.2011 5.43218 15.2202 5.32646 15.2724 5.24477C15.3152 5.16789 15.3912 5.10543 15.4815 5.0862C15.6146 5.06218 15.6717 5.16788 15.6337 5.28321C15.6194 5.32165 15.6052 5.35529 15.5814 5.38893C15.5481 5.44179 15.5006 5.48984 15.4483 5.52348C15.3913 5.56192 15.3342 5.58595 15.2724 5.60517C15.2439 5.65803 15.2106 5.71569 15.1773 5.76374C15.1346 5.83102 15.0918 5.89349 15.0443 5.95116C14.9968 6.01362 14.9445 6.07129 14.8922 6.12895C14.8304 6.19622 14.7638 6.2635 14.702 6.33078C14.7068 6.4413 14.7068 6.55183 14.702 6.66235C14.702 6.69118 14.6973 6.72001 14.6973 6.74884C14.7733 6.64793 14.8494 6.54701 14.9302 6.4461C14.954 6.36441 14.9825 6.28272 15.03 6.21544C15.0728 6.15297 15.1346 6.10012 15.2106 6.0857C15.377 6.04726 15.4293 6.13856 15.3627 6.27791C15.3437 6.31155 15.3247 6.34519 15.3009 6.37403C15.2581 6.42688 15.2059 6.46052 15.1441 6.48935C15.0871 6.51818 15.03 6.5374 14.9682 6.55182C14.8732 6.67676 14.7781 6.8017 14.6878 6.93144C14.6831 6.98911 14.6735 7.04676 14.664 7.10443C14.6355 7.27742 14.588 7.44561 14.5262 7.60419C14.4359 7.83965 14.3123 8.06549 14.1888 8.29134C14.0176 8.59888 13.8418 8.87759 13.6374 9.13708C13.452 9.37735 13.2429 9.59839 13.0005 9.80982C12.8437 10.1414 12.6963 10.4778 12.5585 10.8189C12.4539 11.0784 12.3541 11.3427 12.2543 11.6118C12.5157 11.6358 12.7534 11.6647 12.9625 11.6935C13.0813 11.4004 13.2144 11.1121 13.3617 10.8285C13.4188 10.718 13.4806 10.6075 13.5424 10.497C13.5424 10.4826 13.5376 10.4682 13.5424 10.4585C13.5471 10.4393 13.5471 10.4345 13.5519 10.4249ZM7.53464 3.88488C7.64396 3.70227 7.74376 3.50526 7.82456 3.29863C7.91962 3.06317 7.9909 2.8229 8.04318 2.59224C8.0717 2.47211 8.08599 2.34237 8.07648 2.21743C8.06698 2.0973 8.0337 1.98197 7.95766 1.88586C7.88636 1.79456 7.80081 1.77053 7.72001 1.78975C7.6297 1.81378 7.54891 1.88586 7.48712 1.97235C7.39206 2.11171 7.33979 2.27509 7.31602 2.43847C7.29226 2.60666 7.30177 2.78446 7.32554 2.95264C7.3398 3.05836 7.35881 3.15927 7.38257 3.26499C7.4301 3.47642 7.48711 3.67825 7.53464 3.88488ZM12.0547 11.7992C12.0214 11.7944 11.9834 11.7944 11.9501 11.7896C11.8551 11.78 11.7553 11.7752 11.6555 11.7656C11.5984 11.9001 11.5414 12.0347 11.4748 12.1644C11.4273 12.2605 11.375 12.3518 11.318 12.4431C11.5033 12.4335 11.6792 12.4191 11.8503 12.4095C11.9168 12.1981 11.9834 11.9962 12.0547 11.7992ZM10.5718 12.7267C10.2866 12.7363 9.98716 12.7459 9.68298 12.7507C9.64495 12.9141 9.60694 13.0822 9.57367 13.2456C9.86835 13.2408 10.1583 13.236 10.4482 13.2264C10.4862 13.0582 10.529 12.89 10.5718 12.7267ZM12.8817 11.8953C12.6773 11.8665 12.4444 11.8377 12.183 11.8088C12.1165 12.001 12.0499 12.1933 11.9881 12.3903C12.2591 12.3662 12.5062 12.3422 12.7296 12.3134C12.7772 12.174 12.8294 12.0347 12.8817 11.8953ZM17.82 5.50426C17.8295 5.50907 17.839 5.50906 17.8438 5.51387C17.9911 5.56192 18.1384 5.60037 18.2905 5.64842C18.3951 5.68206 18.4949 5.7205 18.6042 5.74453C18.6708 5.75895 18.7373 5.76375 18.8038 5.75414C18.9274 5.73972 19.0463 5.67725 19.1318 5.59076C19.2126 5.50426 19.2601 5.38894 19.2411 5.264C19.2316 5.19672 19.1889 5.14387 19.1366 5.10062C19.051 5.02854 18.9322 4.98049 18.8324 4.95166C18.6328 4.89399 18.4379 4.90359 18.2478 4.95645C18.1242 4.99009 18.0006 5.04295 17.8818 5.10542C17.9578 5.22555 17.9578 5.38413 17.82 5.50426ZM5.42436 6.74884C5.4814 6.63351 5.53843 6.51818 5.59546 6.39805C5.63824 6.29713 5.68101 6.19142 5.70953 6.0857C5.75706 5.91752 5.79504 5.72531 5.79029 5.53791C5.79029 5.41777 5.77133 5.29764 5.7238 5.19192C5.68578 5.10543 5.6097 5.03815 5.5194 5.00932C5.4386 4.98529 5.3483 4.9997 5.28651 5.07658C5.21997 5.15827 5.18194 5.25439 5.16293 5.3553C5.14392 5.46102 5.14391 5.57634 5.15341 5.67725C5.16767 5.82621 5.19145 5.96557 5.22472 6.10493C5.277 6.31636 5.34356 6.52299 5.41961 6.73442L5.42436 6.74884ZM7.64395 3.95695C7.94814 3.91851 8.27136 3.88487 8.56129 3.78395C8.77992 3.71187 8.98429 3.59655 9.14589 3.41395C9.21243 3.33706 9.32173 3.1881 9.36451 3.03914C9.39303 2.95264 9.40252 2.86615 9.35024 2.80368C9.28845 2.72679 9.20289 2.70277 9.11259 2.69796C8.96049 2.69316 8.79418 2.75082 8.68011 2.81328C8.49 2.90939 8.33314 3.04875 8.1953 3.20732C7.99093 3.44278 7.82456 3.71188 7.64395 3.95695ZM11.3465 7.31105C11.1944 7.70989 11.047 8.11355 10.9045 8.51719C10.971 8.47394 11.0328 8.42109 11.0898 8.36823C11.1564 8.30576 11.2134 8.24328 11.2562 8.1664C11.394 7.92613 11.3988 7.63783 11.3513 7.3399C11.3465 7.33029 11.3465 7.32066 11.3465 7.31105ZM9.81131 11.6743C9.56891 11.6695 9.31697 11.6647 9.06031 11.6647C9.01754 11.9434 8.97005 12.2173 8.92728 12.496C8.94153 12.496 8.95577 12.496 8.96528 12.496C9.18391 12.496 9.39778 12.496 9.60691 12.4912C9.63068 12.3903 9.65446 12.2846 9.68298 12.1837C9.72575 12.0155 9.76854 11.8473 9.81131 11.6743ZM6.41295 17.3157C6.4082 16.8256 6.38919 16.3354 6.35116 15.8453C6.30363 15.2446 6.21807 14.6536 6.104 14.0721C5.58593 14.0193 5.12016 13.9472 4.75418 13.8511C4.79221 13.9376 4.80643 14.0433 4.77791 14.1586C4.74464 14.2884 4.64484 14.4373 4.43096 14.5959C4.23609 14.7353 4.06977 14.8602 3.93193 14.9707C3.69904 15.1581 3.54692 15.2927 3.48989 15.3455C3.46137 15.7252 3.23802 18.7669 3.10969 21.0206C3.05265 21.9961 3.0146 22.8274 3.01935 23.2215C3.01935 23.2983 3.02411 23.38 3.02887 23.4089C3.15719 23.5482 3.8701 24.1152 5.315 24.5669C6.2846 24.8697 7.57739 25.1196 9.23617 25.1532C10.8094 25.1868 11.9786 24.9658 12.8294 24.6679C14.1365 24.2114 14.6831 23.5723 14.8019 23.4185C14.8019 23.3897 14.8114 23.3128 14.8114 23.2311C14.8162 22.837 14.7781 22.0105 14.7211 21.0302C14.5927 18.7717 14.3741 15.7252 14.3456 15.3504C14.2885 15.2975 14.1365 15.1581 13.8988 14.9707C13.761 14.8602 13.5946 14.7305 13.3997 14.5911C13.1859 14.4373 13.0908 14.2884 13.0528 14.1586C13.0195 14.0337 13.0433 13.9232 13.0813 13.8319C13.0433 13.8415 13.0053 13.8511 12.9625 13.8607C12.7819 13.9039 12.5775 13.9376 12.3636 13.9712C12.3019 14.2067 12.2401 14.447 12.1783 14.6824C11.9311 15.6291 11.7315 16.5757 11.5794 17.5272C11.6079 17.4695 11.6459 17.3974 11.6507 17.3686C11.8266 16.7583 12.2305 15.8693 12.8247 15.5762C12.8484 15.5618 12.8056 15.6291 12.7961 15.6531C12.7724 15.7108 12.7486 15.7684 12.7249 15.8309C12.6488 16.0039 12.5585 16.1673 12.4682 16.3306C12.2163 16.7775 11.9073 17.186 11.5699 17.5704C11.4748 18.1567 11.3988 18.7381 11.3417 19.3243C11.3037 19.704 11.2752 20.0788 11.2514 20.4584C11.3084 20.2854 11.394 20.0019 11.4131 19.9058C11.5224 19.3964 11.7362 18.8775 12.0547 18.4642C12.1593 18.3297 12.2733 18.2047 12.4016 18.0942C12.4587 18.0461 12.5157 18.0029 12.5727 17.9596C12.5918 17.9452 12.6345 17.8972 12.6345 17.9212C12.6108 18.1855 12.4207 18.4978 12.3161 18.7333C12.0262 19.382 11.6887 20.0019 11.2372 20.5497C11.1944 21.2993 11.1754 22.0538 11.1897 22.813C12.1593 22.9331 13.1193 23.1205 13.9939 23.38C14.1269 23.4185 14.1888 23.4858 14.203 23.5338C14.2173 23.5771 14.2125 23.6203 14.1888 23.6684C14.1602 23.7164 14.0889 23.7789 13.9843 23.8317C13.5899 24.0336 12.625 24.2642 12.3303 24.3219C12.2828 24.3315 12.2353 24.3027 12.2258 24.2546C12.2163 24.2066 12.2448 24.1633 12.2923 24.1537C12.5062 24.1056 13.0765 23.9615 13.5091 23.8077C13.6564 23.7549 13.7895 23.702 13.8893 23.6491C13.9226 23.6299 13.9511 23.6155 13.9701 23.5963C13.9559 23.5915 13.9463 23.5867 13.9321 23.5819C13.0765 23.3416 12.1402 23.1734 11.1944 23.0629C11.2039 23.3848 11.2134 23.7116 11.2324 24.0336C11.2324 24.0624 11.2134 24.0816 11.1849 24.0816C11.1564 24.0816 11.1373 24.0624 11.1326 24.0384C11.1136 23.7068 11.0993 23.38 11.0898 23.0485C11.0233 23.0389 10.952 23.0341 10.8855 23.0244C10.7286 23.01 10.5718 22.9908 10.4102 22.9812C10.4197 23.3032 10.4339 23.6251 10.4577 23.9471C10.4577 23.9759 10.4387 23.9951 10.4149 23.9999C10.3864 23.9999 10.3674 23.9807 10.3626 23.9567C10.3388 23.6251 10.3246 23.2984 10.3103 22.9716C10.106 22.9524 9.89687 22.9379 9.69249 22.9283C9.74477 23.3368 9.81128 23.7501 9.89684 24.1585C9.90159 24.1825 9.88735 24.2114 9.85883 24.2162C9.83031 24.221 9.80655 24.2065 9.8018 24.1777C9.71625 23.7597 9.64492 23.3416 9.58788 22.9235C9.38351 22.9139 9.18393 22.9043 8.98431 22.8947C9.02708 23.2695 9.07457 23.6491 9.11735 24.0288C9.1221 24.0576 9.1031 24.0768 9.07459 24.0816C9.04607 24.0864 9.02231 24.0672 9.02231 24.0384C8.97478 23.6539 8.92723 23.2743 8.8797 22.8899C8.85593 22.8899 8.83697 22.8899 8.81321 22.8899C8.69914 22.8851 8.58503 22.8851 8.47571 22.8803C8.48046 23.2071 8.48999 23.5338 8.49474 23.8606C8.49474 23.8846 8.47574 23.9086 8.44722 23.9086C8.41871 23.9086 8.39965 23.8894 8.39965 23.8606C8.39014 23.5338 8.38067 23.207 8.37592 22.8755C8.20006 22.8707 8.02421 22.8707 7.85311 22.8707C7.8341 23.0821 7.81984 23.2887 7.80083 23.5002C7.79608 23.529 7.77702 23.5482 7.7485 23.5434C7.71998 23.5386 7.70099 23.5194 7.70574 23.4906C7.72475 23.2839 7.739 23.0773 7.75801 22.8707C7.56314 22.8707 7.37305 22.8755 7.18768 22.8803C7.17343 23.1638 7.14965 23.4473 7.11638 23.726C7.11163 23.7548 7.08787 23.7741 7.0641 23.7693C7.03559 23.7645 7.01659 23.7404 7.02134 23.7164C7.05461 23.4377 7.07363 23.159 7.08789 22.8803C6.77895 22.8899 6.47952 22.9043 6.19909 22.9235C6.18959 23.0677 6.18481 23.207 6.17531 23.3512C6.17531 23.38 6.15155 23.3993 6.12303 23.3993C6.09451 23.3993 6.07551 23.3752 6.07551 23.3512C6.08027 23.2118 6.08973 23.0725 6.09449 22.938C5.5479 22.9764 5.07262 23.0341 4.68764 23.0965C4.34067 23.159 4.0745 23.2263 3.9129 23.2983C3.86062 23.3224 3.81785 23.3416 3.79884 23.3704C3.80359 23.38 3.81782 23.3945 3.82733 23.4041C3.87486 23.4473 3.95094 23.4954 4.04124 23.5434C4.16007 23.6059 4.30741 23.6684 4.46426 23.7308C5.06313 23.9663 5.80932 24.1633 5.80932 24.1633C5.8616 24.1777 5.89013 24.2306 5.88063 24.2786C5.86637 24.3315 5.81409 24.3603 5.7618 24.3459C5.7618 24.3459 4.53557 24.0336 3.94145 23.7308C3.76084 23.6395 3.63246 23.5338 3.59444 23.4521C3.56117 23.3848 3.56593 23.3176 3.60395 23.2551C3.66099 23.1638 3.84159 23.0629 4.12676 22.9812C4.55928 22.8611 5.25323 22.7505 6.104 22.6833C6.16579 21.6261 6.25608 20.5689 6.32262 19.5069C6.10874 19.3436 5.91864 19.1514 5.75229 18.9303C5.74754 18.9255 5.74753 18.9207 5.74277 18.9159C5.89962 19.358 5.9757 19.8145 6.07076 20.2806C6.09927 20.42 6.15628 20.9774 6.15628 20.9774C5.74752 20.2998 5.42912 19.6559 5.36733 18.8486C5.35307 18.6852 5.3483 18.5219 5.34354 18.3585C5.33879 18.2768 5.25323 18.099 5.33879 18.1086C5.37206 18.1134 5.41959 18.1855 5.46712 18.272C5.44811 18.1759 5.43858 18.0846 5.44334 17.9885C5.45284 17.7386 5.5574 17.5175 5.79029 17.3734C5.92813 17.2917 6.08501 17.2581 6.24661 17.2581C6.03273 16.9553 5.84737 16.6334 5.71429 16.2826C5.662 16.148 5.61921 16.0087 5.58119 15.8645C5.56693 15.8069 5.55268 15.754 5.53367 15.6963C5.52892 15.6723 5.49563 15.6195 5.51464 15.6291C5.63822 15.6963 5.75706 15.9126 5.83311 16.0279C6.08026 16.4075 6.18955 16.84 6.33689 17.2629C6.37491 17.3109 6.39394 17.3109 6.41295 17.3157ZM6.45571 19.6367C6.38917 20.665 6.29412 21.6934 6.22758 22.7217C6.50801 22.7025 6.80268 22.6833 7.11162 22.6737C7.12588 22.2748 7.12589 21.876 7.12589 21.4771C7.12589 21.554 7.12114 21.6117 7.12114 21.6117C6.89775 21.0206 6.71711 20.3815 6.6173 19.752C6.56026 19.7088 6.508 19.6751 6.45571 19.6367ZM6.97377 19.9539C7.04031 20.2854 7.07836 20.6218 7.12114 20.9582C7.12114 20.9726 7.12589 20.9918 7.12589 21.0158C7.13065 20.7708 7.13542 20.5257 7.14492 20.2854C7.14968 20.2085 7.14963 20.1268 7.15438 20.05C7.09259 20.0163 7.03556 19.9827 6.97377 19.9539ZM7.26851 20.098C7.26375 20.1605 7.26374 20.2229 7.25899 20.2902C7.22097 21.0831 7.23993 21.876 7.21141 22.6689C7.40153 22.664 7.59169 22.6592 7.79132 22.6544C7.84835 21.9 7.89584 21.136 7.92911 20.3719C7.72949 20.295 7.52987 20.2181 7.335 20.1268V20.1316C7.335 20.1316 7.335 20.1316 7.335 20.1268C7.31123 20.1172 7.28752 20.1076 7.26851 20.098ZM8.03848 20.4104C8.00045 21.16 7.94814 21.9096 7.89111 22.6544C8.05271 22.6544 8.21908 22.6544 8.38543 22.6544C8.36642 21.9433 8.35212 21.2321 8.34262 20.5209C8.23805 20.4872 8.13829 20.4488 8.03848 20.4104ZM8.45674 20.5641C8.46149 21.2609 8.47573 21.9577 8.48998 22.6544C8.60881 22.6544 8.72287 22.6592 8.8417 22.664C8.8512 22.664 8.86073 22.664 8.86548 22.664C8.82746 22.3613 8.79891 22.0586 8.77039 21.7558C8.73712 21.3714 8.70859 20.987 8.69909 20.6026C8.67057 20.6218 8.64681 20.6218 8.64681 20.6218C8.6373 20.6218 8.62307 20.6218 8.61357 20.617V20.6266C8.55653 20.6026 8.50427 20.5833 8.45674 20.5641ZM8.80369 20.5017C8.80369 20.5593 8.80845 20.617 8.80845 20.6794C8.8132 20.6074 8.81316 20.5401 8.81791 20.468C8.81791 20.4776 8.8132 20.492 8.80369 20.5017ZM9.11735 20.5785C9.05081 20.987 8.97476 21.3954 8.88446 21.8039C8.90822 22.0922 8.94152 22.3805 8.97479 22.664C9.17442 22.6688 9.37405 22.6785 9.57843 22.6929C9.48812 21.8952 9.4501 21.0975 9.4596 20.2998C9.35979 20.3863 9.25998 20.4728 9.16016 20.5593H9.15541C9.13639 20.5689 9.12685 20.5785 9.11735 20.5785ZM9.56415 20.2037C9.54989 21.035 9.5784 21.8664 9.67346 22.7025C9.88734 22.7169 10.1012 22.7313 10.3151 22.7505C10.2913 21.7414 10.3246 20.7419 10.4054 19.752C10.4197 19.6031 10.4292 19.4589 10.4434 19.3099C10.2438 19.5406 10.0347 19.7568 9.81607 19.9683C9.74003 20.1268 9.65922 20.2758 9.56891 20.4296C9.56891 20.4296 9.57368 20.3239 9.58318 20.1893C9.57843 20.1893 9.57366 20.1941 9.56415 20.2037ZM10.5813 19.1465C10.5575 19.3484 10.5385 19.555 10.5195 19.7568C10.4339 20.7467 10.3959 21.7462 10.4149 22.7553C10.5861 22.7698 10.7524 22.789 10.9235 22.8082C10.9805 22.813 11.0375 22.8226 11.0946 22.8274C11.0898 22.6833 11.0898 22.5391 11.0898 22.3901C10.8142 21.7991 10.6003 21.184 10.5718 20.5209C10.5718 20.468 10.5385 19.9106 10.6003 19.8914C10.624 19.8818 10.7572 20.2902 10.7714 20.3383C10.933 20.8669 10.9615 21.4195 11.0613 21.9577C11.0661 21.9913 11.0803 22.0634 11.0898 22.1403C11.0898 21.1984 11.1374 20.2614 11.2277 19.3292C11.2752 18.8438 11.3322 18.3633 11.4035 17.8827C11.394 17.8972 11.3893 17.9116 11.3845 17.926C11.1849 18.3345 10.9235 18.7285 10.624 19.0985C10.6098 19.1129 10.5955 19.1321 10.5813 19.1465ZM11.5746 16.864C11.7077 16.1288 11.8693 15.3936 12.0594 14.6632C12.1165 14.4422 12.1735 14.2259 12.2305 14.0049C12.107 14.0193 11.9834 14.0385 11.8503 14.0529C11.8836 14.6151 11.836 15.1629 11.8028 15.7252C11.8028 15.7348 11.7695 15.7588 11.7695 15.7588C11.684 15.1966 11.6079 14.6392 11.6555 14.0721C11.6032 14.0769 11.5509 14.0817 11.4986 14.0866C11.375 14.5767 11.2562 15.0765 11.1516 15.581C11.0803 15.9318 11.0091 16.2778 10.9473 16.6238C11.0756 16.5901 11.2087 16.5949 11.3322 16.643C11.4558 16.6862 11.5319 16.7631 11.5746 16.864ZM10.8189 16.667C10.8855 16.297 10.9567 15.927 11.0328 15.5522C11.1326 15.062 11.2467 14.5767 11.3655 14.0962C11.0423 14.1202 10.7096 14.1394 10.3674 14.1538C10.3008 14.4662 10.2343 14.7785 10.1725 15.0909C10.068 15.605 9.97764 16.124 9.89684 16.6382C9.95387 16.7871 9.9919 16.9409 10.0204 17.0659C10.0299 17.1091 10.0395 17.2244 10.0585 17.3301C10.0727 17.3109 10.087 17.2917 10.1012 17.2725C10.1298 17.234 10.163 17.1956 10.1963 17.1572C10.3341 16.9986 10.548 16.792 10.7809 16.6766C10.7951 16.6766 10.8047 16.6718 10.8189 16.667ZM9.8018 16.4267C9.87309 15.9702 9.9539 15.5185 10.0442 15.062C10.1012 14.7593 10.1678 14.4566 10.2296 14.1586C9.94915 14.1682 9.66396 14.1779 9.38354 14.1827C9.30749 14.5815 9.24092 14.9803 9.17914 15.384C9.15062 15.5618 9.1269 15.7444 9.10313 15.927C9.15541 15.9222 9.21244 15.9318 9.26947 15.9462H9.27423C9.32651 15.8309 9.38354 15.7204 9.44533 15.6194C9.50712 15.5137 9.65443 15.2446 9.77325 15.211C9.81128 15.2014 9.75904 15.2879 9.75428 15.3263C9.74002 15.3888 9.73048 15.4513 9.71622 15.5137C9.67344 15.7059 9.62595 15.903 9.57367 16.0904C9.57367 16.0952 9.56891 16.1048 9.56891 16.1096C9.6307 16.1673 9.68772 16.2345 9.73525 16.3114C9.75902 16.3451 9.78279 16.3883 9.8018 16.4267ZM8.97004 15.9462C8.9938 15.7492 9.02234 15.557 9.05086 15.36C9.10789 14.9659 9.1744 14.5719 9.25044 14.1827C9.15063 14.1827 9.04606 14.1827 8.94625 14.1875C8.86069 14.1875 8.77518 14.1875 8.68963 14.1875C8.68012 14.2932 8.66583 14.3989 8.65633 14.5046C8.59454 15.1437 8.55174 15.778 8.51847 16.4171C8.55174 16.3499 8.58981 16.2874 8.62784 16.2297C8.72765 16.0904 8.84171 15.9895 8.97004 15.9462ZM8.39019 16.4748C8.42346 15.8117 8.4662 15.1485 8.52799 14.4854C8.53749 14.3845 8.54703 14.2836 8.56129 14.1779C8.4092 14.1779 8.25706 14.173 8.10497 14.173C8.12873 14.8698 8.13827 15.5714 8.13827 16.273C8.23333 16.3354 8.31414 16.4027 8.39019 16.4748ZM8.01469 16.2153C8.00994 15.5329 7.9957 14.8506 7.97193 14.1779C7.72003 14.173 7.47284 14.1634 7.22569 14.1538C7.24945 14.4133 7.26371 14.668 7.28272 14.9275C7.30648 15.36 7.32548 15.7876 7.33024 16.2201C7.51085 16.1096 7.73902 16.0904 8.01469 16.2153ZM7.20671 16.3114C7.19721 15.8501 7.17815 15.3888 7.15438 14.9323C7.14012 14.668 7.12111 14.4085 7.09735 14.1442C6.95951 14.1394 6.82169 14.1298 6.6886 14.1202C6.53651 14.1106 6.3892 14.0962 6.24185 14.0866C6.35593 14.6632 6.43197 15.2446 6.4795 15.8357C6.48425 15.903 6.48902 15.9702 6.49377 16.0375C6.52704 15.4417 6.70289 14.8266 7.07838 14.3653C7.09264 14.346 7.07362 14.4181 7.07362 14.4422C7.06887 14.5046 7.06409 14.5719 7.05459 14.6344C7.03558 14.7977 7.0118 14.9563 6.98328 15.1197C6.89298 15.6194 6.75991 16.1 6.52226 16.5517C6.53177 16.8112 6.53653 17.0755 6.53653 17.335C6.60308 17.3542 6.66963 17.3734 6.73142 17.4022C6.75043 17.4118 6.80742 17.4455 6.86446 17.4839C6.86446 17.4551 6.86922 17.4263 6.86922 17.3974C6.87397 17.3205 6.87398 17.2436 6.87873 17.162C6.89299 16.8448 7.00234 16.5084 7.20671 16.3114ZM6.36068 19.2715C6.3987 19.3051 6.43672 19.334 6.47474 19.3676C6.50801 19.3964 6.54127 19.4205 6.57454 19.4445C6.6791 19.5214 6.78845 19.5934 6.90252 19.6607C6.90727 19.6607 6.91203 19.6655 6.91203 19.6655C6.99284 19.7136 7.07834 19.7616 7.1639 19.8049C7.20192 19.8241 7.23994 19.8433 7.27796 19.8626C7.31599 19.8818 7.34931 19.8962 7.38733 19.9154C7.39683 19.9202 7.40631 19.925 7.41582 19.9298C7.58692 20.0115 7.76277 20.0836 7.93863 20.1557C7.97665 20.1701 8.00991 20.1845 8.04794 20.1989C8.14299 20.2374 8.24286 20.2758 8.33792 20.3094C8.37594 20.3239 8.41396 20.3383 8.45198 20.3527C8.50902 20.3767 8.56605 20.3959 8.62308 20.42C8.63259 20.4103 8.64206 20.4055 8.64681 20.4055C8.66107 20.2277 8.67537 20.0499 8.68963 19.8673C8.68963 19.8001 8.68963 19.7328 8.69439 19.6655C8.60408 19.4301 8.52328 19.185 8.45198 18.9399C8.40921 18.7862 8.37113 18.6324 8.34262 18.4738C8.34262 18.4642 8.33792 18.4498 8.33792 18.4402C8.25236 17.9933 8.23332 17.5464 8.30461 17.0995C8.31887 17.0274 8.33789 16.9361 8.3664 16.8304C8.30462 16.7391 8.22858 16.6526 8.14303 16.5853C8.10501 16.5517 8.06222 16.5229 8.01945 16.4988C7.99093 16.4844 7.96239 16.4652 7.93387 16.4508C7.68196 16.3306 7.49187 16.3835 7.36354 16.5229C7.35879 16.5325 7.34926 16.5373 7.34451 16.5469C7.29223 16.6141 7.24945 16.691 7.22093 16.7775C7.17815 16.9025 7.15443 17.037 7.14968 17.1764C7.14968 17.2581 7.14492 17.3349 7.14017 17.4166C7.13541 17.4695 7.1354 17.5272 7.12589 17.58C7.12589 17.5944 7.12113 17.6809 7.11162 17.7194C7.09261 17.8011 7.03084 17.8251 7.01183 17.8299C6.98806 17.8347 6.94529 17.8347 6.893 17.8107C6.82171 17.777 6.6696 17.6617 6.63633 17.6425C6.60781 17.6281 6.57932 17.6185 6.54605 17.6089C6.50327 17.5944 6.46525 17.5848 6.42247 17.5752C6.37494 17.5656 6.32739 17.5608 6.27986 17.556C6.16103 17.5512 6.04699 17.5704 5.94718 17.6329C5.79033 17.729 5.72379 17.878 5.71429 18.0461C5.70003 18.32 5.82356 18.6324 5.9709 18.8342C6.08022 18.9976 6.21334 19.1418 6.36068 19.2715ZM8.91776 19.7232C8.98905 19.925 9.06509 20.122 9.14113 20.3143C9.14589 20.3094 9.15065 20.3046 9.15541 20.2998C9.25522 20.2133 9.35503 20.122 9.45484 20.0307C9.49287 19.9923 9.53089 19.9587 9.56891 19.9202C9.57842 19.9106 9.5879 19.901 9.60216 19.8914C9.7495 19.7472 9.89686 19.5983 10.0394 19.4397C10.106 19.3676 10.1725 19.2955 10.2343 19.2234C10.3199 19.1225 10.4054 19.0216 10.4862 18.9159C10.5337 18.8534 10.5813 18.791 10.6288 18.7285C10.8379 18.4402 11.0233 18.1374 11.1706 17.8299C11.2277 17.705 11.356 17.4166 11.3702 17.1668C11.3797 17.0418 11.3608 16.9217 11.2467 16.8784C11.1326 16.8352 11.0138 16.8592 10.8997 16.9121C10.8949 16.9121 10.8902 16.9169 10.8902 16.9169C10.8475 16.9361 10.8047 16.9649 10.7619 16.9938C10.6146 17.0947 10.4815 17.2292 10.3912 17.3398C10.3626 17.3734 10.3341 17.407 10.3056 17.4455C10.2628 17.4983 10.22 17.556 10.182 17.6089C10.1772 17.6137 10.144 17.6617 10.1297 17.6809C10.0632 17.7674 9.96338 17.729 9.95863 17.7242C9.9206 17.705 9.87308 17.6473 9.84456 17.5608C9.82555 17.4983 9.80655 17.4166 9.79704 17.3398C9.78278 17.2485 9.7733 17.1668 9.7638 17.1331C9.75429 17.0851 9.74 17.0274 9.72574 16.9697C9.68296 16.8016 9.61645 16.6142 9.51663 16.4604C9.50713 16.4412 9.49284 16.4268 9.48333 16.4075C9.41204 16.3066 9.32175 16.2297 9.20768 16.1961C9.19818 16.1961 9.1934 16.1913 9.18389 16.1913C9.14587 16.1817 9.10786 16.1865 9.07459 16.1961C9.0223 16.2105 8.97951 16.2393 8.93673 16.2778C8.90346 16.3066 8.87497 16.3451 8.84645 16.3835C8.75615 16.5084 8.68958 16.6622 8.64205 16.8112C8.59452 16.9457 8.56603 17.0707 8.55177 17.162C8.55177 17.1668 8.55177 17.1716 8.54702 17.1764C8.47097 17.5992 8.49 18.0269 8.56605 18.4546C8.60407 18.6708 8.65633 18.8871 8.71812 19.0985C8.72762 19.1321 8.73716 19.1658 8.74666 19.1994C8.77043 19.2811 8.79415 19.3628 8.82267 19.4397C8.85118 19.5262 8.87973 19.6079 8.90825 19.6896C8.90349 19.6896 8.91301 19.7088 8.91776 19.7232ZM8.26185 19.8722C8.03371 19.728 7.78181 19.6319 7.55367 19.4925C7.30652 19.3436 7.08789 19.1466 6.85024 18.9736C6.64587 18.8246 6.37492 18.642 6.34641 18.3633C6.29888 17.8827 7.03085 18.099 7.25899 18.1951C7.32078 18.2191 7.42058 18.3056 7.48712 18.3104C7.49663 18.3104 7.49188 18.099 7.49188 18.075C7.48713 17.9212 7.39681 17.4503 7.59643 17.3686C7.82932 17.2677 7.99095 17.6809 8.03848 17.8347C8.22384 18.4162 8.10973 19.0024 8.17627 19.5886C8.19053 19.6463 8.26185 19.8722 8.26185 19.8722ZM9.20292 19.6175C9.06034 18.9543 8.92252 18.2768 8.86548 17.604C8.84647 17.4022 8.86547 16.8881 9.20292 17.1043C9.46434 17.2725 9.57367 17.6521 9.6307 17.9404C9.64971 18.0221 9.64021 18.2047 9.69249 18.272C9.7115 18.296 9.74003 18.2383 9.7638 18.2191C9.83509 18.1711 9.9016 18.1134 9.96814 18.0557C10.1488 17.9116 10.4292 17.5848 10.6954 17.6809C10.9473 17.7722 10.7951 18.1663 10.6763 18.3056C10.2818 18.7525 9.75424 19.0601 9.35975 19.5166C9.34074 19.5406 9.20292 19.6175 9.20292 19.6175ZM11.8313 13.8175C11.9882 13.803 12.145 13.7838 12.2876 13.7646C12.3304 13.606 12.3731 13.4474 12.4207 13.2889C12.1925 13.3273 11.9454 13.3561 11.6887 13.385C11.6649 13.4715 11.6412 13.5532 11.6174 13.6397C11.5984 13.7069 11.5794 13.7742 11.5651 13.8415C11.6079 13.8367 11.6459 13.8367 11.6887 13.8319C11.7125 13.6733 11.7505 13.4234 11.76 13.4234C11.7933 13.4282 11.8171 13.6589 11.8313 13.8175ZM4.81122 6.12414C4.72566 6.01362 4.63538 5.90311 4.53557 5.807C4.45477 5.72531 4.36442 5.64842 4.25986 5.58595C4.16005 5.52348 4.01273 5.4514 3.86539 5.42257C3.77983 5.40815 3.68952 5.40816 3.62298 5.45621C3.49941 5.5379 3.47087 5.68686 3.48989 5.84063C3.51365 5.9992 3.58495 6.16259 3.67526 6.25389C3.72754 6.30675 3.78933 6.35 3.85111 6.38844C3.95093 6.44611 4.06502 6.48935 4.16958 6.53259C4.32643 6.59506 4.48804 6.63832 4.65439 6.67676C4.6639 6.68157 4.67338 6.68156 4.68764 6.68637C4.89676 6.69117 5.10586 6.72481 5.31024 6.78728C5.26746 6.72 5.21997 6.65274 5.16769 6.58546C5.12016 6.51819 5.06784 6.45572 5.01556 6.38844C4.94902 6.30675 4.87776 6.21544 4.81122 6.12414ZM8.76088 12.7555C8.70859 12.7555 8.65157 12.7555 8.59929 12.7555C8.62306 12.9189 8.64683 13.0822 8.66584 13.2456H8.68487C8.70864 13.0822 8.73711 12.9189 8.76088 12.7555ZM12.644 12.5729C12.4207 12.6017 12.1782 12.6257 11.9121 12.6498C11.8598 12.8131 11.8123 12.9813 11.7648 13.1447C12.0262 13.1207 12.2733 13.0919 12.4967 13.0534C12.5395 12.89 12.5918 12.7315 12.644 12.5729ZM12.4302 13.7454C12.606 13.7214 12.7676 13.6925 12.9197 13.6589C13.2476 13.5868 13.5138 13.5003 13.6944 13.3946C13.818 13.3225 13.8988 13.2408 13.9131 13.1447C13.9274 13.063 13.8941 12.9717 13.818 12.866C13.7182 12.9333 13.5947 12.9957 13.4426 13.0486C13.2049 13.1351 12.9054 13.2072 12.5632 13.2697C12.5204 13.4282 12.473 13.5868 12.4302 13.7454ZM11.5508 13.3994C11.4415 13.409 11.3275 13.4186 11.2182 13.4282C10.9948 13.4474 10.7619 13.4619 10.529 13.4715V13.4763C10.4957 13.6204 10.4624 13.7646 10.4292 13.9088C10.7714 13.8991 11.1136 13.8799 11.432 13.8559C11.4558 13.7742 11.4748 13.6877 11.4986 13.606C11.5128 13.5339 11.5318 13.4667 11.5508 13.3994ZM9.14589 6.14337C9.10312 5.98959 9.04608 5.84063 8.97004 5.70608C8.92251 5.62919 8.84642 5.53309 8.75612 5.48504C8.70384 5.45621 8.64206 5.4418 8.58502 5.46102C8.48521 5.49946 8.42817 5.57153 8.39965 5.66283C8.35212 5.8118 8.37115 5.9944 8.41868 6.12895C8.47571 6.30194 8.56603 6.46533 8.66584 6.6191C8.70386 6.67677 8.74664 6.73442 8.78466 6.79209C8.97478 6.96508 9.12686 7.16209 9.24568 7.38794C9.16964 7.10923 9.16491 6.81131 9.15541 6.52299C9.15541 6.39805 9.15064 6.2683 9.14589 6.14337ZM7.93863 13.4955C7.67722 13.4907 7.4158 13.4811 7.1639 13.4667C7.17816 13.606 7.19246 13.7502 7.20671 13.8943C7.26375 13.8943 7.32078 13.8992 7.37781 13.8992C7.57268 13.904 7.76755 13.9088 7.96717 13.9136C7.95767 13.7742 7.94813 13.6349 7.93863 13.4955ZM10.9282 12.7074C10.8569 12.7122 10.7809 12.7122 10.7096 12.717C10.6669 12.8852 10.6241 13.0486 10.586 13.2168C10.6193 13.2168 10.6573 13.212 10.6906 13.212C10.7714 13.087 10.8522 12.9525 10.8712 12.89C10.8855 12.8372 10.9045 12.7747 10.9282 12.7074ZM11.3988 11.7464C11.2609 11.7368 11.1231 11.7271 10.9805 11.7223C10.9568 11.7992 10.9377 11.8713 10.9187 11.9482C10.8712 12.1212 10.8236 12.2942 10.7761 12.4672C10.8617 12.4624 10.9425 12.4576 11.028 12.4576C11.1231 12.2125 11.2467 11.953 11.3988 11.7464ZM17.0453 5.41777C16.8837 5.4418 16.7221 5.47543 16.5652 5.52829C16.3181 5.60998 16.0852 5.73011 15.9093 5.90791C15.8238 5.9896 15.7287 6.11934 15.7002 6.25389C15.6812 6.33078 15.6859 6.41246 15.7382 6.48454C15.819 6.59987 15.9379 6.63831 16.0567 6.63831C16.185 6.63831 16.3228 6.59506 16.4369 6.53259C16.6127 6.44129 16.7506 6.30676 16.8647 6.15299C16.9122 6.07129 16.9645 5.9896 17.012 5.90791C17.0453 5.85505 17.0785 5.80219 17.1118 5.74453C17.1403 5.69167 17.1641 5.63882 17.1879 5.58115C17.1261 5.54271 17.0785 5.48505 17.0453 5.41777ZM7.03556 13.4619C6.9405 13.4571 6.8407 13.4523 6.75039 13.4426C6.52225 13.4282 6.30362 13.409 6.09449 13.3898C6.13251 13.5388 6.16582 13.6877 6.19434 13.8367C6.47476 13.8559 6.77419 13.8751 7.07838 13.8847C7.06412 13.7454 7.04982 13.606 7.03556 13.4619ZM12.6345 13.0294C12.7058 13.015 12.7772 13.0054 12.8484 12.9909C13.2524 12.9093 13.5661 12.8035 13.7467 12.669C13.8275 12.6065 13.8798 12.544 13.8846 12.4672C13.8893 12.4143 13.8751 12.3614 13.8418 12.3038C13.6945 12.3855 13.395 12.4672 12.972 12.5296C12.915 12.5392 12.8532 12.5489 12.7867 12.5585C12.7344 12.7122 12.6821 12.8708 12.6345 13.0294ZM8.94625 11.6551C8.75613 11.6551 8.56604 11.6599 8.37592 11.6647C8.40444 11.7752 8.4282 11.8761 8.43295 11.8953C8.48048 12.0972 8.52326 12.2942 8.55653 12.496C8.63733 12.496 8.71814 12.496 8.80369 12.496C8.85122 12.2173 8.89872 11.9338 8.94625 11.6551ZM9.3883 13.5051C9.25046 13.5051 9.11262 13.5099 8.97004 13.5099C8.90349 13.5099 8.84169 13.5099 8.77515 13.5099C8.75614 13.6493 8.73713 13.7886 8.72287 13.928C8.79892 13.928 8.87496 13.928 8.951 13.928C9.06983 13.928 9.18389 13.928 9.30272 13.928C9.33124 13.7838 9.35503 13.6445 9.3883 13.5051ZM10.8474 11.7127C10.5575 11.6983 10.258 11.6887 9.94435 11.6791C9.89682 11.8569 9.85409 12.0347 9.81131 12.2173C9.78755 12.3086 9.76853 12.3999 9.74477 12.496C10.0537 12.4912 10.3531 12.4816 10.6383 12.472C10.6859 12.2846 10.7381 12.0972 10.7904 11.9146C10.8094 11.8425 10.8284 11.78 10.8474 11.7127ZM9.54988 12.7555C9.35976 12.7603 9.16491 12.7603 8.97004 12.7603C8.94152 12.7603 8.91773 12.7603 8.88921 12.7603C8.86545 12.9237 8.83697 13.0871 8.81321 13.2504C8.86549 13.2504 8.91775 13.2504 8.97004 13.2504C9.12688 13.2504 9.28372 13.2504 9.44057 13.2504C9.47384 13.0822 9.51186 12.9189 9.54988 12.7555ZM10.3864 13.4763C10.1012 13.4907 9.81132 13.4955 9.51663 13.5003C9.48812 13.6397 9.45957 13.779 9.43106 13.9232C9.71623 13.9232 10.0014 13.9184 10.2866 13.9088C10.3199 13.7646 10.3531 13.6204 10.3864 13.4763ZM6.94052 12.7074C6.56029 12.6882 6.20858 12.6642 5.88538 12.6354C5.93291 12.8035 5.98041 12.9765 6.02794 13.1495C6.33213 13.1784 6.6601 13.1976 7.00231 13.212C6.9833 13.0438 6.96429 12.8756 6.94052 12.7074ZM5.50513 11.8377C5.50037 11.8377 5.49566 11.8377 5.48615 11.8377C5.49566 11.8473 5.50514 11.8617 5.51464 11.8713C5.50989 11.8617 5.50513 11.8473 5.50513 11.8377ZM7.77229 11.6791C7.47285 11.6887 7.18295 11.7031 6.91203 11.7175C6.95481 11.9626 6.99753 12.2077 7.03556 12.4527C7.29697 12.4672 7.57268 12.4768 7.85311 12.4816C7.82459 12.2173 7.79605 11.9482 7.77229 11.6791ZM8.23331 12.7507C8.15726 12.7507 8.08598 12.7459 8.00993 12.7459C8.01944 12.8228 8.02421 12.8948 8.02896 12.9717C8.03847 13.063 8.04319 13.1495 8.05269 13.2408C8.143 13.2408 8.23334 13.2456 8.32364 13.2456C8.28562 13.0822 8.25232 12.9141 8.23331 12.7507ZM7.04983 3.67824C7.17816 3.74071 7.30175 3.80318 7.42057 3.86565C7.3065 3.55811 7.22568 3.23135 7.10211 2.92381C7.04982 2.78926 6.98803 2.65952 6.91673 2.53458C6.85019 2.42406 6.77415 2.30873 6.67909 2.21743C6.62205 2.15977 6.55079 2.11171 6.47474 2.08288C6.35117 2.03483 6.21331 2.05405 6.09924 2.11171C5.98517 2.16938 5.89487 2.27028 5.86635 2.40002C5.8521 2.47691 5.85686 2.55379 5.87587 2.62587C5.89488 2.70276 5.93288 2.77484 5.9709 2.84212C6.09923 3.05355 6.28935 3.22174 6.50323 3.3707C6.64582 3.46681 6.80271 3.5533 6.95955 3.63499C6.99282 3.64941 7.02131 3.66382 7.04983 3.67824ZM8.22855 11.6647C8.11923 11.6695 8.00994 11.6695 7.90062 11.6743C7.92914 11.9434 7.95768 12.2173 7.98145 12.4864C8.05274 12.4864 8.12877 12.4912 8.20006 12.4912C8.1858 12.3278 8.1858 12.1644 8.1953 11.9962C8.20481 11.8857 8.21429 11.7752 8.22855 11.6647ZM12.8722 12.2942C13.1336 12.2557 13.3475 12.2173 13.5044 12.174C13.5899 12.15 13.6564 12.126 13.7087 12.102C13.7135 12.102 13.7135 12.0972 13.7182 12.0972C13.7135 12.0972 13.7135 12.0923 13.7087 12.0923C13.6612 12.0683 13.5899 12.0443 13.5044 12.0203C13.376 11.9818 13.2097 11.9482 13.01 11.9146C12.9625 12.0395 12.915 12.1692 12.8722 12.2942ZM17.3019 5.60998C17.2544 5.68687 17.2116 5.76374 17.1688 5.84063C17.1071 5.96557 17.0405 6.0905 16.9597 6.20103C16.9549 6.20583 16.9502 6.21064 16.9455 6.22025C16.9027 6.29714 16.8647 6.37403 16.8314 6.45091C16.7886 6.56143 16.7553 6.67676 16.7553 6.7969C16.7506 6.96508 16.8599 7.14287 17.0025 7.2582C17.1451 7.37353 17.3304 7.4408 17.5015 7.39275C17.6299 7.35431 17.7202 7.26301 17.7725 7.15248C17.8295 7.03716 17.8532 6.89781 17.858 6.76806C17.8628 6.59988 17.839 6.42207 17.801 6.24908C17.7582 6.07609 17.7012 5.90791 17.6204 5.75895C17.6013 5.7205 17.5776 5.67726 17.549 5.63881C17.5443 5.63401 17.5396 5.62439 17.5348 5.61959C17.4635 5.6292 17.378 5.6244 17.3019 5.60998ZM8.38543 13.5051C8.28087 13.5051 8.17629 13.5003 8.07172 13.5003C8.08123 13.6397 8.09076 13.779 8.09551 13.9184C8.22859 13.9184 8.36642 13.9232 8.4995 13.9232C8.46148 13.7838 8.42346 13.6445 8.38543 13.5051ZM12.492 4.50956C12.5823 4.41345 12.6773 4.31735 12.7724 4.22605C12.972 4.03384 13.1764 3.85123 13.3808 3.66382C13.4901 3.56291 13.5946 3.43798 13.6612 3.29863C13.704 3.21213 13.723 3.11603 13.7182 3.01511C13.7135 2.96226 13.6945 2.92381 13.6659 2.89498C13.6327 2.86615 13.5899 2.85173 13.5424 2.84693C13.4378 2.84212 13.3237 2.88056 13.2477 2.93823C13.2144 2.96225 13.1859 2.99108 13.1573 3.02472C13.1146 3.07277 13.0765 3.13043 13.0385 3.18329L12.9673 3.28421C12.9673 3.28421 12.9482 3.30823 12.9387 3.31784C12.8912 3.3707 12.8247 3.29863 12.8247 3.29863C12.7866 3.17849 12.7961 3.04874 12.7629 2.92861C12.7534 2.88536 12.7344 2.84692 12.7058 2.80848C12.6726 2.76523 12.6345 2.74601 12.5918 2.75081C12.549 2.75562 12.5015 2.78445 12.4682 2.8277C12.4349 2.87095 12.4111 2.919 12.3921 2.97185C12.3731 3.02952 12.3684 3.08719 12.3636 3.14485C12.3541 3.24096 12.3589 3.33707 12.3636 3.43317C12.3874 3.79838 12.492 4.14916 12.492 4.50956ZM5.75229 12.6257C5.65248 12.6161 5.55743 12.6065 5.46712 12.5969C4.84924 12.5296 4.39297 12.4383 4.16958 12.3374C4.10779 12.4287 4.07926 12.5056 4.09828 12.5777C4.13155 12.7026 4.27887 12.7891 4.49275 12.8708C4.66385 12.9333 4.87302 12.9861 5.12017 13.0294C5.35306 13.0726 5.60972 13.1063 5.8949 13.1303C5.85212 12.9669 5.80457 12.7939 5.75229 12.6257ZM6.7837 11.7271C6.50327 11.7464 6.23709 11.7656 5.98994 11.7848C5.86161 11.7944 5.74277 11.8088 5.62395 11.8184C5.63346 11.8473 5.64299 11.8809 5.65725 11.9097C5.70954 12.0635 5.76179 12.2173 5.80932 12.3711C5.87111 12.3759 5.92815 12.3807 5.99469 12.3855C6.27512 12.4095 6.58408 12.4287 6.90728 12.4431C6.86925 12.2077 6.82647 11.9674 6.7837 11.7271ZM17.1641 4.95166C17.1118 4.79308 17.0643 4.6345 17.0073 4.47592C16.9835 4.41345 16.9597 4.35098 16.9264 4.29332C16.8932 4.22124 16.8504 4.14916 16.8076 4.08188C16.7791 4.03863 16.7459 3.99538 16.7078 3.96175C16.608 3.86084 16.4796 3.8176 16.3703 3.83682C16.261 3.85604 16.1707 3.93772 16.1374 4.08188C16.1089 4.1924 16.1232 4.30294 16.1565 4.40865C16.1945 4.51918 16.2563 4.62008 16.3276 4.70658C16.4416 4.84593 16.57 4.94204 16.7126 5.01892C16.8076 5.07178 16.9122 5.11503 17.0167 5.15347C17.0215 5.12944 17.0358 5.11023 17.0453 5.0862C17.0785 5.02854 17.1166 4.98529 17.1641 4.95166ZM11.7695 12.6594C11.5747 12.6738 11.3655 12.6882 11.1516 12.7026C11.028 12.8804 10.895 13.0534 10.7571 13.2168C11.0566 13.2024 11.3465 13.1832 11.6222 13.1591C11.6649 12.9909 11.7172 12.8228 11.7695 12.6594ZM5.95669 13.3754C5.38158 13.3129 4.88728 13.2216 4.53557 13.0967C4.38347 13.0438 4.25988 12.9813 4.16007 12.9189C4.06976 13.0294 4.03174 13.1255 4.046 13.212C4.06026 13.3081 4.1458 13.385 4.26937 13.4522C4.44999 13.5532 4.71615 13.63 5.03935 13.6925C5.33403 13.7502 5.681 13.7934 6.05648 13.8223C6.02321 13.6781 5.98996 13.5291 5.95669 13.3754ZM5.35306 11.8521C4.96332 11.9001 4.6496 11.9578 4.43572 12.0155C4.35016 12.0395 4.28365 12.0635 4.23137 12.0875C4.23137 12.0875 4.22661 12.0875 4.22661 12.0923C4.23137 12.0923 4.23137 12.0972 4.23137 12.0972C4.2789 12.1212 4.35016 12.1452 4.43572 12.1692C4.70663 12.2413 5.13439 12.3086 5.67623 12.3566C5.65246 12.2894 5.63344 12.2173 5.60968 12.15C5.52888 12.0443 5.44336 11.9482 5.35306 11.8521ZM6.87873 3.70707C6.86923 3.70226 6.85975 3.69746 6.85024 3.69746C6.67914 3.63019 6.49853 3.59174 6.31316 3.57252C6.1278 3.5533 5.93766 3.5485 5.75705 3.56291C5.61921 3.57252 5.42911 3.61097 5.29603 3.70227C5.21998 3.75994 5.16292 3.83201 5.15817 3.94254C5.15817 4.02903 5.21046 4.10111 5.28175 4.16358C5.40058 4.26449 5.57167 4.33176 5.68098 4.37501C5.98517 4.48553 6.30841 4.47592 6.6126 4.38462C6.89777 4.30293 7.16864 4.15878 7.39679 3.99059C7.28747 3.93773 7.18294 3.87045 7.07838 3.81278C7.01184 3.77434 6.94527 3.74551 6.87873 3.70707ZM7.87684 12.7459C7.59641 12.7411 7.33027 12.7266 7.06886 12.717C7.09263 12.8852 7.11164 13.0486 7.13541 13.2168C7.23047 13.2216 7.32552 13.2216 7.42533 13.2264C7.59168 13.2312 7.75325 13.236 7.92435 13.2408C7.90534 13.0726 7.8911 12.9093 7.87684 12.7459ZM9.77801 7.19092C9.79227 7.1717 9.80657 7.15729 9.82083 7.13807C9.90638 7.03235 9.98713 6.92182 10.0632 6.80169C10.1345 6.68636 10.201 6.56624 10.2485 6.4365C10.3008 6.30675 10.3531 6.15778 10.3674 6.00882C10.3769 5.91271 10.3722 5.81661 10.3436 5.73011C10.3341 5.70609 10.3246 5.68207 10.3103 5.65804C10.2961 5.63401 10.2818 5.60998 10.2676 5.59076C10.1868 5.47543 10.087 5.4514 9.99669 5.48504C9.89687 5.51868 9.79703 5.60997 9.72574 5.70608C9.78752 6.13375 9.75425 6.57104 9.65919 6.99871C9.62116 7.1669 9.57366 7.33509 9.50236 7.48886C9.50712 7.48886 9.50712 7.48405 9.50712 7.48405C9.58317 7.37353 9.67345 7.27742 9.77801 7.19092ZM14.5214 7.15248C13.9844 7.92614 13.5233 8.72382 13.1193 9.55033C13.2762 9.39176 13.4188 9.22838 13.5471 9.05539C13.742 8.7959 13.9131 8.522 14.0747 8.21927C14.1935 7.99822 14.3123 7.77718 14.4026 7.54652C14.4549 7.41678 14.4929 7.28703 14.5214 7.15248ZM17.7867 4.97568C17.8152 4.95165 17.839 4.92763 17.8628 4.9036C18.0006 4.77386 18.1242 4.62488 18.2383 4.47592C18.2953 4.39903 18.3475 4.31735 18.3808 4.22605C18.4141 4.13955 18.4284 4.05305 18.4141 3.96175C18.3856 3.81278 18.3001 3.72148 18.186 3.69265C18.0719 3.65901 17.9341 3.69265 17.8248 3.78395C17.744 3.85123 17.6869 3.93293 17.6489 4.01942C17.5824 4.15878 17.5538 4.31734 17.5206 4.47592C17.4968 4.58644 17.4825 4.69697 17.4683 4.80749C17.4683 4.8219 17.4635 4.84113 17.4635 4.85554C17.5063 4.85554 17.5538 4.86035 17.5919 4.87477C17.6679 4.89399 17.7297 4.92762 17.7867 4.97568Z" fill="#133F24"/>
</svg>
