<svg width="29" height="24" viewBox="0 0 29 24" fill="none" xmlns="http://www.w3.org/2000/svg">
<path fill-rule="evenodd" clip-rule="evenodd" d="M5.99366 21.4856C10.6293 21.6276 13.5245 20.7124 17.2939 20.1049C20.4233 19.5999 24.4736 18.3769 26.4558 15.6786C29.0078 12.2148 26.9475 5.94225 22.7879 4.90077C19.9707 4.19855 12.073 8.79052 8.63143 9.93457C5.12741 11.1023 -1.71674 13.9743 0.382546 18.8977C0.866397 20.0339 0.663493 21.3199 5.99366 21.4856Z" fill="#FFF0E0"/>
<path fill-rule="evenodd" clip-rule="evenodd" d="M2.26326 16.7511C2.4851 16.4552 2.59883 16.1292 2.59314 15.7971C2.59314 15.447 2.45659 15.0908 2.20064 14.7768C1.86505 14.3663 1.4214 14.0765 1.08012 13.6841C0.920861 13.5029 0.784383 13.3037 0.687687 13.0683C0.198522 11.903 0.357769 10.6352 0.955005 9.68732C1.54087 8.73945 2.5533 8.10553 3.77052 8.17798C3.85015 8.09949 3.92981 8.02704 4.01513 7.96063C3.981 7.44745 4.00378 6.91616 4.11185 6.4211C4.19148 6.05886 4.31658 5.72076 4.4986 5.43097C4.62942 5.2257 4.78297 5.04457 4.97067 4.89364C5.19819 4.71252 5.47126 4.57366 5.80116 4.49517C5.80116 4.32009 5.80681 4.13897 5.82956 3.96388C5.858 3.73446 5.9149 3.50504 5.99453 3.28166C6.04572 3.1428 6.11396 3.00998 6.1879 2.88319C6.26754 2.75641 6.3529 2.63566 6.4496 2.52699C6.84775 2.08626 7.32549 1.8508 7.81465 1.78439C8.15593 1.73609 8.50862 1.77231 8.84421 1.87495C9.16842 1.97155 9.48125 2.13456 9.75996 2.34587C10.0842 2.58736 10.3686 2.89527 10.5848 3.24544C10.6473 2.90734 10.7212 2.56321 10.8464 2.24323C10.9601 1.94136 11.1137 1.66364 11.3298 1.42818C11.819 0.902932 12.3935 0.782184 12.9509 0.915007C13.2751 0.993493 13.588 1.1565 13.878 1.37385C14.1852 1.60931 14.4639 1.91117 14.6744 2.23116C14.7881 2.03192 14.9133 1.83873 15.0555 1.6576C15.2091 1.47045 15.3854 1.3014 15.5844 1.17461C16.0338 0.88482 16.5059 0.788222 16.9552 0.842558C17.2681 0.878783 17.5752 0.987455 17.8539 1.15046C18.1213 1.30744 18.3716 1.51271 18.5877 1.76024C18.8607 2.06815 19.0769 2.43039 19.2247 2.81678C19.3158 2.6417 19.4125 2.47265 19.5205 2.30964C19.6172 2.17078 19.7196 2.03192 19.839 1.91117C19.9585 1.79043 20.0836 1.68779 20.2201 1.59723C20.3623 1.51271 20.5102 1.4463 20.6695 1.398C20.806 1.36177 20.9482 1.33762 21.0961 1.33159C21.244 1.32555 21.3862 1.33762 21.5284 1.36177C21.6422 1.38592 21.7559 1.41611 21.864 1.45233C21.9777 1.48856 22.0858 1.53686 22.1938 1.59119C22.6034 1.80854 22.8707 2.09833 23.0584 2.44246C23.3087 2.9013 23.4168 3.44467 23.5704 3.98803C23.9628 3.93973 24.3609 3.99407 24.742 4.13293C25.362 4.35631 25.9138 4.80912 26.2892 5.36456C26.5338 5.73887 26.6931 6.16149 26.7955 6.60222C26.9433 7.24822 26.966 7.93648 26.949 8.57644C26.949 8.58248 26.949 8.58852 26.949 8.59455C27.2675 9.04132 27.5178 9.5545 27.6543 10.0979C27.7168 10.3514 27.7567 10.611 27.7681 10.8706C27.7851 11.257 27.7396 11.6495 27.6259 12.0298C27.5121 12.4102 27.296 12.7362 27.131 13.0924C27.0685 13.4426 26.9376 13.7444 26.7613 14.0101C26.585 14.2757 26.3575 14.5112 26.1242 14.7406C25.7887 15.0546 25.4246 15.3504 25.1232 15.7066L25.1175 15.7126C25.1004 15.7609 25.0891 15.8032 25.0777 15.8515C25.0663 15.9119 25.0151 15.9541 24.9582 15.942C24.9411 15.942 24.9241 15.93 24.9127 15.9239C25.0322 16.1171 25.1914 16.2862 25.4076 16.4311C25.7318 16.6484 26.1015 16.7511 26.4257 16.9443C26.5793 17.0348 26.7158 17.1495 26.8409 17.2944C27.1367 17.6506 27.3471 18.0551 27.5121 18.4838C27.7453 19.1117 27.8704 19.7879 28.0183 20.4339C28.0354 20.4942 28.0012 20.5546 27.9444 20.5667C27.8875 20.5848 27.8306 20.5486 27.8136 20.4882C27.6429 19.8603 27.4893 19.2022 27.2448 18.5985C27.0855 18.2061 26.8864 17.8378 26.6077 17.5118C26.5053 17.391 26.3916 17.3005 26.2664 17.228C26.0105 17.071 25.7261 16.9684 25.4587 16.8235C25.2995 17.1616 25.1459 17.5057 24.9696 17.8378C24.8274 18.0974 24.6738 18.351 24.4918 18.5804C24.4179 18.677 24.2643 18.8883 24.105 19.009C23.9969 19.0936 23.8832 19.1358 23.7865 19.1237C23.7069 19.1117 23.6045 19.0573 23.5021 18.9788C23.3485 18.8521 23.1779 18.6589 23.0926 18.5683C22.9333 18.3993 22.7797 18.2302 22.6261 18.0491C22.2962 17.6627 21.9891 17.2522 21.6649 16.8597C21.5739 16.908 21.4715 16.9624 21.3634 17.0227C21.153 17.1374 20.9197 17.2884 20.6979 17.5178C20.4363 17.7895 20.1917 18.1638 20.0154 18.7434C20.0438 18.7736 20.0666 18.8038 20.095 18.834C20.4875 19.3049 20.7662 19.8362 20.9823 20.4037C21.2951 21.2368 21.4658 22.1364 21.6706 22.9937C21.6877 23.0541 21.6535 23.1145 21.5966 23.1265C21.5398 23.1446 21.4828 23.1084 21.4658 23.048C21.2439 22.2088 21.0392 21.3274 20.715 20.5184C20.5785 20.1742 20.4135 19.8422 20.2144 19.5282C19.5603 19.5464 18.9062 19.5947 18.2521 19.6309C17.7971 19.6611 17.3363 19.6913 16.8813 19.7094C16.3921 19.7335 15.8973 19.7456 15.4081 19.7456C14.7256 19.7396 14.0487 19.7214 13.3718 19.6731C12.7063 19.6309 12.0465 19.5584 11.381 19.4739C11.1535 19.812 10.9715 20.1742 10.8179 20.5546C10.4937 21.3636 10.289 22.2451 10.0671 23.0843C10.0501 23.1446 9.99321 23.1809 9.94202 23.1628C9.88514 23.1446 9.85101 23.0843 9.86807 23.0299C9.92495 22.7824 9.98179 22.5228 10.0387 22.2692C9.85665 21.593 9.66324 20.8746 9.37884 20.2105C9.19114 19.7758 8.96368 19.3652 8.65653 19.0151C8.54277 18.8822 8.41762 18.7857 8.28111 18.7011C8.12184 18.5985 7.94551 18.52 7.77487 18.4415C7.33121 18.6649 6.87616 18.846 6.40974 18.9668C6.06278 19.0573 5.70444 19.1117 5.35179 19.1298C4.99345 19.1479 4.6351 19.1237 4.28245 19.0634C3.77053 18.9728 3.26429 18.7977 2.76943 18.526C2.63861 18.5864 2.50213 18.6528 2.377 18.7313C2.24048 18.8158 2.11533 18.9124 2.00157 19.0453C1.69442 19.3954 1.47829 19.806 1.30766 20.2346C1.04032 20.8987 0.87539 21.6172 0.687687 22.2994C0.670623 22.3598 0.613755 22.396 0.556875 22.3779C0.499996 22.3598 0.465865 22.2994 0.482929 22.2451C0.64788 21.5447 0.78438 20.8021 1.04034 20.1199C1.21667 19.649 1.4442 19.2143 1.76841 18.8279C1.90493 18.6709 2.05845 18.5502 2.21772 18.4476C2.57037 18.2362 2.97426 18.1215 3.32691 17.8861C3.65681 17.6627 3.86723 17.385 3.99805 17.071C4.19144 16.6062 4.21987 16.0688 4.20281 15.5194C4.12887 15.4349 4.06631 15.3383 4.00375 15.2477C4.00375 15.4228 3.98099 15.604 3.92411 15.7911C3.8331 16.093 3.67388 16.3224 3.46911 16.5156C3.18471 16.7812 2.82633 16.9744 2.50211 17.1918C2.30872 17.3186 2.06987 17.4755 1.89923 17.6687C1.79116 17.7895 1.71147 17.9283 1.70009 18.0853C1.6944 18.1457 1.64324 18.194 1.58636 18.188C1.53517 18.1819 1.49533 18.1397 1.48964 18.0853C1.40432 17.6808 1.54084 17.385 1.77973 17.1435C1.90487 16.9925 2.08125 16.8718 2.26326 16.7511ZM3.86155 8.40136C3.83879 8.41343 3.81604 8.42551 3.7876 8.41947C2.6557 8.3591 1.7229 8.96283 1.18823 9.85033C0.65925 10.7257 0.517043 11.8789 0.966392 12.9354C1.05171 13.1407 1.16545 13.3097 1.30196 13.4667C1.64324 13.8652 2.08119 14.1671 2.41109 14.5897C2.70686 14.964 2.84906 15.3866 2.83768 15.7971C2.83768 15.9058 2.82635 16.0085 2.80359 16.1111C2.84341 16.0326 2.87757 15.9541 2.90601 15.8756C2.97995 15.6462 2.97992 15.4108 2.87185 15.1874C2.63295 14.7044 2.25187 14.2878 1.89353 13.8471C1.64326 13.5452 1.41004 13.2313 1.23371 12.8871C1.04032 12.5068 0.926554 12.0962 0.943618 11.6193C0.96637 11.1544 1.15407 10.7257 1.43847 10.3575C1.71149 10.0013 2.06413 9.71147 2.41678 9.50016C2.71824 9.32508 3.03681 9.22244 3.31552 9.04736C3.48616 8.94472 3.64538 8.81794 3.77052 8.62474C3.79896 8.58248 3.85021 8.56437 3.9014 8.57644H3.90702C4.40757 8.73341 4.91381 8.67304 5.41435 8.75153C5.64187 8.78775 5.86373 8.84812 6.08556 8.96283C6.46665 9.16207 6.75676 9.51827 6.95583 9.92882C7.14923 10.3273 7.25728 10.7801 7.29141 11.1906C7.31985 11.5106 7.30847 11.8427 7.35966 12.1506C7.39379 12.3377 7.44496 12.5249 7.55303 12.6939C7.63835 12.8328 7.75215 12.9415 7.87728 13.0381C8.2015 13.2916 8.59961 13.4667 8.89538 13.7626C9.22528 14.1006 9.35614 14.481 9.36183 14.8795C9.36752 15.2115 9.27652 15.5557 9.15138 15.8877C9.29358 15.7066 9.42436 15.5255 9.53812 15.3323C9.6917 15.0666 9.80546 14.7768 9.82252 14.4387C9.83959 14.1308 9.74294 13.8712 9.58937 13.6358C9.40735 13.346 9.13996 13.0984 8.88969 12.8449C8.61098 12.5611 8.33795 12.2713 8.17869 11.9453C8.06493 11.7159 8.00807 11.4683 7.98532 11.2269C7.95119 10.8827 7.97392 10.5265 7.96255 10.1763C7.95686 9.99523 7.93411 9.80807 7.89999 9.62695C7.86586 9.44583 7.81466 9.2647 7.75209 9.09566C7.46201 8.28665 6.7852 7.82781 6.03439 7.70706C5.28358 7.58631 4.45882 7.80366 3.89571 8.37117C3.88433 8.38928 3.87292 8.39532 3.86155 8.40136ZM4.2142 7.81573C4.77162 7.4716 5.44281 7.34482 6.07417 7.43538C6.09124 7.43538 6.10828 7.44141 6.12534 7.44141C6.12534 7.43538 6.13104 7.43538 6.13104 7.42934C6.29599 7.17577 6.46666 6.92824 6.66574 6.71089C6.80225 6.55996 6.95579 6.42713 7.12074 6.31242C7.49614 6.05885 7.88864 5.92603 8.28111 5.88981C8.20716 5.79321 8.12751 5.70265 8.04788 5.61813C7.90568 5.47323 7.75783 5.34041 7.58719 5.21966C7.45068 5.12306 7.30848 5.03854 7.16059 4.96609C7.01271 4.89364 6.8591 4.83327 6.70553 4.791C6.58608 4.76082 6.46663 4.74271 6.34149 4.74271C6.21635 4.74271 6.09121 4.75478 5.97176 4.77893C5.64186 4.84534 5.37456 4.97213 5.15273 5.14721C4.99346 5.274 4.85697 5.43097 4.74321 5.60001C4.53275 5.92 4.39624 6.31243 4.31661 6.72297C4.24267 7.08521 4.2142 7.45349 4.2142 7.81573ZM6.36996 7.50179C7.09233 7.69498 7.7294 8.19609 8.02517 8.99302C8.09343 9.18018 8.15026 9.37338 8.19008 9.57261C8.22989 9.77184 8.25834 9.97711 8.26402 10.1763C8.2754 10.5205 8.25836 10.8646 8.29249 11.2027C8.31524 11.408 8.3607 11.6132 8.4574 11.8125C8.5996 12.1083 8.84987 12.3679 9.10583 12.6275C9.37317 12.8992 9.64621 13.1709 9.8396 13.4788C10.0273 13.7746 10.1354 14.1006 10.1126 14.481C10.0842 14.8734 9.95336 15.2055 9.76566 15.5134C9.56089 15.8515 9.28784 16.1534 9.03189 16.4613C8.7873 16.7571 8.55412 17.059 8.41761 17.4152C8.38917 17.4937 8.37212 17.5782 8.36074 17.6687C8.34937 17.7593 8.34936 17.8499 8.34936 17.9404C8.3778 17.9887 8.40626 18.037 8.44608 18.0853C8.48021 18.1336 8.4745 18.2 8.429 18.2423L8.4233 18.2483C8.39486 18.2785 8.35501 18.2906 8.3152 18.2725C7.9853 18.1638 7.68384 17.9525 7.47339 17.6808C7.25156 17.391 7.14351 17.0227 7.21177 16.6182C7.26864 16.3164 7.41085 16.0386 7.50186 15.7428C7.53598 15.6341 7.56442 15.5194 7.57011 15.4047C7.58149 15.1813 7.52461 14.9519 7.42791 14.7466C7.32553 14.5293 7.18335 14.3361 7.02409 14.1791C6.98427 14.2999 6.9444 14.4206 6.8989 14.5353C6.83064 14.7104 6.75106 14.8855 6.66005 15.0606C6.59748 15.1753 6.52922 15.29 6.4439 15.3926C6.42115 15.9783 6.4382 16.5458 6.64297 17.0348C6.77379 17.3488 6.98428 17.6265 7.31418 17.8499C7.66683 18.0853 8.07065 18.2 8.4233 18.4113C8.58825 18.514 8.74185 18.6347 8.87268 18.7917C9.1912 19.1781 9.43575 19.6188 9.62346 20.0897C9.84529 20.6391 9.99318 21.2308 10.1297 21.8043C10.2435 21.3395 10.3686 20.8806 10.5335 20.4399C10.7497 19.8724 11.0284 19.3351 11.4209 18.8702C11.5858 18.677 11.7678 18.5321 11.9669 18.4113C12.3992 18.1517 12.8883 18.0129 13.3206 17.7231C13.7302 17.4514 13.9918 17.1012 14.1567 16.7088C14.4013 16.1232 14.4298 15.447 14.4014 14.7527C14.299 14.6259 14.208 14.4931 14.117 14.3603C13.9805 14.155 13.861 13.9376 13.7529 13.7143C13.6449 13.4969 13.5481 13.2675 13.4571 13.0381C13.3889 12.869 13.3263 12.6939 13.2695 12.5189C13.2467 12.4464 13.224 12.374 13.2012 12.3015C13.0647 12.5189 12.8656 12.6939 12.6494 12.8509C12.4162 13.02 12.1603 13.1769 11.9897 13.3943C11.8645 13.5512 11.7849 13.7505 11.8019 14.0161C11.8247 14.3784 12.0295 14.6682 12.2513 14.9519C12.4959 15.2659 12.7689 15.5738 12.9168 15.9239C13.0021 16.1171 13.0476 16.3224 13.0305 16.5518C13.0192 16.7269 12.9737 16.8718 12.894 16.9986C12.7518 17.234 12.5186 17.4031 12.2968 17.5782C12.1034 17.7351 11.9214 17.8921 11.8759 18.1336C11.8645 18.194 11.8133 18.2362 11.7564 18.2242C11.6996 18.2121 11.6597 18.1578 11.6711 18.0974C11.7109 17.8257 11.8815 17.6325 12.0806 17.4514C12.2456 17.3065 12.439 17.1737 12.5812 17.0046C12.6892 16.8778 12.7632 16.7329 12.7746 16.5397C12.7803 16.3586 12.7405 16.1956 12.6722 16.0386C12.6608 16.0145 12.6495 15.9903 12.6381 15.9722C12.6154 15.936 12.5869 15.9058 12.5585 15.8696C12.3878 15.6764 12.1831 15.4832 11.984 15.284C11.9328 15.2417 11.8816 15.1934 11.8304 15.1511C11.4436 14.8251 11.0454 14.5172 10.761 14.1912C10.5733 13.9799 10.4368 13.7565 10.3742 13.5211C10.2775 13.1769 10.3174 12.863 10.4198 12.5671C10.5335 12.2472 10.7212 11.9453 10.8976 11.6374C11.0568 11.3597 11.2047 11.0699 11.2445 10.7559C11.2957 10.3575 11.2332 9.97108 11.1536 9.57865C11.0682 9.16207 10.9715 8.75153 10.9487 8.32891C10.9374 8.11156 10.9488 7.88818 10.9943 7.67084C11.0057 7.60442 11.0227 7.53801 11.0398 7.47764C10.7497 7.16973 10.4084 6.89805 10.0387 6.68674C9.7884 6.54184 9.53245 6.42713 9.26511 6.34865C8.99778 6.27016 8.72479 6.22186 8.44608 6.2279C8.05361 6.23394 7.65542 6.34261 7.27432 6.58411C7.12075 6.6807 6.98424 6.80145 6.85342 6.92824C6.67709 7.09125 6.51784 7.29048 6.36996 7.50179ZM6.02869 4.44687C6.13677 4.4348 6.2448 4.42272 6.34718 4.42876C6.49507 4.4348 6.64297 4.45291 6.78517 4.49517C6.95581 4.54347 7.12645 4.61592 7.28571 4.70044C7.44497 4.78497 7.59858 4.88157 7.74078 4.9842C7.92279 5.11702 8.08205 5.26796 8.22993 5.43097C8.32094 5.5336 8.40623 5.63624 8.48017 5.75095C8.60531 5.35248 8.76458 4.9359 8.98641 4.56762C9.16842 4.26575 9.39592 4.00011 9.67463 3.80691C9.9249 3.63787 10.1865 3.53523 10.4596 3.49297C10.2832 3.20317 10.0501 2.9496 9.78843 2.73226C9.48128 2.47869 9.1229 2.29153 8.75318 2.18889C8.45741 2.10437 8.15028 2.07418 7.84881 2.11645C7.42222 2.17078 7.00132 2.36398 6.64866 2.7383C6.56334 2.82886 6.48369 2.93149 6.40974 3.04016C6.34149 3.14884 6.27896 3.26355 6.23345 3.3843C6.15382 3.57749 6.10261 3.7888 6.06848 3.99407C6.04573 4.15104 6.03438 4.30198 6.02869 4.44687ZM14.5436 2.46661C14.3672 2.21304 14.1397 1.97155 13.8951 1.76628C13.588 1.51271 13.2353 1.31951 12.877 1.24103C12.4162 1.13839 11.9441 1.22895 11.5346 1.6576C11.3412 1.85684 11.199 2.10437 11.0909 2.36398C10.9487 2.71415 10.8578 3.10054 10.7781 3.46882C10.8464 3.46882 10.9146 3.47486 10.9772 3.48089C11.2673 3.51108 11.5574 3.5956 11.8361 3.73446C12.0067 3.81899 12.166 3.91558 12.3195 4.03029C12.4162 3.86125 12.5187 3.70428 12.6381 3.55334C12.7803 3.36618 12.9452 3.19714 13.1273 3.05224C13.241 2.96168 13.3662 2.88319 13.4913 2.81074C13.6221 2.7383 13.7529 2.68396 13.8951 2.6417C14.1056 2.57529 14.316 2.53906 14.5151 2.53302C14.5208 2.50888 14.5322 2.49076 14.5436 2.46661ZM19.0086 2.91942C18.8835 2.63566 18.7128 2.37002 18.5137 2.13456C18.2749 1.8508 17.9962 1.61534 17.689 1.4463C17.4387 1.30744 17.1771 1.21688 16.9041 1.18065C16.5173 1.13235 16.1077 1.2048 15.7152 1.4463C15.4934 1.57912 15.3057 1.76628 15.1408 1.98362C15.0156 2.1406 14.9076 2.30964 14.8109 2.48473C14.8223 2.50284 14.8337 2.52699 14.845 2.5451C15.0669 2.57529 15.2716 2.6417 15.465 2.73226C15.6698 2.83489 15.8632 2.96772 16.0338 3.13073C16.2499 3.336 16.4433 3.58353 16.5969 3.86125C16.6538 3.96388 16.7107 4.07859 16.7562 4.18727C16.8244 4.07859 16.8984 3.97596 16.978 3.87936C17.0918 3.7405 17.2112 3.61372 17.3477 3.49901C17.4558 3.40844 17.5696 3.32392 17.689 3.25147C17.8085 3.17902 17.9336 3.11865 18.0644 3.07035C18.3886 2.94357 18.7071 2.9013 19.0086 2.91942ZM23.3371 4.03029C23.1722 3.52919 23.0414 3.02809 22.7911 2.60547C22.6205 2.31568 22.3872 2.06815 22.0346 1.89306C21.9436 1.84476 21.8469 1.80854 21.7502 1.77231C21.6535 1.73609 21.5511 1.71194 21.4488 1.68779C21.3293 1.66364 21.2099 1.65157 21.0904 1.65157C20.971 1.6576 20.8458 1.66968 20.7264 1.69987C20.5899 1.73609 20.4647 1.79043 20.3453 1.85684C20.2258 1.92929 20.1121 2.01381 20.0097 2.11645C19.9016 2.22512 19.7992 2.34587 19.7139 2.46661C19.6001 2.62962 19.4978 2.79867 19.3954 2.97375C19.6855 3.0462 19.9528 3.17902 20.2031 3.35411C20.4419 3.52315 20.6638 3.72843 20.8572 3.96388C21.1131 4.27179 21.3293 4.62196 21.4999 4.9842C21.6194 5.01439 21.7445 5.06269 21.8583 5.11702C21.9948 4.92986 22.1427 4.74271 22.3076 4.5797C22.4498 4.44084 22.6034 4.32009 22.7797 4.22953C22.9674 4.13897 23.1551 4.07256 23.3371 4.03029ZM26.7215 8.32287C26.7044 7.77951 26.6476 7.21199 26.5111 6.6807C26.403 6.2762 26.2493 5.88981 26.0218 5.55171C25.6862 5.04458 25.1857 4.64611 24.6283 4.4348C24.0766 4.22349 23.468 4.20538 22.9105 4.4831C22.757 4.56158 22.6205 4.66422 22.4896 4.77893C22.3417 4.91779 22.2052 5.07476 22.0801 5.23777L22.0858 5.24381C22.3133 5.38871 22.5238 5.56983 22.7058 5.7751C22.9617 6.06489 23.1722 6.39695 23.3087 6.71693C23.5988 6.69882 23.9173 6.75315 24.1903 6.86183C24.4918 6.98861 24.7364 7.18785 24.8274 7.42934C25.2369 7.36897 25.5896 7.44745 25.891 7.61046C26.2209 7.77951 26.4883 8.04515 26.7215 8.32287ZM27.1537 12.4645C27.2334 12.3015 27.3017 12.1325 27.3472 11.9513C27.4382 11.6012 27.4666 11.245 27.4438 10.8888C27.4268 10.6533 27.3927 10.4118 27.3301 10.1824C27.1822 9.6028 26.9092 9.05339 26.5508 8.58852C26.3347 8.30476 26.0844 8.03308 25.7659 7.85196C25.4872 7.69498 25.163 7.6165 24.7705 7.68291C24.725 7.68895 24.6795 7.67084 24.6511 7.62857C24.6397 7.6165 24.6283 7.59839 24.6283 7.57424C24.6056 7.46556 24.5316 7.375 24.4349 7.29048C24.2984 7.17577 24.1164 7.09125 23.9173 7.04295C23.5931 6.95842 23.2347 6.95842 22.9788 7.07917C22.9105 7.1154 22.8423 7.15162 22.774 7.19388C22.4896 7.375 22.2394 7.61046 21.9436 7.77347C21.6251 7.94855 21.2894 8.09345 20.9766 8.26854C20.7775 8.38325 20.5841 8.51003 20.4135 8.67304C20.004 9.04736 19.7196 9.56053 19.5774 10.1099C19.4352 10.6654 19.4409 11.2631 19.6343 11.8004C19.6911 11.9694 19.7594 12.1143 19.839 12.2592C19.839 12.223 19.839 12.1868 19.839 12.1506C19.8561 11.8064 19.9471 11.4683 20.1007 11.1544C20.3225 10.7016 20.6069 10.3152 20.9482 9.99523C21.2895 9.67525 21.6819 9.42168 22.1199 9.2164C22.7228 8.93869 23.3429 8.87227 23.8718 8.57644C24.0823 8.46173 24.2757 8.3108 24.4463 8.09345C24.4463 8.09345 24.4463 8.09345 24.4463 8.08741C24.452 8.0693 24.4634 8.05723 24.4804 8.04515C24.5032 8.021 24.543 8.00289 24.5771 8.00893C24.634 8.01497 24.6738 8.0693 24.6795 8.12968C24.6795 8.13571 24.6795 8.14175 24.6852 8.14175C24.7193 8.36513 24.7819 8.55229 24.8672 8.72738C24.9981 8.99906 25.18 9.24055 25.3962 9.50016C25.7488 9.93485 26.1811 10.3031 26.5167 10.7499C26.6703 10.9491 26.8011 11.1665 26.9035 11.408C26.9604 11.5468 27.0116 11.6917 27.0514 11.8427C27.0912 11.9936 27.1197 12.1445 27.1367 12.2894C27.1481 12.3498 27.1537 12.4041 27.1537 12.4645ZM25.8228 14.644C25.9991 14.4689 26.1697 14.2938 26.3233 14.1006C26.5793 13.7807 26.7727 13.4184 26.8239 12.9535C26.8352 12.8509 26.8409 12.7483 26.8466 12.6456C26.8466 12.543 26.8409 12.4404 26.8295 12.3438C26.8125 12.2109 26.7897 12.0721 26.7556 11.9393C26.7215 11.8064 26.6817 11.6736 26.6305 11.5529C26.5395 11.3355 26.4257 11.1423 26.2892 10.9612C25.9593 10.5144 25.5384 10.1341 25.1971 9.69336C24.9753 9.4096 24.7876 9.14999 24.6568 8.8602C24.6625 8.95076 24.6681 9.03528 24.6795 9.12584C24.7193 9.43375 24.799 9.73562 24.9298 10.0556C25.2028 10.7257 25.6351 11.257 25.9138 11.891C26.0332 12.1687 26.1242 12.4706 26.164 12.8026C26.1982 13.1286 26.1868 13.4728 26.1242 13.8048C26.0617 14.1006 25.965 14.3844 25.8228 14.644ZM24.8615 15.8454C24.8615 15.8334 24.8615 15.8213 24.8615 15.8092C24.8843 15.6583 24.9355 15.5134 25.0094 15.3806C25.163 15.1028 25.3962 14.8553 25.5441 14.5897C25.6863 14.3301 25.783 14.0403 25.8342 13.7444C25.8853 13.4426 25.8911 13.1347 25.8569 12.8388C25.8228 12.543 25.7375 12.2713 25.6294 12.0238C25.5896 11.9332 25.5498 11.8427 25.5043 11.7521C25.4474 12.066 25.3792 12.38 25.2995 12.6758C25.1801 13.1045 25.0208 13.515 24.8217 13.8893C24.7591 14.004 24.6909 14.1127 24.6055 14.2154C24.5828 14.7346 24.6056 15.2477 24.7876 15.6824C24.8047 15.7428 24.8331 15.7971 24.8615 15.8454ZM25.3336 11.4442C25.1061 11.0337 24.8501 10.6292 24.6738 10.1703C24.5373 9.82014 24.4577 9.49412 24.4235 9.15603C24.4065 9.0051 24.4008 8.85416 24.4065 8.69719C24.1221 9.14396 23.741 9.51224 23.3485 9.86844C22.8366 10.3273 22.2905 10.7559 21.8981 11.3053C21.8071 11.4321 21.7218 11.571 21.6535 11.7159C21.6592 11.728 21.6649 11.734 21.6649 11.7461C21.7161 11.9393 21.7729 12.1325 21.8355 12.3196C21.8981 12.5068 21.9663 12.6939 22.0459 12.8751C22.1142 13.0381 22.1882 13.2011 22.2735 13.358C22.3531 13.515 22.4384 13.666 22.5408 13.8109C22.6375 13.9557 22.7456 14.1006 22.8707 14.2214C22.9504 14.2999 23.0357 14.3663 23.1267 14.4146C23.3997 14.5655 23.6841 14.5233 23.9287 14.3844C24.1903 14.2395 24.4179 13.992 24.5601 13.7324C24.7591 13.3762 24.9184 12.9958 25.0492 12.5913C25.1573 12.223 25.254 11.8366 25.3336 11.4442ZM25.254 16.7028C25.2483 16.6967 25.237 16.6907 25.2313 16.6846C24.8843 16.4371 24.6624 16.1352 24.5259 15.7971C24.3666 15.3987 24.3325 14.9459 24.3496 14.475C24.2017 14.6078 24.0368 14.7104 23.8604 14.7708C23.576 14.8734 23.2746 14.8674 22.9731 14.6983C22.8935 14.6561 22.8252 14.6017 22.7569 14.5474C22.7683 15.0002 22.7342 15.4409 22.5807 15.8273C22.4498 16.1715 22.2223 16.4733 21.8754 16.7209C21.8697 16.7209 21.8697 16.7269 21.864 16.7269C22.1882 17.0891 22.501 17.4695 22.8252 17.8378C22.9731 18.0068 23.1267 18.1698 23.286 18.3268C23.3599 18.3993 23.4907 18.5442 23.6215 18.6589C23.6898 18.7192 23.7581 18.7796 23.8093 18.7857C23.832 18.7857 23.8548 18.7675 23.8775 18.7494C23.9173 18.7192 23.9571 18.683 23.997 18.6468C24.0936 18.5442 24.1847 18.4234 24.2359 18.363C24.4122 18.1517 24.5658 17.9163 24.7136 17.6808C24.907 17.3669 25.0833 17.0288 25.254 16.7028ZM19.8333 18.5683C19.9869 17.9887 20.2258 17.5842 20.4818 17.2944C20.7207 17.0288 20.9766 16.8537 21.2098 16.7209C21.4032 16.6122 21.5796 16.5337 21.7104 16.4431C22.0118 16.2439 22.1995 15.9903 22.3247 15.7066C22.501 15.284 22.5295 14.7889 22.5181 14.2878C22.4385 14.1912 22.3702 14.0886 22.302 13.9859C22.1996 13.829 22.1086 13.666 22.0289 13.4969C21.9493 13.3279 21.8754 13.1588 21.8071 12.9898C21.7332 12.7966 21.6649 12.6034 21.6023 12.4041C21.5682 12.2955 21.5398 12.1808 21.5113 12.0721C21.4999 12.1143 21.4828 12.1566 21.4715 12.1989C21.3918 12.4706 21.3634 12.7603 21.3805 13.0441C21.4033 13.3279 21.4715 13.6056 21.6023 13.8531C21.79 14.2154 22.0403 14.4991 22.1768 14.8312C22.2735 15.0666 22.3133 15.3262 22.2337 15.6462C22.2223 15.7066 22.1654 15.7428 22.1085 15.7247C22.0516 15.7126 22.0176 15.6523 22.0289 15.5919C22.0631 15.4289 22.063 15.284 22.0346 15.1511L22.0289 15.1451C21.8412 14.8312 21.5682 14.6078 21.2781 14.3904C20.9709 14.1671 20.6525 13.9497 20.3965 13.672C20.26 13.5271 20.1462 13.3641 20.0552 13.1709C20.004 13.0683 19.9642 12.9596 19.9357 12.8569C19.839 12.7 19.7423 12.549 19.6513 12.3921C19.566 12.2411 19.4864 12.0781 19.4124 11.903C19.1849 11.3174 19.1565 10.6593 19.3044 10.0375C19.384 9.69336 19.5205 9.3613 19.7025 9.05943C19.566 8.84812 19.4921 8.63682 19.4466 8.42551C19.3726 8.06327 19.3897 7.68895 19.3385 7.25426C19.3043 6.89805 19.1906 6.54185 19.02 6.23394C18.8493 5.93207 18.6104 5.66642 18.3033 5.50945C18.2009 5.45512 18.0985 5.41285 17.9904 5.38267C17.8824 5.35248 17.7686 5.32833 17.6549 5.31022C17.5411 5.29814 17.4217 5.29814 17.3022 5.31022C17.1202 5.32833 16.9382 5.37059 16.7619 5.41286C16.7448 5.41889 16.722 5.41889 16.7049 5.41286C16.6822 5.41889 16.6594 5.41889 16.6424 5.41286C15.9712 5.1774 15.2887 5.09891 14.6232 5.17136C13.9577 5.24381 13.315 5.47927 12.7064 5.85962C12.3594 6.07697 12.0465 6.33657 11.8019 6.64448C11.563 6.94635 11.3867 7.30256 11.3071 7.72517C11.2673 7.91837 11.2616 8.11156 11.273 8.29872C11.2957 8.69719 11.3924 9.09566 11.472 9.49412C11.5574 9.91674 11.62 10.3454 11.5631 10.7801C11.5176 11.1363 11.3526 11.4683 11.1706 11.7823C10.9999 12.0721 10.8179 12.3498 10.7099 12.6517C10.6246 12.8932 10.5847 13.1407 10.6586 13.4184C10.6985 13.5814 10.7895 13.7384 10.9032 13.8893C10.8919 13.8652 10.8862 13.835 10.8748 13.8109C10.835 13.6599 10.8237 13.5029 10.8692 13.3399C10.9203 13.1407 11.0113 12.9596 11.1194 12.7966C11.3242 12.4947 11.6086 12.2472 11.8646 11.9815C12.0978 11.74 12.3025 11.4865 12.3764 11.1423C12.4504 10.7801 12.4219 10.4118 12.3878 10.0556C12.348 9.64506 12.3082 9.24659 12.3821 8.86624C12.4447 8.54022 12.5926 8.23231 12.8883 7.94855C13.0988 7.74932 13.332 7.59235 13.5766 7.46556C14.0487 7.21803 14.572 7.07917 15.0782 6.89805C15.5503 6.73504 16.0054 6.54185 16.3921 6.20375C16.4092 6.17356 16.4377 6.14942 16.4718 6.14338C16.5059 6.1313 16.54 6.13734 16.5741 6.15545C16.6026 6.16753 16.631 6.19168 16.6481 6.22186C16.7846 6.52977 16.9325 6.81956 17.1088 7.07917C17.2852 7.33878 17.4899 7.5682 17.7459 7.77347C18.0303 7.99685 18.417 8.13571 18.7128 8.36513C18.8607 8.47984 18.9858 8.61267 19.0768 8.78171C19.2702 9.14396 19.3214 9.52431 19.293 9.90467C19.2646 10.3212 19.1508 10.7378 19.0428 11.1604C18.9404 11.5589 18.8322 11.9574 18.8379 12.3438C18.8379 12.4706 18.838 12.6034 18.8607 12.7302C18.8721 12.8086 18.8948 12.8811 18.9233 12.9475C19.02 13.1467 19.1792 13.3037 19.2987 13.4848C19.3328 13.5392 19.3613 13.5935 19.3897 13.6539C19.4523 13.7927 19.4921 13.9316 19.5148 14.0765C19.5433 14.2516 19.5546 14.4327 19.5546 14.6078C19.6001 14.7768 19.6001 14.9398 19.5603 15.0968C19.5091 15.3202 19.3954 15.5315 19.293 15.7307C19.1508 16.0085 19.0257 16.3405 19.0143 16.6605C19.0086 16.8658 19.0541 17.059 19.185 17.234C19.2305 17.2944 19.2759 17.3427 19.3328 17.391C19.3897 17.4393 19.4466 17.4816 19.5091 17.5238C19.5603 17.554 19.5717 17.6204 19.5433 17.6748C19.5149 17.7291 19.4466 17.7412 19.4011 17.711C19.3272 17.6687 19.2588 17.6204 19.1963 17.5661C19.128 17.5118 19.0655 17.4514 19.0143 17.3789C18.8437 17.1616 18.7811 16.9141 18.7754 16.6545C18.7754 16.2922 18.9062 15.9119 19.0541 15.5979C19.1394 15.4168 19.2418 15.2236 19.2816 15.0244C19.3044 14.9097 19.31 14.7889 19.2702 14.6742C19.1906 14.4327 19.037 14.2455 18.8778 14.0584C18.6958 13.8531 18.5023 13.666 18.3488 13.4426C18.2066 13.2373 18.1042 13.0079 18.0758 12.7302C18.0701 12.6758 18.0644 12.6275 18.0644 12.5732C17.8994 13.1528 17.6833 13.7022 17.4103 14.2154C17.3307 14.3603 17.234 14.5051 17.1259 14.638C17.0918 15.3504 17.1202 16.0447 17.3648 16.6424C17.5297 17.0348 17.7913 17.3789 18.2009 17.6567C18.6332 17.9465 19.128 18.0853 19.5546 18.3449C19.6399 18.4294 19.7366 18.4959 19.8333 18.5683ZM20.0495 19.2928C19.9869 19.2083 19.9187 19.1237 19.8504 19.0392C19.7139 18.8762 19.5547 18.7494 19.384 18.6468C18.9517 18.3811 18.4569 18.2362 18.0246 17.9344C17.5639 17.6144 17.2795 17.2159 17.1031 16.7752C16.8813 16.2137 16.8415 15.5798 16.8699 14.9217C16.6595 15.121 16.4149 15.284 16.1532 15.3745C15.7892 15.5013 15.3967 15.4953 15.0156 15.284C14.8848 15.2115 14.7654 15.121 14.6573 15.0183C14.68 15.6583 14.6346 16.2741 14.4184 16.8175C14.2421 17.2642 13.952 17.6627 13.497 17.9766C13.0647 18.2785 12.5698 18.4234 12.1376 18.6891C11.9669 18.7917 11.8076 18.9185 11.6711 19.0815C11.6256 19.1298 11.5858 19.1841 11.546 19.2385C12.1603 19.2988 12.7746 19.3471 13.3832 19.3773C14.0544 19.4075 14.7256 19.4256 15.4024 19.4135C15.9712 19.4135 16.54 19.3894 17.1088 19.3713C17.6776 19.3532 18.2521 19.329 18.8209 19.3169C19.2248 19.2988 19.6342 19.2928 20.0495 19.2928ZM7.48478 18.3027C7.37102 18.2483 7.26297 18.1819 7.1549 18.1095C6.77381 17.8438 6.53486 17.5178 6.39266 17.1435C6.21634 16.6967 6.18223 16.1835 6.19929 15.6583C6.03434 15.8153 5.84665 15.936 5.64758 16.0085C5.34611 16.1232 5.01618 16.1171 4.69197 15.942C4.60096 15.8937 4.51567 15.8334 4.43604 15.7609C4.44741 16.262 4.40762 16.745 4.24266 17.1676C4.09478 17.5359 3.85583 17.868 3.48043 18.1336C3.33823 18.2302 3.1904 18.3087 3.04251 18.3811C3.46342 18.5683 3.89001 18.6891 4.31661 18.7494C4.6522 18.7977 4.99343 18.8038 5.32902 18.7857C5.66461 18.7675 6.00021 18.7192 6.3358 18.6468C6.71689 18.5683 7.10368 18.4476 7.48478 18.3027ZM3.03113 11.9634C3.09938 12.2532 3.19607 12.6034 3.30414 12.9535C3.4179 13.3218 3.54303 13.6841 3.66248 13.9618C3.73642 14.1429 3.82171 14.318 3.90702 14.4931C3.99234 14.6621 4.08905 14.8312 4.19712 14.9881C4.30519 15.1451 4.41895 15.3021 4.55546 15.4349C4.64078 15.5194 4.73178 15.5919 4.83417 15.6523C5.13563 15.8213 5.4485 15.779 5.72152 15.6341C6.01161 15.4772 6.26757 15.2055 6.43252 14.9217C6.52921 14.7527 6.60881 14.5957 6.68275 14.4267C6.73963 14.2999 6.79084 14.1671 6.84203 14.0282C6.80791 13.998 6.77382 13.9678 6.73969 13.9316C6.60318 13.7927 6.52349 13.6358 6.4723 13.4728C6.37561 13.1709 6.39836 12.8328 6.39836 12.4947C6.39836 12.2109 6.38703 11.9212 6.23915 11.6797C6.14814 11.5348 6.03433 11.42 5.9092 11.3295C5.57361 11.088 5.16412 10.9733 4.81715 10.7378C4.62945 10.611 4.4645 10.448 4.3223 10.2609C4.20286 10.1099 4.10045 9.94693 4.00944 9.78392C3.99237 9.89259 3.96963 9.99523 3.94119 10.0979C3.91275 10.1945 3.87296 10.2911 3.82745 10.3756C3.75351 10.611 3.65676 10.8344 3.55437 11.0155C3.39511 11.2933 3.19605 11.571 3.07091 11.8729C3.05385 11.903 3.0425 11.9332 3.03113 11.9634ZM3.46911 16.0326C3.53168 15.93 3.5885 15.8153 3.62263 15.6885C3.71932 15.3443 3.68523 15.0364 3.58854 14.7527C3.46909 14.3844 3.24723 14.0463 3.05952 13.6901C2.84907 13.3037 2.67276 12.9113 2.6557 12.4645C2.64432 12.2049 2.7069 11.9634 2.80929 11.74C2.90598 11.5227 3.0425 11.3114 3.17332 11.1061C2.97425 11.2872 2.76948 11.4623 2.60453 11.6615C2.41114 11.897 2.26325 12.1687 2.24618 12.549C2.21774 13.02 2.46231 13.4063 2.72965 13.7807C3.03111 14.1972 3.36669 14.6017 3.5032 15.0727C3.57715 15.3262 3.58854 15.5919 3.52028 15.8877C3.50322 15.942 3.48617 15.9903 3.46911 16.0326ZM3.91272 8.84209C3.77621 9.02925 3.61697 9.16207 3.44064 9.27678C3.16193 9.45186 2.84344 9.56657 2.54766 9.74769C2.22345 9.94089 1.90489 10.2186 1.66031 10.5446C1.42141 10.8646 1.25647 11.2329 1.2451 11.6314C1.23372 12.0419 1.33608 12.4041 1.50672 12.7302C1.67167 13.0501 1.89348 13.346 2.12669 13.6358C2.49072 14.0946 2.87756 14.5474 3.11077 15.0546C3.24728 15.3504 3.24155 15.6643 3.13916 15.9602C3.11641 16.0205 3.09365 16.0809 3.05952 16.1413C3.13916 16.0447 3.19606 15.942 3.2245 15.8153C3.27569 15.5798 3.2586 15.3685 3.20172 15.1693C3.0709 14.7406 2.75243 14.3663 2.47372 13.9799C2.16088 13.5392 1.8992 13.0803 1.93901 12.5309C1.96176 12.1928 2.06414 11.9272 2.21202 11.6978C2.38835 11.4261 2.62727 11.2148 2.87754 10.9974C3.09937 10.8042 3.33257 10.611 3.51459 10.3695C3.53734 10.3394 3.56009 10.3031 3.58284 10.2669C3.59991 10.2186 3.61694 10.1703 3.62832 10.122C3.70795 9.8624 3.76485 9.59676 3.79329 9.36734C3.77623 9.313 3.79897 9.25263 3.85016 9.22244C3.88997 9.20433 3.93553 9.20433 3.96965 9.22848C3.99809 9.24659 4.02083 9.27678 4.02652 9.313C4.15734 9.57261 4.31659 9.85033 4.50429 10.0858C4.63511 10.2488 4.78302 10.3877 4.94797 10.4963C5.30062 10.7257 5.72151 10.8344 6.06279 11.0759C6.22205 11.1846 6.36424 11.3235 6.478 11.5046C6.64295 11.7642 6.68845 12.06 6.69414 12.3679C6.70552 12.6336 6.68279 12.9113 6.72261 13.1649C6.75105 13.358 6.81357 13.5392 6.96146 13.6901C7.04109 13.7746 7.13215 13.835 7.22885 13.8833C7.49049 14.0161 7.78055 14.0705 8.05357 14.2093C8.20715 14.2938 8.34934 14.4086 8.47448 14.5414C8.59392 14.6742 8.69633 14.8251 8.78165 14.9761C8.88972 15.1813 8.95795 15.4168 8.96933 15.6583C8.96933 15.6704 8.96933 15.6885 8.96933 15.7006C9.05465 15.4289 9.10582 15.1572 9.09445 14.8915C9.08307 14.5655 8.96933 14.2576 8.69062 13.992C8.40054 13.7143 8.00806 13.5512 7.68953 13.3097C7.53596 13.189 7.39378 13.0562 7.28571 12.8811C7.15489 12.6698 7.08091 12.4464 7.0411 12.2109C6.98991 11.891 7.00129 11.5529 6.97854 11.2208C6.9501 10.8465 6.85909 10.436 6.68845 10.0677C6.5235 9.71147 6.28465 9.39753 5.95475 9.2164C5.76136 9.11377 5.56795 9.0534 5.36887 9.01717C4.89108 8.94472 4.3962 8.98698 3.91272 8.84209ZM8.69062 5.88377C8.91245 5.90188 9.1343 5.94414 9.35045 6.01056C9.64053 6.10112 9.91922 6.23998 10.1809 6.40902C10.5278 6.63241 10.8464 6.91013 11.1194 7.21803C11.2275 6.92824 11.3811 6.66863 11.5631 6.43921C11.8304 6.10715 12.166 5.82943 12.5471 5.59398C12.7405 5.47323 12.9453 5.37059 13.1443 5.28003C12.8201 4.74874 12.2968 4.27783 11.711 4.01822C11.4664 3.90351 11.2047 3.83106 10.9487 3.80691C10.5676 3.77069 10.1866 3.8371 9.83391 4.06652C9.58364 4.22953 9.38458 4.45895 9.21394 4.71856C8.99211 5.0808 8.82713 5.49738 8.69062 5.88377ZM7.50186 14.3482C7.56442 14.4327 7.61564 14.5172 7.66683 14.6138C7.79765 14.8614 7.87158 15.133 7.8659 15.4108C7.86021 15.5557 7.83746 15.6945 7.79764 15.8334C7.71801 16.1171 7.57582 16.3888 7.52463 16.6726C7.46206 16.9805 7.54166 17.2642 7.70092 17.4997C7.80331 17.6567 7.93985 17.7895 8.09343 17.8982C8.0138 17.705 8.00806 17.5299 8.04788 17.3608C8.12182 16.9986 8.41758 16.6665 8.5996 16.2439C8.67354 16.0688 8.702 15.8756 8.69062 15.6824C8.67925 15.4892 8.62235 15.3021 8.53134 15.1391C8.4574 15.0123 8.3721 14.8855 8.26402 14.7708C8.16164 14.6621 8.0479 14.5716 7.92276 14.5051C7.78056 14.4448 7.64406 14.3965 7.50186 14.3482ZM13.3434 11.9513C13.3889 12.1083 13.4401 12.2653 13.497 12.4223C13.5539 12.5913 13.6221 12.7543 13.6904 12.9234C13.7814 13.1467 13.8838 13.3641 13.9918 13.5754C14.0999 13.7867 14.2137 13.992 14.3502 14.1852C14.481 14.3784 14.6232 14.5716 14.7938 14.7406C14.9019 14.8432 15.0156 14.9398 15.1521 15.0063C15.5389 15.2176 15.9258 15.1572 16.2727 14.97C16.6311 14.7708 16.9325 14.4327 17.1315 14.0705C17.4159 13.5573 17.6321 13.0018 17.8084 12.4162C18.0587 11.577 18.2236 10.6835 18.3488 9.80203C18.2805 9.68128 18.2009 9.57261 18.1099 9.47601C17.7743 9.11377 17.325 8.87227 17.0121 8.46173C16.8187 8.20212 16.6936 7.9244 16.614 7.63461C16.5344 7.35689 16.4888 7.0671 16.449 6.77127C16.3751 6.97654 16.2784 7.16973 16.1646 7.34482C15.9542 7.6648 15.6812 7.92441 15.3342 8.09949C14.9019 8.31683 14.4412 8.41343 14.0544 8.63682C13.8212 8.76964 13.6221 8.9568 13.4742 9.25867C13.3946 9.41564 13.3605 9.58468 13.3434 9.75977C13.3093 10.122 13.3662 10.5024 13.406 10.8827C13.4287 11.245 13.4401 11.6072 13.3434 11.9513ZM18.491 10.3031C18.4512 10.599 18.4114 10.8948 18.3602 11.1906C18.4057 11.0397 18.4455 10.8888 18.474 10.7318C18.4967 10.5929 18.508 10.448 18.491 10.3031ZM11.6256 14.5172C11.5574 14.3603 11.5062 14.1972 11.4948 14.0222C11.4664 13.6539 11.5687 13.3822 11.7451 13.1649C11.9328 12.9234 12.2058 12.7483 12.4674 12.5611C12.6893 12.3981 12.9054 12.2291 13.0078 11.9694C13.1386 11.6374 13.1272 11.2691 13.0931 10.9069C13.059 10.5084 13.0021 10.1039 13.0419 9.71751C13.0647 9.5062 13.1159 9.30696 13.2126 9.10773C13.3889 8.74549 13.6335 8.52814 13.9179 8.37117C14.3104 8.14779 14.7824 8.05723 15.2204 7.84592C15.5275 7.69498 15.7722 7.46556 15.9599 7.18784C16.0793 7.01276 16.176 6.81956 16.2499 6.61429C16.1362 6.69278 16.0167 6.76523 15.8916 6.83164C15.4195 7.08521 14.9019 7.23614 14.3957 7.41727C13.9122 7.59235 13.4458 7.79762 13.0704 8.17194C12.8315 8.4074 12.712 8.66097 12.6608 8.92661C12.5982 9.27678 12.6438 9.64506 12.6836 10.0194C12.7234 10.4118 12.7575 10.8163 12.6722 11.2148C12.6267 11.4261 12.5471 11.6072 12.4333 11.7763C12.2343 12.0781 11.9498 12.3317 11.6825 12.5973C11.4436 12.8328 11.2275 13.0864 11.1308 13.4245C11.091 13.5573 11.1137 13.6901 11.1536 13.8109C11.2047 13.9497 11.2843 14.0825 11.3696 14.1972C11.4493 14.3059 11.5346 14.4086 11.6256 14.5172ZM13.3491 5.20155C13.7529 5.04458 14.1624 4.94194 14.5833 4.89968C15.2773 4.82723 15.994 4.92383 16.6936 5.1774C16.7334 5.16532 16.7732 5.15325 16.8187 5.14117C16.7448 4.81515 16.6254 4.48914 16.4661 4.1933C16.2955 3.87936 16.085 3.5956 15.829 3.36618C15.6755 3.22732 15.5105 3.11261 15.3285 3.02809C14.936 2.83489 14.481 2.78056 13.9805 2.93149C13.8553 2.96772 13.7359 3.01602 13.6221 3.07639C13.5084 3.13676 13.3945 3.20317 13.2922 3.28166C13.1215 3.40844 12.9737 3.55938 12.8372 3.72239C12.7177 3.86729 12.6153 4.01822 12.5129 4.18123C12.8542 4.46499 13.1443 4.82119 13.3491 5.20155ZM16.8585 4.45895C16.9325 4.66422 16.9837 4.87553 17.0235 5.08684C17.1031 5.06872 17.1828 5.05665 17.2624 5.04457C17.3989 5.02646 17.5297 5.02043 17.6662 5.0325C17.7971 5.04457 17.9222 5.06269 18.0474 5.09891C18.1725 5.13514 18.2919 5.1774 18.4113 5.23777C18.7811 5.41889 19.0711 5.71472 19.2702 6.07093C19.2816 6.08904 19.293 6.10715 19.2987 6.12527C19.4921 5.83547 19.7139 5.56983 19.9755 5.36456C20.203 5.18343 20.459 5.05061 20.7548 4.97816C20.914 4.94194 21.0677 4.92986 21.2269 4.94194C21.0961 4.72459 20.9539 4.51932 20.7946 4.32613C20.5728 4.05444 20.3169 3.81899 20.0382 3.63183C19.8106 3.48089 19.5717 3.36618 19.3158 3.30581C18.9574 3.21525 18.5649 3.21525 18.1554 3.36015C18.0416 3.40241 17.9279 3.45071 17.8198 3.51108C17.7118 3.57145 17.6094 3.6439 17.5127 3.72239C17.3875 3.82502 17.2738 3.9337 17.1657 4.06048C17.0576 4.18727 16.9609 4.32009 16.8756 4.45895C16.8642 4.45291 16.8642 4.45895 16.8585 4.45895ZM23.0869 6.75315C22.8821 6.36676 22.5579 5.98037 22.1825 5.69661C22.0175 5.56983 21.8469 5.46719 21.6649 5.38871C21.3919 5.274 21.1075 5.2257 20.8231 5.28607C20.5046 5.35248 20.2315 5.50945 19.9983 5.71472C19.7822 5.90188 19.5945 6.1313 19.4295 6.3728C19.5376 6.64448 19.6058 6.93428 19.6343 7.21803C19.6684 7.64669 19.6342 8.01497 19.6911 8.37117C19.7139 8.52814 19.7594 8.68511 19.839 8.84812C19.9528 8.69115 20.0779 8.55229 20.2201 8.41947C20.4135 8.24439 20.624 8.09949 20.8458 7.97874C21.1643 7.80366 21.4999 7.6648 21.8241 7.48971C22.0801 7.35689 22.3019 7.1637 22.5408 7.00672C22.6489 6.93428 22.7626 6.86183 22.8878 6.80749C22.9389 6.79542 23.0073 6.77127 23.0869 6.75315ZM24.0197 8.79379C24.0084 8.79982 24.0026 8.80586 23.997 8.80586C23.468 9.11377 22.8423 9.19829 22.2394 9.48809C21.8355 9.68128 21.4715 9.92882 21.1587 10.2307C20.8458 10.5326 20.5842 10.8827 20.3851 11.3053C20.2543 11.577 20.1689 11.8729 20.1519 12.1687C20.1348 12.4645 20.1803 12.7603 20.3055 13.0381C20.3794 13.2011 20.4761 13.346 20.5899 13.4728C20.8288 13.7444 21.1302 13.9557 21.4146 14.1791C21.4601 14.2154 21.4999 14.2455 21.5454 14.2818C21.4828 14.1912 21.4146 14.0946 21.3577 13.992C21.1985 13.7082 21.1075 13.3882 21.079 13.0683C21.0506 12.7483 21.0847 12.4162 21.1644 12.1023C21.2724 11.7219 21.4374 11.3959 21.6478 11.1001C22.0574 10.5326 22.6262 10.0918 23.1665 9.63298C23.4737 9.37338 23.7695 9.10773 24.0197 8.79379ZM19.2589 14.0705C19.2362 13.9678 19.202 13.8712 19.1508 13.7746C19.0541 13.5754 18.8892 13.4245 18.7584 13.2494C18.7242 13.2011 18.6901 13.1467 18.6559 13.0864C18.6104 12.9958 18.5763 12.8932 18.5592 12.7905C18.5308 12.6456 18.5251 12.4947 18.5194 12.3558C18.5081 11.9574 18.5934 11.5408 18.7014 11.1242C18.6445 11.3416 18.5649 11.5589 18.5024 11.7823C18.4114 12.0842 18.3374 12.3921 18.3715 12.706C18.3943 12.9234 18.4796 13.1045 18.5877 13.2675C18.7299 13.4788 18.9176 13.6599 19.0825 13.8591C19.1451 13.9256 19.202 13.998 19.2589 14.0705ZM18.7299 11.0155C18.8266 10.6412 18.929 10.2609 18.9517 9.88655C18.9745 9.56054 18.9403 9.24659 18.7811 8.93869C18.7128 8.80586 18.6161 8.70323 18.5081 8.6187C18.218 8.38325 17.8369 8.23835 17.5525 8.00893C17.2738 7.77951 17.0576 7.52594 16.8699 7.24218C16.8187 7.15766 16.7675 7.07313 16.7163 6.98257C16.7505 7.17577 16.7903 7.36897 16.8471 7.55009C16.9268 7.80969 17.0349 8.05119 17.2112 8.28061C17.524 8.67908 17.9677 8.9085 18.3033 9.25867C18.4569 9.42168 18.5934 9.60884 18.6844 9.84429C18.8095 10.1643 18.8209 10.4782 18.7697 10.7861C18.764 10.8646 18.747 10.9431 18.7299 11.0155Z" fill="#133F24"/>
</svg>
