<svg width="26" height="22" viewBox="0 0 26 22" fill="none" xmlns="http://www.w3.org/2000/svg">
<path fill-rule="evenodd" clip-rule="evenodd" d="M18.1508 1.02053C12.1963 2.3934 11.8529 5.20223 8.73909 7.30888C6.66321 8.70542 4.07227 10.1256 3.12798 12.6031C2.10565 15.2857 5.87501 16.2641 7.66994 17.1162C8.5518 17.5344 9.44928 18.2761 10.4638 18.3392C12.6958 18.4733 14.9433 15.909 16.348 14.5204C18.1196 12.7688 22.2713 9.99154 21.8343 7.05644C21.6548 5.8966 22.1777 0.0895056 18.1508 1.02053Z" fill="#FFF0E0"/>
<path fill-rule="evenodd" clip-rule="evenodd" d="M0.955614 13.1558C0.71335 13.0847 0.471078 13.0034 0.239123 12.9019C0.187578 12.8816 0.166972 12.8206 0.187591 12.7749C0.1979 12.7597 0.208208 12.7445 0.218517 12.7343C0.800981 11.8305 1.35765 10.9368 1.93496 10.0481C2.32155 9.44896 2.71846 8.85487 3.13082 8.26076C3.86792 7.20966 4.64111 6.18902 5.38852 5.14807C5.57408 4.8891 5.75965 4.63013 5.94006 4.36608C6.2184 3.96494 6.49676 3.56887 6.78541 3.17788C7.06891 2.78689 7.35757 2.39591 7.65653 2.00999C7.739 1.89828 7.88331 1.62916 8.02248 1.4362C8.11527 1.31433 8.21322 1.22293 8.30085 1.19246C8.38848 1.16199 8.50701 1.15691 8.63588 1.17723C8.85752 1.21277 9.1101 1.30925 9.25443 1.34987C9.6204 1.45143 9.98638 1.5479 10.3524 1.61899C10.5946 1.66469 10.842 1.70024 11.0894 1.72055C11.8369 1.77641 12.5894 1.61391 13.3368 1.60376C13.5121 1.60376 13.6822 1.60884 13.8574 1.62407C14.0378 1.54791 14.2286 1.48697 14.4245 1.44635C14.5894 1.4108 14.7595 1.38542 14.9296 1.37018C15.0997 1.35495 15.2698 1.35496 15.4399 1.36003C16.1306 1.39558 16.5584 1.7561 16.8007 2.26388C17.1409 2.95954 17.1357 3.93956 17.012 4.67584C17.012 4.68599 17.0069 4.69107 17.0069 4.70122C17.0224 4.91449 17.0275 5.12776 17.0223 5.34103C17.9038 5.05159 19.0172 4.90433 20.0223 5.06174C20.7542 5.17853 21.4346 5.45273 21.9192 5.95036C23.5171 7.57525 24.5377 8.33184 25.0067 8.71268C25.1562 8.83455 25.249 8.92087 25.3006 8.98689C25.3521 9.0529 25.3624 9.11383 25.3572 9.15953C25.3418 9.25093 25.249 9.44388 25.0944 9.71301C25.1047 9.71808 25.115 9.72825 25.1253 9.73841C25.1614 9.78918 25.2181 9.8501 25.2799 9.91612C25.4037 10.0481 25.5325 10.17 25.5325 10.17C25.5686 10.2005 25.5686 10.2563 25.5428 10.2919C25.5428 10.2919 25.3933 10.4899 25.1408 10.8301L25.7954 11.734C25.8212 11.7695 25.8212 11.8152 25.7902 11.8508C25.7902 11.8508 25.7438 11.9066 25.6562 12.0132C25.6614 12.0183 25.6665 12.0234 25.6717 12.0336C25.6975 12.0742 25.7645 12.1757 25.8006 12.2621C25.8315 12.3281 25.8315 12.3941 25.816 12.4347C25.7902 12.5058 25.7438 12.5769 25.682 12.648C25.5737 12.7851 25.4243 12.9273 25.3366 13.039L24.2233 14.4811C24.0429 14.7197 23.8521 14.9584 23.6614 15.192C23.213 15.7302 22.7439 16.2532 22.3006 16.7965C21.7181 17.5024 21.1357 18.2082 20.5584 18.9191C19.981 19.63 19.4038 20.3408 18.8316 21.0568C18.8007 21.0974 18.7336 21.1076 18.6924 21.072C18.6873 21.067 18.6873 21.067 18.6821 21.0619C18.3419 21.0314 18.0172 20.9603 17.6924 20.8689C17.2027 20.7268 16.7234 20.5236 16.2492 20.3307C15.6976 20.1022 15.1564 19.8737 14.6564 19.569C14.3214 19.3659 14.0069 19.1323 13.7131 18.848C13.1771 18.33 12.7338 17.7359 12.1977 17.2434C11.9709 17.0352 11.7338 16.8473 11.4606 16.6899C11.141 16.502 10.5225 16.4614 10.0998 16.3345C9.99154 16.304 9.89877 16.2685 9.82145 16.2278C9.79568 16.2278 9.76989 16.2227 9.74412 16.2024C9.69773 16.1618 8.86268 15.7048 8.05857 15.3849C7.67713 15.2326 7.30085 15.1056 7.02766 15.0752C6.81632 15.5423 6.5947 16.0146 6.37305 16.5071C6.07924 17.1469 5.67201 17.6547 5.16171 18.0508C4.65657 18.4367 4.05866 18.7109 3.37826 18.8835C3.1463 18.9444 2.9092 18.9902 2.67209 19.0206C2.43498 19.0511 2.19271 19.0714 1.9556 19.0714L1.6721 19.0663C1.65149 19.0663 1.62055 19.0765 1.59477 19.0765C1.56385 19.0816 1.53293 19.0816 1.51231 19.0765C1.46592 19.0714 1.43499 19.046 1.41438 19.0257C1.38345 18.9901 1.36283 18.9445 1.38345 18.8784C1.39376 18.8531 1.42466 18.8073 1.48652 18.7718C1.59476 18.7159 1.88344 18.6398 1.92983 18.6195C2.1257 18.5382 2.30611 18.4417 2.47621 18.325C2.62569 18.2183 2.76487 18.1015 2.89373 17.9644C2.88342 17.9695 2.86795 17.9746 2.85764 17.9746C2.80094 17.9949 2.73908 18.0152 2.68238 18.0304C2.43496 18.1066 2.18754 18.1472 1.94012 18.1625C1.6927 18.1777 1.44014 18.1574 1.18242 18.1066C1.12572 18.0965 0.852515 18.0406 0.754579 17.9847C0.682415 17.9492 0.656636 17.8933 0.651481 17.8578C0.646327 17.8121 0.656656 17.7816 0.67212 17.7512C0.687583 17.7258 0.713337 17.7004 0.749419 17.6902C0.770037 17.6801 0.800982 17.675 0.83191 17.675C0.847373 17.675 0.883448 17.675 0.888602 17.675L1.14117 17.5988C1.23911 17.5633 1.33705 17.5176 1.43498 17.4719C1.58447 17.4008 1.72362 17.3196 1.86795 17.2383C2.22877 17.0352 2.58961 16.8016 2.92466 16.5427C3.2597 16.2837 3.56896 15.9993 3.84215 15.6896C3.85246 15.6794 3.85761 15.6743 3.86792 15.6642C3.47617 15.7353 3.07927 15.781 2.67722 15.7708C2.43495 15.7657 2.22363 15.7302 2.01745 15.6794C1.71333 15.5982 1.43499 15.4712 1.1154 15.3088C1.10509 15.3037 1.09995 15.2986 1.08964 15.2935C1.05871 15.2681 1.04325 15.2275 1.05871 15.1869C1.06387 15.1513 1.05869 15.1005 1.069 15.0396C1.07415 15.0091 1.07417 14.9736 1.08448 14.9381C1.08963 14.9178 1.09993 14.8974 1.11024 14.8822C1.05354 14.8568 1.02263 14.8416 1.02263 14.8416C0.981389 14.8213 0.960747 14.7756 0.965901 14.735L1.08448 13.9276C1.08448 13.9225 1.08448 13.9225 1.08448 13.9174C0.945305 13.8565 0.857676 13.8159 0.857676 13.8159C0.811285 13.7956 0.790674 13.7499 0.800983 13.6991L0.955614 13.1558ZM0.434999 12.7648C0.981381 12.973 1.55353 13.0948 2.13084 13.1507C2.75454 13.2116 3.3834 13.1964 4.0071 13.1253C4.57926 13.0644 5.15142 12.9374 5.72357 12.8765C5.72873 12.8765 5.73903 12.8765 5.74418 12.8765C6.06376 12.3078 6.36788 11.734 6.67715 11.1754C7.03797 10.5305 7.4452 9.91104 7.82148 9.27124C7.91426 9.11383 8.00703 8.95642 8.09466 8.79393C8.28537 8.44864 8.48639 8.10842 8.69773 7.77328C9.18741 7.00146 9.71318 6.25503 10.2132 5.48321C10.7235 4.69615 11.2235 3.88369 11.8369 3.17788C12.2492 2.70057 12.7131 2.26895 13.2647 1.91858C13.3111 1.88811 13.3575 1.85766 13.409 1.83227C13.3832 1.83227 13.3626 1.83227 13.3368 1.83227C12.5843 1.8475 11.8266 2.01506 11.0688 1.96428C10.8111 1.94905 10.5534 1.91351 10.3008 1.86273C9.92454 1.79164 9.55339 1.69517 9.18226 1.59361C9.0637 1.56314 8.86269 1.48697 8.67712 1.44635C8.56888 1.42604 8.47095 1.40573 8.39879 1.4362C8.3524 1.45143 8.30083 1.51744 8.24929 1.58853C8.10496 1.78148 7.96065 2.05569 7.87817 2.16232C7.58436 2.54823 7.29571 2.93415 7.00705 3.32514C6.72355 3.71613 6.44004 4.10712 6.1617 4.50826C5.97613 4.77231 5.79059 5.03128 5.59987 5.29025C4.84731 6.32612 4.06895 7.34676 3.32669 8.38771C3.01227 8.82948 2.7133 9.26616 2.41949 9.71301C1.74424 10.7235 1.10509 11.7391 0.434999 12.7648ZM2.95558 11.2262C2.92466 11.2262 2.90402 11.2059 2.90402 11.1805C2.89886 11.1551 2.92465 11.1297 2.95042 11.1297C3.00197 11.1246 3.0535 11.1145 3.09989 11.1094C3.13598 11.1043 3.16691 11.1043 3.20299 11.1043C3.23392 11.1043 3.27 11.1043 3.30093 11.1094C3.35247 11.1145 3.39885 11.1246 3.4504 11.1297C3.47617 11.1297 3.4968 11.15 3.4968 11.1754C3.4968 11.2008 3.47617 11.2211 3.4504 11.2211C3.40916 11.2262 3.37309 11.2313 3.33185 11.2363C3.30608 11.2363 3.2803 11.2414 3.25452 11.2414C3.21329 11.2414 3.17722 11.2414 3.13598 11.2363C3.07412 11.2313 3.01744 11.2313 2.95558 11.2262ZM5.97614 11.3684C5.94521 11.3633 5.92974 11.3379 5.92974 11.3125C5.93489 11.2871 5.96069 11.2668 5.98646 11.2719C6.03801 11.2719 6.08954 11.277 6.13593 11.282C6.17201 11.2871 6.20294 11.2922 6.23387 11.2973C6.2648 11.3024 6.29572 11.3125 6.32665 11.3277C6.37304 11.343 6.41944 11.3684 6.46583 11.3887C6.4916 11.3988 6.50191 11.4242 6.49676 11.4445C6.48645 11.4699 6.46068 11.4801 6.44006 11.4699C6.40914 11.4648 6.37818 11.4598 6.34725 11.4547C6.31633 11.4496 6.2854 11.4445 6.25448 11.4395C6.21839 11.4293 6.18233 11.4191 6.14625 11.409C6.0844 11.3938 6.02769 11.3785 5.97614 11.3684ZM9.8575 3.14233C9.83173 3.13725 9.81113 3.11187 9.81113 3.08648C9.81628 3.06109 9.84205 3.04077 9.86782 3.04585C9.95545 3.05093 10.0431 3.05601 10.1307 3.06617C10.1874 3.07125 10.2493 3.0814 10.306 3.09155C10.3472 3.09663 10.3833 3.10679 10.4245 3.11695C10.4812 3.13218 10.5379 3.1525 10.5946 3.16773C10.6204 3.17281 10.6358 3.19818 10.6307 3.2185C10.6255 3.24389 10.5998 3.25912 10.5792 3.25404C10.5225 3.24389 10.4606 3.23881 10.4039 3.23373C10.3678 3.22865 10.3266 3.22357 10.2905 3.2185C10.2338 3.20834 10.1771 3.19819 10.1204 3.18803C10.0328 3.1728 9.94513 3.15757 9.8575 3.14233ZM6.60498 4.97034C6.57921 4.97034 6.55861 4.94495 6.55861 4.91956C6.56376 4.89417 6.58437 4.87386 6.61014 4.87386C6.69262 4.87386 6.78024 4.87894 6.86271 4.88401C6.91941 4.88909 6.97612 4.88911 7.03282 4.89926C7.0689 4.90434 7.10499 4.90941 7.14108 4.91956C7.19778 4.92972 7.24933 4.94496 7.30603 4.95511C7.3318 4.96019 7.34724 4.9805 7.34724 5.00589C7.34208 5.03128 7.32148 5.04651 7.29571 5.04651C7.23901 5.04651 7.1823 5.04652 7.13076 5.04144C7.09468 5.04144 7.05861 5.03636 7.01737 5.03636C6.96067 5.03128 6.90912 5.0262 6.85242 5.01604C6.76995 4.99573 6.68746 4.9805 6.60498 4.97034ZM9.34721 4.08681C9.32143 4.08173 9.30597 4.05127 9.31112 4.02588C9.32143 4.00049 9.34723 3.98525 9.373 3.99033C9.42455 4.00049 9.48125 4.01065 9.53279 4.02588C9.56888 4.03604 9.60494 4.04619 9.64102 4.05635C9.6771 4.07158 9.70804 4.08173 9.74412 4.10204C9.79566 4.12743 9.83691 4.15789 9.8833 4.18836C9.90907 4.19851 9.91422 4.2239 9.90391 4.24929C9.8936 4.2696 9.86267 4.27976 9.84206 4.2696C9.80597 4.25945 9.77504 4.24929 9.73896 4.23914C9.70288 4.22898 9.67195 4.21882 9.64102 4.20359C9.59978 4.18836 9.56371 4.17313 9.52248 4.15789C9.46578 4.13758 9.40906 4.1122 9.34721 4.08681ZM4.52255 11.2262C4.49678 11.2262 4.47102 11.2059 4.47102 11.1754C4.47102 11.1449 4.49162 11.1246 4.5174 11.1246C4.5844 11.1196 4.64626 11.1145 4.71327 11.1145C4.75451 11.1145 4.8009 11.1145 4.84213 11.1196C4.88337 11.1246 4.92976 11.1297 4.971 11.1348C5.03285 11.145 5.0947 11.1653 5.15655 11.1805C5.18233 11.1856 5.1978 11.2059 5.1978 11.2313C5.19265 11.2567 5.17204 11.2719 5.14627 11.2668C5.09472 11.2668 5.04316 11.2617 4.99676 11.2617C4.96068 11.2617 4.92975 11.2617 4.89883 11.2567C4.84728 11.2516 4.8009 11.2465 4.74936 11.2414C4.67204 11.2414 4.59987 11.2313 4.52255 11.2262ZM7.89362 5.09729C7.86269 5.09729 7.84209 5.0719 7.84725 5.04651C7.84725 5.02112 7.87301 4.99573 7.89878 5.00081C7.99156 5.00081 8.08436 4.99573 8.17715 4.99573C8.239 4.99573 8.30085 4.99573 8.3627 5.00081C8.40394 5.00589 8.44517 5.01096 8.48641 5.01604C8.54826 5.0262 8.61011 5.04144 8.67196 5.05667C8.69773 5.06175 8.7132 5.08205 8.70805 5.10744C8.70289 5.13283 8.68229 5.14806 8.65652 5.14299C8.5792 5.13791 8.50703 5.13791 8.42971 5.13284C8.37817 5.13284 8.3266 5.12775 8.28021 5.12267C8.22867 5.11759 8.17713 5.11252 8.13074 5.11252C8.04311 5.11252 7.96578 5.10744 7.89362 5.09729ZM5.56894 6.31089C5.54317 6.30581 5.52254 6.28549 5.52254 6.25503C5.52769 6.22964 5.5483 6.20933 5.57407 6.20933C5.64108 6.21441 5.7081 6.21441 5.77511 6.22456C5.8215 6.22964 5.86274 6.23472 5.90913 6.23979C5.95037 6.24487 5.99676 6.25502 6.03799 6.26518C6.09985 6.28041 6.16686 6.30072 6.22871 6.31596C6.25448 6.32103 6.26995 6.34135 6.2648 6.36674C6.25964 6.39213 6.23904 6.40736 6.21326 6.40229C6.16172 6.39721 6.10502 6.3972 6.05347 6.39212C6.01739 6.38704 5.9813 6.38705 5.95038 6.38197C5.89883 6.37182 5.84729 6.36166 5.79575 6.35151C5.71843 6.34135 5.64626 6.32612 5.56894 6.31089ZM9.35753 5.25978C9.33175 5.2547 9.31629 5.22424 9.32144 5.19885C9.33175 5.17346 9.35752 5.15822 9.38329 5.1633C9.42968 5.16838 9.47608 5.17853 9.51732 5.18868C9.54824 5.19376 9.57401 5.20392 9.60493 5.21915C9.62555 5.22931 9.64104 5.23438 9.66166 5.24962C9.68743 5.26485 9.71319 5.28516 9.73896 5.3004C9.75958 5.31055 9.76991 5.33594 9.7596 5.36133C9.74929 5.38164 9.71833 5.3918 9.69771 5.38164C9.67194 5.37657 9.65135 5.37149 9.62557 5.36641C9.5998 5.36133 9.57917 5.35625 9.5534 5.3461C9.52763 5.33594 9.50184 5.32579 9.47607 5.31563C9.43483 5.29532 9.39876 5.28009 9.35753 5.25978ZM7.87301 3.91923C7.84724 3.91923 7.82148 3.89892 7.82148 3.86845C7.82148 3.84307 7.84209 3.81769 7.87301 3.81769C7.95549 3.81261 8.03795 3.80245 8.12558 3.79737C8.18228 3.79229 8.23899 3.78722 8.29569 3.78722C8.33693 3.78722 8.37299 3.78721 8.40908 3.79229C8.46578 3.79737 8.52248 3.80245 8.57918 3.81261C8.60496 3.81261 8.62558 3.83799 8.62043 3.8583C8.62043 3.88369 8.59464 3.89894 8.56886 3.89894C8.50186 3.89894 8.42971 3.90909 8.3627 3.91417C8.31631 3.91925 8.26991 3.91923 8.22352 3.91923C8.17713 3.91923 8.13075 3.91923 8.07921 3.91923C8.01735 3.92431 7.94518 3.92431 7.87301 3.91923ZM6.37818 7.819C6.35241 7.81392 6.33181 7.78852 6.33697 7.76313C6.34212 7.73774 6.36789 7.71744 6.39366 7.72252C6.45551 7.7276 6.52253 7.72759 6.58954 7.73775C6.63077 7.74283 6.67201 7.74791 6.7184 7.75298C6.74417 7.75806 6.77508 7.76313 6.80086 7.77328C6.84209 7.78344 6.88336 7.79868 6.92459 7.80883C6.95037 7.81391 6.9658 7.83422 6.96065 7.85961C6.95549 7.885 6.92973 7.90024 6.90911 7.89516C6.86272 7.89516 6.82149 7.89516 6.78025 7.89008C6.74932 7.89008 6.72356 7.88501 6.69779 7.87993C6.6514 7.87485 6.61532 7.86469 6.56893 7.85453C6.50192 7.84437 6.44519 7.82915 6.37818 7.819ZM8.40395 6.82882C8.37817 6.81866 8.36785 6.7882 8.38331 6.76281C8.39362 6.73742 8.42455 6.72726 8.45032 6.74249C8.4864 6.75265 8.51734 6.76281 8.55342 6.77804C8.57404 6.78819 8.59981 6.79327 8.61527 6.8085C8.63073 6.81866 8.64105 6.82375 8.65652 6.8339C8.67713 6.84914 8.69259 6.86437 8.71321 6.8796C8.73383 6.88976 8.74412 6.92022 8.73381 6.94053C8.72351 6.96084 8.69258 6.971 8.67196 6.96085C8.64619 6.95577 8.62557 6.95069 8.60495 6.94561C8.58949 6.94054 8.57404 6.93546 8.55858 6.93038C8.53796 6.92023 8.51734 6.91007 8.49673 6.89483C8.46064 6.86944 8.43487 6.84913 8.40395 6.82882ZM8.70289 2.99509C8.67712 2.99001 8.65652 2.96461 8.66167 2.93922C8.66683 2.91383 8.69259 2.89353 8.71837 2.89861C8.78538 2.90369 8.85239 2.90875 8.9194 2.91891C8.96579 2.92399 9.007 2.92907 9.05339 2.93922C9.09978 2.94938 9.14103 2.95953 9.18742 2.96969C9.25443 2.99 9.31628 3.01031 9.38329 3.03062C9.40907 3.0357 9.42453 3.06109 9.41938 3.0814C9.41422 3.10679 9.38846 3.12203 9.36785 3.11695C9.3163 3.11187 9.2596 3.10679 9.20806 3.09663C9.17197 3.09156 9.13588 3.08648 9.0998 3.0814C9.04825 3.07125 8.99671 3.06109 8.94517 3.04585C8.85754 3.03062 8.78021 3.01032 8.70289 2.99509ZM6.92972 6.48353C6.90395 6.47846 6.88335 6.45307 6.88851 6.4226C6.89366 6.39721 6.92459 6.38198 6.95036 6.38705C7.01737 6.39721 7.08435 6.40228 7.15136 6.41244C7.19775 6.41751 7.24415 6.42768 7.28539 6.43783C7.31631 6.44291 7.34726 6.45306 7.37304 6.46322C7.41943 6.47845 7.46064 6.49369 7.50703 6.514C7.5328 6.51908 7.54311 6.54446 7.53796 6.56985C7.52765 6.59524 7.50188 6.60539 7.48126 6.60031C7.42456 6.59016 7.36786 6.58509 7.31631 6.57493C7.28023 6.56985 7.24417 6.56477 7.20809 6.55461C7.17201 6.54446 7.13591 6.53939 7.09467 6.52923C7.03797 6.51908 6.98127 6.50384 6.92972 6.48353ZM3.66175 9.81964C3.63598 9.81456 3.61535 9.79425 3.61535 9.76379C3.6205 9.7384 3.64111 9.71809 3.67204 9.71809C3.73905 9.72317 3.80091 9.72316 3.86792 9.72824C3.91431 9.73332 3.95554 9.73839 3.99678 9.74347C4.02771 9.74855 4.0535 9.75363 4.07927 9.76379C4.12566 9.77394 4.16174 9.78918 4.20813 9.79934C4.23391 9.80441 4.24938 9.82473 4.24938 9.85012C4.24423 9.87551 4.22359 9.89073 4.19782 9.88565C4.15142 9.88565 4.11019 9.88566 4.06895 9.88058C4.03802 9.88058 4.01226 9.8755 3.98133 9.8755C3.93494 9.87042 3.89371 9.86534 3.85247 9.85518C3.78546 9.84503 3.72361 9.82979 3.66175 9.81964ZM5.04833 7.69205C5.02256 7.69205 5.00192 7.66666 5.00192 7.64127C5.00192 7.61588 5.02772 7.59557 5.05349 7.59557C5.10503 7.59557 5.15141 7.59557 5.20296 7.59557C5.23389 7.59557 5.26482 7.60064 5.3009 7.60064C5.33182 7.60572 5.36275 7.6108 5.39884 7.61587C5.44523 7.62603 5.4916 7.64127 5.54315 7.6565C5.56892 7.66158 5.58439 7.6819 5.57923 7.70728C5.57408 7.73267 5.55347 7.7479 5.5277 7.7479C5.48646 7.7479 5.45039 7.7479 5.40915 7.7479C5.38338 7.7479 5.3576 7.7479 5.33182 7.74282C5.29059 7.73774 5.25449 7.73266 5.21841 7.72758C5.16171 7.71235 5.10503 7.70221 5.04833 7.69205ZM5.92974 9.06305C5.90396 9.06305 5.87821 9.03766 5.88336 9.01227C5.88336 8.98688 5.90912 8.96657 5.9349 8.96657C6.00706 8.96657 6.08438 8.97166 6.15654 8.97674C6.20293 8.98181 6.25449 8.98689 6.30088 8.99197C6.35243 8.99705 6.3988 9.0072 6.44519 9.02243C6.51736 9.04274 6.58954 9.06306 6.65655 9.08845C6.68232 9.09352 6.69778 9.11891 6.68747 9.1443C6.68232 9.16968 6.65653 9.18492 6.63591 9.17476C6.57921 9.16461 6.52253 9.15952 6.46583 9.15445C6.42459 9.14937 6.3885 9.14429 6.35241 9.13921C6.29571 9.12906 6.23904 9.1189 6.18234 9.10875C6.09986 9.08844 6.01221 9.0732 5.92974 9.06305ZM7.67714 8.04749C7.65137 8.03733 7.64106 8.00686 7.65137 7.98147C7.66168 7.95609 7.69261 7.94594 7.71322 7.95609C7.75961 7.97133 7.81118 7.98656 7.85757 8.00179C7.88849 8.01195 7.91942 8.02718 7.95034 8.03734C7.98127 8.05257 8.01219 8.0678 8.03796 8.08304C8.08435 8.10843 8.12044 8.13888 8.16683 8.16935C8.18744 8.17951 8.19774 8.20999 8.18743 8.2303C8.17712 8.25061 8.1462 8.26075 8.12558 8.2506C8.08435 8.23536 8.04828 8.22522 8.0122 8.20998C7.98642 8.19983 7.9658 8.18967 7.94003 8.17952C7.90394 8.16428 7.86786 8.14397 7.83693 8.12874C7.78538 8.10335 7.73384 8.07288 7.67714 8.04749ZM5.05862 10.0024C5.02769 9.99737 5.01224 9.97197 5.01224 9.94658C5.0174 9.92119 5.04316 9.90089 5.06894 9.90597C5.13595 9.91104 5.20812 9.91104 5.27513 9.9212C5.32152 9.92628 5.36789 9.93136 5.41428 9.94151C5.44521 9.94659 5.47616 9.95674 5.50193 9.9669C5.54832 9.98213 5.58956 9.99737 5.63596 10.0177C5.66173 10.0228 5.67204 10.0481 5.66688 10.0735C5.66173 10.0989 5.63594 10.1091 5.61532 10.104C5.56893 10.0989 5.52253 10.0938 5.48129 10.0888C5.45037 10.0837 5.4246 10.0837 5.39368 10.0786C5.34728 10.0685 5.30604 10.0634 5.25965 10.0532C5.19264 10.0329 5.12563 10.0177 5.05862 10.0024ZM4.26999 8.97165C4.24421 8.97165 4.21843 8.94626 4.22358 8.92087C4.22358 8.89548 4.24937 8.87517 4.27515 8.87517C4.32669 8.87517 4.3834 8.87517 4.4401 8.87517C4.47618 8.87517 4.51224 8.87518 4.54832 8.88026C4.5844 8.88533 4.6205 8.88533 4.65658 8.89041C4.70812 8.89548 4.76482 8.91071 4.81637 8.91579C4.84214 8.91579 4.86277 8.93611 4.86277 8.9615C4.86277 8.98689 4.84214 9.0072 4.81637 9.0072C4.76998 9.01228 4.72874 9.01735 4.68234 9.01735C4.65142 9.01735 4.62565 9.01735 4.59473 9.01735C4.54834 9.01735 4.50709 9.0072 4.4607 9.00212C4.39885 8.99196 4.337 8.97673 4.26999 8.97165ZM6.65655 10.2563C6.63077 10.2513 6.61015 10.2208 6.62046 10.1954C6.62562 10.17 6.65654 10.1548 6.68231 10.1599C6.7184 10.1649 6.75449 10.1649 6.79057 10.17C6.81119 10.1751 6.83696 10.1802 6.85758 10.1852C6.87305 10.1903 6.88849 10.1954 6.8988 10.2056C6.91941 10.2157 6.94003 10.2309 6.96065 10.2411C6.98642 10.2462 6.99673 10.2716 6.99157 10.297C6.98126 10.3223 6.9555 10.3325 6.93488 10.3274C6.90911 10.3274 6.88849 10.3274 6.86787 10.3223C6.85241 10.3223 6.83696 10.3173 6.8215 10.3173C6.80088 10.3122 6.78026 10.302 6.75964 10.297C6.71841 10.2817 6.69263 10.2665 6.65655 10.2563ZM7.39364 9.29156C7.36787 9.28648 7.3524 9.25601 7.35756 9.23063C7.36271 9.20524 7.39364 9.19 7.41941 9.19508C7.43487 9.19508 7.45035 9.18999 7.46582 9.18999C7.47612 9.18999 7.48643 9.19 7.49674 9.19508C7.50705 9.20015 7.51219 9.20015 7.51735 9.20523C7.52766 9.21538 7.53796 9.22047 7.54311 9.23063C7.56889 9.24078 7.5792 9.26616 7.57404 9.28647C7.56373 9.31186 7.53797 9.32202 7.51735 9.31694C7.50704 9.31694 7.50189 9.32202 7.49158 9.32202C7.48127 9.32202 7.47612 9.3271 7.46582 9.32202C7.45551 9.32202 7.4452 9.31693 7.43489 9.31186C7.42458 9.30678 7.40911 9.30171 7.39364 9.29156ZM10.1926 15.1056C10.2132 15.1209 10.2338 15.1412 10.2493 15.1564C11.3626 14.6436 12.2286 14.5166 13.0018 14.7045C13.8059 14.9025 14.5172 15.4458 15.3162 16.2684C15.8265 16.7915 16.3213 17.2028 16.7698 17.5227C17.5275 18.066 18.1254 18.3351 18.3471 18.4214C18.5945 18.0965 19.5996 16.7915 20.7646 15.2529C21.5687 14.1916 22.4501 13.0187 23.2026 11.9777C23.8779 11.0485 24.4552 10.2259 24.7954 9.68762C24.9604 9.42358 25.0686 9.23062 25.0944 9.13415C25.0841 9.11891 25.048 9.0732 25.0119 9.04273C24.7851 8.83454 24.2594 8.45372 23.4192 7.70728C22.9604 7.29598 22.3985 6.77297 21.7491 6.1027C21.3006 5.64062 20.6666 5.38164 19.9811 5.26993C18.9708 5.10744 17.8471 5.25978 16.9811 5.55937C16.9553 5.56953 16.9296 5.56444 16.9038 5.55429C16.7028 5.8488 16.1048 6.70695 15.3471 7.7936C15.0069 8.28107 14.6409 8.80917 14.2544 9.35757C13.7131 10.1294 13.141 10.9368 12.6049 11.6984C11.4554 13.3284 10.4554 14.74 10.1926 15.1056ZM15.9657 16.0806C15.945 16.0603 15.9502 16.0298 15.9708 16.0095C15.9914 15.9892 16.0224 15.9942 16.0378 16.0146C16.0739 16.0501 16.11 16.0806 16.1461 16.1161C16.1718 16.1364 16.1925 16.1618 16.2131 16.1872C16.2337 16.2126 16.2543 16.2329 16.2749 16.2583C16.3059 16.2938 16.3316 16.3345 16.3626 16.37C16.3832 16.3852 16.3832 16.4157 16.3677 16.4309C16.3522 16.4513 16.3213 16.4512 16.3059 16.436C16.2698 16.4157 16.2388 16.3903 16.2079 16.3649C16.1873 16.3497 16.1667 16.3294 16.1461 16.3091C16.1203 16.2786 16.0945 16.2481 16.0688 16.2177C16.0378 16.177 16.0017 16.1314 15.9657 16.0806ZM17.1254 6.4226C17.0997 6.4226 17.0739 6.40228 17.0739 6.37689C17.0739 6.3515 17.0945 6.32612 17.1203 6.32612C17.1667 6.32104 17.2079 6.31088 17.2543 6.30581C17.2852 6.30073 17.311 6.30073 17.3419 6.29566C17.3729 6.29566 17.4038 6.29566 17.4347 6.29566C17.4811 6.29566 17.5223 6.30581 17.5687 6.30581C17.5945 6.30581 17.6151 6.32103 17.6203 6.34642C17.6254 6.37181 17.6048 6.39212 17.579 6.39212C17.543 6.40228 17.5069 6.40736 17.4708 6.41244C17.445 6.41751 17.4244 6.41752 17.3986 6.4226C17.3625 6.4226 17.3265 6.4226 17.2904 6.4226C17.2337 6.43276 17.177 6.42768 17.1254 6.4226ZM18.244 6.43275C18.2182 6.42767 18.1976 6.40228 18.2027 6.37689C18.2079 6.3515 18.2337 6.33119 18.2594 6.33627C18.3419 6.34643 18.4244 6.35658 18.512 6.36674C18.5687 6.37689 18.6254 6.38705 18.677 6.40229C18.7337 6.41752 18.7852 6.43276 18.8419 6.45307C18.9244 6.48353 19.0017 6.51907 19.0738 6.5597C19.0996 6.56985 19.11 6.59523 19.0996 6.61555C19.0893 6.63586 19.0635 6.6511 19.0429 6.64094C18.9965 6.62571 18.9502 6.61555 18.9038 6.60031C18.8574 6.59016 18.811 6.57494 18.7646 6.56478C18.7285 6.55462 18.6924 6.54445 18.6512 6.5343C18.5945 6.51907 18.5378 6.50383 18.4862 6.4886C18.4038 6.46829 18.3213 6.45306 18.244 6.43275ZM16.512 7.39753C16.4863 7.39245 16.4656 7.37215 16.4656 7.34168C16.4708 7.31629 16.4966 7.29597 16.5224 7.30105C16.5533 7.30105 16.5842 7.29597 16.6151 7.29597C16.6358 7.29597 16.6564 7.29597 16.6718 7.30105C16.6873 7.30105 16.6976 7.30614 16.7131 7.31122C16.7337 7.3163 16.7492 7.32644 16.7698 7.3366C16.7955 7.34168 16.811 7.36199 16.8059 7.38738C16.8007 7.41277 16.7801 7.42799 16.7543 7.42291C16.7337 7.42291 16.7131 7.428 16.6924 7.43308C16.677 7.43308 16.6667 7.43308 16.6512 7.43308C16.6306 7.43308 16.61 7.42799 16.5945 7.42291C16.5687 7.41276 16.543 7.40261 16.512 7.39753ZM19.9038 7.01161C19.878 6.99638 19.8728 6.96593 19.8883 6.94561C19.9037 6.92023 19.9347 6.91515 19.9553 6.93038C20.0068 6.95577 20.0532 6.98115 20.1048 7.01161C20.1357 7.03192 20.1666 7.04717 20.2027 7.06748C20.2336 7.08779 20.2645 7.1081 20.2955 7.12841C20.3419 7.15887 20.3831 7.19443 20.4295 7.22997C20.4501 7.24013 20.4604 7.27059 20.445 7.2909C20.4347 7.31121 20.4037 7.32137 20.3831 7.30613C20.3419 7.2909 20.3007 7.27058 20.2594 7.25027C20.2285 7.23504 20.2079 7.22489 20.1769 7.20965C20.1357 7.18934 20.0996 7.16396 20.0635 7.13349C20.0068 7.09287 19.9553 7.05224 19.9038 7.01161ZM17.4914 7.57526C17.4657 7.5651 17.4502 7.53971 17.4605 7.51433C17.4708 7.48894 17.4966 7.4737 17.5224 7.48386C17.5636 7.48894 17.5945 7.49909 17.6306 7.50924C17.6563 7.51432 17.677 7.52447 17.7027 7.53463C17.7234 7.54478 17.7491 7.55494 17.7698 7.57017C17.8007 7.59049 17.8265 7.61588 17.8574 7.63619C17.878 7.64634 17.8883 7.67681 17.8729 7.69712C17.8625 7.71743 17.8316 7.72759 17.811 7.71235C17.7852 7.70727 17.7646 7.69713 17.744 7.69205C17.7234 7.68697 17.6976 7.67681 17.677 7.66665C17.6512 7.6565 17.6306 7.64126 17.6048 7.63111C17.5687 7.61079 17.5327 7.59049 17.4914 7.57526ZM21.8006 8.46387C21.7852 8.44356 21.7903 8.41309 21.8109 8.39278C21.8315 8.37754 21.8625 8.38263 21.8779 8.40294C21.9243 8.45372 21.9707 8.49942 22.0171 8.54512C22.048 8.57559 22.079 8.60605 22.1099 8.6416C22.1357 8.66699 22.1563 8.69746 22.1821 8.72285C22.2078 8.74823 22.2285 8.77869 22.2542 8.80408C22.2748 8.81931 22.2748 8.84979 22.2594 8.86502C22.2439 8.88533 22.213 8.88532 22.1975 8.87009C22.1511 8.83962 22.1047 8.80409 22.0583 8.76854C22.0274 8.74315 22.0016 8.71776 21.9759 8.6873C21.9501 8.65683 21.9243 8.63143 21.9037 8.60097C21.8676 8.56034 21.8367 8.51465 21.8006 8.46387ZM22.7954 9.30679C22.7748 9.29156 22.7697 9.256 22.7903 9.23569C22.8109 9.21538 22.8418 9.21031 22.8625 9.23063C22.914 9.26617 22.9707 9.30679 23.0274 9.34234C23.0686 9.36773 23.1047 9.38803 23.146 9.41342C23.1717 9.42865 23.1975 9.44389 23.2233 9.4642C23.2542 9.48451 23.2851 9.50482 23.3212 9.52513C23.3573 9.54544 23.3882 9.56575 23.4192 9.58606C23.4449 9.59622 23.4552 9.62161 23.4449 9.64193C23.4346 9.66224 23.4088 9.67746 23.3882 9.66731C23.3212 9.647 23.2542 9.62161 23.1924 9.59114C23.1511 9.57083 23.1099 9.55052 23.0686 9.52513C23.0274 9.49974 22.9965 9.47435 22.9552 9.44388C22.8985 9.39818 22.847 9.35249 22.7954 9.30679ZM21.5996 10.3782C21.579 10.363 21.5738 10.3274 21.5944 10.3071C21.6099 10.2868 21.646 10.2817 21.6614 10.302C21.7388 10.3579 21.8212 10.4087 21.9037 10.4544C21.9398 10.4747 21.9759 10.4899 22.0119 10.5102C22.0274 10.5204 22.0429 10.5255 22.0583 10.5356C22.0944 10.5559 22.1305 10.5762 22.1717 10.5915C22.213 10.6118 22.2491 10.627 22.2903 10.6423C22.3161 10.6473 22.3264 10.6727 22.3212 10.6981C22.3161 10.7235 22.2903 10.7336 22.2645 10.7286C22.1872 10.7133 22.115 10.6981 22.0429 10.6676C21.9913 10.6473 21.9501 10.627 21.9037 10.6016C21.8573 10.5762 21.8161 10.5508 21.7749 10.5204C21.713 10.4798 21.6563 10.429 21.5996 10.3782ZM20.9398 7.59557C20.9243 7.57526 20.9295 7.54479 20.9501 7.52448C20.9707 7.50924 21.0017 7.51431 21.0223 7.53463C21.0687 7.5854 21.1099 7.63111 21.1563 7.68189C21.1872 7.71743 21.2181 7.7479 21.2439 7.78345C21.2645 7.80884 21.28 7.82914 21.2955 7.85453C21.3212 7.89007 21.347 7.92562 21.3728 7.96624C21.3882 7.98655 21.3882 8.01194 21.3676 8.02717C21.347 8.04241 21.3212 8.04242 21.3058 8.02211C21.2697 7.99164 21.2388 7.96116 21.2027 7.93069C21.1821 7.91038 21.1563 7.89008 21.1408 7.8647C21.1099 7.82915 21.0841 7.7936 21.0584 7.75805C21.0171 7.70727 20.981 7.65143 20.9398 7.59557ZM15.3884 8.87009C15.3626 8.85993 15.3471 8.83455 15.3523 8.80916C15.3626 8.78377 15.3884 8.76854 15.4141 8.77869C15.4657 8.78885 15.512 8.799 15.5636 8.80916C15.5945 8.81931 15.6254 8.82439 15.6564 8.83962C15.677 8.84978 15.6976 8.85487 15.7183 8.86502C15.7492 8.88026 15.7749 8.89549 15.8059 8.91072C15.8316 8.92088 15.842 8.94626 15.8368 8.96657C15.8265 8.99196 15.8007 9.00212 15.7801 8.99197C15.744 8.98689 15.7131 8.98181 15.6822 8.97674C15.6616 8.97166 15.6409 8.96658 15.6203 8.9615C15.5894 8.95135 15.5584 8.94119 15.5275 8.92595C15.476 8.91072 15.4347 8.8904 15.3884 8.87009ZM18.5223 7.99164C18.4966 7.98148 18.4862 7.95102 18.5017 7.92563C18.512 7.90024 18.5429 7.89008 18.5687 7.90531C18.6306 7.93578 18.6976 7.96117 18.7594 7.99164C18.8007 8.01195 18.8419 8.03226 18.8831 8.05257C18.9089 8.0678 18.9347 8.08304 18.9605 8.10335C19.0017 8.12874 19.0378 8.15412 19.0738 8.18458C19.0945 8.19474 19.1048 8.22522 19.0945 8.24553C19.0842 8.26584 19.0532 8.27599 19.0326 8.26583C18.9862 8.2506 18.945 8.23538 18.9038 8.21507C18.8728 8.20491 18.847 8.18967 18.8213 8.17443C18.78 8.15412 18.7388 8.12873 18.6976 8.10842C18.6409 8.06272 18.5842 8.02718 18.5223 7.99164ZM19.5739 13.9733C19.5481 13.9631 19.5326 13.9327 19.5429 13.9073C19.5532 13.8819 19.5842 13.8717 19.6099 13.8819C19.6821 13.9073 19.7594 13.9225 19.8316 13.9428C19.8831 13.9581 19.9295 13.9682 19.9811 13.9834C20.0171 13.9936 20.0481 14.0038 20.079 14.019C20.1305 14.0393 20.1769 14.0596 20.2285 14.0799C20.2543 14.085 20.2697 14.1104 20.2594 14.1358C20.2543 14.1612 20.2285 14.1713 20.2027 14.1662C20.1408 14.1561 20.0738 14.1459 20.0068 14.1307C19.9656 14.1205 19.9243 14.1104 19.878 14.0952C19.8316 14.0799 19.7955 14.0647 19.7542 14.0495C19.6975 14.0291 19.6357 14.0038 19.5739 13.9733ZM16.4193 9.13921C16.3935 9.12906 16.378 9.10367 16.3883 9.07828C16.3987 9.05289 16.4296 9.03766 16.4502 9.04782C16.5172 9.06813 16.5842 9.08844 16.6512 9.10875C16.6976 9.12398 16.7388 9.13414 16.7852 9.14938C16.8316 9.16461 16.8728 9.17984 16.9141 9.19508C16.9759 9.22047 17.043 9.25093 17.1048 9.27632C17.1306 9.2814 17.1409 9.30678 17.1358 9.33217C17.1306 9.35756 17.1048 9.36771 17.079 9.36264C17.0223 9.35248 16.9708 9.34232 16.9141 9.32709C16.878 9.31693 16.8419 9.30678 16.8059 9.29662C16.7543 9.28139 16.7028 9.26109 16.6512 9.24078C16.5688 9.20523 16.4914 9.16968 16.4193 9.13921ZM20.6563 9.4388C20.6408 9.41341 20.6512 9.38296 20.6769 9.3728C20.7027 9.35757 20.7285 9.36772 20.7439 9.38804C20.7697 9.4185 20.7903 9.44897 20.8109 9.48452C20.8419 9.52006 20.8676 9.5556 20.8986 9.59114C20.9192 9.61653 20.9398 9.63684 20.9553 9.66223C20.981 9.69269 21.0017 9.72317 21.0274 9.75364C21.0532 9.7841 21.0738 9.81457 21.0996 9.84503C21.1151 9.86027 21.1202 9.89073 21.0996 9.90597C21.079 9.92628 21.0532 9.92628 21.0377 9.90597C20.9862 9.87042 20.9398 9.82979 20.8934 9.78917C20.8625 9.7587 20.8367 9.72824 20.8109 9.69777C20.7852 9.66731 20.7646 9.63177 20.7439 9.59623C20.713 9.55053 20.6821 9.49466 20.6563 9.4388ZM17.9656 9.71301C17.945 9.6927 17.945 9.66224 17.9605 9.64193C17.9811 9.62161 18.012 9.62161 18.0326 9.63684C18.0842 9.67747 18.1409 9.71809 18.1924 9.76379C18.2285 9.79425 18.2594 9.82472 18.2904 9.86027C18.311 9.88058 18.3316 9.90596 18.3471 9.93135C18.3728 9.96689 18.3986 10.0075 18.4244 10.0431C18.4399 10.0634 18.4399 10.0888 18.4192 10.104C18.3986 10.1192 18.3728 10.1192 18.3574 10.0989C18.3213 10.0685 18.2904 10.038 18.2594 10.0126C18.2337 9.99228 18.2131 9.97198 18.1924 9.95166C18.1615 9.9212 18.1306 9.88565 18.0997 9.85518C18.0533 9.80948 18.012 9.75871 17.9656 9.71301ZM19.7491 8.62128C19.7285 8.60097 19.7285 8.5705 19.7491 8.55019C19.7697 8.52987 19.8006 8.52987 19.8213 8.55019C19.8831 8.60096 19.945 8.65176 20.0017 8.70761C20.0429 8.74316 20.079 8.77869 20.1151 8.81931C20.1408 8.8447 20.1615 8.87009 20.1821 8.90056C20.2182 8.94118 20.2491 8.98688 20.28 9.0275C20.2955 9.04781 20.2955 9.07321 20.28 9.08845C20.2594 9.10368 20.2336 9.10368 20.2182 9.08336C20.1769 9.04782 20.1357 9.01227 20.0996 8.9818C20.0739 8.95641 20.0481 8.93611 20.0223 8.91072C19.9862 8.87518 19.9501 8.83455 19.914 8.79901C19.8522 8.73808 19.8058 8.67714 19.7491 8.62128ZM19.8831 11.4395C19.8676 11.4191 19.8728 11.3887 19.8934 11.3684C19.9192 11.3531 19.945 11.3582 19.9656 11.3785C19.9862 11.4039 20.012 11.4293 20.0326 11.4496C20.0635 11.475 20.0893 11.5004 20.1202 11.5258C20.1409 11.541 20.1615 11.5613 20.1821 11.5766C20.2027 11.5969 20.2233 11.6121 20.2388 11.6324C20.2697 11.6629 20.2955 11.6933 20.3264 11.7238C20.347 11.739 20.3522 11.7695 20.3316 11.7848C20.3161 11.8051 20.2852 11.8051 20.2697 11.7898C20.2233 11.7644 20.1769 11.739 20.1357 11.7086C20.1048 11.6883 20.079 11.668 20.0532 11.6426C20.0274 11.6172 20.0017 11.5918 19.9811 11.5664C19.945 11.5359 19.914 11.4902 19.8831 11.4395ZM13.9863 10.6067C13.9554 10.6067 13.9348 10.5864 13.9348 10.561C13.9348 10.5356 13.9554 10.5102 13.9811 10.5102C14.0378 10.5001 14.0946 10.4899 14.1513 10.4848C14.1925 10.4798 14.2286 10.4798 14.2647 10.4798C14.2904 10.4798 14.3162 10.4798 14.342 10.4848C14.3832 10.4899 14.4193 10.5001 14.4554 10.5051C14.4812 10.5051 14.5018 10.5305 14.4966 10.5508C14.4914 10.5762 14.4708 10.5915 14.4502 10.5915C14.4038 10.5915 14.3574 10.6016 14.311 10.6067C14.2801 10.6067 14.2492 10.6118 14.2183 10.6118C14.1873 10.6118 14.1564 10.6118 14.1255 10.6118C14.0791 10.6067 14.0275 10.6067 13.9863 10.6067ZM18.8007 10.4442C18.7852 10.4188 18.7903 10.3884 18.8161 10.3782C18.8419 10.363 18.8677 10.3731 18.8831 10.3934C18.9295 10.4544 18.9759 10.5153 19.0223 10.5712C19.0584 10.6118 19.0893 10.6524 19.1254 10.693C19.1512 10.7184 19.1718 10.7489 19.1924 10.7743C19.2233 10.8098 19.2491 10.8403 19.2749 10.8758C19.3058 10.9114 19.3316 10.9418 19.3625 10.9774C19.3831 10.9926 19.3831 11.0231 19.3625 11.0383C19.347 11.0586 19.3161 11.0586 19.3006 11.0383C19.2388 10.9875 19.1769 10.9418 19.1202 10.886C19.0842 10.8504 19.0481 10.8098 19.012 10.7692C18.9759 10.7286 18.9501 10.688 18.9192 10.6423C18.878 10.5813 18.8368 10.5153 18.8007 10.4442ZM14.9399 10.6676C14.9141 10.6626 14.8935 10.6372 14.8987 10.6118C14.9038 10.5864 14.9296 10.5661 14.9554 10.5712C15.0585 10.5864 15.1564 10.6016 15.2543 10.627C15.3213 10.6423 15.3832 10.6626 15.4502 10.6829C15.5121 10.7032 15.5791 10.7286 15.6358 10.759C15.7285 10.7997 15.811 10.8555 15.8987 10.9063C15.9193 10.9164 15.9296 10.9469 15.9141 10.9672C15.9038 10.9875 15.8729 10.9977 15.8522 10.9825C15.7904 10.952 15.7234 10.9266 15.6564 10.9012C15.6151 10.886 15.5687 10.8657 15.5275 10.8504C15.5069 10.8403 15.4811 10.8352 15.4605 10.825C15.409 10.8047 15.3574 10.7895 15.311 10.7692C15.1873 10.7337 15.0688 10.6981 14.9399 10.6676ZM20.9501 12.2062C20.9243 12.2011 20.9037 12.1757 20.914 12.1453C20.9192 12.1199 20.945 12.0996 20.9707 12.1097C21.0326 12.1199 21.0944 12.125 21.1563 12.1351C21.1975 12.1402 21.2388 12.1453 21.28 12.1504C21.3212 12.1554 21.3573 12.1656 21.3986 12.1707C21.4553 12.1808 21.5171 12.196 21.579 12.2011C21.6048 12.2011 21.6254 12.2214 21.6254 12.2468C21.6254 12.2722 21.6048 12.2925 21.579 12.2925C21.5274 12.2976 21.4759 12.2976 21.4243 12.2976C21.3882 12.2976 21.3573 12.2976 21.3213 12.2925C21.2697 12.2875 21.2233 12.2773 21.1718 12.2621C21.0944 12.2468 21.0223 12.2265 20.9501 12.2062ZM19.0223 15.1006C18.9965 15.0955 18.9759 15.0701 18.9862 15.0396C18.9914 15.0142 19.0171 14.9939 19.0429 15.0041C19.0893 15.0092 19.1357 15.0142 19.1821 15.0193C19.213 15.0244 19.2439 15.0295 19.2697 15.0345C19.2903 15.0396 19.311 15.0447 19.3264 15.0498C19.3574 15.0599 19.3831 15.0701 19.4141 15.0802C19.4398 15.0853 19.4553 15.1056 19.4501 15.131C19.445 15.1564 19.4244 15.1716 19.3986 15.1666C19.3677 15.1666 19.3367 15.1666 19.3058 15.1666C19.2852 15.1666 19.2646 15.1666 19.244 15.1615C19.213 15.1564 19.1821 15.1513 19.1512 15.1412C19.1099 15.131 19.0687 15.1107 19.0223 15.1006ZM18.5945 13.2065C18.5739 13.1862 18.5739 13.1558 18.5945 13.1354C18.6151 13.1151 18.646 13.1151 18.6615 13.1354C18.7182 13.1862 18.7749 13.2319 18.8316 13.2827C18.8728 13.3182 18.9089 13.3487 18.945 13.3843C18.9708 13.4097 18.9914 13.43 19.0172 13.4553C19.0532 13.4909 19.0842 13.5264 19.1202 13.562C19.1409 13.5772 19.1409 13.6077 19.1254 13.6229C19.1099 13.6432 19.079 13.6432 19.0636 13.628C19.0172 13.5975 18.9759 13.5721 18.9347 13.5417C18.9089 13.5214 18.8831 13.501 18.8574 13.4757C18.8161 13.4401 18.78 13.4046 18.7491 13.369C18.6924 13.3233 18.646 13.2675 18.5945 13.2065ZM17.4863 12.2062C17.4708 12.1859 17.4759 12.1554 17.5017 12.1402C17.5223 12.125 17.5533 12.13 17.5687 12.1554C17.6203 12.2214 17.6666 12.2824 17.7182 12.3484C17.7543 12.3941 17.7904 12.4347 17.8265 12.4804C17.8522 12.5109 17.8729 12.5363 17.8986 12.5667C17.9296 12.6023 17.9553 12.6378 17.9862 12.6784C18.0172 12.714 18.0429 12.7495 18.079 12.7851C18.0945 12.8003 18.0945 12.8308 18.079 12.846C18.0636 12.8612 18.0326 12.8663 18.0172 12.846C17.9656 12.8054 17.9141 12.7597 17.8677 12.714C17.8368 12.6835 17.8058 12.6531 17.7749 12.6175C17.7337 12.5667 17.6925 12.516 17.6512 12.4601C17.5894 12.3789 17.5378 12.2925 17.4863 12.2062ZM13.3265 12.0132C13.2956 12.0132 13.275 11.9879 13.2801 11.9625C13.2801 11.9371 13.3059 11.9168 13.3317 11.9168C13.3936 11.9168 13.4554 11.9168 13.5121 11.9168C13.5533 11.9168 13.5946 11.9168 13.6358 11.9219C13.677 11.9269 13.7183 11.932 13.7595 11.9422C13.8162 11.9523 13.8781 11.9726 13.9348 11.9879C13.9605 11.9929 13.976 12.0133 13.9709 12.0386C13.9657 12.064 13.9451 12.0793 13.9193 12.0742C13.8729 12.0742 13.8214 12.0691 13.775 12.0691C13.7441 12.0691 13.7131 12.064 13.6822 12.064C13.6307 12.059 13.5894 12.0539 13.5379 12.0437C13.4709 12.0336 13.3987 12.0234 13.3265 12.0132ZM12.3781 13.0948C12.3523 13.0948 12.3266 13.0745 12.3266 13.044C12.3266 13.0187 12.3472 12.9933 12.3781 12.9933C12.4451 12.9882 12.5121 12.9831 12.5791 12.978C12.6255 12.978 12.6719 12.973 12.7131 12.978C12.7441 12.978 12.775 12.9831 12.8059 12.9882C12.8523 12.9933 12.8936 13.0034 12.9399 13.0085C12.9657 13.0085 12.9863 13.0288 12.9863 13.0542C12.9863 13.0796 12.9657 13.0999 12.9399 13.0948C12.8936 13.0999 12.8523 13.105 12.8059 13.105C12.775 13.105 12.7441 13.1101 12.7131 13.1101C12.6668 13.1101 12.6255 13.1101 12.5791 13.105C12.5121 13.105 12.4451 13.0948 12.3781 13.0948ZM15.8574 12.846C15.8368 12.8257 15.8368 12.7952 15.8574 12.7749C15.878 12.7546 15.9038 12.7546 15.9244 12.7699C16.0069 12.8359 16.0842 12.8968 16.1615 12.9628C16.2131 13.0085 16.2646 13.0542 16.311 13.0999C16.3419 13.1304 16.3729 13.1659 16.4038 13.2015C16.4502 13.2522 16.4914 13.3081 16.5327 13.3639C16.5481 13.3843 16.5481 13.4096 16.5275 13.4249C16.5069 13.4401 16.4811 13.4401 16.4656 13.4198C16.4089 13.3589 16.3419 13.303 16.2801 13.2472C16.2388 13.2116 16.1976 13.171 16.1564 13.1304C16.1151 13.0897 16.0739 13.0542 16.0327 13.0136C15.9811 12.9679 15.9193 12.9069 15.8574 12.846ZM14.5842 12.191C14.5585 12.1808 14.5482 12.1504 14.5585 12.125C14.5688 12.0996 14.5997 12.0894 14.6255 12.0996C14.7028 12.13 14.7853 12.1605 14.8626 12.1961C14.9141 12.2214 14.9657 12.2468 15.0121 12.2722C15.043 12.2925 15.0739 12.3128 15.1049 12.3382C15.1513 12.3738 15.1925 12.4093 15.2389 12.4499C15.2595 12.4652 15.2646 12.4906 15.2492 12.5109C15.2337 12.5312 15.2028 12.5363 15.1873 12.521C15.1461 12.4956 15.11 12.4753 15.0688 12.455C15.0275 12.4347 14.9914 12.4144 14.9502 12.3941C14.9038 12.3687 14.8574 12.3433 14.8059 12.3128C14.7286 12.2671 14.6564 12.2265 14.5842 12.191ZM16.3574 11.2516C16.3368 11.2313 16.3368 11.2008 16.3523 11.1805C16.3729 11.1602 16.4038 11.1602 16.4244 11.1805C16.4811 11.2262 16.5378 11.2719 16.5894 11.3227C16.6255 11.3531 16.6615 11.3887 16.6976 11.4242C16.7337 11.4598 16.7646 11.4953 16.7955 11.5309C16.8419 11.5867 16.8832 11.6426 16.9296 11.7035C16.945 11.7238 16.945 11.7492 16.9244 11.7644C16.9038 11.7797 16.878 11.7797 16.8626 11.7594C16.8213 11.7187 16.7749 11.6832 16.7337 11.6426C16.7028 11.6172 16.677 11.5918 16.6512 11.5613C16.61 11.5207 16.5739 11.4801 16.5327 11.4395C16.4708 11.3785 16.4193 11.3125 16.3574 11.2516ZM17.0533 13.8565C17.0326 13.8362 17.0378 13.8057 17.0584 13.7854C17.079 13.7702 17.11 13.7702 17.1306 13.7905C17.1821 13.8463 17.2337 13.8971 17.2852 13.9479C17.3213 13.9834 17.3574 14.019 17.3986 14.0495C17.4244 14.0748 17.4502 14.0951 17.4708 14.1205C17.5017 14.151 17.5326 14.1815 17.5636 14.2069C17.5945 14.2373 17.6254 14.2678 17.6563 14.2932C17.677 14.3084 17.6821 14.3338 17.6667 14.3541C17.6512 14.3744 17.6254 14.3795 17.6048 14.3643C17.5378 14.3237 17.4759 14.283 17.4141 14.2373C17.3729 14.2069 17.3368 14.1713 17.2955 14.1408C17.2595 14.1053 17.2234 14.0698 17.1925 14.0291C17.1409 13.9784 17.0945 13.9174 17.0533 13.8565ZM13.2956 14.2069C13.2698 14.2018 13.2544 14.1713 13.2595 14.1459C13.2647 14.1205 13.2956 14.1053 13.3214 14.1104C13.4039 14.1256 13.4863 14.1459 13.5636 14.1662C13.6152 14.1815 13.6719 14.1967 13.7234 14.217C13.7595 14.2322 13.7904 14.2475 13.8265 14.2678C13.8781 14.2932 13.9193 14.3237 13.9709 14.3541C13.9915 14.3643 14.0018 14.3947 13.9863 14.4151C13.976 14.4354 13.9451 14.4455 13.9245 14.4303L13.2956 14.2069ZM13.5688 13.2015C13.543 13.1913 13.5276 13.1659 13.5379 13.1405C13.5482 13.1151 13.5739 13.0999 13.5997 13.1101C13.6719 13.1304 13.7492 13.1507 13.8214 13.1761C13.8729 13.1913 13.9193 13.2116 13.9657 13.237C13.9966 13.2522 14.0275 13.2725 14.0585 13.2878C14.1049 13.3182 14.1461 13.3487 14.1822 13.3843C14.2028 13.3995 14.208 13.4249 14.1925 13.4452C14.177 13.4655 14.1513 13.4706 14.1306 13.4553C14.0946 13.435 14.0585 13.4198 14.0172 13.4046C13.9863 13.3893 13.9554 13.3792 13.9296 13.3639C13.8987 13.3487 13.8678 13.3386 13.8368 13.3233C13.8008 13.3081 13.7647 13.2878 13.7286 13.2725C13.6822 13.2522 13.6255 13.2268 13.5688 13.2015ZM18.2904 16.3141C18.2646 16.3141 18.2388 16.2888 18.244 16.2634C18.2491 16.238 18.2698 16.2177 18.2955 16.2177C18.3471 16.2177 18.3986 16.2126 18.4502 16.2126C18.4862 16.2126 18.5223 16.2126 18.5584 16.2177C18.5842 16.2177 18.6048 16.2228 18.6254 16.2278C18.6615 16.2329 18.6924 16.2431 18.7285 16.2532C18.7543 16.2532 18.7749 16.2786 18.7697 16.2989C18.7697 16.3243 18.744 16.3395 18.7182 16.3395C18.6821 16.3395 18.6512 16.3446 18.6151 16.3446C18.5893 16.3446 18.5687 16.3446 18.5429 16.3446C18.5069 16.3446 18.4759 16.3395 18.4398 16.3345C18.3883 16.3345 18.3419 16.3243 18.2904 16.3141ZM18.0429 14.6588C18.0223 14.6435 18.0172 14.6131 18.0326 14.5877C18.0481 14.5674 18.079 14.5623 18.0997 14.5775C18.1512 14.608 18.1976 14.6334 18.244 14.6588C18.2749 14.674 18.311 14.6943 18.3419 14.7096C18.3677 14.7248 18.3935 14.7451 18.4192 14.7603C18.445 14.7756 18.4708 14.7959 18.4965 14.8111C18.5223 14.8213 18.5326 14.8467 18.5223 14.8721C18.512 14.8924 18.4811 14.9025 18.4605 14.8924C18.4141 14.8771 18.3677 14.867 18.3213 14.8467C18.2904 14.8365 18.2646 14.8213 18.2337 14.801C18.2027 14.7857 18.1821 14.7654 18.1512 14.7451C18.1151 14.7197 18.079 14.6892 18.0429 14.6588ZM14.8626 15.0193C14.842 14.999 14.842 14.9685 14.8626 14.9482C14.8832 14.9279 14.9141 14.9279 14.9348 14.9482C14.9915 14.999 15.0533 15.0498 15.1049 15.1056C15.1461 15.1412 15.1822 15.1767 15.2182 15.2123C15.2543 15.2478 15.2904 15.2884 15.3213 15.324C15.3729 15.3849 15.4193 15.4408 15.4708 15.5017C15.4863 15.5169 15.4863 15.5474 15.4708 15.5626C15.4502 15.5779 15.4244 15.5779 15.409 15.5626C15.3626 15.522 15.311 15.4814 15.2647 15.4408C15.2337 15.4154 15.2028 15.3849 15.177 15.3545C15.1306 15.3088 15.0894 15.263 15.0481 15.2173C14.9811 15.1564 14.9244 15.0853 14.8626 15.0193ZM17.3265 15.8064C17.3059 15.7911 17.3007 15.7556 17.3213 15.7353C17.3368 15.715 17.3729 15.7099 17.3883 15.7302C17.4193 15.7505 17.4502 15.7657 17.4811 15.7861C17.5017 15.8013 17.5223 15.8114 17.5378 15.8267C17.5481 15.8368 17.5636 15.847 17.5739 15.8571C17.5893 15.8724 17.6048 15.8927 17.6203 15.913C17.6409 15.9282 17.646 15.9536 17.6306 15.9739C17.6151 15.9943 17.5842 15.9993 17.5687 15.9841C17.5481 15.9739 17.5223 15.9638 17.5017 15.9536C17.4862 15.9485 17.4708 15.9384 17.4605 15.9282C17.4398 15.913 17.4244 15.8978 17.4038 15.8825C17.378 15.8571 17.3522 15.8318 17.3265 15.8064ZM16.0069 14.6588C15.9863 14.6385 15.9863 14.608 16.0069 14.5877C16.0275 14.5674 16.0585 14.5674 16.0739 14.5877C16.1512 14.6537 16.2234 14.7248 16.3007 14.7908C16.3522 14.8365 16.3986 14.8822 16.4502 14.9279C16.4966 14.9736 16.543 15.0244 16.5945 15.0701C16.6615 15.1412 16.7285 15.2173 16.8007 15.2884C16.8213 15.3037 16.8213 15.3341 16.8059 15.3494C16.7904 15.3697 16.7595 15.3697 16.744 15.3545C16.6822 15.3037 16.6151 15.2529 16.5533 15.2021C16.5121 15.1666 16.4708 15.131 16.4296 15.0955C16.3729 15.0396 16.3162 14.9787 16.2595 14.9228C16.1667 14.8365 16.0894 14.7502 16.0069 14.6588ZM14.9966 13.8666C14.9708 13.8514 14.9657 13.821 14.9811 13.8006C14.9966 13.7803 15.0275 13.7702 15.0481 13.7854C15.1255 13.8311 15.2028 13.8768 15.2749 13.9276C15.3213 13.9631 15.3729 13.9936 15.4193 14.0342C15.4657 14.0698 15.5121 14.1104 15.5533 14.151C15.6152 14.2119 15.677 14.2779 15.7337 14.344C15.7543 14.3592 15.7543 14.3897 15.7337 14.4049C15.7182 14.4201 15.6873 14.4252 15.6719 14.4049C15.6152 14.3592 15.5636 14.3186 15.5069 14.2779C15.4708 14.2475 15.4347 14.2221 15.3986 14.1916C15.3626 14.1612 15.3265 14.1307 15.2904 14.1053C15.2389 14.0596 15.1873 14.019 15.1306 13.9733C15.0894 13.9377 15.043 13.9022 14.9966 13.8666ZM17.1306 16.9641C17.1048 16.9539 17.0945 16.9235 17.1048 16.8981C17.1151 16.8727 17.146 16.8626 17.1718 16.8727C17.2491 16.8981 17.3265 16.9235 17.4038 16.9489C17.4553 16.9641 17.5069 16.9793 17.5584 16.9946C17.5945 17.0047 17.6254 17.02 17.6615 17.0301C17.713 17.0504 17.7646 17.0657 17.8161 17.0809C17.8419 17.086 17.8574 17.1114 17.8522 17.1317C17.8471 17.1571 17.8213 17.1723 17.8007 17.1672C17.7285 17.1571 17.6615 17.152 17.5945 17.1367C17.5481 17.1266 17.5017 17.1164 17.4605 17.1012C17.4141 17.086 17.3729 17.0707 17.3265 17.0504C17.2543 17.025 17.1925 16.9946 17.1306 16.9641ZM11.7132 14.0545C11.6874 14.0545 11.6616 14.0342 11.6616 14.0038C11.6616 13.9784 11.6874 13.953 11.7132 13.953C11.7647 13.9479 11.8214 13.9428 11.8781 13.9377C11.9142 13.9377 11.9503 13.9377 11.9863 13.9377C12.0121 13.9377 12.0379 13.9428 12.0585 13.9479C12.0946 13.953 12.1307 13.9631 12.1668 13.9682C12.1925 13.9682 12.2132 13.9885 12.208 14.0139C12.208 14.0393 12.1874 14.0596 12.1616 14.0545C12.1255 14.0596 12.0894 14.0647 12.0533 14.0647C12.0276 14.0647 12.0018 14.0698 11.9812 14.0698C11.9451 14.0698 11.909 14.0647 11.873 14.0647C11.8214 14.0647 11.7699 14.0596 11.7132 14.0545ZM16.8471 5.47304C16.8471 5.46796 16.8471 5.46289 16.8471 5.45781C16.8368 5.44257 16.8316 5.42228 16.8316 5.40704C16.8574 4.76724 16.7749 4.1325 16.5378 3.5841C16.512 3.56887 16.5017 3.5384 16.5017 3.50793V3.50287C16.4914 3.48256 16.4811 3.45716 16.4708 3.43685C16.2492 2.98493 15.9141 2.59901 15.4399 2.32481C15.2079 2.38575 14.9399 2.55839 14.6306 2.81736C13.8677 3.45716 12.9245 4.61998 11.9812 5.94021C10.3163 8.28107 8.66681 11.1297 8.09466 12.5718C8.02249 12.7546 7.94518 12.9374 7.87301 13.1202C8.15651 13.2218 8.42971 13.3487 8.68228 13.5061C9.27505 13.8717 9.77505 14.3795 10.1359 15.0193C10.4297 14.5979 11.3884 13.2167 12.5018 11.6324C13.0327 10.8707 13.5997 10.0634 14.1461 9.29156C14.5327 8.74315 14.9038 8.21506 15.2492 7.73267C16.043 6.6054 16.6615 5.73709 16.8471 5.47304ZM10.7235 12.6074C10.7132 12.582 10.7286 12.5515 10.7544 12.5464C10.7802 12.5363 10.806 12.5515 10.8163 12.5769C10.8317 12.6023 10.8472 12.6277 10.8626 12.6531C10.873 12.6683 10.8781 12.6886 10.8833 12.7038C10.8884 12.7191 10.8884 12.7343 10.8936 12.7495C10.8936 12.7648 10.8936 12.78 10.8987 12.8003C10.909 12.8206 10.8987 12.8511 10.873 12.8562C10.8523 12.8663 10.8266 12.8562 10.8163 12.8308C10.8008 12.8155 10.7905 12.8003 10.7802 12.7851C10.775 12.7749 10.7647 12.7648 10.7595 12.7495C10.7544 12.7343 10.7493 12.714 10.7441 12.6937C10.7338 12.6632 10.7287 12.6327 10.7235 12.6074ZM10.7802 10.9926C10.7647 10.9723 10.7647 10.9418 10.7853 10.9215C10.806 10.9012 10.8369 10.9063 10.8575 10.9266C10.8936 10.9622 10.9297 10.9977 10.9657 11.0332C10.9915 11.0586 11.0121 11.084 11.0328 11.1094C11.0534 11.1348 11.074 11.1602 11.0946 11.1906C11.1204 11.2313 11.1462 11.277 11.1719 11.3176C11.1874 11.3379 11.1874 11.3633 11.1668 11.3785C11.1462 11.3938 11.1204 11.3938 11.1049 11.3735C11.074 11.3481 11.0431 11.3176 11.0121 11.2922C10.9915 11.2719 10.9709 11.2516 10.9554 11.2313C10.9297 11.2008 10.9039 11.1703 10.8833 11.1348C10.8472 11.0942 10.8163 11.0434 10.7802 10.9926ZM12.9039 9.44388C12.8884 9.4185 12.8987 9.38803 12.9245 9.37787C12.9502 9.36264 12.9812 9.3728 12.9915 9.39819C13.0069 9.4185 13.0276 9.43881 13.043 9.4642C13.0534 9.47943 13.0637 9.49466 13.074 9.5099C13.0791 9.52513 13.0843 9.54036 13.0894 9.5556C13.0946 9.57083 13.0946 9.58606 13.0997 9.60129C13.1152 9.62161 13.1049 9.64699 13.0843 9.66223C13.0636 9.67746 13.0379 9.6673 13.0224 9.64699C13.0069 9.63176 12.9915 9.62161 12.976 9.60638C12.9657 9.59622 12.9554 9.58607 12.9502 9.57591C12.9399 9.56068 12.9296 9.54036 12.9245 9.52513C12.9193 9.49974 12.9142 9.46927 12.9039 9.44388ZM10.1874 9.25601C10.1616 9.24585 10.1513 9.21538 10.1616 9.18999C10.1719 9.1646 10.2029 9.15446 10.2286 9.16461C10.2957 9.19 10.3627 9.21539 10.4245 9.24586C10.4658 9.26617 10.507 9.28647 10.5482 9.31186C10.574 9.32709 10.5998 9.34741 10.6256 9.36772C10.6616 9.39819 10.6977 9.43374 10.7286 9.46928C10.7492 9.48452 10.7492 9.51498 10.7338 9.53021C10.7183 9.55052 10.6874 9.55051 10.6719 9.53528L10.1874 9.25601ZM10.0379 11.8609C10.0173 11.8406 10.0173 11.8101 10.0379 11.7898C10.0585 11.7695 10.0895 11.7695 10.1101 11.7898C10.1462 11.8152 10.1771 11.8406 10.208 11.8711C10.2287 11.8914 10.2493 11.9117 10.2647 11.932C10.2854 11.9523 10.3008 11.9777 10.3111 11.998C10.3317 12.0336 10.3524 12.0691 10.3678 12.1046C10.3833 12.125 10.3781 12.1504 10.3575 12.1656C10.3369 12.1808 10.3111 12.1757 10.2957 12.1554C10.2699 12.13 10.2493 12.1097 10.2286 12.0894C10.2132 12.0742 10.1977 12.0589 10.1822 12.0437C10.1616 12.0183 10.1462 11.9929 10.1255 11.9676C10.0946 11.9371 10.0689 11.8965 10.0379 11.8609ZM11.2647 9.95675C11.2441 9.93644 11.2441 9.90596 11.2647 9.88565C11.2853 9.86534 11.3163 9.86534 11.3369 9.88565C11.3781 9.9212 11.4142 9.95167 11.4503 9.98721C11.476 10.0126 11.4967 10.0329 11.5173 10.0634C11.5379 10.0888 11.5585 10.1142 11.574 10.1446C11.5998 10.1852 11.6204 10.231 11.6461 10.2767C11.6616 10.297 11.6564 10.3223 11.6358 10.3376C11.6152 10.3528 11.5843 10.3477 11.574 10.3274C11.543 10.2969 11.5173 10.2716 11.4915 10.2411C11.4761 10.2208 11.4554 10.2055 11.44 10.1852C11.4142 10.1548 11.3936 10.1243 11.3678 10.0938C11.3317 10.0481 11.3008 10.0024 11.2647 9.95675ZM9.49155 10.2767C9.46578 10.2665 9.45031 10.2411 9.45546 10.2157C9.46577 10.1903 9.49154 10.1751 9.51732 10.1852C9.58433 10.2005 9.6565 10.2208 9.72351 10.2411C9.7699 10.2563 9.81111 10.2716 9.8575 10.2919C9.90389 10.3122 9.94 10.3325 9.98124 10.3579C10.0379 10.3985 10.0946 10.4391 10.1462 10.4899C10.1668 10.5051 10.1719 10.5305 10.1565 10.5508C10.141 10.5712 10.1152 10.5762 10.0946 10.561C10.0585 10.5407 10.0276 10.5204 9.99153 10.5051C9.95544 10.4848 9.91938 10.4696 9.8833 10.4544C9.86784 10.4493 9.85236 10.4391 9.8369 10.4341C9.80597 10.4188 9.76989 10.4036 9.73896 10.3833C9.65649 10.3427 9.57918 10.3071 9.49155 10.2767ZM8.95033 11.2871C8.92456 11.277 8.90909 11.2516 8.91424 11.2262C8.92455 11.2008 8.95032 11.1856 8.97609 11.1957C9.02764 11.2059 9.08434 11.216 9.13588 11.2313C9.17197 11.2414 9.20806 11.2516 9.24414 11.2668C9.26991 11.277 9.2905 11.2871 9.31112 11.3024C9.3472 11.3227 9.373 11.343 9.40393 11.3684C9.42455 11.3785 9.43484 11.409 9.41938 11.4293C9.40907 11.4496 9.37814 11.4547 9.35753 11.4445C9.31629 11.4293 9.27506 11.4192 9.23382 11.4039C9.2029 11.3938 9.1771 11.3836 9.15133 11.3785C9.12556 11.3684 9.0998 11.3582 9.06887 11.3481C9.03279 11.3227 8.99156 11.3024 8.95033 11.2871ZM12.1564 8.63143C12.141 8.61112 12.1462 8.58065 12.1719 8.56542C12.1977 8.55019 12.2235 8.55528 12.2389 8.58067C12.275 8.62637 12.3111 8.66698 12.3472 8.71268C12.3729 8.74315 12.3936 8.77361 12.4142 8.80408C12.4296 8.82439 12.44 8.8447 12.4554 8.87009C12.476 8.90563 12.4915 8.93611 12.507 8.97165C12.5224 8.99196 12.5173 9.01735 12.4967 9.03258C12.476 9.04782 12.4502 9.04274 12.4348 9.02243C12.3987 8.98689 12.3678 8.95642 12.3317 8.92087C12.3111 8.89548 12.2905 8.8701 12.275 8.84471C12.2544 8.81932 12.2389 8.79393 12.2235 8.76346C12.2028 8.71268 12.1771 8.67206 12.1564 8.63143ZM9.46578 12.9425C9.45032 12.9222 9.45546 12.8917 9.48123 12.8714C9.50185 12.8562 9.53278 12.8612 9.54824 12.8815C9.59463 12.9425 9.64619 13.0034 9.68743 13.0644C9.71835 13.105 9.74412 13.1507 9.77504 13.1913C9.79051 13.2218 9.80599 13.2522 9.82145 13.2827C9.84207 13.3284 9.86268 13.3792 9.8833 13.4249C9.89361 13.4452 9.88844 13.4757 9.86266 13.4858C9.84204 13.496 9.81112 13.4909 9.80081 13.4655C9.76988 13.4249 9.74412 13.3843 9.71319 13.3436C9.69257 13.3182 9.67196 13.2878 9.6565 13.2624C9.63073 13.2218 9.60494 13.1761 9.57917 13.1354C9.53793 13.0745 9.50187 13.0085 9.46578 12.9425ZM8.32662 12.2468C8.30084 12.2367 8.28538 12.2113 8.29569 12.1859C8.306 12.1605 8.33177 12.1453 8.35754 12.1554C8.41424 12.1707 8.47611 12.1859 8.52765 12.2062C8.56889 12.2214 8.60495 12.2316 8.64104 12.2519C8.67712 12.2671 8.71321 12.2875 8.74929 12.3078C8.80084 12.3382 8.84721 12.3789 8.8936 12.4195C8.91422 12.4347 8.91939 12.4601 8.90392 12.4804C8.88846 12.5007 8.86269 12.5058 8.84207 12.4906C8.80599 12.4703 8.77506 12.455 8.73897 12.4398C8.70289 12.4245 8.67196 12.4093 8.63588 12.3941C8.60495 12.3789 8.58434 12.3687 8.55342 12.3535C8.51218 12.3332 8.47095 12.3128 8.42971 12.2925C8.39879 12.2773 8.3627 12.2621 8.32662 12.2468ZM15.0069 4.94496C14.9863 4.92973 14.9811 4.89925 14.9966 4.87386C15.0121 4.85355 15.0482 4.84848 15.0688 4.86371C15.1409 4.91449 15.2131 4.97034 15.2801 5.03127C15.3265 5.0719 15.3677 5.1176 15.4038 5.1633C15.445 5.209 15.476 5.25978 15.5069 5.31056C15.5533 5.38673 15.5842 5.47305 15.61 5.55937C15.6203 5.58476 15.6049 5.61014 15.5842 5.61522C15.5585 5.62537 15.5378 5.61015 15.5275 5.58984C15.4914 5.51367 15.445 5.44257 15.3986 5.37656C15.3677 5.33086 15.3368 5.28517 15.3007 5.24455C15.2647 5.19885 15.2286 5.15823 15.1925 5.1176C15.1358 5.06175 15.0739 5.00082 15.0069 4.94496ZM13.9038 4.25945C13.8781 4.2493 13.8626 4.22391 13.8678 4.19852C13.8781 4.17313 13.9038 4.1579 13.9296 4.16298C13.9812 4.17313 14.0275 4.18329 14.0791 4.19852C14.1152 4.20868 14.1461 4.21882 14.177 4.23406C14.2079 4.24929 14.2389 4.26454 14.2698 4.27977C14.3162 4.30516 14.3523 4.33562 14.3935 4.36608C14.4142 4.37624 14.4244 4.4067 14.4141 4.42702C14.4038 4.44733 14.3729 4.45749 14.3523 4.44733C14.3111 4.4321 14.2801 4.42195 14.2389 4.40672C14.2131 4.39656 14.1874 4.39147 14.1667 4.38132C14.1307 4.36608 14.0997 4.35085 14.0636 4.33562C14.0121 4.30515 13.9605 4.27977 13.9038 4.25945ZM11.0946 7.94086C11.0688 7.92563 11.0585 7.90023 11.074 7.87485C11.0895 7.84946 11.1204 7.84437 11.141 7.85453C11.1926 7.87992 11.2493 7.90024 11.3008 7.92563C11.3369 7.94086 11.3729 7.96116 11.409 7.98147C11.4348 7.99671 11.4554 8.01194 11.476 8.03226C11.507 8.05764 11.5379 8.08812 11.5637 8.11859C11.5843 8.13382 11.5843 8.16428 11.5688 8.17952C11.5534 8.19983 11.5224 8.19982 11.507 8.18458C11.4657 8.15919 11.4245 8.1389 11.3833 8.11859C11.3575 8.10335 11.3317 8.08812 11.3008 8.07289C11.275 8.05765 11.2492 8.03734 11.2183 8.02211C11.1771 7.99164 11.1358 7.96625 11.0946 7.94086ZM13.7647 8.13382C13.7544 8.10843 13.7647 8.07796 13.7853 8.0678C13.8111 8.05765 13.842 8.06781 13.8523 8.08812C13.8729 8.12366 13.8987 8.15412 13.9193 8.18967C13.9348 8.21506 13.9451 8.23537 13.9605 8.26076C13.9657 8.276 13.9708 8.2963 13.9811 8.31153C13.9863 8.33692 13.9915 8.36231 14.0018 8.39278C14.0121 8.41309 14.0018 8.44356 13.976 8.44864C13.9554 8.4588 13.9244 8.44863 13.9193 8.42324C13.8987 8.39277 13.8781 8.37248 13.8626 8.34201C13.8523 8.3217 13.842 8.30646 13.8317 8.28615C13.8214 8.26583 13.8162 8.24553 13.8059 8.22521C13.7853 8.19475 13.775 8.16429 13.7647 8.13382ZM14.2698 6.0773C14.2544 6.05699 14.2543 6.02653 14.275 6.00622C14.2956 5.99099 14.3265 5.99097 14.3471 6.01129C14.3987 6.06714 14.4502 6.11793 14.5018 6.16871C14.5378 6.20426 14.5688 6.24487 14.5997 6.28549C14.6203 6.31088 14.641 6.34135 14.6513 6.37182C14.677 6.41752 14.6977 6.46322 14.7183 6.50892C14.7286 6.52923 14.7234 6.55969 14.6976 6.56985C14.677 6.58 14.6512 6.57493 14.6358 6.55461C14.5997 6.50384 14.5636 6.46322 14.5224 6.41752C14.4966 6.38705 14.4708 6.35659 14.4451 6.32612C14.4193 6.29566 14.3987 6.26011 14.3729 6.22964C14.342 6.17887 14.3059 6.12808 14.2698 6.0773ZM12.8935 5.25978C12.8678 5.2547 12.8471 5.22932 12.8575 5.19885C12.8626 5.17346 12.8884 5.15315 12.9142 5.1633C13.0173 5.17854 13.1152 5.20392 13.2131 5.23438C13.275 5.25469 13.342 5.2801 13.4038 5.31056C13.4657 5.34103 13.5276 5.37149 13.5843 5.41211C13.6667 5.46797 13.744 5.5289 13.8214 5.59999C13.842 5.61522 13.842 5.6457 13.8265 5.66093C13.8111 5.68124 13.7801 5.68123 13.7647 5.666C13.708 5.62538 13.6461 5.58983 13.5894 5.55429C13.5482 5.5289 13.5069 5.50858 13.4657 5.48827C13.4451 5.47812 13.4245 5.46796 13.4038 5.45781C13.3574 5.43242 13.3059 5.41212 13.2595 5.38673C13.141 5.34103 13.0224 5.29533 12.8935 5.25978ZM11.9451 6.34642C11.9193 6.33627 11.9039 6.31088 11.9142 6.28549C11.9245 6.2601 11.9503 6.24487 11.976 6.25503C12.0431 6.27534 12.1101 6.29565 12.1719 6.32104C12.2183 6.34135 12.2596 6.35658 12.3008 6.38197C12.342 6.40228 12.3832 6.42767 12.4193 6.45814C12.476 6.49876 12.5276 6.54953 12.574 6.60031C12.5946 6.61555 12.5946 6.64601 12.5791 6.66124C12.5637 6.68156 12.5327 6.68156 12.5173 6.66633C12.4812 6.64602 12.4503 6.62571 12.4142 6.6054C12.3781 6.58508 12.3472 6.56478 12.3111 6.54446C12.2956 6.53939 12.2853 6.52922 12.2699 6.51907C12.2389 6.49875 12.208 6.48353 12.1719 6.46322C12.1049 6.4226 12.0276 6.38197 11.9451 6.34642ZM13.1049 7.20965C13.0894 7.18427 13.0997 7.1538 13.1255 7.14364C13.1513 7.12841 13.1822 7.13857 13.1925 7.16396C13.2234 7.20966 13.2544 7.25027 13.2853 7.29597C13.3059 7.32644 13.3265 7.35691 13.342 7.38738C13.3523 7.40769 13.3626 7.43308 13.3729 7.45339C13.3884 7.48894 13.3987 7.5194 13.409 7.55494C13.4193 7.57525 13.4142 7.60572 13.3884 7.61587C13.3678 7.62603 13.3368 7.62096 13.3265 7.59557C13.3059 7.56511 13.2801 7.53971 13.2595 7.50924C13.2441 7.48893 13.2337 7.46862 13.2183 7.44831C13.2028 7.41785 13.1822 7.38738 13.1667 7.35183C13.1461 7.30613 13.1255 7.25536 13.1049 7.20965ZM25.0171 10.9774C24.5583 11.5969 23.8315 12.5718 23.0326 13.6483C22.4913 14.3744 21.914 15.1463 21.3625 15.8876C19.878 17.868 18.5635 19.6096 18.5635 19.6096C18.5223 19.6655 18.4502 19.6807 18.3883 19.6452C18.3883 19.6452 17.4708 19.1273 16.3883 18.2691C15.8059 17.8121 15.1719 17.2535 14.6049 16.6239C14.2956 16.2786 13.6925 16.0298 13.0224 15.8571C12.0997 15.6185 11.0379 15.5322 10.3678 15.5829C10.3678 15.588 10.3678 15.5982 10.3627 15.6083C10.3627 15.6185 10.3575 15.6287 10.3575 15.6388C11.4864 15.7708 12.4915 15.9485 13.3317 16.4208C13.9245 16.7559 14.4296 17.2332 14.8265 17.9391C15.2337 18.655 15.8213 19.173 16.4089 19.5436C17.3007 20.1073 18.1924 20.3307 18.4553 20.3866C18.7131 20.0717 19.9244 18.5941 21.28 16.954C23.1253 14.7248 25.2387 12.191 25.5789 11.7848L25.0171 10.9774ZM16.8832 3.97002C16.9089 3.41146 16.8471 2.8072 16.6151 2.34005C16.3987 1.90336 16.0275 1.58853 15.4244 1.55806C15.2647 1.55298 15.1049 1.55298 14.9451 1.56821C14.7853 1.58344 14.6255 1.60884 14.4708 1.63931C14.4193 1.64946 14.3626 1.66469 14.311 1.67992C14.1719 1.72055 14.043 1.76625 13.909 1.8221C13.8884 1.83226 13.8677 1.83734 13.8523 1.8475C13.6925 1.91859 13.5327 2.00491 13.3884 2.10139C12.8523 2.4416 12.409 2.85798 12.0121 3.32006C11.4091 4.02079 10.9193 4.82309 10.4142 5.60507C9.98638 6.26518 9.54311 6.91007 9.11528 7.56511C8.83693 8.0018 8.56372 8.44355 8.3163 8.90056C8.22867 9.06305 8.1359 9.22555 8.04312 9.38804C7.66684 10.0278 7.25962 10.6422 6.90396 11.2871C6.62045 11.8 6.34213 12.323 6.05347 12.846C6.00193 12.9374 5.95036 13.0339 5.89881 13.1253C5.7751 13.3436 5.6514 13.5671 5.51738 13.7803C5.45552 13.8819 5.39368 13.9834 5.33182 14.085L5.32666 14.0952C5.21842 14.2678 5.11017 14.4404 4.99676 14.608C4.90914 14.735 4.82153 14.867 4.72875 14.9939C4.67205 15.0752 4.61018 15.1564 4.55348 15.2326C4.46585 15.3443 4.37822 15.456 4.29059 15.5677C4.21328 15.6642 4.13598 15.7556 4.0535 15.847C3.77 16.172 3.44525 16.4665 3.09989 16.7356C2.75454 17.0047 2.38857 17.2434 2.01229 17.4516C1.86796 17.5328 1.71849 17.6191 1.56901 17.6902C1.46592 17.741 1.36283 17.7867 1.25459 17.8273C1.48654 17.873 1.71332 17.8883 1.94012 17.8781C2.16692 17.868 2.39372 17.8273 2.62052 17.7562C2.67722 17.741 2.73393 17.7207 2.78547 17.7004C2.86795 17.6699 2.95041 17.6395 3.03804 17.609C3.05866 17.5988 3.0896 17.5785 3.12053 17.5582C3.16177 17.5328 3.20299 17.5074 3.23392 17.5024C3.28031 17.4871 3.32153 17.4973 3.35246 17.5074C3.3937 17.5277 3.43496 17.5633 3.44527 17.6395C3.45043 17.6801 3.43495 17.7359 3.39887 17.7969C3.33701 17.8934 3.20814 18.0254 3.16691 18.066C3.01227 18.2386 2.84217 18.3859 2.65145 18.5179C2.51228 18.6144 2.36797 18.6956 2.21849 18.7667C2.36281 18.7566 2.50712 18.7464 2.65145 18.7261C2.87825 18.6956 3.10505 18.6499 3.32669 18.5941C3.96586 18.4316 4.53802 18.1726 5.01224 17.807C5.48646 17.4414 5.87306 16.9641 6.14625 16.3649C6.35243 15.913 6.55861 15.4763 6.75448 15.0447C6.79572 14.9584 6.83695 14.8721 6.87303 14.7807C6.93488 14.6486 6.99676 14.5115 7.05346 14.3795C7.08954 14.2983 7.12561 14.217 7.16684 14.1358C7.18231 14.1002 7.19778 14.0647 7.21325 14.0291C7.22871 13.9987 7.24415 13.9631 7.25446 13.9327C7.29054 13.8514 7.32663 13.7752 7.35756 13.694C7.41941 13.5467 7.48642 13.3995 7.54827 13.2472C7.58436 13.171 7.61528 13.0897 7.64621 13.0136C7.72353 12.8308 7.80085 12.6429 7.87817 12.455C8.46064 11.0078 10.1307 8.13889 11.8214 5.79294C12.7802 4.45748 13.7441 3.2896 14.5224 2.64472C14.7801 2.43145 15.0172 2.27404 15.2286 2.18264C15.3059 2.14709 15.3832 2.12171 15.4554 2.10647C15.4863 2.10139 15.5121 2.0963 15.543 2.09122C15.8316 2.06076 16.0688 2.18264 16.2492 2.37559C16.5172 2.66503 16.6615 3.10679 16.6924 3.36576C16.7595 3.57395 16.8265 3.7669 16.8832 3.97002ZM25.5222 12.1605C24.8676 12.9628 23.0841 15.1615 21.4913 17.1114C19.9656 18.9749 18.6151 20.61 18.6151 20.61C18.5842 20.6455 18.5378 20.6658 18.4862 20.6557C18.4862 20.6557 17.378 20.4576 16.2749 19.7518C15.6564 19.3608 15.043 18.8074 14.6203 18.0508C14.2492 17.3805 13.775 16.9286 13.2183 16.6137C12.4039 16.1466 11.4142 15.9689 10.306 15.8318C10.2957 15.8622 10.2854 15.8927 10.2751 15.9181C10.2441 15.9942 10.2183 16.0704 10.1977 16.1415C10.6359 16.2532 11.2492 16.2989 11.574 16.4817C11.8626 16.6442 12.1204 16.8422 12.3626 17.0555C12.909 17.548 13.3626 18.132 13.8987 18.6499C14.177 18.9191 14.4811 19.1374 14.7956 19.3304C15.2801 19.63 15.8007 19.8635 16.3368 20.092C16.8007 20.2951 17.2646 20.5033 17.7492 20.6557C18.0584 20.7572 18.378 20.8334 18.7079 20.8689C19.2543 20.1631 19.8058 19.4573 20.3625 18.7515C20.9295 18.0355 21.5068 17.3196 22.0841 16.6087C22.5274 16.0653 22.9965 15.5423 23.4501 15.0091C23.6408 14.7806 23.8315 14.5522 24.0171 14.3186C24.1666 14.1256 24.3212 13.9377 24.4707 13.7448C24.7026 13.4604 24.9294 13.1812 25.1614 12.8968C25.2542 12.7851 25.4036 12.648 25.517 12.5109C25.5634 12.4601 25.5995 12.4093 25.6201 12.3585C25.5737 12.3636 25.5428 12.2367 25.5222 12.1605ZM1.28551 15.1818C1.51231 15.2834 1.71849 15.3697 1.92467 15.4306C2.15663 15.4966 2.39888 15.5372 2.68238 15.5372C2.96072 15.5372 3.23906 15.5119 3.51225 15.4662C3.72359 15.4306 3.92978 15.39 4.13596 15.3392C4.19266 15.2681 4.25453 15.192 4.31123 15.1158C3.91949 15.2123 3.54835 15.2529 3.20299 15.258C2.38342 15.2732 1.72362 15.0955 1.35249 14.9635C1.35249 14.9838 1.34736 15.0041 1.34221 15.0244C1.33705 15.0548 1.32159 15.0802 1.31128 15.1107C1.30612 15.1361 1.29582 15.1615 1.28551 15.1818ZM7.13076 14.8264C7.41426 14.8771 7.78025 14.999 8.14622 15.1564C8.61528 15.3544 9.09981 15.6033 9.43486 15.7861C9.44517 15.6743 9.46579 15.5423 9.50187 15.4204C9.50702 15.4052 9.51216 15.3951 9.51732 15.3798C8.96062 14.8873 8.26475 14.5725 7.54311 14.4557C7.4658 14.4455 7.39363 14.4303 7.31631 14.4252C7.2493 14.5572 7.19261 14.6893 7.13076 14.8264ZM1.27003 13.9885C1.24942 14.1459 1.18757 14.674 1.18757 14.674C1.20819 14.6842 1.22881 14.6893 1.25459 14.6994C1.25974 14.6994 1.26487 14.6994 1.26487 14.6994C1.28034 14.7045 1.29581 14.7096 1.30612 14.7197C1.6257 14.8365 2.32156 15.0396 3.19783 15.0142C3.6205 14.999 4.07927 14.933 4.5638 14.7756C4.70297 14.5775 4.84213 14.3744 4.971 14.1713C4.53286 14.2678 4.09473 14.3744 3.65143 14.4404C3.41432 14.4709 3.18237 14.4912 2.9401 14.4912C2.73392 14.4912 2.40402 14.4049 2.06382 14.2932C1.78032 14.1967 1.49683 14.085 1.27003 13.9885ZM9.78536 15.9892C9.80598 15.9892 9.83175 15.9942 9.84722 16.0095C9.89361 16.0399 9.95031 16.0653 10.0122 16.0907C10.0379 15.9333 10.0998 15.7505 10.1101 15.5829C10.1153 15.5169 10.1101 15.4509 10.0843 15.3951C10.0637 15.3443 10.0173 15.3037 9.9606 15.2884C9.91936 15.2732 9.87298 15.2681 9.8369 15.3037C9.78535 15.3544 9.74412 15.4255 9.71319 15.5017C9.66165 15.6337 9.63072 15.7861 9.61525 15.8978C9.68742 15.9282 9.74413 15.9638 9.78536 15.9892ZM7.51219 13.9682C7.48642 14.0291 7.46066 14.0901 7.43489 14.1459C7.42973 14.1561 7.42456 14.1713 7.41941 14.1815C7.47611 14.1916 7.53281 14.2018 7.58436 14.2119C8.32146 14.3541 9.02765 14.6943 9.59465 15.2021C9.60496 15.1869 9.61527 15.1666 9.63073 15.1513C9.22868 14.5725 8.77507 14.2576 8.239 14.0952C8.00704 14.0342 7.76992 13.9936 7.51219 13.9682ZM16.2182 2.68025C16.1822 2.62439 16.1409 2.56854 16.0894 2.52284C16.0327 2.46191 15.9605 2.40605 15.8883 2.36543C16.012 2.46699 16.1203 2.56854 16.2182 2.68025ZM24.9861 9.86027C24.6459 10.4087 24.0789 11.216 23.4192 12.13C22.6666 13.171 21.7851 14.349 20.981 15.4103C19.6305 17.1875 18.4914 18.6499 18.4914 18.6499C18.4553 18.6956 18.3986 18.7109 18.3471 18.6906C18.3471 18.6906 17.6151 18.4316 16.6254 17.7156C16.1718 17.3856 15.6667 16.9641 15.1512 16.4259C14.3935 15.6337 13.7234 15.1006 12.9554 14.9025C12.2234 14.7146 11.409 14.8365 10.3524 15.3088C10.3575 15.3341 10.3678 15.3544 10.373 15.3798C11.0585 15.3291 12.141 15.4052 13.0843 15.6388C13.8059 15.8216 14.4502 16.0958 14.7853 16.4614C15.3471 17.0758 15.9708 17.6191 16.5481 18.066C17.4089 18.7363 18.1564 19.1933 18.4244 19.3507C18.7182 18.9597 19.8677 17.4262 21.1511 15.7251C21.7078 14.9888 22.2903 14.2221 22.8418 13.501C24.0531 11.9066 25.0995 10.5356 25.3315 10.231C25.2799 10.1802 25.2026 10.104 25.1304 10.0228C25.0737 9.97198 25.0222 9.91105 24.9861 9.86027ZM7.78024 13.3436C7.72354 13.4757 7.66683 13.6077 7.61013 13.7397C8.00187 13.7854 8.35238 13.8768 8.67196 14.0291C9.08948 14.2322 9.45547 14.5471 9.7802 15.0345C9.82659 15.0193 9.873 15.0091 9.91939 15.0091C9.56372 14.4557 9.0998 14.019 8.55858 13.6991C8.31631 13.5569 8.05343 13.435 7.78024 13.3436ZM5.57923 13.1659C5.05862 13.2269 4.54316 13.3335 4.02771 13.3792C3.38854 13.4401 2.73908 13.4452 2.10507 13.3792C1.77518 13.3436 1.45043 13.2878 1.13085 13.2015C1.09477 13.3284 1.00715 13.6635 1.00715 13.6635C1.19271 13.7397 1.66693 13.9276 2.13084 14.0748C2.44011 14.1713 2.74425 14.2475 2.92982 14.2424C3.15662 14.2373 3.38342 14.217 3.60506 14.1815C4.05866 14.1155 4.5071 13.9987 4.95555 13.8971C5.02256 13.8819 5.09471 13.8666 5.16171 13.8514C5.3112 13.628 5.44521 13.3995 5.57923 13.1659Z" fill="#133F24"/>
</svg>
