<svg width="18" height="24" viewBox="0 0 18 24" fill="none" xmlns="http://www.w3.org/2000/svg">
<path fill-rule="evenodd" clip-rule="evenodd" d="M3.53544 6.95301C7.8901 4.47554 10.8244 6.39284 12.9003 8.06553C14.8591 9.64354 15.819 12.0105 16.5058 14.3697C16.7555 15.2218 17.1067 16.5315 16.7633 17.4152C16.4433 18.2437 15.5459 18.7013 14.8045 19.0958C12.9861 20.0663 10.4654 21.668 8.31932 21.5575C6.39953 21.4628 5.30697 18.9775 4.47194 17.5336C3.49643 15.8451 1.13963 12.9021 1.52203 10.7481C1.76396 9.39103 2.34923 7.62366 3.53544 6.95301Z" fill="#FFF0E0"/>
<path fill-rule="evenodd" clip-rule="evenodd" d="M8.62547 5.52212C8.80479 5.67691 8.96301 5.81451 9.08958 5.92343C9.21615 6.03236 9.31108 6.11835 9.35328 6.15848C9.37437 6.17568 9.38495 6.18715 9.39023 6.19861C9.42715 6.24448 9.41134 6.29034 9.41134 6.30754C9.4008 6.34767 9.33747 6.4394 9.23726 6.56552C8.92083 6.96683 8.1878 7.78091 7.69205 8.41154C7.52856 8.61793 7.39138 8.80138 7.307 8.94471C7.02221 9.40907 6.31028 10.4353 5.83563 11.02C5.65632 11.2379 5.50863 11.3984 5.42425 11.45C5.36624 11.4901 5.31877 11.4959 5.28712 11.4901C5.20802 11.4787 4.99179 11.3755 4.69645 11.2207C4.15324 10.9283 3.31472 10.441 2.55528 9.9881C1.87495 9.58106 1.25791 9.20269 0.973116 9.01923C0.894008 8.96764 0.835969 8.93324 0.814874 8.91031C0.735765 8.85298 0.751595 8.77845 0.756869 8.76698C0.762143 8.74978 0.772677 8.71539 0.809595 8.68099C0.85706 8.62939 0.962563 8.53766 1.09968 8.42301C1.4794 8.10769 2.1228 7.61466 2.39704 7.3968C2.89806 7.00123 3.41491 6.64005 3.91592 6.24448C3.66278 5.86037 3.36745 5.4476 3.13012 5.01189C2.96136 4.70804 2.82424 4.39273 2.74514 4.07742C2.72404 3.99142 2.63964 3.59012 2.66074 3.35507C2.67128 3.22321 2.72402 3.13721 2.7873 3.10281C2.9086 3.03975 3.04044 2.98242 3.16701 2.93083C3.66275 2.72444 4.19542 2.58112 4.68061 2.3518C5.11307 2.15114 5.54029 1.93329 5.9622 1.71544C6.95369 1.19947 7.93463 0.654839 8.92612 0.138872C8.96831 0.11594 9.02104 0.133139 9.04213 0.184736C9.04741 0.190469 9.04741 0.201935 9.04741 0.207668C9.22145 0.608976 9.49569 1.31986 9.76465 2.05368C9.9176 2.47792 10.0758 2.91936 10.2076 3.3092C10.3922 3.85383 10.5399 4.3182 10.6032 4.53605C10.6243 4.60485 10.6349 4.65071 10.6401 4.67365C10.656 4.75391 10.6085 4.79977 10.598 4.8055C10.5452 4.84563 10.4819 4.88003 10.4028 4.9087C10.2657 4.96029 10.1022 4.98896 9.99674 5.02909L8.62547 5.52212ZM4.03721 6.13555C4.25344 5.96356 4.46437 5.78584 4.67006 5.59665C4.89683 5.38453 5.12891 5.13228 5.35569 4.86284C5.37151 4.84564 5.38203 4.82844 5.39786 4.81124C5.03923 4.9431 4.68064 5.07495 4.31675 5.18961C4.27455 5.20108 4.23233 5.17815 4.21651 5.13228C4.20069 5.08642 4.22711 5.04056 4.2693 5.02336C4.74395 4.85137 5.20802 4.64498 5.68267 4.46153C5.90944 4.18635 6.12565 3.90543 6.32079 3.66465H6.32607C6.35243 3.62452 6.40522 3.61878 6.43686 3.65318V3.65891C6.55816 3.76784 6.72688 3.90543 6.91674 4.07169C7.14879 4.02009 7.38088 3.96849 7.61293 3.9169C7.7395 3.8825 7.87134 3.85383 7.99791 3.8137C7.71312 3.79077 7.42834 3.7793 7.14882 3.75064C7.02225 3.73917 6.90097 3.72198 6.7744 3.70478C6.72693 3.69904 6.69001 3.65318 6.70056 3.60158C6.70583 3.54999 6.75326 3.51559 6.80073 3.52132C6.92203 3.53852 7.04336 3.54425 7.16466 3.55572C7.44945 3.57292 7.73952 3.57865 8.02431 3.59585C8.08759 3.60158 8.15616 3.60158 8.22472 3.60158C8.288 3.60158 8.35656 3.60158 8.41985 3.59585L8.55698 3.59012C8.5728 3.59012 8.59916 3.57865 8.61498 3.57865C8.63608 3.57865 8.65188 3.57865 8.66243 3.58438C8.70989 3.60158 8.731 3.63598 8.73627 3.67038C8.74154 3.69331 8.74678 3.73917 8.69932 3.79077C8.65713 3.8309 8.59914 3.87103 8.53058 3.8997C8.40928 3.95129 8.26158 3.98569 8.16665 4.02009C8.00316 4.07742 7.8397 4.12328 7.67621 4.16341C7.50745 4.20928 7.3387 4.24367 7.16994 4.2838C7.5813 4.63352 8.06121 5.04056 8.4673 5.38453L9.92818 4.8055C10.0337 4.75964 10.1972 4.72524 10.3343 4.67365C10.3606 4.66218 10.3817 4.65071 10.4028 4.63925C10.3817 4.56472 10.3395 4.4386 10.2868 4.27807C10.1602 3.88823 9.95455 3.292 9.73832 2.66138C9.62757 2.34033 9.51682 2.00782 9.41134 1.6925C9.22676 1.15361 9.05797 0.660572 8.9314 0.333793C7.97155 0.84976 7.02221 1.40586 6.05709 1.91609C5.62991 2.14541 5.20275 2.36326 4.77029 2.56965C4.27982 2.8047 3.74714 2.94802 3.24085 3.14868C3.11955 3.19454 3.00357 3.24614 2.88754 3.30347C2.88227 3.31493 2.87698 3.3436 2.87698 3.3608C2.87171 3.42959 2.87171 3.50985 2.88226 3.59585C2.89808 3.77357 2.935 3.95129 2.94555 4.00289C3.01411 4.30674 3.14063 4.60485 3.29358 4.8915C3.51508 5.33294 3.79989 5.75144 4.03721 6.13555ZM5.74595 4.68511C5.66157 4.78831 5.5772 4.8915 5.49281 4.99469C5.26076 5.26988 5.02347 5.53359 4.79669 5.75144C4.58046 5.95783 4.35894 6.14702 4.12689 6.33047C3.5995 6.75471 3.04571 7.13882 2.51305 7.56879C2.30737 7.73505 1.89602 8.0561 1.54267 8.34274C1.33699 8.509 1.15243 8.66379 1.04168 8.76125C1.03641 8.76698 1.0364 8.76698 1.03112 8.77272C1.10496 8.81858 1.21042 8.88738 1.34226 8.96764C2.07533 9.42054 3.57841 10.3149 4.52771 10.8366C4.89689 11.0372 5.18165 11.1863 5.2924 11.2207C5.31877 11.1978 5.39263 11.1347 5.45065 11.0716C5.64578 10.8595 5.93582 10.4869 6.22061 10.097C6.57396 9.60973 6.92728 9.09376 7.11187 8.80138C7.23844 8.59499 7.47052 8.30261 7.72894 7.9873C8.21941 7.3968 8.83117 6.72032 9.10014 6.3878C9.13178 6.34767 9.16344 6.31327 9.18454 6.28461C9.13707 6.23875 9.05794 6.16995 8.96301 6.08395C8.50946 5.68265 7.61292 4.9087 6.94313 4.32394C6.85875 4.24941 6.77967 4.18061 6.70583 4.11755C6.58981 4.01435 6.48956 3.92836 6.39991 3.8481C6.27861 3.99716 6.15205 4.16341 6.0202 4.32967C5.93582 4.45006 5.84088 4.56472 5.74595 4.68511ZM7.52853 2.60405C7.24374 2.58111 6.95896 2.56965 6.67944 2.54098C6.55287 2.52952 6.43159 2.51232 6.30501 2.49512C6.25755 2.48939 6.22062 2.44352 6.23117 2.39193C6.23645 2.34033 6.28388 2.30593 6.33134 2.31167C6.45264 2.32886 6.57398 2.3346 6.69528 2.34606C6.98007 2.36326 7.27013 2.369 7.55492 2.38619C7.61821 2.39193 7.68677 2.39193 7.75533 2.39193C7.81862 2.39193 7.88718 2.39193 7.95047 2.38619L8.08759 2.38046C8.10341 2.38046 8.12978 2.36899 8.1456 2.36899C8.16669 2.36899 8.1825 2.36899 8.19304 2.37473C8.24051 2.39193 8.26161 2.42632 8.26689 2.46072C8.27216 2.48365 8.2774 2.52952 8.22993 2.58111C8.18774 2.62125 8.12976 2.66138 8.0612 2.69004C7.9399 2.74164 7.79226 2.77604 7.69733 2.81043C7.53384 2.86776 7.37031 2.91363 7.20155 2.95376C6.95368 3.01682 6.70579 3.06842 6.45791 3.12575C6.19422 3.18308 5.93053 3.2576 5.67211 3.3436C5.06034 3.53852 4.45913 3.78504 3.84736 3.98569C3.80517 4.00289 3.76295 3.97423 3.74712 3.92836C3.7313 3.8825 3.75772 3.83663 3.79991 3.81943C4.40114 3.60158 4.99705 3.3264 5.60354 3.10855C5.86724 3.01682 6.13622 2.93656 6.41047 2.8735C6.65834 2.8219 6.90095 2.7703 7.14882 2.70724C7.2754 2.67857 7.40195 2.64418 7.52853 2.60405ZM5.54554 7.28788C5.55609 7.04709 5.60357 6.76618 5.6985 6.5082C5.76706 6.31901 5.86201 6.14702 5.97803 6.01516C6.1257 5.85464 6.32609 5.78584 6.47903 5.84317C6.58451 5.8833 6.67419 5.98649 6.70583 6.17568C6.72166 6.26741 6.71637 6.3706 6.69528 6.46233C6.66891 6.59419 6.61616 6.72605 6.55287 6.83497C6.46321 7.00123 6.33661 7.13882 6.19422 7.25348C6.0571 7.36241 5.89889 7.43693 5.74067 7.48853C5.74067 7.85544 5.78289 8.22235 5.70378 8.56633C5.65632 8.76125 5.57192 8.95044 5.42425 9.12243C5.15001 9.4492 4.75975 9.4836 4.44859 9.33455C4.13743 9.17976 3.91062 8.83578 3.95281 8.39434C3.95809 8.33128 3.97395 8.26248 3.98977 8.19942C4.00559 8.13636 4.03197 8.0733 4.06361 8.01597C4.21128 7.72932 4.41166 7.57453 4.63317 7.4828C4.90741 7.36814 5.22911 7.36241 5.54554 7.28788ZM5.56666 7.5344C5.27132 7.60319 4.97598 7.61466 4.71229 7.72358C4.53825 7.79811 4.38005 7.9185 4.26402 8.14209C4.24292 8.18795 4.22178 8.22808 4.21123 8.27968C4.19541 8.32554 4.19017 8.37714 4.1849 8.42301C4.14798 8.74405 4.3167 8.9963 4.53821 9.11669C4.76499 9.23709 5.05505 9.21415 5.26601 8.97337C5.44005 8.77845 5.5139 8.5606 5.54554 8.33128C5.57718 8.07329 5.56138 7.80385 5.56666 7.5344ZM5.74067 7.12735C5.75122 7.14455 5.7565 7.16175 5.75123 7.18469C5.75123 7.20188 5.74595 7.21335 5.74595 7.23055C5.8567 7.19042 5.96217 7.13309 6.06237 7.05856C6.18367 6.96683 6.28919 6.85217 6.3683 6.72031C6.41049 6.64579 6.45266 6.55979 6.47903 6.46806C6.50012 6.38207 6.51597 6.29607 6.50014 6.21581C6.48432 6.10689 6.43686 6.04956 6.3683 6.04382C6.28392 6.03809 6.19421 6.08969 6.12038 6.16995C5.9938 6.30754 5.89892 6.50246 5.83563 6.70312C5.78816 6.84644 5.75649 6.98976 5.74067 7.12735ZM8.92612 21.4483C8.26689 22.1133 7.73947 22.6236 7.44413 22.8643C7.30173 22.979 7.20157 23.0363 7.1541 23.0478C7.06972 23.0593 6.99057 23.0421 6.91674 22.9905C6.80071 22.9159 6.69525 22.7783 6.6056 22.6923C6.35245 22.4573 4.11107 20.1412 2.47616 18.4156C1.77474 17.676 1.1788 17.0454 0.909832 16.7358C0.830724 16.6498 0.777964 16.5867 0.756869 16.5523C0.735773 16.5237 0.730468 16.5008 0.725194 16.4893C0.725194 16.4836 0.714639 16.409 0.7832 16.3804C0.793747 16.3746 0.81484 16.3689 0.846484 16.3574C0.951961 16.3173 1.16292 16.2313 1.31587 16.174C1.27368 16.1281 1.2315 16.0822 1.19458 16.0421C1.03109 15.8644 0.91506 15.7383 0.862321 15.6752C0.841225 15.6523 0.830706 15.6408 0.825432 15.6293C0.788515 15.5777 0.809595 15.5319 0.809595 15.5261C0.814869 15.5147 0.825393 15.4917 0.851763 15.4746C0.86231 15.4688 0.888693 15.4516 0.930884 15.4402C1.05218 15.3886 1.31063 15.3026 1.48467 15.2395C1.29481 15.0044 1.16821 14.8382 1.12602 14.7694C1.0891 14.7063 1.10492 14.6605 1.13129 14.6318C1.14712 14.6089 1.18401 14.5859 1.24203 14.5859C1.28949 14.5859 1.36864 14.6031 1.41083 14.5974L1.79581 14.5401C1.70615 14.4369 1.62707 14.3394 1.55851 14.2592C1.41084 14.0814 1.30005 13.9496 1.25258 13.8865C1.23676 13.8693 1.22625 13.8521 1.22097 13.8464C1.15769 13.7661 1.23681 13.6916 1.23681 13.6916C1.25791 13.6801 1.33169 13.6572 1.44772 13.6515C1.80634 13.6285 2.6291 13.6457 2.93499 13.5827C2.70821 13.21 2.51833 12.8833 2.38648 12.6367C2.27046 12.4246 2.19133 12.2641 2.16496 12.1838C2.14386 12.115 2.14919 12.0692 2.15446 12.052C2.16501 12.0233 2.19136 11.9774 2.26519 11.9545C2.32321 11.9373 2.45503 11.9316 2.63434 11.9373C3.33577 11.9488 4.88105 12.0462 6.02548 11.794C7.12773 11.5475 8.01374 11.0602 8.79428 10.3894C9.56426 9.73012 10.2288 8.89884 10.9038 7.9529L10.8986 7.94717C10.8827 7.94717 10.8669 7.94144 10.8511 7.92997C10.8089 7.90131 10.8036 7.83824 10.83 7.79811C10.9355 7.63759 11.0409 7.47707 11.1517 7.31654C11.3152 7.08149 11.484 6.84644 11.6527 6.61712C11.7002 6.54833 11.7845 6.405 11.8689 6.30181C11.9269 6.23875 11.985 6.19288 12.043 6.17568C12.1907 6.13555 12.3383 6.15848 12.4754 6.22728C12.5756 6.27888 12.6759 6.34767 12.7708 6.42793C12.8236 6.33047 12.8921 6.25021 12.9764 6.18142C13.0819 6.10115 13.2138 6.02089 13.3615 5.97503C13.4933 5.92917 13.641 5.9005 13.7886 5.91197C14.0576 5.92917 14.3266 6.04956 14.5217 6.35914C14.527 6.3706 14.5323 6.38207 14.5376 6.39354C14.6325 6.491 14.7063 6.61139 14.759 6.74325C14.912 7.13309 14.8804 7.62612 14.6061 7.9529C14.7221 8.0561 14.8381 8.15355 14.9594 8.25675C14.9647 8.25102 14.9647 8.24528 14.97 8.23955C15.0596 8.08476 15.1862 7.96437 15.3286 7.87264C15.471 7.78091 15.6345 7.72932 15.798 7.71785C16.0828 7.70065 16.3728 7.80384 16.5574 8.06183C16.5785 8.07903 16.6049 8.09622 16.626 8.11916C16.7842 8.26248 16.9002 8.46314 16.9635 8.68672C17.0585 9.04216 17.0163 9.43774 16.779 9.70146C17.0374 9.87344 17.3064 10.0282 17.5859 10.1601C17.6017 10.1658 17.6175 10.183 17.6228 10.2002C17.6491 10.2232 17.665 10.2576 17.6544 10.292C17.6122 10.5843 17.5859 10.8882 17.5595 11.1863C17.5489 11.2838 17.5436 11.3869 17.5331 11.4844C17.5225 11.5876 17.512 11.6851 17.5015 11.7825C17.4751 11.9889 17.4487 12.1953 17.4224 12.3959C17.4487 12.4303 17.4382 12.4819 17.4065 12.5106C17.0848 12.7858 15.6239 14.3624 13.9046 16.2084C14.2422 16.4377 14.8487 16.8734 15.3022 17.2231C15.5501 17.4123 15.7558 17.5785 15.8455 17.6703C15.8824 17.7104 15.9088 17.7391 15.914 17.762C15.9193 17.7792 15.9351 17.8136 15.9193 17.8595C15.914 17.8767 15.893 17.9168 15.8666 17.9741C15.7769 18.1289 15.5818 18.45 15.3234 18.857C14.9067 19.5106 14.3372 20.382 13.8256 21.1616C13.409 21.7923 13.0292 22.3541 12.8077 22.6809C12.6389 22.9274 12.4965 23.2198 12.3383 23.4835C12.2645 23.6039 12.1907 23.7243 12.1116 23.8275C12.101 23.8447 12.0536 23.902 11.9692 23.8619C11.9586 23.8561 11.9322 23.8389 11.8953 23.816C11.7898 23.7472 11.5789 23.5867 11.3099 23.3803C10.5821 22.8471 9.47461 21.9585 8.92612 21.4483ZM1.44772 16.3173C1.31587 16.3746 1.0944 16.4606 0.957279 16.518C0.994196 16.5581 1.03639 16.6097 1.09441 16.667C1.47413 17.0798 2.29685 17.9397 3.19868 18.8799C4.74393 20.4794 6.53178 22.3025 6.75328 22.5089C6.82184 22.5777 6.9062 22.6809 6.99586 22.7497C7.03278 22.7783 7.07496 22.807 7.11715 22.8013C7.1277 22.8013 7.13828 22.7898 7.1541 22.7783C7.19102 22.7554 7.24371 22.7153 7.307 22.6637C7.60234 22.4229 8.12448 21.9127 8.78372 21.2419C8.78899 21.2304 8.79428 21.2132 8.79955 21.2075C8.8101 21.196 8.8259 21.1846 8.84172 21.1789C8.95247 21.0699 9.06323 20.9553 9.17926 20.8349C10.1233 19.866 11.2783 18.6506 12.4174 17.4467C14.6061 15.142 16.742 12.8775 17.2483 12.4189C17.2483 12.4131 17.2483 12.4131 17.2483 12.4074C17.2483 12.3616 17.2483 12.31 17.2536 12.2641C16.953 12.5221 16.4256 13.0266 15.8086 13.6171C14.527 14.8497 12.8762 16.4721 12.2012 17.1314C11.9059 17.418 11.1306 18.2837 10.2762 19.2239C9.6117 19.952 8.89975 20.7259 8.33017 21.3107C7.98737 21.6604 7.69733 21.9413 7.49692 22.1019C7.36507 22.2108 7.25957 22.2624 7.20683 22.2738C7.19101 22.2738 7.14884 22.2738 7.0961 22.2394C7.04863 22.2051 6.96426 22.1305 6.83768 22.0101C6.40522 21.5916 5.51389 20.6686 4.55405 19.6481C3.40961 18.4385 2.17024 17.1027 1.44772 16.3173ZM1.61124 15.3886C1.46357 15.4402 1.19984 15.5319 1.04689 15.5949C1.1471 15.7096 1.33168 15.9045 1.57428 16.1682C2.78728 17.4696 5.46643 20.3074 6.66888 21.5056C6.86929 21.7063 7.03278 21.8611 7.13299 21.9528C7.15936 21.9757 7.18045 21.9929 7.20155 22.0101C7.20682 22.0101 7.20683 22.0044 7.21211 22.0044C7.24902 21.9815 7.30177 21.9471 7.35451 21.9012C7.54965 21.7464 7.82912 21.4712 8.16665 21.1273C8.73096 20.5482 9.44296 19.7743 10.1075 19.0462C10.9671 18.106 11.7529 17.2403 12.0535 16.9537C12.7338 16.3001 14.4004 14.6949 15.6925 13.4737C16.3939 12.8145 16.9899 12.2641 17.2641 12.0462C17.2641 11.9889 17.2641 11.9316 17.2694 11.8685C16.473 12.4074 15.3814 13.382 14.2106 14.5057C13.1136 15.5605 11.9428 16.7473 10.8827 17.8308C10.06 18.6793 9.29532 19.459 8.68882 20.0839C8.09815 20.6858 7.64985 21.1273 7.4178 21.3222C7.35978 21.3738 7.31231 21.4082 7.27539 21.4254C7.24375 21.4426 7.21209 21.454 7.19627 21.454C7.17517 21.454 7.13829 21.454 7.0961 21.4254C7.04863 21.3967 6.95898 21.3164 6.83768 21.2018C6.41577 20.789 5.56138 19.8717 4.63845 18.8455C3.50456 17.5957 2.27575 16.1912 1.61124 15.3886ZM1.9171 14.6777C1.90128 14.6949 1.88547 14.7063 1.86437 14.7063L1.43194 14.7751C1.41612 14.7751 1.38975 14.7751 1.36338 14.7751C1.71146 15.2395 2.94554 16.6441 4.19018 18.0257C5.28187 19.2354 6.38408 20.4278 6.92202 20.9553C7.03804 21.0699 7.12242 21.1502 7.18043 21.1903C7.20153 21.1731 7.23846 21.1502 7.26483 21.1215C7.49161 20.9266 7.93462 20.4852 8.51474 19.8889C9.12124 19.2698 9.8807 18.4844 10.7087 17.6416C11.774 16.5581 12.9554 15.3771 14.0629 14.3337C15.3023 13.1699 16.4519 12.1724 17.2641 11.6564C17.2694 11.5876 17.2747 11.5188 17.28 11.45C17.1587 11.5589 17.011 11.6793 16.8528 11.8169C16.0881 12.459 14.9752 13.3247 14.5006 13.7547C14.0576 14.156 12.5704 15.5835 11.0568 17.0167C10.2393 17.7907 9.41661 18.5646 8.74683 19.1838C8.14033 19.7456 7.65512 20.1813 7.4178 20.3762C7.34396 20.4393 7.28592 20.4794 7.25955 20.4909C7.22791 20.5081 7.20681 20.5081 7.19099 20.5081C7.1699 20.5081 7.14357 20.5024 7.10666 20.4852C7.05392 20.4565 6.95898 20.382 6.8324 20.2673C6.40522 19.866 5.56668 18.9315 4.66484 17.8996C3.67335 16.7645 2.59743 15.4917 1.9171 14.6777ZM3.01411 13.7145C3.00356 13.7375 2.98241 13.7489 2.95604 13.7547C2.87166 13.7719 2.75041 13.7891 2.61329 13.7948C2.24412 13.8177 1.73779 13.8177 1.46355 13.8349C1.56376 13.9553 1.72197 14.1388 1.9171 14.3738C3.04044 15.6981 5.51917 18.599 6.66888 19.78C6.85874 19.9749 7.01695 20.124 7.11715 20.21C7.13824 20.2272 7.15933 20.2386 7.17515 20.2501C7.20152 20.2329 7.23847 20.2042 7.27011 20.1756C7.50744 19.9807 7.98208 19.5507 8.58331 18.9946C9.25309 18.3754 10.0758 17.6015 10.8933 16.8333C12.4174 15.4058 13.9205 13.9954 14.3635 13.5941C14.8434 13.1699 15.9667 12.31 16.742 11.6793C16.9635 11.5016 17.1534 11.3411 17.2958 11.2092C17.3063 11.1003 17.3221 10.9971 17.338 10.8882C17.3591 10.7449 17.3854 10.6015 17.4118 10.4639C17.3063 10.5671 17.2009 10.6703 17.0954 10.7735C16.9899 10.871 16.8844 10.9627 16.7737 11.0544C16.6629 11.1462 16.5522 11.2322 16.4414 11.3182C16.2727 11.45 16.1039 11.5704 15.9299 11.6965C15.8982 11.7195 15.8613 11.7195 15.8296 11.6965C14.9489 12.4017 13.5039 13.726 12.0483 15.0732C10.6032 16.409 9.15817 17.7735 8.26689 18.5704C7.89244 18.9086 7.6182 19.1436 7.4758 19.2468C7.41779 19.287 7.3756 19.3099 7.34923 19.3156C7.31759 19.3271 7.29121 19.3214 7.27011 19.3156C7.11717 19.2583 6.91677 19.1035 6.68472 18.8742C6.20479 18.3926 5.56668 17.5728 4.92854 16.6613C4.2482 15.6752 3.5415 14.5802 3.01411 13.7145ZM11.0357 8.0561C10.3606 9.01923 9.68555 9.86771 8.91028 10.5385C8.10865 11.2322 7.20153 11.7424 6.06237 12.0004C5.59299 12.1093 5.05511 12.1552 4.53299 12.1781C3.67335 12.2125 2.85588 12.1609 2.47616 12.1666C2.44979 12.1666 2.42341 12.1666 2.39704 12.1724C2.43396 12.2526 2.49194 12.3673 2.56578 12.5049C3.01406 13.3247 4.08472 15.0331 5.12895 16.5122C5.66161 17.269 6.18897 17.9627 6.62143 18.4442C6.90622 18.7595 7.14352 18.9831 7.31756 19.0691C7.33338 19.0577 7.35975 19.0405 7.38612 19.0233C7.4916 18.943 7.65511 18.8054 7.87134 18.6162C8.95249 17.6703 11.2361 15.5261 13.198 13.7661C14.1842 12.8775 15.0913 12.0864 15.7136 11.5876C15.4657 11.4041 15.2231 11.215 14.9805 11.0258C14.6483 10.7678 14.3213 10.5098 13.989 10.2518C13.6621 9.99384 13.3351 9.73012 12.9976 9.4836C12.5071 9.11096 11.985 8.77845 11.4892 8.41154C11.3416 8.29688 11.1886 8.17649 11.0357 8.0561ZM12.6706 6.64579C12.6073 6.58846 12.544 6.53113 12.4754 6.48526C12.3541 6.39927 12.2223 6.34767 12.0852 6.38207C12.0535 6.39354 12.0166 6.43367 11.985 6.47953C11.9164 6.57126 11.8478 6.68592 11.8056 6.73751C11.6316 6.96683 11.4629 7.19042 11.2941 7.42547C11.2044 7.55159 11.1148 7.67772 11.0251 7.80384C11.215 7.9529 11.4048 8.09623 11.6 8.23382C12.1063 8.58926 12.6337 8.91031 13.1347 9.27148C13.4247 9.4836 13.7095 9.70719 13.989 9.93078C14.2527 10.1429 14.5112 10.355 14.7696 10.5729C15.1387 10.8824 15.5079 11.1978 15.8824 11.5016C16.0564 11.3525 16.2304 11.2035 16.4045 11.0487C16.531 10.9398 16.6577 10.8251 16.7895 10.7162C16.8739 10.6417 16.9636 10.5729 17.0532 10.5041C17.164 10.4181 17.2694 10.3378 17.3802 10.2518C16.8264 9.99384 16.3043 9.64986 15.8086 9.27148C15.6345 9.13963 15.4657 9.00777 15.3022 8.86444C15.297 8.93324 15.3022 9.00204 15.3075 9.07083C15.3181 9.18549 15.3392 9.30015 15.3708 9.40907C15.4024 9.518 15.4393 9.62693 15.4815 9.73012C15.5237 9.73012 15.5607 9.72439 15.6029 9.71292C15.6451 9.69572 15.6925 9.71292 15.7083 9.75878C15.7242 9.80465 15.7084 9.85051 15.6662 9.87344C15.5501 9.94224 15.4288 9.97091 15.3022 9.95944C15.2179 9.95371 15.1388 9.92504 15.0597 9.87918C15.0069 9.85051 14.9542 9.81038 14.9067 9.75878C14.8118 9.66132 14.7327 9.52947 14.6852 9.37468C14.6694 9.32881 14.6905 9.27148 14.7327 9.24855C14.7801 9.23135 14.8276 9.25428 14.8487 9.30015C14.854 9.31161 14.8593 9.32308 14.8645 9.32881C14.8329 9.15682 14.8065 8.98484 14.8065 8.81285C14.8065 8.69819 14.817 8.58926 14.8434 8.48607C14.7063 8.36568 14.5639 8.25101 14.4268 8.13062C14.1261 7.87264 13.8255 7.61466 13.5144 7.37387L13.1927 7.12162C13.161 7.4828 13.256 7.85544 13.3035 7.9529C13.3035 7.95864 13.3087 7.96437 13.3087 7.96437C13.3298 7.96437 13.3562 7.95864 13.3825 7.9529C13.4247 7.9357 13.467 7.95864 13.4828 8.0045C13.4986 8.05036 13.4775 8.09623 13.4353 8.11342C13.3246 8.17075 13.2191 8.19942 13.1241 8.20515C13.045 8.21089 12.9659 8.19369 12.8974 8.17075C12.8394 8.14782 12.7866 8.11916 12.7444 8.08476C12.6284 7.99303 12.544 7.87264 12.5124 7.74078C12.4966 7.68918 12.5177 7.63759 12.5651 7.62039C12.6126 7.60319 12.66 7.62612 12.6759 7.67772C12.6917 7.71212 12.7128 7.74078 12.7339 7.76945C12.6495 7.51146 12.5915 7.17895 12.6284 6.86937C12.639 6.79484 12.6548 6.72031 12.6706 6.64579ZM13.8414 6.13555C13.8203 6.13555 13.7992 6.13555 13.7728 6.13555C13.6515 6.13555 13.5355 6.16422 13.4248 6.20435C13.3035 6.25021 13.1927 6.31327 13.1083 6.38207C13.0344 6.4394 12.9817 6.50819 12.9395 6.58846C12.9026 6.66298 12.8762 6.74325 12.8551 6.82924C12.8393 6.9095 12.8288 6.98976 12.8288 7.07003C12.8183 7.37387 12.8816 7.68919 12.9712 7.88984C12.9765 7.90704 12.9817 7.92424 12.9817 7.94144C13.0239 7.95863 13.0714 7.96437 13.1241 7.9701C13.0556 7.78091 12.9554 7.36241 13.0081 6.97256C13.0187 6.89804 13.0345 6.82351 13.0608 6.74898C13.0661 6.73751 13.0714 6.72605 13.0767 6.70885C13.1716 6.4566 13.3615 6.24448 13.699 6.15848C13.7465 6.14702 13.7939 6.13555 13.8414 6.13555ZM14.4637 7.83251C14.6747 7.54586 14.68 7.13882 14.5428 6.82924C14.527 6.79484 14.5112 6.76045 14.4901 6.72605C14.4954 6.75471 14.5006 6.78911 14.5059 6.81778C14.5217 6.9267 14.527 7.02416 14.5217 7.11589C14.5164 7.22481 14.4901 7.32801 14.4584 7.414C14.4162 7.5172 14.3635 7.60319 14.2949 7.68918C14.3529 7.74078 14.411 7.78664 14.4637 7.83251ZM13.256 6.86364L13.6621 7.17895C13.8308 7.31081 13.9944 7.44267 14.1578 7.58026C14.1948 7.50573 14.2264 7.42547 14.2475 7.34521C14.2686 7.27068 14.2791 7.19042 14.2897 7.10442C14.295 7.0299 14.3002 6.9439 14.2897 6.85217C14.2791 6.73751 14.2633 6.61139 14.2316 6.46806C14.2 6.45087 14.1684 6.43367 14.1315 6.4222C14.0207 6.38207 13.8941 6.37634 13.7517 6.41073C13.4881 6.4738 13.3404 6.63432 13.2665 6.83497C13.2613 6.84071 13.2612 6.85217 13.256 6.86364ZM15.74 7.95863C15.6345 7.98157 15.529 8.0217 15.4288 8.08476C15.3181 8.15356 15.2179 8.25101 15.1441 8.36567C15.1388 8.37714 15.1282 8.38861 15.1229 8.40007C15.0808 8.4746 15.0544 8.5606 15.0385 8.64659C15.028 8.70392 15.0227 8.76125 15.0227 8.81858C15.0122 9.0823 15.0649 9.36321 15.1018 9.60399C15.1229 9.62119 15.1493 9.63266 15.1757 9.64986C15.2073 9.66706 15.239 9.68426 15.2706 9.69572C15.239 9.62119 15.2126 9.5524 15.1915 9.47787C15.1546 9.35748 15.1282 9.23135 15.1071 9.10523C15.0913 9.00203 15.086 8.88737 15.0966 8.77845C15.0966 8.75552 15.1018 8.73258 15.1071 8.70965C15.1177 8.65806 15.1282 8.60646 15.1493 8.55486C15.1599 8.5262 15.1757 8.4918 15.1915 8.46314C15.2126 8.42301 15.239 8.38287 15.2654 8.34848C15.3075 8.28541 15.3603 8.22808 15.413 8.17649C15.508 8.08476 15.6187 8.01023 15.74 7.95863ZM16.6207 9.59826C16.8158 9.36894 16.8317 9.03643 16.7367 8.74405C16.6998 8.63512 16.6471 8.5262 16.5785 8.4402C16.5944 8.50327 16.6049 8.56633 16.6154 8.62939C16.6313 8.74405 16.6365 8.86444 16.626 8.97337C16.6207 9.05363 16.6049 9.13389 16.5838 9.20269C16.5522 9.31161 16.51 9.40334 16.4573 9.4836C16.51 9.52373 16.5627 9.56386 16.6207 9.59826ZM15.3655 8.61219C15.6767 8.88164 15.9931 9.13962 16.3201 9.38041C16.357 9.29441 16.3729 9.19122 16.3834 9.07656C16.3887 8.9963 16.394 8.91031 16.394 8.83004C16.394 8.72112 16.3887 8.61793 16.3781 8.51473C16.3623 8.40007 16.3465 8.29688 16.3149 8.21089C16.2674 8.18795 16.2199 8.17076 16.1672 8.15929C16.0617 8.13636 15.951 8.14782 15.8507 8.18795C15.7453 8.22808 15.645 8.29115 15.5607 8.36567C15.5185 8.4058 15.4763 8.45167 15.4394 8.49753C15.413 8.53193 15.3866 8.57206 15.3655 8.61219ZM13.7623 16.3517C13.372 16.7702 12.9765 17.1944 12.5704 17.6244C11.4365 18.8341 10.2815 20.0552 9.3375 21.0241C9.2373 21.1273 9.13706 21.2304 9.04213 21.3279C9.69082 21.9127 11.0989 22.9733 11.7371 23.4376C11.8373 23.5122 11.9164 23.5695 11.9744 23.6039C12.0061 23.5638 12.0324 23.5179 12.0588 23.472C12.2434 23.1682 12.4016 22.8299 12.5967 22.5376C12.8393 22.1764 13.2718 21.5286 13.7412 20.8291C14.3688 19.8889 15.0596 18.8513 15.4341 18.2493C15.5554 18.0601 15.645 17.9111 15.6872 17.8308C15.6661 17.8079 15.6345 17.7849 15.5976 17.7505C15.4552 17.6244 15.2231 17.441 14.9647 17.2403C14.5428 16.9135 14.0471 16.5466 13.7623 16.3517ZM7.08554 15.1707C7.07499 15.2108 7.03805 15.2338 6.99586 15.228C6.95367 15.2223 6.92203 15.1764 6.93258 15.1306C6.93258 15.1191 6.93785 15.1076 6.93785 15.0962C6.93785 15.0847 6.93258 15.079 6.93785 15.0675C6.93785 15.056 6.94314 15.0446 6.94841 15.0331C6.9906 14.6949 7.01169 14.3509 7.0697 14.0126C7.09607 13.8521 7.13297 13.6859 7.18043 13.5311C7.27536 13.233 7.40198 12.9463 7.54964 12.6711C7.77115 12.2698 8.03486 11.8914 8.29328 11.5245C8.5517 11.1691 8.81536 10.8079 9.1107 10.4754C9.30583 10.2518 9.51682 10.0454 9.7436 9.85625C10.1497 9.52373 10.8247 9.39761 11.2624 9.61546C11.5736 9.77025 11.7846 10.0856 11.7055 10.6187C11.6949 10.7047 11.6686 10.7907 11.6422 10.871C11.6369 10.8882 11.6316 10.9054 11.6211 10.9226C12.0483 10.8137 12.5018 10.8939 12.8551 11.1232C13.2349 11.3755 13.4933 11.8055 13.4881 12.373C13.4881 12.6081 13.43 12.8317 13.3351 13.0495C13.198 13.3591 12.987 13.6343 12.7708 13.8579C12.3067 14.328 11.716 14.7178 11.0778 14.9872C10.7509 15.1248 10.4133 15.2338 10.0758 15.3083C9.98087 15.3312 9.88598 15.3484 9.79105 15.3599C9.56955 15.3943 9.34804 15.4172 9.13181 15.423C8.91558 15.4287 8.69936 15.4115 8.48313 15.3886C8.01376 15.337 7.54964 15.2338 7.08554 15.1707ZM11.5314 11.1232C11.505 11.1576 11.4629 11.1634 11.4259 11.1462C11.3838 11.1232 11.368 11.0659 11.3891 11.02C11.4207 10.9512 11.4523 10.8824 11.4734 10.8079C11.4945 10.7391 11.5156 10.6646 11.5261 10.5958C11.5789 10.183 11.426 9.93651 11.1834 9.82185C10.8036 9.64413 10.2287 9.76452 9.88594 10.0569C9.66971 10.2404 9.4693 10.441 9.28471 10.6589C8.99992 10.9856 8.74156 11.3411 8.48841 11.6908C8.22999 12.0462 7.96628 12.4131 7.74478 12.803C7.70258 12.8775 7.6604 12.9578 7.61821 13.0323C8.08758 12.6941 8.54115 12.3157 9.0158 11.9889C9.25313 11.8284 9.49045 11.6793 9.73832 11.5417C9.9651 11.4213 10.1918 11.3067 10.4133 11.1806C10.5294 11.1175 10.6454 11.0487 10.7614 10.9799C10.4819 11.0315 10.2024 11.1003 9.9229 11.1462C9.8016 11.1691 9.67498 11.1863 9.55369 11.2035C9.50622 11.2092 9.46406 11.1748 9.45351 11.1232C9.44296 11.0716 9.47989 11.0258 9.52735 11.02C9.64865 11.0028 9.76992 10.9799 9.88594 10.957C10.1655 10.8996 10.445 10.8251 10.7298 10.7678C10.7931 10.7563 10.8564 10.7391 10.9249 10.7219C10.9882 10.7047 11.0515 10.6875 11.1148 10.6646L11.2466 10.6187C11.2572 10.613 11.2836 10.6015 11.2994 10.5958C11.3205 10.5901 11.3363 10.5901 11.3468 10.5901C11.3996 10.5901 11.426 10.6245 11.4418 10.6531C11.4523 10.6761 11.4681 10.7162 11.4365 10.7793C11.4049 10.8309 11.3574 10.8824 11.2994 10.9283C11.1939 11.0143 11.0568 11.0888 10.9777 11.1404C10.83 11.2379 10.6824 11.3296 10.5347 11.4156C10.3132 11.5417 10.0864 11.6621 9.85433 11.7825C9.61173 11.9086 9.37442 12.052 9.14237 12.201C8.59389 12.5565 8.07174 12.9578 7.52853 13.3132C7.51798 13.319 7.50219 13.3247 7.49164 13.3247C7.44945 13.4164 7.41249 13.5139 7.38084 13.6113C7.33338 13.7604 7.29648 13.9095 7.26483 14.0585C7.20682 14.3738 7.17517 14.6949 7.12771 15.0102C7.59181 15.0618 8.05064 15.142 8.51474 15.1822C8.7257 15.1994 8.93141 15.2108 9.14237 15.1994C9.27422 15.1936 9.40606 15.1822 9.53791 15.165C9.45353 15.056 9.40074 14.9242 9.35328 14.7751C9.28999 14.5859 9.24255 14.3796 9.12125 14.2076C9.05269 14.1101 8.95776 14.0585 8.85756 14.0298C8.68352 13.9782 8.48838 13.9954 8.31961 14.0126C8.21941 14.0241 8.19832 13.9438 8.19304 13.9152C8.18777 13.8923 8.1878 13.8464 8.22472 13.8063C8.24054 13.7833 8.3407 13.726 8.37762 13.7031C8.41981 13.6687 8.46728 13.64 8.51474 13.6056C8.56221 13.5769 8.60968 13.5425 8.65715 13.5139C8.80482 13.4279 8.96304 13.3648 9.12125 13.319C9.27947 13.2731 9.44299 13.2444 9.60648 13.2272C9.87544 13.2043 10.1444 13.21 10.4133 13.2272C10.8036 13.2502 11.1992 13.2846 11.5789 13.233C11.8426 13.1986 12.0957 13.124 12.3436 12.975C12.544 12.8546 12.6547 12.6023 12.6547 12.3558C12.6547 12.115 12.5546 11.88 12.312 11.7825C12.2171 11.7424 12.1063 11.7653 12.0008 11.8055C11.8162 11.8742 11.6369 12.0061 11.5051 12.0864C11.4629 12.115 11.4101 12.0978 11.3838 12.052C11.3574 12.0061 11.3732 11.9488 11.4154 11.9201C11.5525 11.8341 11.7424 11.6908 11.9375 11.6163C12.0904 11.5589 12.2434 11.536 12.3805 11.5876C12.7075 11.7137 12.8604 12.029 12.8604 12.3558C12.8604 12.6826 12.7127 13.0151 12.449 13.1814C12.1801 13.3534 11.8953 13.4393 11.6052 13.4795C11.2097 13.5368 10.8036 13.5081 10.3976 13.4852C10.1391 13.4737 9.8754 13.4623 9.62225 13.4852C9.46931 13.4967 9.32165 13.5253 9.17398 13.5655C9.03159 13.6056 8.88917 13.6572 8.75732 13.7375C8.73623 13.7489 8.71513 13.7604 8.69404 13.7776C8.76787 13.7833 8.84173 13.7948 8.91556 13.8177C9.05796 13.8636 9.18978 13.9438 9.28471 14.0814C9.37964 14.2248 9.43244 14.3796 9.47991 14.5343C9.5221 14.6834 9.55896 14.8325 9.62225 14.9586C9.65917 15.0274 9.70136 15.0847 9.75937 15.1306C10.176 15.056 10.6032 14.9299 11.0093 14.7522C11.6158 14.4885 12.1854 14.1273 12.6284 13.6801C12.7972 13.5139 12.9607 13.3075 13.082 13.0839C13.2033 12.8661 13.2824 12.6253 13.2876 12.373C13.2982 11.8914 13.082 11.5245 12.7655 11.3067C12.4386 11.0831 12.0061 11.0143 11.6052 11.129C11.5683 11.1347 11.5472 11.129 11.5314 11.1232ZM13.0503 19.608C12.9659 19.6424 12.8762 19.6711 12.7919 19.694C12.7233 19.7112 12.6547 19.7227 12.5862 19.7284C12.3963 19.7456 12.2487 19.6883 12.1379 19.5965C11.9586 19.4475 11.8848 19.178 11.9112 18.9086C11.9534 18.5016 12.2223 18.1002 12.6442 18.0773C12.7075 18.0716 12.7708 18.083 12.8341 18.0945C12.8921 18.1117 12.9501 18.1346 13.0081 18.1633C13.0714 18.1977 13.1294 18.2378 13.1821 18.2952C13.2349 18.3468 13.2823 18.4098 13.314 18.4786C13.4089 18.6621 13.4353 18.8685 13.4195 19.0749C13.3984 19.3615 13.2929 19.6596 13.1768 19.8947C13.045 20.1584 12.8605 20.4565 12.6337 20.7202C12.4122 20.9782 12.1537 21.2075 11.8795 21.3451C11.4839 21.54 11.0515 21.5515 10.6401 21.196C10.6032 21.1674 10.5979 21.1158 10.6243 21.0757C10.6507 21.0413 10.7034 21.0298 10.735 21.0585C11.0937 21.3508 11.4576 21.3279 11.7846 21.1502C12.0325 21.0183 12.2592 20.8005 12.4543 20.5597C12.66 20.3074 12.8341 20.0208 12.9501 19.7743C12.9976 19.7284 13.0239 19.6711 13.0503 19.608ZM13.1083 19.4418C13.1452 19.3156 13.1769 19.1895 13.1874 19.0577C13.198 18.8971 13.1821 18.7423 13.1136 18.6047C13.0925 18.5589 13.0609 18.5188 13.0292 18.4844C12.9923 18.45 12.9553 18.4156 12.9132 18.3926C12.871 18.3697 12.8288 18.3525 12.7866 18.341C12.7444 18.3296 12.7022 18.3238 12.66 18.3238C12.3489 18.3353 12.159 18.6391 12.1221 18.9373C12.101 19.0978 12.1274 19.2583 12.2065 19.373C12.2803 19.4762 12.4016 19.5335 12.5757 19.5278C12.6337 19.522 12.697 19.5163 12.755 19.4991C12.8446 19.4762 12.9396 19.4475 13.0239 19.4131C13.0503 19.4074 13.0872 19.4188 13.1083 19.4418Z" fill="#133F24"/>
</svg>
