<svg width="28" height="22" viewBox="0 0 28 22" fill="none" xmlns="http://www.w3.org/2000/svg">
<path fill-rule="evenodd" clip-rule="evenodd" d="M0.694965 16.0205C4.85452 10.7973 8.73317 11.531 11.3163 7.45976C13.1268 4.60356 13.9697 1.18721 17.8327 0.737474C22.6868 0.17728 22.8038 5.32947 24.2632 8.46971C25.5274 11.176 28.056 13.2826 26.2376 16.5018C24.7393 19.1528 20.9309 18.6873 18.379 18.5216C15.4759 18.3323 13.2439 19.5473 10.4344 19.8866C8.01519 20.1785 6.40754 19.8393 4.02731 20.1707C1.74072 20.4784 -1.33409 18.5611 0.694965 16.0205Z" fill="#FFF0E0"/>
<path fill-rule="evenodd" clip-rule="evenodd" d="M7.51846 9.91128C9.06402 9.92122 10.6195 10.3536 11.5041 11.2581C12.1601 11.929 12.5974 13.4397 12.8857 15.0946C13.3727 17.9323 13.4224 21.1775 13.4224 21.1775C13.4224 21.2123 13.4125 21.2421 13.3876 21.2669C13.3628 21.2918 13.333 21.3017 13.2982 21.3017C13.2982 21.3017 8.6267 21.3166 5.22745 21.2868C3.38371 21.2719 1.91269 21.2371 1.74372 21.1974C1.7139 21.1924 1.65425 21.1576 1.63437 21.0582C1.61449 20.9688 1.59961 20.77 1.59961 20.4867C1.59961 19.4182 1.75861 17.1073 2.13134 15.03C2.43448 13.3453 2.88178 11.8196 3.49305 11.2034L3.48807 11.1984C4.28819 10.3884 5.79399 9.93613 7.33956 9.91128L7.32463 6.80525C7.32463 6.77543 7.33457 6.75058 7.35445 6.7307C7.37433 6.71083 7.39919 6.70089 7.42901 6.70089C7.42901 6.70089 9.84922 6.72077 12.7266 6.74562C13.3628 6.75059 14.0237 6.76052 14.6847 6.76549C14.6797 6.54186 14.6698 6.06974 14.6648 5.53799C14.6599 5.23981 14.6599 4.92672 14.6599 4.62357C14.6599 4.40988 14.6698 4.20115 14.6698 4.01231C14.6797 3.54516 14.6946 3.19231 14.6996 3.1128C12.6919 3.09292 10.704 3.0631 10.704 3.0631C10.6791 3.0631 10.6543 3.05316 10.6394 3.03825C10.6245 3.02334 10.6145 3.00346 10.6145 2.97862L10.6245 1.56723C10.6245 1.51257 10.6692 1.47281 10.7239 1.47281L18.7797 1.4082C18.8493 1.4082 18.9039 1.46287 18.9039 1.52748L18.9487 3.01837C18.9487 3.05316 18.9387 3.08298 18.9139 3.10783C18.889 3.13268 18.8592 3.14758 18.8244 3.14758C18.8244 3.14758 16.8614 3.13267 14.8686 3.1128C14.8735 3.19231 14.8835 3.54516 14.8984 4.00733C14.9034 4.19618 14.9083 4.40491 14.9083 4.6186C14.9083 4.92175 14.9083 5.23484 14.9034 5.53302C14.8934 6.06477 14.8835 6.53689 14.8785 6.76549C15.3407 6.77046 15.8029 6.77543 16.2601 6.7804C17.3137 6.79531 18.3225 6.81022 19.2021 6.82513C20.9316 6.85495 22.1442 6.87482 22.1442 6.87482C22.1988 6.87482 22.2436 6.91955 22.2436 6.97422L22.2336 9.8765C23.7742 9.90135 25.28 10.3536 26.0801 11.1636L26.0752 11.1686C26.6864 11.7799 27.1337 13.3105 27.4368 14.9952C27.8096 17.0726 27.9686 19.3884 27.9686 20.4569C27.9686 20.7402 27.9587 20.934 27.9338 21.0284C27.9139 21.1278 27.8543 21.1576 27.8245 21.1676C27.6555 21.2123 26.1845 21.2421 24.3407 21.257C20.9415 21.2868 16.27 21.2719 16.27 21.2719C16.2352 21.2719 16.2054 21.257 16.1806 21.2371C16.1557 21.2123 16.1458 21.1825 16.1458 21.1477C16.1458 21.1477 16.1955 17.9025 16.6825 15.0648C16.9658 13.4099 17.4081 11.8942 18.0641 11.2282C18.9487 10.3238 20.5141 9.88644 22.0647 9.88147H22.0696L22.0448 7.08355C21.7217 7.08355 20.6384 7.07361 19.2021 7.06367C18.3225 7.0587 17.3137 7.04876 16.2601 7.03385C15.0922 7.01894 13.8746 7.00404 12.7266 6.98913C10.2021 6.95434 8.02538 6.91955 7.53338 6.90961L7.51846 9.91128ZM1.84809 20.9837C2.16615 21.0185 3.53777 21.0334 5.22745 21.0433C8.2987 21.0632 12.4136 21.0582 13.1739 21.0533C13.164 20.437 13.0795 17.6242 12.662 15.1294C12.3937 13.5242 11.9862 12.0532 11.355 11.4022C10.5052 10.5275 9.00437 10.115 7.50851 10.1051C5.96294 10.0952 4.42732 10.5126 3.62721 11.3227L3.61729 11.3177C3.0259 11.919 2.6134 13.4149 2.33013 15.0598C1.97232 17.1272 1.8282 19.4232 1.83317 20.4867C1.82323 20.7253 1.83318 20.8942 1.84809 20.9837ZM6.37047 12.0631C6.35556 12.0781 6.33072 12.0781 6.31581 12.0631C6.3009 12.0433 6.3009 12.0184 6.31581 11.9985C6.31581 11.9985 6.51955 11.7699 6.85748 11.6109C7.03639 11.5264 7.25009 11.4568 7.48367 11.4519C7.64269 11.4469 7.81664 11.4767 7.99058 11.5413C8.19931 11.6208 8.41797 11.765 8.6416 11.9836C8.65651 11.9985 8.65652 12.0234 8.64658 12.0433C8.63167 12.0582 8.61177 12.0631 8.59189 12.0482C8.37322 11.8495 8.15954 11.7252 7.95579 11.6556C7.79179 11.596 7.63276 11.5761 7.48367 11.5761C7.26003 11.5811 7.06124 11.6358 6.89228 11.7153C6.56925 11.8544 6.37047 12.0631 6.37047 12.0631ZM9.00438 13.5988C8.99444 13.6236 8.97457 13.6336 8.95469 13.6236C8.93482 13.6137 8.91991 13.5888 8.92985 13.564C8.92985 13.564 9.07395 13.1018 9.46158 12.7788C9.66533 12.6098 9.93869 12.4806 10.2915 12.4806C10.4506 12.4806 10.5947 12.5054 10.7239 12.5502C10.878 12.6048 11.0072 12.6794 11.1165 12.7688C11.5041 13.0869 11.6383 13.5441 11.6383 13.5441C11.6433 13.564 11.6333 13.5888 11.6134 13.5988C11.5936 13.6087 11.5737 13.5938 11.5687 13.5739C11.5687 13.5739 11.4296 13.1515 11.0568 12.8682C10.9525 12.7887 10.8332 12.7191 10.6941 12.6744C10.5748 12.6347 10.4456 12.6098 10.2965 12.6098C9.96851 12.6048 9.71506 12.7191 9.52124 12.8732C9.14852 13.1664 9.00438 13.5988 9.00438 13.5988ZM6.20149 13.5988C6.19155 13.6236 6.17168 13.6336 6.1518 13.6236C6.13192 13.6137 6.11702 13.5888 6.12696 13.564C6.12696 13.564 6.27108 13.1018 6.65872 12.7788C6.86247 12.6098 7.13579 12.4806 7.48864 12.4806C7.64767 12.4806 7.79179 12.5054 7.921 12.5502C8.07506 12.6048 8.20426 12.6794 8.31359 12.7688C8.70122 13.0869 8.83543 13.5441 8.83543 13.5441C8.8404 13.564 8.83043 13.5888 8.81056 13.5988C8.79068 13.6087 8.77082 13.5938 8.76585 13.5739C8.76585 13.5739 8.62668 13.1515 8.25396 12.8682C8.14959 12.7887 8.03033 12.7191 7.89118 12.6744C7.77191 12.6347 7.6427 12.6098 7.49361 12.6098C7.16562 12.6048 6.91217 12.7191 6.71835 12.8732C6.34563 13.1664 6.20149 13.5988 6.20149 13.5988ZM11.9961 15.4823V15.4773C11.9912 15.4574 11.9862 15.4177 11.9663 15.358C11.9067 15.1245 11.7377 14.6374 11.3799 14.3144C11.1811 14.1355 10.9276 14.0063 10.5947 14.0063C10.2617 14.0013 10.0033 14.1305 9.80946 14.3094C9.33734 14.7517 9.21807 15.5071 9.21807 15.5071C9.2131 15.532 9.19323 15.5469 9.16839 15.5469C9.14354 15.5419 9.12863 15.522 9.1336 15.4922C9.1336 15.4922 9.24791 14.6971 9.73991 14.2249C9.94864 14.0212 10.2319 13.8771 10.5997 13.882C10.8183 13.887 11.0072 13.9367 11.1662 14.0212C11.3501 14.1156 11.4942 14.2498 11.6134 14.4039C11.8818 14.7418 12.0061 15.1642 12.0508 15.363C12.0607 15.4127 12.0706 15.4525 12.0706 15.4674C12.0806 15.522 11.9961 15.5071 11.9961 15.5021C12.0011 15.4972 11.9961 15.4872 11.9961 15.4823ZM5.74429 15.4823V15.4773C5.73932 15.4574 5.72938 15.4177 5.71447 15.358C5.65483 15.1245 5.48587 14.6374 5.12805 14.3144C4.92927 14.1355 4.67581 14.0063 4.34284 14.0063C4.00987 14.0013 3.75147 14.1305 3.55766 14.3094C3.08554 14.7517 2.96626 15.5071 2.96626 15.5071C2.9613 15.532 2.9414 15.5469 2.91655 15.5469C2.8917 15.5419 2.87679 15.522 2.88176 15.4922C2.88176 15.4922 2.99608 14.6971 3.48807 14.2249C3.6968 14.0212 3.98006 13.8771 4.34781 13.882C4.56648 13.887 4.75533 13.9367 4.91436 14.0212C5.09824 14.1156 5.24234 14.2498 5.36161 14.4039C5.62997 14.7418 5.75422 15.1642 5.79894 15.363C5.80888 15.4127 5.81884 15.4525 5.81884 15.4674C5.82878 15.522 5.74429 15.5071 5.74429 15.5021C5.74926 15.4972 5.74429 15.4872 5.74429 15.4823ZM3.88564 12.0631C3.87073 12.0781 3.84092 12.0781 3.83098 12.0631C3.81607 12.0433 3.81607 12.0184 3.83098 11.9985C3.83098 11.9985 4.03472 11.7699 4.37266 11.6109C4.55156 11.5264 4.76526 11.4568 4.99884 11.4519C5.15787 11.4469 5.33181 11.4767 5.50575 11.5413C5.71448 11.6208 5.93314 11.765 6.15678 11.9836C6.17168 11.9985 6.17169 12.0234 6.16175 12.0433C6.15181 12.0582 6.12694 12.0631 6.11204 12.0482C5.89337 11.8495 5.67969 11.7252 5.47594 11.6507C5.31194 11.591 5.1529 11.5712 4.99884 11.5712C4.7752 11.5761 4.57642 11.6308 4.40745 11.7053C4.08939 11.8544 3.88564 12.0631 3.88564 12.0631ZM8.87022 15.4823V15.4773C8.86525 15.4574 8.85528 15.4177 8.84037 15.358C8.77577 15.1245 8.61177 14.6374 8.25396 14.3144C8.05517 14.1355 7.80171 14.0063 7.47372 14.0063C7.14075 14.0013 6.88235 14.1305 6.68853 14.3094C6.21642 14.7517 6.09714 15.5071 6.09714 15.5071C6.09217 15.532 6.07228 15.5469 6.04743 15.5469C6.02258 15.5419 6.0077 15.522 6.01267 15.4922C6.01267 15.4922 6.12695 14.6971 6.61895 14.2249C6.83265 14.0212 7.11094 13.8771 7.47869 13.882C7.69736 13.887 7.88124 13.9367 8.04524 14.0212C8.22912 14.1156 8.37822 14.2498 8.49252 14.4039C8.76088 14.7418 8.88513 15.1642 8.92985 15.363C8.93979 15.4127 8.94972 15.4525 8.94972 15.4674C8.95966 15.522 8.87516 15.5071 8.87516 15.5021C8.87019 15.4972 8.87022 15.4872 8.87022 15.4823ZM3.39862 13.5988C3.38868 13.6236 3.36879 13.6336 3.34891 13.6236C3.32903 13.6137 3.31413 13.5888 3.32407 13.564C3.32407 13.564 3.46819 13.1018 3.85582 12.7788C4.05958 12.6098 4.3329 12.4806 4.68575 12.4806C4.84478 12.4806 4.98889 12.5054 5.1181 12.5502C5.27216 12.6048 5.40139 12.6794 5.51073 12.7688C5.89836 13.0869 6.03253 13.5441 6.03253 13.5441C6.04247 13.564 6.02758 13.5888 6.01267 13.5988C5.99279 13.6087 5.9729 13.5938 5.96793 13.5739C5.96793 13.5739 5.82876 13.1515 5.45604 12.8682C5.35167 12.7887 5.23241 12.7191 5.09326 12.6744C4.97399 12.6347 4.83982 12.6098 4.6957 12.6098C4.3677 12.6048 4.11425 12.7191 3.92043 12.8732C3.53777 13.1664 3.39862 13.5988 3.39862 13.5988ZM5.92319 18.8815C5.90828 19.3536 5.92319 20.4569 5.92319 20.4569C5.92319 20.4569 5.6747 20.4619 5.6747 20.4569C5.66973 20.442 5.68466 20.1935 5.68963 20.0196C5.69957 19.7512 5.69956 19.3735 5.68465 18.9461L5.29206 18.9113C5.28709 18.9113 5.28211 18.9113 5.27714 18.9064C5.25229 18.9312 5.22746 18.9511 5.20261 18.9759C5.19267 18.9859 5.18273 18.9859 5.17279 18.9809C5.16782 18.9809 5.16781 18.9809 5.16284 18.9809C5.06842 18.9759 4.96902 18.971 4.87957 18.9561C4.81497 18.9461 4.75036 18.9312 4.69072 18.9163C4.63605 18.9014 4.58636 18.8815 4.53666 18.8616C4.482 18.8368 4.43728 18.8119 4.38758 18.7821C4.35279 18.7622 4.32297 18.7374 4.28818 18.7175C4.29315 18.7225 4.29316 18.7324 4.29813 18.7374C4.33292 18.8318 4.3826 18.961 4.43726 19.1051C4.46708 19.1847 4.4969 19.2691 4.52671 19.3487C4.55653 19.4331 4.58637 19.5176 4.61122 19.5971C4.68576 19.8059 4.74041 19.9699 4.74041 19.9699C4.74538 19.9798 4.7454 19.9897 4.73546 19.9997C4.73049 20.0096 4.72053 20.0146 4.71059 20.0196L4.28321 20.119H4.27823C4.27823 20.1488 4.28321 20.1687 4.28321 20.1836C4.28321 20.1885 4.28321 20.1935 4.28321 20.1985C4.28818 20.2531 4.20868 20.2382 4.20868 20.2382L4.23352 20.2482H4.22855C4.21861 20.2482 4.19376 20.2482 4.16394 20.2432C4.01982 20.2333 3.70175 20.2034 3.53278 20.1438C3.48309 20.1239 3.44334 20.104 3.42346 20.0842C3.39365 20.0494 3.38867 20.0146 3.41352 19.9748C3.51788 19.8208 3.60237 19.6319 3.67195 19.4481C3.78128 19.1499 3.84587 18.8517 3.87569 18.7026C3.8409 18.7324 3.80116 18.7573 3.7614 18.7821C3.7117 18.8119 3.66201 18.8368 3.61231 18.8616C3.56262 18.8815 3.51292 18.9014 3.45826 18.9163C3.39862 18.9312 3.33401 18.9461 3.26941 18.9561C3.17498 18.971 3.08056 18.9759 2.98613 18.9809C2.98116 18.9809 2.97618 18.9809 2.97618 18.9809C2.96624 18.9859 2.95631 18.9859 2.94637 18.9759C2.91158 18.9461 2.88176 18.9163 2.84697 18.8865C2.842 18.8865 2.84202 18.8865 2.83705 18.8865L2.53391 18.8815C2.50906 19.6916 2.57862 20.4072 2.57862 20.4072C2.58359 20.4569 2.3699 20.4221 2.3699 20.4221C2.3699 20.4221 2.17112 18.4442 2.56372 17.0129C2.7973 16.1532 3.25947 15.4723 4.07946 15.4127C4.54661 15.3779 4.9094 15.5767 5.17279 15.9146C5.39146 16.1929 5.55048 16.5706 5.65981 16.9881C5.72442 17.2415 5.77411 17.5099 5.80889 17.7832C5.84368 17.5198 5.89337 17.2564 5.95798 17.008C6.19155 16.1482 6.64877 15.4674 7.45882 15.4077C7.92597 15.3729 8.27882 15.5717 8.54718 15.9097C8.76584 16.188 8.91989 16.5657 9.02922 16.9831C9.09383 17.2366 9.14355 17.5049 9.17834 17.7783C9.21312 17.5149 9.26282 17.2515 9.33239 17.003C9.56597 16.1432 10.0281 15.4624 10.8481 15.4028C11.3153 15.368 11.6781 15.5668 11.9415 15.9047C12.1601 16.183 12.3191 16.5607 12.4285 16.9781C12.7118 18.0615 12.677 19.4381 12.6422 20.0693C12.6322 20.2184 12.6124 20.4817 12.6124 20.4817C12.6124 20.4817 12.4633 20.5165 12.4583 20.4619C12.4583 20.4619 12.4633 20.1736 12.4682 20.0047C12.4782 19.7363 12.4782 19.3586 12.4633 18.9312L12.0706 18.8964C12.0657 18.8964 12.0607 18.8964 12.0558 18.8915C12.0309 18.9163 12.0011 18.9362 11.9763 18.961C11.9663 18.971 11.9563 18.971 11.9464 18.966C11.9414 18.966 11.9365 18.966 11.9365 18.966C11.8371 18.961 11.7427 18.9561 11.6532 18.9411C11.5886 18.9312 11.524 18.9163 11.4644 18.9014C11.4097 18.8865 11.36 18.8666 11.3103 18.8467C11.2556 18.8219 11.206 18.797 11.1612 18.7672C11.1264 18.7473 11.0966 18.7225 11.0668 18.7026C11.0718 18.7076 11.0717 18.7175 11.0767 18.7225C11.1115 18.8169 11.1612 18.9461 11.2159 19.0902C11.2457 19.1698 11.2755 19.2542 11.3053 19.3338C11.3352 19.4182 11.365 19.5027 11.3898 19.5822C11.4644 19.791 11.519 19.955 11.519 19.955C11.524 19.9649 11.519 19.9748 11.514 19.9848C11.5091 19.9947 11.4991 19.9997 11.4892 20.0047L11.0618 20.104C11.0569 20.104 11.0568 20.104 11.0519 20.104C11.0568 20.1339 11.0568 20.1537 11.0568 20.1687C11.0568 20.1736 11.0568 20.1786 11.0568 20.1836C11.0618 20.2382 10.9823 20.2233 10.9823 20.2233L11.0072 20.2333H11.0022C10.9923 20.2333 10.9674 20.2333 10.9376 20.2283C10.7935 20.2184 10.4754 20.1885 10.3015 20.1289C10.2518 20.109 10.217 20.0891 10.1971 20.0693C10.1673 20.0345 10.1623 19.9997 10.1872 19.9599C10.2915 19.8059 10.376 19.617 10.4456 19.4331C10.5549 19.135 10.6195 18.8368 10.6493 18.6877C10.6145 18.7175 10.5748 18.7424 10.535 18.7672C10.4853 18.797 10.4357 18.8219 10.386 18.8467C10.3363 18.8666 10.2866 18.8865 10.2319 18.9014C10.1723 18.9163 10.1077 18.9312 10.0431 18.9411C9.94863 18.9561 9.8542 18.961 9.7548 18.966C9.74983 18.966 9.74982 18.966 9.74485 18.966C9.73491 18.971 9.72498 18.971 9.71504 18.961C9.68025 18.9312 9.64549 18.9014 9.61567 18.8716C9.6107 18.8716 9.61069 18.8716 9.60572 18.8716L9.2976 18.8666C9.28766 19.1698 9.23299 20.5712 9.23299 20.5712L9.00438 20.5762C9.00438 20.5762 9.07397 19.3586 9.05409 18.9312L8.66645 18.8964C8.66148 18.8964 8.65652 18.8964 8.65155 18.8915C8.6267 18.9163 8.60184 18.9362 8.577 18.961C8.56706 18.971 8.55712 18.971 8.54718 18.966C8.54221 18.966 8.5422 18.966 8.53723 18.966C8.44281 18.961 8.34838 18.9561 8.25396 18.9411C8.18935 18.9312 8.12972 18.9163 8.07008 18.9014C8.01542 18.8865 7.96572 18.8666 7.91602 18.8467C7.86136 18.8219 7.81664 18.797 7.76694 18.7672C7.73215 18.7473 7.70233 18.7225 7.67251 18.7026C7.67251 18.7076 7.67749 18.7175 7.68246 18.7225C7.71725 18.8169 7.76693 18.9461 7.8216 19.0902C7.85142 19.1698 7.88123 19.2542 7.91105 19.3338C7.94087 19.4182 7.97071 19.5027 7.99555 19.5822C8.0701 19.791 8.1198 19.955 8.1198 19.955C8.12477 19.9649 8.12477 19.9748 8.1198 19.9848C8.11483 19.9947 8.10486 19.9997 8.09492 20.0047L7.66754 20.104H7.66257C7.66754 20.1339 7.66754 20.1537 7.66754 20.1687C7.66754 20.1736 7.66754 20.1786 7.66754 20.1836C7.67251 20.2382 7.59798 20.2233 7.59301 20.2233L7.61786 20.2333H7.61288C7.60294 20.2333 7.57809 20.2333 7.54827 20.2283C7.40912 20.2184 7.08609 20.1885 6.92209 20.1289C6.8724 20.109 6.83762 20.0891 6.81277 20.0693C6.78296 20.0345 6.77798 19.9997 6.80282 19.9599C6.90719 19.8059 6.99168 19.617 7.05628 19.4331C7.16562 19.135 7.23021 18.8368 7.26003 18.6877C7.22524 18.7175 7.18549 18.7424 7.15071 18.7672C7.10101 18.797 7.05132 18.8219 7.00162 18.8467C6.95193 18.8666 6.90223 18.8865 6.84757 18.9014C6.78793 18.9163 6.72333 18.9312 6.66369 18.9411C6.56927 18.9561 6.47484 18.961 6.38042 18.966C6.37545 18.966 6.37544 18.966 6.37047 18.966C6.36053 18.971 6.35059 18.971 6.34065 18.961C6.30586 18.9312 6.27604 18.9014 6.24125 18.8716C6.23628 18.8716 6.23627 18.8716 6.2313 18.8716L5.92319 18.8815ZM7.42403 18.5485C7.43397 18.5535 7.44888 18.5585 7.45882 18.5585C7.46379 18.5585 7.46875 18.5585 7.47372 18.5585C7.49856 18.5535 7.52342 18.5336 7.5433 18.5038C7.55324 18.4889 7.56318 18.469 7.57312 18.4442C7.57809 18.4342 7.57809 18.4293 7.58307 18.4193C7.593 18.3895 7.59797 18.3597 7.60791 18.3249C7.61288 18.3001 7.61289 18.2752 7.61786 18.2504C7.61786 18.2404 7.61786 18.2305 7.61786 18.2206C7.61786 18.1957 7.61785 18.1709 7.61288 18.146C7.61288 18.1261 7.6079 18.1112 7.60293 18.0913C7.59796 18.0615 7.593 18.0317 7.58307 18.0069C7.58307 18.0019 7.57809 17.9969 7.57809 17.9969C7.54827 17.9224 7.49858 17.8677 7.45882 17.8677C7.41907 17.8677 7.3644 17.9224 7.33956 17.9969C7.33956 18.0019 7.33458 18.0069 7.33458 18.0069C7.32464 18.0317 7.31968 18.0615 7.31471 18.0913C7.30974 18.1062 7.30974 18.1261 7.30974 18.141C7.30477 18.1659 7.30477 18.1957 7.30477 18.2206C7.30477 18.2255 7.30477 18.2355 7.30477 18.2404C7.30477 18.2603 7.30974 18.2852 7.30974 18.305C7.31471 18.3398 7.31967 18.3696 7.32961 18.3995C7.33458 18.4144 7.33956 18.4293 7.34453 18.4392C7.3495 18.4541 7.35943 18.469 7.3644 18.479C7.38428 18.5138 7.40415 18.5386 7.42403 18.5485ZM12.3241 17.6739C12.2545 17.2664 12.1552 16.8688 12.0061 16.5358C11.7675 15.9991 11.4097 15.6214 10.8481 15.6612C10.1325 15.7109 9.74983 16.3271 9.53614 17.0775C9.4765 17.2912 9.42681 17.5099 9.39203 17.7385L9.61567 17.7484C9.62064 17.7286 9.62062 17.7087 9.62559 17.6838C9.64546 17.6143 9.71008 17.4304 9.88899 17.4751C9.97845 17.5 10.0729 17.5149 10.1573 17.5496C10.2915 17.6043 10.4158 17.6789 10.5251 17.7484C10.5897 17.7882 10.6493 17.8279 10.709 17.8727C10.7487 17.823 10.7984 17.7932 10.8432 17.7932C10.8829 17.7932 10.9326 17.818 10.9724 17.8627C11.027 17.823 11.0817 17.7882 11.1364 17.7534C11.2457 17.6838 11.37 17.6093 11.5091 17.5546C11.5936 17.5198 11.688 17.5198 11.7725 17.4801C11.9365 17.4105 12.016 17.6192 12.0359 17.6888C12.0359 17.6938 12.0359 17.6938 12.0408 17.6987L12.3241 17.6739ZM7.33458 18.633C7.31967 18.7324 7.26005 19.1002 7.13084 19.4729C7.06126 19.6617 6.97677 19.8556 6.87241 20.0196L6.86743 20.0245L6.87241 20.0295C6.87738 20.0345 6.88233 20.0394 6.8873 20.0394C6.93203 20.0693 7.01154 20.0891 7.10099 20.104C7.26499 20.1339 7.4638 20.1488 7.55822 20.1587C7.55822 20.1339 7.55324 20.0941 7.54827 20.0494C7.53336 19.8804 7.51349 19.5971 7.48864 19.3238C7.46379 19.0505 7.44392 18.7871 7.43398 18.6678C7.40416 18.6628 7.37929 18.6479 7.34948 18.6281L7.33458 18.633ZM9.52619 18.797C9.51128 18.7821 9.50137 18.7622 9.49143 18.7473C9.44173 18.6678 9.42184 18.5833 9.44669 18.4839C9.4616 18.4243 9.49637 18.3647 9.53116 18.305C9.56098 18.2603 9.59579 18.2106 9.61567 18.1659C9.62561 18.146 9.63057 18.1212 9.63554 18.0963C9.64547 18.0118 9.63055 17.9373 9.62061 17.8677C9.62061 17.8578 9.62064 17.8478 9.61567 17.8379H9.3771C9.33238 18.1559 9.30754 18.474 9.29263 18.7772L9.52619 18.797ZM5.55544 17.6739C5.48586 17.2664 5.38646 16.8688 5.23737 16.5358C4.99883 15.9991 4.646 15.6214 4.07946 15.6612C3.36383 15.7109 2.98116 16.3271 2.76747 17.0775C2.70783 17.2912 2.65814 17.5099 2.62336 17.7385L2.84697 17.7484C2.85194 17.7286 2.85195 17.7087 2.86189 17.6838C2.88177 17.6143 2.94639 17.4304 3.12032 17.4751C3.20978 17.5 3.30419 17.5149 3.38867 17.5496C3.52285 17.6043 3.6471 17.6789 3.7614 17.7484C3.826 17.7882 3.88564 17.8279 3.94527 17.8727C3.98503 17.823 4.03474 17.7932 4.07946 17.7932C4.11922 17.7932 4.16892 17.818 4.20868 17.8627C4.26335 17.823 4.31799 17.7882 4.37266 17.7534C4.48199 17.6838 4.60623 17.6093 4.74538 17.5546C4.82986 17.5198 4.92431 17.5198 5.01376 17.4801C5.17776 17.4105 5.25228 17.6192 5.27216 17.6888C5.27216 17.6938 5.27714 17.6938 5.27714 17.6987L5.55544 17.6739ZM2.75752 18.797C2.74261 18.7821 2.73267 18.7622 2.72273 18.7473C2.67303 18.6678 2.65317 18.5833 2.67802 18.4839C2.69293 18.4243 2.7277 18.3647 2.76249 18.305C2.79231 18.2603 2.82709 18.2106 2.84697 18.1659C2.85691 18.146 2.8619 18.1212 2.86687 18.0963C2.87681 18.0118 2.86188 17.9373 2.85194 17.8677C2.85194 17.8578 2.85194 17.8478 2.84697 17.8379H2.60843C2.56371 18.1559 2.53887 18.474 2.52396 18.7772L2.75752 18.797ZM4.27823 17.9919C4.37762 17.9671 4.48201 17.9422 4.5814 17.9174C4.71558 17.8776 4.83982 17.8279 4.94418 17.7633C4.974 17.7484 5.02368 17.6888 5.0535 17.6341C5.05847 17.6242 5.06345 17.6143 5.06842 17.6043V17.5993C5.05848 17.5944 5.03861 17.5944 5.01376 17.5993C4.92928 17.6093 4.84479 17.6341 4.76528 17.6639C4.6311 17.7136 4.51181 17.7832 4.40247 17.8478C4.35278 17.8776 4.30309 17.9075 4.25339 17.9423C4.26333 17.9522 4.26829 17.9721 4.27823 17.9919ZM7.66257 17.9919C7.76196 17.9671 7.86634 17.9422 7.96076 17.9174C8.09494 17.8776 8.21917 17.8279 8.31856 17.7633C8.34838 17.7484 8.39809 17.6888 8.42791 17.6341C8.43288 17.6242 8.43784 17.6143 8.44281 17.6043C8.44281 17.6043 8.44281 17.5993 8.44778 17.5993C8.43784 17.5944 8.41797 17.5944 8.39312 17.5993C8.30864 17.6093 8.22415 17.6341 8.14464 17.6639C8.01543 17.7136 7.89614 17.7832 7.78681 17.8478C7.73711 17.8776 7.68742 17.9075 7.63772 17.9423C7.64269 17.9522 7.65263 17.9721 7.66257 17.9919ZM6.36052 18.9064H6.36549C6.4947 18.8915 6.62392 18.8616 6.74319 18.8268C6.79289 18.8119 6.84258 18.797 6.89228 18.7772C6.96682 18.7473 7.03639 18.7175 7.10597 18.6778C7.1656 18.643 7.22028 18.6032 7.26997 18.5635C7.27991 18.5585 7.28488 18.5485 7.29482 18.5436C7.27991 18.5187 7.26502 18.4839 7.25508 18.4492C7.22526 18.469 7.19544 18.4889 7.16066 18.5088C7.09605 18.5485 7.02646 18.5833 6.95688 18.6132C6.91216 18.633 6.86247 18.6479 6.81277 18.6628C6.7432 18.6827 6.66865 18.6976 6.59411 18.7026C6.5792 18.7076 6.56429 18.6927 6.55932 18.6678C6.55435 18.6479 6.56925 18.6281 6.58416 18.6231C6.6438 18.6082 6.70345 18.5883 6.75812 18.5684C6.81278 18.5485 6.8724 18.5237 6.92707 18.4988C6.99664 18.469 7.06126 18.4342 7.12586 18.3995C7.16065 18.3796 7.19542 18.3597 7.23021 18.3448C7.22524 18.31 7.22029 18.2752 7.22029 18.2404C7.16562 18.2454 7.11592 18.2454 7.06126 18.2454C7.00162 18.2454 6.94199 18.2404 6.88236 18.2355C6.7929 18.2255 6.7084 18.2056 6.61895 18.1858C6.60404 18.1808 6.58914 18.1659 6.59411 18.141C6.59411 18.1212 6.60902 18.1062 6.6289 18.1062C6.6935 18.1112 6.75314 18.1162 6.81775 18.1162C6.85751 18.1162 6.90223 18.1212 6.94199 18.1212C6.96187 18.1212 6.98175 18.1212 7.0066 18.1212C7.05629 18.1212 7.10598 18.1261 7.15071 18.1261C7.17556 18.1261 7.20039 18.1261 7.22523 18.1261C7.2302 18.1062 7.23021 18.0814 7.23518 18.0615C7.12585 18.0416 7.02148 18.0218 6.91712 17.9969C6.77797 17.9621 6.64878 17.9124 6.53447 17.8429C6.50963 17.8279 6.47483 17.7882 6.43508 17.7435C6.40526 17.7037 6.37543 17.654 6.36549 17.6093C6.34064 17.6391 6.33072 17.6689 6.32078 17.6938C6.30587 17.7534 6.31579 17.8081 6.32573 17.8677C6.33567 17.9373 6.34562 18.0069 6.33568 18.0864C6.33071 18.1261 6.32077 18.1609 6.30586 18.1957C6.28101 18.2504 6.24622 18.305 6.21143 18.3547C6.18162 18.3995 6.15676 18.4442 6.14185 18.4939C6.12694 18.5535 6.13691 18.6082 6.16672 18.6628C6.22139 18.7622 6.29094 18.8368 6.36052 18.9064ZM11.0469 17.9919C11.1463 17.9671 11.2507 17.9422 11.3501 17.9174C11.4843 17.8776 11.6085 17.8279 11.7128 17.7633C11.7427 17.7484 11.7923 17.6888 11.8222 17.6341C11.8271 17.6242 11.8321 17.6143 11.8321 17.6043L11.8371 17.5993C11.8272 17.5944 11.8073 17.5944 11.7824 17.5993C11.6979 17.6093 11.6135 17.6341 11.5339 17.6639C11.3998 17.7136 11.2805 17.7832 11.1711 17.8478C11.1165 17.8776 11.0718 17.9075 11.0221 17.9423C11.032 17.9522 11.037 17.9721 11.0469 17.9919ZM3.95025 18.633C3.93534 18.7324 3.87571 19.1002 3.74153 19.4729C3.67195 19.6617 3.58746 19.8556 3.4831 20.0196L3.47812 20.0245L3.4831 20.0295C3.48807 20.0345 3.49302 20.0394 3.49799 20.0394C3.54272 20.0693 3.62223 20.0891 3.71666 20.104C3.88563 20.1339 4.08444 20.1488 4.17886 20.1587C4.17886 20.1339 4.17388 20.0941 4.16891 20.0494C4.154 19.8804 4.12916 19.5971 4.10928 19.3238C4.0894 19.0505 4.0695 18.7871 4.05957 18.6678C4.02975 18.6628 3.99994 18.6479 3.97509 18.6281L3.95025 18.633ZM11.0022 18.5635C11.0072 18.5684 11.0121 18.5684 11.0171 18.5734C11.0668 18.6132 11.1215 18.6529 11.1811 18.6877C11.2457 18.7275 11.3202 18.7573 11.3948 18.7871C11.4445 18.807 11.4942 18.8219 11.5439 18.8368C11.6681 18.8716 11.7924 18.8964 11.9265 18.9163H11.9315C12.0011 18.8467 12.0707 18.7722 12.1104 18.6976C12.1402 18.643 12.1502 18.5883 12.1353 18.5287C12.1203 18.479 12.0905 18.4342 12.0607 18.3895C12.0259 18.3349 11.9912 18.2852 11.9663 18.2305C11.9514 18.1957 11.9415 18.1609 11.9365 18.1212C11.9265 18.0416 11.9414 17.9671 11.9514 17.9025C11.9613 17.8429 11.9713 17.7832 11.9564 17.7286C11.9464 17.6987 11.9365 17.6689 11.9116 17.6441C11.9017 17.6838 11.8719 17.7335 11.8371 17.7783C11.8023 17.823 11.7625 17.8627 11.7377 17.8776C11.6284 17.9472 11.4942 17.9919 11.3501 18.0317C11.2556 18.0566 11.1562 18.0764 11.0568 18.0963C11.0618 18.1162 11.0618 18.141 11.0668 18.1609C11.0817 18.1609 11.1016 18.1609 11.1165 18.1609C11.1662 18.1609 11.2159 18.1559 11.2656 18.1559C11.2854 18.1559 11.3053 18.1559 11.3252 18.1559C11.3699 18.1559 11.4097 18.151 11.4494 18.151C11.514 18.146 11.5737 18.146 11.6383 18.141C11.6532 18.1361 11.6731 18.1559 11.6731 18.1758C11.6781 18.1957 11.6631 18.2156 11.6482 18.2206C11.5588 18.2404 11.4693 18.2603 11.3849 18.2702C11.3252 18.2752 11.2656 18.2802 11.2059 18.2802C11.1612 18.2802 11.1165 18.2802 11.0718 18.2802C11.0718 18.3199 11.0668 18.3597 11.0618 18.3945C11.0916 18.4094 11.1165 18.4243 11.1463 18.4392C11.2109 18.474 11.2805 18.5038 11.3501 18.5386C11.4047 18.5635 11.4594 18.5883 11.519 18.6082C11.5737 18.6281 11.6333 18.6479 11.693 18.6628C11.7079 18.6678 11.7228 18.6827 11.7178 18.7076C11.7178 18.7275 11.7029 18.7424 11.683 18.7424C11.6085 18.7324 11.5339 18.7225 11.4594 18.7026C11.4097 18.6877 11.36 18.6728 11.3153 18.6529C11.2407 18.6231 11.1761 18.5833 11.1066 18.5485C11.0817 18.5336 11.0519 18.5187 11.032 18.5038C11.0221 18.5336 11.0121 18.5585 10.9972 18.5784C11.0121 18.5535 11.0072 18.5585 11.0022 18.5635ZM3.87569 17.9919C3.88066 17.9721 3.89062 17.9572 3.89559 17.9373C3.84092 17.9025 3.78127 17.8627 3.72163 17.8279C3.6123 17.7633 3.49304 17.6938 3.35886 17.6441C3.27934 17.6143 3.19486 17.5894 3.11037 17.5795C3.0905 17.5745 3.07063 17.5795 3.06069 17.5795V17.5844C3.06566 17.5944 3.07061 17.6043 3.07558 17.6143C3.1054 17.6689 3.15511 17.7286 3.18493 17.7435C3.28929 17.8081 3.41353 17.8578 3.54771 17.8975C3.65704 17.9422 3.76636 17.9671 3.87569 17.9919ZM7.56814 18.643C7.56814 18.643 7.56319 18.638 7.55822 18.638C7.54331 18.6529 7.52342 18.6628 7.50851 18.6678C7.51845 18.7871 7.54827 19.0505 7.57312 19.3238C7.59796 19.5922 7.62779 19.8754 7.6427 20.0494V20.0643L8.0204 19.9649C8.00052 19.9053 7.9558 19.781 7.90113 19.6369C7.87131 19.5624 7.8415 19.4779 7.81168 19.3884C7.78186 19.3039 7.75699 19.2194 7.72717 19.1399C7.67748 18.9958 7.63772 18.8616 7.60791 18.7672C7.58803 18.7076 7.57311 18.6628 7.56814 18.643ZM4.0397 18.5485C4.04964 18.5535 4.06455 18.5585 4.07449 18.5585C4.07946 18.5585 4.08441 18.5585 4.08938 18.5585C4.11423 18.5535 4.13909 18.5336 4.15896 18.5038C4.1689 18.4889 4.17884 18.469 4.18878 18.4442C4.19375 18.4342 4.19376 18.4293 4.19873 18.4193C4.20867 18.3895 4.2186 18.3597 4.22357 18.3249C4.22854 18.3001 4.23352 18.2752 4.23352 18.2504C4.23352 18.2404 4.23352 18.2305 4.23352 18.2206C4.23352 18.1957 4.23352 18.1709 4.22855 18.146C4.22855 18.1261 4.22357 18.1112 4.22357 18.0913C4.2186 18.0615 4.20867 18.0317 4.19873 18.0069C4.19873 18.0019 4.19376 17.9969 4.19376 17.9969C4.16394 17.9224 4.11425 17.8677 4.07449 17.8677C4.03473 17.8677 3.98007 17.9224 3.95522 17.9969C3.95522 18.0019 3.95025 18.0069 3.95025 18.0069C3.94031 18.0317 3.93535 18.0615 3.93038 18.0913C3.92541 18.1062 3.9254 18.1261 3.92043 18.141C3.92043 18.1659 3.91546 18.1957 3.92043 18.2206C3.92043 18.2255 3.92043 18.2355 3.92043 18.2404C3.92043 18.2603 3.92541 18.2852 3.92541 18.305C3.93037 18.3398 3.93533 18.3696 3.94527 18.3995C3.95024 18.4144 3.95523 18.4293 3.9602 18.4392C3.96517 18.4541 3.97012 18.469 3.98006 18.479C3.99994 18.5138 4.01982 18.5386 4.0397 18.5485ZM2.96626 18.9064H2.97121C3.10042 18.8915 3.22964 18.8616 3.35388 18.8268C3.40358 18.8119 3.45327 18.797 3.50297 18.7772C3.57751 18.7473 3.65205 18.7175 3.71666 18.6778C3.77629 18.643 3.83097 18.6032 3.88066 18.5635C3.8906 18.5585 3.89557 18.5485 3.90551 18.5436C3.8906 18.5187 3.87571 18.4839 3.86577 18.4492C3.83595 18.469 3.80613 18.4889 3.77135 18.5088C3.70674 18.5485 3.63714 18.5833 3.5626 18.6132C3.51787 18.633 3.46819 18.6479 3.41849 18.6628C3.34892 18.6827 3.27436 18.6976 3.19485 18.7026C3.17994 18.7076 3.16503 18.6927 3.16006 18.6678C3.16006 18.6479 3.17002 18.6281 3.18493 18.6231C3.24457 18.6082 3.30419 18.5883 3.35886 18.5684C3.41849 18.5485 3.47317 18.5237 3.52784 18.4988C3.59741 18.469 3.66698 18.4342 3.73158 18.3995C3.76637 18.3796 3.80117 18.3597 3.83595 18.3448C3.83099 18.31 3.82601 18.2752 3.82601 18.2404C3.77134 18.2454 3.72164 18.2454 3.66697 18.2454C3.60734 18.2454 3.54771 18.2404 3.48807 18.2355C3.39862 18.2255 3.31412 18.2056 3.22467 18.1858C3.20976 18.1808 3.19485 18.1659 3.19982 18.141C3.19982 18.1212 3.21474 18.1062 3.23462 18.1062C3.29922 18.1112 3.35886 18.1162 3.42346 18.1162C3.46322 18.1162 3.50795 18.1212 3.54771 18.1212C3.56758 18.1212 3.59244 18.1212 3.61231 18.1212C3.66201 18.1212 3.7117 18.1261 3.7614 18.1261C3.78625 18.1261 3.81111 18.1261 3.83595 18.1261C3.84092 18.1062 3.8409 18.0814 3.84587 18.0615C3.73654 18.0416 3.62723 18.0218 3.52286 17.9969C3.38371 17.9621 3.24952 17.9124 3.14019 17.8429C3.11534 17.8279 3.07558 17.7882 3.04079 17.7435C3.006 17.7037 2.98115 17.654 2.97121 17.6093C2.94636 17.6391 2.93644 17.6689 2.9265 17.6938C2.91159 17.7534 2.92153 17.8081 2.93147 17.8677C2.94141 17.9373 2.95134 18.0069 2.94637 18.0864C2.9414 18.1261 2.93146 18.1609 2.91655 18.1957C2.8917 18.2504 2.85691 18.305 2.82213 18.3547C2.79231 18.3995 2.76251 18.4442 2.7476 18.4939C2.72772 18.5535 2.74262 18.6082 2.77244 18.6628C2.82711 18.7622 2.89669 18.8368 2.96626 18.9064ZM9.73493 18.9064H9.73991C9.86912 18.8915 9.99831 18.8616 10.1226 18.8268C10.1722 18.8119 10.2219 18.797 10.2716 18.7772C10.3462 18.7473 10.4208 18.7175 10.4854 18.6778C10.545 18.643 10.5996 18.6032 10.6493 18.5635C10.6593 18.5585 10.6642 18.5485 10.6742 18.5436C10.6593 18.5187 10.6444 18.4839 10.6344 18.4492C10.6046 18.469 10.5748 18.4889 10.54 18.5088C10.4754 18.5485 10.4058 18.5833 10.3313 18.6132C10.2865 18.633 10.2369 18.6479 10.1872 18.6628C10.1176 18.6827 10.043 18.6976 9.96352 18.7026C9.94861 18.7076 9.92873 18.6927 9.92873 18.6678C9.92873 18.643 9.93869 18.6281 9.9536 18.6231C10.0132 18.6082 10.0729 18.5883 10.1275 18.5684C10.1872 18.5485 10.2418 18.5237 10.2965 18.4988C10.3661 18.469 10.4356 18.4342 10.5003 18.3995C10.535 18.3796 10.5698 18.3597 10.6046 18.3448C10.5997 18.31 10.5947 18.2752 10.5947 18.2404C10.54 18.2454 10.4903 18.2454 10.4356 18.2454C10.376 18.2454 10.3164 18.2404 10.2567 18.2355C10.1673 18.2255 10.0778 18.2056 9.98839 18.1858C9.97348 18.1808 9.95855 18.1659 9.96352 18.141C9.96849 18.1212 9.9834 18.1062 9.99831 18.1062C10.0629 18.1112 10.1275 18.1162 10.1872 18.1162C10.2319 18.1162 10.2716 18.1212 10.3114 18.1212C10.3313 18.1212 10.3512 18.1212 10.376 18.1212C10.4257 18.1212 10.4754 18.1261 10.5201 18.1261C10.545 18.1261 10.5698 18.1261 10.5947 18.1261C10.5996 18.1062 10.5997 18.0814 10.6046 18.0615C10.4953 18.0416 10.3909 18.0218 10.2866 17.9969C10.1474 17.9621 10.0132 17.9124 9.90389 17.8429C9.87904 17.8279 9.83927 17.7882 9.80449 17.7435C9.7697 17.7037 9.74487 17.654 9.73493 17.6093C9.71009 17.6391 9.70013 17.6689 9.69019 17.6938C9.67529 17.7534 9.68523 17.8081 9.69517 17.8677C9.70511 17.9373 9.71506 18.0069 9.70512 18.0864C9.70015 18.1261 9.69021 18.1609 9.6753 18.1957C9.65045 18.2504 9.62061 18.305 9.58582 18.3547C9.556 18.3995 9.5262 18.4442 9.51129 18.4939C9.49142 18.5535 9.50632 18.6082 9.53614 18.6628C9.59577 18.7622 9.66039 18.8368 9.73493 18.9064ZM8.72111 18.8368L9.04415 18.8467C9.02924 18.5436 8.99942 18.2156 8.95469 17.8926C8.94973 17.8528 8.94474 17.818 8.93977 17.7783L8.6565 17.7932C8.6565 17.823 8.65155 17.8478 8.65155 17.8776C8.64161 17.9472 8.6267 18.0218 8.6416 18.1062C8.64657 18.1311 8.65153 18.151 8.66147 18.1758C8.68135 18.2255 8.71616 18.2702 8.74598 18.315C8.78077 18.3696 8.81554 18.4293 8.83045 18.4939C8.8553 18.5883 8.83541 18.6778 8.78571 18.7573C8.76583 18.7821 8.74098 18.807 8.72111 18.8368ZM4.23352 18.5635C4.23849 18.5684 4.24344 18.5684 4.24841 18.5734C4.29811 18.6132 4.35279 18.6529 4.41242 18.6877C4.47703 18.7275 4.55157 18.7573 4.62611 18.7871C4.67581 18.807 4.7255 18.8219 4.7752 18.8368C4.89944 18.8716 5.02369 18.8964 5.15787 18.9163H5.16284C5.23242 18.8467 5.30199 18.7722 5.34174 18.6976C5.37156 18.643 5.38647 18.5883 5.36659 18.5287C5.35168 18.479 5.32188 18.4342 5.29206 18.3895C5.25727 18.3349 5.22248 18.2852 5.19764 18.2305C5.18273 18.1957 5.17279 18.1609 5.16782 18.1212C5.15788 18.0416 5.17277 17.9671 5.18271 17.9025C5.19265 17.8429 5.2026 17.7832 5.18769 17.7286C5.17775 17.6987 5.16783 17.6689 5.14298 17.6441C5.13304 17.6838 5.10321 17.7335 5.07339 17.7783C5.03861 17.823 4.99884 17.8627 4.974 17.8776C4.86466 17.9472 4.73047 17.9919 4.59132 18.0317C4.49193 18.0566 4.39255 18.0764 4.29315 18.0963C4.29812 18.1162 4.3031 18.141 4.3031 18.1609C4.31801 18.1609 4.33788 18.1609 4.35279 18.1609C4.40248 18.1609 4.45218 18.1559 4.50187 18.1559C4.52175 18.1559 4.54163 18.1559 4.56648 18.1559C4.60624 18.1559 4.65096 18.151 4.69072 18.151C4.75533 18.146 4.81497 18.146 4.87957 18.141C4.89448 18.1361 4.91436 18.1559 4.91436 18.1758C4.91933 18.1957 4.90443 18.2156 4.88952 18.2206C4.80007 18.2404 4.7106 18.2603 4.62611 18.2702C4.56648 18.2752 4.50685 18.2802 4.44721 18.2802C4.40249 18.2802 4.35775 18.2802 4.31302 18.2802C4.31302 18.3199 4.30807 18.3597 4.3031 18.3945C4.33292 18.4094 4.36273 18.4243 4.38758 18.4392C4.45218 18.474 4.52175 18.5038 4.59132 18.5386C4.64599 18.5635 4.70067 18.5883 4.7603 18.6082C4.81497 18.6281 4.87459 18.6479 4.93423 18.6628C4.94914 18.6678 4.96404 18.6827 4.95907 18.7076C4.9541 18.7275 4.93922 18.7424 4.92431 18.7424C4.84977 18.7324 4.77521 18.7225 4.70067 18.7026C4.65097 18.6877 4.60126 18.6728 4.55653 18.6529C4.48199 18.6231 4.41739 18.5833 4.34781 18.5485C4.32297 18.5336 4.29317 18.5187 4.27329 18.5038C4.26335 18.5336 4.2534 18.5585 4.2385 18.5784C4.24347 18.5535 4.23849 18.5585 4.23352 18.5635ZM6.1518 18.797C6.13689 18.7821 6.12695 18.7622 6.11701 18.7473C6.06731 18.6678 6.04745 18.5833 6.0723 18.4839C6.08721 18.4243 6.12199 18.3647 6.15678 18.305C6.18659 18.2603 6.2164 18.2106 6.24125 18.1659C6.25119 18.146 6.25618 18.1212 6.26115 18.0963C6.27109 18.0118 6.25617 17.9373 6.2512 17.8677C6.2512 17.8578 6.24623 17.8478 6.24623 17.8379H6.00769C5.96297 18.1559 5.9381 18.474 5.92816 18.7772L6.1518 18.797ZM7.265 17.9919C7.26997 17.9721 7.27993 17.9572 7.2849 17.9373C7.23023 17.9025 7.17058 17.8627 7.11592 17.8279C7.01155 17.7633 6.88733 17.6938 6.75812 17.6441C6.6786 17.6143 6.59412 17.5894 6.50963 17.5795C6.48478 17.5745 6.46986 17.5795 6.45992 17.5795C6.45992 17.5795 6.45992 17.5844 6.46489 17.5844C6.46986 17.5944 6.46987 17.6043 6.47484 17.6143C6.50466 17.6689 6.55434 17.7286 6.58416 17.7435C6.68852 17.8081 6.81278 17.8578 6.94199 17.8975C7.04635 17.9422 7.15567 17.9671 7.265 17.9919ZM10.8084 18.5485C10.8183 18.5535 10.8332 18.5585 10.8432 18.5585C10.8481 18.5585 10.8531 18.5585 10.8581 18.5585C10.8829 18.5535 10.9078 18.5336 10.9276 18.5038C10.9376 18.4889 10.9475 18.469 10.9575 18.4442C10.9624 18.4342 10.9624 18.4293 10.9674 18.4193C10.9773 18.3895 10.9823 18.3597 10.9922 18.3249C10.9972 18.3001 10.9972 18.2752 11.0022 18.2504C11.0022 18.2404 11.0022 18.2305 11.0022 18.2206C11.0022 18.1957 11.0022 18.1709 10.9972 18.146C10.9972 18.1261 10.9922 18.1112 10.9922 18.0913C10.9873 18.0615 10.9773 18.0317 10.9674 18.0069C10.9674 18.0019 10.9624 17.9969 10.9624 17.9969C10.9326 17.9224 10.8829 17.8677 10.8432 17.8677C10.8034 17.8677 10.7487 17.9224 10.7239 17.9969C10.7239 18.0019 10.7189 18.0069 10.7189 18.0069C10.709 18.0317 10.704 18.0615 10.699 18.0913C10.699 18.1062 10.6941 18.1261 10.6941 18.141C10.6941 18.1659 10.6891 18.1957 10.6891 18.2206C10.6891 18.2255 10.6891 18.2355 10.6891 18.2404C10.6891 18.2603 10.6941 18.2852 10.6941 18.305C10.699 18.3398 10.704 18.3696 10.7139 18.3995C10.7189 18.4144 10.7239 18.4293 10.7289 18.4392C10.7338 18.4541 10.7388 18.469 10.7487 18.479C10.7686 18.5138 10.7885 18.5386 10.8084 18.5485ZM5.34672 18.8368L5.6747 18.8467C5.65979 18.5436 5.62998 18.2156 5.58525 17.8926C5.58028 17.8528 5.57533 17.818 5.57036 17.7783L5.28211 17.7932C5.28211 17.823 5.28211 17.8478 5.27714 17.8776C5.2672 17.9472 5.2523 18.0218 5.26224 18.1062C5.26721 18.1311 5.27217 18.151 5.28211 18.1758C5.30199 18.2255 5.33677 18.2702 5.36659 18.315C5.40137 18.3696 5.43618 18.4293 5.45109 18.4939C5.47594 18.5883 5.45605 18.6778 5.40635 18.7573C5.39144 18.7821 5.37157 18.807 5.34672 18.8368ZM10.9525 18.643C10.9525 18.643 10.9475 18.638 10.9426 18.638C10.9276 18.6529 10.9078 18.6628 10.8879 18.6678C10.8978 18.7871 10.9276 19.0505 10.9525 19.3238C10.9823 19.5922 11.0071 19.8754 11.0221 20.0494V20.0643L11.3998 19.9649C11.3799 19.9053 11.3302 19.781 11.2805 19.6369C11.2507 19.5624 11.2209 19.4779 11.191 19.3884C11.1612 19.3039 11.1364 19.2194 11.1066 19.1399C11.0569 18.9958 11.0121 18.8616 10.9823 18.7672C10.9724 18.7076 10.9574 18.6628 10.9525 18.643ZM8.92488 17.6739C8.8553 17.2664 8.75591 16.8688 8.61179 16.5358C8.37821 15.9991 8.02537 15.6214 7.46877 15.6612C6.75811 15.7109 6.38039 16.3271 6.17167 17.0775C6.11203 17.2912 6.06732 17.5099 6.03253 17.7385L6.25618 17.7484C6.25618 17.7286 6.26112 17.7087 6.26609 17.6838C6.28597 17.6143 6.35059 17.4304 6.52453 17.4751C6.61398 17.5 6.70345 17.5149 6.78793 17.5496C6.92211 17.6043 7.04635 17.6789 7.15568 17.7484C7.22029 17.7882 7.27992 17.8279 7.33956 17.8727C7.37931 17.823 7.42899 17.7932 7.47372 17.7932C7.51347 17.7932 7.56318 17.818 7.60293 17.8627C7.6576 17.823 7.71227 17.7882 7.76694 17.7534C7.87627 17.6838 8.00051 17.6093 8.13469 17.5546C8.21917 17.5198 8.30864 17.5198 8.3981 17.4801C8.56209 17.4105 8.63662 17.6192 8.6565 17.6888C8.6565 17.6938 8.66147 17.6938 8.66147 17.6987L8.92488 17.6739ZM7.61786 18.5635C7.62283 18.5684 7.62781 18.5684 7.62781 18.5734C7.6775 18.6132 7.73215 18.6529 7.79178 18.6877C7.85639 18.7275 7.93093 18.7573 8.00547 18.7871C8.05517 18.807 8.10489 18.8219 8.15459 18.8368C8.27386 18.8716 8.40304 18.8964 8.53226 18.9163H8.53723C8.60681 18.8467 8.67637 18.7722 8.71613 18.6976C8.74595 18.643 8.75591 18.5883 8.741 18.5287C8.73106 18.479 8.70124 18.4342 8.67142 18.3895C8.63663 18.3349 8.60184 18.2852 8.577 18.2305C8.56209 18.1957 8.55215 18.1609 8.54718 18.1212C8.53724 18.0416 8.55213 17.9671 8.56207 17.9025C8.57201 17.8429 8.58196 17.7832 8.56705 17.7286C8.55711 17.6987 8.54719 17.6689 8.52234 17.6441C8.5124 17.6838 8.48257 17.7335 8.45275 17.7783C8.41797 17.823 8.3782 17.8627 8.35336 17.8776C8.24402 17.9472 8.10983 17.9919 7.97068 18.0317C7.87626 18.0566 7.77688 18.0764 7.67749 18.0963C7.68246 18.1162 7.68744 18.141 7.68744 18.1609C7.70235 18.1609 7.72221 18.1609 7.73712 18.1609C7.78682 18.1609 7.83651 18.1559 7.88123 18.1559C7.90111 18.1559 7.92099 18.1559 7.94584 18.1559C7.9856 18.1559 8.03032 18.151 8.07008 18.151C8.12972 18.146 8.19433 18.146 8.25893 18.141C8.27384 18.1361 8.28875 18.1559 8.29372 18.1758C8.29869 18.1957 8.28379 18.2156 8.26888 18.2206C8.17943 18.2404 8.09493 18.2603 8.00547 18.2702C7.94584 18.2752 7.88621 18.2802 7.82657 18.2802C7.78185 18.2802 7.73711 18.2802 7.69238 18.2802C7.69238 18.3199 7.68743 18.3597 7.68246 18.3945C7.71228 18.4094 7.73712 18.4243 7.76694 18.4392C7.83155 18.474 7.89616 18.5038 7.96574 18.5386C8.0204 18.5635 8.07505 18.5883 8.13469 18.6082C8.18936 18.6281 8.24901 18.6479 8.30865 18.6628C8.32355 18.6678 8.33846 18.6827 8.33349 18.7076C8.32852 18.7275 8.31361 18.7424 8.2987 18.7424C8.22415 18.7324 8.14961 18.7225 8.08003 18.7026C8.03033 18.6877 7.98065 18.6728 7.93592 18.6529C7.86635 18.6231 7.79675 18.5833 7.73215 18.5485C7.7073 18.5336 7.6775 18.5187 7.65762 18.5038C7.64768 18.5336 7.63774 18.5585 7.62283 18.5784C7.62283 18.5535 7.62283 18.5585 7.61786 18.5635ZM10.7189 18.633C10.704 18.7324 10.6444 19.1002 10.5102 19.4729C10.4406 19.6617 10.3561 19.8556 10.2468 20.0196V20.0245C10.2468 20.0245 10.2468 20.0295 10.2518 20.0295C10.2567 20.0345 10.2617 20.0394 10.2667 20.0394C10.3114 20.0693 10.3959 20.0891 10.4854 20.104C10.6494 20.1339 10.8531 20.1488 10.9475 20.1587C10.9426 20.1339 10.9426 20.0941 10.9376 20.0494C10.9227 19.8804 10.8978 19.5971 10.8779 19.3238C10.8581 19.0505 10.8332 18.7871 10.8233 18.6678C10.7935 18.6628 10.7636 18.6479 10.7388 18.6281L10.7189 18.633ZM10.6444 17.9919C10.6493 17.9721 10.6593 17.9572 10.6643 17.9373C10.6096 17.9025 10.5499 17.8627 10.4903 17.8279C10.381 17.7633 10.2617 17.6938 10.1275 17.6441C10.048 17.6143 9.96353 17.5894 9.87904 17.5795C9.8542 17.5745 9.83929 17.5795 9.82438 17.5795L9.82936 17.5844C9.83433 17.5944 9.83928 17.6043 9.84425 17.6143C9.87407 17.6689 9.92378 17.7286 9.9536 17.7435C10.058 17.8081 10.1822 17.8578 10.3164 17.8975C10.4257 17.9422 10.535 17.9671 10.6444 17.9919ZM4.18381 18.643L4.17886 18.638C4.16395 18.6529 4.14405 18.6628 4.12417 18.6678C4.13411 18.7871 4.16393 19.0505 4.18878 19.3238C4.2186 19.5922 4.24345 19.8754 4.25836 20.0494V20.0643L4.63606 19.9649C4.61618 19.9053 4.56649 19.781 4.5168 19.6369C4.48698 19.5624 4.45716 19.4779 4.42735 19.3884C4.39753 19.3039 4.36769 19.2194 4.34284 19.1399C4.29314 18.9958 4.24842 18.8616 4.22357 18.7672C4.20369 18.7076 4.18878 18.6628 4.18381 18.643ZM12.1154 18.8368L12.4434 18.8467C12.4285 18.5436 12.3987 18.2156 12.3539 17.8926C12.349 17.8528 12.344 17.818 12.3341 17.7783L12.0458 17.7932C12.0458 17.823 12.0458 17.8478 12.0408 17.8776C12.0309 17.9472 12.016 18.0218 12.0309 18.1062C12.0359 18.1311 12.0408 18.151 12.0508 18.1758C12.0707 18.2255 12.1054 18.2702 12.1353 18.315C12.17 18.3696 12.2049 18.4293 12.2198 18.4939C12.2446 18.5883 12.2247 18.6778 12.175 18.7573C12.1601 18.7821 12.1402 18.807 12.1154 18.8368ZM8.8553 12.0582C8.84039 12.0731 8.81057 12.0731 8.79566 12.0582C8.78075 12.0383 8.78076 12.0135 8.80064 11.9936C8.80064 11.9936 9.00935 11.7699 9.34729 11.6109C9.52619 11.5264 9.7399 11.4618 9.97844 11.4618C10.1375 11.4618 10.3114 11.4867 10.4854 11.5562C10.6941 11.6407 10.9127 11.7848 11.1314 12.0085C11.1463 12.0234 11.1463 12.0482 11.1364 12.0681C11.1215 12.083 11.1016 12.088 11.0867 12.0731C10.868 11.8693 10.6543 11.7451 10.4555 11.6705C10.2915 11.6109 10.1275 11.5861 9.97844 11.5861C9.75481 11.5861 9.55602 11.6407 9.38705 11.7153C9.05906 11.8544 8.8553 12.0582 8.8553 12.0582ZM10.7984 2.90904C11.2159 2.90904 12.9901 2.90407 14.7642 2.90407C16.4887 2.90407 18.2181 2.90904 18.6952 2.90904L18.6604 1.66663L10.8233 1.67656L10.7984 2.90904ZM27.7201 20.9588C27.735 20.8694 27.745 20.6954 27.745 20.4619C27.7499 19.3984 27.6058 17.1024 27.248 15.035C26.9647 13.39 26.5473 11.8942 25.9608 11.2928L25.9559 11.2978C25.1508 10.4878 23.6152 10.0703 22.0696 10.0803C20.5738 10.0902 19.0729 10.5027 18.2231 11.3773C17.5919 12.0284 17.1844 13.4994 16.9161 15.1046C16.4936 17.5993 16.4141 20.4122 16.4042 21.0284C17.1695 21.0284 21.2794 21.0383 24.3507 21.0185C26.0304 21.0085 27.4021 20.9936 27.7201 20.9588ZM23.8189 15.4574C23.8189 15.4624 23.8189 15.4674 23.8139 15.4773C23.8139 15.4773 23.7345 15.4972 23.7394 15.4425C23.7444 15.4226 23.7494 15.3878 23.7593 15.3381C23.804 15.1394 23.9283 14.7219 24.1966 14.379C24.3159 14.2299 24.465 14.0908 24.6439 13.9963C24.8079 13.9119 24.9967 13.8622 25.2104 13.8572C25.5782 13.8522 25.8615 13.9963 26.0702 14.2001C26.5572 14.6722 26.6765 15.4674 26.6765 15.4674C26.6814 15.4922 26.6665 15.5171 26.6417 15.522C26.6168 15.527 26.597 15.5071 26.592 15.4823C26.592 15.4823 26.4727 14.7269 25.9956 14.2846C25.8018 14.1007 25.5484 13.9765 25.2104 13.9814C24.8775 13.9864 24.624 14.1106 24.4252 14.2896C24.0674 14.6126 23.8985 15.0996 23.8388 15.3332C23.8239 15.3928 23.814 15.4326 23.809 15.4525C23.8189 15.4525 23.8189 15.4574 23.8189 15.4574ZM20.693 15.4574C20.693 15.4624 20.693 15.4674 20.688 15.4773C20.688 15.4773 20.6035 15.4972 20.6135 15.4425C20.6185 15.4226 20.6234 15.3878 20.6334 15.3381C20.6781 15.1394 20.8024 14.7219 21.0707 14.379C21.19 14.2299 21.3391 14.0908 21.518 13.9963C21.682 13.9119 21.8659 13.8622 22.0845 13.8572C22.4523 13.8522 22.7355 13.9963 22.9443 14.2001C23.4363 14.6722 23.5506 15.4674 23.5506 15.4674C23.5555 15.4922 23.5406 15.5171 23.5158 15.522C23.4909 15.527 23.4661 15.5071 23.4661 15.4823C23.4661 15.4823 23.3468 14.7269 22.8747 14.2846C22.6809 14.1007 22.4225 13.9765 22.0895 13.9814C21.7565 13.9864 21.5031 14.1106 21.3093 14.2896C20.9514 14.6126 20.7825 15.0996 20.7228 15.3332C20.7079 15.3928 20.698 15.4326 20.693 15.4525V15.4574ZM17.5671 15.4574C17.5671 15.4624 17.5671 15.4674 17.5621 15.4773C17.5621 15.4773 17.4826 15.4972 17.4876 15.4425C17.4926 15.4226 17.4975 15.3878 17.5075 15.3381C17.5522 15.1394 17.6764 14.7219 17.9448 14.379C18.0641 14.2299 18.2132 14.0908 18.3921 13.9963C18.5561 13.9119 18.74 13.8622 18.9586 13.8572C19.3264 13.8522 19.6096 13.9963 19.8184 14.2001C20.3054 14.6722 20.4247 15.4674 20.4247 15.4674C20.4296 15.4922 20.4147 15.5171 20.3899 15.522C20.365 15.527 20.3451 15.5071 20.3402 15.4823C20.3402 15.4823 20.2209 14.7269 19.7488 14.2846C19.555 14.1007 19.2966 13.9765 18.9636 13.9814C18.6306 13.9864 18.3772 14.1106 18.1784 14.2896C17.8206 14.6126 17.6516 15.0996 17.592 15.3332C17.5771 15.3928 17.5671 15.4326 17.5621 15.4525C17.5671 15.4525 17.5671 15.4574 17.5671 15.4574ZM26.1696 13.569C26.1696 13.569 26.0255 13.1366 25.6577 12.8434C25.4639 12.6893 25.2104 12.575 24.8824 12.58C24.7333 12.58 24.5992 12.6048 24.4849 12.6446C24.3457 12.6893 24.2215 12.7589 24.1221 12.8384C23.7493 13.1267 23.6102 13.5491 23.6102 13.5491C23.6052 13.569 23.5804 13.5839 23.5655 13.5739C23.5456 13.564 23.5357 13.5441 23.5456 13.5193C23.5456 13.5193 23.6798 13.062 24.0674 12.744C24.1767 12.6545 24.306 12.575 24.46 12.5253C24.5892 12.4806 24.7284 12.4557 24.8924 12.4557C25.2452 12.4557 25.5186 12.585 25.7223 12.7539C26.1099 13.072 26.2541 13.5391 26.2541 13.5391C26.264 13.564 26.2491 13.5888 26.2292 13.5988C26.1994 13.6087 26.1746 13.5938 26.1696 13.569ZM23.1977 12.0383C23.1977 12.0383 22.994 11.8296 22.6759 11.6855C22.5069 11.6109 22.3082 11.5513 22.0845 11.5463C21.9354 11.5463 21.7764 11.5662 21.6074 11.6258C21.4037 11.6954 21.19 11.8196 20.9713 12.0184C20.9564 12.0333 20.9316 12.0333 20.9167 12.0135C20.9067 11.9985 20.9067 11.9687 20.9216 11.9538C21.1453 11.7351 21.3639 11.591 21.5727 11.5115C21.7516 11.4419 21.9205 11.4171 22.0795 11.4221C22.3181 11.427 22.5318 11.4966 22.7057 11.5811C23.0387 11.7451 23.2474 11.9687 23.2474 11.9687C23.2623 11.9836 23.2623 12.0135 23.2474 12.0333C23.2375 12.0532 23.2126 12.0532 23.1977 12.0383ZM20.7129 12.0333C20.7129 12.0333 20.5091 11.8296 20.1861 11.6855C20.0171 11.6109 19.8134 11.5562 19.5947 11.5562C19.4456 11.5562 19.2866 11.5811 19.1176 11.6407C18.9139 11.7153 18.7052 11.8395 18.4865 12.0433C18.4716 12.0582 18.4467 12.0582 18.4318 12.0383C18.4169 12.0184 18.4219 11.9936 18.4368 11.9787C18.6555 11.755 18.8741 11.6109 19.0829 11.5264C19.2618 11.4568 19.4307 11.427 19.5897 11.432C19.8283 11.432 20.042 11.5016 20.2209 11.5811C20.5588 11.7401 20.7675 11.9638 20.7675 11.9638C20.7825 11.9787 20.7874 12.0085 20.7725 12.0284C20.7526 12.0482 20.7278 12.0482 20.7129 12.0333ZM23.3667 13.569C23.3667 13.569 23.2226 13.1366 22.8548 12.8434C22.661 12.6893 22.4075 12.575 22.0795 12.58C21.9305 12.58 21.7963 12.6048 21.682 12.6446C21.5428 12.6893 21.4186 12.7589 21.3192 12.8384C20.9465 13.1267 20.8073 13.5491 20.8073 13.5491C20.8023 13.569 20.7775 13.5839 20.7626 13.5739C20.7427 13.564 20.7328 13.5441 20.7427 13.5193C20.7427 13.5193 20.8769 13.062 21.2645 12.744C21.3738 12.6545 21.5031 12.575 21.6571 12.5253C21.7863 12.4806 21.9255 12.4557 22.0895 12.4557C22.4423 12.4557 22.7157 12.585 22.9194 12.7539C23.3071 13.072 23.4512 13.5391 23.4512 13.5391C23.4611 13.564 23.4462 13.5888 23.4263 13.5988C23.3965 13.6087 23.3717 13.5938 23.3667 13.569ZM20.5638 13.569C20.5638 13.569 20.4197 13.1366 20.0519 12.8434C19.8581 12.6893 19.6046 12.575 19.2767 12.58C19.1276 12.58 18.9934 12.6048 18.8791 12.6446C18.7399 12.6893 18.6157 12.7589 18.5163 12.8384C18.1436 13.1267 18.0044 13.5491 18.0044 13.5491C17.9945 13.569 17.9746 13.5839 17.9597 13.5739C17.9398 13.564 17.9299 13.5441 17.9349 13.5193C17.9349 13.5193 18.069 13.062 18.4567 12.744C18.566 12.6545 18.6952 12.575 18.8493 12.5253C18.9785 12.4806 19.1176 12.4557 19.2816 12.4557C19.6345 12.4557 19.9078 12.585 20.1116 12.7539C20.4992 13.072 20.6433 13.5391 20.6433 13.5391C20.6532 13.564 20.6383 13.5888 20.6185 13.5988C20.5936 13.6087 20.5688 13.5938 20.5638 13.569ZM25.6776 12.0383C25.6776 12.0383 25.4788 11.8296 25.1558 11.6855C24.9868 11.6109 24.788 11.5513 24.5644 11.5513C24.4153 11.5513 24.2563 11.5711 24.0873 11.6308C23.8835 11.7004 23.6698 11.8246 23.4512 12.0284C23.4363 12.0433 23.4114 12.0433 23.4015 12.0234C23.3866 12.0085 23.3916 11.9787 23.4065 11.9638C23.6301 11.7401 23.8488 11.601 24.0575 11.5215C24.2364 11.4519 24.4053 11.427 24.5644 11.432C24.8029 11.437 25.0166 11.5065 25.1906 11.591C25.5235 11.7501 25.7323 11.9787 25.7323 11.9787C25.7472 11.9985 25.7521 12.0234 25.7372 12.0433C25.7223 12.0532 25.6974 12.0532 25.6776 12.0383ZM23.645 18.8567L23.3419 18.8616C23.3369 18.8616 23.3319 18.8616 23.3319 18.8616C23.3021 18.8915 23.2673 18.9213 23.2325 18.9511C23.2226 18.961 23.2126 18.961 23.2027 18.9561C23.1977 18.9561 23.1977 18.9561 23.1927 18.9561C23.0983 18.9511 23.0039 18.9461 22.9095 18.9312C22.8449 18.9213 22.7853 18.9064 22.7206 18.8915C22.666 18.8765 22.6163 18.8567 22.5666 18.8368C22.5119 18.8119 22.4672 18.7871 22.4175 18.7573C22.3777 18.7324 22.3429 18.7076 22.3082 18.6778C22.338 18.8268 22.4026 19.125 22.5119 19.4232C22.5815 19.6071 22.661 19.791 22.7654 19.95C22.7952 19.9897 22.7852 20.0295 22.7554 20.0593C22.7355 20.0842 22.7008 20.104 22.6511 20.119C22.4871 20.1786 22.164 20.2084 22.0249 20.2183C21.9951 20.2183 21.9702 20.2233 21.9603 20.2233C21.9553 20.2233 21.9553 20.2233 21.9553 20.2233L21.9801 20.2134C21.9801 20.2134 21.9056 20.2283 21.9056 20.1736C21.9056 20.1736 21.9056 20.1637 21.9056 20.1587C21.9056 20.1438 21.9106 20.1239 21.9106 20.0941H21.9056L21.4782 19.9947C21.4683 19.9897 21.4583 19.9848 21.4534 19.9748C21.4484 19.9649 21.4434 19.955 21.4484 19.945C21.4484 19.945 21.5031 19.786 21.5727 19.5723C21.5975 19.4928 21.6273 19.4083 21.6571 19.3238C21.687 19.2393 21.7168 19.1598 21.7466 19.0803C21.8013 18.9362 21.846 18.807 21.8857 18.7125C21.8907 18.7076 21.8907 18.6976 21.8957 18.6927C21.8659 18.7175 21.836 18.7374 21.8012 18.7573C21.7515 18.7871 21.7019 18.8119 21.6522 18.8368C21.6025 18.8567 21.5528 18.8765 21.4981 18.8915C21.4385 18.9113 21.3739 18.9213 21.3142 18.9312C21.2198 18.9461 21.1254 18.9511 21.031 18.9561C21.026 18.9561 21.026 18.9561 21.021 18.9561C21.0111 18.961 21.0011 18.961 20.9912 18.9511C20.9663 18.9262 20.9365 18.9064 20.9167 18.8815C20.9117 18.8815 20.9067 18.8865 20.9017 18.8865L20.5141 18.9213C20.4942 19.3487 20.5638 20.5662 20.5638 20.5662L20.3352 20.5613C20.3352 20.5613 20.2805 19.1548 20.2706 18.8567L19.9674 18.8616C19.9625 18.8616 19.9575 18.8616 19.9575 18.8616C19.9277 18.8915 19.8929 18.9213 19.8581 18.9511C19.8482 18.961 19.8382 18.961 19.8283 18.9561C19.8233 18.9561 19.8233 18.9561 19.8184 18.9561C19.719 18.9511 19.6245 18.9461 19.5301 18.9312C19.4655 18.9213 19.4009 18.9064 19.3413 18.8915C19.2866 18.8765 19.2369 18.8567 19.1872 18.8368C19.1325 18.8119 19.0878 18.7871 19.0381 18.7573C18.9984 18.7324 18.9636 18.7076 18.9238 18.6778C18.9536 18.8268 19.0182 19.125 19.1276 19.4232C19.1971 19.6071 19.2816 19.791 19.386 19.95C19.4108 19.9897 19.4059 20.0295 19.376 20.0593C19.3562 20.0842 19.3164 20.104 19.2667 20.119C19.0978 20.1786 18.7747 20.2084 18.6306 20.2183C18.6008 20.2183 18.5759 20.2233 18.566 20.2233C18.561 20.2233 18.561 20.2233 18.561 20.2233L18.5859 20.2134C18.5859 20.2134 18.5064 20.2283 18.5113 20.1736C18.5113 20.1736 18.5113 20.1637 18.5113 20.1587C18.5113 20.1438 18.5163 20.1239 18.5163 20.0941C18.5113 20.0941 18.5113 20.0941 18.5064 20.0941L18.079 19.9947C18.069 19.9897 18.0591 19.9848 18.0541 19.9748C18.0492 19.9649 18.0492 19.955 18.0492 19.945C18.0492 19.945 18.1038 19.786 18.1784 19.5723C18.2032 19.4928 18.233 19.4083 18.2629 19.3238C18.2927 19.2393 18.3225 19.1598 18.3523 19.0803C18.407 18.9362 18.4567 18.807 18.4915 18.7125C18.4964 18.7076 18.4964 18.6976 18.5014 18.6927C18.4716 18.7175 18.4368 18.7374 18.407 18.7573C18.3573 18.7871 18.3076 18.8119 18.2579 18.8368C18.2082 18.8567 18.1585 18.8765 18.1038 18.8915C18.0442 18.9113 17.9796 18.9213 17.915 18.9312C17.8205 18.9461 17.7261 18.9511 17.6317 18.9561C17.6267 18.9561 17.6267 18.9561 17.6218 18.9561C17.6118 18.961 17.6019 18.961 17.592 18.9511C17.5671 18.9262 17.5373 18.9064 17.5124 18.8815C17.5075 18.8815 17.5025 18.8865 17.4975 18.8865L17.1049 18.9213C17.085 19.3487 17.09 19.7264 17.1 19.9947C17.1049 20.1637 17.1099 20.4519 17.1099 20.4519C17.1049 20.5016 16.9558 20.4718 16.9558 20.4718C16.9558 20.4718 16.936 20.2134 16.926 20.0593C16.8912 19.4282 16.8564 18.0516 17.1397 16.9682C17.249 16.5458 17.4081 16.1731 17.6268 15.8948C17.8951 15.5568 18.2529 15.358 18.7201 15.3928C19.54 15.4525 20.0022 16.1333 20.2358 16.993C20.3054 17.2415 20.3551 17.5 20.3899 17.7683C20.4247 17.495 20.4744 17.2266 20.539 16.9732C20.6483 16.5507 20.8073 16.178 21.021 15.8997C21.2894 15.5618 21.6422 15.363 22.1094 15.3978C22.9194 15.4574 23.3766 16.1383 23.6102 16.998C23.6748 17.2465 23.7245 17.5099 23.7593 17.7733C23.7941 17.4999 23.8438 17.2316 23.9084 16.9781C24.0177 16.5557 24.1768 16.183 24.3954 15.9047C24.6638 15.5668 25.0216 15.368 25.4887 15.4028C26.3087 15.4624 26.7659 16.1432 27.0045 17.003C27.3971 18.4342 27.1983 20.4122 27.1983 20.4122C27.1983 20.4122 26.9846 20.447 26.9896 20.3973C26.9896 20.3973 27.0592 19.6866 27.0293 18.8716L26.7262 18.8765C26.7212 18.8765 26.7212 18.8765 26.7162 18.8765C26.6815 18.9064 26.6516 18.9362 26.6168 18.966C26.6069 18.9759 26.597 18.9759 26.587 18.971C26.5821 18.971 26.582 18.971 26.5771 18.971C26.4827 18.966 26.3883 18.961 26.2938 18.9461C26.2292 18.9362 26.1646 18.9213 26.105 18.9064C26.0503 18.8915 26.0006 18.8716 25.9509 18.8517C25.8963 18.8268 25.8515 18.802 25.8018 18.7722C25.7621 18.7473 25.7273 18.7225 25.6875 18.6927C25.7173 18.8418 25.782 19.1399 25.8913 19.4381C25.9609 19.622 26.0453 19.8059 26.1497 19.9649C26.1795 20.0047 26.1696 20.0444 26.1398 20.0742C26.1199 20.0991 26.0851 20.119 26.0304 20.1339C25.8615 20.1935 25.5434 20.2233 25.3993 20.2333C25.3695 20.2333 25.3446 20.2382 25.3347 20.2382C25.3297 20.2382 25.3297 20.2382 25.3297 20.2382L25.3546 20.2283C25.3546 20.2283 25.275 20.2432 25.28 20.1885C25.28 20.1885 25.28 20.1786 25.28 20.1736C25.28 20.1587 25.285 20.1388 25.285 20.109H25.28L24.8526 20.0096C24.8427 20.0047 24.8327 19.9997 24.8278 19.9897C24.8228 19.9798 24.8228 19.9699 24.8228 19.9599C24.8228 19.9599 24.8775 19.8009 24.952 19.5872C24.9769 19.5077 25.0067 19.4232 25.0365 19.3387C25.0663 19.2542 25.0961 19.1747 25.1259 19.0952C25.1806 18.9511 25.2303 18.8219 25.2651 18.7275C25.2701 18.7225 25.2701 18.7125 25.275 18.7076C25.2452 18.7324 25.2104 18.7523 25.1757 18.7722C25.1309 18.802 25.0762 18.8268 25.0265 18.8517C24.9769 18.8716 24.9272 18.8915 24.8725 18.9064C24.8129 18.9262 24.7482 18.9362 24.6836 18.9461C24.5892 18.961 24.4948 18.966 24.4004 18.971C24.3954 18.971 24.3904 18.971 24.3904 18.971C24.3805 18.9759 24.3706 18.9759 24.3606 18.966C24.3308 18.9412 24.3059 18.9213 24.2811 18.8964C24.2761 18.8964 24.2712 18.9014 24.2662 18.9014L23.8736 18.9362C23.8537 19.3636 23.8587 19.7413 23.8686 20.0096C23.8736 20.1786 23.8885 20.432 23.8835 20.447C23.8835 20.4519 23.635 20.447 23.635 20.447C23.635 20.447 23.6549 19.3288 23.645 18.8567ZM20.6433 17.6441L20.9216 17.6739C20.9216 17.6689 20.9216 17.6689 20.9266 17.6639C20.9465 17.5944 21.021 17.3856 21.185 17.4552C21.2745 17.49 21.3639 17.495 21.4484 17.5298C21.5826 17.5844 21.7068 17.659 21.8162 17.7286C21.8708 17.7633 21.9255 17.7981 21.9801 17.8379C22.0199 17.7932 22.0696 17.7683 22.1094 17.7683C22.1541 17.7683 22.2038 17.7981 22.2436 17.8478C22.3032 17.8081 22.3628 17.7633 22.4274 17.7236C22.5368 17.654 22.661 17.5795 22.7952 17.5248C22.8797 17.49 22.9691 17.4751 23.0586 17.4503C23.2325 17.4055 23.2971 17.5894 23.317 17.659C23.322 17.6789 23.3269 17.6987 23.3269 17.7236L23.5506 17.7136C23.5158 17.49 23.4661 17.2664 23.4065 17.0527C23.1928 16.3023 22.8151 15.686 22.1094 15.6363C21.5528 15.5966 21.1999 15.9743 20.9663 16.511C20.8123 16.844 20.7129 17.2366 20.6433 17.6441ZM20.8471 18.807C20.8222 18.7821 20.8024 18.7523 20.7874 18.7275C20.7377 18.6479 20.7179 18.5635 20.7427 18.4641C20.7576 18.4044 20.7924 18.3448 20.8272 18.2852C20.857 18.2404 20.8868 18.1907 20.9117 18.146C20.9216 18.1261 20.9266 18.1013 20.9316 18.0764C20.9415 17.9919 20.9266 17.9174 20.9216 17.8478C20.9167 17.818 20.9167 17.7882 20.9167 17.7633L20.6334 17.7484C20.6284 17.7882 20.6234 17.823 20.6185 17.8627C20.5737 18.1858 20.5439 18.5138 20.529 18.8169L20.8471 18.807ZM23.4114 18.7722L23.64 18.7523C23.6301 18.4492 23.6052 18.1311 23.5605 17.813H23.322C23.322 17.823 23.322 17.8329 23.317 17.8429C23.307 17.9124 23.2922 17.987 23.3071 18.0715C23.3071 18.0963 23.317 18.1162 23.3269 18.141C23.3468 18.1907 23.3816 18.2355 23.4114 18.2802C23.4462 18.3349 23.481 18.3945 23.4959 18.4591C23.5208 18.5535 23.5009 18.643 23.4512 18.7225C23.4363 18.7374 23.4263 18.7573 23.4114 18.7722ZM22 18.6132C21.9901 18.633 21.9802 18.6778 21.9603 18.7324C21.9305 18.8268 21.8857 18.961 21.841 19.1051C21.8112 19.1847 21.7864 19.2691 21.7565 19.3536C21.7267 19.4381 21.6969 19.5226 21.6671 19.6021C21.6124 19.7512 21.5677 19.8705 21.5478 19.9301L21.9255 20.0295V20.0146C21.9404 19.8456 21.9702 19.5624 21.9951 19.294C22.0199 19.0207 22.0497 18.7573 22.0597 18.638C22.0398 18.633 22.0249 18.6231 22.005 18.6082C22.005 18.6132 22 18.6132 22 18.6132ZM21.9454 18.5386C21.9404 18.5336 21.9404 18.5287 21.9354 18.5237C21.9255 18.4989 21.9106 18.474 21.9006 18.4492C21.8758 18.4641 21.8509 18.479 21.8261 18.4939C21.7615 18.5336 21.6919 18.5684 21.6223 18.5982C21.5776 18.6181 21.5279 18.633 21.4782 18.6479C21.4087 18.6678 21.3341 18.6827 21.2596 18.6877C21.2447 18.6927 21.2297 18.6778 21.2248 18.6529C21.2198 18.633 21.2347 18.6132 21.2496 18.6082C21.3093 18.5933 21.3689 18.5734 21.4235 18.5535C21.4782 18.5336 21.5379 18.5088 21.5925 18.4839C21.6621 18.4541 21.7267 18.4193 21.7913 18.3846C21.8211 18.3696 21.846 18.3547 21.8758 18.3398C21.8708 18.305 21.8659 18.2653 21.8659 18.2255C21.8211 18.2255 21.7764 18.2305 21.7317 18.2305C21.672 18.2305 21.6124 18.2255 21.5528 18.2206C21.4633 18.2106 21.3788 18.1907 21.2894 18.1709C21.2745 18.1659 21.2595 18.151 21.2645 18.1261C21.2645 18.1062 21.2794 18.0913 21.2993 18.0913C21.3639 18.0963 21.4235 18.1013 21.4882 18.1013C21.5279 18.1013 21.5726 18.1062 21.6124 18.1062C21.6323 18.1062 21.6522 18.1062 21.677 18.1062C21.7267 18.1062 21.7714 18.1112 21.8211 18.1112C21.8361 18.1112 21.8559 18.1112 21.8708 18.1112C21.8708 18.0864 21.8758 18.0665 21.8808 18.0466C21.7814 18.0267 21.682 18.0069 21.5876 17.982C21.4484 17.9472 21.3192 17.8975 21.2049 17.8279C21.18 17.813 21.1453 17.7733 21.1055 17.7286C21.0757 17.6888 21.0459 17.6391 21.0359 17.5944C21.0161 17.6242 21.0011 17.654 20.9912 17.6789C20.9763 17.7385 20.9862 17.7932 20.9962 17.8528C21.0061 17.9224 21.0161 17.9919 21.0111 18.0715C21.0061 18.1112 20.9962 18.146 20.9813 18.1808C20.9564 18.2355 20.9216 18.2901 20.8868 18.3398C20.857 18.3845 20.8272 18.4293 20.8173 18.479C20.7974 18.5386 20.8123 18.5933 20.8421 18.6479C20.8819 18.7225 20.9514 18.797 21.021 18.8666H21.026C21.1552 18.8517 21.2844 18.8219 21.4037 18.7871C21.4534 18.7722 21.5031 18.7573 21.5528 18.7374C21.6273 18.7076 21.6969 18.6778 21.7665 18.638C21.8261 18.6032 21.8808 18.5635 21.9305 18.5237C21.9404 18.5436 21.9454 18.5436 21.9454 18.5386ZM21.9056 17.9671C21.9106 17.9472 21.9205 17.9224 21.9305 17.9075C21.8808 17.8776 21.8311 17.8429 21.7814 17.813C21.677 17.7484 21.5528 17.6789 21.4235 17.6292C21.344 17.5993 21.2595 17.5745 21.1751 17.5646C21.1502 17.5596 21.1353 17.5646 21.1204 17.5646L21.1254 17.5695C21.1303 17.5795 21.1353 17.5894 21.1403 17.5993C21.1701 17.654 21.2198 17.7136 21.2496 17.7286C21.354 17.7932 21.4782 17.8429 21.6074 17.8826C21.7018 17.9174 21.8013 17.9422 21.9056 17.9671ZM22.2286 18.6082L22.2038 18.6032C22.1789 18.6281 22.1491 18.638 22.1193 18.643C22.1094 18.7622 22.0895 19.0256 22.0696 19.299C22.0448 19.5673 22.0249 19.8506 22.01 20.0245C22.005 20.0693 22 20.109 22 20.1339C22.0945 20.1289 22.2932 20.114 22.4572 20.0792C22.5467 20.0643 22.6262 20.0444 22.6709 20.0146C22.6759 20.0096 22.6809 20.0047 22.6859 20.0047L22.6908 19.9997C22.6908 19.9997 22.6908 19.9947 22.6859 19.9947C22.5815 19.8307 22.497 19.6419 22.4274 19.4481C22.3082 19.0753 22.2485 18.7076 22.2286 18.6082ZM23.2027 18.8815C23.2723 18.8119 23.3418 18.7374 23.3816 18.6628C23.4114 18.6082 23.4214 18.5535 23.4065 18.4939C23.3916 18.4442 23.3667 18.3995 23.3369 18.3547C23.3021 18.3001 23.2673 18.2504 23.2425 18.1957C23.2275 18.1609 23.2176 18.1261 23.2126 18.0864C23.2027 18.0069 23.2126 17.9323 23.2275 17.8677C23.2375 17.8081 23.2474 17.7484 23.2325 17.6938C23.2226 17.6639 23.2126 17.6341 23.1878 17.6093C23.1779 17.649 23.148 17.6987 23.1182 17.7435C23.0834 17.7882 23.0437 17.8279 23.0188 17.8429C22.9095 17.9075 22.7753 17.9572 22.6361 17.9969C22.5318 18.0218 22.4274 18.0466 22.3181 18.0615C22.3231 18.0814 22.328 18.1013 22.328 18.1261C22.3529 18.1261 22.3777 18.1261 22.4026 18.1261C22.4523 18.1261 22.502 18.1212 22.5467 18.1212C22.5666 18.1212 22.5865 18.1212 22.6113 18.1212C22.6511 18.1212 22.6958 18.1162 22.7355 18.1162C22.7952 18.1112 22.8598 18.1112 22.9244 18.1062C22.9393 18.1013 22.9542 18.1162 22.9592 18.141C22.9642 18.1609 22.9492 18.1808 22.9343 18.1858C22.8449 18.2056 22.7604 18.2255 22.6709 18.2355C22.6113 18.2404 22.5517 18.2454 22.492 18.2454C22.4374 18.2454 22.3877 18.2454 22.333 18.2404C22.333 18.2752 22.328 18.31 22.3231 18.3448C22.3578 18.3647 22.3926 18.3845 22.4274 18.3995C22.492 18.4342 22.5567 18.4641 22.6262 18.4988C22.6809 18.5237 22.7355 18.5485 22.7952 18.5684C22.8498 18.5883 22.9095 18.6082 22.9691 18.6231C22.984 18.6281 22.9989 18.643 22.994 18.6678C22.994 18.6877 22.9791 18.7026 22.9592 18.7026C22.8846 18.6927 22.8101 18.6827 22.7405 18.6628C22.6908 18.6479 22.6411 18.633 22.5964 18.6132C22.5268 18.5833 22.4572 18.5485 22.3926 18.5088C22.3578 18.4889 22.328 18.469 22.2982 18.4492C22.2883 18.4839 22.2734 18.5138 22.2634 18.5436C22.2734 18.5485 22.2784 18.5585 22.2883 18.5635C22.338 18.6032 22.3926 18.643 22.4523 18.6778C22.5169 18.7175 22.5914 18.7473 22.666 18.7772C22.7157 18.797 22.7654 18.8119 22.8151 18.8268C22.9343 18.8616 23.0635 18.8865 23.1927 18.9064C23.2027 18.8765 23.2027 18.8815 23.2027 18.8815ZM17.2441 17.6441L17.5274 17.6739C17.5274 17.6689 17.5274 17.6689 17.5323 17.6639C17.5522 17.5944 17.6267 17.3856 17.7957 17.4552C17.8852 17.49 17.9746 17.495 18.0591 17.5298C18.1983 17.5844 18.3225 17.659 18.4318 17.7286C18.4865 17.7633 18.5411 17.7981 18.5958 17.8379C18.6356 17.7932 18.6853 17.7683 18.725 17.7683C18.7698 17.7683 18.8195 17.7981 18.8592 17.8478C18.9189 17.8081 18.9785 17.7633 19.0431 17.7236C19.1524 17.654 19.2767 17.5795 19.4108 17.5248C19.4953 17.49 19.5848 17.4751 19.6792 17.4503C19.8581 17.4055 19.9177 17.5894 19.9426 17.659C19.9476 17.6789 19.9525 17.6987 19.9525 17.7236L20.1762 17.7136C20.1414 17.49 20.0917 17.2664 20.032 17.0527C19.8184 16.3023 19.4357 15.686 18.7201 15.6363C18.1585 15.5966 17.8007 15.9743 17.5621 16.511C17.4131 16.844 17.3137 17.2366 17.2441 17.6441ZM19.8333 18.8815C19.9029 18.8119 19.9724 18.7374 20.0122 18.6628C20.042 18.6082 20.0569 18.5535 20.037 18.4939C20.0221 18.4442 19.9923 18.3995 19.9625 18.3547C19.9277 18.3001 19.8929 18.2504 19.868 18.1957C19.8531 18.1609 19.8432 18.1261 19.8382 18.0864C19.8283 18.0069 19.8382 17.9323 19.8531 17.8677C19.8631 17.8081 19.873 17.7484 19.8581 17.6938C19.8482 17.6639 19.8382 17.6341 19.8134 17.6093C19.8034 17.649 19.7736 17.6987 19.7438 17.7435C19.709 17.7882 19.6693 17.8279 19.6444 17.8429C19.5351 17.9075 19.4009 17.9572 19.2618 17.9969C19.1574 18.0218 19.0481 18.0466 18.9437 18.0615C18.9487 18.0814 18.9487 18.1013 18.9536 18.1261C18.9785 18.1261 19.0033 18.1261 19.0282 18.1261C19.0779 18.1261 19.1276 18.1212 19.1723 18.1212C19.1922 18.1212 19.2121 18.1212 19.2369 18.1212C19.2767 18.1212 19.3214 18.1162 19.3612 18.1162C19.4208 18.1112 19.4854 18.1112 19.55 18.1062C19.5649 18.1013 19.5798 18.1162 19.5848 18.141C19.5848 18.1609 19.5748 18.1808 19.5599 18.1858C19.4705 18.2056 19.381 18.2255 19.2916 18.2355C19.2319 18.2404 19.1723 18.2454 19.1127 18.2454C19.058 18.2454 19.0083 18.2454 18.9536 18.2404C18.9536 18.2752 18.9487 18.31 18.9437 18.3448C18.9785 18.3647 19.0133 18.3845 19.0481 18.3995C19.1127 18.4342 19.1822 18.4641 19.2518 18.4988C19.3065 18.5237 19.3661 18.5485 19.4208 18.5684C19.4755 18.5883 19.5351 18.6082 19.5947 18.6231C19.6096 18.6281 19.6245 18.643 19.6196 18.6678C19.6196 18.6877 19.6047 18.7026 19.5848 18.7026C19.5103 18.6927 19.4357 18.6827 19.3612 18.6628C19.3115 18.6479 19.2617 18.633 19.217 18.6132C19.1425 18.5833 19.0779 18.5485 19.0083 18.5088C18.9785 18.4889 18.9437 18.469 18.9139 18.4492C18.9039 18.4839 18.889 18.5138 18.8741 18.5436C18.884 18.5485 18.894 18.5585 18.899 18.5635C18.9536 18.6032 19.0033 18.643 19.063 18.6778C19.1325 18.7175 19.2021 18.7473 19.2767 18.7772C19.3263 18.797 19.3761 18.8119 19.4258 18.8268C19.55 18.8616 19.6792 18.8865 19.8084 18.9064C19.8283 18.8765 19.8283 18.8815 19.8333 18.8815ZM18.8493 18.6082L18.8294 18.6032C18.8046 18.6281 18.7747 18.638 18.7449 18.643C18.735 18.7622 18.7151 19.0256 18.6902 19.299C18.6704 19.5673 18.6455 19.8506 18.6306 20.0245C18.6256 20.0693 18.6257 20.109 18.6207 20.1339C18.7151 20.1289 18.9139 20.114 19.0829 20.0792C19.1723 20.0643 19.2518 20.0444 19.2965 20.0146C19.3065 20.0096 19.3065 20.0047 19.3114 20.0047C19.3164 20.0047 19.3164 19.9997 19.3164 19.9997V19.9947C19.2071 19.8307 19.1226 19.6419 19.053 19.4481C18.9238 19.0753 18.8642 18.7076 18.8493 18.6082ZM24.0127 17.6441L24.296 17.6739C24.296 17.6689 24.296 17.6689 24.301 17.6639C24.3209 17.5944 24.3954 17.3856 24.5594 17.4552C24.6489 17.49 24.7433 17.495 24.8278 17.5298C24.962 17.5844 25.0862 17.659 25.2005 17.7286C25.2552 17.7633 25.3098 17.7981 25.3645 17.8379C25.4042 17.7932 25.4539 17.7683 25.4937 17.7683C25.5384 17.7683 25.5881 17.7981 25.6279 17.8478C25.6875 17.8081 25.7472 17.7633 25.8118 17.7236C25.9211 17.654 26.0453 17.5795 26.1845 17.5248C26.269 17.49 26.3584 17.4751 26.4528 17.4503C26.6317 17.4055 26.6914 17.5894 26.7162 17.659C26.7212 17.6789 26.7262 17.6987 26.7262 17.7236L26.9498 17.7136C26.915 17.49 26.8653 17.2664 26.8057 17.0527C26.592 16.3023 26.2093 15.686 25.4937 15.6363C24.9272 15.5966 24.5743 15.9743 24.3358 16.511C24.1817 16.844 24.0823 17.2366 24.0127 17.6441ZM25.3297 18.5386C25.3247 18.5336 25.3247 18.5287 25.3198 18.5237C25.3098 18.4989 25.2949 18.474 25.285 18.4492C25.2601 18.4641 25.2353 18.479 25.2104 18.4939C25.1458 18.5336 25.0763 18.5684 25.0017 18.5982C24.957 18.6181 24.9073 18.633 24.8576 18.6479C24.7831 18.6678 24.7135 18.6827 24.634 18.6877C24.619 18.6927 24.6041 18.6778 24.5992 18.6529C24.5992 18.633 24.6091 18.6132 24.624 18.6082C24.6836 18.5933 24.7433 18.5734 24.798 18.5535C24.8576 18.5336 24.9122 18.5088 24.9669 18.4839C25.0365 18.4541 25.1061 18.4193 25.1707 18.3846C25.2005 18.3696 25.2253 18.3547 25.2552 18.3398C25.2502 18.305 25.2452 18.2653 25.2452 18.2255C25.2005 18.2255 25.1558 18.2305 25.1111 18.2305C25.0514 18.2305 24.9918 18.2255 24.9321 18.2206C24.8427 18.2106 24.7582 18.1907 24.6687 18.1709C24.6538 18.1659 24.6389 18.151 24.6439 18.1261C24.6439 18.1062 24.6588 18.0913 24.6787 18.0913C24.7433 18.0963 24.8029 18.1013 24.8675 18.1013C24.9073 18.1013 24.952 18.1062 24.9918 18.1062C25.0116 18.1062 25.0315 18.1062 25.0514 18.1062C25.1011 18.1062 25.1508 18.1112 25.2005 18.1112C25.2154 18.1112 25.2353 18.1112 25.2502 18.1112C25.2502 18.0864 25.2552 18.0665 25.2601 18.0466C25.1607 18.0267 25.0613 18.0069 24.9669 17.982C24.8278 17.9472 24.6936 17.8975 24.5793 17.8279C24.5544 17.813 24.5147 17.7733 24.4799 17.7286C24.4501 17.6888 24.4203 17.6391 24.4103 17.5944C24.3855 17.6242 24.3755 17.654 24.3656 17.6789C24.3507 17.7385 24.3606 17.7932 24.3705 17.8528C24.3805 17.9224 24.3904 17.9919 24.3855 18.0715C24.3805 18.1112 24.3706 18.146 24.3557 18.1808C24.3308 18.2355 24.296 18.2901 24.2612 18.3398C24.2314 18.3845 24.2016 18.4293 24.1867 18.479C24.1718 18.5386 24.1817 18.5933 24.2115 18.6479C24.2513 18.7225 24.3209 18.797 24.3904 18.8666H24.3954C24.5246 18.8517 24.6538 18.8219 24.7781 18.7871C24.8278 18.7722 24.8775 18.7573 24.9272 18.7374C25.0017 18.7076 25.0763 18.6778 25.1409 18.638C25.2005 18.6032 25.2551 18.5635 25.3048 18.5237C25.3198 18.5436 25.3247 18.5436 25.3297 18.5386ZM25.285 17.9671C25.2949 17.9472 25.2999 17.9224 25.3098 17.9075C25.2601 17.8776 25.2104 17.8429 25.1607 17.813C25.0514 17.7484 24.9321 17.6789 24.798 17.6292C24.7184 17.5993 24.634 17.5745 24.5495 17.5646C24.5246 17.5596 24.5097 17.5646 24.4948 17.5646C24.4948 17.5646 24.4948 17.5695 24.4998 17.5695C24.5047 17.5795 24.5047 17.5894 24.5097 17.5993C24.5395 17.654 24.5892 17.7136 24.619 17.7286C24.7234 17.7932 24.8477 17.8429 24.9818 17.8826C25.0812 17.9174 25.1856 17.9422 25.285 17.9671ZM26.8107 18.7722L27.0393 18.7523C27.0293 18.4492 26.9995 18.1311 26.9548 17.813H26.7162C26.7162 17.823 26.7162 17.8329 26.7113 17.8429C26.7013 17.9124 26.6864 17.987 26.6964 18.0715C26.7013 18.0963 26.7063 18.1162 26.7162 18.141C26.7361 18.1907 26.7709 18.2355 26.8007 18.2802C26.8355 18.3349 26.8703 18.3945 26.8852 18.4591C26.9101 18.5535 26.8902 18.643 26.8405 18.7225C26.8355 18.7374 26.8206 18.7573 26.8107 18.7722ZM24.2165 18.807C24.1916 18.7821 24.1718 18.7523 24.1569 18.7275C24.1072 18.6479 24.0873 18.5635 24.1121 18.4641C24.1271 18.4044 24.1618 18.3448 24.1966 18.2852C24.2264 18.2404 24.2612 18.1907 24.2811 18.146C24.291 18.1261 24.296 18.1013 24.301 18.0764C24.3109 17.9919 24.296 17.9174 24.291 17.8478C24.2861 17.818 24.2861 17.7882 24.2861 17.7633L23.9978 17.7484C23.9929 17.7882 23.9879 17.823 23.9829 17.8627C23.9382 18.1858 23.9084 18.5138 23.8935 18.8169L24.2165 18.807ZM22.1392 18.5237C22.1591 18.5138 22.179 18.4889 22.1939 18.4591C22.2038 18.4492 22.2088 18.4342 22.2137 18.4193C22.2187 18.4044 22.2237 18.3945 22.2286 18.3796C22.2386 18.3498 22.2436 18.3199 22.2485 18.2852C22.2535 18.2653 22.2535 18.2404 22.2535 18.2206C22.2535 18.2156 22.2535 18.2056 22.2535 18.2007C22.2535 18.1709 22.2535 18.146 22.2485 18.1212C22.2485 18.1062 22.2436 18.0864 22.2436 18.0715C22.2386 18.0416 22.2336 18.0118 22.2237 17.987C22.2237 17.982 22.2187 17.977 22.2187 17.977C22.1889 17.9025 22.1392 17.8478 22.0994 17.8478C22.0597 17.8478 22.01 17.9025 21.9801 17.977C21.9801 17.982 21.9752 17.987 21.9752 17.987C21.9653 18.0118 21.9603 18.0416 21.9553 18.0715C21.9503 18.0864 21.9504 18.1062 21.9454 18.1261C21.9454 18.151 21.9404 18.1758 21.9404 18.2007C21.9404 18.2106 21.9404 18.2205 21.9404 18.2305C21.9404 18.2553 21.9454 18.2802 21.9503 18.305C21.9553 18.3398 21.9653 18.3696 21.9752 18.3995C21.9752 18.4094 21.9802 18.4144 21.9851 18.4243C21.9951 18.4442 22.005 18.4641 22.0149 18.4839C22.0348 18.5138 22.0597 18.5336 22.0845 18.5386C22.0895 18.5386 22.0945 18.5386 22.0994 18.5386C22.1193 18.5336 22.1292 18.5287 22.1392 18.5237ZM25.5235 18.5237C25.5434 18.5138 25.5633 18.4889 25.5782 18.4591C25.5881 18.4492 25.5931 18.4342 25.5981 18.4193C25.603 18.4044 25.608 18.3945 25.613 18.3796C25.6229 18.3498 25.6279 18.3199 25.6329 18.2852C25.6378 18.2653 25.6378 18.2404 25.6378 18.2206C25.6378 18.2156 25.6378 18.2056 25.6378 18.2007C25.6378 18.1709 25.6378 18.146 25.6329 18.1212C25.6329 18.1062 25.6279 18.0864 25.6229 18.0715C25.6179 18.0416 25.613 18.0118 25.603 17.987C25.603 17.982 25.603 17.977 25.5981 17.977C25.5683 17.9025 25.5186 17.8478 25.4788 17.8478C25.439 17.8478 25.3844 17.9025 25.3595 17.977C25.3595 17.982 25.3546 17.987 25.3546 17.987C25.3446 18.0118 25.3397 18.0416 25.3297 18.0715C25.3247 18.0864 25.3247 18.1062 25.3247 18.1261C25.3198 18.151 25.3198 18.1758 25.3198 18.2007C25.3198 18.2106 25.3198 18.2205 25.3198 18.2305C25.3198 18.2553 25.3247 18.2802 25.3297 18.305C25.3347 18.3398 25.3446 18.3696 25.3546 18.3995C25.3595 18.4094 25.3595 18.4144 25.3645 18.4243C25.3744 18.4442 25.3844 18.4641 25.3943 18.4839C25.4142 18.5138 25.439 18.5336 25.4639 18.5386C25.4688 18.5386 25.4738 18.5386 25.4788 18.5386C25.4987 18.5336 25.5136 18.5287 25.5235 18.5237ZM25.3844 18.6132C25.3744 18.633 25.3645 18.6778 25.3446 18.7324C25.3148 18.8268 25.2701 18.961 25.2204 19.1051C25.1906 19.1847 25.1657 19.2691 25.1359 19.3536C25.1061 19.4381 25.0763 19.5226 25.0464 19.6021C24.9918 19.7512 24.9471 19.8705 24.9272 19.9301L25.3048 20.0295V20.0146C25.3198 19.8456 25.3496 19.5624 25.3744 19.294C25.3993 19.0207 25.4291 18.7573 25.439 18.638C25.4192 18.633 25.4043 18.6231 25.3844 18.6082C25.3844 18.6132 25.3844 18.6132 25.3844 18.6132ZM18.7548 18.5237C18.7747 18.5138 18.7946 18.4889 18.8095 18.4591C18.8195 18.4492 18.8244 18.4342 18.8294 18.4193C18.8344 18.4044 18.8393 18.3945 18.8443 18.3796C18.8542 18.3498 18.8592 18.3199 18.8642 18.2852C18.8642 18.2653 18.8692 18.2404 18.8692 18.2206C18.8692 18.2156 18.8692 18.2056 18.8692 18.2007C18.8692 18.1709 18.8692 18.146 18.8642 18.1212C18.8642 18.1062 18.8592 18.0864 18.8592 18.0715C18.8542 18.0416 18.8493 18.0118 18.8393 17.987C18.8393 17.982 18.8344 17.977 18.8344 17.977C18.8046 17.9025 18.7549 17.8478 18.7151 17.8478C18.6754 17.8478 18.6207 17.9025 18.5958 17.977C18.5958 17.982 18.5909 17.987 18.5909 17.987C18.5809 18.0118 18.5759 18.0416 18.571 18.0715C18.566 18.0864 18.566 18.1062 18.561 18.1261C18.561 18.151 18.5561 18.1758 18.5561 18.2007C18.5561 18.2106 18.5561 18.2205 18.5561 18.2305C18.5561 18.2553 18.561 18.2802 18.566 18.305C18.571 18.3398 18.5809 18.3696 18.5909 18.3995C18.5909 18.4094 18.5958 18.4144 18.6008 18.4243C18.6107 18.4442 18.6207 18.4641 18.6306 18.4839C18.6505 18.5138 18.6753 18.5336 18.7002 18.5386C18.7052 18.5386 18.7101 18.5386 18.7151 18.5386C18.73 18.5336 18.7449 18.5287 18.7548 18.5237ZM18.561 18.5386C18.5561 18.5336 18.5561 18.5287 18.5511 18.5237C18.5412 18.4989 18.5262 18.474 18.5163 18.4492C18.4915 18.4641 18.4666 18.479 18.4418 18.4939C18.3771 18.5336 18.3076 18.5684 18.238 18.5982C18.1883 18.6181 18.1436 18.633 18.0939 18.6479C18.0194 18.6678 17.9498 18.6827 17.8703 18.6877C17.8554 18.6927 17.8355 18.6778 17.8355 18.6529C17.8355 18.633 17.8454 18.6132 17.8603 18.6082C17.9199 18.5933 17.9796 18.5734 18.0342 18.5535C18.0939 18.5336 18.1486 18.5088 18.2032 18.4839C18.2728 18.4541 18.3374 18.4193 18.407 18.3846C18.4368 18.3696 18.4616 18.3547 18.4915 18.3398C18.4865 18.305 18.4815 18.2653 18.4815 18.2255C18.4368 18.2255 18.3921 18.2305 18.3473 18.2305C18.2877 18.2305 18.2281 18.2255 18.1684 18.2206C18.079 18.2106 17.9945 18.1907 17.9051 18.1709C17.8901 18.1659 17.8752 18.151 17.8802 18.1261C17.8802 18.1062 17.8951 18.0913 17.915 18.0913C17.9796 18.0963 18.0392 18.1013 18.1038 18.1013C18.1436 18.1013 18.1883 18.1062 18.2281 18.1062C18.2479 18.1062 18.2678 18.1062 18.2927 18.1062C18.3424 18.1062 18.3921 18.1112 18.4368 18.1112C18.4517 18.1112 18.4716 18.1112 18.4865 18.1112C18.4915 18.0864 18.4915 18.0665 18.4964 18.0466C18.397 18.0267 18.2976 18.0069 18.2032 17.982C18.0641 17.9472 17.9299 17.8975 17.8156 17.8279C17.7908 17.813 17.751 17.7733 17.7162 17.7286C17.6814 17.6888 17.6566 17.6391 17.6416 17.5944C17.6168 17.6242 17.6069 17.654 17.5969 17.6789C17.582 17.7385 17.5919 17.7932 17.6019 17.8528C17.6118 17.9224 17.6218 17.9919 17.6168 18.0715C17.6118 18.1112 17.6019 18.146 17.587 18.1808C17.5621 18.2355 17.5273 18.2901 17.4926 18.3398C17.4627 18.3845 17.4329 18.4293 17.418 18.479C17.4031 18.5386 17.4131 18.5933 17.4429 18.6479C17.4826 18.7225 17.5522 18.797 17.6218 18.8666C17.6267 18.8666 17.6268 18.8666 17.6268 18.8666C17.7609 18.8517 17.8852 18.8219 18.0094 18.7871C18.0591 18.7722 18.1088 18.7573 18.1585 18.7374C18.233 18.7076 18.3076 18.6778 18.3722 18.638C18.4318 18.6032 18.4865 18.5635 18.5362 18.5237C18.5511 18.5436 18.5561 18.5436 18.561 18.5386ZM18.5163 17.9671C18.5262 17.9472 18.5312 17.9224 18.5412 17.9075C18.4915 17.8776 18.4418 17.8429 18.3921 17.813C18.2827 17.7484 18.1635 17.6789 18.0293 17.6292C17.9498 17.5993 17.8653 17.5745 17.7808 17.5646C17.756 17.5596 17.741 17.5646 17.7261 17.5646C17.7261 17.5646 17.7261 17.5695 17.7311 17.5695C17.7361 17.5795 17.741 17.5894 17.741 17.5993C17.7709 17.654 17.8205 17.7136 17.8504 17.7286C17.9547 17.7932 18.079 17.8429 18.2132 17.8826C18.3175 17.9174 18.4169 17.9422 18.5163 17.9671ZM17.4478 18.807C17.423 18.7821 17.4031 18.7523 17.3882 18.7275C17.3385 18.6479 17.3186 18.5635 17.3435 18.4641C17.3584 18.4044 17.3932 18.3448 17.428 18.2852C17.4578 18.2404 17.4925 18.1907 17.5124 18.146C17.5224 18.1261 17.5274 18.1013 17.5323 18.0764C17.5423 17.9919 17.5273 17.9174 17.5224 17.8478C17.5174 17.818 17.5174 17.7882 17.5174 17.7633L17.2292 17.7484C17.2242 17.7882 17.2192 17.823 17.2143 17.8627C17.1695 18.1858 17.1397 18.5138 17.1248 18.8169L17.4478 18.807ZM20.042 18.7722L20.2706 18.7523C20.2606 18.4492 20.2358 18.1311 20.1861 17.813H19.9476C19.9476 17.823 19.9476 17.8329 19.9426 17.8429C19.9327 17.9124 19.9178 17.987 19.9277 18.0715C19.9327 18.0963 19.9376 18.1162 19.9476 18.141C19.9675 18.1907 20.0022 18.2355 20.032 18.2802C20.0668 18.3349 20.1016 18.3945 20.1165 18.4591C20.1414 18.5535 20.1215 18.643 20.0718 18.7225C20.0668 18.7374 20.0519 18.7573 20.042 18.7722ZM22.3032 17.9671C22.4125 17.9422 22.5219 17.9174 22.6262 17.8826C22.7604 17.8429 22.8846 17.7932 22.984 17.7286C23.0138 17.7136 23.0636 17.654 23.0934 17.5993C23.0983 17.5894 23.1033 17.5795 23.1083 17.5695V17.5646C23.0983 17.5596 23.0785 17.5596 23.0586 17.5646C22.9741 17.5745 22.8896 17.5993 22.8101 17.6292C22.6809 17.6789 22.5566 17.7484 22.4523 17.813C22.3976 17.8478 22.338 17.8826 22.2833 17.9224C22.2883 17.9323 22.2932 17.9472 22.3032 17.9671ZM25.6179 18.6082L25.5931 18.6032C25.5682 18.6281 25.5384 18.638 25.5086 18.643C25.4987 18.7622 25.4788 19.0256 25.4589 19.299C25.439 19.5673 25.4142 19.8506 25.3993 20.0245C25.3943 20.0693 25.3894 20.109 25.3894 20.1339C25.4838 20.1289 25.6826 20.114 25.8515 20.0792C25.941 20.0643 26.0255 20.0444 26.0702 20.0146C26.0801 20.0096 26.0801 20.0047 26.0851 20.0047C26.0901 20.0047 26.0901 19.9997 26.0901 19.9997V19.9947C25.9807 19.8307 25.8963 19.6419 25.8267 19.4481C25.6925 19.0753 25.6328 18.7076 25.6179 18.6082ZM26.6019 18.8815C26.6715 18.8119 26.7411 18.7374 26.7808 18.6628C26.8107 18.6082 26.8256 18.5535 26.8057 18.4939C26.7958 18.4442 26.7659 18.3995 26.7311 18.3547C26.6963 18.3001 26.6616 18.2504 26.6367 18.1957C26.6218 18.1609 26.6119 18.1261 26.6069 18.0864C26.597 18.0069 26.6069 17.9323 26.6168 17.8677C26.6268 17.8081 26.6367 17.7484 26.6218 17.6938C26.6119 17.6639 26.6019 17.6341 26.5771 17.6093C26.5671 17.649 26.5373 17.6987 26.5075 17.7435C26.4727 17.7882 26.433 17.8279 26.4081 17.8429C26.2988 17.9075 26.1646 17.9572 26.0255 17.9969C25.9211 18.0218 25.8118 18.0466 25.7024 18.0615C25.7074 18.0814 25.7124 18.1013 25.7124 18.1261C25.7372 18.1261 25.7621 18.1261 25.7869 18.1261C25.8366 18.1261 25.8863 18.1212 25.936 18.1212C25.9559 18.1212 25.9758 18.1212 26.0006 18.1212C26.0404 18.1212 26.0851 18.1162 26.1249 18.1162C26.1845 18.1112 26.2491 18.1112 26.3137 18.1062C26.3286 18.1013 26.3435 18.1162 26.3485 18.141C26.3485 18.1609 26.3386 18.1808 26.3187 18.1858C26.2292 18.2056 26.1398 18.2255 26.0553 18.2355C25.9956 18.2404 25.936 18.2454 25.8764 18.2454C25.8217 18.2454 25.772 18.2454 25.7173 18.2404C25.7173 18.2752 25.7124 18.31 25.7074 18.3448C25.7422 18.3647 25.777 18.3845 25.8118 18.3995C25.8764 18.4342 25.946 18.4641 26.0155 18.4988C26.0702 18.5237 26.1298 18.5485 26.1845 18.5684C26.2392 18.5883 26.2988 18.6082 26.3584 18.6231C26.3733 18.6281 26.3883 18.643 26.3833 18.6678C26.3783 18.6877 26.3684 18.7026 26.3485 18.7026C26.2739 18.6927 26.1994 18.6827 26.1249 18.6628C26.0752 18.6479 26.0255 18.633 25.9807 18.6132C25.9062 18.5833 25.8416 18.5485 25.772 18.5088C25.7372 18.4889 25.7074 18.469 25.6776 18.4492C25.6676 18.4839 25.6527 18.5138 25.6378 18.5436C25.6478 18.5485 25.6527 18.5585 25.6627 18.5635C25.7124 18.6032 25.767 18.643 25.8267 18.6778C25.8913 18.7175 25.9658 18.7473 26.0404 18.7772C26.0901 18.797 26.1398 18.8119 26.1895 18.8268C26.3137 18.8616 26.4429 18.8865 26.5721 18.9064C26.597 18.8765 26.597 18.8815 26.6019 18.8815ZM25.6875 17.9671C25.7969 17.9422 25.9062 17.9174 26.0155 17.8826C26.1497 17.8429 26.2739 17.7932 26.3783 17.7286C26.4032 17.7136 26.4578 17.654 26.4876 17.5993C26.4926 17.5894 26.4976 17.5795 26.5026 17.5695C26.5026 17.5695 26.5026 17.5646 26.5075 17.5646C26.4976 17.5596 26.4777 17.5596 26.4528 17.5646C26.3634 17.5745 26.2839 17.5993 26.2044 17.6292C26.0702 17.6789 25.9509 17.7484 25.8416 17.813C25.7819 17.8478 25.7223 17.8826 25.6677 17.9224C25.6726 17.9323 25.6826 17.9472 25.6875 17.9671ZM18.9188 17.9671C19.0282 17.9422 19.1425 17.9174 19.2468 17.8826C19.381 17.8429 19.5053 17.7932 19.6096 17.7286C19.6345 17.7136 19.6891 17.654 19.719 17.5993C19.7239 17.5894 19.7289 17.5795 19.7339 17.5695C19.7339 17.5695 19.7339 17.5646 19.7389 17.5646C19.7289 17.5596 19.709 17.5596 19.6842 17.5646C19.5997 17.5745 19.5152 17.5993 19.4357 17.6292C19.3015 17.6789 19.1822 17.7484 19.0729 17.813C19.0133 17.8478 18.9586 17.8826 18.899 17.9224C18.9089 17.9323 18.9139 17.9472 18.9188 17.9671ZM18.6157 18.6132C18.6058 18.633 18.5958 18.6778 18.5759 18.7324C18.5461 18.8268 18.5014 18.961 18.4517 19.1051C18.4219 19.1847 18.397 19.2691 18.3672 19.3536C18.3374 19.4381 18.3076 19.5226 18.2778 19.6021C18.2231 19.7512 18.1784 19.8705 18.1585 19.9301L18.5362 20.0295V20.0146C18.5511 19.8456 18.5809 19.5624 18.6058 19.294C18.6356 19.0207 18.6604 18.7573 18.6704 18.638C18.6505 18.633 18.6356 18.6231 18.6157 18.6082C18.6207 18.6132 18.6157 18.6132 18.6157 18.6132Z" fill="#133F24"/>
</svg>
